<svg width="1192" height="229" viewBox="0 0 1192 229" fill="none" xmlns="http://www.w3.org/2000/svg">
<g clip-path="url(#clip0_2643_16597)">
<path d="M210.541 67.0792H190.481C190.461 67.4292 190.431 67.7592 190.431 68.0992C190.431 73.6892 190.431 79.2692 190.431 84.8592C190.431 86.6292 190.961 87.1392 192.751 87.1492C194.171 87.1492 195.601 87.1492 197.131 87.1492C197.131 86.0192 197.121 84.9892 197.131 83.9492C197.161 81.8692 198.541 80.4492 200.621 80.4492C210.571 80.4392 220.521 80.4392 230.471 80.4492C232.611 80.4492 233.981 81.8592 233.991 84.0192C234.011 87.2292 234.011 90.4392 233.991 93.6592C233.981 95.8092 232.591 97.1992 230.441 97.1992C220.521 97.2092 210.611 97.1992 200.691 97.1992C198.531 97.1992 197.151 95.8092 197.121 93.6692C197.111 92.6592 197.121 91.6492 197.121 90.4992C195.611 90.4992 194.161 90.4992 192.711 90.4992C189.071 90.4992 187.071 88.4992 187.061 84.8692C187.061 83.4392 187.061 82.0192 187.061 80.4892C186.671 80.4692 186.341 80.4392 186.001 80.4392C179.301 80.4392 172.591 80.4392 165.891 80.4392C164.121 80.4392 163.601 80.9692 163.591 82.7492C163.591 84.1692 163.591 85.5992 163.591 87.1392C164.051 87.1392 164.421 87.1392 164.791 87.1392C168.741 87.1392 172.681 87.1392 176.631 87.1392C178.991 87.1392 180.341 88.4792 180.351 90.8292C180.351 93.9692 180.361 97.1092 180.351 100.259C180.351 102.539 178.971 103.899 176.681 103.899C166.831 103.899 156.991 103.899 147.141 103.899C144.851 103.899 143.491 102.539 143.481 100.249C143.471 97.1092 143.481 93.9692 143.481 90.8192C143.481 88.4892 144.861 87.1492 147.211 87.1392C151.501 87.1392 155.791 87.1392 160.231 87.1392C160.231 85.6392 160.231 84.1892 160.231 82.7392C160.231 79.0992 162.231 77.0892 165.851 77.0892C172.481 77.0892 179.121 77.0892 185.751 77.0892H186.971V67.0292H185.861C181.911 67.0292 177.971 67.0292 174.021 67.0292C170.691 67.0292 168.621 64.9392 168.611 61.5892C168.611 58.9392 168.611 56.2892 168.611 53.5792C160.041 52.7792 153.181 49.0192 148.241 42.0092C144.661 36.9192 143.101 31.1992 143.531 24.9992C144.451 11.8192 154.561 1.76924 166.821 0.229243C174.481 -0.730757 181.371 1.24924 187.321 6.16924C193.231 11.0692 196.371 17.4592 197.031 25.1292H202.351C207.761 25.1292 213.171 25.1192 218.581 25.1492C219.271 25.1492 219.631 24.9592 219.931 24.3192C221.311 21.4592 222.761 18.6392 224.161 15.7892C224.401 15.3092 224.641 15.0492 225.251 15.0492C232.231 15.0792 239.221 15.0692 246.201 15.0692C246.301 15.0692 246.411 15.0992 246.651 15.1292C246.491 15.4692 246.361 15.7792 246.221 16.0692C244.551 19.4092 242.871 22.7392 241.241 26.0892C241.051 26.4792 241.051 27.1092 241.241 27.4992C242.851 30.8292 244.521 34.1292 246.171 37.4292C246.321 37.7392 246.461 38.0492 246.661 38.4592C246.271 38.4792 245.981 38.5192 245.691 38.5192C238.951 38.5192 232.211 38.5192 225.481 38.5392C224.791 38.5392 224.431 38.3392 224.131 37.7092C222.751 34.8492 221.331 32.0192 219.871 29.1992C219.701 28.8792 219.241 28.4992 218.911 28.4992C211.721 28.4592 204.531 28.4792 197.331 28.4792C197.261 28.4792 197.201 28.5092 197.031 28.5592C196.491 35.1992 193.941 40.9892 189.181 45.7392C184.451 50.4592 178.691 53.0092 171.981 53.5392C171.981 56.4792 171.951 59.3392 172.001 62.1892C172.021 62.9992 172.611 63.4892 173.421 63.6392C173.661 63.6792 173.911 63.6692 174.151 63.6692C185.951 63.6692 197.751 63.6692 209.551 63.6692H210.501C210.501 62.5992 210.501 61.5992 210.501 60.6092C210.521 58.3392 211.891 56.9692 214.171 56.9692C224.021 56.9692 233.861 56.9692 243.711 56.9692C246.001 56.9692 247.361 58.3292 247.371 60.6092C247.381 63.7892 247.381 66.9592 247.371 70.1392C247.361 72.3392 245.971 73.7192 243.751 73.7192C233.871 73.7192 223.991 73.7192 214.111 73.7192C211.891 73.7192 210.531 72.3392 210.511 70.1192C210.511 69.1392 210.511 68.1692 210.511 67.0692L210.541 67.0792ZM186.891 25.0892C186.611 18.3492 180.281 9.92924 169.981 10.0592C160.761 10.1792 153.401 17.9092 153.571 27.2992C153.741 36.5292 161.621 43.8592 171.061 43.5592C179.201 43.3092 187.141 35.7792 186.871 28.5592H180.251C179.041 34.2392 174.181 37.2592 169.441 36.8292C164.511 36.3892 160.581 32.3392 160.301 27.4792C160.011 22.4792 163.431 17.9492 168.231 16.9792C170.691 16.4792 173.031 16.8092 175.211 18.0392C177.981 19.5992 179.601 22.0292 180.261 25.0892H186.901H186.891ZM190.381 28.5292C189.741 34.2492 187.291 38.9992 182.761 42.5692C178.201 46.1692 172.981 47.4992 167.241 46.6792C157.941 45.3492 150.511 37.0392 150.231 27.6692C149.931 17.7292 156.661 9.04924 166.151 7.12924C170.981 6.14924 175.611 6.75924 179.921 9.16924C186.141 12.6492 189.531 18.0792 190.391 25.0792H193.601C193.221 14.6492 184.021 3.28924 170.121 3.35924C156.931 3.42924 146.541 14.3392 146.871 27.7192C147.191 40.6092 158.521 50.9992 171.621 50.2292C185.861 49.3892 193.471 37.2792 193.561 28.5292H190.371H190.381ZM244.021 60.3992H213.991V70.3192H244.021V60.3992ZM230.611 83.8592H200.581V93.7892H230.611V83.8592ZM146.911 100.479H176.941V90.5492H146.911V100.479ZM223.291 25.1692H232.251V28.5292H223.331C224.341 30.5592 225.321 32.4392 226.221 34.3592C226.511 34.9792 226.851 35.2192 227.561 35.2092C231.851 35.1692 236.141 35.1892 240.431 35.1892C240.681 35.1892 240.941 35.1492 241.291 35.1192C240.461 33.4492 239.681 31.8992 238.911 30.3392C238.341 29.1892 237.321 28.0292 237.331 26.8692C237.331 25.6792 238.331 24.4792 238.911 23.2992C239.691 21.7192 240.481 20.1392 241.321 18.4392C236.481 18.4392 231.811 18.4392 227.141 18.4592C226.901 18.4592 226.551 18.6892 226.441 18.9092C225.401 20.9192 224.401 22.9392 223.281 25.1792L223.291 25.1692ZM176.691 25.1392C176.001 21.9492 172.791 19.7392 169.561 20.1392C166.101 20.5592 163.551 23.4992 163.621 26.9892C163.691 30.3792 166.431 33.2492 169.811 33.4992C173.031 33.7292 176.161 31.4692 176.661 28.4792H170.381V25.1492H176.681L176.691 25.1392Z" fill="#9DC0F3"/>
<path d="M220.552 63.7383V66.9583H217.312V63.7383H220.552Z" fill="#9DC0F3"/>
<path d="M227.25 67H224.02V63.75H227.25V67Z" fill="#9DC0F3"/>
<path d="M230.699 63.7188H233.929V66.9688H230.699V63.7188Z" fill="#9DC0F3"/>
<path d="M237.43 63.7285H240.66V66.9485H237.43V63.7285Z" fill="#9DC0F3"/>
<path d="M207.14 90.459H203.91V87.209H207.14V90.459Z" fill="#9DC0F3"/>
<path d="M210.602 87.1992H213.822V90.4292H210.602V87.1992Z" fill="#9DC0F3"/>
<path d="M217.32 87.1895H220.54V90.4095H217.32V87.1895Z" fill="#9DC0F3"/>
<path d="M224.031 87.1699H227.211V90.4299H224.031V87.1699Z" fill="#9DC0F3"/>
<path d="M153.499 97.1499H150.289V93.9199H153.499V97.1499Z" fill="#9DC0F3"/>
<path d="M156.949 97.1499V93.9199H160.199V97.1499H156.949Z" fill="#9DC0F3"/>
<path d="M166.89 97.1584H163.68V93.8984H166.89V97.1584Z" fill="#9DC0F3"/>
<path d="M173.619 93.9102V97.1301H170.379V93.9102H173.619Z" fill="#9DC0F3"/>
<path d="M272.2 208.741H269.32V193.811H272.2V208.741Z" fill="#475F96"/>
<path d="M276.25 208.741V193.811H280.85C282.41 193.811 283.7 194.391 284.72 195.561C285.74 196.731 286.25 198.221 286.25 200.051V202.521C286.25 204.351 285.74 205.851 284.72 207.011C283.7 208.171 282.41 208.751 280.85 208.751H276.25V208.741ZM279.14 196.081V206.491H280.85C281.6 206.491 282.2 206.121 282.65 205.381C283.1 204.641 283.34 203.691 283.34 202.521V200.031C283.34 198.871 283.11 197.931 282.65 197.191C282.19 196.451 281.59 196.081 280.85 196.081H279.14Z" fill="#475F96"/>
<path d="M297.302 202.141H292.742V206.481H298.212V208.741H289.852V193.811H298.192V196.081H292.752V199.891H297.312V202.151L297.302 202.141Z" fill="#475F96"/>
<path d="M308.24 205.511H304.51L303.67 208.741H300.66L304.89 193.811H307.88L312.11 208.741H309.09L308.24 205.511ZM305.1 203.231H307.64L306.4 198.491H306.34L305.1 203.231Z" fill="#475F96"/>
<path d="M322.55 196.071H319.04V208.731H316.14V196.071H312.73V193.801H322.55V196.071Z" fill="#475F96"/>
<path d="M332.989 202.141H328.429V206.481H333.899V208.741H325.539V193.811H333.879V196.081H328.439V199.891H332.999V202.151L332.989 202.141Z" fill="#475F96"/>
<path d="M1024.45 86.7718V71.8418H1029.05C1030.61 71.8418 1031.9 72.4218 1032.92 73.5918C1033.94 74.7618 1034.45 76.2518 1034.45 78.0818V80.5518C1034.45 82.3818 1033.94 83.8818 1032.92 85.0418C1031.9 86.2018 1030.61 86.7818 1029.05 86.7818H1024.45V86.7718ZM1027.34 74.1118V84.5218H1029.05C1029.8 84.5218 1030.4 84.1518 1030.85 83.4118C1031.3 82.6718 1031.54 81.7218 1031.54 80.5518V78.0618C1031.54 76.9018 1031.31 75.9618 1030.85 75.2218C1030.39 74.4818 1029.79 74.1118 1029.05 74.1118H1027.34Z" fill="#475F96"/>
<path d="M1045.51 80.1816H1040.95V84.5216H1046.42V86.7816H1038.06V71.8516H1046.4V74.1216H1040.95V77.9316H1045.51V80.1916V80.1816Z" fill="#475F96"/>
<path d="M1054.35 82.9616L1054.47 83.5916H1054.53L1054.65 83.0016L1057.23 71.8516H1060.27L1055.99 86.7816H1052.99L1048.74 71.8516H1051.78L1054.33 82.9716L1054.35 82.9616Z" fill="#475F96"/>
<path d="M1070.55 80.1816H1065.99V84.5216H1071.46V86.7816H1063.1V71.8516H1071.44V74.1216H1065.99V77.9316H1070.55V80.1916V80.1816Z" fill="#475F96"/>
<path d="M1077.75 84.5216H1083.32V86.7816H1074.86V71.8516H1077.75V84.5216Z" fill="#475F96"/>
<path d="M1096.55 81.4009C1096.55 83.1609 1096.05 84.5309 1095.06 85.5109C1094.07 86.4909 1092.75 86.9909 1091.1 86.9909C1089.45 86.9909 1088.14 86.5009 1087.15 85.5109C1086.16 84.5209 1085.67 83.1509 1085.67 81.4009V77.2409C1085.67 75.4909 1086.16 74.1209 1087.14 73.1209C1088.12 72.1309 1089.44 71.6309 1091.08 71.6309C1092.72 71.6309 1094.05 72.1309 1095.04 73.1209C1096.03 74.1209 1096.53 75.4909 1096.53 77.2409V81.4009H1096.55ZM1093.67 77.2109C1093.67 76.1209 1093.45 75.3009 1093.01 74.7509C1092.57 74.2009 1091.93 73.9209 1091.1 73.9209C1090.27 73.9209 1089.63 74.2009 1089.2 74.7509C1088.78 75.3009 1088.56 76.1209 1088.56 77.2209V81.4109C1088.56 82.5209 1088.77 83.3509 1089.2 83.9009C1089.63 84.4509 1090.26 84.7309 1091.1 84.7309C1091.94 84.7309 1092.58 84.4509 1093.01 83.9009C1093.44 83.3509 1093.66 82.5209 1093.66 81.4109V77.2209L1093.67 77.2109Z" fill="#475F96"/>
<path d="M1103.04 81.3718V86.7718H1100.15V71.8418H1105.14C1106.64 71.8418 1107.82 72.2818 1108.7 73.1618C1109.58 74.0418 1110.01 75.1918 1110.01 76.6118C1110.01 78.0318 1109.57 79.1918 1108.7 80.0618C1107.82 80.9318 1106.64 81.3718 1105.14 81.3718H1103.04ZM1103.04 79.1018H1105.14C1105.79 79.1018 1106.28 78.8718 1106.62 78.4018C1106.96 77.9418 1107.13 77.3418 1107.13 76.6318C1107.13 75.9218 1106.96 75.3018 1106.62 74.8218C1106.28 74.3518 1105.79 74.1118 1105.14 74.1118H1103.04V79.1018Z" fill="#475F96"/>
<path d="M1119.91 82.9216H1119.97L1122.77 71.8516H1126.55V86.7816H1123.68V77.3816H1123.62L1120.92 86.7816H1118.98L1116.3 77.4416H1116.24V86.7816H1113.36V71.8516H1117.12L1119.9 82.9216H1119.91Z" fill="#475F96"/>
<path d="M1137.83 80.1816H1133.27V84.5216H1138.74V86.7816H1130.38V71.8516H1138.72V74.1216H1133.27V77.9316H1137.83V80.1916V80.1816Z" fill="#475F96"/>
<path d="M1152.73 86.7718H1149.84L1145.1 77.2418H1145.04V86.7718H1142.15V71.8418H1145.04L1149.78 81.3818H1149.84V71.8418H1152.73V86.7718Z" fill="#475F96"/>
<path d="M1165.29 74.1118H1161.78V86.7718H1158.88V74.1118H1155.46V71.8418H1165.28V74.1118H1165.29Z" fill="#475F96"/>
<path d="M835.943 180.76L835.963 180.82C835.993 182.42 835.583 183.62 834.733 184.41C833.893 185.21 832.683 185.6 831.123 185.6C829.563 185.6 828.243 185.13 827.303 184.18C826.363 183.23 825.883 181.89 825.883 180.14V175.71C825.883 173.97 826.343 172.63 827.253 171.67C828.163 170.71 829.403 170.23 830.953 170.23C832.583 170.23 833.843 170.63 834.713 171.42C835.583 172.21 836.013 173.41 835.983 175.02L835.963 175.08H833.153C833.153 174.12 832.983 173.45 832.643 173.07C832.303 172.69 831.743 172.5 830.943 172.5C830.223 172.5 829.673 172.76 829.313 173.28C828.953 173.8 828.773 174.6 828.773 175.68V180.13C828.773 181.22 828.963 182.02 829.353 182.55C829.743 183.07 830.333 183.33 831.113 183.33C831.833 183.33 832.343 183.14 832.663 182.76C832.973 182.38 833.133 181.71 833.133 180.73H835.933L835.943 180.76Z" fill="#475F96"/>
<path d="M842.242 179.41V185.4H839.352V170.48H843.822C845.302 170.48 846.472 170.87 847.322 171.64C848.172 172.41 848.602 173.49 848.602 174.87C848.602 175.64 848.422 176.31 848.062 176.88C847.702 177.45 847.182 177.9 846.512 178.23C847.292 178.49 847.852 178.92 848.192 179.52C848.532 180.12 848.702 180.87 848.702 181.78V182.87C848.702 183.29 848.752 183.72 848.842 184.18C848.932 184.64 849.112 184.97 849.352 185.18V185.4H846.362C846.122 185.18 845.972 184.82 845.902 184.33C845.832 183.83 845.802 183.34 845.802 182.85V181.8C845.802 181.04 845.642 180.45 845.332 180.04C845.022 179.63 844.562 179.42 843.982 179.42H842.242V179.41ZM842.242 177.15H843.802C844.422 177.15 844.892 176.96 845.222 176.59C845.542 176.22 845.712 175.69 845.712 175.01C845.712 174.33 845.552 173.76 845.232 173.35C844.912 172.94 844.442 172.73 843.832 172.73H842.252V177.15H842.242Z" fill="#475F96"/>
<path d="M859.962 178.801H855.402V183.141H860.872V185.401H852.512V170.471H860.852V172.741H855.402V176.551H859.962V178.811V178.801Z" fill="#475F96"/>
<path d="M870.904 182.161H867.174L866.334 185.391H863.324L867.564 170.461H870.554L874.784 185.391H871.764L870.914 182.161H870.904ZM867.764 179.881H870.304L869.064 175.141H869.004L867.764 179.881Z" fill="#475F96"/>
<path d="M885.215 172.731H881.705V185.391H878.805V172.731H875.395V170.461H885.215V172.731Z" fill="#475F96"/>
<path d="M891.251 185.391H888.371V170.461H891.251V185.391Z" fill="#475F96"/>
<path d="M905.885 185.391H902.995L898.255 175.861H898.195V185.391H895.305V170.461H898.195L902.935 180.001H902.995V170.461H905.885V185.391Z" fill="#475F96"/>
<path d="M919.743 183.43C919.323 184.02 918.703 184.54 917.903 184.97C917.103 185.4 916.063 185.62 914.793 185.62C913.183 185.62 911.883 185.15 910.913 184.21C909.943 183.27 909.453 181.93 909.453 180.21V175.68C909.453 173.96 909.923 172.62 910.873 171.68C911.823 170.74 913.073 170.26 914.633 170.26C916.193 170.26 917.483 170.64 918.313 171.41C919.143 172.18 919.543 173.27 919.513 174.7L919.493 174.76H916.773C916.773 173.98 916.603 173.41 916.263 173.06C915.923 172.71 915.403 172.53 914.713 172.53C913.963 172.53 913.383 172.79 912.973 173.31C912.563 173.83 912.353 174.61 912.353 175.66V180.21C912.353 181.28 912.563 182.07 912.993 182.59C913.423 183.11 914.023 183.37 914.803 183.37C915.363 183.37 915.803 183.3 916.123 183.17C916.443 183.04 916.693 182.86 916.863 182.64V179.63H914.583V177.63H919.753V183.44L919.743 183.43Z" fill="#475F96"/>
<path d="M829.054 205.19V210.59H826.164V195.66H831.154C832.654 195.66 833.834 196.1 834.714 196.98C835.594 197.86 836.024 199.01 836.024 200.43C836.024 201.85 835.584 203.01 834.714 203.88C833.834 204.75 832.654 205.19 831.154 205.19H829.054ZM829.054 202.92H831.154C831.804 202.92 832.294 202.69 832.634 202.22C832.974 201.76 833.144 201.16 833.144 200.45C833.144 199.74 832.974 199.12 832.634 198.64C832.294 198.17 831.804 197.93 831.154 197.93H829.054V202.92Z" fill="#475F96"/>
<path d="M842.331 204.61V210.6H839.441V195.68H843.911C845.391 195.68 846.561 196.07 847.411 196.84C848.261 197.61 848.691 198.69 848.691 200.07C848.691 200.84 848.511 201.51 848.151 202.08C847.791 202.65 847.271 203.1 846.601 203.43C847.381 203.69 847.941 204.12 848.281 204.72C848.621 205.32 848.791 206.07 848.791 206.98V208.07C848.791 208.49 848.841 208.93 848.931 209.38C849.031 209.84 849.201 210.17 849.441 210.39V210.6H846.451C846.211 210.38 846.061 210.02 845.991 209.53C845.921 209.03 845.891 208.54 845.891 208.05V207C845.891 206.24 845.731 205.65 845.421 205.24C845.111 204.82 844.651 204.62 844.071 204.62H842.331V204.61ZM842.331 202.35H843.891C844.511 202.35 844.991 202.16 845.311 201.79C845.641 201.42 845.801 200.89 845.801 200.21C845.801 199.53 845.641 198.96 845.321 198.55C845.001 198.14 844.531 197.93 843.911 197.93H842.331V202.35Z" fill="#475F96"/>
<path d="M863.193 205.221C863.193 206.981 862.693 208.351 861.703 209.331C860.713 210.311 859.393 210.811 857.743 210.811C856.093 210.811 854.783 210.321 853.793 209.331C852.803 208.341 852.312 206.981 852.312 205.221V201.061C852.312 199.311 852.803 197.941 853.783 196.941C854.763 195.951 856.073 195.451 857.723 195.451C859.373 195.451 860.692 195.951 861.682 196.941C862.672 197.941 863.173 199.311 863.173 201.061V205.221H863.193ZM860.312 201.031C860.312 199.941 860.093 199.121 859.653 198.571C859.213 198.021 858.573 197.741 857.743 197.741C856.913 197.741 856.273 198.021 855.843 198.571C855.423 199.121 855.203 199.941 855.203 201.041V205.231C855.203 206.341 855.413 207.171 855.843 207.721C856.273 208.271 856.903 208.551 857.743 208.551C858.583 208.551 859.223 208.271 859.653 207.721C860.083 207.171 860.303 206.341 860.303 205.231V201.041L860.312 201.031Z" fill="#475F96"/>
<path d="M875.494 197.93H871.984V210.59H869.084V197.93H865.664V195.66H875.484V197.93H875.494Z" fill="#475F96"/>
<path d="M888.794 205.221C888.794 206.981 888.294 208.351 887.304 209.331C886.314 210.311 884.994 210.811 883.344 210.811C881.694 210.811 880.384 210.321 879.394 209.331C878.404 208.341 877.914 206.981 877.914 205.221V201.061C877.914 199.311 878.404 197.941 879.384 196.941C880.364 195.951 881.674 195.451 883.324 195.451C884.974 195.451 886.294 195.951 887.284 196.941C888.274 197.941 888.774 199.311 888.774 201.061V205.221H888.794ZM885.914 201.031C885.914 199.941 885.694 199.121 885.254 198.571C884.814 198.021 884.174 197.741 883.344 197.741C882.514 197.741 881.874 198.021 881.444 198.571C881.024 199.121 880.804 199.941 880.804 201.041V205.231C880.804 206.341 881.014 207.171 881.444 207.721C881.874 208.271 882.504 208.551 883.344 208.551C884.184 208.551 884.824 208.271 885.254 207.721C885.684 207.171 885.904 206.341 885.904 205.231V201.041L885.914 201.031Z" fill="#475F96"/>
<path d="M901.092 197.93H897.582V210.59H894.682V197.93H891.262V195.66H901.082V197.93H901.092Z" fill="#475F96"/>
<path d="M908.914 202.15H908.974L911.544 195.66H914.704L910.344 205.27V210.59H907.464V205.08L903.184 195.66H906.344L908.904 202.15H908.914Z" fill="#475F96"/>
<path d="M920.413 205.19V210.59H917.523V195.66H922.513C924.013 195.66 925.193 196.1 926.073 196.98C926.953 197.86 927.383 199.01 927.383 200.43C927.383 201.85 926.943 203.01 926.073 203.88C925.193 204.75 924.013 205.19 922.513 205.19H920.413ZM920.413 202.92H922.513C923.163 202.92 923.653 202.69 923.993 202.22C924.333 201.76 924.503 201.16 924.503 200.45C924.503 199.74 924.333 199.12 923.993 198.64C923.653 198.17 923.163 197.93 922.513 197.93H920.413V202.92Z" fill="#475F96"/>
<path d="M938.263 204H933.703V208.34H939.173V210.6H930.812V195.67H939.153V197.94H933.703V201.75H938.263V204.01V204Z" fill="#475F96"/>
<path d="M29.6009 40.4206V45.8206H26.7109V30.8906H31.7009C33.2009 30.8906 34.3809 31.3306 35.2609 32.2106C36.1409 33.0906 36.5709 34.2406 36.5709 35.6606C36.5709 37.0806 36.1309 38.2406 35.2609 39.1106C34.3809 39.9806 33.2009 40.4206 31.7009 40.4206H29.6009ZM29.6009 38.1506H31.7009C32.3509 38.1506 32.8409 37.9206 33.1809 37.4506C33.5209 36.9906 33.6909 36.3906 33.6909 35.6806C33.6909 34.9706 33.5209 34.3506 33.1809 33.8706C32.8409 33.4006 32.3509 33.1606 31.7009 33.1606H29.6009V38.1506Z" fill="#475F96"/>
<path d="M42.89 39.8402V45.8302H40V30.9102H44.47C45.95 30.9102 47.12 31.3002 47.97 32.0702C48.82 32.8402 49.25 33.9202 49.25 35.3002C49.25 36.0702 49.07 36.7402 48.71 37.3102C48.35 37.8802 47.83 38.3302 47.16 38.6602C47.94 38.9202 48.5 39.3502 48.84 39.9502C49.18 40.5502 49.35 41.3002 49.35 42.2102V43.3002C49.35 43.7202 49.4 44.1502 49.49 44.6102C49.58 45.0702 49.76 45.4002 50 45.6102V45.8302H47.01C46.77 45.6102 46.62 45.2502 46.55 44.7602C46.48 44.2602 46.45 43.7702 46.45 43.2802V42.2302C46.45 41.4702 46.29 40.8802 45.98 40.4702C45.67 40.0602 45.21 39.8502 44.63 39.8502H42.89V39.8402ZM42.89 37.5802H44.45C45.07 37.5802 45.55 37.3902 45.87 37.0202C46.19 36.6502 46.36 36.1202 46.36 35.4402C46.36 34.7602 46.2 34.1902 45.88 33.7802C45.56 33.3702 45.09 33.1602 44.48 33.1602H42.9V37.5802H42.89Z" fill="#475F96"/>
<path d="M63.7511 40.4497C63.7511 42.2097 63.2511 43.5797 62.2611 44.5597C61.2711 45.5397 59.9511 46.0397 58.3011 46.0397C56.6511 46.0397 55.3411 45.5497 54.3511 44.5597C53.3611 43.5697 52.8711 42.2097 52.8711 40.4497V36.2897C52.8711 34.5397 53.3611 33.1697 54.3411 32.1697C55.3211 31.1797 56.6411 30.6797 58.2811 30.6797C59.9211 30.6797 61.2511 31.1797 62.2411 32.1697C63.2311 33.1697 63.7311 34.5397 63.7311 36.2897V40.4497H63.7511ZM60.8711 36.2597C60.8711 35.1697 60.6511 34.3497 60.2111 33.7997C59.7711 33.2497 59.1311 32.9697 58.3011 32.9697C57.4711 32.9697 56.8311 33.2497 56.4011 33.7997C55.9811 34.3497 55.7611 35.1697 55.7611 36.2697V40.4597C55.7611 41.5697 55.9711 42.3997 56.4011 42.9497C56.8311 43.4997 57.4611 43.7797 58.3011 43.7797C59.1411 43.7797 59.7811 43.4997 60.2111 42.9497C60.6411 42.3997 60.8611 41.5697 60.8611 40.4597V36.2697L60.8711 36.2597Z" fill="#475F96"/>
<path d="M67.3398 45.8304V30.9004H71.6198C73.1798 30.9004 74.3898 31.2404 75.2598 31.9204C76.1298 32.6004 76.5598 33.6204 76.5598 34.9704C76.5598 35.6704 76.3998 36.3004 76.0798 36.8504C75.7598 37.4004 75.2898 37.8104 74.6698 38.0804C75.4998 38.2504 76.1198 38.6504 76.5298 39.2804C76.9398 39.9104 77.1398 40.6404 77.1398 41.4904C77.1398 42.9204 76.7198 44.0004 75.8898 44.7404C75.0598 45.4804 73.8798 45.8404 72.3398 45.8404H67.3398V45.8304ZM70.2298 37.2204H71.7498C72.3698 37.2104 72.8498 37.0304 73.1798 36.7004C73.5098 36.3704 73.6698 35.8804 73.6698 35.2404C73.6698 34.5304 73.4998 34.0104 73.1598 33.6704C72.8198 33.3304 72.3098 33.1704 71.6198 33.1704H70.2398V37.2204H70.2298ZM70.2298 39.2204V43.5804H72.3398C72.9698 43.5804 73.4398 43.4004 73.7698 43.0504C74.0898 42.7004 74.2498 42.1804 74.2498 41.4904C74.2498 40.8004 74.0998 40.2304 73.8098 39.8404C73.5198 39.4504 73.0598 39.2504 72.4398 39.2204H70.2398H70.2298Z" fill="#475F96"/>
<path d="M83.5228 43.5704H89.0928V45.8304H80.6328V30.9004H83.5228V43.5704Z" fill="#475F96"/>
<path d="M99.8523 39.2304H95.2923V43.5704H100.762V45.8304H92.4023V30.9004H100.742V33.1704H95.3023V36.9804H99.8623V39.2404L99.8523 39.2304Z" fill="#475F96"/>
<path d="M110.64 41.9704H110.7L113.5 30.9004H117.28V45.8304H114.41V36.4304H114.35L111.65 45.8304H109.71L107.03 36.4904H106.97V45.8304H104.09V30.9004H107.85L110.63 41.9704H110.64Z" fill="#475F96"/>
<path d="M26.7109 71.0198V56.0898H31.3109C32.8709 56.0898 34.1609 56.6698 35.1809 57.8398C36.2009 59.0098 36.7109 60.4998 36.7109 62.3298V64.7998C36.7109 66.6298 36.2009 68.1298 35.1809 69.2898C34.1609 70.4498 32.8709 71.0298 31.3109 71.0298H26.7109V71.0198ZM29.6009 58.3598V68.7698H31.3109C32.0609 68.7698 32.6609 68.3998 33.1109 67.6598C33.5609 66.9198 33.8009 65.9698 33.8009 64.7998V62.3098C33.8009 61.1498 33.5709 60.2098 33.1109 59.4698C32.6509 58.7298 32.0509 58.3598 31.3109 58.3598H29.6009Z" fill="#475F96"/>
<path d="M47.7725 64.4296H43.2125V68.7696H48.6825V71.0296H40.3125V56.0996H48.6525V58.3696H43.2125V62.1796H47.7725V64.4396V64.4296Z" fill="#475F96"/>
<path d="M59.712 64.7798H54.972V71.0198H52.082V56.0898H60.612V58.3598H54.972V62.5198H59.712V64.7798Z" fill="#475F96"/>
<path d="M66.8917 71.0198H64.0117V56.0898H66.8917V71.0198Z" fill="#475F96"/>
<path d="M81.5214 71.0198H78.6314L73.8914 61.4898H73.8314V71.0198H70.9414V56.0898H73.8314L78.5714 65.6298H78.6314V56.0898H81.5214V71.0198Z" fill="#475F96"/>
<path d="M88.4425 71.0198H85.5625V56.0898H88.4425V71.0198Z" fill="#475F96"/>
<path d="M101.172 58.3598H97.6616V71.0198H94.7616V58.3598H91.3516V56.0898H101.172V58.3598Z" fill="#475F96"/>
<path d="M107.212 71.0198H104.332V56.0898H107.212V71.0198Z" fill="#475F96"/>
<path d="M121.841 65.6489C121.841 67.4089 121.341 68.7789 120.351 69.7589C119.361 70.7389 118.041 71.2389 116.391 71.2389C114.741 71.2389 113.431 70.7489 112.441 69.7589C111.451 68.7689 110.961 67.4089 110.961 65.6489V61.4889C110.961 59.7389 111.451 58.3689 112.431 57.3689C113.411 56.3789 114.731 55.8789 116.371 55.8789C118.011 55.8789 119.341 56.3789 120.331 57.3689C121.321 58.3689 121.821 59.7389 121.821 61.4889V65.6489H121.841ZM118.961 61.4589C118.961 60.3689 118.741 59.5489 118.301 58.9989C117.861 58.4489 117.221 58.1689 116.391 58.1689C115.561 58.1689 114.921 58.4489 114.491 58.9989C114.071 59.5489 113.851 60.3689 113.851 61.4689V65.6589C113.851 66.7689 114.061 67.5989 114.491 68.1489C114.921 68.6989 115.551 68.9789 116.391 68.9789C117.231 68.9789 117.871 68.6989 118.301 68.1489C118.731 67.5989 118.951 66.7689 118.951 65.6589V61.4689L118.961 61.4589Z" fill="#475F96"/>
<path d="M136.021 71.0198H133.131L128.391 61.4898H128.331V71.0198H125.441V56.0898H128.331L133.071 65.6298H133.131V56.0898H136.021V71.0198Z" fill="#475F96"/>
<path d="M444.641 47.8812V32.9512H448.921C450.481 32.9512 451.691 33.2912 452.561 33.9712C453.431 34.6512 453.861 35.6712 453.861 37.0212C453.861 37.7212 453.701 38.3512 453.381 38.9012C453.061 39.4512 452.591 39.8612 451.971 40.1312C452.801 40.3012 453.421 40.7012 453.831 41.3312C454.241 41.9612 454.441 42.6912 454.441 43.5312C454.441 44.9612 454.021 46.0412 453.191 46.7812C452.361 47.5212 451.181 47.8812 449.641 47.8812H444.641ZM447.531 39.2712H449.051C449.671 39.2612 450.151 39.0812 450.481 38.7512C450.811 38.4212 450.971 37.9312 450.971 37.2912C450.971 36.5812 450.801 36.0612 450.461 35.7212C450.121 35.3812 449.611 35.2212 448.921 35.2212H447.541V39.2712H447.531ZM447.531 41.2712V45.6312H449.641C450.271 45.6312 450.741 45.4512 451.071 45.1012C451.391 44.7512 451.551 44.2312 451.551 43.5412C451.551 42.8512 451.401 42.2812 451.111 41.8912C450.821 41.5012 450.361 41.3012 449.741 41.2712H447.541H447.531Z" fill="#475F96"/>
<path d="M460.82 41.8909V47.8809H457.93V32.9609H462.4C463.88 32.9609 465.05 33.3509 465.9 34.1209C466.75 34.8909 467.18 35.9709 467.18 37.3509C467.18 38.1209 467 38.7909 466.64 39.3609C466.28 39.9309 465.76 40.3809 465.09 40.7109C465.87 40.9709 466.43 41.4009 466.77 42.0009C467.11 42.6009 467.28 43.3509 467.28 44.2609V45.3509C467.28 45.7709 467.33 46.2009 467.42 46.6609C467.51 47.1209 467.69 47.4509 467.93 47.6609V47.8709H464.94C464.7 47.6509 464.55 47.2909 464.48 46.8009C464.41 46.3009 464.38 45.8109 464.38 45.3209V44.2709C464.38 43.5109 464.22 42.9209 463.91 42.5109C463.6 42.1009 463.14 41.8809 462.56 41.8809H460.82V41.8909ZM460.82 39.6309H462.38C463 39.6309 463.48 39.4409 463.8 39.0709C464.12 38.7009 464.29 38.1709 464.29 37.4909C464.29 36.8109 464.13 36.2409 463.81 35.8309C463.49 35.4209 463.02 35.2109 462.41 35.2109H460.83V39.6309H460.82Z" fill="#475F96"/>
<path d="M477.709 44.6512H473.979L473.139 47.8812H470.129L474.359 32.9512H477.349L481.579 47.8812H478.559L477.709 44.6512ZM474.569 42.3712H477.109L475.869 37.6312H475.809L474.569 42.3712Z" fill="#475F96"/>
<path d="M487.411 47.8812H484.531V32.9512H487.411V47.8812Z" fill="#475F96"/>
<path d="M502.041 47.8812H499.151L494.411 38.3512H494.351V47.8812H491.461V32.9512H494.351L499.091 42.4912H499.151V32.9512H502.041V47.8812Z" fill="#475F96"/>
<path d="M512.489 44.0002C512.489 43.4102 512.339 42.9402 512.029 42.5902C511.729 42.2502 511.179 41.9102 510.389 41.5802C508.859 41.0402 507.709 40.4302 506.929 39.7502C506.149 39.0702 505.769 38.1102 505.769 36.8802C505.769 35.6502 506.209 34.6602 507.089 33.8902C507.969 33.1202 509.099 32.7402 510.459 32.7402C511.909 32.7402 513.069 33.1502 513.959 33.9702C514.849 34.7902 515.269 35.8902 515.239 37.2702L515.219 37.3302H512.409C512.409 36.5602 512.239 35.9702 511.889 35.5702C511.539 35.1702 511.049 34.9702 510.409 34.9702C509.859 34.9702 509.429 35.1502 509.119 35.5202C508.809 35.8902 508.659 36.3402 508.659 36.8902C508.659 37.4002 508.829 37.8102 509.179 38.1402C509.529 38.4702 510.129 38.8302 510.969 39.2202C512.409 39.7002 513.499 40.3002 514.249 41.0302C514.989 41.7602 515.359 42.7502 515.359 43.9802C515.359 45.2102 514.929 46.2602 514.059 46.9902C513.189 47.7202 512.039 48.0902 510.599 48.0902C509.159 48.0902 507.979 47.6902 506.969 46.9102C505.969 46.1202 505.479 44.9202 505.509 43.3102L505.529 43.2502H508.349C508.349 44.1902 508.539 44.8602 508.919 45.2702C509.299 45.6802 509.859 45.8902 510.599 45.8902C511.219 45.8902 511.689 45.7202 511.999 45.3802C512.309 45.0402 512.469 44.5802 512.469 44.0202L512.489 44.0002Z" fill="#475F96"/>
<path d="M527.82 35.2212H524.31V47.8812H521.41V35.2212H518V32.9512H527.82V35.2212Z" fill="#475F96"/>
<path d="M541.111 42.5102C541.111 44.2702 540.61 45.6402 539.62 46.6202C538.63 47.6002 537.31 48.1002 535.66 48.1002C534.01 48.1002 532.7 47.6102 531.71 46.6202C530.72 45.6302 530.23 44.2602 530.23 42.5102V38.3502C530.23 36.6002 530.72 35.2302 531.7 34.2302C532.68 33.2402 534 32.7402 535.64 32.7402C537.28 32.7402 538.61 33.2402 539.6 34.2302C540.59 35.2302 541.09 36.6002 541.09 38.3502V42.5102H541.111ZM538.23 38.3202C538.23 37.2302 538.01 36.4102 537.57 35.8602C537.13 35.3102 536.49 35.0302 535.66 35.0302C534.83 35.0302 534.19 35.3102 533.76 35.8602C533.34 36.4102 533.12 37.2302 533.12 38.3302V42.5202C533.12 43.6302 533.33 44.4602 533.76 45.0102C534.19 45.5602 534.82 45.8402 535.66 45.8402C536.5 45.8402 537.14 45.5602 537.57 45.0102C538 44.4602 538.22 43.6302 538.22 42.5202V38.3302L538.23 38.3202Z" fill="#475F96"/>
<path d="M547.601 41.8909V47.8809H544.711V32.9609H549.181C550.661 32.9609 551.831 33.3509 552.681 34.1209C553.531 34.8909 553.961 35.9709 553.961 37.3509C553.961 38.1209 553.781 38.7909 553.421 39.3609C553.061 39.9309 552.541 40.3809 551.871 40.7109C552.651 40.9709 553.211 41.4009 553.551 42.0009C553.891 42.6009 554.061 43.3509 554.061 44.2609V45.3509C554.061 45.7709 554.111 46.2009 554.201 46.6609C554.291 47.1209 554.471 47.4509 554.711 47.6609V47.8709H551.721C551.481 47.6509 551.331 47.2909 551.261 46.8009C551.191 46.3009 551.161 45.8109 551.161 45.3209V44.2709C551.161 43.5109 551.001 42.9209 550.691 42.5109C550.381 42.1009 549.921 41.8809 549.341 41.8809H547.601V41.8909ZM547.601 39.6309H549.161C549.781 39.6309 550.261 39.4409 550.581 39.0709C550.901 38.7009 551.071 38.1709 551.071 37.4909C551.071 36.8109 550.911 36.2409 550.591 35.8309C550.271 35.4209 549.801 35.2109 549.191 35.2109H547.611V39.6309H547.601Z" fill="#475F96"/>
<path d="M564.351 44.0212H564.411L567.211 32.9512H570.991V47.8812H568.121V38.4812H568.061L565.361 47.8812H563.421L560.741 38.5412H560.681V47.8812H557.801V32.9512H561.561L564.341 44.0212H564.351Z" fill="#475F96"/>
<path d="M582.88 39.8802C582.47 39.2602 582.16 38.6902 581.96 38.1802C581.76 37.6702 581.66 37.1402 581.66 36.6102C581.66 35.3702 581.99 34.4102 582.66 33.7402C583.33 33.0702 584.24 32.7402 585.39 32.7402C586.37 32.7402 587.18 33.0702 587.8 33.7402C588.42 34.4102 588.73 35.2202 588.73 36.1802C588.73 36.8902 588.61 37.5002 588.36 38.0202C588.11 38.5402 587.74 39.0002 587.24 39.4102L586.27 40.1702L588.67 43.2902H588.73C588.91 42.9202 589.06 42.5202 589.17 42.0702C589.28 41.6202 589.33 41.1402 589.33 40.6302H591.63C591.63 41.5902 591.52 42.4702 591.3 43.2702C591.08 44.0702 590.74 44.7702 590.27 45.3902L592.2 47.8902H588.92L588.24 47.0102C587.71 47.3802 587.18 47.6502 586.64 47.8402C586.1 48.0202 585.52 48.1102 584.89 48.1102C583.55 48.1102 582.48 47.7202 581.69 46.9502C580.89 46.1802 580.5 45.1702 580.5 43.9102C580.5 43.1002 580.69 42.4002 581.07 41.8102C581.45 41.2202 582.03 40.6002 582.81 39.9502L582.89 39.8902L582.88 39.8802ZM585.06 45.8402C585.37 45.8402 585.69 45.7902 586.01 45.7002C586.33 45.6102 586.64 45.4702 586.94 45.2902L584.23 41.7502C583.92 42.0902 583.7 42.4202 583.58 42.7502C583.46 43.0802 583.41 43.4002 583.41 43.7302C583.41 44.3402 583.56 44.8402 583.87 45.2402C584.18 45.6402 584.57 45.8302 585.06 45.8302V45.8402ZM584.22 36.5702C584.22 36.8402 584.28 37.1302 584.4 37.4202C584.52 37.7102 584.7 38.0302 584.93 38.3702L585.48 37.9602C585.82 37.7102 586.05 37.4502 586.17 37.1902C586.29 36.9302 586.34 36.6402 586.34 36.3302C586.34 35.9702 586.25 35.6602 586.07 35.3902C585.89 35.1302 585.63 35.0002 585.31 35.0002C584.99 35.0002 584.71 35.1502 584.52 35.4602C584.32 35.7602 584.23 36.1402 584.23 36.5702H584.22Z" fill="#475F96"/>
<path d="M454.419 68.4402L454.439 68.5002C454.469 70.1002 454.059 71.3002 453.209 72.0902C452.369 72.8902 451.159 73.2802 449.599 73.2802C448.039 73.2802 446.719 72.8102 445.779 71.8602C444.839 70.9102 444.359 69.5702 444.359 67.8202V63.3902C444.359 61.6502 444.819 60.3102 445.729 59.3502C446.639 58.3902 447.879 57.9102 449.429 57.9102C451.059 57.9102 452.319 58.3102 453.189 59.1002C454.059 59.8902 454.489 61.0902 454.459 62.7002L454.439 62.7602H451.629C451.629 61.8002 451.459 61.1302 451.119 60.7502C450.779 60.3702 450.219 60.1802 449.419 60.1802C448.699 60.1802 448.149 60.4402 447.789 60.9602C447.429 61.4802 447.249 62.2902 447.249 63.3702V67.8202C447.249 68.9102 447.439 69.7102 447.829 70.2402C448.219 70.7602 448.809 71.0202 449.589 71.0202C450.309 71.0202 450.819 70.8302 451.139 70.4502C451.449 70.0702 451.609 69.4002 451.609 68.4202H454.409L454.419 68.4402Z" fill="#475F96"/>
<path d="M468.431 67.7095C468.431 69.4695 467.931 70.8395 466.941 71.8195C465.951 72.7995 464.631 73.2995 462.981 73.2995C461.331 73.2995 460.021 72.8095 459.031 71.8195C458.041 70.8295 457.551 69.4695 457.551 67.7095V63.5495C457.551 61.7995 458.041 60.4295 459.021 59.4295C460.001 58.4395 461.321 57.9395 462.961 57.9395C464.601 57.9395 465.931 58.4395 466.921 59.4295C467.911 60.4295 468.411 61.7995 468.411 63.5495V67.7095H468.431ZM465.551 63.5195C465.551 62.4295 465.331 61.6095 464.891 61.0595C464.451 60.5095 463.811 60.2295 462.981 60.2295C462.151 60.2295 461.511 60.5095 461.081 61.0595C460.661 61.6095 460.441 62.4295 460.441 63.5295V67.7195C460.441 68.8295 460.651 69.6595 461.081 70.2095C461.511 70.7595 462.141 71.0395 462.981 71.0395C463.821 71.0395 464.461 70.7595 464.891 70.2095C465.321 69.6595 465.541 68.8295 465.541 67.7195V63.5295L465.551 63.5195Z" fill="#475F96"/>
<path d="M482.6 73.0804H479.71L474.97 63.5504H474.91V73.0804H472.02V58.1504H474.91L479.65 67.6904H479.71V58.1504H482.6V73.0804Z" fill="#475F96"/>
<path d="M496.259 68.4402L496.279 68.5002C496.309 70.1002 495.899 71.3002 495.049 72.0902C494.209 72.8902 492.999 73.2802 491.439 73.2802C489.879 73.2802 488.559 72.8102 487.619 71.8602C486.679 70.9102 486.199 69.5702 486.199 67.8202V63.3902C486.199 61.6502 486.659 60.3102 487.569 59.3502C488.479 58.3902 489.719 57.9102 491.269 57.9102C492.899 57.9102 494.159 58.3102 495.029 59.1002C495.899 59.8902 496.329 61.0902 496.299 62.7002L496.279 62.7602H493.469C493.469 61.8002 493.299 61.1302 492.959 60.7502C492.619 60.3702 492.059 60.1802 491.259 60.1802C490.539 60.1802 489.989 60.4402 489.629 60.9602C489.269 61.4802 489.089 62.2902 489.089 63.3702V67.8202C489.089 68.9102 489.279 69.7102 489.669 70.2402C490.059 70.7602 490.649 71.0202 491.429 71.0202C492.149 71.0202 492.659 70.8302 492.979 70.4502C493.289 70.0702 493.449 69.4002 493.449 68.4202H496.249L496.259 68.4402Z" fill="#475F96"/>
<path d="M507.118 66.4902H502.558V70.8302H508.028V73.0902H499.668V58.1602H508.008V60.4302H502.568V64.2402H507.128V66.5002L507.118 66.4902Z" fill="#475F96"/>
<path d="M514.327 67.6706V73.0706H511.438V58.1406H516.427C517.927 58.1406 519.107 58.5806 519.987 59.4606C520.867 60.3406 521.297 61.4906 521.297 62.9106C521.297 64.3306 520.857 65.4906 519.987 66.3606C519.107 67.2306 517.927 67.6706 516.427 67.6706H514.327ZM514.327 65.4006H516.427C517.077 65.4006 517.568 65.1706 517.908 64.7006C518.248 64.2406 518.417 63.6406 518.417 62.9306C518.417 62.2206 518.248 61.6006 517.908 61.1206C517.568 60.6506 517.077 60.4106 516.427 60.4106H514.327V65.4006Z" fill="#475F96"/>
<path d="M533.699 60.4106H530.189V73.0706H527.289V60.4106H523.879V58.1406H533.699V60.4106Z" fill="#475F96"/>
<path d="M547.11 58.1506V67.9006C547.11 69.6006 546.62 70.9206 545.65 71.8706C544.68 72.8206 543.41 73.2906 541.84 73.2906C540.27 73.2906 539.02 72.8106 538.05 71.8606C537.08 70.9106 536.59 69.5906 536.59 67.9006V58.1506H539.47V67.9006C539.47 68.9206 539.68 69.7006 540.11 70.2306C540.53 70.7706 541.11 71.0306 541.84 71.0306C542.57 71.0306 543.17 70.7606 543.59 70.2306C544.01 69.7006 544.22 68.9206 544.22 67.8906V58.1406H547.11V58.1506Z" fill="#475F96"/>
<path d="M557.268 69.8504H553.538L552.698 73.0804H549.688L553.918 58.1504H556.908L561.138 73.0804H558.117L557.268 69.8504ZM554.128 67.5704H556.668L555.427 62.8304H555.367L554.128 67.5704Z" fill="#475F96"/>
<path d="M566.808 70.8204H572.378V73.0804H563.918V58.1504H566.808V70.8204Z" fill="#475F96"/>
<path d="M578.728 73.0804H575.848V58.1504H578.728V73.0804Z" fill="#475F96"/>
<path d="M589.36 69.1995C589.36 68.6095 589.21 68.1395 588.9 67.7895C588.6 67.4495 588.05 67.1095 587.26 66.7795C585.73 66.2395 584.58 65.6295 583.8 64.9495C583.02 64.2695 582.64 63.3095 582.64 62.0795C582.64 60.8495 583.08 59.8595 583.96 59.0895C584.84 58.3195 585.97 57.9395 587.33 57.9395C588.78 57.9395 589.94 58.3495 590.83 59.1695C591.72 59.9895 592.14 61.0895 592.11 62.4695L592.09 62.5295H589.28C589.28 61.7595 589.11 61.1695 588.76 60.7695C588.41 60.3695 587.92 60.1695 587.28 60.1695C586.73 60.1695 586.3 60.3495 585.99 60.7195C585.68 61.0895 585.53 61.5395 585.53 62.0895C585.53 62.5995 585.7 63.0095 586.05 63.3395C586.4 63.6695 587 64.0295 587.84 64.4195C589.28 64.8995 590.37 65.4995 591.12 66.2295C591.86 66.9595 592.23 67.9495 592.23 69.1795C592.23 70.4095 591.8 71.4595 590.93 72.1895C590.06 72.9195 588.91 73.2895 587.47 73.2895C586.03 73.2895 584.85 72.8995 583.84 72.1095C582.84 71.3195 582.35 70.1195 582.38 68.5095L582.4 68.4495H585.22C585.22 69.3895 585.41 70.0595 585.79 70.4695C586.17 70.8795 586.73 71.0895 587.47 71.0895C588.09 71.0895 588.56 70.9195 588.87 70.5795C589.18 70.2395 589.34 69.7795 589.34 69.2195L589.36 69.1995Z" fill="#475F96"/>
<path d="M603.161 66.4902H598.601V70.8302H604.071V73.0902H595.711V58.1602H604.051V60.4302H598.611V64.2402H603.171V66.5002L603.161 66.4902Z" fill="#475F96"/>
<path d="M641.941 29.2302H636.061C635.861 29.2302 635.691 29.0702 635.691 28.8602V18.3602C635.691 18.1602 635.851 17.9902 636.061 17.9902H641.941C642.141 17.9902 642.311 18.1502 642.311 18.3602V28.8602C642.311 29.0602 642.151 29.2302 641.941 29.2302ZM636.431 28.4902H641.571V18.7302H636.431V28.4902Z" fill="#9DC0F3"/>
<path d="M653.893 29.2302H649.353C649.153 29.2302 648.983 29.0702 648.983 28.8602V23.3302H645.203V28.8602C645.203 29.0602 645.043 29.2302 644.833 29.2302H641.932C641.732 29.2302 641.562 29.0702 641.562 28.8602V18.3602C641.562 18.1602 641.722 17.9902 641.932 17.9902H653.883C654.083 17.9902 654.253 18.1502 654.253 18.3602V28.8602C654.253 29.0602 654.093 29.2302 653.883 29.2302H653.893ZM649.723 28.4902H653.523V18.7302H642.312V28.4902H644.473V22.9602C644.473 22.7602 644.633 22.5902 644.843 22.5902H649.353C649.553 22.5902 649.723 22.7502 649.723 22.9602V28.4902Z" fill="#9DC0F3"/>
<path d="M650.86 53.138H646.46C646.26 53.138 646.09 52.978 646.09 52.768V48.368C646.09 48.168 646.25 47.998 646.46 47.998H650.86C651.06 47.998 651.23 48.158 651.23 48.368V52.768C651.23 52.968 651.07 53.138 650.86 53.138ZM646.83 52.398H650.49V48.738H646.83V52.398Z" fill="#9DC0F3"/>
<path d="M655.262 53.138H650.862C650.662 53.138 650.492 52.978 650.492 52.768V48.368C650.492 48.168 650.652 47.998 650.862 47.998H655.262C655.462 47.998 655.632 48.158 655.632 48.368V52.768C655.632 52.968 655.472 53.138 655.262 53.138ZM651.232 52.398H654.892V48.738H651.232V52.398Z" fill="#9DC0F3"/>
<path d="M646.462 53.1387H637.632C637.432 53.1387 637.262 52.9787 637.262 52.7687V43.8387C637.262 43.6387 637.422 43.4688 637.632 43.4688H643.512C643.712 43.4688 643.882 43.6287 643.882 43.8387V48.0087H646.462C646.662 48.0087 646.832 48.1687 646.832 48.3787V52.7787C646.832 52.9787 646.672 53.1488 646.462 53.1488V53.1387ZM638.002 52.3988H646.092V48.7388H643.512C643.312 48.7388 643.142 48.5787 643.142 48.3687V44.1987H638.002V52.3988Z" fill="#9DC0F3"/>
<path d="M692.902 48.2884H682.522C682.322 48.2884 682.152 48.1284 682.152 47.9184V43.5184C682.152 43.3184 682.312 43.1484 682.522 43.1484H692.902C693.102 43.1484 693.272 43.3084 693.272 43.5184V47.9184C693.272 48.1184 693.112 48.2884 692.902 48.2884ZM682.892 47.5484H692.542V43.8884H682.892V47.5484Z" fill="#9DC0F3"/>
<path d="M688.502 52.6791H682.522C682.322 52.6791 682.152 52.5191 682.152 52.3091V47.9091C682.152 47.7091 682.312 47.5391 682.522 47.5391H688.502C688.702 47.5391 688.872 47.6991 688.872 47.9091V49.3691C688.872 49.5691 688.712 49.7391 688.502 49.7391C688.292 49.7391 688.132 49.5791 688.132 49.3691V48.2691H682.882V51.9291H688.132V50.6091C688.132 50.4091 688.292 50.2391 688.502 50.2391C688.712 50.2391 688.872 50.3991 688.872 50.6091V52.2991C688.872 52.4991 688.712 52.6691 688.502 52.6691V52.6791Z" fill="#9DC0F3"/>
<path d="M692.903 52.6788H688.503C688.303 52.6788 688.133 52.5188 688.133 52.3088V50.6188C688.133 50.4188 688.293 50.2488 688.503 50.2488C688.713 50.2488 688.873 50.4088 688.873 50.6188V51.9388H692.533V48.2788H688.873V49.3788C688.873 49.5788 688.713 49.7488 688.503 49.7488C688.293 49.7488 688.133 49.5888 688.133 49.3788V47.9188C688.133 47.7188 688.293 47.5488 688.503 47.5488H692.903C693.103 47.5488 693.273 47.7088 693.273 47.9188V52.3188C693.273 52.5188 693.113 52.6888 692.903 52.6888V52.6788Z" fill="#9DC0F3"/>
<path d="M682.541 20.8098C682.481 20.8098 682.421 20.7998 682.371 20.7698L678.231 18.6098C678.111 18.5498 678.041 18.4298 678.031 18.2898C678.031 18.1598 678.101 18.0298 678.211 17.9598L685.451 13.7598C685.561 13.6998 685.701 13.6898 685.811 13.7598L689.881 15.9998C690.001 16.0598 690.071 16.1898 690.071 16.3198C690.071 16.4498 690.001 16.5798 689.891 16.6398L682.731 20.7598C682.671 20.7898 682.611 20.8098 682.551 20.8098H682.541ZM679.161 18.2698L682.531 20.0298L688.951 16.3398L685.641 14.5098L679.161 18.2698Z" fill="#9DC0F3"/>
<path d="M684.511 29.3001C684.461 29.3001 684.401 29.2901 684.351 29.2601L678.221 25.7501C678.101 25.6801 678.031 25.5601 678.031 25.4301V18.2801C678.031 18.1501 678.101 18.0301 678.211 17.9601C678.321 17.8901 678.461 17.8901 678.571 17.9501L682.711 20.1101C682.831 20.1701 682.911 20.3001 682.911 20.4401V24.1401L684.721 25.0601C684.841 25.1201 684.921 25.2501 684.921 25.3901L684.901 28.9001C684.901 29.0301 684.831 29.1701 684.721 29.2401C684.661 29.2801 684.581 29.3001 684.511 29.3001ZM678.771 25.2201L684.171 28.3101L684.191 25.6201L682.381 24.7001C682.261 24.6401 682.181 24.5101 682.181 24.3701V20.6701L678.771 18.9001V25.2301V25.2201Z" fill="#9DC0F3"/>
<path d="M682.542 24.7398C682.482 24.7398 682.412 24.7198 682.362 24.6898C682.242 24.6198 682.172 24.4998 682.172 24.3698V20.4498C682.172 20.3198 682.242 20.1998 682.352 20.1298L689.512 16.0098C689.632 15.9498 689.772 15.9498 689.882 16.0098C689.992 16.0798 690.062 16.1998 690.062 16.3298V20.0998C690.062 20.2298 689.992 20.3498 689.882 20.4198L682.722 24.6998C682.662 24.7298 682.602 24.7498 682.532 24.7498L682.542 24.7398ZM682.912 20.6598V23.7198L689.342 19.8798V16.9598L682.912 20.6598Z" fill="#9DC0F3"/>
<path d="M698 25.1889C697.94 25.1889 697.87 25.1689 697.82 25.1389L689.52 20.4089C689.34 20.3089 689.28 20.0789 689.38 19.9089C689.48 19.7289 689.71 19.6689 689.88 19.7689L698.18 24.4989C698.36 24.5989 698.42 24.8289 698.32 24.9989C698.25 25.1189 698.13 25.1889 698 25.1889Z" fill="#9DC0F3"/>
<path d="M684.571 25.8003C684.451 25.8003 684.321 25.7403 684.251 25.6203C684.141 25.4503 684.201 25.2203 684.381 25.1203L688.621 22.5703C688.791 22.4703 689.021 22.5203 689.121 22.7003C689.231 22.8703 689.171 23.1003 688.991 23.2003L684.751 25.7503C684.691 25.7903 684.631 25.8003 684.561 25.8003H684.571Z" fill="#9DC0F3"/>
<path d="M691.77 25.1302C691.7 25.1302 691.63 25.1102 691.57 25.0702L688.61 23.1902C688.44 23.0802 688.39 22.8502 688.5 22.6802C688.61 22.5102 688.84 22.4602 689.01 22.5702L691.97 24.4502C692.14 24.5602 692.19 24.7902 692.08 24.9602C692.01 25.0702 691.89 25.1302 691.77 25.1302Z" fill="#9DC0F3"/>
<path d="M687.732 27.6989C687.612 27.6989 687.492 27.6389 687.422 27.5289C687.312 27.3589 687.362 27.1288 687.532 27.0189L691.572 24.4588C691.742 24.3488 691.972 24.3988 692.082 24.5688C692.192 24.7388 692.142 24.9688 691.972 25.0788L687.932 27.6388C687.872 27.6788 687.802 27.6989 687.732 27.6989Z" fill="#9DC0F3"/>
<path d="M684.653 29.3895C684.533 29.3895 684.413 29.3295 684.343 29.2195C684.233 29.0495 684.283 28.8195 684.463 28.7095L688.413 26.2295L688.453 22.8795C688.453 22.6795 688.593 22.5195 688.823 22.5195C689.023 22.5195 689.193 22.6895 689.183 22.8895L689.143 26.4395C689.143 26.5695 689.073 26.6795 688.973 26.7495L684.853 29.3395C684.793 29.3795 684.723 29.3995 684.653 29.3995V29.3895Z" fill="#9DC0F3"/>
<path d="M690.769 32.9901C690.709 32.9901 690.639 32.9701 690.589 32.9401L687.539 31.1701C687.429 31.1001 687.359 30.9801 687.359 30.8501L687.379 27.3201C687.379 27.1901 687.449 27.0701 687.559 27.0001C687.669 26.9401 687.809 26.9401 687.929 27.0001L690.979 28.7501C691.099 28.8201 691.169 28.9401 691.159 29.0701H690.789H691.159L691.139 32.6101C691.139 32.7401 691.069 32.8601 690.959 32.9301C690.899 32.9601 690.839 32.9801 690.779 32.9801L690.769 32.9901ZM688.089 30.6401L690.409 31.9801V29.2801L688.099 27.9501V30.6401H688.089Z" fill="#9DC0F3"/>
<path d="M690.772 32.9898C690.712 32.9898 690.642 32.9698 690.592 32.9398C690.472 32.8698 690.402 32.7498 690.402 32.6198L690.422 29.0798C690.422 28.9498 690.492 28.8198 690.602 28.7598L697.822 24.4998C697.932 24.4298 698.072 24.4298 698.192 24.4998C698.312 24.5698 698.382 24.6898 698.382 24.8198V28.2698C698.382 28.3998 698.312 28.5198 698.202 28.5898L690.972 32.9398C690.912 32.9698 690.852 32.9898 690.782 32.9898H690.772ZM691.152 29.2898V31.9698L697.632 28.0598V25.4598L691.152 29.2798V29.2898Z" fill="#9DC0F3"/>
<path d="M688.991 26.8993C688.991 26.8993 688.891 26.8993 688.851 26.8693L688.631 26.7793C688.441 26.6993 688.361 26.4893 688.441 26.2993C688.521 26.1093 688.731 26.0193 688.921 26.1093L689.141 26.1993C689.331 26.2793 689.411 26.4893 689.331 26.6793C689.271 26.8193 689.131 26.8993 688.991 26.8993Z" fill="#9DC0F3"/>
<path d="M666.19 59.1098C665.99 59.1098 665.82 58.9498 665.82 58.7398V11.2098C665.82 11.0098 665.98 10.8398 666.19 10.8398C666.4 10.8398 666.56 10.9998 666.56 11.2098V58.7398C666.56 58.9398 666.4 59.1098 666.19 59.1098Z" fill="#9DC0F3"/>
<path d="M708.252 36.2791H624.132C623.932 36.2791 623.762 36.1191 623.762 35.9091C623.762 35.6991 623.922 35.5391 624.132 35.5391H708.252C708.452 35.5391 708.622 35.6991 708.622 35.9091C708.622 36.1191 708.462 36.2791 708.252 36.2791Z" fill="#9DC0F3"/>
<path d="M678.321 74.7993C678.511 78.1893 679.371 81.2693 680.351 84.3093C681.411 87.5693 682.501 90.8293 683.511 94.1093C683.731 94.8293 684.131 94.8293 684.691 94.8293C690.261 94.8293 695.841 94.8293 701.411 94.8293C701.781 94.8293 702.151 94.8193 702.511 94.8593C703.461 94.9693 704.161 95.7093 704.241 96.6493C704.321 97.5693 703.741 98.4493 702.831 98.6993C702.421 98.8093 701.971 98.8293 701.541 98.8293C677.981 98.8293 654.421 98.8293 630.861 98.8293C630.431 98.8293 629.991 98.8093 629.571 98.6993C628.661 98.4493 628.081 97.5693 628.161 96.6493C628.241 95.7093 628.951 94.9793 629.901 94.8693C630.261 94.8293 630.631 94.8393 631.001 94.8393C636.571 94.8393 642.151 94.8393 647.721 94.8393C648.151 94.8393 648.611 94.9893 648.821 94.3093C650.221 89.7893 651.731 85.3093 653.071 80.7693C653.621 78.8993 653.841 76.9293 654.241 74.8093H652.881C643.941 74.8093 634.991 74.8093 626.051 74.8093C622.971 74.8093 620.741 73.0593 620.221 70.2393C620.141 69.8193 620.141 69.3793 620.141 68.9393C620.141 50.3193 620.141 31.6893 620.141 13.0693C620.141 9.53929 622.431 7.21929 625.961 7.21929C652.791 7.21929 679.621 7.20929 706.451 7.21929C709.981 7.21929 712.261 9.54929 712.261 13.0793C712.261 31.6693 712.261 50.2593 712.261 68.8493C712.261 72.5093 709.991 74.7993 706.341 74.7993C697.431 74.8093 688.521 74.7993 679.611 74.7993C679.221 74.7993 678.821 74.7993 678.321 74.7993ZM708.261 58.7493V57.5793C708.261 42.8593 708.261 28.1393 708.261 13.4193C708.261 11.6393 707.841 11.2193 706.101 11.2193C679.501 11.2193 652.911 11.2193 626.311 11.2193C624.601 11.2193 624.161 11.6493 624.161 13.3293C624.161 28.1193 624.161 42.8993 624.161 57.6893C624.161 58.0393 624.191 58.3893 624.211 58.7593H708.271L708.261 58.7493ZM708.261 62.8593H624.151C624.151 64.7693 624.151 66.5993 624.151 68.4293C624.151 70.4493 624.501 70.7893 626.561 70.7893C652.991 70.7893 679.421 70.7893 705.851 70.7893C706.181 70.7893 706.521 70.8093 706.851 70.7693C707.731 70.6493 708.251 70.1393 708.251 69.2393C708.271 67.1393 708.251 65.0393 708.251 62.8593H708.261ZM679.551 94.7893C677.631 88.0893 674.681 81.8093 674.281 74.8693H658.111C657.741 81.8693 654.731 88.1393 652.871 94.7893H679.541H679.551Z" fill="#9DC0F3"/>
<path d="M666.201 82.8296C666.931 82.8296 667.661 82.7896 668.391 82.8396C669.401 82.9096 670.121 83.6696 670.191 84.6396C670.271 85.5996 669.651 86.5996 668.681 86.6796C667.031 86.7996 665.371 86.7996 663.721 86.6796C662.741 86.6096 662.131 85.6096 662.201 84.6496C662.271 83.6796 663.001 82.9096 664.001 82.8396C664.731 82.7896 665.461 82.8296 666.191 82.8296H666.201Z" fill="#9DC0F3"/>
<path d="M372.34 209.35V208.12C372.34 200.44 372.35 192.77 372.31 185.09C372.31 184.53 372.07 183.86 371.72 183.42C369.94 181.19 368.08 179.01 366.19 176.74C364.35 177.47 362.52 178.21 360.68 178.93C360.36 179.06 360.03 179.2 359.69 179.25C358.94 179.36 358.37 179.05 358.14 178.32C357.92 177.61 358.1 176.93 358.82 176.64C361.29 175.61 363.77 174.58 366.3 173.68C366.7 173.54 367.49 173.9 367.82 174.27C370.17 176.99 372.47 179.75 374.71 182.55C375.08 183.01 375.19 183.77 375.19 184.4C375.22 192.25 375.21 200.1 375.21 207.95C375.21 208.36 375.21 208.78 375.21 209.34C376.82 209.34 378.34 209.34 379.86 209.34C380.49 209.34 381.12 209.32 381.74 209.34C384.31 209.44 385.88 212 384.87 214.38C384.71 214.75 384.71 215.3 384.87 215.67C385.62 217.49 384.94 219.56 383.14 220.37C382.53 220.64 382.33 220.93 382.33 221.59C382.33 224.85 380.68 226.47 377.43 226.47C374.99 226.47 372.55 226.47 370.1 226.47C366.82 226.47 365.21 224.87 365.19 221.61C365.19 221.33 365.19 221.05 365.19 220.85C364.57 220.46 363.95 220.18 363.47 219.75C362.29 218.72 362.06 217.16 362.67 215.63C362.81 215.27 362.74 214.81 362.67 214.4C362.55 213.56 362.38 212.73 362.2 211.69C360.07 210.69 359.32 208.7 359.45 206.22C359.69 201.4 357.75 197.57 354.35 194.22C339.63 179.74 344.87 155.35 364.2 148.09C367.13 146.99 370.18 146.47 373.3 146.4C374.45 146.37 375.12 146.89 375.15 147.78C375.18 148.68 374.54 149.25 373.39 149.26C361.19 149.39 351.26 158.49 349.21 169.49C347.62 178.07 349.91 185.61 356.02 191.86C358.58 194.48 360.89 197.2 361.69 200.83C362.11 202.71 362.17 204.69 362.26 206.63C362.36 208.66 362.94 209.32 364.99 209.32C367.39 209.32 369.79 209.32 372.3 209.32L372.34 209.35ZM368.14 220.8C367.85 223.16 368.25 223.63 370.44 223.63C372.7 223.63 374.97 223.56 377.23 223.65C379.05 223.73 379.86 223.05 379.32 220.8H368.15H368.14ZM373.72 216.49C371.28 216.49 368.84 216.49 366.4 216.49C365.88 216.49 365.24 216.42 365.24 217.18C365.24 217.92 365.85 217.92 366.38 217.92C371.29 217.92 376.21 217.94 381.12 217.89C381.52 217.89 382.22 217.48 382.25 217.19C382.33 216.49 381.68 216.49 381.13 216.49C378.66 216.49 376.18 216.49 373.71 216.49H373.72ZM373.82 213.6C376.26 213.6 378.7 213.6 381.14 213.6C381.68 213.6 382.34 213.6 382.26 212.9C382.23 212.61 381.53 212.2 381.14 212.19C376.23 212.14 371.31 212.14 366.4 212.19C366.01 212.19 365.33 212.61 365.29 212.9C365.19 213.64 365.88 213.59 366.4 213.59C368.87 213.59 371.35 213.59 373.82 213.59V213.6Z" fill="#9DC0F3"/>
<path d="M390.982 153.639C391.892 153.689 392.742 153.639 393.552 153.799C397.132 154.479 399.632 157.599 399.742 161.449C399.752 161.929 399.742 162.289 400.342 162.459C407.882 164.619 410.212 173.949 404.822 179.969C404.242 180.609 403.502 181.109 402.912 181.739C402.682 181.979 402.482 182.449 402.552 182.749C403.282 186.009 402.442 188.799 400.182 191.239C399.932 191.509 399.772 192.039 399.832 192.409C400.782 198.869 395.202 203.829 388.942 202.089C388.642 202.009 388.122 202.149 387.922 202.379C385.552 205.119 381.242 204.739 378.842 203.389C378.462 203.179 378.262 202.579 378.072 202.119C377.962 201.849 378.042 201.499 378.042 201.189C378.042 184.689 378.062 168.189 378.012 151.689C378.012 150.309 378.522 149.449 379.612 148.779C381.782 147.459 384.092 147.059 386.532 147.829C388.862 148.559 390.222 150.219 390.772 152.579C390.862 152.939 390.912 153.309 390.982 153.649V153.639ZM380.922 176.189C380.922 184.039 380.922 191.889 380.922 199.749C380.922 200.882 381.492 201.492 382.632 201.579C384.522 201.729 386.322 200.559 386.572 199.019C387.002 196.349 386.122 194.979 383.692 194.509C382.852 194.349 382.362 193.829 382.432 192.979C382.502 192.129 383.092 191.589 383.922 191.709C384.902 191.859 385.942 192.079 386.782 192.569C388.902 193.809 389.592 195.859 389.432 198.209C389.362 199.129 389.762 199.429 390.582 199.539C394.812 200.119 398.162 196.109 396.742 192.099C396.382 191.079 396.522 190.379 397.422 189.759C398.552 188.989 399.342 187.909 399.682 186.589C400.672 182.799 398.732 180.739 395.072 181.149C394.202 181.249 393.332 181.809 392.562 182.319C391.612 182.939 390.802 183.029 390.242 182.359C389.672 181.669 389.842 180.869 390.722 180.099C393.272 177.869 396.892 177.539 399.862 179.329C400.432 179.679 400.812 179.659 401.342 179.279C404.002 177.399 405.412 173.859 404.712 170.709C404.012 167.579 401.582 165.389 398.312 164.949C396.862 164.749 396.452 164.169 396.702 162.749C396.812 162.139 396.862 161.499 396.812 160.879C396.662 158.879 395.152 157.229 393.102 156.719C391.332 156.289 389.632 156.959 388.652 158.479C387.612 160.099 387.782 161.979 389.122 163.709C389.762 164.539 389.742 165.389 389.062 165.929C388.412 166.439 387.632 166.309 386.942 165.569C384.392 162.829 384.532 158.359 387.232 155.719C387.522 155.439 387.842 155.109 387.942 154.739C388.422 153.029 387.362 151.099 385.682 150.539C384.402 150.109 383.142 150.259 381.902 150.749C381.172 151.039 380.872 151.469 380.872 152.309C380.912 160.269 380.892 168.219 380.892 176.179L380.922 176.189Z" fill="#9DC0F3"/>
<path d="M332.34 156.458C332.33 154.078 334.16 152.198 336.53 152.168C338.93 152.138 340.89 154.028 340.91 156.398C340.93 158.748 338.94 160.738 336.59 160.718C334.25 160.698 332.36 158.798 332.35 156.458H332.34ZM338.02 156.478C338.05 155.718 337.44 155.048 336.69 155.008C335.94 154.958 335.26 155.568 335.21 156.328C335.15 157.138 335.79 157.838 336.59 157.858C337.34 157.868 338 157.238 338.02 156.488V156.478Z" fill="#9DC0F3"/>
<path d="M350.923 144.219C349.293 145.629 348.633 145.839 347.933 145.199C347.173 144.519 347.313 144.009 348.783 142.089C348.163 141.199 346.663 140.479 347.933 139.079C348.583 138.359 349.193 138.579 350.903 140.009C352.643 138.569 353.263 138.389 353.963 139.139C354.643 139.869 354.463 140.459 353.023 142.099C353.613 143.029 355.263 143.869 353.833 145.169C352.593 146.299 351.813 144.909 350.933 144.199L350.923 144.219Z" fill="#9DC0F3"/>
<path d="M357.833 159.16C358.243 159.45 358.803 159.64 358.943 160C359.123 160.45 359.133 161.14 358.903 161.54C357.723 163.57 356.443 165.55 355.183 167.54C354.763 168.2 354.153 168.49 353.393 168.16C352.623 167.81 352.313 167.18 352.633 166.36C353.593 163.91 354.983 161.71 356.763 159.78C357.003 159.52 357.393 159.41 357.833 159.17V159.16Z" fill="#9DC0F3"/>
<path d="M361.54 158.729C361.26 158.499 360.62 158.219 360.52 157.809C360.4 157.299 360.56 156.389 360.92 156.169C362.55 155.179 364.26 154.319 366 153.529C366.67 153.219 367.43 153.599 367.59 154.309C367.71 154.819 367.54 155.729 367.19 155.939C365.56 156.929 363.82 157.739 362.12 158.609C362.03 158.659 361.92 158.649 361.55 158.729H361.54Z" fill="#9DC0F3"/>
<path d="M335.142 175.029C335.142 175.809 334.512 176.439 333.752 176.439C332.962 176.439 332.302 175.749 332.342 174.939C332.372 174.169 333.022 173.559 333.782 173.589C334.552 173.609 335.142 174.239 335.132 175.029H335.142Z" fill="#9DC0F3"/>
<path d="M951.34 61.2711C951.66 60.6011 952.2 60.2911 952.93 60.2011C953.78 60.1011 954.63 59.9311 955.47 59.7811C955.6 58.4211 955.73 57.1411 955.86 55.7911C955.01 55.4711 954.16 55.1611 953.3 54.8311C952.21 54.4111 951.97 53.8911 952.36 52.8211C953.07 50.8911 953.79 48.9711 954.52 47.0511C954.9 46.0611 955.44 45.8111 956.42 46.1711C957.31 46.4911 958.19 46.8311 959 47.1311C959.78 46.0311 960.53 44.9711 961.35 43.8211C960.85 43.2111 960.25 42.4911 959.66 41.7611C958.93 40.8511 958.98 40.3011 959.89 39.5611C961.45 38.2711 963.01 36.9711 964.58 35.6911C965.48 34.9611 966.03 35.0211 966.78 35.9111C967.27 36.4911 967.71 37.1111 968.24 37.6511C968.4 37.8111 968.81 37.8911 969.03 37.8111C969.93 37.4611 970.79 36.9911 971.7 36.6311C972.13 36.4611 972.19 36.2311 972.11 35.8311C971.95 35.0311 971.82 34.2311 971.71 33.4311C971.59 32.5911 971.93 32.0511 972.77 31.8911C974.93 31.5011 977.09 31.1411 979.26 30.8111C980.13 30.6811 980.64 31.0811 980.81 31.9711C980.96 32.7411 981.1 33.5111 981.2 34.2911C981.26 34.7411 981.42 34.9311 981.91 34.9411C982.83 34.9711 983.75 35.0411 984.65 35.2011C985.18 35.2911 985.37 35.1011 985.52 34.6511C985.76 33.9311 986.03 33.2311 986.31 32.5211C986.67 31.6111 987.2 31.3511 988.1 31.6811C990.11 32.4111 992.11 33.1611 994.1 33.9211C995.02 34.2711 995.25 34.8511 994.91 35.8011C994.59 36.6911 994.25 37.5711 993.96 38.3611C995.07 39.1511 996.12 39.8911 997.28 40.7211C997.88 40.2311 998.6 39.6411 999.33 39.0511C1000.22 38.3311 1000.79 38.3911 1001.53 39.2811C1002.83 40.8411 1004.12 42.4011 1005.4 43.9711C1006.13 44.8611 1006.06 45.4211 1005.17 46.1711C1004.49 46.7411 1003.8 47.3011 1003.05 47.9211C1003.34 48.5411 1003.63 49.1311 1003.91 49.7411C1004.18 50.3311 1004.42 50.9211 1004.7 51.5611C1005.64 51.4011 1006.54 51.2411 1007.45 51.1011C1008.57 50.9311 1009.06 51.2911 1009.26 52.4211C1009.6 54.4211 1009.94 56.4211 1010.26 58.4311C1010.44 59.5211 1010.08 60.0111 1009.02 60.2011C1008.3 60.3311 1007.58 60.4711 1006.86 60.5511C1006.38 60.6111 1006.17 60.7711 1006.16 61.3011C1006.14 62.2211 1006.05 63.1411 1005.9 64.0411C1005.82 64.5111 1005.94 64.7311 1006.38 64.8811C1007.12 65.1311 1007.86 65.4111 1008.59 65.7011C1009.48 66.0611 1009.75 66.6011 1009.42 67.5011C1008.69 69.5111 1007.94 71.5111 1007.18 73.5011C1006.84 74.3911 1006.28 74.6411 1005.38 74.3311C1004.47 74.0111 1003.56 73.6611 1002.73 73.3411C1001.94 74.4411 1001.19 75.4911 1000.37 76.6411C1000.86 77.2411 1001.44 77.9511 1002.01 78.6511C1002.78 79.6011 1002.74 80.1611 1001.83 80.9211C1000.27 82.2211 998.7 83.5011 997.13 84.7911C996.25 85.5111 995.67 85.4411 994.93 84.5511C994.36 83.8711 993.8 83.1811 993.2 82.4511C992 83.0011 990.8 83.5411 989.55 84.1111C989.69 84.9611 989.8 85.8111 989.98 86.6511C990.14 87.3711 990.01 87.9811 989.48 88.4911L981.95 89.7511C981.25 89.4711 980.94 88.9411 980.86 88.2011C980.76 87.3211 980.58 86.4611 980.44 85.6211C979.06 85.4911 977.77 85.3611 976.44 85.2411C976.09 86.1511 975.76 87.0711 975.4 87.9711C975.05 88.8511 974.48 89.1211 973.6 88.7911C971.6 88.0611 969.6 87.3111 967.6 86.5411C966.7 86.2011 966.46 85.6511 966.78 84.7411C967.1 83.8211 967.45 82.9211 967.75 82.1111C966.63 81.3011 965.56 80.5311 964.46 79.7311C963.81 80.2611 963.11 80.8511 962.39 81.4211C961.48 82.1511 960.93 82.1011 960.19 81.2111C958.9 79.6511 957.61 78.0811 956.33 76.5111C955.6 75.6211 955.66 75.0511 956.54 74.3111C957.26 73.7111 957.98 73.1111 958.66 72.5511C958.08 71.2711 957.54 70.1011 957.01 68.9411C956.92 68.9411 956.87 68.9211 956.82 68.9311C956.02 69.0611 955.21 69.1511 954.42 69.3311C953.69 69.5011 953.09 69.3811 952.6 68.8011C952.18 66.2911 951.76 63.7811 951.34 61.2711ZM1002.98 44.8311C1002.05 43.7011 1001.15 42.6111 1000.23 41.4911C999.48 42.1111 998.81 42.6611 998.14 43.2011C997.37 43.8211 996.92 43.7611 996.12 43.1611C994.78 42.1611 993.41 41.1911 992.03 40.2511C991.25 39.7211 991.06 39.2911 991.37 38.4011C991.67 37.5711 991.99 36.7411 992.32 35.8411C990.93 35.3211 989.61 34.8311 988.26 34.3311C987.92 35.2411 987.62 36.0511 987.31 36.8511C986.97 37.7311 986.55 37.9411 985.62 37.8311C983.93 37.6411 982.24 37.4711 980.55 37.3311C979.54 37.2511 979.23 37.0211 979.05 36.0011C978.9 35.1611 978.77 34.3111 978.62 33.4211L974.32 34.1411C974.47 35.0311 974.61 35.8811 974.75 36.7211C974.91 37.7211 974.67 38.0711 973.76 38.4711C972.2 39.1511 970.66 39.8611 969.12 40.5911C968.27 40.9911 967.82 40.9411 967.2 40.2111C966.63 39.5411 966.07 38.8511 965.47 38.1311C964.32 39.0811 963.23 39.9811 962.13 40.8911C962.76 41.6511 963.31 42.3111 963.85 42.9911C964.44 43.7311 964.41 44.1911 963.85 44.9511C962.85 46.3011 961.87 47.6511 960.93 49.0411C960.34 49.9011 959.95 50.0811 958.96 49.7211C958.15 49.4311 957.35 49.1211 956.49 48.8011C955.97 50.1911 955.48 51.5011 954.97 52.8611C955.84 53.1911 956.65 53.4911 957.45 53.8011C958.43 54.1811 958.6 54.5711 958.47 55.6111C958.27 57.2411 958.11 58.8811 958 60.5211C957.93 61.5211 957.69 61.8811 956.71 62.0611C955.84 62.2111 954.97 62.3511 954.08 62.5011L954.8 66.8011C955.72 66.6511 956.59 66.4911 957.47 66.3611C958.35 66.2311 958.77 66.5111 959.11 67.3011C959.79 68.8611 960.48 70.4111 961.21 71.9411C961.66 72.8711 961.61 73.2911 960.79 73.9811C960.14 74.5311 959.48 75.0711 958.78 75.6511C959.72 76.7911 960.61 77.8611 961.54 78.9811C962.25 78.4011 962.89 77.8611 963.54 77.3411C964.4 76.6411 964.8 76.6711 965.69 77.3411C966.99 78.3111 968.31 79.2611 969.65 80.1711C970.57 80.7911 970.73 81.1611 970.35 82.2011C970.06 83.0011 969.76 83.8011 969.46 84.6411C970.86 85.1611 972.17 85.6511 973.51 86.1511C973.85 85.2511 974.15 84.4411 974.46 83.6411C974.82 82.7111 975.21 82.5411 976.22 82.6511C977.88 82.8411 979.55 83.0011 981.21 83.1311C982.18 83.2011 982.56 83.4811 982.74 84.4511C982.89 85.3211 983.03 86.1911 983.17 87.0311L987.47 86.3111C987.31 85.3511 987.16 84.4511 987.01 83.5411C986.88 82.7711 987.23 82.3211 987.91 82.0211C989.49 81.3311 991.07 80.6311 992.63 79.8911C993.53 79.4611 993.95 79.5111 994.61 80.2811C995.17 80.9411 995.71 81.6111 996.31 82.3311C997.44 81.4011 998.53 80.5011 999.65 79.5811C999.03 78.8211 998.47 78.1611 997.93 77.4911C997.33 76.7511 997.37 76.2911 997.93 75.5311C998.94 74.1611 999.93 72.7811 1000.9 71.3811C1001.44 70.5911 1001.85 70.4111 1002.74 70.7211C1003.58 71.0211 1004.4 71.3311 1005.3 71.6611C1005.81 70.2911 1006.31 68.9711 1006.82 67.6111C1005.94 67.2811 1005.16 66.9911 1004.38 66.6911C1003.39 66.3111 1003.2 65.9211 1003.33 64.9011C1003.52 63.2711 1003.69 61.6311 1003.81 59.9911C1003.89 58.8811 1004.12 58.5611 1005.21 58.3711C1006.05 58.2211 1006.89 58.0911 1007.71 57.9511L1006.99 53.6511C1006.07 53.8011 1005.22 53.9511 1004.37 54.0911C1003.41 54.2411 1003.07 54.0111 1002.69 53.1311C1002.01 51.5711 1001.31 50.0211 1000.58 48.4911C1000.16 47.6011 1000.21 47.1711 1000.99 46.5211C1001.65 45.9611 1002.32 45.4211 1003.03 44.8311H1002.98Z" fill="#9DC0F3"/>
<path d="M1019.13 31.8705C1018.21 32.4039 1017.84 33.1905 1018.01 34.2305C1018.27 35.8205 1018.05 36.1405 1016.47 36.4005C1014.23 36.7705 1011.99 37.1505 1009.74 37.5205C1008.41 37.7405 1008 37.4405 1007.76 36.0805C1007.72 35.8705 1007.69 35.6505 1007.65 35.4405C1007.47 34.3805 1007.21 34.1305 1006.15 34.1105C1005.98 34.1105 1005.77 34.2605 1005.66 34.4005C1005.29 34.8705 1004.97 35.3705 1004.6 35.8405C1004.12 36.4505 1003.51 36.5605 1002.88 36.1205C1000.73 34.6105 998.592 33.0905 996.472 31.5505C995.822 31.0805 995.752 30.4405 996.182 29.7705C996.402 29.4305 996.612 29.0705 996.892 28.7805C997.432 28.2305 997.372 27.7605 996.922 27.1605C996.632 26.7705 996.402 26.6205 995.932 26.7205C995.432 26.8405 994.922 26.9105 994.412 26.9705C993.652 27.0605 993.102 26.7405 992.972 25.9905C992.512 23.3805 992.072 20.7605 991.662 18.1405C991.542 17.3905 991.942 16.8905 992.692 16.7405C993.172 16.6405 993.652 16.5405 994.132 16.5005C994.672 16.4605 994.882 16.2205 995.032 15.6805C995.222 14.9905 995.062 14.6305 994.482 14.2305C992.432 12.8405 992.442 12.7505 993.862 10.7605C995.062 9.09053 996.252 7.41053 997.452 5.74053C998.282 4.59053 998.742 4.51053 999.922 5.35053C1000.19 5.54053 1000.47 5.70053 1000.71 5.92053C1001.12 6.31053 1001.43 6.22053 1001.91 5.95053C1002.55 5.59053 1002.65 5.20053 1002.52 4.52053C1002.08 2.14053 1002.18 2.04053 1004.56 1.64053C1006.67 1.29053 1008.78 0.93053 1010.89 0.59053C1011.94 0.42053 1012.41 0.76053 1012.61 1.79053C1012.68 2.16053 1012.78 2.54053 1012.79 2.91053C1012.81 3.56053 1013.13 3.79053 1013.75 3.95053C1014.42 4.13053 1014.7 3.91053 1015.05 3.41053C1016.52 1.32053 1016.58 1.32053 1018.64 2.79053C1020.31 3.98053 1021.99 5.17053 1023.67 6.37053C1024.73 7.12053 1024.8 7.65053 1024.04 8.73053C1023.91 8.91053 1023.81 9.11053 1023.66 9.25053C1023.02 9.87053 1023 10.4905 1023.64 11.1005C1023.82 11.2705 1024.11 11.4405 1024.34 11.4305C1024.9 11.4005 1025.46 11.2505 1026.02 11.1805C1026.83 11.0905 1027.35 11.4405 1027.49 12.2205C1027.94 14.7805 1028.36 17.3405 1028.78 19.9105C1028.91 20.7105 1028.55 21.2205 1027.77 21.4005C1027.27 21.5205 1026.76 21.6205 1026.25 21.6605C1025.73 21.7005 1025.57 21.9805 1025.42 22.4505C1025.21 23.1305 1025.37 23.4905 1025.96 23.8905C1028.01 25.2905 1028.01 25.4005 1026.57 27.4105C1025.34 29.1305 1024.12 30.8505 1022.88 32.5605C1022.22 33.4705 1021.67 33.5605 1020.76 32.9405C1020.27 32.6005 1019.79 32.2605 1019.3 31.9105C1019.28 31.8905 1019.25 31.8905 1019.16 31.8505L1019.13 31.8705ZM1021.22 30.4605C1022.36 28.8605 1023.41 27.3905 1024.59 25.7405C1024.18 25.5005 1023.71 25.2505 1023.25 24.9605C1022.59 24.5405 1022.43 23.9705 1022.67 23.2105C1022.92 22.4205 1023.11 21.5905 1023.24 20.7705C1023.36 20.0105 1023.75 19.6105 1024.49 19.5005C1025.04 19.4105 1025.59 19.3205 1026.13 19.2305L1025.22 13.7805C1024.64 13.8805 1024.12 13.9605 1023.59 14.0505C1022.86 14.1705 1022.36 13.9305 1021.99 13.2605C1021.58 12.5005 1021.11 11.7705 1020.61 11.0705C1020.16 10.4505 1020.16 9.88053 1020.63 9.29053C1020.97 8.87053 1021.32 8.46053 1021.62 8.11053C1020.01 6.95053 1018.54 5.90053 1016.91 4.72053C1016.67 5.14053 1016.41 5.61053 1016.12 6.07053C1015.7 6.74053 1015.13 6.89053 1014.37 6.65053C1013.57 6.40053 1012.75 6.21053 1011.93 6.08053C1011.13 5.96053 1010.74 5.53053 1010.62 4.77053C1010.54 4.25053 1010.45 3.73053 1010.36 3.22053L1004.9 4.13053C1005 4.70053 1005.06 5.21053 1005.17 5.71053C1005.34 6.49053 1005.03 6.99053 1004.34 7.36053C1003.61 7.76053 1002.89 8.20053 1002.21 8.69053C1001.56 9.16053 1000.96 9.16053 1000.37 8.66053C999.962 8.32053 999.582 7.93053 999.282 7.64053C998.062 9.36053 997.032 10.8305 995.952 12.3605C996.282 12.5805 996.682 12.8605 997.092 13.1105C997.822 13.5605 998.002 14.1705 997.752 14.9905C997.512 15.7605 997.342 16.5605 997.212 17.3505C997.082 18.1305 996.672 18.5605 995.902 18.6705C995.382 18.7405 994.862 18.8405 994.322 18.9305L995.232 24.3805C995.812 24.2805 996.342 24.2005 996.872 24.1005C997.612 23.9605 998.102 24.2505 998.472 24.9005C998.892 25.6505 999.362 26.3805 999.842 27.1005C1000.24 27.6905 1000.3 28.2505 999.852 28.8105C999.502 29.2505 999.132 29.6805 998.852 30.0205C1000.46 31.1805 1001.92 32.2205 1003.55 33.3905C1003.78 32.9905 1004.04 32.5105 1004.33 32.0605C1004.73 31.4305 1005.28 31.2705 1006.01 31.4805C1006.84 31.7205 1007.68 31.9205 1008.53 32.0605C1009.28 32.1905 1009.69 32.5705 1009.78 33.3205C1009.85 33.8505 1009.95 34.3705 1010.05 34.9305L1015.52 34.0205C1015.42 33.4205 1015.32 32.8605 1015.24 32.3105C1015.15 31.6905 1015.36 31.2105 1015.92 30.8805C1016.73 30.4005 1017.54 29.9005 1018.32 29.3805C1018.89 29.0005 1019.43 28.9905 1019.96 29.4105C1020.41 29.7605 1020.84 30.1305 1021.22 30.4405V30.4605Z" fill="#9DC0F3"/>
<path d="M1018.51 56.2414C1017.52 57.4114 1016.99 57.6414 1016.31 57.1514C1015.66 56.6814 1015.71 56.1414 1016.47 54.7714C1015.69 53.5214 1014.93 52.3314 1014.15 51.0814C1012.57 51.1514 1012.07 50.9514 1011.94 50.1614C1011.82 49.3914 1012.2 49.0714 1013.74 48.5614C1014.07 47.1514 1014.38 45.7914 1014.73 44.3114C1014.18 43.8214 1013.07 43.3414 1013.83 42.1214C1014.26 41.4314 1014.83 41.5114 1016.2 42.2814C1017.43 41.5114 1018.61 40.7614 1019.93 39.9314C1019.9 39.7714 1019.82 39.4314 1019.8 39.1014C1019.75 38.4014 1020.18 37.8714 1020.84 37.7814C1021.5 37.6814 1022.12 38.0614 1022.17 38.7614C1022.24 39.6214 1022.66 39.7314 1023.4 39.8114C1024.46 39.9314 1025.49 40.2814 1026.64 40.5614C1027.15 39.9814 1027.62 38.8614 1028.85 39.6514C1029.56 40.1114 1029.49 40.6814 1028.68 42.0014C1029.45 43.2214 1030.2 44.4214 1031.01 45.7114C1031.79 45.6614 1032.98 45.2514 1033.18 46.6714C1033.36 47.9814 1032.17 47.9714 1031.41 48.1714C1031.09 49.6014 1030.78 50.9514 1030.43 52.4614C1030.94 52.9714 1032.15 53.4514 1031.29 54.7014C1030.84 55.3514 1030.3 55.2714 1029.01 54.5214C1027.8 55.2114 1026.65 55.8314 1025.54 56.5314C1025.35 56.6514 1025.28 57.1114 1025.32 57.4014C1025.41 58.1014 1025.27 58.6514 1024.58 58.9314C1023.87 59.2214 1023.16 58.8314 1022.95 58.0514C1022.87 57.7414 1022.84 57.4214 1022.81 57.2314C1021.34 56.8914 1019.99 56.5814 1018.5 56.2414H1018.51ZM1023.57 54.5014C1026.95 53.9414 1029.26 50.7714 1028.72 47.4014C1028.18 44.0014 1024.95 41.6914 1021.54 42.2714C1018.16 42.8414 1015.88 46.0314 1016.43 49.4014C1016.98 52.7614 1020.2 55.0614 1023.56 54.5014H1023.57Z" fill="#9DC0F3"/>
<path d="M977.502 43.1204C986.732 41.6304 995.302 47.0204 997.602 55.3204C1000.05 64.1604 995.662 73.2304 987.192 76.4504C980.992 78.8104 975.182 77.8104 969.912 73.7604C969.102 73.1404 968.942 72.4304 969.422 71.8304C969.902 71.2204 970.602 71.2204 971.412 71.8504C977.622 76.6504 985.872 76.2804 991.332 70.9604C995.792 66.6204 997.092 60.0304 994.642 54.2704C992.272 48.7104 986.562 45.0704 980.452 45.2404C969.212 45.5504 962.282 57.8204 967.832 67.6104C967.962 67.8504 968.112 68.0704 968.232 68.3104C968.552 68.9404 968.382 69.5804 967.822 69.9404C967.242 70.3004 966.502 70.1804 966.142 69.5104C965.472 68.2204 964.732 66.9304 964.302 65.5604C961.472 56.6504 966.032 47.2604 974.772 43.9304C975.832 43.5304 976.952 43.2904 977.512 43.1304L977.502 43.1204Z" fill="#9DC0F3"/>
<path d="M982.909 72.311C976.629 73.371 970.569 69.421 968.989 63.241C967.419 57.101 970.899 50.701 976.929 48.641C978.619 48.061 980.359 47.881 982.129 48.061C983.129 48.161 983.659 48.661 983.589 49.421C983.519 50.181 982.899 50.561 981.889 50.481C976.969 50.071 972.629 53.001 971.409 57.711C970.389 61.661 971.459 65.111 974.589 67.711C977.789 70.371 981.459 70.861 985.209 68.981C988.879 67.151 990.699 64.031 990.649 59.921C990.609 56.971 989.339 54.561 987.089 52.651C986.829 52.421 986.529 52.191 986.379 51.891C986.109 51.351 986.229 50.821 986.709 50.431C987.229 50.011 987.769 50.081 988.279 50.471C990.019 51.791 991.329 53.461 992.169 55.471C995.229 62.731 990.679 70.991 982.919 72.301L982.909 72.311Z" fill="#9DC0F3"/>
<path d="M1011.76 28.6514C1004.93 29.7614 999.141 23.5714 1000.74 16.8714C1000.79 16.6614 1000.84 16.4514 1000.92 16.2514C1001.18 15.5814 1001.78 15.2714 1002.41 15.4514C1003.03 15.6314 1003.41 16.2314 1003.23 16.9114C1002.86 18.3614 1002.82 19.7814 1003.25 21.2314C1004.3 24.7114 1007.84 26.8714 1011.49 26.2314C1015.11 25.5914 1017.68 22.3514 1017.49 18.6814C1017.3 15.0514 1014.31 12.0514 1010.67 11.8514C1008.91 11.7514 1007.3 12.2114 1005.87 13.2614C1005.39 13.6114 1004.84 13.7714 1004.38 13.3614C1004.08 13.0914 1003.81 12.5714 1003.86 12.2114C1003.91 11.8314 1004.29 11.4114 1004.64 11.1614C1009.16 7.92136 1015.67 9.29136 1018.52 14.0514C1022.07 19.9714 1018.56 27.5414 1011.76 28.6514Z" fill="#9DC0F3"/>
<path d="M1018.62 49.0809C1018.24 46.8809 1019.68 44.8009 1021.85 44.4009C1024.05 44.0009 1026.17 45.4909 1026.54 47.7109C1026.9 49.9009 1025.43 51.9809 1023.26 52.3609C1021.08 52.7409 1019 51.2609 1018.62 49.0709V49.0809ZM1021.01 48.5709C1021.12 49.4509 1021.9 50.0709 1022.77 49.9709C1023.62 49.8709 1024.25 49.0609 1024.14 48.1909C1024.03 47.3109 1023.25 46.6909 1022.38 46.7909C1021.52 46.8909 1020.9 47.7009 1021.01 48.5709Z" fill="#9DC0F3"/>
<path d="M750.77 157.44V154.69H749.74C741.65 154.69 733.56 154.69 725.47 154.69C725.18 154.69 724.9 154.71 724.61 154.68C723.86 154.59 723.32 154 723.36 153.29C723.4 152.53 723.84 152.09 724.58 151.97C724.86 151.92 725.15 151.95 725.44 151.95C733.53 151.95 741.62 151.95 749.71 151.95C750.05 151.95 750.38 151.95 750.8 151.95C750.8 151.39 750.78 150.91 750.8 150.43C750.88 148.27 752.6 146.49 754.76 146.47C760.33 146.43 765.91 146.44 771.48 146.47C773.68 146.48 775.41 148.27 775.49 150.48C775.51 150.93 775.49 151.39 775.49 151.95H776.54C785.55 151.95 794.55 151.95 803.56 151.95C803.82 151.95 804.08 151.94 804.33 151.95C805.14 152.01 805.69 152.58 805.68 153.33C805.68 154.07 805.11 154.63 804.3 154.68C804.04 154.7 803.79 154.68 803.53 154.68C794.52 154.68 785.52 154.68 776.51 154.68H775.54V157.43H776.51C785.54 157.43 794.58 157.43 803.61 157.43C803.9 157.43 804.19 157.4 804.47 157.45C805.21 157.58 805.66 158.03 805.67 158.79C805.67 159.55 805.23 160.01 804.5 160.15C804.22 160.2 803.93 160.17 803.64 160.17C794.63 160.17 785.63 160.17 776.62 160.17H775.49C775.49 161.44 775.49 162.65 775.49 163.87C775.49 166.62 773.98 168.2 771.22 168.43C770.93 168.45 770.57 168.74 770.41 169C768.47 172.06 766.56 175.15 764.63 178.22C763.65 179.78 762.64 179.79 761.67 178.25C759.75 175.17 757.82 172.1 755.92 169.01C755.65 168.58 755.37 168.4 754.84 168.38C752.53 168.33 750.83 166.56 750.79 164.25C750.77 162.94 750.79 161.62 750.79 160.17H749.78C741.66 160.17 733.54 160.17 725.42 160.17C725.13 160.17 724.84 160.2 724.56 160.15C723.82 160.03 723.39 159.58 723.35 158.82C723.31 158.11 723.85 157.52 724.6 157.44C724.88 157.41 725.17 157.43 725.46 157.43C733.52 157.43 741.58 157.43 749.65 157.43H750.76L750.77 157.44ZM763.15 165.68C765.78 165.68 768.41 165.68 771.04 165.68C772.27 165.68 772.75 165.19 772.76 163.97C772.76 159.62 772.76 155.28 772.76 150.93C772.76 149.7 772.27 149.22 771.05 149.22C765.79 149.22 760.53 149.22 755.27 149.22C754.04 149.22 753.56 149.7 753.56 150.93C753.56 155.28 753.56 159.62 753.56 163.97C753.56 165.2 754.04 165.68 755.27 165.69C757.9 165.69 760.53 165.69 763.16 165.69L763.15 165.68ZM767.5 168.48H758.8C760.27 170.83 761.68 173.08 763.15 175.44C764.64 173.06 766.04 170.82 767.5 168.48Z" fill="#9DC0F3"/>
<path d="M752.199 198.591C753.279 199.221 754.229 199.781 755.179 200.341C758.549 202.311 761.929 204.291 765.319 206.231C765.599 206.391 766.119 206.451 766.379 206.301C770.689 203.831 774.969 201.311 779.249 198.811C779.319 198.771 779.379 198.711 779.529 198.581C778.889 198.201 778.289 197.851 777.699 197.481C776.879 196.971 776.639 196.251 777.049 195.531C777.459 194.821 778.219 194.631 779.049 195.101C780.369 195.841 781.699 196.561 782.959 197.401C783.339 197.651 783.699 198.251 783.709 198.701C783.759 205.021 783.739 211.341 783.749 217.661C783.749 218.511 783.249 218.931 782.599 219.311C777.539 222.251 772.459 225.171 767.439 228.181C766.349 228.831 765.539 228.881 764.409 228.201C759.419 225.201 754.369 222.291 749.319 219.381C748.419 218.861 748.029 218.251 748.039 217.191C748.079 211.131 748.069 205.071 748.039 199.011C748.039 198.121 748.369 197.611 749.139 197.181C751.189 196.051 753.179 194.801 755.229 193.671C755.799 193.361 756.509 193.161 757.159 193.151C761.679 193.111 766.189 193.131 770.709 193.131C770.939 193.131 771.169 193.141 771.399 193.131C772.209 193.071 772.759 192.501 772.759 191.751C772.759 191.001 772.199 190.411 771.379 190.401C769.669 190.371 767.949 190.401 766.229 190.391C763.489 190.391 761.789 188.681 761.779 185.951C761.779 185.261 761.779 184.581 761.779 183.891C761.779 182.801 762.279 182.171 763.129 182.161C764.009 182.141 764.519 182.791 764.519 183.931C764.519 184.421 764.519 184.901 764.519 185.391C764.519 187.341 764.819 187.641 766.729 187.641C768.219 187.641 769.699 187.641 771.189 187.641C773.659 187.661 775.509 189.441 775.499 191.791C775.479 194.101 773.639 195.871 771.209 195.871C766.719 195.881 762.229 195.861 757.749 195.891C757.189 195.891 756.579 196.091 756.079 196.351C754.799 197.021 753.579 197.791 752.199 198.591ZM767.269 224.961C767.479 224.891 767.569 224.871 767.639 224.831C771.929 222.331 776.229 219.831 780.499 217.301C780.759 217.151 780.979 216.681 780.979 216.361C781.009 211.501 780.999 206.641 780.999 201.791C780.999 201.581 780.959 201.381 780.929 201.111C780.749 201.211 780.649 201.251 780.549 201.311C776.289 203.791 772.019 206.261 767.779 208.781C767.519 208.941 767.299 209.401 767.289 209.721C767.249 212.121 767.269 214.521 767.269 216.921C767.269 219.571 767.269 222.231 767.269 224.971V224.961ZM750.839 201.061C750.819 201.311 750.799 201.421 750.799 201.541C750.799 206.511 750.809 211.481 750.779 216.461C750.779 217.011 751.049 217.201 751.429 217.421C755.499 219.791 759.569 222.161 763.639 224.531C763.899 224.681 764.169 224.821 764.519 225.011C764.519 219.731 764.519 214.591 764.499 209.451C764.499 209.201 764.189 208.871 763.939 208.721C762.529 207.861 761.089 207.031 759.669 206.201C756.769 204.511 753.859 202.821 750.849 201.061H750.839Z" fill="#9DC0F3"/>
<path d="M728.839 217.83C732.899 217.83 736.849 217.83 740.789 217.83C741.679 217.83 742.559 217.83 743.449 217.83C744.669 217.83 745.319 218.33 745.309 219.23C745.289 220.1 744.659 220.58 743.489 220.58C739.719 220.58 735.939 220.58 732.169 220.58C730.769 220.58 729.369 220.58 727.969 220.58C726.559 220.58 726.109 220.14 726.109 218.75C726.109 200.74 726.109 182.73 726.109 164.71C726.109 163.56 726.609 162.92 727.489 162.93C728.369 162.93 728.849 163.57 728.849 164.74C728.849 181.55 728.849 198.36 728.849 215.17C728.849 216.02 728.849 216.88 728.849 217.83H728.839Z" fill="#9DC0F3"/>
<path d="M800.21 217.83V165.32C800.21 165.09 800.21 164.86 800.21 164.63C800.22 163.55 800.73 162.92 801.58 162.92C802.43 162.92 802.95 163.55 802.95 164.63C802.95 182.7 802.95 200.77 802.95 218.84C802.95 220.08 802.47 220.56 801.24 220.56C796.89 220.56 792.55 220.56 788.2 220.56C787.11 220.56 786.49 220.05 786.48 219.2C786.48 218.34 787.1 217.82 788.18 217.82C791.84 217.82 795.5 217.82 799.16 217.82C799.47 217.82 799.78 217.82 800.2 217.82L800.21 217.83Z" fill="#9DC0F3"/>
<path d="M790.6 168.42C792.34 168.42 794.09 168.42 795.83 168.42C796.84 168.42 797.45 168.96 797.45 169.79C797.45 170.62 796.83 171.16 795.83 171.16C792.34 171.16 788.85 171.16 785.37 171.16C784.36 171.16 783.75 170.62 783.75 169.79C783.75 168.96 784.36 168.43 785.37 168.42C787.11 168.42 788.86 168.42 790.6 168.42Z" fill="#9DC0F3"/>
<path d="M782.44 176.65C780.7 176.65 778.95 176.65 777.21 176.65C776.14 176.65 775.51 176.12 775.52 175.26C775.53 174.41 776.16 173.91 777.25 173.91C780.68 173.91 784.11 173.91 787.54 173.91C788.61 173.91 789.24 174.44 789.23 175.3C789.22 176.15 788.59 176.65 787.5 176.65C785.81 176.65 784.13 176.65 782.44 176.65Z" fill="#9DC0F3"/>
<path d="M757.649 154.679C756.909 154.679 756.289 154.049 756.289 153.299C756.289 152.549 756.919 151.939 757.659 151.939C758.409 151.939 759.019 152.569 759.019 153.309C759.019 154.049 758.389 154.669 757.649 154.669V154.679Z" fill="#9DC0F3"/>
<path d="M759.028 158.851C759.008 159.591 758.358 160.201 757.618 160.171C756.878 160.151 756.268 159.501 756.298 158.761C756.318 158.011 756.958 157.411 757.708 157.441C758.448 157.461 759.058 158.111 759.028 158.851Z" fill="#9DC0F3"/>
<g opacity="0.3">
<path d="M369.772 139C368.942 139 368.272 138.33 368.272 137.5V129.35C368.272 128.52 368.942 127.85 369.772 127.85C370.602 127.85 371.272 128.52 371.272 129.35V137.5C371.272 138.33 370.602 139 369.772 139ZM369.772 125.85C368.942 125.85 368.272 125.18 368.272 124.35V114.35C368.272 113.52 368.942 112.85 369.772 112.85C370.602 112.85 371.272 113.52 371.272 114.35V124.35C371.272 125.18 370.602 125.85 369.772 125.85ZM369.772 110.85C368.942 110.85 368.272 110.18 368.272 109.35V99.3498C368.272 98.5198 368.942 97.8498 369.772 97.8498C370.602 97.8498 371.272 98.5198 371.272 99.3498V109.35C371.272 110.18 370.602 110.85 369.772 110.85ZM369.772 95.8498C368.942 95.8498 368.272 95.1798 368.272 94.3498V84.3498C368.272 83.5198 368.942 82.8498 369.772 82.8498C370.602 82.8498 371.272 83.5198 371.272 84.3498V94.3498C371.272 95.1798 370.602 95.8498 369.772 95.8498ZM369.772 80.8498C368.942 80.8498 368.272 80.1798 368.272 79.3498V69.3498C368.272 68.5198 368.942 67.8498 369.772 67.8498C370.602 67.8498 371.272 68.5198 371.272 69.3498V79.3498C371.272 80.1798 370.602 80.8498 369.772 80.8498ZM369.642 65.8498C368.882 65.8498 368.232 65.2798 368.152 64.5098C367.822 61.4298 366.732 58.4398 365.032 55.8598C364.572 55.1698 364.762 54.2398 365.452 53.7798C366.142 53.3198 367.072 53.5098 367.532 54.1998C369.502 57.1798 370.752 60.6298 371.142 64.1798C371.232 64.9998 370.632 65.7398 369.812 65.8298C369.752 65.8298 369.702 65.8298 369.652 65.8298L369.642 65.8498ZM363.052 52.7298C362.682 52.7298 362.322 52.5998 362.032 52.3298C359.762 50.2098 356.982 48.6598 354.012 47.8198C353.212 47.5998 352.752 46.7698 352.972 45.9698C353.192 45.1698 354.032 44.7098 354.822 44.9298C358.252 45.8898 361.452 47.6898 364.072 50.1298C364.682 50.6898 364.712 51.6398 364.152 52.2498C363.852 52.5698 363.452 52.7298 363.052 52.7298ZM349.492 47.0998C349.492 47.0998 349.452 47.0998 349.432 47.0998C349.192 47.0998 348.952 47.0898 348.702 47.0898H339.492C338.662 47.0898 337.992 46.4198 337.992 45.5898C337.992 44.7598 338.662 44.0898 339.492 44.0898H348.702C348.982 44.0898 349.262 44.0898 349.542 44.1098C350.372 44.1398 351.012 44.8398 350.982 45.6598C350.952 46.4698 350.282 47.0998 349.482 47.0998H349.492ZM334.492 47.0898H324.492C323.662 47.0898 322.992 46.4198 322.992 45.5898C322.992 44.7598 323.662 44.0898 324.492 44.0898H334.492C335.322 44.0898 335.992 44.7598 335.992 45.5898C335.992 46.4198 335.322 47.0898 334.492 47.0898ZM319.492 47.0898H309.492C308.662 47.0898 307.992 46.4198 307.992 45.5898C307.992 44.7598 308.662 44.0898 309.492 44.0898H319.492C320.322 44.0898 320.992 44.7598 320.992 45.5898C320.992 46.4198 320.322 47.0898 319.492 47.0898ZM304.492 47.0898H294.492C293.662 47.0898 292.992 46.4198 292.992 45.5898C292.992 44.7598 293.662 44.0898 294.492 44.0898H304.492C305.322 44.0898 305.992 44.7598 305.992 45.5898C305.992 46.4198 305.322 47.0898 304.492 47.0898ZM289.492 47.0898H279.492C278.662 47.0898 277.992 46.4198 277.992 45.5898C277.992 44.7598 278.662 44.0898 279.492 44.0898H289.492C290.322 44.0898 290.992 44.7598 290.992 45.5898C290.992 46.4198 290.322 47.0898 289.492 47.0898ZM274.492 47.0898H264.492C263.662 47.0898 262.992 46.4198 262.992 45.5898C262.992 44.7598 263.662 44.0898 264.492 44.0898H274.492C275.322 44.0898 275.992 44.7598 275.992 45.5898C275.992 46.4198 275.322 47.0898 274.492 47.0898ZM259.492 47.0898H249.492C248.662 47.0898 247.992 46.4198 247.992 45.5898C247.992 44.7598 248.662 44.0898 249.492 44.0898H259.492C260.322 44.0898 260.992 44.7598 260.992 45.5898C260.992 46.4198 260.322 47.0898 259.492 47.0898Z" fill="#475F96"/>
</g>
<g opacity="0.3">
<path d="M836.1 140.19C835.27 140.19 834.6 139.52 834.6 138.69V130.74C834.6 129.91 835.27 129.24 836.1 129.24C836.93 129.24 837.6 129.91 837.6 130.74V138.69C837.6 139.52 836.93 140.19 836.1 140.19ZM836.1 127.24C835.27 127.24 834.6 126.57 834.6 125.74V115.74C834.6 114.91 835.27 114.24 836.1 114.24C836.93 114.24 837.6 114.91 837.6 115.74V125.74C837.6 126.57 836.93 127.24 836.1 127.24ZM836.1 112.24C835.27 112.24 834.6 111.57 834.6 110.74V100.74C834.6 99.9101 835.27 99.2401 836.1 99.2401C836.93 99.2401 837.6 99.9101 837.6 100.74V110.74C837.6 111.57 836.93 112.24 836.1 112.24ZM836.1 97.2401C835.27 97.2401 834.6 96.5701 834.6 95.7401V85.7401C834.6 84.9101 835.27 84.2401 836.1 84.2401C836.93 84.2401 837.6 84.9101 837.6 85.7401V95.7401C837.6 96.5701 836.93 97.2401 836.1 97.2401ZM836.1 82.2401C835.27 82.2401 834.6 81.5701 834.6 80.7401V70.7401C834.6 69.9101 835.27 69.2401 836.1 69.2401C836.93 69.2401 837.6 69.9101 837.6 70.7401V80.7401C837.6 81.5701 836.93 82.2401 836.1 82.2401ZM836.05 67.2401C835.27 67.2401 834.61 66.6301 834.55 65.8401C834.35 62.7501 833.39 59.7101 831.8 57.0701C831.37 56.3601 831.6 55.4401 832.31 55.0101C833.02 54.5801 833.94 54.8101 834.37 55.5201C836.21 58.5801 837.31 62.0801 837.54 65.6501C837.59 66.4801 836.97 67.1901 836.14 67.2501C836.11 67.2501 836.07 67.2501 836.04 67.2501L836.05 67.2401ZM830.03 53.8501C829.64 53.8501 829.26 53.7001 828.96 53.4001C826.78 51.1901 824.07 49.5101 821.14 48.5501C820.35 48.2901 819.92 47.4401 820.18 46.6601C820.44 45.8701 821.29 45.4401 822.07 45.7001C825.45 46.8101 828.57 48.7401 831.09 51.2901C831.67 51.8801 831.67 52.8301 831.08 53.4101C830.79 53.7001 830.41 53.8401 830.03 53.8401V53.8501ZM816.73 47.6501C816.73 47.6501 816.65 47.6501 816.61 47.6501C816.09 47.6101 815.57 47.5901 815.04 47.5901H806.73C805.9 47.5901 805.23 46.9201 805.23 46.0901C805.23 45.2601 805.9 44.5901 806.73 44.5901H815.04C815.64 44.5901 816.25 44.6101 816.84 44.6601C817.67 44.7301 818.28 45.4501 818.22 46.2701C818.16 47.0601 817.5 47.6501 816.73 47.6501ZM801.73 47.5801H791.73C790.9 47.5801 790.23 46.9101 790.23 46.0801C790.23 45.2501 790.9 44.5801 791.73 44.5801H801.73C802.56 44.5801 803.23 45.2501 803.23 46.0801C803.23 46.9101 802.56 47.5801 801.73 47.5801ZM786.73 47.5801H776.73C775.9 47.5801 775.23 46.9101 775.23 46.0801C775.23 45.2501 775.9 44.5801 776.73 44.5801H786.73C787.56 44.5801 788.23 45.2501 788.23 46.0801C788.23 46.9101 787.56 47.5801 786.73 47.5801ZM771.73 47.5801H761.73C760.9 47.5801 760.23 46.9101 760.23 46.0801C760.23 45.2501 760.9 44.5801 761.73 44.5801H771.73C772.56 44.5801 773.23 45.2501 773.23 46.0801C773.23 46.9101 772.56 47.5801 771.73 47.5801ZM756.73 47.5801H746.73C745.9 47.5801 745.23 46.9101 745.23 46.0801C745.23 45.2501 745.9 44.5801 746.73 44.5801H756.73C757.56 44.5801 758.23 45.2501 758.23 46.0801C758.23 46.9101 757.56 47.5801 756.73 47.5801ZM741.73 47.5801H731.73C730.9 47.5801 730.23 46.9101 730.23 46.0801C730.23 45.2501 730.9 44.5801 731.73 44.5801H741.73C742.56 44.5801 743.23 45.2501 743.23 46.0801C743.23 46.9101 742.56 47.5801 741.73 47.5801Z" fill="#475F96"/>
</g>
<g opacity="0.3">
<path d="M552.57 187.96H542.57C541.74 187.96 541.07 187.29 541.07 186.46C541.07 185.63 541.74 184.96 542.57 184.96H552.57C553.4 184.96 554.07 185.63 554.07 186.46C554.07 187.29 553.4 187.96 552.57 187.96ZM537.57 187.96H527.57C526.74 187.96 526.07 187.29 526.07 186.46C526.07 185.63 526.74 184.96 527.57 184.96H537.57C538.4 184.96 539.07 185.63 539.07 186.46C539.07 187.29 538.4 187.96 537.57 187.96ZM522.57 187.96H512.57C511.74 187.96 511.07 187.29 511.07 186.46C511.07 185.63 511.74 184.96 512.57 184.96H522.57C523.4 184.96 524.07 185.63 524.07 186.46C524.07 187.29 523.4 187.96 522.57 187.96ZM507.57 187.96H497.57C496.74 187.96 496.07 187.29 496.07 186.46C496.07 185.63 496.74 184.96 497.57 184.96H507.57C508.4 184.96 509.07 185.63 509.07 186.46C509.07 187.29 508.4 187.96 507.57 187.96ZM492.57 187.96H482.57C481.74 187.96 481.07 187.29 481.07 186.46C481.07 185.63 481.74 184.96 482.57 184.96H492.57C493.4 184.96 494.07 185.63 494.07 186.46C494.07 187.29 493.4 187.96 492.57 187.96ZM477.57 187.96H467.57C466.74 187.96 466.07 187.29 466.07 186.46C466.07 185.63 466.74 184.96 467.57 184.96H477.57C478.4 184.96 479.07 185.63 479.07 186.46C479.07 187.29 478.4 187.96 477.57 187.96ZM462.57 187.96H452.57C451.74 187.96 451.07 187.29 451.07 186.46C451.07 185.63 451.74 184.96 452.57 184.96H462.57C463.4 184.96 464.07 185.63 464.07 186.46C464.07 187.29 463.4 187.96 462.57 187.96ZM447.57 187.96H437.57C436.74 187.96 436.07 187.29 436.07 186.46C436.07 185.63 436.74 184.96 437.57 184.96H447.57C448.4 184.96 449.07 185.63 449.07 186.46C449.07 187.29 448.4 187.96 447.57 187.96ZM432.57 187.96H422.57C421.74 187.96 421.07 187.29 421.07 186.46C421.07 185.63 421.74 184.96 422.57 184.96H432.57C433.4 184.96 434.07 185.63 434.07 186.46C434.07 187.29 433.4 187.96 432.57 187.96ZM557.55 187.61C556.84 187.61 556.21 187.1 556.08 186.38C555.93 185.57 556.47 184.78 557.29 184.63C560.33 184.07 563.23 182.78 565.69 180.88C566.35 180.37 567.29 180.49 567.79 181.15C568.3 181.81 568.18 182.75 567.52 183.25C564.69 185.44 561.34 186.94 557.83 187.58C557.74 187.6 557.65 187.6 557.56 187.6L557.55 187.61ZM570.15 180.08C569.82 180.08 569.49 179.97 569.21 179.75C568.56 179.23 568.46 178.29 568.98 177.64C570.92 175.22 572.28 172.34 572.89 169.32C573.05 168.51 573.85 167.99 574.66 168.15C575.47 168.32 576 169.11 575.83 169.92C575.12 173.41 573.56 176.73 571.32 179.52C571.02 179.89 570.59 180.08 570.15 180.08ZM574.78 166.15C573.95 166.15 573.28 165.48 573.28 164.65V154.65C573.28 153.82 573.95 153.15 574.78 153.15C575.61 153.15 576.28 153.82 576.28 154.65V164.65C576.28 165.48 575.61 166.15 574.78 166.15ZM574.78 151.15C573.95 151.15 573.28 150.48 573.28 149.65V139.65C573.28 138.82 573.95 138.15 574.78 138.15C575.61 138.15 576.28 138.82 576.28 139.65V149.65C576.28 150.48 575.61 151.15 574.78 151.15ZM574.78 136.15C573.95 136.15 573.28 135.48 573.28 134.65V124.65C573.28 123.82 573.95 123.15 574.78 123.15C575.61 123.15 576.28 123.82 576.28 124.65V134.65C576.28 135.48 575.61 136.15 574.78 136.15ZM574.78 121.15C573.95 121.15 573.28 120.48 573.28 119.65V109.65C573.28 108.82 573.95 108.15 574.78 108.15C575.61 108.15 576.28 108.82 576.28 109.65V119.65C576.28 120.48 575.61 121.15 574.78 121.15Z" fill="#475F96"/>
</g>
<g opacity="0.3">
<path d="M1069.14 183.879H1059.14C1058.31 183.879 1057.64 183.209 1057.64 182.379C1057.64 181.549 1058.31 180.879 1059.14 180.879H1069.14C1069.97 180.879 1070.64 181.549 1070.64 182.379C1070.64 183.209 1069.97 183.879 1069.14 183.879ZM1054.14 183.879H1044.14C1043.31 183.879 1042.64 183.209 1042.64 182.379C1042.64 181.549 1043.31 180.879 1044.14 180.879H1054.14C1054.97 180.879 1055.64 181.549 1055.64 182.379C1055.64 183.209 1054.97 183.879 1054.14 183.879ZM1039.14 183.879H1029.14C1028.31 183.879 1027.64 183.209 1027.64 182.379C1027.64 181.549 1028.31 180.879 1029.14 180.879H1039.14C1039.97 180.879 1040.64 181.549 1040.64 182.379C1040.64 183.209 1039.97 183.879 1039.14 183.879ZM1024.14 183.879H1014.14C1013.31 183.879 1012.64 183.209 1012.64 182.379C1012.64 181.549 1013.31 180.879 1014.14 180.879H1024.14C1024.97 180.879 1025.64 181.549 1025.64 182.379C1025.64 183.209 1024.97 183.879 1024.14 183.879ZM1009.14 183.879H999.141C998.311 183.879 997.641 183.209 997.641 182.379C997.641 181.549 998.311 180.879 999.141 180.879H1009.14C1009.97 180.879 1010.64 181.549 1010.64 182.379C1010.64 183.209 1009.97 183.879 1009.14 183.879ZM994.141 183.879H984.141C983.311 183.879 982.641 183.209 982.641 182.379C982.641 181.549 983.311 180.879 984.141 180.879H994.141C994.971 180.879 995.641 181.549 995.641 182.379C995.641 183.209 994.971 183.879 994.141 183.879ZM979.141 183.879H969.141C968.311 183.879 967.641 183.209 967.641 182.379C967.641 181.549 968.311 180.879 969.141 180.879H979.141C979.971 180.879 980.641 181.549 980.641 182.379C980.641 183.209 979.971 183.879 979.141 183.879ZM964.141 183.879H954.141C953.311 183.879 952.641 183.209 952.641 182.379C952.641 181.549 953.311 180.879 954.141 180.879H964.141C964.971 180.879 965.641 181.549 965.641 182.379C965.641 183.209 964.971 183.879 964.141 183.879ZM949.141 183.879H939.141C938.311 183.879 937.641 183.209 937.641 182.379C937.641 181.549 938.311 180.879 939.141 180.879H949.141C949.971 180.879 950.641 181.549 950.641 182.379C950.641 183.209 949.971 183.879 949.141 183.879ZM1074.14 183.819C1073.36 183.819 1072.7 183.219 1072.65 182.429C1072.59 181.599 1073.21 180.889 1074.04 180.829C1077.13 180.609 1080.16 179.639 1082.8 178.019C1083.51 177.589 1084.43 177.809 1084.86 178.519C1085.29 179.229 1085.07 180.149 1084.36 180.579C1081.31 182.439 1077.82 183.559 1074.26 183.819C1074.22 183.819 1074.19 183.819 1074.15 183.819H1074.14ZM1087.49 177.709C1087.11 177.709 1086.72 177.559 1086.43 177.269C1085.84 176.679 1085.84 175.729 1086.43 175.149C1088.63 172.949 1090.28 170.239 1091.23 167.299C1091.48 166.509 1092.32 166.069 1093.12 166.329C1093.91 166.579 1094.34 167.429 1094.09 168.219C1093 171.609 1091.09 174.739 1088.56 177.269C1088.27 177.559 1087.88 177.709 1087.5 177.709H1087.49ZM1093.61 164.369C1093.61 164.369 1093.54 164.369 1093.5 164.369C1092.67 164.309 1092.05 163.589 1092.11 162.769C1092.14 162.289 1092.16 161.819 1092.16 161.329V152.879C1092.16 152.049 1092.83 151.379 1093.66 151.379C1094.49 151.379 1095.16 152.049 1095.16 152.879V161.329C1095.16 161.889 1095.14 162.439 1095.1 162.979C1095.04 163.769 1094.38 164.369 1093.61 164.369ZM1093.66 149.369C1092.83 149.369 1092.16 148.699 1092.16 147.869V137.869C1092.16 137.039 1092.83 136.369 1093.66 136.369C1094.49 136.369 1095.16 137.039 1095.16 137.869V147.869C1095.16 148.699 1094.49 149.369 1093.66 149.369ZM1093.66 134.369C1092.83 134.369 1092.16 133.699 1092.16 132.869V122.869C1092.16 122.039 1092.83 121.369 1093.66 121.369C1094.49 121.369 1095.16 122.039 1095.16 122.869V132.869C1095.16 133.699 1094.49 134.369 1093.66 134.369ZM1093.66 119.369C1092.83 119.369 1092.16 118.699 1092.16 117.869V107.869C1092.16 107.039 1092.83 106.369 1093.66 106.369C1094.49 106.369 1095.16 107.039 1095.16 107.869V117.869C1095.16 118.699 1094.49 119.369 1093.66 119.369Z" fill="#475F96"/>
</g>
</g>
<defs>
<clipPath id="clip0_2643_16597">
<rect width="1138.58" height="228.68" fill="white" transform="translate(26.7109)"/>
</clipPath>
</defs>
</svg>
