<svg width="12" height="12" viewBox="0 0 12 12" fill="none" xmlns="http://www.w3.org/2000/svg">
<g clip-path="url(#clip0_7262_72148)">
<path d="M6.93987 8.77537C7.12361 8.69665 7.27881 8.59893 7.40092 8.48577C7.61569 8.28673 7.75016 8.02159 7.75016 7.65C7.75016 7.11335 7.53381 6.77895 7.19998 6.52752C6.83794 6.25485 6.33291 6.07909 5.77438 5.93392C5.19506 5.78335 4.7413 5.6144 4.42712 5.38193C4.26262 5.26021 4.12514 5.11314 4.03123 4.93239C3.93653 4.75011 3.90016 4.56051 3.90016 4.375C3.90016 3.92811 4.11543 3.54904 4.47059 3.29918C4.47609 3.29532 4.48161 3.29148 4.48716 3.28768C4.01526 3.53744 3.75016 3.92705 3.75016 4.385C3.75016 4.79797 3.90961 5.09112 4.21409 5.33433C4.54221 5.59643 5.04551 5.80259 5.71684 5.96381L6.93987 8.77537ZM6.93987 8.77537C7.02588 8.7244 7.10432 8.66666 7.17523 8.60242C7.49744 8.31051 7.60016 7.94207 7.60016 7.655C7.60016 7.31476 7.50074 6.94532 7.16136 6.62631C6.84956 6.33322 6.37524 6.12183 5.71691 5.96382L6.93987 8.77537ZM6.00016 2.595V2.9603C5.9189 2.95335 5.83548 2.95 5.75016 2.95C5.66546 2.95 5.58201 2.95326 5.50016 2.9599V2.58V2H6.00016V2.595ZM7.42075 4C7.3581 3.79376 7.25425 3.59681 7.09217 3.42774C7.2811 3.58721 7.41576 3.78332 7.49987 4H7.42075ZM6.00016 9.425V10H5.50016V9.415V9.04156C5.58129 9.04721 5.66466 9.05 5.75016 9.05C5.83643 9.05 5.91976 9.04706 6.00016 9.04124V9.425ZM4.22077 8.54336C4.02938 8.397 3.88008 8.21579 3.7833 8H3.86492C3.93934 8.19713 4.05458 8.38315 4.22077 8.54336Z" stroke="black" stroke-opacity="0.7"/>
</g>
<defs>
<clipPath id="clip0_7262_72148">
<rect width="12" height="12" fill="white"/>
</clipPath>
</defs>
</svg>
