<svg width="12" height="12" viewBox="0 0 12 12" fill="none" xmlns="http://www.w3.org/2000/svg">
<g clip-path="url(#clip0_7262_72134)">
<mask id="mask0_7262_72134" style="mask-type:luminance" maskUnits="userSpaceOnUse" x="1" y="0" width="10" height="12">
<path d="M6 10.1998C4.1 10.1998 2.5 8.5998 2.5 6.6998C2.5 4.7998 4.1 3.1998 6 3.1998C7.9 3.1998 9.5 4.7998 9.5 6.6998C9.5 8.5998 7.9 10.1998 6 10.1998ZM9.5 3.8998L10.2 3.1998C10 2.9998 9.8 2.6998 9.5 2.4998L8.8 3.1998C8 2.5998 7.1 2.1998 6 2.1998C3.5 2.1998 1.5 4.1998 1.5 6.6998C1.5 9.1998 3.5 11.1998 6 11.1998C8.5 11.1998 10.5 9.1998 10.5 6.6998C10.5 5.6998 10.1 4.6998 9.5 3.8998ZM5.5 7.1998H6.5V4.1998H5.5V7.1998ZM7.5 0.799805H4.5V1.7998H7.5V0.799805Z" fill="white"/>
</mask>
<g mask="url(#mask0_7262_72134)">
<path opacity="0.7" d="M8.5 6.7998C8.5 8.1998 7.4 9.2998 6 9.2998V11.2998C8.5 11.2998 10.5 9.2998 10.5 6.7998H8.5ZM6 4.1998C7.4 4.1998 8.5 5.2998 8.5 6.6998H10.5C10.5 4.1998 8.5 2.1998 6 2.1998V4.1998ZM3.5 6.7998C3.5 5.3998 4.6 4.2998 6 4.2998V2.2998C3.5 2.2998 1.5 4.2998 1.5 6.7998H3.5ZM6 9.1998C4.6 9.1998 3.5 8.0998 3.5 6.6998H1.5C1.5 9.1998 3.5 11.1998 6 11.1998V9.1998ZM11.5 6.7998C11.5 5.4998 11 4.2998 10.3 3.3998L8.7 4.5998C9.2 5.1998 9.5 5.9998 9.5 6.7998H11.5ZM6 12.1998C9 12.1998 11.5 9.6998 11.5 6.6998H9.5C9.5 8.5998 7.9 10.1998 6 10.1998V12.1998ZM0.5 6.7998C0.5 9.7998 3 12.2998 6 12.2998V10.2998C4.1 10.2998 2.5 8.6998 2.5 6.7998H0.5ZM6 1.1998C3 1.1998 0.5 3.6998 0.5 6.6998H2.5C2.5 4.7998 4.1 3.1998 6 3.1998V1.1998ZM9.4 2.4998C8.5 1.6998 7.3 1.1998 6 1.1998V3.1998C6.8 3.1998 7.6 3.4998 8.2 3.9998L9.4 2.4998ZM8.8 1.7998L8.1 2.4998L9.5 3.8998L10.2 3.1998L8.8 1.7998ZM11 2.5998C10.8 2.2998 10.5 1.9998 10.2 1.7998L8.9 3.2998C9.1 3.4998 9.3 3.6998 9.5 3.8998L11 2.5998ZM10.2 4.6998L10.9 3.9998L9.5 2.4998L8.8 3.1998L10.2 4.6998ZM4.5 4.1998V7.1998H6.5V4.1998H4.5ZM6.5 3.1998H5.5V5.1998H6.5V3.1998ZM7.5 7.1998V4.1998H5.5V7.1998H7.5ZM5.5 8.1998H6.5V6.1998H5.5V8.1998ZM8.5 1.7998V0.799805H6.5V1.7998H8.5ZM4.5 2.7998H7.5V0.799805H4.5V2.7998ZM3.5 0.799805V1.7998H5.5V0.799805H3.5ZM7.5 -0.200195H4.5V1.7998H7.5V-0.200195ZM8.8 3.1998L8.2 3.9998C8.6 4.2998 9.2 4.2998 9.5 3.8998L8.8 3.1998ZM9.5 2.4998L10.1 1.6998C9.7 1.3998 9.1 1.3998 8.8 1.7998L9.5 2.4998ZM10.2 3.1998L10.9 3.8998C11.3 3.4998 11.3 2.8998 11 2.4998L10.2 3.1998ZM9.5 3.8998L8.8 3.1998C8.4 3.5998 8.4 4.1998 8.7 4.5998L9.5 3.8998ZM5.5 4.1998V3.1998C4.9 3.1998 4.5 3.5998 4.5 4.1998H5.5ZM6.5 4.1998H7.5C7.5 3.5998 7.1 3.1998 6.5 3.1998V4.1998ZM6.5 7.1998V8.1998C7.1 8.1998 7.5 7.7998 7.5 7.1998H6.5ZM5.5 7.1998H4.5C4.5 7.7998 4.9 8.1998 5.5 8.1998V7.1998ZM7.5 1.7998V2.7998C8.1 2.7998 8.5 2.3998 8.5 1.7998H7.5ZM4.5 1.7998H3.5C3.5 2.3998 3.9 2.7998 4.5 2.7998V1.7998ZM4.5 0.799805V-0.200195C3.9 -0.200195 3.5 0.199805 3.5 0.799805H4.5ZM7.5 0.799805H8.5C8.5 0.199805 8.1 -0.200195 7.5 -0.200195V0.799805Z" fill="black"/>
</g>
</g>
<defs>
<clipPath id="clip0_7262_72134">
<rect width="12" height="12" fill="white"/>
</clipPath>
</defs>
</svg>
