<svg width="10" height="8" viewBox="0 0 10 8" fill="none" xmlns="http://www.w3.org/2000/svg">
<path d="M7.995 2.75C7.995 3.16647 7.66125 3.5 7.25 3.5C6.83614 3.5 6.5 3.16386 6.5 2.75C6.5 2.33614 6.83614 2 7.25 2C7.66125 2 7.995 2.33353 7.995 2.75ZM4.495 2C4.495 2.55604 4.05168 3 3.5 3C2.94614 3 2.5 2.55386 2.5 2C2.5 1.44614 2.94614 1 3.5 1C4.05168 1 4.495 1.44396 4.495 2ZM5 6.375C5 6.33007 5.01855 6.25367 5.13994 6.14174C5.26473 6.02668 5.46157 5.91107 5.71766 5.80858C6.23066 5.60327 6.85501 5.5 7.25 5.5C7.64499 5.5 8.26934 5.60327 8.78234 5.80858C9.03843 5.91107 9.23527 6.02668 9.36006 6.14174C9.48145 6.25367 9.5 6.33007 9.5 6.375V7H5V6.375ZM0.5 6.25C0.5 6.14248 0.549888 6.01138 0.722021 5.85263C0.897569 5.69074 1.16469 5.53607 1.49889 5.40234C2.1599 5.13782 2.96009 5.00331 3.48077 5.00006C3.09814 5.49434 3 6.0053 3 6.375V7H0.5V6.25Z" stroke="black" stroke-opacity="0.7" stroke-linejoin="round"/>
</svg>
