<svg width="104" height="84" viewBox="0 0 104 84" fill="none" xmlns="http://www.w3.org/2000/svg">
<rect x="42.3125" width="59.2131" height="59.2131" rx="5" transform="rotate(45 42.3125 0)" fill="#2673E5" fill-opacity="0.1"/>
<g clip-path="url(#clip0_1151_23845)">
<path d="M94.5236 36.9H91.1936V26.87C91.1936 26.45 90.8536 26.1 90.4236 26.1H71.7836V21H75.1136C77.4036 21 79.2736 19.14 79.2736 16.84V8.65C79.2736 6.36 77.4036 4.5 75.1136 4.5H66.9236C64.6336 4.5 62.7736 6.36 62.7736 8.65V16.85C62.7736 19.14 64.6336 21.01 66.9236 21.01H70.2536V26.11H51.6036C51.1836 26.11 50.8336 26.45 50.8336 26.88V36.91H47.5036C45.2136 36.91 43.3436 38.77 43.3436 41.06V49.25C43.3436 51.54 45.2036 53.41 47.5036 53.41H50.8336V56.91H32.1936C31.7736 56.91 31.4236 57.25 31.4236 57.68V62.83H28.0936C25.8036 62.83 23.9336 64.69 23.9336 66.99V75.18C23.9336 77.47 25.8036 79.33 28.0936 79.33H36.2936C38.5836 79.33 40.4536 77.47 40.4536 75.18V66.99C40.4536 64.7 38.5836 62.83 36.2936 62.83H32.9636V58.45H70.2436V62.83H66.9136C64.6236 62.83 62.7636 64.69 62.7636 66.99V75.18C62.7636 77.47 64.6236 79.33 66.9136 79.33H75.1036C77.3936 79.33 79.2636 77.47 79.2636 75.18V66.99C79.2636 64.7 77.3936 62.83 75.1036 62.83H71.7736V57.68C71.7736 57.26 71.4336 56.91 71.0036 56.91H52.3736V53.41H55.7036C57.9936 53.41 59.8636 51.55 59.8636 49.25V41.06C59.8636 38.77 58.0036 36.91 55.7036 36.91H52.3736V27.65H89.6536V36.91H86.3336C84.0436 36.91 82.1736 38.77 82.1736 41.06V49.25C82.1736 51.54 84.0436 53.41 86.3336 53.41H94.5236C96.8136 53.41 98.6736 51.55 98.6736 49.25V41.06C98.6736 38.77 96.8136 36.91 94.5236 36.91V36.9ZM64.2936 16.85V8.66C64.2936 7.21 65.4736 6.04 66.9136 6.04H75.1036C76.5536 6.04 77.7236 7.22 77.7236 8.66V16.85C77.7236 18.3 76.5436 19.47 75.1036 19.47H66.9136C65.4636 19.47 64.2936 18.29 64.2936 16.85ZM38.9136 66.97V75.16C38.9136 76.61 37.7336 77.78 36.2936 77.78H28.1036C26.6536 77.78 25.4836 76.6 25.4836 75.16V66.97C25.4836 65.52 26.6636 64.35 28.1036 64.35H36.2936C37.7436 64.35 38.9136 65.53 38.9136 66.97ZM77.7336 66.97V75.16C77.7336 76.61 76.5536 77.78 75.1136 77.78H66.9236C65.4736 77.78 64.3036 76.6 64.3036 75.16V66.97C64.3036 65.52 65.4836 64.35 66.9236 64.35H75.1136C76.5636 64.35 77.7336 65.53 77.7336 66.97ZM58.3236 41.05V49.24C58.3236 50.69 57.1436 51.86 55.7036 51.86H47.5136C46.0636 51.86 44.8936 50.68 44.8936 49.24V41.05C44.8936 39.6 46.0736 38.43 47.5136 38.43H55.7036C57.1536 38.43 58.3236 39.61 58.3236 41.05ZM97.1436 49.24C97.1436 50.69 95.9636 51.86 94.5236 51.86H86.3336C84.8836 51.86 83.7036 50.68 83.7036 49.24V41.05C83.7036 39.6 84.8836 38.43 86.3336 38.43H94.5236C95.9636 38.43 97.1436 39.61 97.1436 41.05V49.24Z" fill="#2673E5" stroke="#2673E5" stroke-width="1.5" stroke-miterlimit="10"/>
</g>
<defs>
<clipPath id="clip0_1151_23845">
<rect width="84" height="84" fill="white" transform="matrix(-1 0 0 1 103.559 0)"/>
</clipPath>
</defs>
</svg>
