<svg xmlns="http://www.w3.org/2000/svg" width="852" height="480" viewBox="0 0 852 480" fill="none">
<rect y="0.75" width="852" height="479.25" fill="#D9D9D9"/>

<g clip-path="url(#clip0_5423_47219)">
<path d="M451 206.667H451.083" stroke="#FAFAFC" stroke-width="8" stroke-linecap="round" stroke-linejoin="round"/>
<path d="M467.669 173.333H384.336C370.529 173.333 359.336 184.526 359.336 198.333V281.667C359.336 295.474 370.529 306.667 384.336 306.667H467.669C481.476 306.667 492.669 295.474 492.669 281.667V198.333C492.669 184.526 481.476 173.333 467.669 173.333Z" stroke="#FAFAFC" stroke-width="8" stroke-linecap="round" stroke-linejoin="round"/>
<path d="M359.336 265L392.669 231.667C396.47 228.01 400.781 226.084 405.169 226.084C409.558 226.084 413.869 228.01 417.669 231.667L459.336 273.333" stroke="#FAFAFC" stroke-width="8" stroke-linecap="round" stroke-linejoin="round"/>
<path d="M442.664 256.667L450.997 248.333C454.798 244.676 459.109 242.751 463.497 242.751C467.886 242.751 472.197 244.676 475.997 248.333L492.664 265" stroke="#FAFAFC" stroke-width="8" stroke-linecap="round" stroke-linejoin="round"/>
</g>
<defs>
<clipPath id="clip0_5423_47219">
<rect width="200" height="200" fill="white" transform="translate(326 140)"/>
</clipPath>
</defs>
</svg>