<svg xmlns="http://www.w3.org/2000/svg" width="394" height="395" viewBox="0 0 394 395" fill="none">
<rect y="0.25" width="394" height="394" fill="#D9D9D9"/>
<g clip-path="url(#clip0_5358_47018)">
<path d="M222 163.667H222.083" stroke="#FAFAFC" stroke-width="8" stroke-linecap="round" stroke-linejoin="round"/>
<path d="M238.669 130.333H155.336C141.529 130.333 130.336 141.526 130.336 155.333V238.667C130.336 252.474 141.529 263.667 155.336 263.667H238.669C252.476 263.667 263.669 252.474 263.669 238.667V155.333C263.669 141.526 252.476 130.333 238.669 130.333Z" stroke="#FAFAFC" stroke-width="8" stroke-linecap="round" stroke-linejoin="round"/>
<path d="M130.336 222L163.669 188.667C167.47 185.009 171.781 183.084 176.169 183.084C180.558 183.084 184.869 185.009 188.669 188.667L230.336 230.333" stroke="#FAFAFC" stroke-width="8" stroke-linecap="round" stroke-linejoin="round"/>
<path d="M213.664 213.667L221.997 205.333C225.798 201.676 230.109 199.751 234.497 199.751C238.886 199.751 243.197 201.676 246.997 205.333L263.664 222" stroke="#FAFAFC" stroke-width="8" stroke-linecap="round" stroke-linejoin="round"/>
</g>
<rect x="458" y="0.25" width="394" height="394" fill="#D9D9D9"/>
</svg>