<svg width="852" height="480" viewBox="0 0 852 480" fill="none" xmlns="http://www.w3.org/2000/svg">
<rect width="852" height="479.25" fill="#D9D9D9"/>
<g clip-path="url(#clip0_5423_47231)">
<path d="M451 223.333L488.942 204.367C490.212 203.732 491.623 203.432 493.042 203.496C494.46 203.56 495.839 203.985 497.047 204.732C498.255 205.478 499.252 206.521 499.944 207.761C500.636 209.001 500.999 210.397 501 211.817V268.183C500.999 269.603 500.636 270.999 499.944 272.239C499.252 273.479 498.255 274.522 497.047 275.268C495.839 276.015 494.46 276.44 493.042 276.504C491.623 276.568 490.212 276.268 488.942 275.633L451 256.667V223.333Z" stroke="#FAFAFC" stroke-width="8" stroke-linecap="round" stroke-linejoin="round"/>
<path d="M434.333 190H367.667C358.462 190 351 197.462 351 206.667V273.333C351 282.538 358.462 290 367.667 290H434.333C443.538 290 451 282.538 451 273.333V206.667C451 197.462 443.538 190 434.333 190Z" stroke="#FAFAFC" stroke-width="8" stroke-linecap="round" stroke-linejoin="round"/>
</g>
<defs>
<clipPath id="clip0_5423_47231">
<rect width="200" height="200" fill="white" transform="translate(326 140)"/>
</clipPath>
</defs>
</svg>
