<svg width="6" height="10" viewBox="0 0 6 10" fill="none" xmlns="http://www.w3.org/2000/svg">
<path d="M3.93987 7.77537C4.12361 7.69665 4.27881 7.59893 4.40092 7.48577C4.61569 7.28673 4.75016 7.02159 4.75016 6.65C4.75016 6.11335 4.53381 5.77895 4.19998 5.52752C3.83794 5.25485 3.33291 5.07909 2.77438 4.93392C2.19506 4.78335 1.7413 4.6144 1.42712 4.38193C1.26262 4.26021 1.12514 4.11314 1.03123 3.93239C0.93653 3.75011 0.900156 3.56051 0.900156 3.375C0.900156 2.92811 1.11543 2.54904 1.47059 2.29918C1.47609 2.29532 1.48161 2.29148 1.48716 2.28768C1.01526 2.53744 0.750156 2.92705 0.750156 3.385C0.750156 3.79797 0.909611 4.09112 1.21409 4.33433C1.54221 4.59643 2.04551 4.80259 2.71684 4.96381L3.93987 7.77537ZM3.93987 7.77537C4.02588 7.7244 4.10432 7.66666 4.17523 7.60242C4.49744 7.31051 4.60016 6.94207 4.60016 6.655C4.60016 6.31476 4.50074 5.94532 4.16136 5.62631C3.84956 5.33322 3.37524 5.12183 2.71691 4.96382L3.93987 7.77537ZM3.00016 1.595V1.9603C2.9189 1.95335 2.83548 1.95 2.75016 1.95C2.66546 1.95 2.58201 1.95326 2.50016 1.9599V1.58V1H3.00016V1.595ZM4.42075 3C4.3581 2.79376 4.25425 2.59681 4.09217 2.42774C4.2811 2.58721 4.41576 2.78332 4.49987 3H4.42075ZM3.00016 8.425V9H2.50016V8.415V8.04156C2.58129 8.04721 2.66466 8.05 2.75016 8.05C2.83643 8.05 2.91976 8.04706 3.00016 8.04124V8.425ZM1.22077 7.54336C1.02938 7.397 0.880075 7.21579 0.783295 7H0.864921C0.93934 7.19713 1.05458 7.38315 1.22077 7.54336Z" stroke="black" stroke-opacity="0.7"/>
</svg>
