<svg width="296" height="280" viewBox="0 0 296 280" fill="none" xmlns="http://www.w3.org/2000/svg">
<path d="M295.715 246.314H0V246.487H295.715V246.314Z" fill="#ECECEC"/>
<path d="M50.6153 252.887H31.0273V253.059H50.6153V252.887Z" fill="#ECECEC"/>
<path d="M126.37 251.018H101.217V251.19H126.37V251.018Z" fill="#ECECEC"/>
<path d="M66.6287 255.312H55.2793V255.485H66.6287V255.312Z" fill="#ECECEC"/>
<path d="M266.084 258.143H257.076V258.315H266.084V258.143Z" fill="#ECECEC"/>
<path d="M251.805 258.143H231.525V258.315H251.805V258.143Z" fill="#ECECEC"/>
<path d="M196.254 253.172H182.16V253.345H196.254V253.172Z" fill="#ECECEC"/>
<path d="M295.085 5.19141H39.2461V233.182H295.085V5.19141Z" fill="#E1E1E1"/>
<path d="M290.446 24.6953H34.6074V233.182H290.446V24.6953Z" fill="#F5F5F5"/>
<path d="M252.593 59.7383H68.6992V198.155H252.593V59.7383Z" fill="white"/>
<path d="M0.864063 233.191H34.6074L34.6074 24.7048H0.864063L0.864063 233.191Z" fill="#F0F0F0"/>
<path d="M0.864063 37.9746L34.6074 37.9746V24.7034L0.864063 24.7034V37.9746Z" fill="#ECECEC"/>
<path d="M0.864838 24.7031L290.449 24.7031V5.19864L0.864838 5.19864V24.7031Z" fill="#E7E7E7"/>
<path d="M34.604 32.832L112.535 32.832V24.7052L34.604 24.7052V32.832Z" fill="#FAFAFA"/>
<path d="M190.466 24.6953H112.535V32.8222H190.466V24.6953Z" fill="#ECECEC"/>
<path d="M15.2047 40.6816H3.39453V52.6281H15.2047V40.6816Z" fill="#E7E7E7"/>
<path d="M32.0738 40.6816H20.2637V52.6281H32.0738V40.6816Z" fill="#E7E7E7"/>
<path d="M20.2621 69.6953H32.0723V57.7488H20.2621V69.6953Z" fill="#E7E7E7"/>
<path d="M3.3949 69.6953H15.2051L15.2051 57.7488H3.3949L3.3949 69.6953Z" fill="#E7E7E7"/>
<path d="M15.2047 74.8145H3.39453V86.7609H15.2047V74.8145Z" fill="#E7E7E7"/>
<path d="M32.0738 74.8145H20.2637V86.7609H32.0738V74.8145Z" fill="#E7E7E7"/>
<path d="M20.2621 103.826H32.0723V91.8797H20.2621V103.826Z" fill="#E7E7E7"/>
<path d="M3.3949 103.826H15.2051L15.2051 91.8797H3.3949L3.3949 103.826Z" fill="#E7E7E7"/>
<path d="M15.2047 108.945H3.39453V120.892H15.2047V108.945Z" fill="#E7E7E7"/>
<path d="M32.0738 108.945H20.2637V120.892H32.0738V108.945Z" fill="#E7E7E7"/>
<path d="M20.2621 137.959H32.0723V126.012H20.2621V137.959Z" fill="#E7E7E7"/>
<path d="M3.3949 137.959H15.2051L15.2051 126.012H3.3949L3.3949 137.959Z" fill="#E7E7E7"/>
<path d="M3.3921 184.533H10.6309V177.211H3.3921L3.3921 184.533Z" fill="#E7E7E7"/>
<path d="M24.8335 184.533H32.0723V177.211H24.8335V184.533Z" fill="#E7E7E7"/>
<path d="M14.1128 184.533H21.3516V177.211H14.1128V184.533Z" fill="#E7E7E7"/>
<path d="M14.4454 172.02H32L32 154.262H14.4454L14.4454 172.02Z" fill="#E7E7E7"/>
<path d="M3.38877 160.838H20.9434L20.9434 143.081H3.38877L3.38877 160.838Z" fill="white"/>
<path d="M229.587 110.944C232.194 94.6981 221.287 79.3902 205.227 76.7531C189.166 74.116 174.033 85.1483 171.426 101.394C168.818 117.64 179.725 132.948 195.786 135.585C211.846 138.223 226.98 127.19 229.587 110.944Z" fill="#F5F5F5"/>
<path d="M210.164 177.217V126.018H190.826V177.217H210.164Z" fill="#F5F5F5"/>
<path d="M149.384 280C230.357 280 295.999 276.418 295.999 272C295.999 267.582 230.357 264 149.384 264C68.4112 264 2.76953 267.582 2.76953 272C2.76953 276.418 68.4112 280 149.384 280Z" fill="#F5F5F5" fill-opacity="0.5"/>
<path d="M188.291 140.95L165.172 164.217C165.172 164.217 150.927 148.139 132.061 149.954C125.082 134.542 117.114 101.704 114.918 92.3377L146.396 124.017C145.384 125.874 145.662 128.249 147.229 129.818C149.131 131.732 152.201 131.732 154.103 129.818C156.005 127.903 156.013 124.806 154.111 122.892C152.552 121.323 150.184 121.052 148.339 122.07L116.861 90.3906C126.175 92.6006 158.805 100.619 174.111 107.644C172.315 126.614 188.291 140.958 188.291 140.958V140.95Z" fill="#2673E5" fill-opacity="0.8"/>
<path opacity="0.2" d="M174.11 107.644C158.804 100.619 126.166 92.6006 116.852 90.3906L148.33 122.07C150.183 121.052 152.542 121.323 154.11 122.9C156.004 124.806 155.995 127.912 154.093 129.826L176.723 152.6L188.282 140.966C188.282 140.966 172.306 126.63 174.11 107.66V107.644Z" fill="black"/>
<path d="M252.062 228.414C248.005 232.497 241.368 232.497 237.319 228.414L169.529 160.191L184.273 145.354L252.062 213.577C256.119 217.66 256.119 224.339 252.062 228.414Z" fill="#2673E5" fill-opacity="0.8"/>
<path opacity="0.7" d="M252.062 228.414C248.005 232.497 241.368 232.497 237.319 228.414L169.529 160.191L184.273 145.354L252.062 213.577C256.119 217.66 256.119 224.339 252.062 228.414Z" fill="white"/>
<path d="M184.991 144.629L168.828 160.896C167.894 161.836 167.894 163.36 168.828 164.3L172.915 168.413C173.849 169.353 175.364 169.353 176.298 168.413L192.461 152.147C193.395 151.207 193.395 149.682 192.461 148.742L188.374 144.629C187.44 143.689 185.925 143.689 184.991 144.629Z" fill="#2673E5" fill-opacity="0.8"/>
<path d="M184.262 137.138L161.385 160.16C160.263 161.29 160.263 163.121 161.385 164.25L165.143 168.032C166.265 169.161 168.085 169.161 169.207 168.032L192.083 145.009C193.206 143.88 193.206 142.049 192.083 140.92L188.326 137.138C187.203 136.008 185.384 136.008 184.262 137.138Z" fill="#2673E5" fill-opacity="0.8"/>
<path opacity="0.4" d="M184.262 137.138L161.385 160.16C160.263 161.29 160.263 163.121 161.385 164.25L165.143 168.032C166.265 169.161 168.085 169.161 169.207 168.032L192.083 145.009C193.206 143.88 193.206 142.049 192.083 140.92L188.326 137.138C187.203 136.008 185.384 136.008 184.262 137.138Z" fill="black"/>
<path d="M167.904 153.595L164.613 156.906L172.435 164.778L175.725 161.467L167.904 153.595Z" fill="white"/>
<path d="M177.94 159.244L179.291 157.885L171.469 150.013L170.119 151.372L177.94 159.244Z" fill="white"/>
<path d="M109.589 239.01C67.4 196.552 67.4 127.474 109.589 85.0237C151.778 42.565 220.416 42.565 262.605 85.0237L261.356 86.2807C219.861 44.5204 152.341 44.5204 110.846 86.2807C69.3511 128.041 69.3511 195.993 110.846 237.753L109.597 239.01H109.589Z" fill="#2673E5" fill-opacity="0.8"/>
<path d="M185.463 8.66229L33.7051 161.391L34.9577 162.651L186.716 9.92293L185.463 8.66229Z" fill="#2673E5" fill-opacity="0.8"/>
<path d="M110.203 74.2398L98.8672 85.6504L110.203 97.061L121.539 85.6504L110.203 74.2398Z" fill="white"/>
<path d="M110.209 98.3224L97.6211 85.6456L110.209 72.9688L122.805 85.6456L110.209 98.3224ZM100.119 85.6456L110.209 95.8002L120.299 85.6456L110.209 75.491L100.119 85.6456Z" fill="#2673E5" fill-opacity="0.8"/>
<path d="M110.203 226.974L98.8672 238.385L110.203 249.795L121.539 238.385L110.203 226.974Z" fill="white"/>
<path d="M110.207 251.057L97.6191 238.38L110.207 225.703L122.803 238.38L110.207 251.057ZM100.117 238.38L110.207 248.535L120.297 238.38L110.207 228.225L100.117 238.38Z" fill="#2673E5" fill-opacity="0.8"/>
<path d="M262.302 73.9087L250.967 85.3203L262.302 96.7319L273.637 85.3203L262.302 73.9087Z" fill="white"/>
<path d="M262.309 97.9962L249.713 85.3194L262.309 72.6426L274.905 85.3194L262.309 97.9962ZM252.219 85.3194L262.309 95.474L272.399 85.3194L262.309 75.1648L252.219 85.3194Z" fill="#2673E5" fill-opacity="0.8"/>
<path d="M192.093 3.25479C195.227 6.40962 195.227 11.5116 192.093 14.6664C188.958 17.8212 183.888 17.8212 180.753 14.6664C177.619 11.5116 177.619 6.40962 180.753 3.25479C183.888 0.0999655 188.958 0.0999655 192.093 3.25479Z" fill="white"/>
<path d="M186.429 17.9184C184.054 17.9184 181.817 16.99 180.135 15.2976C176.666 11.8059 176.666 6.12069 180.135 2.62081C181.817 0.928374 184.054 0 186.429 0C188.805 0 191.042 0.928374 192.723 2.62081C194.405 4.31324 195.328 6.56434 195.328 8.9551C195.328 11.3459 194.405 13.597 192.723 15.2894C191.042 16.9818 188.805 17.9102 186.429 17.9102V17.9184ZM186.429 1.7828C184.527 1.7828 182.731 2.53043 181.384 3.88602C178.601 6.68757 178.601 11.2391 181.384 14.0406C184.168 16.8422 188.691 16.8422 191.474 14.0406C192.821 12.685 193.564 10.8858 193.564 8.96332C193.564 7.04085 192.821 5.24161 191.474 3.88602C190.127 2.53043 188.34 1.7828 186.429 1.7828Z" fill="#2673E5" fill-opacity="0.8"/>
<path d="M39.9988 156.311C43.1335 159.466 43.1335 164.568 39.9988 167.723C36.864 170.878 31.7945 170.878 28.6597 167.723C25.5249 164.568 25.5249 159.466 28.6597 156.311C31.7945 153.157 36.864 153.157 39.9988 156.311Z" fill="white"/>
<path d="M34.3278 170.975C32.0502 170.975 29.7644 170.104 28.0338 168.354C24.5643 164.862 24.5643 159.177 28.0338 155.677C31.5032 152.186 37.1524 152.186 40.63 155.677C44.0995 159.169 44.0995 164.854 40.63 168.354C38.8912 170.104 36.6136 170.975 34.336 170.975H34.3278ZM34.3278 154.848C32.4992 154.848 30.6787 155.546 29.2828 156.943C26.499 159.744 26.499 164.296 29.2828 167.097C32.0665 169.899 36.5891 169.899 39.3728 167.097C42.1566 164.296 42.1566 159.744 39.3728 156.943C37.985 155.546 36.1564 154.848 34.3278 154.848Z" fill="#2673E5" fill-opacity="0.8"/>
</svg>
