<svg width="296" height="250" viewBox="0 0 296 250" fill="none" xmlns="http://www.w3.org/2000/svg">
<g clip-path="url(#clip0_1747_36040)">
<path d="M282.046 230.43H259.836V230.6H282.046V230.43Z" fill="#ECECEC"/>
<path d="M202.465 232.25H196.635V232.42H202.465V232.25Z" fill="#ECECEC"/>
<path d="M259.165 224.211H246.295V224.381H259.165V224.211Z" fill="#ECECEC"/>
<path d="M44.5049 225.33H15.5449V225.5H44.5049V225.33Z" fill="#ECECEC"/>
<path d="M54.7246 225.33H50.4746V225.5H54.7246V225.33Z" fill="#ECECEC"/>
<path d="M131.335 228.16H68.5254V228.33H131.335V228.16Z" fill="#ECECEC"/>
<path d="M140.226 189.74H10.746C8.63602 189.74 6.91602 188.02 6.91602 185.91V3.90008C6.91602 1.79008 8.63602 0.0800781 10.746 0.0800781H140.226C142.336 0.0800781 144.056 1.80008 144.056 3.91008V185.91C144.056 188.02 142.336 189.74 140.226 189.74ZM10.746 0.250078C8.72602 0.250078 7.08602 1.89008 7.08602 3.91008V185.91C7.08602 187.93 8.72602 189.57 10.746 189.57H140.226C142.246 189.57 143.886 187.93 143.886 185.91V3.90008C143.886 1.88008 142.246 0.240078 140.226 0.240078H10.746V0.250078Z" fill="#ECECEC"/>
<path d="M285.255 189.66H155.775C153.665 189.66 151.945 187.94 151.945 185.83V3.83C151.945 1.72 153.665 0 155.775 0H285.255C287.365 0 289.085 1.72 289.085 3.83V185.83C289.085 187.94 287.365 189.66 285.255 189.66ZM155.775 0.17C153.755 0.17 152.115 1.81 152.115 3.83V185.83C152.115 187.85 153.755 189.49 155.775 189.49H285.255C287.275 189.49 288.915 187.85 288.915 185.83V3.83C288.915 1.81 287.275 0.17 285.255 0.17H155.775Z" fill="#ECECEC"/>
<path d="M295.965 219.641H0.0351562V219.811H295.965V219.641Z" fill="#ECECEC"/>
<path d="M254.534 76.6797C244.524 76.6797 236.414 84.7897 236.414 94.7997C236.414 104.1 243.414 111.76 252.424 112.81C253.114 112.89 253.814 112.93 254.534 112.93C255.494 112.93 256.434 112.86 257.354 112.72C266.014 111.36 272.644 103.86 272.644 94.7997C272.644 84.7897 264.534 76.6797 254.534 76.6797ZM254.534 107.65C247.374 107.65 241.564 101.85 241.564 94.6797C241.564 87.5097 247.374 81.7197 254.534 81.7197C261.694 81.7197 267.484 87.5197 267.484 94.6797C267.484 101.84 261.674 107.65 254.534 107.65Z" fill="#F5F5F5"/>
<path d="M254.534 76.6797C244.524 76.6797 236.414 84.7897 236.414 94.7997C236.414 104.1 243.414 111.76 252.424 112.81C253.114 112.89 253.814 112.93 254.534 112.93C255.494 112.93 256.434 112.86 257.354 112.72C266.014 111.36 272.644 103.86 272.644 94.7997C272.644 84.7897 264.534 76.6797 254.534 76.6797ZM254.534 107.65C247.374 107.65 241.564 101.85 241.564 94.6797C241.564 87.5097 247.374 81.7197 254.534 81.7197C261.694 81.7197 267.484 87.5197 267.484 94.6797C267.484 101.84 261.674 107.65 254.534 107.65Z" fill="#E7E7E7"/>
<path d="M250.595 137.65H259.875V134.65H250.595V137.65Z" fill="#F0F0F0"/>
<path d="M250.595 137.65H259.875V134.65H250.595V137.65Z" fill="#F0F0F0"/>
<path d="M256.715 137.179V137.649L255.985 219.979H253.865L253.145 137.649V137.179C253.365 136.669 253.585 136.279 253.805 135.989C254.615 134.909 255.345 135.229 255.885 135.809C256.405 136.369 256.735 137.169 256.735 137.169L256.715 137.179Z" fill="#F0F0F0"/>
<path d="M273.774 219.98H271.364C269.564 209.51 259.134 147.19 257.544 137.65C257.404 136.85 257.334 136.42 257.334 136.42C257.334 136.42 257.544 135.21 258.124 134.64C258.454 134.31 258.914 134.2 259.524 134.64C259.624 134.72 259.744 134.81 259.854 134.93C260.004 135.08 260.164 135.26 260.334 135.48C260.334 135.48 269.294 193.7 273.754 219.98H273.774Z" fill="#F0F0F0"/>
<path d="M252.424 136.419C252.424 136.419 252.354 136.849 252.224 137.649C250.624 147.189 240.194 209.509 238.394 219.979H235.984C240.454 193.699 249.404 135.479 249.404 135.479C250.444 134.139 251.144 134.179 251.624 134.639C252.214 135.209 252.414 136.419 252.414 136.419H252.424Z" fill="#F0F0F0"/>
<path d="M257.765 122.01H259.475V119.74H257.765V122.01Z" fill="#F0F0F0"/>
<path d="M255.865 121.471H258.945V120.351H255.865V121.471Z" fill="#F0F0F0"/>
<path d="M251.415 122.619H249.705V124.889H251.415V122.619Z" fill="#F0F0F0"/>
<path d="M253.305 123.229H250.225V124.349H253.305V123.229Z" fill="#F0F0F0"/>
<path d="M259.034 115.639H260.744V113.369H259.034V115.639Z" fill="#F0F0F0"/>
<path d="M257.145 115.02H260.225V113.9H257.145V115.02Z" fill="#F0F0F0"/>
<path d="M253.785 145.641H255.865V120.001H253.785V145.641Z" fill="#F0F0F0"/>
<path d="M252.944 130.471H256.824V127.021H252.944V130.471Z" fill="#F0F0F0"/>
<path d="M254.215 119.74H255.545V115.6H254.215V119.74Z" fill="#F0F0F0"/>
<path d="M253.264 125.499H256.504V119.059C256.504 118.159 255.774 117.439 254.884 117.439C253.984 117.439 253.264 118.169 253.264 119.059V125.499Z" fill="#F0F0F0"/>
<path d="M252.365 126.939H257.445V125.499H252.365V126.939Z" fill="#F0F0F0"/>
<path d="M252.414 116.23H257.354V112.67H252.414V116.23Z" fill="#F0F0F0"/>
<path d="M254.695 111.96C245.185 111.96 237.455 104.23 237.455 94.7205C237.455 85.2105 245.185 77.4805 254.695 77.4805C264.205 77.4805 271.935 85.2105 271.935 94.7205C271.935 104.23 264.205 111.96 254.695 111.96ZM254.695 80.8705C247.055 80.8705 240.845 87.0805 240.845 94.7205C240.845 102.36 247.055 108.57 254.695 108.57C262.335 108.57 268.545 102.36 268.545 94.7205C268.545 87.0805 262.335 80.8705 254.695 80.8705Z" fill="#FAFAFA"/>
<path d="M70.9446 31.3789H22.9746V107.069H70.9446V31.3789Z" fill="#F5F5F5"/>
<path d="M48.7337 180.209L47.7437 209.729H46.5837L45.5938 180.209H48.7337Z" fill="#F0F0F0"/>
<path d="M51.4141 190.189L50.5841 187.879H44.5741L42.9141 190.189H51.4141Z" fill="#F0F0F0"/>
<path d="M58.1457 197.748L56.6657 199.418L48.7357 208.278H48.1357H48.0757H46.2557H46.1957H45.5957L46.1757 207.628L46.2557 207.538L47.1657 206.518L48.0757 205.498L48.2357 205.328L48.7357 204.768L55.2957 197.428L56.7357 195.818H56.9257L58.1457 197.748Z" fill="#F0F0F0"/>
<path d="M36.1855 197.748L37.6255 199.358L45.5955 208.278H48.7355V208.268L48.1555 207.618L48.0755 207.538L47.1655 206.518L46.2555 205.498L46.1055 205.328L45.5955 204.758L38.9955 197.388L37.5955 195.818H37.4055L36.1855 197.748Z" fill="#F0F0F0"/>
<path d="M48.0742 202.948L48.0742 80.3984H46.2542L46.2542 202.948H48.0742Z" fill="#F0F0F0"/>
<path opacity="0.2" d="M48.0739 87.8281H46.2539V202.948H48.0739V87.8281Z" fill="#F0F0F0"/>
<path d="M22.2246 219.719H23.4846L37.6246 199.359L38.9946 197.389L43.9846 190.199L45.5946 187.889H43.3646C42.7946 187.889 42.2746 188.169 41.9746 188.649L37.4146 195.829L36.1946 197.759L22.2446 219.729L22.2246 219.719Z" fill="#F0F0F0"/>
<path d="M72.1041 219.719L52.3641 188.649C52.0641 188.169 51.5341 187.879 50.9741 187.879H48.7441L70.6141 219.719H72.1041Z" fill="#F0F0F0"/>
<path d="M44.455 87.8184H49.875V80.3884H44.455V87.8184Z" fill="#F0F0F0"/>
<path opacity="0.3" d="M44.455 87.8184H49.875V80.3884H44.455V87.8184Z" fill="#F0F0F0"/>
<path d="M45.5944 202.949H48.7344L48.7344 145.389H45.5944L45.5944 202.949Z" fill="#F0F0F0"/>
<path d="M71.9453 108.579L22.4453 108.729V28.4191L71.9453 28.1191V108.579Z" fill="#E7E7E7"/>
<path d="M70.0748 30.5195H24.2148V106.33H70.0748V30.5195Z" fill="#FAFAFA"/>
<path d="M148.006 249.549C219.809 249.549 278.016 246.151 278.016 241.959C278.016 237.767 219.809 234.369 148.006 234.369C76.2036 234.369 17.9961 237.767 17.9961 241.959C17.9961 246.151 76.2036 249.549 148.006 249.549Z" fill="#F5F5F5"/>
<path d="M149.264 94.8909C149.374 100.041 148.754 109.011 144.674 111.761C146.784 114.821 149.644 118.161 155.294 118.961C159.614 119.581 160.904 115.971 160.234 114.151C154.884 111.901 155.754 108.301 157.404 104.581L149.274 94.8809L149.264 94.8909Z" fill="#903C38"/>
<path opacity="0.2" d="M152.574 98.8496L157.384 104.59C156.994 105.47 156.644 106.37 156.424 107.26C154.344 106.6 151.824 103.79 151.984 101.52C152.064 100.39 152.294 99.3296 152.574 98.8496Z" fill="black"/>
<path d="M167.194 83.1998C168.224 85.7998 168.164 91.2998 164.324 89.7898C160.474 88.2898 165.424 78.7298 167.194 83.1998Z" fill="#1A2E35"/>
<path d="M148.294 88.2006C148.384 95.0706 148.094 99.0906 151.394 102.741C156.354 108.231 164.984 105.411 166.944 98.6406C168.714 92.5406 168.264 82.3306 161.674 79.3506C155.184 76.4106 148.204 81.3306 148.294 88.2006Z" fill="#903C38"/>
<path d="M164.615 83.6102C169.385 83.1302 172.325 77.8702 166.235 73.9102C164.645 72.8702 163.705 74.1002 162.775 75.3402C162.325 75.9302 161.695 76.3602 160.975 76.5402C159.615 76.8902 157.275 77.3502 155.715 76.8002C152.195 75.5702 144.985 77.2602 145.675 81.5302C143.755 82.3002 143.055 90.0302 149.355 93.0302C152.475 90.1302 151.625 83.7702 151.625 83.7702C154.605 83.9202 160.295 84.0502 164.615 83.6102Z" fill="#1A2E35"/>
<path d="M145.374 93.7792C145.834 95.5692 147.084 96.9692 148.414 97.7092C150.404 98.8192 151.964 97.1592 151.874 94.9892C151.794 93.0392 150.654 90.1092 148.434 89.8892C146.244 89.6692 144.854 91.7292 145.384 93.7792H145.374Z" fill="#903C38"/>
<path d="M164.844 90.6599C164.814 91.2199 165.094 91.6799 165.454 91.6999C165.824 91.7099 166.134 91.2699 166.164 90.7199C166.194 90.1599 165.914 89.6999 165.554 89.6799C165.184 89.6699 164.874 90.1099 164.844 90.6599Z" fill="#1A2E35"/>
<path d="M160.475 91.1196C160.475 91.1196 160.555 91.0896 160.585 91.0496C160.625 90.9896 160.615 90.9096 160.575 90.8596C160.155 90.3596 159.645 89.9396 159.075 89.6196C158.995 89.5796 158.895 89.5996 158.855 89.6796C158.815 89.7596 158.835 89.8596 158.915 89.8996C159.325 90.1296 159.695 90.4096 160.025 90.7396C159.685 90.7296 159.335 90.7796 158.935 90.9096C158.855 90.9396 158.805 91.0296 158.835 91.1096C158.865 91.1996 158.955 91.2396 159.035 91.2096C159.555 91.0396 159.985 91.0096 160.405 91.1096C160.425 91.1096 160.455 91.1096 160.475 91.1096V91.1196Z" fill="#1A2E35"/>
<path d="M163.164 91.0002C163.164 91.0002 164.454 94.0902 165.864 95.5902C164.884 96.4702 163.204 96.0502 163.204 96.0502L163.164 90.9902V91.0002Z" fill="#740606"/>
<path d="M161.434 98.6805C161.664 98.7205 161.904 98.7505 162.164 98.7605C162.254 98.7605 162.334 98.6905 162.334 98.6005C162.334 98.5105 162.264 98.4305 162.174 98.4305C159.714 98.3305 158.654 96.5805 158.644 96.5605C158.594 96.4805 158.494 96.4605 158.424 96.5005C158.344 96.5505 158.324 96.6505 158.364 96.7305C158.404 96.8005 159.324 98.3105 161.434 98.6805Z" fill="#1A2E35"/>
<path d="M157.214 88.1998C157.294 88.2798 157.414 88.3198 157.534 88.2898C158.964 87.9298 159.864 88.7398 159.874 88.7398C160.004 88.8598 160.214 88.8498 160.344 88.7198C160.464 88.5898 160.454 88.3798 160.324 88.2598C160.274 88.2198 159.144 87.2098 157.374 87.6498C157.194 87.6898 157.094 87.8698 157.134 88.0498C157.144 88.1098 157.174 88.1598 157.214 88.1898V88.1998Z" fill="#1A2E35"/>
<path d="M167.325 88.141C167.325 88.141 167.415 88.051 167.435 87.981C167.495 87.811 167.395 87.621 167.225 87.561C165.505 87.001 164.335 87.951 164.275 87.991C164.135 88.101 164.115 88.311 164.225 88.451C164.335 88.591 164.545 88.611 164.685 88.501C164.735 88.461 165.645 87.741 167.025 88.181C167.135 88.221 167.245 88.191 167.325 88.121V88.141Z" fill="#1A2E35"/>
<path d="M170.155 115.921C164.285 114.041 150.425 111.171 134.415 108.301C134.415 108.381 131.515 109.881 131.515 109.961C131.515 110.041 131.515 109.881 131.515 109.961C128.405 112.621 127.085 117.241 129.495 120.541C129.495 120.541 131.575 163.971 132.265 163.971C132.955 163.971 150.515 172.521 166.455 165.591C167.085 165.321 167.335 151.321 168.025 140.571C168.905 126.941 170.145 115.921 170.145 115.921H170.155Z" fill="#2673E5"/>
<path opacity="0.2" d="M129.314 118.34L130.034 132.2L136.724 115.23C136.724 115.23 133.854 120.49 129.314 118.34Z" fill="black"/>
<path d="M110.835 108.43L130.235 122.09C130.235 122.09 135.045 121.68 137.375 114.11L138.095 110.77C138.095 110.77 119.265 97.2 117.025 96.59C109.405 94.51 105.905 104.43 110.835 108.43Z" fill="#2673E5"/>
<path d="M159.834 94.041H159.064V96.231H159.834V94.041Z" fill="#2673E5"/>
<path d="M159.585 98.7402H158.975V100.67H159.585V98.7402Z" fill="#2673E5"/>
<path d="M160.564 101.131V98.291L160.834 98.531V100.891L160.564 101.131Z" fill="#2673E5"/>
<path d="M160.625 98.2109H159.465V101.201H160.625V98.2109Z" fill="#2673E5"/>
<path opacity="0.4" d="M160.625 98.2109H159.465V101.201H160.625V98.2109Z" fill="white"/>
<path opacity="0.6" d="M160.565 98.9414H159.525V99.5014H160.565V98.9414Z" fill="white"/>
<path opacity="0.6" d="M160.565 99.5703H159.525V99.8503H160.565V99.5703Z" fill="white"/>
<path opacity="0.6" d="M160.565 99.9609H159.525V100.201H160.565V99.9609Z" fill="white"/>
<path opacity="0.6" d="M160.565 100.35H159.525V100.51H160.565V100.35Z" fill="white"/>
<path opacity="0.6" d="M160.565 100.82H159.525V100.9H160.565V100.82Z" fill="white"/>
<path opacity="0.6" d="M160.565 98.5703H159.525V98.8503H160.565V98.5703Z" fill="white"/>
<path opacity="0.6" d="M160.565 98.2715H159.525V98.4715H160.565V98.2715Z" fill="white"/>
<path d="M160.395 93.6406H159.465V96.6306H160.395V93.6406Z" fill="#2673E5"/>
<path opacity="0.4" d="M160.395 93.6406H159.465V96.6306H160.395V93.6406Z" fill="white"/>
<path opacity="0.6" d="M160.354 94.3711H159.514V94.9311H160.354V94.3711Z" fill="white"/>
<path opacity="0.6" d="M160.354 95H159.514V95.28H160.354V95Z" fill="white"/>
<path opacity="0.6" d="M160.354 95.3906H159.514V95.6306H160.354V95.3906Z" fill="white"/>
<path opacity="0.6" d="M160.354 95.7812H159.514V95.9413H160.354V95.7812Z" fill="white"/>
<path opacity="0.6" d="M160.354 96.25H159.514V96.33H160.354V96.25Z" fill="white"/>
<path opacity="0.6" d="M160.354 94H159.514V94.28H160.354V94Z" fill="white"/>
<path opacity="0.6" d="M160.354 93.7012H159.514V93.9012H160.354V93.7012Z" fill="white"/>
<path d="M160.424 116.09V102.42C160.424 102.01 160.094 101.68 159.684 101.68H159.324V92.0701C159.324 91.6601 158.994 91.3301 158.584 91.3301H157.234V99.7101C157.474 99.5601 158.024 99.4601 158.184 99.4601C158.394 99.4601 158.574 99.6301 158.574 99.8501C158.574 100.07 158.404 100.23 158.184 100.23C158.014 100.23 157.464 100.13 157.234 99.9801V110.25H159.214C159.524 110.25 159.784 110.5 159.784 110.82V114.31C159.784 114.62 159.534 114.88 159.214 114.88H157.234V116.82H159.684C160.094 116.82 160.424 116.49 160.424 116.08V116.09ZM157.824 106.26V102.78H159.324V106.26H157.824ZM158.074 108.17C157.914 108.17 157.784 108.04 157.784 107.88C157.784 107.72 157.914 107.59 158.074 107.59H158.994C159.154 107.59 159.284 107.72 159.284 107.88C159.284 107.96 159.254 108.03 159.194 108.09C159.144 108.14 159.064 108.18 158.984 108.18H158.064L158.074 108.17Z" fill="#2673E5"/>
<g opacity="0.5">
<path d="M160.424 116.09V102.42C160.424 102.01 160.094 101.68 159.684 101.68H159.324V92.0701C159.324 91.6601 158.994 91.3301 158.584 91.3301H157.234V99.7101C157.474 99.5601 158.024 99.4601 158.184 99.4601C158.394 99.4601 158.574 99.6301 158.574 99.8501C158.574 100.07 158.404 100.23 158.184 100.23C158.014 100.23 157.464 100.13 157.234 99.9801V110.25H159.214C159.524 110.25 159.784 110.5 159.784 110.82V114.31C159.784 114.62 159.534 114.88 159.214 114.88H157.234V116.82H159.684C160.094 116.82 160.424 116.49 160.424 116.08V116.09ZM157.824 106.26V102.78H159.324V106.26H157.824ZM158.074 108.17C157.914 108.17 157.784 108.04 157.784 107.88C157.784 107.72 157.914 107.59 158.074 107.59H158.994C159.154 107.59 159.284 107.72 159.284 107.88C159.284 107.96 159.254 108.03 159.194 108.09C159.144 108.14 159.064 108.18 158.984 108.18H158.064L158.074 108.17Z" fill="white"/>
</g>
<path d="M159.324 102.779H157.824V106.259H159.324V102.779Z" fill="#2673E5"/>
<g opacity="0.2">
<path d="M159.145 102.99H157.945V106.09H159.145V102.99Z" fill="white"/>
</g>
<path d="M158.064 107.58H158.984C159.144 107.58 159.274 107.71 159.274 107.87C159.274 107.95 159.244 108.02 159.184 108.08C159.134 108.13 159.054 108.17 158.974 108.17H158.054C157.894 108.17 157.764 108.04 157.764 107.88C157.764 107.72 157.894 107.59 158.054 107.59L158.064 107.58Z" fill="#3E4E69"/>
<path d="M157.234 116.83H146.054C145.644 116.83 145.314 116.5 145.314 116.09V92.2798C145.314 91.7598 145.734 91.3398 146.254 91.3398H157.234V99.7198C157.474 99.5698 158.024 99.4698 158.184 99.4698C158.394 99.4698 158.574 99.6398 158.574 99.8598C158.574 100.08 158.404 100.24 158.184 100.24C158.014 100.24 157.464 100.14 157.234 99.9898V110.26H159.214C159.524 110.26 159.784 110.51 159.784 110.83V114.32C159.784 114.63 159.534 114.89 159.214 114.89H157.234V116.83Z" fill="#2673E5"/>
<g opacity="0.5">
<path d="M157.234 116.83H146.054C145.644 116.83 145.314 116.5 145.314 116.09V92.2798C145.314 91.7598 145.734 91.3398 146.254 91.3398H157.234V99.7198C157.474 99.5698 158.024 99.4698 158.184 99.4698C158.394 99.4698 158.574 99.6398 158.574 99.8598C158.574 100.08 158.404 100.24 158.184 100.24C158.014 100.24 157.464 100.14 157.234 99.9898V110.26H159.214C159.524 110.26 159.784 110.51 159.784 110.83V114.32C159.784 114.63 159.534 114.89 159.214 114.89H157.234V116.83Z" fill="white"/>
</g>
<g opacity="0.8">
<path d="M158.185 100.241C158.015 100.241 157.465 100.141 157.235 99.9907C157.165 99.9507 157.125 99.9007 157.125 99.8607C157.125 99.8207 157.165 99.7707 157.235 99.7207C157.475 99.5707 158.025 99.4707 158.185 99.4707C158.395 99.4707 158.575 99.6407 158.575 99.8607C158.575 100.081 158.405 100.241 158.185 100.241Z" fill="white"/>
</g>
<path d="M157.234 91.3301H146.324V116.82H157.234V91.3301Z" fill="#1A2E35"/>
<path d="M157.225 95.9801V91.3301H157.465C157.815 91.3301 158.095 91.6101 158.095 91.9601V95.9801H157.225Z" fill="#1A2E35"/>
<path d="M157.234 97.2001H146.044C145.634 97.2001 145.314 96.8701 145.314 96.4701V95.8301H158.094V96.0201C158.094 96.5601 157.734 97.0201 157.234 97.1601V97.2101V97.2001Z" fill="#1A2E35"/>
<path d="M146.324 95.8298H145.314V92.2798C145.314 91.7598 145.734 91.3398 146.254 91.3398H146.314V95.8298H146.324Z" fill="#1A2E35"/>
<path opacity="0.2" d="M146.324 97.2498H146.044C145.644 97.2498 145.314 96.9198 145.314 96.5198V92.2798C145.314 91.7598 145.734 91.3398 146.254 91.3398H146.314V97.2498H146.324Z" fill="black"/>
<path opacity="0.2" d="M157.234 95.8301H146.324V97.2101H157.234V95.8301Z" fill="black"/>
<g opacity="0.2">
<path d="M157.234 97.1601V95.8301H158.094V96.0201C158.094 96.5601 157.734 97.0201 157.234 97.1601Z" fill="black"/>
</g>
<path d="M159.204 110.26H156.974C156.66 110.26 156.404 110.515 156.404 110.83V114.31C156.404 114.625 156.66 114.88 156.974 114.88H159.204C159.519 114.88 159.774 114.625 159.774 114.31V110.83C159.774 110.515 159.519 110.26 159.204 110.26Z" fill="#1A2E35"/>
<g opacity="0.2">
<path d="M159.204 110.26H156.974C156.66 110.26 156.404 110.515 156.404 110.83V114.31C156.404 114.625 156.66 114.88 156.974 114.88H159.204C159.519 114.88 159.774 114.625 159.774 114.31V110.83C159.774 110.515 159.519 110.26 159.204 110.26Z" fill="black"/>
</g>
<path d="M159.115 113.991V111.141H157.065V113.991H159.115Z" fill="#1A2E35"/>
<g opacity="0.5">
<path d="M159.115 113.991V111.141H157.065V113.991H159.115Z" fill="black"/>
</g>
<path d="M156.354 100.62C155.924 100.62 155.584 100.28 155.584 99.8501C155.584 99.4201 155.924 99.0801 156.354 99.0801C156.784 99.0801 157.124 99.4201 157.124 99.8501C157.124 100.28 156.784 100.62 156.354 100.62Z" fill="#2673E5"/>
<g opacity="0.5">
<path d="M156.354 100.62C155.924 100.62 155.584 100.28 155.584 99.8501C155.584 99.4201 155.924 99.0801 156.354 99.0801C156.784 99.0801 157.124 99.4201 157.124 99.8501C157.124 100.28 156.784 100.62 156.354 100.62Z" fill="white"/>
</g>
<path d="M156.214 102.171C155.944 102.171 155.734 101.951 155.734 101.691C155.734 101.431 155.954 101.211 156.214 101.211C156.474 101.211 156.694 101.431 156.694 101.691C156.694 101.951 156.474 102.171 156.214 102.171Z" fill="#2673E5"/>
<g opacity="0.5">
<path d="M156.214 102.171C155.944 102.171 155.734 101.951 155.734 101.691C155.734 101.431 155.954 101.211 156.214 101.211C156.474 101.211 156.694 101.431 156.694 101.691C156.694 101.951 156.474 102.171 156.214 102.171Z" fill="white"/>
</g>
<path d="M158.985 108.17H158.065C157.905 108.17 157.775 108.04 157.775 107.88C157.775 107.72 157.905 107.59 158.065 107.59H158.985C159.145 107.59 159.275 107.72 159.275 107.88C159.275 107.96 159.245 108.03 159.185 108.09C159.135 108.14 159.055 108.18 158.975 108.18L158.985 108.17Z" fill="#2673E5"/>
<g opacity="0.5">
<path d="M148.914 101.459C149.464 100.649 150.384 100.119 151.434 100.119C152.484 100.119 153.404 100.649 153.954 101.459H148.924H148.914Z" fill="black"/>
</g>
<path opacity="0.5" d="M148.914 111.609C149.464 112.419 150.384 112.949 151.434 112.949C152.484 112.949 153.404 112.419 153.954 111.609H148.924H148.914Z" fill="black"/>
<path d="M157.065 106.54C157.065 109.65 154.545 112.18 151.425 112.18C148.305 112.18 145.785 109.66 145.785 106.54C145.785 103.42 148.305 100.9 151.425 100.9C154.545 100.9 157.065 103.42 157.065 106.54ZM151.425 111.15C153.965 111.15 156.035 109.09 156.035 106.54C156.035 103.99 153.975 101.93 151.425 101.93C148.875 101.93 146.815 103.99 146.815 106.54C146.815 109.09 148.875 111.15 151.425 111.15Z" fill="#2673E5"/>
<g opacity="0.3">
<path d="M157.065 106.54C157.065 109.65 154.545 112.18 151.425 112.18C148.305 112.18 145.785 109.66 145.785 106.54C145.785 103.42 148.305 100.9 151.425 100.9C154.545 100.9 157.065 103.42 157.065 106.54ZM151.425 111.15C153.965 111.15 156.035 109.09 156.035 106.54C156.035 103.99 153.975 101.93 151.425 101.93C148.875 101.93 146.815 103.99 146.815 106.54C146.815 109.09 148.875 111.15 151.425 111.15Z" fill="white"/>
</g>
<g opacity="0.4">
<path d="M156.034 106.54C156.034 109.08 153.974 111.15 151.424 111.15C148.874 111.15 146.814 109.09 146.814 106.54C146.814 103.99 148.874 101.93 151.424 101.93C153.974 101.93 156.034 103.99 156.034 106.54ZM151.424 108.63C152.574 108.63 153.514 107.69 153.514 106.54C153.514 105.39 152.574 104.45 151.424 104.45C150.274 104.45 149.334 105.39 149.334 106.54C149.334 107.69 150.274 108.63 151.424 108.63Z" fill="black"/>
</g>
<g opacity="0.2">
<path d="M153.526 106.541C153.526 107.691 152.586 108.631 151.436 108.631C150.286 108.631 149.346 107.691 149.346 106.541C149.346 105.391 150.286 104.451 151.436 104.451C152.586 104.451 153.526 105.391 153.526 106.541Z" fill="black"/>
</g>
<path d="M156.234 114.31V110.82C156.234 110.41 156.564 110.08 156.974 110.08H159.214C159.624 110.08 159.954 110.41 159.954 110.82V114.31C159.954 114.72 159.624 115.05 159.214 115.05H156.974C156.564 115.05 156.234 114.72 156.234 114.31ZM159.604 110.82C159.604 110.6 159.424 110.43 159.214 110.43H156.974C156.764 110.43 156.584 110.61 156.584 110.82V114.31C156.584 114.53 156.764 114.7 156.974 114.7H159.214C159.434 114.7 159.604 114.52 159.604 114.31V110.82Z" fill="#1A2E35"/>
<path d="M156.234 114.31V110.82C156.234 110.41 156.564 110.08 156.974 110.08H159.214C159.624 110.08 159.954 110.41 159.954 110.82V114.31C159.954 114.72 159.624 115.05 159.214 115.05H156.974C156.564 115.05 156.234 114.72 156.234 114.31ZM159.604 110.82C159.604 110.6 159.424 110.43 159.214 110.43H156.974C156.764 110.43 156.584 110.61 156.584 110.82V114.31C156.584 114.53 156.764 114.7 156.974 114.7H159.214C159.434 114.7 159.604 114.52 159.604 114.31V110.82Z" fill="#1A2E35"/>
<g opacity="0.4">
<path d="M156.234 114.31V110.82C156.234 110.41 156.564 110.08 156.974 110.08H159.214C159.624 110.08 159.954 110.41 159.954 110.82V114.31C159.954 114.72 159.624 115.05 159.214 115.05H156.974C156.564 115.05 156.234 114.72 156.234 114.31ZM159.604 110.82C159.604 110.6 159.424 110.43 159.214 110.43H156.974C156.764 110.43 156.584 110.61 156.584 110.82V114.31C156.584 114.53 156.764 114.7 156.974 114.7H159.214C159.434 114.7 159.604 114.52 159.604 114.31V110.82Z" fill="white"/>
</g>
<g opacity="0.5">
<path d="M157.596 107.88C157.596 107.62 157.806 107.41 158.066 107.41H158.986C159.246 107.41 159.456 107.62 159.456 107.88C159.456 108.14 159.246 108.35 158.986 108.35H158.066C157.806 108.35 157.596 108.14 157.596 107.88ZM159.096 107.88C159.096 107.82 159.046 107.76 158.976 107.76H158.056C157.996 107.76 157.936 107.81 157.936 107.88C157.936 107.95 157.986 108 158.056 108H158.976C159.036 108 159.096 107.95 159.096 107.88Z" fill="black"/>
</g>
<path d="M145.615 106.54C145.615 103.33 148.225 100.73 151.425 100.73C154.625 100.73 157.235 103.34 157.235 106.54C157.235 109.74 154.625 112.35 151.425 112.35C148.225 112.35 145.615 109.74 145.615 106.54ZM156.885 106.54C156.885 103.53 154.435 101.08 151.425 101.08C148.415 101.08 145.965 103.53 145.965 106.54C145.965 109.55 148.415 112 151.425 112C154.435 112 156.885 109.55 156.885 106.54Z" fill="#2673E5"/>
<g opacity="0.8">
<path d="M145.615 106.54C145.615 103.33 148.225 100.73 151.425 100.73C154.625 100.73 157.235 103.34 157.235 106.54C157.235 109.74 154.625 112.35 151.425 112.35C148.225 112.35 145.615 109.74 145.615 106.54ZM156.885 106.54C156.885 103.53 154.435 101.08 151.425 101.08C148.415 101.08 145.965 103.53 145.965 106.54C145.965 109.55 148.415 112 151.425 112C154.435 112 156.885 109.55 156.885 106.54Z" fill="white"/>
</g>
<path d="M146.645 106.54C146.645 103.9 148.795 101.76 151.425 101.76C154.055 101.76 156.205 103.91 156.205 106.54C156.205 109.17 154.055 111.32 151.425 111.32C148.795 111.32 146.645 109.17 146.645 106.54ZM155.865 106.54C155.865 104.1 153.875 102.11 151.435 102.11C148.995 102.11 147.005 104.1 147.005 106.54C147.005 108.98 148.995 110.97 151.435 110.97C153.875 110.97 155.865 108.98 155.865 106.54Z" fill="#1A2E35"/>
<path d="M150.025 106.541C150.025 105.771 150.655 105.141 151.425 105.141C152.195 105.141 152.825 105.771 152.825 106.541C152.825 107.311 152.195 107.941 151.425 107.941C150.655 107.941 150.025 107.311 150.025 106.541ZM152.475 106.541C152.475 105.961 152.005 105.491 151.425 105.491C150.845 105.491 150.375 105.961 150.375 106.541C150.375 107.121 150.845 107.591 151.425 107.591C152.005 107.591 152.475 107.121 152.475 106.541Z" fill="#1A2E35"/>
<path d="M148.525 106.541C148.525 104.941 149.825 103.631 151.435 103.631C153.045 103.631 154.345 104.931 154.345 106.541C154.345 108.151 153.045 109.451 151.435 109.451C149.825 109.451 148.525 108.151 148.525 106.541ZM153.985 106.541C153.985 105.131 152.845 103.991 151.435 103.991C150.025 103.991 148.885 105.131 148.885 106.541C148.885 107.951 150.025 109.091 151.435 109.091C152.845 109.091 153.985 107.951 153.985 106.541Z" fill="#1A2E35"/>
<g opacity="0.2">
<path d="M151.256 109.271C151.256 109.171 151.336 109.091 151.436 109.091C152.846 109.091 153.986 107.951 153.986 106.541C153.986 105.131 152.846 103.991 151.436 103.991C151.336 103.991 151.256 103.911 151.256 103.811C151.256 103.711 151.336 103.631 151.436 103.631C153.036 103.631 154.346 104.931 154.346 106.541C154.346 108.151 153.046 109.451 151.436 109.451C151.336 109.451 151.256 109.371 151.256 109.271Z" fill="white"/>
</g>
<path opacity="0.2" d="M159.124 111.15H157.074C157.074 111.15 158.864 111.62 159.054 113.03C159.194 114.11 159.124 111.15 159.124 111.15Z" fill="white"/>
<path d="M146.645 106.54C146.645 103.9 148.795 101.76 151.425 101.76C154.055 101.76 156.205 103.91 156.205 106.54C156.205 109.17 154.055 111.32 151.425 111.32C148.795 111.32 146.645 109.17 146.645 106.54ZM155.865 106.54C155.865 104.1 153.875 102.11 151.435 102.11C148.995 102.11 147.005 104.1 147.005 106.54C147.005 108.98 148.995 110.97 151.435 110.97C153.875 110.97 155.865 108.98 155.865 106.54Z" fill="#2673E5"/>
<g opacity="0.6">
<path d="M146.645 106.54C146.645 103.9 148.795 101.76 151.425 101.76C154.055 101.76 156.205 103.91 156.205 106.54C156.205 109.17 154.055 111.32 151.425 111.32C148.795 111.32 146.645 109.17 146.645 106.54ZM155.865 106.54C155.865 104.1 153.875 102.11 151.435 102.11C148.995 102.11 147.005 104.1 147.005 106.54C147.005 108.98 148.995 110.97 151.435 110.97C153.875 110.97 155.865 108.98 155.865 106.54Z" fill="white"/>
</g>
<g opacity="0.1">
<path d="M158.104 92.1605V95.8305H157.254V91.3105C157.724 91.3105 158.104 91.6905 158.104 92.1505V92.1605Z" fill="white"/>
</g>
<path opacity="0.1" d="M157.234 97.1601V95.8301H158.094V96.0201C158.094 96.5601 157.734 97.0201 157.234 97.1601Z" fill="white"/>
<path opacity="0.1" d="M151.164 108.96C150.364 107.42 150.334 105.6 151.074 104.03C151.134 103.9 151.174 103.83 151.174 103.83V103.81C151.334 102.87 152.404 102.41 153.244 102.86C154.574 103.56 155.474 104.97 155.444 106.58C155.414 108.06 154.604 109.35 153.414 110.05C153.254 110.14 153.084 110.22 152.894 110.25C152.104 110.36 151.304 109.83 151.154 108.97L151.164 108.96Z" fill="white"/>
<path d="M143.074 90.5295H153.204C154.334 90.5295 155.404 91.0695 156.074 91.9795L157.164 93.4495V96.2095C157.164 97.3195 156.254 98.2095 155.144 98.1895L148.814 98.0895C148.124 98.0795 147.454 97.8895 146.854 97.5495L143.074 95.3695V90.5195V90.5295Z" fill="#903C38"/>
<path d="M143.785 90.5996C143.785 90.5996 114.825 94.0896 111.555 97.9696C108.285 101.85 111.905 106.07 114.465 106.5C117.015 106.93 145.245 95.3596 145.245 95.3596L143.785 90.5996Z" fill="#903C38"/>
<path d="M170.155 115.92L167.535 129.7C167.535 129.7 171.675 146.68 175.165 147.95C184.635 151.42 185.095 142.17 183.945 138.71C183.225 136.56 179.315 132.22 178.315 127.23C177.085 121.07 173.385 117.14 171.155 116.24L170.155 115.91V115.92Z" fill="#2673E5"/>
<path d="M177.044 146.54C172.284 147.88 157.474 120.86 156.454 119L149.994 119.91L146.334 118.56C145.994 118.39 145.774 118.03 145.794 117.65L145.904 115.2C145.934 114.34 146.194 113.83 146.814 114.1C148.064 114.55 149.384 114.78 150.704 114.78H152.944C154.384 114.28 155.884 114.02 157.394 114.02C157.924 114.02 158.444 114.23 158.834 114.59C162.024 117.5 177.014 131.28 179.484 134.99C182.264 139.15 181.704 145.22 177.024 146.54H177.044Z" fill="#903C38"/>
<path d="M188.505 221.291L186.475 239.151H196.015L198.865 222.311L188.505 221.291Z" fill="#903C38"/>
<path d="M196.596 235.83H186.496C186.116 235.83 185.796 236.09 185.726 236.46L184.186 244.68C184.026 245.53 184.706 246.34 185.576 246.33C189.216 246.27 194.476 246.05 199.056 246.05C204.416 246.05 204.436 246.34 210.716 246.34C214.516 246.34 215.436 242.5 213.826 242.15C206.536 240.57 205.226 240.4 198.836 236.54C198.146 236.12 197.376 235.82 196.586 235.82L196.596 235.83Z" fill="#1A2E35"/>
<path d="M200.426 237.381C201.616 237.381 202.756 237.221 203.116 236.681C203.246 236.491 203.336 236.181 203.066 235.721C202.916 235.471 202.676 235.291 202.356 235.211C200.806 234.791 197.636 236.631 197.496 236.711C197.416 236.761 197.376 236.851 197.396 236.941C197.416 237.031 197.486 237.101 197.576 237.121C198.166 237.241 199.316 237.381 200.426 237.381ZM201.826 235.591C201.976 235.591 202.126 235.611 202.256 235.641C202.456 235.691 202.606 235.801 202.696 235.951C202.856 236.221 202.806 236.361 202.756 236.431C202.346 237.031 200.006 237.041 198.276 236.801C199.116 236.361 200.746 235.591 201.826 235.591Z" fill="#2673E5"/>
<path d="M197.626 237.121C197.626 237.121 197.686 237.121 197.716 237.101C198.816 236.601 200.956 234.601 200.746 233.551C200.696 233.301 200.516 233.001 199.906 232.941C199.456 232.901 199.056 233.021 198.706 233.321C197.566 234.291 197.406 236.781 197.396 236.881C197.396 236.961 197.426 237.031 197.496 237.081C197.536 237.111 197.576 237.121 197.626 237.121ZM199.756 233.371C199.756 233.371 199.846 233.371 199.886 233.371C200.286 233.411 200.316 233.571 200.326 233.621C200.446 234.251 199.006 235.821 197.886 236.501C197.976 235.771 198.256 234.281 199.006 233.651C199.236 233.461 199.476 233.361 199.756 233.361V233.371Z" fill="#2673E5"/>
<path d="M174.305 180.681L161.635 198.541L157.855 198.981L157.495 199.021L153.185 199.521L141.435 191.151L130.845 199.991C128.995 194.191 128.435 180.381 128.915 175.941C129.515 170.441 131.865 161.721 131.865 161.721L166.915 163.031L167.105 164.421L167.915 166.261L174.295 180.681H174.305Z" fill="#1A2E35"/>
<path d="M210.994 165.601C210.944 164.621 210.824 163.511 210.454 162.131L210.304 161.601L210.104 161.031C209.974 160.671 209.794 160.241 209.604 159.831C209.184 158.981 208.684 158.091 207.904 157.181C207.144 156.271 206.234 155.331 205.114 154.721C197.884 150.821 161.234 169.281 161.234 169.281C159.324 170.121 157.394 170.921 155.424 171.701C158.064 175.341 159.424 179.681 159.424 184.051C159.424 186.571 158.974 189.101 158.054 191.531L157.874 192.001L156.784 194.881L155.314 198.741C155.314 198.741 156.174 199.011 157.784 199.111C159.674 199.241 162.574 199.151 166.304 198.141C169.294 197.331 173.834 195.381 178.664 192.561C182.364 190.401 186.244 187.711 189.734 184.641C189.634 188.941 185.594 227.301 185.594 227.301L199.394 228.321C199.394 228.321 209.164 182.391 210.204 174.411L210.584 171.421L210.774 169.921L210.874 169.181C210.884 169.051 210.904 168.961 210.924 168.781L210.964 168.211C211.014 167.421 211.034 166.581 210.984 165.611L210.994 165.601Z" fill="#1A2E35"/>
<path opacity="0.2" d="M167.915 166.26C164.985 167.54 155.595 171.61 157.075 170.52C162.475 166.54 165.635 164.99 167.095 164.42L167.905 166.26H167.915Z" fill="black"/>
<path d="M96.907 219.179L94.3438 227.221L125.918 237.285L128.482 229.244L96.907 219.179Z" fill="#903C38"/>
<path d="M99.5843 231.961L103.214 221.121C103.354 220.711 103.184 220.281 102.814 220.071L94.5443 215.471C93.6843 214.991 92.5743 215.431 92.2843 216.371C91.0443 220.301 89.3843 226.021 87.7443 230.931C85.8243 236.681 86.5943 233.331 84.3343 240.071C82.9743 244.141 86.7643 246.511 87.7043 244.911C92.0243 237.661 91.5843 239.581 98.0143 234.111C98.7143 233.521 99.3143 232.811 99.5943 231.951L99.5843 231.961Z" fill="#1A2E35"/>
<path d="M96.5548 235.521C96.1248 236.791 95.8948 238.081 96.3348 238.661C96.4848 238.861 96.7948 239.081 97.3848 238.951C97.7148 238.881 97.9848 238.681 98.1948 238.371C99.2048 236.851 98.3648 232.791 98.3248 232.621C98.3048 232.521 98.2248 232.451 98.1148 232.431C98.0148 232.421 97.9048 232.471 97.8548 232.561C97.5148 233.161 96.9548 234.331 96.5548 235.521ZM97.9748 237.671C97.9148 237.841 97.8548 237.981 97.7648 238.111C97.6348 238.311 97.4748 238.431 97.2748 238.471C96.9248 238.551 96.7948 238.451 96.7348 238.361C96.2448 237.711 97.0648 235.191 97.9448 233.431C98.1148 234.491 98.3548 236.511 97.9648 237.671H97.9748Z" fill="#2673E5"/>
<path d="M97.8342 232.6C97.8342 232.6 97.8242 232.67 97.8242 232.7C97.9642 234.06 99.3442 237.07 100.544 237.23C100.824 237.27 101.224 237.18 101.504 236.55C101.714 236.09 101.724 235.61 101.534 235.13C100.904 233.56 98.2942 232.49 98.1842 232.45C98.1042 232.42 98.0042 232.43 97.9342 232.48C97.8942 232.51 97.8642 232.56 97.8442 232.6H97.8342ZM101.094 236.23C101.094 236.23 101.064 236.32 101.044 236.37C100.864 236.78 100.684 236.76 100.624 236.75C99.9042 236.66 98.7442 234.54 98.4042 233.1C99.1542 233.46 100.654 234.29 101.064 235.33C101.184 235.64 101.204 235.94 101.104 236.24L101.094 236.23Z" fill="#2673E5"/>
<path d="M162.474 238.93C162.084 239.81 161.524 240.81 160.694 241.83C159.884 242.85 158.734 243.88 157.424 244.63C156.094 245.4 154.664 245.84 153.444 246.02C153.114 246.09 152.844 246.11 152.544 246.13C152.244 246.15 151.954 246.17 151.704 246.17H151.304C151.194 246.17 150.984 246.17 150.984 246.17L150.754 246.14L147.144 245.74C142.394 245.12 137.834 244.22 133.354 243.21C128.874 242.19 124.504 241.02 120.154 239.8C117.984 239.17 115.814 238.55 113.674 237.89L110.424 236.9L107.074 235.85L112.294 221.08C112.684 221.23 113.204 221.41 113.664 221.57C114.144 221.74 114.624 221.91 115.124 222.07C116.104 222.39 117.094 222.69 118.084 222.98C120.084 223.54 122.094 224.11 124.114 224.56C124.194 224.58 124.274 224.59 124.354 224.61C128.324 225.54 132.324 226.27 136.304 226.77C138.354 227.02 140.404 227.21 142.424 227.34C142.404 227.29 142.394 227.25 142.374 227.19C142.154 226.61 141.914 226.02 141.674 225.43C140.944 223.66 140.124 221.84 139.264 220.01C138.374 218.1 133.744 210.05 130.824 199.97C126.744 185.88 128.734 176.9 129.854 172.58L152.174 173.16C153.224 178.69 155.544 188.43 157.834 198.97C160.334 210.5 162.784 223 163.444 231.97C163.524 233.12 163.234 237.18 162.464 238.92L162.474 238.93Z" fill="#1A2E35"/>
<path opacity="0.2" d="M143.615 231.991L124.385 224.621C128.355 225.551 132.355 226.281 136.335 226.781C138.385 227.031 140.435 227.231 142.465 227.351C142.445 227.301 142.425 227.251 142.405 227.201H142.465L143.615 231.991Z" fill="black"/>
<path opacity="0.2" d="M177.785 192.861C173.205 195.541 168.905 197.391 166.075 198.151C162.535 199.111 159.785 199.201 157.995 199.071C157.905 199.041 154.285 183.471 154.285 183.471C154.285 183.471 154.525 190.401 161.215 194.231C164.005 195.821 170.775 195.661 177.785 192.871V192.861Z" fill="black"/>
<path d="M100.126 170.27V139.79C100.126 138.56 99.1859 137.57 98.0159 137.57H73.9459C72.7859 137.57 71.8359 138.56 71.8359 139.79V170.27C71.8359 171.5 72.7759 172.49 73.9459 172.49H98.0159C99.1759 172.49 100.126 171.5 100.126 170.27Z" fill="#2673E5"/>
<g opacity="0.5">
<path d="M100.126 170.27V139.79C100.126 138.56 99.1859 137.57 98.0159 137.57H73.9459C72.7859 137.57 71.8359 138.56 71.8359 139.79V170.27C71.8359 171.5 72.7759 172.49 73.9459 172.49H98.0159C99.1759 172.49 100.126 171.5 100.126 170.27Z" fill="white"/>
</g>
<path d="M73.1055 170.33C73.1055 170.79 73.4555 171.16 73.8955 171.16H98.0655C98.4955 171.16 98.8555 170.79 98.8555 170.33V139.75C98.8555 139.29 98.5055 138.92 98.0655 138.92H73.8955C73.4655 138.92 73.1055 139.29 73.1055 139.75V170.33Z" fill="#2673E5"/>
<path opacity="0.3" d="M73.1055 170.33C73.1055 170.79 73.4555 171.16 73.8955 171.16H98.0655C98.4955 171.16 98.8555 170.79 98.8555 170.33V139.75C98.8555 139.29 98.5055 138.92 98.0655 138.92H73.8955C73.4655 138.92 73.1055 139.29 73.1055 139.75V170.33Z" fill="white"/>
<path opacity="0.9" d="M86.1364 148.75C88.9364 148.75 91.2064 151.14 91.2064 154.09C91.2064 157.04 88.9364 159.43 86.1364 159.43C83.3364 159.43 81.0664 157.04 81.0664 154.09C81.0664 151.14 83.3364 148.75 86.1364 148.75Z" fill="white"/>
<g opacity="0.7">
<path d="M74.8262 171.251C74.8262 164.741 79.8362 159.461 86.0162 159.461C92.1962 159.461 97.2062 164.741 97.2062 171.251H74.8362H74.8262Z" fill="white"/>
</g>
<path d="M229.315 118.18H198.835C197.605 118.18 196.615 119.12 196.615 120.29V144.36C196.615 145.52 197.605 146.47 198.835 146.47H229.315C230.545 146.47 231.535 145.53 231.535 144.36V120.29C231.535 119.13 230.545 118.18 229.315 118.18Z" fill="#2673E5"/>
<g opacity="0.5">
<path d="M229.315 118.18H198.835C197.605 118.18 196.615 119.12 196.615 120.29V144.36C196.615 145.52 197.605 146.47 198.835 146.47H229.315C230.545 146.47 231.535 145.53 231.535 144.36V120.29C231.535 119.13 230.545 118.18 229.315 118.18Z" fill="white"/>
</g>
<path d="M229.375 145.199C229.835 145.199 230.205 144.849 230.205 144.409V120.239C230.205 119.809 229.835 119.449 229.375 119.449H198.795C198.335 119.449 197.965 119.799 197.965 120.239V144.409C197.965 144.839 198.335 145.199 198.795 145.199H229.375Z" fill="#2673E5"/>
<path opacity="0.3" d="M229.375 145.199C229.835 145.199 230.205 144.849 230.205 144.409V120.239C230.205 119.809 229.835 119.449 229.375 119.449H198.795C198.335 119.449 197.965 119.799 197.965 120.239V144.409C197.965 144.839 198.335 145.199 198.795 145.199H229.375Z" fill="white"/>
<g opacity="0.7">
<path d="M206.596 128.369V128.619V136.809L214.336 140.469V131.559L206.596 128.369Z" fill="white"/>
</g>
<g opacity="0.5">
<path d="M222.076 128.369V128.619V136.809L214.336 140.469V131.559L222.076 128.369Z" fill="white"/>
</g>
<path opacity="0.9" d="M206.596 128.369L214.336 131.559L222.076 128.369L214.336 124.879L206.596 128.369Z" fill="white"/>
<path d="M179.455 62.1598H210.315C211.555 62.1598 212.565 61.1998 212.565 60.0198V35.6498C212.565 34.4698 211.555 33.5098 210.315 33.5098H179.455C178.215 33.5098 177.205 34.4698 177.205 35.6498V60.0198C177.205 61.1998 178.215 62.1598 179.455 62.1598Z" fill="#2673E5"/>
<g opacity="0.5">
<path d="M179.455 62.1598H210.315C211.555 62.1598 212.565 61.1998 212.565 60.0198V35.6498C212.565 34.4698 211.555 33.5098 210.315 33.5098H179.455C178.215 33.5098 177.205 34.4698 177.205 35.6498V60.0198C177.205 61.1998 178.215 62.1598 179.455 62.1598Z" fill="white"/>
</g>
<path d="M179.395 34.7988C178.935 34.7988 178.555 35.1588 178.555 35.5988V60.0788C178.555 60.5188 178.935 60.8788 179.395 60.8788H210.365C210.825 60.8788 211.205 60.5188 211.205 60.0788V35.5988C211.205 35.1588 210.825 34.7988 210.365 34.7988H179.395Z" fill="#2673E5"/>
<path opacity="0.3" d="M179.395 34.7988C178.935 34.7988 178.555 35.1588 178.555 35.5988V60.0788C178.555 60.5188 178.935 60.8788 179.395 60.8788H210.365C210.825 60.8788 211.205 60.5188 211.205 60.0788V35.5988C211.205 35.1588 210.825 34.7988 210.365 34.7988H179.395Z" fill="white"/>
<path opacity="0.6" d="M187.084 47.0293L178.564 59.4993V60.0693C178.564 60.5093 178.944 60.8693 179.404 60.8693H196.554L187.094 47.0293H187.084Z" fill="white"/>
<path opacity="0.9" d="M197.086 40.9201C197.086 42.0701 196.096 43.0101 194.886 43.0101C193.676 43.0101 192.686 42.0701 192.686 40.9201C192.686 39.7701 193.676 38.8301 194.886 38.8301C196.096 38.8301 197.086 39.7701 197.086 40.9201Z" fill="white"/>
<path opacity="0.7" d="M211.216 57.5198L202.426 43.0098L191.596 60.8798H210.376C210.836 60.8798 211.216 60.5198 211.216 60.0798V57.5198Z" fill="white"/>
<path d="M88.0747 109.44C86.7947 107.69 86.0147 105.75 85.8647 103.73L85.5847 99.8203C85.5847 99.8203 84.7847 105.79 82.6947 108.04C82.3447 108.41 81.9447 108.74 81.5247 109.06C80.0647 108.61 78.7447 107.92 77.6247 106.96L74.6347 104.38C74.6347 104.38 77.3447 107.88 78.2047 110.81C73.2147 112.69 67.0547 112.54 67.0547 112.54C67.0547 112.54 72.9847 114.16 77.2947 117.34C75.1147 122.15 70.6847 126.35 70.6847 126.35C70.6847 126.35 76.0647 123.33 81.3947 122.59C82.1347 125.56 81.5547 129.96 81.5547 129.96L82.8447 126.26C83.3247 124.88 84.1247 123.63 85.1747 122.53C85.6947 122.6 86.2147 122.69 86.6947 122.85C89.6447 123.78 93.3547 128.57 93.3547 128.57L91.6247 125.04C90.7347 123.22 90.4247 121.15 90.6547 119.01C92.8347 118.19 95.3147 117.75 97.9547 117.78C101.435 117.82 104.315 117.81 104.395 117.67C104.355 117.52 101.585 116.75 98.2147 115.87C96.0747 115.31 94.1347 114.47 92.4547 113.41C93.3847 111.67 94.6447 109.99 96.2147 108.46C98.6947 106.05 100.715 104.03 100.675 103.88C100.535 103.8 98.0347 105.19 95.0347 106.93C92.7547 108.25 90.3747 109.07 88.0747 109.43V109.44Z" fill="#2673E5"/>
<path opacity="0.7" d="M88.0747 109.44C86.7947 107.69 86.0147 105.75 85.8647 103.73L85.5847 99.8203C85.5847 99.8203 84.7847 105.79 82.6947 108.04C82.3447 108.41 81.9447 108.74 81.5247 109.06C80.0647 108.61 78.7447 107.92 77.6247 106.96L74.6347 104.38C74.6347 104.38 77.3447 107.88 78.2047 110.81C73.2147 112.69 67.0547 112.54 67.0547 112.54C67.0547 112.54 72.9847 114.16 77.2947 117.34C75.1147 122.15 70.6847 126.35 70.6847 126.35C70.6847 126.35 76.0647 123.33 81.3947 122.59C82.1347 125.56 81.5547 129.96 81.5547 129.96L82.8447 126.26C83.3247 124.88 84.1247 123.63 85.1747 122.53C85.6947 122.6 86.2147 122.69 86.6947 122.85C89.6447 123.78 93.3547 128.57 93.3547 128.57L91.6247 125.04C90.7347 123.22 90.4247 121.15 90.6547 119.01C92.8347 118.19 95.3147 117.75 97.9547 117.78C101.435 117.82 104.315 117.81 104.395 117.67C104.355 117.52 101.585 116.75 98.2147 115.87C96.0747 115.31 94.1347 114.47 92.4547 113.41C93.3847 111.67 94.6447 109.99 96.2147 108.46C98.6947 106.05 100.715 104.03 100.675 103.88C100.535 103.8 98.0347 105.19 95.0347 106.93C92.7547 108.25 90.3747 109.07 88.0747 109.43V109.44Z" fill="white"/>
<path d="M126.306 57.4602C128.696 55.8002 131.226 54.8002 133.716 54.5902L138.396 54.2002C138.396 54.2002 131.306 53.3102 128.736 50.7702C128.306 50.3502 127.936 49.8602 127.596 49.3502C128.326 47.6002 129.336 46.0302 130.636 44.7502L134.016 41.4002C134.016 41.4002 129.526 44.3802 125.776 45.3202C124.026 39.3202 124.986 32.2402 124.986 32.2402C124.986 32.2402 122.176 38.9502 117.356 43.9802C111.086 41.0602 105.926 35.2702 105.926 35.2702C105.926 35.2702 109.236 42.1802 109.306 49.0302C104.776 49.9702 98.1356 49.1402 98.1356 49.1402L103.566 50.9102C105.546 51.5602 107.256 52.6202 108.676 54.0002C108.476 54.7002 108.236 55.3902 107.906 56.0502C105.906 60.1302 97.5156 65.7102 97.5156 65.7102L103.536 62.9602C106.526 61.5902 109.696 61.0602 112.796 61.2602C113.596 64.1802 113.796 67.5802 113.276 71.2902C112.576 76.2902 112.056 80.5202 112.246 80.6102C112.486 80.5302 114.136 76.3502 116.006 71.4402C117.156 68.4102 118.666 65.6802 120.396 63.3402C122.636 64.4602 124.726 66.0102 126.556 67.9702C129.416 71.0502 131.796 73.5302 131.996 73.4502C132.116 73.2602 130.596 70.0802 128.706 66.2802C127.276 63.4002 126.486 60.3802 126.316 57.4502L126.306 57.4602Z" fill="#2673E5"/>
<path opacity="0.7" d="M126.306 57.4602C128.696 55.8002 131.226 54.8002 133.716 54.5902L138.396 54.2002C138.396 54.2002 131.306 53.3102 128.736 50.7702C128.306 50.3502 127.936 49.8602 127.596 49.3502C128.326 47.6002 129.336 46.0302 130.636 44.7502L134.016 41.4002C134.016 41.4002 129.526 44.3802 125.776 45.3202C124.026 39.3202 124.986 32.2402 124.986 32.2402C124.986 32.2402 122.176 38.9502 117.356 43.9802C111.086 41.0602 105.926 35.2702 105.926 35.2702C105.926 35.2702 109.236 42.1802 109.306 49.0302C104.776 49.9702 98.1356 49.1402 98.1356 49.1402L103.566 50.9102C105.546 51.5602 107.256 52.6202 108.676 54.0002C108.476 54.7002 108.236 55.3902 107.906 56.0502C105.906 60.1302 97.5156 65.7102 97.5156 65.7102L103.536 62.9602C106.526 61.5902 109.696 61.0602 112.796 61.2602C113.596 64.1802 113.796 67.5802 113.276 71.2902C112.576 76.2902 112.056 80.5202 112.246 80.6102C112.486 80.5302 114.136 76.3502 116.006 71.4402C117.156 68.4102 118.666 65.6802 120.396 63.3402C122.636 64.4602 124.726 66.0102 126.556 67.9702C129.416 71.0502 131.796 73.5302 131.996 73.4502C132.116 73.2602 130.596 70.0802 128.706 66.2802C127.276 63.4002 126.486 60.3802 126.316 57.4502L126.306 57.4602Z" fill="white"/>
<path d="M202.904 88.7811C202.194 87.2211 201.894 85.5711 202.114 83.9711L202.524 80.8711C202.524 80.8711 200.954 85.4111 198.974 86.8411C198.644 87.0811 198.284 87.2711 197.914 87.4511C196.854 86.8711 195.944 86.1311 195.234 85.2011L193.334 82.7211C193.334 82.7211 194.864 85.8811 195.074 88.3011C190.914 88.9911 186.174 87.9211 186.174 87.9211C186.174 87.9211 190.494 90.1111 193.324 93.2611C190.864 96.6811 186.774 99.2711 186.774 99.2711C186.774 99.2711 191.414 97.7511 195.664 97.9911C195.764 100.421 194.604 103.771 194.604 103.771L196.194 101.081C196.784 100.081 197.604 99.2211 198.584 98.5311C198.974 98.6711 199.354 98.8211 199.714 99.0211C201.854 100.211 203.954 104.531 203.954 104.531L203.174 101.511C202.774 99.9511 202.864 98.2811 203.394 96.6411C205.214 96.3411 207.204 96.3811 209.234 96.8111C211.924 97.3811 214.144 97.8211 214.224 97.7311C214.224 97.6011 212.194 96.5711 209.734 95.3611C208.174 94.5911 206.804 93.6311 205.674 92.5411C206.674 91.3211 207.914 90.2011 209.374 89.2611C211.674 87.7711 213.564 86.5011 213.554 86.3811C213.464 86.2911 211.304 87.0011 208.704 87.8811C206.734 88.5511 204.764 88.8311 202.924 88.7511L202.904 88.7811Z" fill="#2673E5"/>
<path opacity="0.7" d="M202.904 88.7811C202.194 87.2211 201.894 85.5711 202.114 83.9711L202.524 80.8711C202.524 80.8711 200.954 85.4111 198.974 86.8411C198.644 87.0811 198.284 87.2711 197.914 87.4511C196.854 86.8711 195.944 86.1311 195.234 85.2011L193.334 82.7211C193.334 82.7211 194.864 85.8811 195.074 88.3011C190.914 88.9911 186.174 87.9211 186.174 87.9211C186.174 87.9211 190.494 90.1111 193.324 93.2611C190.864 96.6811 186.774 99.2711 186.774 99.2711C186.774 99.2711 191.414 97.7511 195.664 97.9911C195.764 100.421 194.604 103.771 194.604 103.771L196.194 101.081C196.784 100.081 197.604 99.2211 198.584 98.5311C198.974 98.6711 199.354 98.8211 199.714 99.0211C201.854 100.211 203.954 104.531 203.954 104.531L203.174 101.511C202.774 99.9511 202.864 98.2811 203.394 96.6411C205.214 96.3411 207.204 96.3811 209.234 96.8111C211.924 97.3811 214.144 97.8211 214.224 97.7311C214.224 97.6011 212.194 96.5711 209.734 95.3611C208.174 94.5911 206.804 93.6311 205.674 92.5411C206.674 91.3211 207.914 90.2011 209.374 89.2611C211.674 87.7711 213.564 86.5011 213.554 86.3811C213.464 86.2911 211.304 87.0011 208.704 87.8811C206.734 88.5511 204.764 88.8311 202.924 88.7511L202.904 88.7811Z" fill="white"/>
</g>
<defs>
<clipPath id="clip0_1747_36040">
<rect width="295.93" height="249.56" fill="white" transform="translate(0.0351562)"/>
</clipPath>
</defs>
</svg>
