<svg width="296" height="260" viewBox="0 0 296 260" fill="none" xmlns="http://www.w3.org/2000/svg">
<g clip-path="url(#clip0_1817_30588)">
<path d="M295.559 228.49H0.888672V228.66H295.559V228.49Z" fill="#ECECEC"/>
<path d="M287.71 239.72H264.6V239.89H287.71V239.72Z" fill="#ECECEC"/>
<path d="M204.9 241.61H198.83V241.78H204.9V241.61Z" fill="#ECECEC"/>
<path d="M263.9 233.24H250.51V233.41H263.9V233.24Z" fill="#ECECEC"/>
<path d="M40.5189 234.41H10.3789V234.58H40.5189V234.41Z" fill="#ECECEC"/>
<path d="M51.1602 234.41H46.7402V234.58H51.1602V234.41Z" fill="#ECECEC"/>
<path d="M130.89 237.36H65.5195V237.53H130.89V237.36Z" fill="#ECECEC"/>
<path d="M139.159 197.37H4.41945C2.21945 197.37 0.439453 195.58 0.439453 193.39V3.98C0.439453 1.79 2.22945 0 4.41945 0H139.159C141.359 0 143.139 1.79 143.139 3.98V193.38C143.139 195.58 141.349 197.36 139.159 197.36V197.37ZM4.41945 0.17C2.31945 0.17 0.609453 1.88 0.609453 3.98V193.38C0.609453 195.48 2.31945 197.19 4.41945 197.19H139.159C141.259 197.19 142.969 195.48 142.969 193.38V3.98C142.969 1.88 141.259 0.17 139.159 0.17H4.41945Z" fill="#ECECEC"/>
<path d="M290.089 197.37H155.349C153.149 197.37 151.369 195.58 151.369 193.39V3.98C151.369 1.78 153.159 0 155.349 0H290.089C292.289 0 294.069 1.79 294.069 3.98V193.38C294.069 195.58 292.279 197.36 290.089 197.36V197.37ZM155.349 0.17C153.249 0.17 151.539 1.88 151.539 3.98V193.38C151.539 195.48 153.249 197.19 155.349 197.19H290.089C292.189 197.19 293.899 195.48 293.899 193.38V3.98C293.899 1.88 292.189 0.17 290.089 0.17H155.349Z" fill="#ECECEC"/>
<g opacity="0.5">
<path d="M274.549 71.94H151.539V227.71H274.549V71.94Z" fill="#F0F0F0"/>
<path d="M270.199 77.61H155.879V110.92H270.199V77.61Z" fill="#E1E1E1"/>
<path d="M162.369 83.01H155.879V110.93H162.369V83.01Z" fill="#ECECEC"/>
<path d="M193.769 83.01H187.279V110.93H193.769V83.01Z" fill="#ECECEC"/>
<path d="M229.427 82.3018L223.031 83.4042L227.774 110.918L234.17 109.816L229.427 82.3018Z" fill="#ECECEC"/>
<path d="M170.42 86.69H163.93V110.93H170.42V86.69Z" fill="#ECECEC"/>
<path d="M185.349 86.69H178.859V110.93H185.349V86.69Z" fill="#ECECEC"/>
<path d="M223.019 86.69H216.529V110.93H223.019V86.69Z" fill="#ECECEC"/>
<path d="M202.302 85.8436L195.967 87.2516L201.226 110.914L207.561 109.506L202.302 85.8436Z" fill="#ECECEC"/>
<path d="M176.039 81.62H172.789V110.92H176.039V81.62Z" fill="#ECECEC"/>
<path d="M214.668 81.62H211.418V110.92H214.668V81.62Z" fill="#ECECEC"/>
<path d="M155.879 149.5H270.199V116.19L155.879 116.19V149.5Z" fill="#E1E1E1"/>
<path d="M263.709 149.51H270.199V121.59H263.709V149.51Z" fill="#ECECEC"/>
<path d="M232.309 149.51H238.799V121.59H232.309V149.51Z" fill="#ECECEC"/>
<path d="M191.925 148.4L198.32 149.502L203.063 121.988L196.667 120.885L191.925 148.4Z" fill="#ECECEC"/>
<path d="M255.658 149.51H262.148V125.27H255.658V149.51Z" fill="#ECECEC"/>
<path d="M240.739 149.51H247.229V125.27H240.739V149.51Z" fill="#ECECEC"/>
<path d="M203.059 149.51H209.549V125.27H203.059V149.51Z" fill="#ECECEC"/>
<path d="M218.524 148.09L224.859 149.498L230.118 125.835L223.783 124.427L218.524 148.09Z" fill="#ECECEC"/>
<path d="M250.039 149.51H253.289V120.21H250.039V149.51Z" fill="#ECECEC"/>
<path d="M211.408 149.51H214.658V120.21H211.408V149.51Z" fill="#ECECEC"/>
<path d="M162.369 121.59H155.879V149.51H162.369V121.59Z" fill="#ECECEC"/>
<path d="M170.42 125.27H163.93V149.51H170.42V125.27Z" fill="#ECECEC"/>
<path d="M185.349 125.27H178.859V149.51H185.349V125.27Z" fill="#ECECEC"/>
<path d="M176.039 120.2H172.789V149.5H176.039V120.2Z" fill="#ECECEC"/>
<path d="M270.199 154.78H155.879V188.09H270.199V154.78Z" fill="#E1E1E1"/>
<path d="M227.99 160.17H221.5V188.09H227.99V160.17Z" fill="#ECECEC"/>
<path d="M263.638 159.469L257.242 160.572L261.985 188.086L268.381 186.984L263.638 159.469Z" fill="#ECECEC"/>
<path d="M204.629 163.85H198.139V188.09H204.629V163.85Z" fill="#ECECEC"/>
<path d="M219.56 163.85H213.07V188.09H219.56V163.85Z" fill="#ECECEC"/>
<path d="M257.23 163.85H250.74V188.09H257.23V163.85Z" fill="#ECECEC"/>
<path d="M236.521 163.014L230.186 164.422L235.444 188.084L241.78 186.676L236.521 163.014Z" fill="#ECECEC"/>
<path d="M210.25 158.79H207V188.09H210.25V158.79Z" fill="#ECECEC"/>
<path d="M248.879 158.79H245.629V188.09H248.879V158.79Z" fill="#ECECEC"/>
<path d="M188.923 159.47L182.527 160.573L187.27 188.087L193.666 186.984L188.923 159.47Z" fill="#ECECEC"/>
<path d="M182.519 163.85H176.029V188.09H182.519V163.85Z" fill="#ECECEC"/>
<path d="M161.81 163.012L155.475 164.42L160.733 188.083L167.069 186.675L161.81 163.012Z" fill="#ECECEC"/>
<path d="M174.17 158.79H170.92V188.09H174.17V158.79Z" fill="#ECECEC"/>
<path d="M101.28 62.71H10.2598V67.39H101.28V62.71Z" fill="#E1E1E1"/>
<path d="M18.4592 45.47H14.4492V62.71H18.4592V45.47Z" fill="#ECECEC"/>
<path d="M37.8498 45.47H33.8398V62.71H37.8498V45.47Z" fill="#ECECEC"/>
<path d="M59.8619 45.0457L55.9102 45.7269L58.8386 62.7163L62.7904 62.0352L59.8619 45.0457Z" fill="#ECECEC"/>
<path d="M23.4299 47.75H19.4199V62.72H23.4299V47.75Z" fill="#ECECEC"/>
<path d="M32.6389 47.75H28.6289V62.72H32.6389V47.75Z" fill="#ECECEC"/>
<path d="M55.9104 47.75H51.9004V62.72H55.9104V47.75Z" fill="#ECECEC"/>
<path d="M43.1157 47.2271L39.2012 48.0971L42.4489 62.7106L46.3634 61.8406L43.1157 47.2271Z" fill="#ECECEC"/>
<path d="M26.8906 44.62H24.8906V62.71H26.8906V44.62Z" fill="#ECECEC"/>
<path d="M50.7502 44.62H48.7402V62.71H50.7502V44.62Z" fill="#ECECEC"/>
<path d="M92.5498 49.07H73.0098V62.56H92.5498V49.07Z" fill="#ECECEC"/>
<path d="M10.2593 102.3L101.279 102.3V97.62L10.2593 97.62V102.3Z" fill="#E1E1E1"/>
<path d="M93.0798 97.63H97.0898V80.39H93.0798V97.63Z" fill="#ECECEC"/>
<path d="M73.6892 97.63H77.6992V80.39H73.6892V97.63Z" fill="#ECECEC"/>
<path d="M48.7494 96.9431L52.7012 97.6243L55.6297 80.6348L51.6779 79.9536L48.7494 96.9431Z" fill="#ECECEC"/>
<path d="M88.1091 97.62H92.1191V82.65H88.1091V97.62Z" fill="#ECECEC"/>
<path d="M78.9002 97.62H82.9102V82.65H78.9002V97.62Z" fill="#ECECEC"/>
<path d="M55.6306 97.62H59.6406V82.65H55.6306V97.62Z" fill="#ECECEC"/>
<path d="M65.1812 96.7465L69.0957 97.6165L72.3435 83.0031L68.429 82.1331L65.1812 96.7465Z" fill="#ECECEC"/>
<path d="M84.6504 97.62H86.6504V79.53H84.6504V97.62Z" fill="#ECECEC"/>
<path d="M60.7988 97.62H62.7988V79.53H60.7988V97.62Z" fill="#ECECEC"/>
<path d="M18.9991 97.47H38.5391V83.98H18.9991V97.47Z" fill="#ECECEC"/>
</g>
<path d="M148.229 260C222.948 260 283.519 256.463 283.519 252.1C283.519 247.737 222.948 244.2 148.229 244.2C73.5108 244.2 12.9395 247.737 12.9395 252.1C12.9395 256.463 73.5108 260 148.229 260Z" fill="#F5F5F5"/>
<path d="M33.12 236.95C33.12 236.95 36.13 230.39 32.69 223.92C29.25 217.45 28.26 215.93 30.45 214.6C32.64 213.27 33.65 219.77 33.65 219.77C33.65 219.77 35.5 215.3 33.97 210.62C32.45 205.94 31.49 198.32 33.57 197.5C35.65 196.68 33.97 207.01 35.77 210.53C35.77 210.53 37.29 206.61 37.54 202.85C37.79 199.09 37.4 193.09 39.04 191.55C40.68 190.01 41.74 191.08 40.12 199.37C38.5 207.66 38.52 214.41 38.52 214.41C38.52 214.41 42.09 203.53 44.48 203.21C46.88 202.89 46.87 206.42 44.82 209.47C42.77 212.52 38.82 218 38.17 220.82C38.17 220.82 42.09 212.63 45.61 215.14C49.13 217.65 42.54 222.6 39.61 224.38C36.67 226.17 34.63 237.37 34.63 237.37L33.12 236.94V236.95Z" fill="#2673E5"/>
<g opacity="0.6">
<path d="M33.12 236.95C33.12 236.95 36.13 230.39 32.69 223.92C29.25 217.45 28.26 215.93 30.45 214.6C32.64 213.27 33.65 219.77 33.65 219.77C33.65 219.77 35.5 215.3 33.97 210.62C32.45 205.94 31.49 198.32 33.57 197.5C35.65 196.68 33.97 207.01 35.77 210.53C35.77 210.53 37.29 206.61 37.54 202.85C37.79 199.09 37.4 193.09 39.04 191.55C40.68 190.01 41.74 191.08 40.12 199.37C38.5 207.66 38.52 214.41 38.52 214.41C38.52 214.41 42.09 203.53 44.48 203.21C46.88 202.89 46.87 206.42 44.82 209.47C42.77 212.52 38.82 218 38.17 220.82C38.17 220.82 42.09 212.63 45.61 215.14C49.13 217.65 42.54 222.6 39.61 224.38C36.67 226.17 34.63 237.37 34.63 237.37L33.12 236.94V236.95Z" fill="white"/>
</g>
<path d="M35.5009 239.64C35.5009 239.64 32.5709 233.03 36.0809 226.62C39.5909 220.21 40.6109 218.69 38.4309 217.34C36.2609 215.98 35.1709 222.47 35.1709 222.47C35.1709 222.47 33.3809 217.97 34.9609 213.32C36.5409 208.66 37.5909 201.06 35.5209 200.21C33.4509 199.36 35.0109 209.71 33.1609 213.2C33.1609 213.2 31.6909 209.26 31.4909 205.5C31.2909 201.74 31.7509 195.74 30.1209 194.18C28.4909 192.62 27.4309 193.67 28.9409 201.98C30.4609 210.3 30.3609 217.04 30.3609 217.04C30.3609 217.04 26.9209 206.11 24.5309 205.75C22.1409 205.4 22.1009 208.92 24.1109 212.01C26.1209 215.1 30.0109 220.63 30.6309 223.46C30.6309 223.46 26.8109 215.21 23.2609 217.67C19.7109 220.13 26.2409 225.17 29.1509 227C32.0609 228.83 33.9709 240.06 33.9709 240.06L35.4909 239.65L35.5009 239.64Z" fill="#2673E5"/>
<g opacity="0.7">
<path d="M35.5009 239.64C35.5009 239.64 32.5709 233.03 36.0809 226.62C39.5909 220.21 40.6109 218.69 38.4309 217.34C36.2609 215.98 35.1709 222.47 35.1709 222.47C35.1709 222.47 33.3809 217.97 34.9609 213.32C36.5409 208.66 37.5909 201.06 35.5209 200.21C33.4509 199.36 35.0109 209.71 33.1609 213.2C33.1609 213.2 31.6909 209.26 31.4909 205.5C31.2909 201.74 31.7509 195.74 30.1209 194.18C28.4909 192.62 27.4309 193.67 28.9409 201.98C30.4609 210.3 30.3609 217.04 30.3609 217.04C30.3609 217.04 26.9209 206.11 24.5309 205.75C22.1409 205.4 22.1009 208.92 24.1109 212.01C26.1209 215.1 30.0109 220.63 30.6309 223.46C30.6309 223.46 26.8109 215.21 23.2609 217.67C19.7109 220.13 26.2409 225.17 29.1509 227C32.0609 228.83 33.9709 240.06 33.9709 240.06L35.4909 239.65L35.5009 239.64Z" fill="white"/>
</g>
<path d="M21.9902 234.94H46.1802L44.2302 252.25H23.9502L21.9902 234.94Z" fill="#2673E5"/>
<path d="M241.669 225.66H231.949V252.25H241.669V225.66Z" fill="#2673E5"/>
<g opacity="0.3">
<path d="M241.669 225.66H238.869V252.25H241.669V225.66Z" fill="black"/>
</g>
<path d="M262.259 239.08H241.119V252.25H262.259V239.08Z" fill="#2673E5"/>
<g opacity="0.4">
<path d="M254.289 239.08H241.119V252.25H254.289V239.08Z" fill="white"/>
</g>
<path d="M189.049 219.14H171.199V252.24H189.049V219.14Z" fill="#2673E5"/>
<g opacity="0.3">
<path d="M189.039 219.14H178.469V252.24H189.039V219.14Z" fill="black"/>
</g>
<path d="M216.959 219.14H199.109V252.24H216.959V219.14Z" fill="#2673E5"/>
<g opacity="0.3">
<path d="M216.949 219.14H206.379V252.24H216.949V219.14Z" fill="black"/>
</g>
<path d="M199.159 203.76H185.909L161.799 219.14H175.059H210.009H223.269L199.159 203.76Z" fill="#2673E5"/>
<g opacity="0.4">
<path d="M185.909 203.76L161.799 219.14H175.059H210.009L185.909 203.76Z" fill="white"/>
</g>
<path d="M227.509 245.18C227.509 249.08 224.349 252.24 220.449 252.24C216.839 252.24 213.859 249.53 213.439 246.03C213.399 245.75 213.379 245.46 213.379 245.18C213.379 241.29 216.539 238.12 220.439 238.12C222.149 238.12 223.709 238.73 224.929 239.73C226.489 241.03 227.489 243 227.489 245.18H227.509Z" fill="#2673E5"/>
<g opacity="0.4">
<path d="M225.599 242.6C225.599 246.22 222.659 249.17 219.029 249.17C216.659 249.17 214.589 247.91 213.429 246.04C213.389 245.76 213.369 245.47 213.369 245.19C213.369 241.3 216.529 238.13 220.429 238.13C222.139 238.13 223.699 238.74 224.919 239.74C225.339 240.61 225.579 241.58 225.579 242.61L225.599 242.6Z" fill="white"/>
</g>
<path d="M153.809 21.95H131.949C130.016 21.95 128.449 23.517 128.449 25.45V47.31C128.449 49.243 130.016 50.81 131.949 50.81H153.809C155.742 50.81 157.309 49.243 157.309 47.31V25.45C157.309 23.517 155.742 21.95 153.809 21.95Z" fill="#1A2E35"/>
<path d="M138.389 28.42L134.309 31.29V44.35H147.379L151.449 41.49V28.42H138.389Z" fill="#2673E5"/>
<g opacity="0.2">
<path d="M147.369 31.29H134.309V44.35H147.369V31.29Z" fill="white"/>
</g>
<g opacity="0.2">
<path d="M151.449 28.42H138.389V41.48H151.449V28.42Z" fill="white"/>
</g>
<g opacity="0.6">
<path d="M134.309 31.29L138.389 28.42H151.449L147.379 31.29H134.309Z" fill="white"/>
</g>
<g opacity="0.3">
<path d="M151.449 28.42V41.49L147.379 44.35V31.29L151.449 28.42Z" fill="black"/>
</g>
<g opacity="0.3">
<path d="M134.309 44.35L138.389 41.49H151.449L147.379 44.35H134.309Z" fill="black"/>
</g>
<path d="M185.139 21.95H163.279C161.346 21.95 159.779 23.517 159.779 25.45V47.31C159.779 49.243 161.346 50.81 163.279 50.81H185.139C187.072 50.81 188.639 49.243 188.639 47.31V25.45C188.639 23.517 187.072 21.95 185.139 21.95Z" fill="#1A2E35"/>
<path d="M183.15 28.42C183.15 28.42 183.14 28.38 183.13 28.36C183.13 28.34 183.13 28.33 183.13 28.31C183.13 28.3 183.11 28.29 183.11 28.28C183.1 28.25 183.08 28.22 183.05 28.19C183.04 28.17 183.03 28.16 183.01 28.15C183 28.14 182.98 28.13 182.97 28.12C182.97 28.12 182.96 28.1 182.95 28.1C182.91 28.08 182.87 28.08 182.83 28.08C182.81 28.08 182.8 28.06 182.78 28.06H169.72C169.64 28.06 169.57 28.08 169.51 28.13L165.43 30.99C165.43 30.99 165.42 31.01 165.41 31.02C165.39 31.04 165.38 31.06 165.36 31.09C165.32 31.14 165.3 31.19 165.29 31.25C165.29 31.27 165.27 31.28 165.27 31.3V44.36C165.27 44.36 165.3 44.43 165.31 44.46C165.32 44.5 165.31 44.54 165.33 44.57C165.33 44.57 165.35 44.57 165.36 44.58C165.43 44.66 165.52 44.72 165.63 44.72H178.69C178.76 44.72 178.84 44.7 178.9 44.65L182.98 41.79C182.98 41.79 183 41.77 183.01 41.76C183.02 41.75 183.03 41.74 183.04 41.72C183.1 41.65 183.14 41.58 183.14 41.49V28.43L183.15 28.42ZM179.07 41.11V31.47L180.38 30.55L182.41 29.12V41.11H179.07ZM166.01 31.65H169.35V41.29L166.01 43.64V31.65ZM169.83 41.85H178.33V43.98H166.8L169.83 41.85ZM170.08 41.11V31.65H178.33V41.11H170.08ZM181.61 28.78L180.48 29.57L178.58 30.9H170.08V28.77H181.61V28.78ZM169.34 29.12V30.91H166.8L169.34 29.12ZM179.06 41.84H181.6L179.06 43.63V41.84Z" fill="#2673E5"/>
<g opacity="0.2">
<path d="M183.13 28.36C183.13 28.36 183.13 28.33 183.13 28.31C183.13 28.3 183.11 28.29 183.11 28.28C183.1 28.25 183.08 28.22 183.05 28.19C183.04 28.17 183.03 28.16 183.01 28.15C183 28.14 182.98 28.13 182.97 28.12C182.97 28.12 182.96 28.1 182.95 28.1C182.91 28.08 182.87 28.08 182.83 28.08C182.81 28.08 182.8 28.06 182.78 28.06H169.72C169.64 28.06 169.57 28.08 169.51 28.13L165.43 30.99C165.43 30.99 165.42 31.01 165.41 31.02C165.39 31.04 165.38 31.06 165.36 31.09C165.32 31.14 165.3 31.19 165.29 31.25C165.29 31.27 165.27 31.28 165.27 31.3V44.36C165.27 44.36 165.3 44.43 165.31 44.46C165.32 44.5 165.31 44.54 165.33 44.57C165.33 44.57 165.35 44.57 165.36 44.58C165.43 44.66 165.52 44.72 165.63 44.72H178.69C178.76 44.72 178.84 44.7 178.9 44.65L182.98 41.79C182.98 41.79 183 41.77 183.01 41.76C183.02 41.75 183.03 41.74 183.04 41.72C183.1 41.65 183.14 41.58 183.14 41.49V28.43C183.14 28.43 183.13 28.39 183.12 28.37L183.13 28.36ZM169.35 29.13V30.92H166.81L169.35 29.13ZM166.01 31.65H169.35V41.29L166.01 43.64V31.65ZM178.34 43.98H166.81L169.84 41.85H178.34V43.98ZM178.34 41.12H170.09V31.66H178.34V41.12ZM178.59 30.92H170.09V28.79H181.62L180.49 29.58L178.59 30.91V30.92ZM179.07 43.64V41.85H181.61L179.07 43.64ZM182.41 41.12H179.07V31.48L180.38 30.56L182.41 29.13V41.12Z" fill="white"/>
</g>
<path d="M122.479 21.95H100.619C98.6861 21.95 97.1191 23.517 97.1191 25.45V47.31C97.1191 49.243 98.6861 50.81 100.619 50.81H122.479C124.412 50.81 125.979 49.243 125.979 47.31V25.45C125.979 23.517 124.412 21.95 122.479 21.95Z" fill="#1A2E35"/>
<path d="M107.059 28.42L102.979 31.29V44.35H116.049L120.119 41.49V28.42H107.059Z" fill="#2673E5"/>
<g opacity="0.6">
<path d="M102.979 31.29L107.059 28.42H120.119L116.049 31.29H102.979Z" fill="white"/>
</g>
<g opacity="0.3">
<path d="M120.119 28.42V41.49L116.049 44.35V31.29L120.119 28.42Z" fill="black"/>
</g>
<g opacity="0.2">
<path d="M107.059 28.42L102.979 31.29V44.35H116.049L120.119 41.49V28.42H107.059Z" fill="white"/>
</g>
<path d="M286.579 159.82L286.799 159.73H93.7191L93.4991 159.82H93.2491L13.2891 193.27H13.5391L13.3191 193.36H206.389L206.609 193.27H206.859L286.829 159.82H286.579ZM274.969 164.51H258.079L269.069 159.91H285.959L274.969 164.51ZM112.029 174.25H128.919L117.929 178.85H101.039L112.029 174.25ZM100.389 178.85H83.4991L94.4891 174.25H111.379L100.389 178.85ZM181.969 174.07H165.079L176.069 169.47H192.959L181.969 174.07ZM193.609 169.47H210.499L199.509 174.07H182.619L193.609 169.47ZM147.109 174.25H163.999L153.009 178.85H136.119L147.109 174.25ZM135.469 178.85H118.579L129.569 174.25H146.459L135.469 178.85ZM164.649 174.25H181.539L170.549 178.85H153.659L164.649 174.25ZM164.439 174.07H147.549L158.539 169.47H175.429L164.439 174.07ZM146.899 174.07H130.009L140.999 169.47H157.889L146.899 174.07ZM129.359 174.07H112.469L123.459 169.47H140.349L129.359 174.07ZM117.499 179.03L106.509 183.63H89.6191L100.609 179.03H117.499ZM118.149 179.03H135.039L124.049 183.63H107.159L118.149 179.03ZM135.689 179.03H152.579L141.589 183.63H124.699L135.689 179.03ZM153.229 179.03H170.119L159.129 183.63H142.239L153.229 179.03ZM170.769 179.03H187.659L176.669 183.63H159.779L170.769 179.03ZM171.209 178.85L182.199 174.25H199.089L188.099 178.85H171.209ZM199.729 174.25H216.619L205.629 178.85H188.739L199.729 174.25ZM200.169 174.07L211.159 169.47H228.049L217.059 174.07H200.169ZM211.589 169.29L222.579 164.69H239.469L228.479 169.29H211.589ZM210.939 169.29H194.049L205.039 164.69H221.929L210.939 169.29ZM193.399 169.29H176.509L187.499 164.69H204.389L193.399 169.29ZM175.859 169.29H158.969L169.959 164.69H186.849L175.859 169.29ZM158.319 169.29H141.429L152.419 164.69H169.309L158.319 169.29ZM140.779 169.29H123.889L134.879 164.69H151.769L140.779 169.29ZM123.239 169.29H106.349L117.339 164.69H134.229L123.239 169.29ZM122.799 169.47L111.809 174.07H94.9191L105.909 169.47H122.799ZM94.2691 174.07H77.3791L88.3691 169.47H105.259L94.2691 174.07ZM93.8291 174.25L82.8391 178.85H65.9491L76.9391 174.25H93.8291ZM82.4091 179.03L71.4191 183.63H54.5291L65.5191 179.03H82.4091ZM83.0591 179.03H99.9491L88.9591 183.63H72.0691L83.0591 179.03ZM88.5191 183.81L77.5291 188.41H60.6391L71.6291 183.81H88.5191ZM89.1691 183.81H106.059L95.0691 188.41H78.1791L89.1691 183.81ZM106.709 183.81H123.599L112.609 188.41H95.7191L106.709 183.81ZM124.249 183.81H141.139L130.149 188.41H113.259L124.249 183.81ZM141.789 183.81H158.679L147.689 188.41H130.799L141.789 183.81ZM159.329 183.81H176.219L165.229 188.41H148.339L159.329 183.81ZM176.869 183.81H193.759L182.769 188.41H165.879L176.869 183.81ZM177.309 183.63L188.299 179.03H205.189L194.199 183.63H177.309ZM205.839 179.03H222.729L211.739 183.63H194.849L205.839 179.03ZM206.279 178.85L217.269 174.25H234.159L223.169 178.85H206.279ZM217.699 174.07L228.689 169.47H245.579L234.589 174.07H217.699ZM229.119 169.29L240.109 164.69H256.999L246.009 169.29H229.119ZM240.539 164.51L251.529 159.91H268.419L257.429 164.51H240.539ZM239.889 164.51H222.999L233.989 159.91H250.879L239.889 164.51ZM222.349 164.51H205.459L216.449 159.91H233.339L222.349 164.51ZM204.809 164.51H187.919L198.909 159.91H215.799L204.809 164.51ZM187.269 164.51H170.379L181.369 159.91H198.259L187.269 164.51ZM169.729 164.51H152.839L163.829 159.91H180.719L169.729 164.51ZM152.189 164.51H135.299L146.289 159.91H163.179L152.189 164.51ZM134.649 164.51H117.759L128.749 159.91H145.639L134.649 164.51ZM117.109 164.51H100.219L111.209 159.91H128.099L117.109 164.51ZM116.669 164.69L105.679 169.29H88.7891L99.7791 164.69H116.669ZM88.1391 169.29H71.2491L82.2391 164.69H99.1291L88.1391 169.29ZM87.6991 169.47L76.7091 174.07H59.8191L70.8091 169.47H87.6991ZM76.2791 174.25L65.2891 178.85H48.3991L59.3891 174.25H76.2791ZM64.8591 179.03L53.8691 183.63H36.9791L47.9691 179.03H64.8591ZM53.4391 183.81L42.4491 188.41H25.5791L36.5691 183.81H53.4591H53.4391ZM54.0891 183.81H70.9791L59.9891 188.41H43.0991L54.0891 183.81ZM59.5491 188.59L48.5591 193.19H31.6991L42.6891 188.59H59.5791H59.5491ZM60.1991 188.59H77.0891L66.0991 193.19H49.2091L60.1991 188.59ZM77.7391 188.59H94.6291L83.6391 193.19H66.7491L77.7391 188.59ZM95.2791 188.59H112.169L101.179 193.19H84.2891L95.2791 188.59ZM112.819 188.59H129.709L118.719 193.19H101.829L112.819 188.59ZM130.359 188.59H147.249L136.259 193.19H119.369L130.359 188.59ZM147.899 188.59H164.789L153.799 193.19H136.909L147.899 188.59ZM165.439 188.59H182.329L171.339 193.19H154.449L165.439 188.59ZM182.979 188.59H199.869L188.879 193.19H171.989L182.979 188.59ZM183.419 188.41L194.409 183.81H211.299L200.309 188.41H183.419ZM211.949 183.81H228.839L217.849 188.41H200.959L211.949 183.81ZM212.389 183.63L223.379 179.03H240.269L229.279 183.63H212.389ZM223.809 178.85L234.799 174.25H251.689L240.699 178.85H223.809ZM235.229 174.07L246.219 169.47H263.109L252.119 174.07H235.229ZM246.649 169.29L257.639 164.69H274.529L263.539 169.29H246.649ZM110.559 159.92L99.5691 164.52H82.6791L93.6691 159.92H110.559ZM25.1291 188.59H42.0191L31.0291 193.19H14.1591L25.1491 188.59H25.1291ZM189.529 193.19L200.519 188.59H217.409L206.419 193.19H189.529Z" fill="#2673E5"/>
<g opacity="0.4">
<path d="M286.579 159.82L286.799 159.73H93.7191L93.4991 159.82H93.2491L13.2891 193.27H13.5391L13.3191 193.36H206.389L206.609 193.27H206.859L286.829 159.82H286.579ZM274.969 164.51H258.079L269.069 159.91H285.959L274.969 164.51ZM112.029 174.25H128.919L117.929 178.85H101.039L112.029 174.25ZM100.389 178.85H83.4991L94.4891 174.25H111.379L100.389 178.85ZM181.969 174.07H165.079L176.069 169.47H192.959L181.969 174.07ZM193.609 169.47H210.499L199.509 174.07H182.619L193.609 169.47ZM147.109 174.25H163.999L153.009 178.85H136.119L147.109 174.25ZM135.469 178.85H118.579L129.569 174.25H146.459L135.469 178.85ZM164.649 174.25H181.539L170.549 178.85H153.659L164.649 174.25ZM164.439 174.07H147.549L158.539 169.47H175.429L164.439 174.07ZM146.899 174.07H130.009L140.999 169.47H157.889L146.899 174.07ZM129.359 174.07H112.469L123.459 169.47H140.349L129.359 174.07ZM117.499 179.03L106.509 183.63H89.6191L100.609 179.03H117.499ZM118.149 179.03H135.039L124.049 183.63H107.159L118.149 179.03ZM135.689 179.03H152.579L141.589 183.63H124.699L135.689 179.03ZM153.229 179.03H170.119L159.129 183.63H142.239L153.229 179.03ZM170.769 179.03H187.659L176.669 183.63H159.779L170.769 179.03ZM171.209 178.85L182.199 174.25H199.089L188.099 178.85H171.209ZM199.729 174.25H216.619L205.629 178.85H188.739L199.729 174.25ZM200.169 174.07L211.159 169.47H228.049L217.059 174.07H200.169ZM211.589 169.29L222.579 164.69H239.469L228.479 169.29H211.589ZM210.939 169.29H194.049L205.039 164.69H221.929L210.939 169.29ZM193.399 169.29H176.509L187.499 164.69H204.389L193.399 169.29ZM175.859 169.29H158.969L169.959 164.69H186.849L175.859 169.29ZM158.319 169.29H141.429L152.419 164.69H169.309L158.319 169.29ZM140.779 169.29H123.889L134.879 164.69H151.769L140.779 169.29ZM123.239 169.29H106.349L117.339 164.69H134.229L123.239 169.29ZM122.799 169.47L111.809 174.07H94.9191L105.909 169.47H122.799ZM94.2691 174.07H77.3791L88.3691 169.47H105.259L94.2691 174.07ZM93.8291 174.25L82.8391 178.85H65.9491L76.9391 174.25H93.8291ZM82.4091 179.03L71.4191 183.63H54.5291L65.5191 179.03H82.4091ZM83.0591 179.03H99.9491L88.9591 183.63H72.0691L83.0591 179.03ZM88.5191 183.81L77.5291 188.41H60.6391L71.6291 183.81H88.5191ZM89.1691 183.81H106.059L95.0691 188.41H78.1791L89.1691 183.81ZM106.709 183.81H123.599L112.609 188.41H95.7191L106.709 183.81ZM124.249 183.81H141.139L130.149 188.41H113.259L124.249 183.81ZM141.789 183.81H158.679L147.689 188.41H130.799L141.789 183.81ZM159.329 183.81H176.219L165.229 188.41H148.339L159.329 183.81ZM176.869 183.81H193.759L182.769 188.41H165.879L176.869 183.81ZM177.309 183.63L188.299 179.03H205.189L194.199 183.63H177.309ZM205.839 179.03H222.729L211.739 183.63H194.849L205.839 179.03ZM206.279 178.85L217.269 174.25H234.159L223.169 178.85H206.279ZM217.699 174.07L228.689 169.47H245.579L234.589 174.07H217.699ZM229.119 169.29L240.109 164.69H256.999L246.009 169.29H229.119ZM240.539 164.51L251.529 159.91H268.419L257.429 164.51H240.539ZM239.889 164.51H222.999L233.989 159.91H250.879L239.889 164.51ZM222.349 164.51H205.459L216.449 159.91H233.339L222.349 164.51ZM204.809 164.51H187.919L198.909 159.91H215.799L204.809 164.51ZM187.269 164.51H170.379L181.369 159.91H198.259L187.269 164.51ZM169.729 164.51H152.839L163.829 159.91H180.719L169.729 164.51ZM152.189 164.51H135.299L146.289 159.91H163.179L152.189 164.51ZM134.649 164.51H117.759L128.749 159.91H145.639L134.649 164.51ZM117.109 164.51H100.219L111.209 159.91H128.099L117.109 164.51ZM116.669 164.69L105.679 169.29H88.7891L99.7791 164.69H116.669ZM88.1391 169.29H71.2491L82.2391 164.69H99.1291L88.1391 169.29ZM87.6991 169.47L76.7091 174.07H59.8191L70.8091 169.47H87.6991ZM76.2791 174.25L65.2891 178.85H48.3991L59.3891 174.25H76.2791ZM64.8591 179.03L53.8691 183.63H36.9791L47.9691 179.03H64.8591ZM53.4391 183.81L42.4491 188.41H25.5791L36.5691 183.81H53.4591H53.4391ZM54.0891 183.81H70.9791L59.9891 188.41H43.0991L54.0891 183.81ZM59.5491 188.59L48.5591 193.19H31.6991L42.6891 188.59H59.5791H59.5491ZM60.1991 188.59H77.0891L66.0991 193.19H49.2091L60.1991 188.59ZM77.7391 188.59H94.6291L83.6391 193.19H66.7491L77.7391 188.59ZM95.2791 188.59H112.169L101.179 193.19H84.2891L95.2791 188.59ZM112.819 188.59H129.709L118.719 193.19H101.829L112.819 188.59ZM130.359 188.59H147.249L136.259 193.19H119.369L130.359 188.59ZM147.899 188.59H164.789L153.799 193.19H136.909L147.899 188.59ZM165.439 188.59H182.329L171.339 193.19H154.449L165.439 188.59ZM182.979 188.59H199.869L188.879 193.19H171.989L182.979 188.59ZM183.419 188.41L194.409 183.81H211.299L200.309 188.41H183.419ZM211.949 183.81H228.839L217.849 188.41H200.959L211.949 183.81ZM212.389 183.63L223.379 179.03H240.269L229.279 183.63H212.389ZM223.809 178.85L234.799 174.25H251.689L240.699 178.85H223.809ZM235.229 174.07L246.219 169.47H263.109L252.119 174.07H235.229ZM246.649 169.29L257.639 164.69H274.529L263.539 169.29H246.649ZM110.559 159.92L99.5691 164.52H82.6791L93.6691 159.92H110.559ZM25.1291 188.59H42.0191L31.0291 193.19H14.1591L25.1491 188.59H25.1291ZM189.529 193.19L200.519 188.59H217.409L206.419 193.19H189.529Z" fill="white"/>
</g>
<path d="M223.94 24.75C210.73 24.75 199.99 35.49 199.99 48.7C199.99 61.91 210.73 72.65 223.94 72.65C237.15 72.65 247.89 61.91 247.89 48.7C247.89 35.49 237.15 24.75 223.94 24.75ZM246.48 48H227.42L245 40.65C245.88 42.95 246.39 45.42 246.47 48H246.48ZM244.47 39.36L224.65 47.65V26.16C233.46 26.43 241.01 31.77 244.47 39.36ZM223.25 26.16V48H201.41C201.77 36.12 211.37 26.53 223.25 26.16ZM220.47 49.39L202.88 56.75C202 54.45 201.48 51.98 201.41 49.39H220.47ZM203.43 58.03L223.25 49.74V71.23C214.44 70.96 206.9 65.62 203.43 58.03ZM224.65 71.23V49.39H246.49C246.13 61.27 236.53 70.86 224.65 71.23Z" fill="#2673E5"/>
<g opacity="0.6">
<path d="M223.94 24.75C210.73 24.75 199.99 35.49 199.99 48.7C199.99 61.91 210.73 72.65 223.94 72.65C237.15 72.65 247.89 61.91 247.89 48.7C247.89 35.49 237.15 24.75 223.94 24.75ZM246.48 48H227.42L245 40.65C245.88 42.95 246.39 45.42 246.47 48H246.48ZM244.47 39.36L224.65 47.65V26.16C233.46 26.43 241.01 31.77 244.47 39.36ZM223.25 26.16V48H201.41C201.77 36.12 211.37 26.53 223.25 26.16ZM220.47 49.39L202.88 56.75C202 54.45 201.48 51.98 201.41 49.39H220.47ZM203.43 58.03L223.25 49.74V71.23C214.44 70.96 206.9 65.62 203.43 58.03ZM224.65 71.23V49.39H246.49C246.13 61.27 236.53 70.86 224.65 71.23Z" fill="white"/>
</g>
<path d="M223.941 21.95L222.311 26.54H225.581L223.941 21.95Z" fill="#2673E5"/>
<path d="M250.68 48.69L246.1 47.06V50.33L250.68 48.69Z" fill="#2673E5"/>
<path d="M199.51 59.07L204.37 58.76L203.08 55.75L199.51 59.07Z" fill="#2673E5"/>
<path d="M202.49 58.37C202.22 58.37 201.96 58.21 201.85 57.94C201.7 57.58 201.87 57.18 202.22 57.03L223.67 48.06C224.03 47.91 224.43 48.08 224.58 48.43C224.73 48.79 224.56 49.19 224.21 49.34L202.76 58.31C202.67 58.35 202.58 58.36 202.49 58.36V58.37Z" fill="#2673E5"/>
<path d="M223.94 49.39C223.55 49.39 223.24 49.08 223.24 48.69V25.44C223.24 25.05 223.55 24.74 223.94 24.74C224.33 24.74 224.64 25.05 224.64 25.44V48.69C224.64 49.08 224.33 49.39 223.94 49.39Z" fill="#2673E5"/>
<path d="M247.19 49.39H223.94C223.55 49.39 223.24 49.08 223.24 48.69C223.24 48.3 223.55 47.99 223.94 47.99H247.19C247.58 47.99 247.89 48.3 247.89 48.69C247.89 49.08 247.58 49.39 247.19 49.39Z" fill="#2673E5"/>
<path d="M281.83 110.8H255.89C254.343 110.8 253.09 112.054 253.09 113.6V116.07C253.09 117.616 254.343 118.87 255.89 118.87H281.83C283.376 118.87 284.63 117.616 284.63 116.07V113.6C284.63 112.054 283.376 110.8 281.83 110.8Z" fill="#2673E5"/>
<g opacity="0.4">
<path d="M281.83 110.8H255.89C254.343 110.8 253.09 112.054 253.09 113.6V116.07C253.09 117.616 254.343 118.87 255.89 118.87H281.83C283.376 118.87 284.63 117.616 284.63 116.07V113.6C284.63 112.054 283.376 110.8 281.83 110.8Z" fill="white"/>
</g>
<path d="M281.83 120.15H255.89C254.343 120.15 253.09 121.404 253.09 122.95V125.42C253.09 126.966 254.343 128.22 255.89 128.22H281.83C283.376 128.22 284.63 126.966 284.63 125.42V122.95C284.63 121.404 283.376 120.15 281.83 120.15Z" fill="#2673E5"/>
<g opacity="0.4">
<path d="M281.83 120.15H255.89C254.343 120.15 253.09 121.404 253.09 122.95V125.42C253.09 126.966 254.343 128.22 255.89 128.22H281.83C283.376 128.22 284.63 126.966 284.63 125.42V122.95C284.63 121.404 283.376 120.15 281.83 120.15Z" fill="white"/>
</g>
<path d="M281.83 129.49H255.89C254.343 129.49 253.09 130.744 253.09 132.29V134.76C253.09 136.306 254.343 137.56 255.89 137.56H281.83C283.376 137.56 284.63 136.306 284.63 134.76V132.29C284.63 130.744 283.376 129.49 281.83 129.49Z" fill="#2673E5"/>
<g opacity="0.4">
<path d="M281.83 129.49H255.89C254.343 129.49 253.09 130.744 253.09 132.29V134.76C253.09 136.306 254.343 137.56 255.89 137.56H281.83C283.376 137.56 284.63 136.306 284.63 134.76V132.29C284.63 130.744 283.376 129.49 281.83 129.49Z" fill="white"/>
</g>
<path d="M281.83 138.83H255.89C254.343 138.83 253.09 140.084 253.09 141.63V144.1C253.09 145.646 254.343 146.9 255.89 146.9H281.83C283.376 146.9 284.63 145.646 284.63 144.1V141.63C284.63 140.084 283.376 138.83 281.83 138.83Z" fill="#2673E5"/>
<g opacity="0.4">
<path d="M281.83 138.83H255.89C254.343 138.83 253.09 140.084 253.09 141.63V144.1C253.09 145.646 254.343 146.9 255.89 146.9H281.83C283.376 146.9 284.63 145.646 284.63 144.1V141.63C284.63 140.084 283.376 138.83 281.83 138.83Z" fill="white"/>
</g>
<path d="M281.83 148.17H255.89C254.343 148.17 253.09 149.424 253.09 150.97V153.44C253.09 154.986 254.343 156.24 255.89 156.24H281.83C283.376 156.24 284.63 154.986 284.63 153.44V150.97C284.63 149.424 283.376 148.17 281.83 148.17Z" fill="#2673E5"/>
<g opacity="0.4">
<path d="M281.83 148.17H255.89C254.343 148.17 253.09 149.424 253.09 150.97V153.44C253.09 154.986 254.343 156.24 255.89 156.24H281.83C283.376 156.24 284.63 154.986 284.63 153.44V150.97C284.63 149.424 283.376 148.17 281.83 148.17Z" fill="white"/>
</g>
<path d="M283.069 21.95H262.119C261.257 21.95 260.559 22.6484 260.559 23.51V89.32C260.559 90.1816 261.257 90.88 262.119 90.88H283.069C283.93 90.88 284.629 90.1816 284.629 89.32V23.51C284.629 22.6484 283.93 21.95 283.069 21.95Z" fill="#2673E5"/>
<g opacity="0.4">
<path d="M270.349 24.68H264.759C263.997 24.68 263.379 25.2978 263.379 26.06V31.65C263.379 32.4121 263.997 33.03 264.759 33.03H270.349C271.111 33.03 271.729 32.4121 271.729 31.65V26.06C271.729 25.2978 271.111 24.68 270.349 24.68Z" fill="white"/>
</g>
<g opacity="0.4">
<path d="M280.429 24.68H274.839C274.077 24.68 273.459 25.2978 273.459 26.06V31.65C273.459 32.4121 274.077 33.03 274.839 33.03H280.429C281.191 33.03 281.809 32.4121 281.809 31.65V26.06C281.809 25.2978 281.191 24.68 280.429 24.68Z" fill="white"/>
</g>
<g opacity="0.4">
<path d="M270.349 34.45H264.759C263.997 34.45 263.379 35.0679 263.379 35.83V41.42C263.379 42.1822 263.997 42.8 264.759 42.8H270.349C271.111 42.8 271.729 42.1822 271.729 41.42V35.83C271.729 35.0679 271.111 34.45 270.349 34.45Z" fill="white"/>
</g>
<g opacity="0.4">
<path d="M280.429 34.45H274.839C274.077 34.45 273.459 35.0679 273.459 35.83V41.42C273.459 42.1822 274.077 42.8 274.839 42.8H280.429C281.191 42.8 281.809 42.1822 281.809 41.42V35.83C281.809 35.0679 281.191 34.45 280.429 34.45Z" fill="white"/>
</g>
<g opacity="0.4">
<path d="M270.349 44.22H264.759C263.997 44.22 263.379 44.8378 263.379 45.6V51.19C263.379 51.9521 263.997 52.57 264.759 52.57H270.349C271.111 52.57 271.729 51.9521 271.729 51.19V45.6C271.729 44.8378 271.111 44.22 270.349 44.22Z" fill="white"/>
</g>
<g opacity="0.4">
<path d="M280.429 44.22H274.839C274.077 44.22 273.459 44.8378 273.459 45.6V51.19C273.459 51.9521 274.077 52.57 274.839 52.57H280.429C281.191 52.57 281.809 51.9521 281.809 51.19V45.6C281.809 44.8378 281.191 44.22 280.429 44.22Z" fill="white"/>
</g>
<g opacity="0.4">
<path d="M270.349 53.99H264.759C263.997 53.99 263.379 54.6078 263.379 55.37V60.96C263.379 61.7221 263.997 62.34 264.759 62.34H270.349C271.111 62.34 271.729 61.7221 271.729 60.96V55.37C271.729 54.6078 271.111 53.99 270.349 53.99Z" fill="white"/>
</g>
<g opacity="0.4">
<path d="M280.429 53.99H274.839C274.077 53.99 273.459 54.6078 273.459 55.37V60.96C273.459 61.7221 274.077 62.34 274.839 62.34H280.429C281.191 62.34 281.809 61.7221 281.809 60.96V55.37C281.809 54.6078 281.191 53.99 280.429 53.99Z" fill="white"/>
</g>
<g opacity="0.4">
<path d="M270.349 79.81H264.759C263.997 79.81 263.379 80.4278 263.379 81.19V86.78C263.379 87.5422 263.997 88.16 264.759 88.16H270.349C271.111 88.16 271.729 87.5422 271.729 86.78V81.19C271.729 80.4278 271.111 79.81 270.349 79.81Z" fill="white"/>
</g>
<g opacity="0.4">
<path d="M280.429 79.81H274.839C274.077 79.81 273.459 80.4278 273.459 81.19V86.78C273.459 87.5422 274.077 88.16 274.839 88.16H280.429C281.191 88.16 281.809 87.5422 281.809 86.78V81.19C281.809 80.4278 281.191 79.81 280.429 79.81Z" fill="white"/>
</g>
<g opacity="0.4">
<path d="M270.349 70.04H264.759C263.997 70.04 263.379 70.6578 263.379 71.42V77.01C263.379 77.7721 263.997 78.39 264.759 78.39H270.349C271.111 78.39 271.729 77.7721 271.729 77.01V71.42C271.729 70.6578 271.111 70.04 270.349 70.04Z" fill="white"/>
</g>
<g opacity="0.4">
<path d="M280.429 70.04H274.839C274.077 70.04 273.459 70.6578 273.459 71.42V77.01C273.459 77.7721 274.077 78.39 274.839 78.39H280.429C281.191 78.39 281.809 77.7721 281.809 77.01V71.42C281.809 70.6578 281.191 70.04 280.429 70.04Z" fill="white"/>
</g>
<path d="M120.561 154.02L121.141 148.83L121.761 143.64L123.071 133.28L124.481 122.93C124.971 119.48 125.461 116.03 126.001 112.59H126.021C125.651 116.06 125.241 119.51 124.821 122.97L123.511 133.33L122.101 143.68L121.361 148.85L120.581 154.02H120.561Z" fill="#1A2E35"/>
<path d="M122.53 152.82L122.26 152.48L120.6 153.85L119.35 152.1L118.99 152.35L120.51 154.49L122.53 152.82Z" fill="#1A2E35"/>
<path d="M127.591 114.26L127.241 114.51L125.991 112.75L124.331 114.13L124.051 113.79L126.071 112.12L127.591 114.26Z" fill="#1A2E35"/>
<path d="M221.862 86.09L205.132 86.2L188.402 86.23L154.942 86.31L121.472 86.23L104.742 86.2L88.0117 86.09V86.08L104.742 85.98L121.472 85.94L154.942 85.87L188.402 85.94L205.132 85.98L221.862 86.08V86.09Z" fill="#1A2E35"/>
<path d="M220.421 84.3L220.121 84.62L221.701 86.09L220.121 87.55L220.421 87.87L222.341 86.09L220.421 84.3Z" fill="#1A2E35"/>
<path d="M89.461 84.3L89.761 84.62L88.181 86.09L89.761 87.55L89.461 87.87L87.541 86.09L89.461 84.3Z" fill="#1A2E35"/>
<path d="M125.83 108.4C141.36 108.11 158.62 108.12 174.15 108.4C158.61 108.68 141.36 108.69 125.83 108.4Z" fill="#1A2E35"/>
<path d="M86.3594 166.76C88.6194 140.96 91.4594 112.3 94.2894 86.54C92.0194 112.37 89.1994 141.01 86.3594 166.76Z" fill="#1A2E35"/>
<path d="M222.34 88.86C175.57 89.13 123.1 89.13 76.3301 88.86C123.1 88.59 175.57 88.59 222.34 88.86Z" fill="#1A2E35"/>
<path d="M221.862 168.6L205.132 168.7L188.402 168.74L154.942 168.81L121.472 168.74L104.742 168.71L88.0117 168.6V168.59L104.742 168.49L121.472 168.45L154.942 168.38L188.402 168.45L205.132 168.49L221.862 168.59V168.6Z" fill="#1A2E35"/>
<path d="M220.421 166.81L220.121 167.13L221.701 168.6L220.121 170.06L220.421 170.38L222.341 168.6L220.421 166.81Z" fill="#1A2E35"/>
<path d="M89.461 166.81L89.761 167.13L88.181 168.6L89.761 170.06L89.461 170.38L87.541 168.6L89.461 166.81Z" fill="#1A2E35"/>
<path d="M222.34 171.37C175.57 171.64 123.1 171.64 76.3301 171.37C123.1 171.1 175.57 171.1 222.34 171.37Z" fill="#1A2E35"/>
<path d="M224.93 87.77L224.03 97.53L223.05 107.29L221.1 126.79L219 146.28L217.95 156.03L216.83 165.77L217.74 156.01L218.71 146.25L220.66 126.75L222.76 107.26L223.81 97.51L224.93 87.77Z" fill="#1A2E35"/>
<path d="M223.129 87.82L223.419 88.14L225.039 86.73L226.329 88.45L226.679 88.18L225.099 86.09L223.129 87.82Z" fill="#1A2E35"/>
<path d="M215.199 164.14L215.549 163.88L216.849 165.6L218.469 164.18L218.759 164.51L216.779 166.24L215.199 164.14Z" fill="#1A2E35"/>
<path d="M208.059 91.52H111.349C106.639 91.52 102.689 95.1 102.229 99.79L96.8788 154.64C96.3488 160.02 100.589 164.69 105.999 164.69H202.709C207.419 164.69 211.369 161.11 211.829 156.42L217.179 101.57C217.709 96.19 213.469 91.52 208.059 91.52Z" fill="#1A2E35"/>
<path d="M202.299 91.35H105.589C100.879 91.35 96.929 94.93 96.469 99.62L91.119 154.47C90.589 159.85 94.829 164.52 100.239 164.52H196.949C201.659 164.52 205.609 160.94 206.069 156.25L211.419 101.4C211.949 96.02 207.709 91.35 202.299 91.35Z" fill="#007CFF"/>
<path opacity="0.05" d="M202.299 91.35H105.589C100.879 91.35 96.929 94.93 96.469 99.62L91.119 154.47C90.589 159.85 94.829 164.52 100.239 164.52H196.949C201.659 164.52 205.609 160.94 206.069 156.25L211.419 101.4C211.949 96.02 207.709 91.35 202.299 91.35Z" fill="white"/>
<path opacity="0.6" d="M185.779 91.35H121.769L114.629 164.53H178.639L185.779 91.35Z" fill="white"/>
<path d="M103.66 154.26C103.66 156.33 102.43 158.01 100.92 158.01C99.4097 158.01 98.1797 156.33 98.1797 154.26C98.1797 152.19 99.4097 150.51 100.92 150.51C102.43 150.51 103.66 152.19 103.66 154.26Z" fill="#1A2E35"/>
<path d="M103.019 154.26C103.019 156.33 101.789 158.01 100.279 158.01C98.7691 158.01 97.5391 156.33 97.5391 154.26C97.5391 152.19 98.7691 150.51 100.279 150.51C101.789 150.51 103.019 152.19 103.019 154.26Z" fill="#007CFF"/>
<path opacity="0.5" d="M103.019 154.26C103.019 156.33 101.789 158.01 100.279 158.01C98.7691 158.01 97.5391 156.33 97.5391 154.26C97.5391 152.19 98.7691 150.51 100.279 150.51C101.789 150.51 103.019 152.19 103.019 154.26Z" fill="black"/>
<path d="M108.15 158.01C109.663 158.01 110.89 156.331 110.89 154.26C110.89 152.189 109.663 150.51 108.15 150.51C106.637 150.51 105.41 152.189 105.41 154.26C105.41 156.331 106.637 158.01 108.15 158.01Z" fill="#1A2E35"/>
<path d="M110.259 154.26C110.259 156.33 109.029 158.01 107.519 158.01C106.009 158.01 104.779 156.33 104.779 154.26C104.779 152.19 106.009 150.51 107.519 150.51C109.029 150.51 110.259 152.19 110.259 154.26Z" fill="#007CFF"/>
<path opacity="0.4" d="M110.259 154.26C110.259 156.33 109.029 158.01 107.519 158.01C106.009 158.01 104.779 156.33 104.779 154.26C104.779 152.19 106.009 150.51 107.519 150.51C109.029 150.51 110.259 152.19 110.259 154.26Z" fill="black"/>
<path d="M190.259 154.2C190.259 156.24 189.049 157.89 187.559 157.89C186.069 157.89 184.859 156.24 184.859 154.2C184.859 152.16 186.069 150.51 187.559 150.51C189.049 150.51 190.259 152.16 190.259 154.2Z" fill="#1A2E35"/>
<path d="M189.629 154.2C189.629 156.24 188.419 157.89 186.929 157.89C185.439 157.89 184.229 156.24 184.229 154.2C184.229 152.16 185.439 150.51 186.929 150.51C188.419 150.51 189.629 152.16 189.629 154.2Z" fill="#007CFF"/>
<path opacity="0.3" d="M189.629 154.2C189.629 156.24 188.419 157.89 186.929 157.89C185.439 157.89 184.229 156.24 184.229 154.2C184.229 152.16 185.439 150.51 186.929 150.51C188.419 150.51 189.629 152.16 189.629 154.2Z" fill="black"/>
<path d="M197.38 154.2C197.38 156.24 196.17 157.89 194.68 157.89C193.19 157.89 191.98 156.24 191.98 154.2C191.98 152.16 193.19 150.51 194.68 150.51C196.17 150.51 197.38 152.16 197.38 154.2Z" fill="#1A2E35"/>
<path d="M196.75 154.2C196.75 156.24 195.54 157.89 194.05 157.89C192.56 157.89 191.35 156.24 191.35 154.2C191.35 152.16 192.56 150.51 194.05 150.51C195.54 150.51 196.75 152.16 196.75 154.2Z" fill="#007CFF"/>
<path opacity="0.2" d="M196.75 154.2C196.75 156.24 195.54 157.89 194.05 157.89C192.56 157.89 191.35 156.24 191.35 154.2C191.35 152.16 192.56 150.51 194.05 150.51C195.54 150.51 196.75 152.16 196.75 154.2Z" fill="black"/>
<path d="M194.98 110.79C194.98 113.16 193.57 115.09 191.83 115.09C190.09 115.09 188.68 113.17 188.68 110.79C188.68 108.41 190.09 106.49 191.83 106.49C193.57 106.49 194.98 108.41 194.98 110.79Z" fill="#1A2E35"/>
<path d="M191.099 115.09C192.839 115.09 194.249 113.165 194.249 110.79C194.249 108.415 192.839 106.49 191.099 106.49C189.36 106.49 187.949 108.415 187.949 110.79C187.949 113.165 189.36 115.09 191.099 115.09Z" fill="#007CFF"/>
<path opacity="0.2" d="M191.099 115.09C192.839 115.09 194.249 113.165 194.249 110.79C194.249 108.415 192.839 106.49 191.099 106.49C189.36 106.49 187.949 108.415 187.949 110.79C187.949 113.165 189.36 115.09 191.099 115.09Z" fill="white"/>
<path d="M194.98 122.36C194.98 124.73 193.57 126.66 191.83 126.66C190.09 126.66 188.68 124.74 188.68 122.36C188.68 119.98 190.09 118.06 191.83 118.06C193.57 118.06 194.98 119.98 194.98 122.36Z" fill="#1A2E35"/>
<path d="M191.099 126.66C192.839 126.66 194.249 124.735 194.249 122.36C194.249 119.985 192.839 118.06 191.099 118.06C189.36 118.06 187.949 119.985 187.949 122.36C187.949 124.735 189.36 126.66 191.099 126.66Z" fill="#007CFF"/>
<path opacity="0.5" d="M191.099 126.66C192.839 126.66 194.249 124.735 194.249 122.36C194.249 119.985 192.839 118.06 191.099 118.06C189.36 118.06 187.949 119.985 187.949 122.36C187.949 124.735 189.36 126.66 191.099 126.66Z" fill="white"/>
<path d="M201.83 126.66C203.569 126.66 204.98 124.735 204.98 122.36C204.98 119.985 203.569 118.06 201.83 118.06C200.09 118.06 198.68 119.985 198.68 122.36C198.68 124.735 200.09 126.66 201.83 126.66Z" fill="#1A2E35"/>
<path d="M201.099 126.66C202.839 126.66 204.249 124.735 204.249 122.36C204.249 119.985 202.839 118.06 201.099 118.06C199.36 118.06 197.949 119.985 197.949 122.36C197.949 124.735 199.36 126.66 201.099 126.66Z" fill="#007CFF"/>
<path opacity="0.3" d="M201.099 126.66C202.839 126.66 204.249 124.735 204.249 122.36C204.249 119.985 202.839 118.06 201.099 118.06C199.36 118.06 197.949 119.985 197.949 122.36C197.949 124.735 199.36 126.66 201.099 126.66Z" fill="white"/>
<path d="M201.83 115.09C203.569 115.09 204.98 113.165 204.98 110.79C204.98 108.415 203.569 106.49 201.83 106.49C200.09 106.49 198.68 108.415 198.68 110.79C198.68 113.165 200.09 115.09 201.83 115.09Z" fill="#1A2E35"/>
<path d="M201.099 115.09C202.839 115.09 204.249 113.165 204.249 110.79C204.249 108.415 202.839 106.49 201.099 106.49C199.36 106.49 197.949 108.415 197.949 110.79C197.949 113.165 199.36 115.09 201.099 115.09Z" fill="#007CFF"/>
<path opacity="0.4" d="M201.099 115.09C202.839 115.09 204.249 113.165 204.249 110.79C204.249 108.415 202.839 106.49 201.099 106.49C199.36 106.49 197.949 108.415 197.949 110.79C197.949 113.165 199.36 115.09 201.099 115.09Z" fill="white"/>
<path d="M114.53 115.25H110.15L110.78 109.76H104.17L103.54 115.25H99.1195L98.5195 121.14H102.87L102.27 126.36H108.88L109.47 121.14H113.93L114.53 115.25Z" fill="#1A2E35"/>
<path d="M113.569 115.25H109.189L109.819 109.76H103.209L102.579 115.25H98.1586L97.5586 121.14H101.909L101.309 126.36H107.919L108.509 121.14H112.969L113.569 115.25Z" fill="#007CFF"/>
<path opacity="0.4" d="M106.839 118.2C106.839 119.2 106.249 120.01 105.519 120.01C104.789 120.01 104.199 119.2 104.199 118.2C104.199 117.2 104.789 116.39 105.519 116.39C106.249 116.39 106.839 117.2 106.839 118.2Z" fill="black"/>
<path opacity="0.5" d="M98.8086 118.2L102.139 116.69L101.129 118.2L101.589 119.71L98.8086 118.2Z" fill="black"/>
<path opacity="0.5" d="M112.189 118.2L108.879 119.71L109.879 118.2L109.429 116.69L112.189 118.2Z" fill="black"/>
<path opacity="0.5" d="M106.158 111.27L104.338 114.73L105.858 114.05L107.628 114.8L106.158 111.27Z" fill="black"/>
<path opacity="0.5" d="M104.709 125.05L106.519 121.59L104.999 122.28L103.229 121.52L104.709 125.05Z" fill="black"/>
<path opacity="0.05" d="M113.569 115.25H109.189L109.819 109.76H103.209L102.579 115.25H98.1586L97.5586 121.14H101.909L101.309 126.36H107.919L108.509 121.14H112.969L113.569 115.25Z" fill="black"/>
<path d="M105.389 137.5C105.389 137.78 105.159 138.01 104.879 138.01C104.599 138.01 104.369 137.78 104.369 137.5C104.369 137.22 104.599 136.99 104.879 136.99C105.159 136.99 105.389 137.22 105.389 137.5Z" fill="black"/>
<path d="M102.819 137.5C102.819 137.78 102.589 138.01 102.309 138.01C102.029 138.01 101.799 137.78 101.799 137.5C101.799 137.22 102.029 136.99 102.309 136.99C102.589 136.99 102.819 137.22 102.819 137.5Z" fill="black"/>
<path d="M100.249 137.5C100.249 137.78 100.019 138.01 99.7385 138.01C99.4585 138.01 99.2285 137.78 99.2285 137.5C99.2285 137.22 99.4585 136.99 99.7385 136.99C100.019 136.99 100.249 137.22 100.249 137.5Z" fill="black"/>
<path d="M107.948 137.5C107.948 137.78 107.718 138.01 107.438 138.01C107.158 138.01 106.928 137.78 106.928 137.5C106.928 137.22 107.158 136.99 107.438 136.99C107.718 136.99 107.948 137.22 107.948 137.5Z" fill="black"/>
<path d="M110.518 137.5C110.518 137.78 110.288 138.01 110.008 138.01C109.728 138.01 109.498 137.78 109.498 137.5C109.498 137.22 109.728 136.99 110.008 136.99C110.288 136.99 110.518 137.22 110.518 137.5Z" fill="black"/>
<path d="M104.879 135.45C105.161 135.45 105.389 135.222 105.389 134.94C105.389 134.658 105.161 134.43 104.879 134.43C104.597 134.43 104.369 134.658 104.369 134.94C104.369 135.222 104.597 135.45 104.879 135.45Z" fill="black"/>
<path d="M104.879 132.88C105.161 132.88 105.389 132.652 105.389 132.37C105.389 132.088 105.161 131.86 104.879 131.86C104.597 131.86 104.369 132.088 104.369 132.37C104.369 132.652 104.597 132.88 104.879 132.88Z" fill="black"/>
<path d="M104.879 140.58C105.161 140.58 105.389 140.352 105.389 140.07C105.389 139.788 105.161 139.56 104.879 139.56C104.597 139.56 104.369 139.788 104.369 140.07C104.369 140.352 104.597 140.58 104.879 140.58Z" fill="black"/>
<path d="M104.879 143.14C104.599 143.14 104.369 142.91 104.369 142.63C104.369 142.35 104.599 142.12 104.879 142.12C105.159 142.12 105.389 142.35 105.389 142.63C105.389 142.91 105.159 143.14 104.879 143.14Z" fill="black"/>
<path d="M103.059 136.2C103.34 136.2 103.569 135.972 103.569 135.69C103.569 135.408 103.34 135.18 103.059 135.18C102.777 135.18 102.549 135.408 102.549 135.69C102.549 135.972 102.777 136.2 103.059 136.2Z" fill="black"/>
<path d="M101.248 134.38C101.53 134.38 101.758 134.152 101.758 133.87C101.758 133.588 101.53 133.36 101.248 133.36C100.967 133.36 100.738 133.588 100.738 133.87C100.738 134.152 100.967 134.38 101.248 134.38Z" fill="black"/>
<path d="M106.688 139.83C106.969 139.83 107.198 139.602 107.198 139.32C107.198 139.038 106.969 138.81 106.688 138.81C106.406 138.81 106.178 139.038 106.178 139.32C106.178 139.602 106.406 139.83 106.688 139.83Z" fill="black"/>
<path d="M108.508 141.64C108.79 141.64 109.018 141.412 109.018 141.13C109.018 140.848 108.79 140.62 108.508 140.62C108.226 140.62 107.998 140.848 107.998 141.13C107.998 141.412 108.226 141.64 108.508 141.64Z" fill="black"/>
<path d="M103.059 139.83C103.34 139.83 103.569 139.602 103.569 139.32C103.569 139.038 103.34 138.81 103.059 138.81C102.777 138.81 102.549 139.038 102.549 139.32C102.549 139.602 102.777 139.83 103.059 139.83Z" fill="black"/>
<path d="M101.608 140.77C101.808 140.97 101.808 141.29 101.608 141.49C101.408 141.69 101.088 141.69 100.888 141.49C100.688 141.29 100.688 140.97 100.888 140.77C101.088 140.57 101.408 140.57 101.608 140.77Z" fill="black"/>
<path d="M106.688 136.2C106.969 136.2 107.198 135.972 107.198 135.69C107.198 135.408 106.969 135.18 106.688 135.18C106.406 135.18 106.178 135.408 106.178 135.69C106.178 135.972 106.406 136.2 106.688 136.2Z" fill="black"/>
<path d="M108.868 133.51C109.068 133.71 109.068 134.03 108.868 134.23C108.668 134.43 108.348 134.43 108.148 134.23C107.948 134.03 107.948 133.71 108.148 133.51C108.348 133.31 108.668 133.31 108.868 133.51Z" fill="black"/>
<path d="M194.981 138.52C195.262 138.52 195.491 138.292 195.491 138.01C195.491 137.728 195.262 137.5 194.981 137.5C194.699 137.5 194.471 137.728 194.471 138.01C194.471 138.292 194.699 138.52 194.981 138.52Z" fill="black"/>
<path d="M192.42 138.52C192.702 138.52 192.93 138.292 192.93 138.01C192.93 137.728 192.702 137.5 192.42 137.5C192.138 137.5 191.91 137.728 191.91 138.01C191.91 138.292 192.138 138.52 192.42 138.52Z" fill="black"/>
<path d="M189.85 138.52C190.132 138.52 190.36 138.292 190.36 138.01C190.36 137.728 190.132 137.5 189.85 137.5C189.568 137.5 189.34 137.728 189.34 138.01C189.34 138.292 189.568 138.52 189.85 138.52Z" fill="black"/>
<path d="M197.549 138.52C197.831 138.52 198.059 138.292 198.059 138.01C198.059 137.728 197.831 137.5 197.549 137.5C197.267 137.5 197.039 137.728 197.039 138.01C197.039 138.292 197.267 138.52 197.549 138.52Z" fill="black"/>
<path d="M200.62 138.01C200.62 138.29 200.39 138.52 200.11 138.52C199.83 138.52 199.6 138.29 199.6 138.01C199.6 137.73 199.83 137.5 200.11 137.5C200.39 137.5 200.62 137.73 200.62 138.01Z" fill="black"/>
<path d="M194.981 135.95C195.262 135.95 195.491 135.722 195.491 135.44C195.491 135.158 195.262 134.93 194.981 134.93C194.699 134.93 194.471 135.158 194.471 135.44C194.471 135.722 194.699 135.95 194.981 135.95Z" fill="black"/>
<path d="M194.981 133.39C195.262 133.39 195.491 133.162 195.491 132.88C195.491 132.598 195.262 132.37 194.981 132.37C194.699 132.37 194.471 132.598 194.471 132.88C194.471 133.162 194.699 133.39 194.981 133.39Z" fill="black"/>
<path d="M194.981 141.09C195.262 141.09 195.491 140.862 195.491 140.58C195.491 140.298 195.262 140.07 194.981 140.07C194.699 140.07 194.471 140.298 194.471 140.58C194.471 140.862 194.699 141.09 194.981 141.09Z" fill="black"/>
<path d="M194.981 143.65C194.701 143.65 194.471 143.42 194.471 143.14C194.471 142.86 194.701 142.63 194.981 142.63C195.261 142.63 195.491 142.86 195.491 143.14C195.491 143.42 195.261 143.65 194.981 143.65Z" fill="black"/>
<path d="M193.53 136.56C193.33 136.76 193.01 136.76 192.81 136.56C192.61 136.36 192.61 136.04 192.81 135.84C193.01 135.64 193.33 135.64 193.53 135.84C193.73 136.04 193.73 136.36 193.53 136.56Z" fill="black"/>
<path d="M191.71 134.74C191.51 134.94 191.19 134.94 190.99 134.74C190.79 134.54 190.79 134.22 190.99 134.02C191.19 133.82 191.51 133.82 191.71 134.02C191.91 134.22 191.91 134.54 191.71 134.74Z" fill="black"/>
<path d="M197.159 140.18C196.959 140.38 196.639 140.38 196.439 140.18C196.239 139.98 196.239 139.66 196.439 139.46C196.639 139.26 196.959 139.26 197.159 139.46C197.359 139.66 197.359 139.98 197.159 140.18Z" fill="black"/>
<path d="M198.97 142C198.77 142.2 198.45 142.2 198.25 142C198.05 141.8 198.05 141.48 198.25 141.28C198.45 141.08 198.77 141.08 198.97 141.28C199.17 141.48 199.17 141.8 198.97 142Z" fill="black"/>
<path d="M193.17 140.34C193.452 140.34 193.68 140.112 193.68 139.83C193.68 139.548 193.452 139.32 193.17 139.32C192.888 139.32 192.66 139.548 192.66 139.83C192.66 140.112 192.888 140.34 193.17 140.34Z" fill="black"/>
<path d="M191.36 142.15C191.641 142.15 191.87 141.922 191.87 141.64C191.87 141.358 191.641 141.13 191.36 141.13C191.078 141.13 190.85 141.358 190.85 141.64C190.85 141.922 191.078 142.15 191.36 142.15Z" fill="black"/>
<path d="M196.799 136.71C197.081 136.71 197.309 136.482 197.309 136.2C197.309 135.918 197.081 135.69 196.799 135.69C196.517 135.69 196.289 135.918 196.289 136.2C196.289 136.482 196.517 136.71 196.799 136.71Z" fill="black"/>
<path d="M198.61 134.89C198.891 134.89 199.12 134.662 199.12 134.38C199.12 134.098 198.891 133.87 198.61 133.87C198.328 133.87 198.1 134.098 198.1 134.38C198.1 134.662 198.328 134.89 198.61 134.89Z" fill="black"/>
<path d="M113.4 93.97L113 98.06H119.59L120 93.97H113.4Z" fill="#1A2E35"/>
<path opacity="0.5" d="M113.4 93.97L113 98.06H119.59L120 93.97H113.4Z" fill="white"/>
<path d="M105.17 93.97L104.77 98.06H111.35L111.77 93.97H105.17Z" fill="#1A2E35"/>
<path opacity="0.4" d="M105.17 93.97L104.77 98.06H111.35L111.77 93.97H105.17Z" fill="white"/>
<path d="M195.429 93.97L195.029 98.06H201.619L202.029 93.97H195.429Z" fill="#1A2E35"/>
<path opacity="0.2" d="M195.429 93.97L195.029 98.06H201.619L202.029 93.97H195.429Z" fill="white"/>
<path d="M187.199 93.97L186.799 98.06H193.379L193.799 93.97H187.199Z" fill="#1A2E35"/>
<path opacity="0.3" d="M187.199 93.97L186.799 98.06H193.379L193.799 93.97H187.199Z" fill="white"/>
<path d="M183.828 93.22H122.958L115.818 163H176.688L183.828 93.22Z" fill="#007CFF"/>
<path d="M129.369 110.43L128.939 116.9C128.889 117.63 129.469 118.24 130.189 118.24H134.879C135.539 118.24 136.089 117.73 136.129 117.07L136.559 110.6C136.609 109.87 136.029 109.26 135.309 109.26H130.619C129.959 109.26 129.409 109.77 129.369 110.43Z" fill="#007CFF"/>
<path opacity="0.3" d="M129.369 110.43L128.939 116.9C128.889 117.63 129.469 118.24 130.189 118.24H134.879C135.539 118.24 136.089 117.73 136.129 117.07L136.559 110.6C136.609 109.87 136.029 109.26 135.309 109.26H130.619C129.959 109.26 129.409 109.77 129.369 110.43Z" fill="white"/>
<path d="M132.269 113L132.039 116.39H134.759L134.989 113H132.269Z" fill="#007CFF"/>
<path d="M130.789 111.3L130.559 114.7H133.289L133.519 111.3H130.789Z" fill="#007CFF"/>
<path d="M141.939 110.43L141.509 116.9C141.459 117.63 142.039 118.24 142.759 118.24H147.449C148.109 118.24 148.659 117.73 148.699 117.07L149.129 110.6C149.179 109.87 148.599 109.26 147.879 109.26H143.189C142.529 109.26 141.979 109.77 141.939 110.43Z" fill="#007CFF"/>
<path opacity="0.3" d="M141.939 110.43L141.509 116.9C141.459 117.63 142.039 118.24 142.759 118.24H147.449C148.109 118.24 148.659 117.73 148.699 117.07L149.129 110.6C149.179 109.87 148.599 109.26 147.879 109.26H143.189C142.529 109.26 141.979 109.77 141.939 110.43Z" fill="white"/>
<path d="M144.839 113L144.609 116.39H147.339L147.569 113H144.839Z" fill="#007CFF"/>
<path d="M143.359 111.3L143.139 114.7H145.859L146.089 111.3H143.359Z" fill="#007CFF"/>
<path d="M154.699 110.43L154.269 116.9C154.219 117.63 154.799 118.24 155.519 118.24H160.209C160.869 118.24 161.419 117.73 161.459 117.07L161.889 110.6C161.939 109.87 161.359 109.26 160.639 109.26H155.949C155.289 109.26 154.739 109.77 154.699 110.43Z" fill="#007CFF"/>
<path opacity="0.3" d="M154.699 110.43L154.269 116.9C154.219 117.63 154.799 118.24 155.519 118.24H160.209C160.869 118.24 161.419 117.73 161.459 117.07L161.889 110.6C161.939 109.87 161.359 109.26 160.639 109.26H155.949C155.289 109.26 154.739 109.77 154.699 110.43Z" fill="white"/>
<path d="M157.599 113L157.369 116.39H160.089L160.319 113H157.599Z" fill="#007CFF"/>
<path d="M156.119 111.3L155.889 114.7H158.619L158.839 111.3H156.119Z" fill="#007CFF"/>
<path d="M167.388 110.43L166.958 116.9C166.908 117.63 167.488 118.24 168.208 118.24H172.898C173.558 118.24 174.108 117.73 174.148 117.07L174.578 110.6C174.628 109.87 174.048 109.26 173.328 109.26H168.638C167.978 109.26 167.428 109.77 167.388 110.43Z" fill="#007CFF"/>
<path opacity="0.3" d="M167.388 110.43L166.958 116.9C166.908 117.63 167.488 118.24 168.208 118.24H172.898C173.558 118.24 174.108 117.73 174.148 117.07L174.578 110.6C174.628 109.87 174.048 109.26 173.328 109.26H168.638C167.978 109.26 167.428 109.77 167.388 110.43Z" fill="white"/>
<path d="M170.289 113L170.059 116.39H172.789L173.009 113H170.289Z" fill="#007CFF"/>
<path d="M168.808 111.3L168.588 114.7H171.308L171.538 111.3H168.808Z" fill="#007CFF"/>
<path d="M126.747 126.86L126.317 133.33C126.267 134.06 126.847 134.67 127.567 134.67H132.257C132.917 134.67 133.467 134.16 133.507 133.5L133.937 127.03C133.987 126.3 133.407 125.69 132.687 125.69H127.997C127.337 125.69 126.787 126.2 126.747 126.86Z" fill="#007CFF"/>
<path opacity="0.3" d="M126.747 126.86L126.317 133.33C126.267 134.06 126.847 134.67 127.567 134.67H132.257C132.917 134.67 133.467 134.16 133.507 133.5L133.937 127.03C133.987 126.3 133.407 125.69 132.687 125.69H127.997C127.337 125.69 126.787 126.2 126.747 126.86Z" fill="white"/>
<path d="M129.648 129.43L129.418 132.82H132.148L132.368 129.43H129.648Z" fill="#007CFF"/>
<path d="M128.167 127.73L127.947 131.12H130.667L130.897 127.73H128.167Z" fill="#007CFF"/>
<path d="M139.328 126.86L138.898 133.33C138.848 134.06 139.428 134.67 140.148 134.67H144.838C145.498 134.67 146.048 134.16 146.088 133.5L146.518 127.03C146.568 126.3 145.988 125.69 145.268 125.69H140.578C139.918 125.69 139.368 126.2 139.328 126.86Z" fill="#007CFF"/>
<path opacity="0.3" d="M139.328 126.86L138.898 133.33C138.848 134.06 139.428 134.67 140.148 134.67H144.838C145.498 134.67 146.048 134.16 146.088 133.5L146.518 127.03C146.568 126.3 145.988 125.69 145.268 125.69H140.578C139.918 125.69 139.368 126.2 139.328 126.86Z" fill="white"/>
<path d="M142.218 129.43L141.998 132.82H144.718L144.948 129.43H142.218Z" fill="#007CFF"/>
<path d="M140.748 127.73L140.518 131.12H143.248L143.468 127.73H140.748Z" fill="#007CFF"/>
<path d="M152.078 126.86L151.648 133.33C151.598 134.06 152.178 134.67 152.898 134.67H157.588C158.248 134.67 158.798 134.16 158.838 133.5L159.268 127.03C159.318 126.3 158.738 125.69 158.018 125.69H153.328C152.668 125.69 152.118 126.2 152.078 126.86Z" fill="#007CFF"/>
<path opacity="0.3" d="M152.078 126.86L151.648 133.33C151.598 134.06 152.178 134.67 152.898 134.67H157.588C158.248 134.67 158.798 134.16 158.838 133.5L159.268 127.03C159.318 126.3 158.738 125.69 158.018 125.69H153.328C152.668 125.69 152.118 126.2 152.078 126.86Z" fill="white"/>
<path d="M154.978 129.43L154.748 132.82H157.478L157.698 129.43H154.978Z" fill="#007CFF"/>
<path d="M153.497 127.73L153.277 131.12H155.997L156.227 127.73H153.497Z" fill="#007CFF"/>
<path d="M164.779 126.86L164.349 133.33C164.299 134.06 164.879 134.67 165.599 134.67H170.289C170.949 134.67 171.499 134.16 171.539 133.5L171.969 127.03C172.019 126.3 171.439 125.69 170.719 125.69H166.029C165.369 125.69 164.819 126.2 164.779 126.86Z" fill="#007CFF"/>
<path opacity="0.3" d="M164.779 126.86L164.349 133.33C164.299 134.06 164.879 134.67 165.599 134.67H170.289C170.949 134.67 171.499 134.16 171.539 133.5L171.969 127.03C172.019 126.3 171.439 125.69 170.719 125.69H166.029C165.369 125.69 164.819 126.2 164.779 126.86Z" fill="white"/>
<path d="M167.669 129.43L167.449 132.82H170.169L170.399 129.43H167.669Z" fill="#007CFF"/>
<path d="M166.199 127.73L165.969 131.12H168.689L168.919 127.73H166.199Z" fill="#007CFF"/>
<path d="M124.138 144.31L123.708 150.78C123.658 151.51 124.238 152.12 124.958 152.12H129.648C130.308 152.12 130.858 151.61 130.898 150.95L131.328 144.48C131.378 143.75 130.798 143.14 130.078 143.14H125.388C124.728 143.14 124.178 143.65 124.138 144.31Z" fill="#007CFF"/>
<path opacity="0.3" d="M124.138 144.31L123.708 150.78C123.658 151.51 124.238 152.12 124.958 152.12H129.648C130.308 152.12 130.858 151.61 130.898 150.95L131.328 144.48C131.378 143.75 130.798 143.14 130.078 143.14H125.388C124.728 143.14 124.178 143.65 124.138 144.31Z" fill="white"/>
<path d="M127.029 146.88L126.809 150.27H129.529L129.759 146.88H127.029Z" fill="#007CFF"/>
<path d="M125.558 145.18L125.328 148.58H128.048L128.278 145.18H125.558Z" fill="#007CFF"/>
<path d="M136.708 144.31L136.278 150.78C136.228 151.51 136.808 152.12 137.528 152.12H142.218C142.878 152.12 143.428 151.61 143.468 150.95L143.898 144.48C143.948 143.75 143.368 143.14 142.648 143.14H137.958C137.298 143.14 136.748 143.65 136.708 144.31Z" fill="#007CFF"/>
<path opacity="0.3" d="M136.708 144.31L136.278 150.78C136.228 151.51 136.808 152.12 137.528 152.12H142.218C142.878 152.12 143.428 151.61 143.468 150.95L143.898 144.48C143.948 143.75 143.368 143.14 142.648 143.14H137.958C137.298 143.14 136.748 143.65 136.708 144.31Z" fill="white"/>
<path d="M139.609 146.88L139.379 150.27H142.109L142.329 146.88H139.609Z" fill="#007CFF"/>
<path d="M138.128 145.18L137.898 148.58H140.628L140.858 145.18H138.128Z" fill="#007CFF"/>
<path d="M149.468 144.31L149.038 150.78C148.988 151.51 149.568 152.12 150.288 152.12H154.978C155.638 152.12 156.188 151.61 156.228 150.95L156.658 144.48C156.708 143.75 156.128 143.14 155.408 143.14H150.718C150.058 143.14 149.508 143.65 149.468 144.31Z" fill="#007CFF"/>
<path opacity="0.3" d="M149.468 144.31L149.038 150.78C148.988 151.51 149.568 152.12 150.288 152.12H154.978C155.638 152.12 156.188 151.61 156.228 150.95L156.658 144.48C156.708 143.75 156.128 143.14 155.408 143.14H150.718C150.058 143.14 149.508 143.65 149.468 144.31Z" fill="white"/>
<path d="M152.359 146.88L152.139 150.27H154.859L155.089 146.88H152.359Z" fill="#007CFF"/>
<path d="M150.888 145.18L150.658 148.58H153.378L153.608 145.18H150.888Z" fill="#007CFF"/>
<path d="M162.158 144.31L161.728 150.78C161.678 151.51 162.258 152.12 162.978 152.12H167.668C168.328 152.12 168.878 151.61 168.918 150.95L169.348 144.48C169.398 143.75 168.818 143.14 168.098 143.14H163.408C162.748 143.14 162.198 143.65 162.158 144.31Z" fill="#007CFF"/>
<path opacity="0.3" d="M162.158 144.31L161.728 150.78C161.678 151.51 162.258 152.12 162.978 152.12H167.668C168.328 152.12 168.878 151.61 168.918 150.95L169.348 144.48C169.398 143.75 168.818 143.14 168.098 143.14H163.408C162.748 143.14 162.198 143.65 162.158 144.31Z" fill="white"/>
<path d="M165.058 146.88L164.828 150.27H167.548L167.778 146.88H165.058Z" fill="#007CFF"/>
<path d="M163.578 145.18L163.348 148.58H166.078L166.308 145.18H163.578Z" fill="#007CFF"/>
<path d="M160.348 99.95H162.078L162.238 98.22H160.498L160.348 99.95Z" fill="#007CFF"/>
<path d="M163.968 98.2199L163.818 99.9499H165.548L165.698 98.2199L165.848 96.4899H164.118L163.968 98.2199Z" fill="#007CFF"/>
<path d="M167.727 94.7599L167.577 96.4899L167.427 98.2199L167.277 99.9499H169.007L169.157 98.2199L169.307 96.4899L169.457 94.7599H167.727Z" fill="#007CFF"/>
<g opacity="0.4">
<path d="M160.348 99.95H162.078L162.238 98.22H160.498L160.348 99.95Z" fill="white"/>
<path d="M163.968 98.2199L163.818 99.9499H165.548L165.698 98.2199L165.848 96.4899H164.118L163.968 98.2199Z" fill="white"/>
<path d="M167.727 94.7599L167.577 96.4899L167.427 98.2199L167.277 99.9499H169.007L169.157 98.2199L169.307 96.4899L169.457 94.7599H167.727Z" fill="white"/>
</g>
<path d="M174.188 94.76L174.078 96.03H173.228L173.008 98.56H173.858L173.738 99.83H181.358L181.808 94.75H174.188V94.76ZM177.248 98.57H174.708L174.928 96.04H177.468L177.248 98.57Z" fill="#007CFF"/>
<path opacity="0.7" d="M174.188 94.76L174.078 96.03H173.228L173.008 98.56H173.858L173.738 99.83H181.358L181.808 94.75H174.188V94.76ZM177.248 98.57H174.708L174.928 96.04H177.468L177.248 98.57Z" fill="white"/>
<path d="M155.949 99.77C156.363 99.77 156.699 99.4342 156.699 99.02C156.699 98.6057 156.363 98.27 155.949 98.27C155.535 98.27 155.199 98.6057 155.199 99.02C155.199 99.4342 155.535 99.77 155.949 99.77Z" fill="#007CFF"/>
<path d="M155.948 95.4699C157.288 95.4699 158.448 96.2299 159.048 97.3299L159.788 96.7799C159.008 95.4599 157.588 94.5599 155.948 94.5599C154.218 94.5599 152.728 95.5599 151.988 96.9999L152.758 97.4899C153.338 96.2999 154.538 95.4799 155.948 95.4799V95.4699Z" fill="#007CFF"/>
<path d="M155.949 96.7099C156.879 96.7099 157.679 97.2699 158.039 98.0799L158.789 97.5299C158.249 96.5099 157.189 95.7999 155.949 95.7999C154.709 95.7999 153.559 96.5599 153.039 97.6599L153.819 98.1599C154.159 97.3199 154.979 96.7199 155.949 96.7199V96.7099Z" fill="#007CFF"/>
<path d="M155.949 97.9199C156.489 97.9199 156.929 98.3199 157.019 98.8399L157.809 98.2499C157.509 97.5199 156.789 96.9999 155.949 96.9999C155.109 96.9999 154.349 97.5399 154.059 98.2999L154.879 98.8199C154.979 98.3099 155.409 97.9199 155.949 97.9199Z" fill="#007CFF"/>
<g opacity="0.7">
<path d="M155.949 99.77C156.363 99.77 156.699 99.4342 156.699 99.02C156.699 98.6057 156.363 98.27 155.949 98.27C155.535 98.27 155.199 98.6057 155.199 99.02C155.199 99.4342 155.535 99.77 155.949 99.77Z" fill="white"/>
</g>
<path opacity="0.7" d="M155.948 95.4699C157.288 95.4699 158.448 96.2299 159.048 97.3299L159.788 96.7799C159.008 95.4599 157.588 94.5599 155.948 94.5599C154.218 94.5599 152.728 95.5599 151.988 96.9999L152.758 97.4899C153.338 96.2999 154.538 95.4799 155.948 95.4799V95.4699Z" fill="white"/>
<path opacity="0.7" d="M155.949 96.7099C156.879 96.7099 157.679 97.2699 158.039 98.0799L158.789 97.5299C158.249 96.5099 157.189 95.7999 155.949 95.7999C154.709 95.7999 153.559 96.5599 153.039 97.6599L153.819 98.1599C154.159 97.3199 154.979 96.7199 155.949 96.7199V96.7099Z" fill="white"/>
<path opacity="0.7" d="M155.949 97.9199C156.489 97.9199 156.929 98.3199 157.019 98.8399L157.809 98.2499C157.509 97.5199 156.789 96.9999 155.949 96.9999C155.109 96.9999 154.349 97.5399 154.059 98.2999L154.879 98.8199C154.979 98.3099 155.409 97.9199 155.949 97.9199Z" fill="white"/>
<path opacity="0.1" d="M183.828 93.22H122.958L115.818 163H176.688L183.828 93.22Z" fill="white"/>
<path d="M55.369 85.84C55.369 85.84 45.949 102.35 45.249 106.31C44.549 110.27 53.269 135.56 53.269 135.56C53.269 135.56 51.349 142.22 53.439 143.34C55.529 144.46 59.189 146.73 59.719 144.81C60.249 142.89 59.719 136.56 59.719 136.56L58.149 135.21C58.149 135.21 52.589 108.78 52.579 107.86C52.579 106.95 62.709 91.36 62.709 91.36L55.369 85.84Z" fill="#E4897B"/>
<path d="M61.1491 74.68C56.2491 76.81 43.8691 97.29 43.9891 106.08C44.1091 114.87 51.2891 129.59 51.2891 129.59L56.7691 128.56C56.7691 128.56 54.7591 107.81 55.4191 105.1C56.0791 102.39 64.0491 91.48 64.0491 91.48L61.1591 74.68H61.1491Z" fill="#2673E5"/>
<g opacity="0.2">
<path d="M55.4094 105.1C54.7494 107.81 56.7594 128.56 56.7594 128.56L51.2794 129.59C51.2794 129.59 44.0994 114.87 43.9794 106.07C43.8594 97.28 56.2494 76.8 61.1494 74.67L63.4994 88.35L64.0394 91.47C64.0394 91.47 59.7594 97.32 57.2194 101.52C56.2794 103.06 55.5894 104.37 55.4094 105.09V105.1Z" fill="white"/>
</g>
<g opacity="0.2">
<path d="M64.0396 91.48C64.0396 91.48 59.7596 97.33 57.2196 101.53C56.7896 95.18 59.9496 87.78 61.1596 85.2C61.4396 84.61 61.6096 84.26 61.6096 84.26L63.5096 88.36L64.0496 91.48H64.0396Z" fill="black"/>
</g>
<path d="M90.0996 247.05L95.7596 247.64L96.0396 244.36L96.8196 235.44L91.1596 234.84L90.2996 244.7L90.0996 247.05Z" fill="#E4897B"/>
<path d="M61.8496 246.33H67.3396L67.3796 245.09L67.3896 244.94L67.6696 236.98L67.6796 236.82L67.7896 233.77H62.2996L61.8496 246.33Z" fill="#E4897B"/>
<g opacity="0.2">
<path d="M91.1588 234.84L90.2988 244.7L96.0388 244.36L96.8188 235.44L91.1588 234.84Z" fill="black"/>
</g>
<g opacity="0.2">
<path d="M61.8887 245.63L67.3787 244.94H67.3887L67.6787 237.26H67.6687L62.1687 237.7L61.8887 245.39V245.63Z" fill="black"/>
</g>
<path d="M68.0999 246H61.4399C61.2199 246 61.0199 246.16 60.9699 246.38L59.8899 251.26C59.7999 251.7 60.0799 252.13 60.5099 252.22C60.5699 252.23 60.6299 252.24 60.6899 252.24C62.8499 252.21 64.4199 252.07 67.1199 252.07C68.7899 252.07 73.8199 252.24 76.1199 252.24C78.4199 252.24 78.7199 249.97 77.7799 249.76C73.5499 248.84 70.3699 247.56 69.0199 246.35C68.7699 246.12 68.4399 245.99 68.0999 246Z" fill="#1A2E35"/>
<path d="M96.3596 245.83H89.6997C89.4797 245.83 89.2797 245.99 89.2297 246.21L88.1497 251.09C88.0597 251.53 88.3397 251.96 88.7697 252.05C88.8297 252.06 88.8897 252.07 88.9497 252.07C91.1097 252.04 92.6797 251.9 95.3797 251.9C97.0497 251.9 102.08 252.07 104.38 252.07C106.68 252.07 106.98 249.8 106.04 249.59C101.81 248.67 98.6296 247.39 97.2796 246.18C97.0296 245.95 96.6996 245.82 96.3596 245.83Z" fill="#1A2E35"/>
<path d="M97.3384 243.54H89.2884C89.2884 243.54 89.9484 174.28 81.2384 150.89C80.6284 158.62 79.9384 166.64 79.2584 173.33C78.8284 177.47 78.4184 181.02 78.0184 183.73C75.4884 201.17 69.0984 244.24 69.0984 244.24H61.1484C61.1484 244.24 62.0884 202.98 63.0284 185.83C64.0684 167.22 64.5184 126.31 64.5584 122.82H93.6684C96.4384 137.47 103.538 196.09 97.3284 243.54H97.3384Z" fill="#1A2E35"/>
<path d="M83.0996 61.33C83.0296 61.6 82.9596 61.86 82.8596 62.11C82.3196 63.62 81.3496 64.86 80.1496 65.73C79.8396 65.96 79.4996 66.17 79.1596 66.34C77.3396 67.28 75.1696 67.45 73.2196 66.6C72.4196 66.26 71.6496 65.74 70.9496 65.03C68.1996 62.25 68.2696 59.05 67.9696 53.62C67.8896 52.45 68.0696 51.28 68.5196 50.21C70.0896 46.42 74.4496 44.63 78.2296 46.2C83.5496 48.37 84.2796 56.44 83.0996 61.33Z" fill="#E4897B"/>
<g opacity="0.2">
<path d="M80.1488 65.72C79.8388 65.95 79.4988 66.16 79.1588 66.33C77.3388 67.27 75.1688 67.44 73.2188 66.59C73.5987 65.54 74.1888 64.75 74.1888 64.75C74.1888 64.75 77.4288 64.25 80.1588 65.71L80.1488 65.72Z" fill="black"/>
</g>
<path d="M69.2285 72.76C71.8985 75.19 78.4485 74.29 78.4485 74.29C78.4485 74.29 82.5385 73.17 81.6785 71.89C79.2685 71.49 78.1085 70.37 77.6285 68.93C77.3485 68.09 77.3085 67.15 77.3885 66.18C77.4185 65.67 77.4985 65.15 77.5885 64.64L69.4985 58.65C70.5585 62.61 71.8585 69.88 69.2385 72.75L69.2285 72.76Z" fill="#E4897B"/>
<path d="M76.6792 43.86C76.6792 43.86 80.2092 42.38 82.6492 44.69C84.7092 46.64 83.3692 49.64 84.6192 52.13C85.8692 54.63 81.3592 56.25 81.3592 56.25C81.3592 56.25 80.1692 58.81 78.0992 58.65C78.0992 58.65 76.4092 60.7 76.6792 62.81C76.9492 64.93 73.9092 66.6 69.7692 66.54C65.6292 66.49 67.2892 63.9 67.2892 63.9C67.2892 63.9 65.7792 62.34 64.4192 59.26C63.0592 56.18 63.2392 52.78 63.2392 52.78C63.2392 52.78 62.8692 49.61 65.6292 46.5C68.3892 43.39 74.9792 41.83 76.6792 43.85V43.86Z" fill="#1A2E35"/>
<path d="M77.0695 56.78C77.3895 57.96 78.0395 58.83 78.8795 59.19C79.9895 59.66 80.7095 58.1 80.5495 56.47C80.3995 55.02 79.6495 52.99 78.4695 53.26C77.2895 53.53 76.6895 55.32 77.0795 56.78H77.0695Z" fill="#E4897B"/>
<g opacity="0.2">
<path d="M81.2491 150.86C80.6391 158.59 79.9491 166.63 79.2691 173.31C78.2791 163.66 77.0691 156.78 77.0691 156.78C77.0691 156.78 75.9291 155.84 72.8091 150.86C69.6791 145.86 72.8091 136.56 72.8091 136.56C72.7091 145.21 81.2591 150.86 81.2591 150.86H81.2491Z" fill="black"/>
</g>
<path d="M98.2398 241.27L97.8498 243.54H88.3398V241.45L98.2398 241.27Z" fill="#2673E5"/>
<path d="M70.0096 242.14L69.0996 244.24H61.1196L60.5996 242.14H70.0096Z" fill="#2673E5"/>
<path d="M64.2988 127.6V131.88L94.7988 129.74V125.94L64.2988 127.6Z" fill="#2673E5"/>
<g opacity="0.2">
<path d="M64.2988 127.6V131.88L94.7988 129.74V125.94L64.2988 127.6Z" fill="white"/>
</g>
<path d="M96.2897 124.06C96.4097 125.68 95.1697 127.07 93.5497 127.15L64.9297 128.55C64.0097 128.6 63.2297 127.87 63.2297 126.95C63.0497 109.53 57.0797 77.83 61.1597 74.68C65.3697 71.42 86.0497 69.71 86.0497 69.71C86.9697 71.85 87.8197 74.2 88.5797 76.69C88.6697 76.99 88.7697 77.29 88.8497 77.6C90.0397 81.52 91.0297 85.75 91.8897 90.03C91.9497 90.32 92.0097 90.61 92.0597 90.9C94.6797 104.39 95.8697 118.18 96.2897 124.07V124.06Z" fill="#2673E5"/>
<g opacity="0.4">
<path d="M96.2897 124.06C96.4097 125.68 95.1697 127.07 93.5497 127.15L64.9297 128.55C64.0097 128.6 63.2297 127.87 63.2297 126.95C63.0497 109.53 57.0797 77.83 61.1597 74.68C65.3697 71.42 86.0497 69.71 86.0497 69.71C86.9697 71.85 87.8197 74.2 88.5797 76.69C88.6697 76.99 88.7697 77.29 88.8497 77.6C90.0397 81.52 91.0297 85.75 91.8897 90.03C91.9497 90.32 92.0097 90.61 92.0597 90.9C94.6797 104.39 95.8697 118.18 96.2897 124.07V124.06Z" fill="white"/>
</g>
<path d="M80.5688 70.26C80.5688 70.26 77.4088 67.78 71.4788 67.91C65.5488 68.04 64.9688 70.26 64.9688 70.26C64.9688 70.26 58.4588 73.51 63.5688 78.86C68.6888 84.21 78.7588 70.65 78.7588 70.65L80.5688 70.26Z" fill="#2673E5"/>
<g opacity="0.2">
<path d="M80.5688 70.26C80.5688 70.26 77.4088 67.78 71.4788 67.91C65.5488 68.04 64.9688 70.26 64.9688 70.26C64.9688 70.26 58.4588 73.51 63.5688 78.86C68.6888 84.21 78.7588 70.65 78.7588 70.65L80.5688 70.26Z" fill="white"/>
</g>
<g opacity="0.2">
<path d="M91.8889 90.03C87.4189 84.12 87.1289 77.85 87.1289 77.85L88.8489 77.59C90.0389 81.51 91.0289 85.74 91.8889 90.02V90.03Z" fill="black"/>
</g>
<path d="M89.7695 69.83C89.7695 69.83 110.43 65.61 113.34 64.5C116.25 63.39 131.6 48.71 131.6 48.71L134.96 51.25C134.96 51.25 123.46 66.19 117.7 70.49C111.94 74.79 91.7895 81.3 91.7895 81.3L89.7695 69.83Z" fill="#E4897B"/>
<path d="M131.6 48.71C133.26 46.82 139.29 42.74 140.16 42.39C141.03 42.04 142.33 47.38 142.07 48.08C141.81 48.78 138.85 50.26 137.36 50.44C135.87 50.62 134.27 52.14 134.27 52.14L131.59 48.72L131.6 48.71Z" fill="#E4897B"/>
<path d="M86.0399 69.71C86.0399 69.71 85.7599 79.44 90.6299 84.27C90.6299 84.27 108.06 79.16 117.45 72.81C126.83 66.46 130.59 56.75 130.59 56.75C130.59 56.75 128.97 53.69 126.79 53.24C126.79 53.24 114.27 63.32 107.37 64.68C100.47 66.04 85.4199 69.71 85.4199 69.71" fill="#2673E5"/>
<g opacity="0.2">
<path d="M86.0399 69.71C86.0399 69.71 85.7599 79.44 90.6299 84.27C90.6299 84.27 108.06 79.16 117.45 72.81C126.83 66.46 130.59 56.75 130.59 56.75C130.59 56.75 128.97 53.69 126.79 53.24C126.79 53.24 114.27 63.32 107.37 64.68C100.47 66.04 85.4199 69.71 85.4199 69.71" fill="white"/>
</g>
<path d="M126.51 53.45L127.79 51.62L131.93 56.31L130.32 57.36L126.51 53.45Z" fill="#2673E5"/>
<path d="M50.959 128.91L56.629 127.14L57.169 128.91L50.959 130.91V128.91Z" fill="#2673E5"/>
</g>
<defs>
<clipPath id="clip0_1817_30588">
<rect width="295.12" height="260" fill="white" transform="translate(0.439453)"/>
</clipPath>
</defs>
</svg>
