<svg width="106" height="84" viewBox="0 0 106 84" fill="none" xmlns="http://www.w3.org/2000/svg">
<rect x="42.7549" y="0.000366211" width="59.2131" height="59.2131" rx="5" transform="rotate(45 42.7549 0.000366211)" fill="#2673E5" fill-opacity="0.1"/>
<g clip-path="url(#clip0_1151_23795)">
<path d="M88.0837 21.5C88.0837 22.0407 87.7995 22.8252 86.693 23.8062C85.5891 24.7849 83.8635 25.769 81.5379 26.6411C76.9034 28.3791 70.3498 29.5 63.0003 29.5C55.6508 29.5 49.0973 28.3791 44.4628 26.6411C42.1372 25.769 40.4115 24.7849 39.3076 23.8062C38.2012 22.8252 37.917 22.0407 37.917 21.5C37.917 20.9593 38.2012 20.1748 39.3076 19.1938C40.4115 18.2151 42.1372 17.231 44.4628 16.3589C49.0973 14.6209 55.6508 13.5 63.0003 13.5C70.3498 13.5 76.9034 14.6209 81.5379 16.3589C83.8635 17.231 85.5891 18.2151 86.693 19.1938C87.7995 20.1748 88.0837 20.9593 88.0837 21.5Z" stroke="#2673E5" stroke-width="4.5" stroke-linecap="round" stroke-linejoin="round"/>
<mask id="path-3-inside-1_1151_23795" fill="white">
<path d="M35.667 21.5V42C35.667 44.7185 38.5467 47.3256 43.6727 49.2478C48.7987 51.1701 55.7511 52.25 63.0003 52.25C70.2496 52.25 77.2019 51.1701 82.3279 49.2478C87.4539 47.3256 90.3337 44.7185 90.3337 42V21.5"/>
</mask>
<path d="M40.167 21.5C40.167 19.0147 38.1523 17 35.667 17C33.1817 17 31.167 19.0147 31.167 21.5H40.167ZM35.667 42H31.167H35.667ZM90.3337 42H94.8337H90.3337ZM94.8337 21.5C94.8337 19.0147 92.8189 17 90.3337 17C87.8484 17 85.8337 19.0147 85.8337 21.5H94.8337ZM31.167 21.5V42H40.167V21.5H31.167ZM31.167 42C31.167 45.0653 32.8041 47.5172 34.7275 49.2585C36.6524 51.0012 39.2169 52.3829 42.0927 53.4613L45.2528 45.0344C43.0026 44.1905 41.5642 43.3076 40.7678 42.5865C39.9697 41.864 40.167 41.6531 40.167 42H31.167ZM42.0927 53.4613C47.8582 55.6234 55.3764 56.75 63.0003 56.75V47.75C56.1257 47.75 49.7392 46.7168 45.2528 45.0344L42.0927 53.4613ZM63.0003 56.75C70.6243 56.75 78.1424 55.6234 83.908 53.4613L80.7479 45.0344C76.2614 46.7168 69.8749 47.75 63.0003 47.75V56.75ZM83.908 53.4613C86.7837 52.3829 89.3483 51.0012 91.2732 49.2585C93.1965 47.5172 94.8337 45.0653 94.8337 42H85.8337C85.8337 41.6531 86.0309 41.864 85.2329 42.5865C84.4364 43.3076 82.9981 44.1905 80.7479 45.0344L83.908 53.4613ZM94.8337 42V21.5H85.8337V42H94.8337Z" fill="#2673E5" mask="url(#path-3-inside-1_1151_23795)"/>
<mask id="path-5-inside-2_1151_23795" fill="white">
<path d="M35.667 42V62.5C35.667 65.2185 38.5467 67.8256 43.6727 69.7478C48.7987 71.6701 55.7511 72.75 63.0003 72.75C70.2496 72.75 77.2019 71.6701 82.3279 69.7478C87.4539 67.8256 90.3337 65.2185 90.3337 62.5V42"/>
</mask>
<path d="M40.167 42C40.167 39.5147 38.1523 37.5 35.667 37.5C33.1817 37.5 31.167 39.5147 31.167 42H40.167ZM35.667 62.5H31.167H35.667ZM63.0003 72.75V77.25V72.75ZM90.3337 62.5H94.8337H90.3337ZM94.8337 42C94.8337 39.5147 92.8189 37.5 90.3337 37.5C87.8484 37.5 85.8337 39.5147 85.8337 42H94.8337ZM31.167 42V62.5H40.167V42H31.167ZM31.167 62.5C31.167 65.5653 32.8041 68.0172 34.7275 69.7585C36.6524 71.5012 39.2169 72.8829 42.0927 73.9613L45.2528 65.5344C43.0026 64.6905 41.5642 63.8076 40.7678 63.0865C39.9697 62.364 40.167 62.1531 40.167 62.5H31.167ZM42.0927 73.9613C47.8582 76.1234 55.3764 77.25 63.0003 77.25V68.25C56.1257 68.25 49.7392 67.2168 45.2528 65.5344L42.0927 73.9613ZM63.0003 77.25C70.6243 77.25 78.1424 76.1234 83.908 73.9613L80.7479 65.5344C76.2614 67.2168 69.8749 68.25 63.0003 68.25V77.25ZM83.908 73.9613C86.7837 72.8829 89.3483 71.5012 91.2732 69.7585C93.1965 68.0172 94.8337 65.5653 94.8337 62.5H85.8337C85.8337 62.1531 86.0309 62.364 85.2329 63.0865C84.4364 63.8076 82.9981 64.6905 80.7479 65.5344L83.908 73.9613ZM94.8337 62.5V42H85.8337V62.5H94.8337Z" fill="#2673E5" mask="url(#path-5-inside-2_1151_23795)"/>
</g>
<defs>
<clipPath id="clip0_1151_23795">
<rect width="84" height="84" fill="white" transform="matrix(-4.37114e-08 1 1 4.37114e-08 21.1152 0)"/>
</clipPath>
</defs>
</svg>
