<svg width="118" height="84" viewBox="0 0 118 84" fill="none" xmlns="http://www.w3.org/2000/svg">
<rect x="42.8125" width="59.2131" height="59.2131" rx="5" transform="rotate(45 42.8125 0)" fill="#2673E5" fill-opacity="0.1"/>
<g clip-path="url(#clip0_1151_23828)">
<path d="M44.5329 9.30994H42.2529V11.5899H44.5329V9.30994Z" fill="#2673E5"/>
<path d="M44.4128 9.43994V11.4699H42.3828V9.43994H44.4128ZM44.6628 9.18994H42.1328V11.7199H44.6628V9.18994Z" fill="#2673E5"/>
<path d="M49.5925 9.30994H47.3125V11.5899H49.5925V9.30994Z" fill="#2673E5"/>
<path d="M49.4724 9.43994V11.4699H47.4424V9.43994H49.4724ZM49.7224 9.18994H47.1924V11.7199H49.7224V9.18994Z" fill="#2673E5"/>
<path d="M54.6521 9.30994H52.3721V11.5899H54.6521V9.30994Z" fill="#2673E5"/>
<path d="M54.532 9.43994V11.4699H52.502V9.43994H54.532ZM54.782 9.18994H52.252V11.7199H54.782V9.18994Z" fill="#2673E5"/>
<path d="M40.8624 79.92C38.8424 79.92 37.1924 78.27 37.1924 76.25V7.92C37.1924 5.9 38.8424 4.25 40.8624 4.25H109.192C111.212 4.25 112.862 5.9 112.862 7.92V76.25C112.862 78.27 111.212 79.92 109.192 79.92H40.8624ZM40.8624 6.53C40.0924 6.53 39.4724 7.15 39.4724 7.92V76.25C39.4724 77.02 40.0924 77.64 40.8624 77.64H109.192C109.962 77.64 110.582 77.02 110.582 76.25V11.72C110.582 11.65 110.522 11.6 110.462 11.6H57.4424V9.32H110.462C110.532 9.32 110.582 9.26 110.582 9.2V7.93C110.582 7.16 109.962 6.54 109.192 6.54H40.8624V6.53Z" fill="#2673E5"/>
<path d="M109.192 4.38C111.152 4.38 112.743 5.97 112.743 7.93V76.25C112.743 78.21 111.152 79.8 109.192 79.8H40.8625C38.9025 79.8 37.3125 78.21 37.3125 76.25V7.92C37.3125 5.97 38.9125 4.38 40.8625 4.38H109.192ZM40.8625 77.77H109.192C110.032 77.77 110.712 77.09 110.712 76.25V11.72C110.712 11.58 110.602 11.47 110.462 11.47H57.5625V9.44H110.462C110.602 9.44 110.712 9.33 110.712 9.19V7.92C110.712 7.08 110.032 6.4 109.192 6.4H40.8625C40.0225 6.4 39.3425 7.08 39.3425 7.92V76.25C39.3425 77.09 40.0225 77.77 40.8625 77.77ZM109.192 4.13H40.8625C38.7725 4.13 37.0625 5.83 37.0625 7.92V76.25C37.0625 78.34 38.7725 80.05 40.8625 80.05H109.192C111.282 80.05 112.993 78.34 112.993 76.25V7.92C112.993 5.83 111.282 4.12 109.192 4.12V4.13ZM40.8625 77.52C40.1625 77.52 39.5925 76.95 39.5925 76.25V7.92C39.5925 7.22 40.1625 6.65 40.8625 6.65H109.192C109.892 6.65 110.462 7.22 110.462 7.92V9.19H57.3125V11.72H110.462V76.25C110.462 76.95 109.892 77.52 109.192 77.52H40.8625Z" fill="#2673E5"/>
<path d="M102.883 74.66C101.623 74.66 100.433 74.17 99.5429 73.27L84.6729 58.4C84.6729 58.4 84.6129 58.36 84.5829 58.36C84.5629 58.36 84.5429 58.36 84.5229 58.38C82.7229 59.42 80.7929 60.16 78.7829 60.56C77.5329 60.81 76.2629 60.94 75.0029 60.94C66.0829 60.94 58.3229 54.59 56.5429 45.85C56.5329 45.79 56.4829 45.75 56.4229 45.75H43.3929C42.7629 45.75 42.2529 45.24 42.2529 44.61V16.78C42.2529 16.15 42.7629 15.64 43.3929 15.64H68.7229C69.3529 15.64 69.8629 16.15 69.8629 16.78V23.79C69.8629 23.79 69.8829 23.87 69.9129 23.89C69.9329 23.91 69.9629 23.92 69.9929 23.92C70.0029 23.92 70.0129 23.92 70.0229 23.92C71.6529 23.47 73.3429 23.24 75.0429 23.24C78.3729 23.24 81.6529 24.13 84.5329 25.81C93.5029 31.05 96.5529 42.61 91.3329 51.6C91.3029 51.65 91.3129 51.71 91.3529 51.75L106.223 66.62C107.113 67.5 107.603 68.68 107.613 69.94C107.613 71.2 107.123 72.4 106.223 73.29C105.333 74.18 104.153 74.68 102.893 74.68L102.883 74.66ZM89.9729 53.64C89.9729 53.64 89.9029 53.66 89.8829 53.69C88.9329 54.9 87.8429 56 86.6329 56.94C86.6029 56.96 86.5929 56.99 86.5829 57.03C86.5829 57.07 86.5929 57.1 86.6229 57.13L101.143 71.65C101.603 72.11 102.213 72.36 102.873 72.36C103.533 72.36 104.143 72.11 104.603 71.65C105.543 70.71 105.543 69.16 104.603 68.2L90.0829 53.68C90.0829 53.68 90.0229 53.64 89.9929 53.64H89.9729ZM75.0329 25.52C65.8929 25.52 58.4529 32.96 58.4529 42.1C58.4729 51.22 65.9029 58.66 75.0329 58.68C84.1729 58.68 91.6129 51.24 91.6129 42.1C91.6129 32.96 84.1729 25.52 75.0329 25.52ZM54.7829 24.78C54.7829 24.78 54.7229 24.79 54.6929 24.82L44.5729 34.93L44.5329 43.35C44.5329 43.42 44.5929 43.47 44.6529 43.47H56.0929C56.0929 43.47 56.1629 43.46 56.1829 43.43C56.2029 43.4 56.2229 43.37 56.2129 43.34C56.1829 42.93 56.1629 42.51 56.1629 42.08C56.1629 37.84 57.6229 33.68 60.2629 30.36C60.3029 30.31 60.3029 30.24 60.2629 30.19L54.8729 24.8C54.8729 24.8 54.8129 24.76 54.7829 24.76V24.78ZM44.6629 17.92C44.5929 17.92 44.5429 17.98 44.5429 18.04V31.44C44.5429 31.49 44.5729 31.54 44.6229 31.56C44.6429 31.56 44.6529 31.56 44.6729 31.56C44.7029 31.56 44.7329 31.55 44.7629 31.52L54.0029 22.3C54.2129 22.09 54.5029 21.97 54.8129 21.97C55.1229 21.97 55.4029 22.09 55.6129 22.3L58.5029 25.19C58.5029 25.19 58.5629 25.23 58.5929 25.23C58.6229 25.23 58.6529 25.22 58.6829 25.19L61.5929 22.28C61.8029 22.07 62.0929 21.95 62.3929 21.95C62.6929 21.95 62.9829 22.07 63.1929 22.28L66.2129 25.3C66.2129 25.3 66.2729 25.34 66.3029 25.34C66.3229 25.34 66.3429 25.34 66.3629 25.33C66.7329 25.15 67.1029 24.98 67.4629 24.81C67.5029 24.79 67.5629 24.73 67.5629 24.68V18.04C67.5629 17.97 67.5029 17.92 67.4429 17.92H44.6629ZM62.3929 24.77C62.3929 24.77 62.3329 24.78 62.3029 24.81L60.2929 26.82C60.2929 26.82 60.2429 26.95 60.2929 27L61.7929 28.5C61.7929 28.5 61.8529 28.54 61.8829 28.54C61.9129 28.54 61.9429 28.53 61.9729 28.51C62.7129 27.8 63.4329 27.21 64.1529 26.7C64.1829 26.68 64.2029 26.65 64.2029 26.61C64.2029 26.57 64.1929 26.54 64.1629 26.51L62.4729 24.82C62.4729 24.82 62.4129 24.78 62.3829 24.78L62.3929 24.77Z" fill="#2673E5"/>
<path d="M68.723 15.76C69.283 15.76 69.743 16.22 69.743 16.78V23.79C69.743 23.87 69.783 23.94 69.843 23.99C69.883 24.02 69.943 24.04 69.993 24.04C70.013 24.04 70.033 24.04 70.063 24.04C71.683 23.59 73.363 23.36 75.043 23.36C78.353 23.36 81.613 24.24 84.463 25.91C93.373 31.11 96.403 42.6 91.223 51.52C91.163 51.62 91.183 51.74 91.263 51.82L106.133 66.69C107.003 67.55 107.483 68.7 107.483 69.92C107.483 71.15 107.003 72.31 106.133 73.18C105.273 74.05 104.123 74.53 102.893 74.53C101.663 74.53 100.513 74.05 99.643 73.18L84.773 58.31C84.773 58.31 84.663 58.24 84.593 58.24C84.553 58.24 84.503 58.25 84.463 58.27C82.673 59.31 80.753 60.04 78.763 60.44C77.523 60.69 76.263 60.82 75.013 60.82C66.153 60.82 58.443 54.52 56.673 45.83C56.653 45.71 56.543 45.63 56.433 45.63H43.393C42.833 45.63 42.373 45.17 42.373 44.61V16.78C42.373 16.22 42.833 15.76 43.393 15.76H68.723ZM44.663 31.69C44.723 31.69 44.793 31.66 44.843 31.62L54.083 22.4C54.273 22.21 54.523 22.11 54.803 22.11C55.083 22.11 55.333 22.21 55.523 22.4L58.413 25.29C58.413 25.29 58.523 25.36 58.593 25.36C58.663 25.36 58.723 25.34 58.773 25.29L61.683 22.38C61.873 22.19 62.123 22.09 62.403 22.09C62.683 22.09 62.933 22.19 63.123 22.38L66.143 25.4C66.143 25.4 66.253 25.47 66.323 25.47C66.363 25.47 66.403 25.47 66.433 25.44C66.813 25.25 67.183 25.08 67.563 24.91C67.653 24.87 67.713 24.78 67.713 24.68V18.04C67.713 17.9 67.603 17.79 67.463 17.79H44.663C44.593 17.79 44.533 17.82 44.483 17.86C44.433 17.91 44.413 17.97 44.413 18.04V31.44C44.413 31.54 44.473 31.63 44.563 31.67C44.593 31.68 44.623 31.69 44.663 31.69ZM61.893 28.65C61.953 28.65 62.013 28.63 62.063 28.58C62.793 27.88 63.503 27.29 64.233 26.78C64.293 26.74 64.333 26.67 64.343 26.6C64.353 26.53 64.323 26.45 64.273 26.4L62.583 24.71C62.583 24.71 62.473 24.64 62.403 24.64C62.333 24.64 62.273 24.66 62.223 24.71L60.213 26.72C60.213 26.72 60.143 26.83 60.143 26.9C60.143 26.97 60.173 27.03 60.213 27.08L61.713 28.58C61.713 28.58 61.823 28.65 61.893 28.65ZM44.663 43.6H56.103C56.173 43.6 56.243 43.57 56.283 43.52C56.333 43.47 56.353 43.4 56.353 43.33C56.323 42.93 56.303 42.51 56.303 42.08C56.303 37.87 57.753 33.73 60.373 30.44C60.453 30.34 60.443 30.2 60.353 30.11L54.963 24.72C54.963 24.72 54.853 24.65 54.783 24.65C54.713 24.65 54.653 24.67 54.603 24.72L44.483 34.84C44.483 34.84 44.413 34.95 44.413 35.02V43.36C44.413 43.5 44.523 43.61 44.663 43.61M75.033 58.79C84.243 58.79 91.733 51.3 91.733 42.09C91.733 32.88 84.243 25.39 75.033 25.39C65.823 25.39 58.333 32.88 58.333 42.09C58.353 51.28 65.843 58.77 75.033 58.79ZM102.863 72.48C103.553 72.48 104.193 72.21 104.673 71.73C105.663 70.74 105.663 69.11 104.673 68.1L90.153 53.58C90.153 53.58 90.043 53.51 89.973 53.51C89.973 53.51 89.963 53.51 89.953 53.51C89.883 53.51 89.813 53.55 89.773 53.61C88.833 54.81 87.743 55.9 86.543 56.84C86.483 56.88 86.453 56.95 86.443 57.02C86.433 57.09 86.463 57.16 86.513 57.21L101.033 71.73C101.513 72.21 102.163 72.48 102.843 72.48M68.723 15.51H43.393C42.693 15.51 42.123 16.08 42.123 16.78V44.62C42.123 45.32 42.693 45.89 43.393 45.89H56.423C58.253 54.88 66.173 61.08 75.003 61.08C76.253 61.08 77.523 60.96 78.803 60.7C80.823 60.29 82.773 59.55 84.573 58.5L99.443 73.37C100.393 74.32 101.633 74.79 102.873 74.79C104.113 74.79 105.353 74.32 106.293 73.37C108.193 71.47 108.193 68.4 106.293 66.52L91.423 51.65C96.693 42.59 93.623 30.98 84.573 25.69C81.653 23.98 78.3531 23.11 75.023 23.11C73.333 23.11 71.633 23.34 69.973 23.8V16.79C69.973 16.09 69.403 15.52 68.703 15.52L68.723 15.51ZM44.663 31.44V18.04H67.433V24.68C67.053 24.85 66.673 25.03 66.293 25.22L63.273 22.2C63.023 21.95 62.703 21.83 62.383 21.83C62.063 21.83 61.733 21.95 61.493 22.2L58.583 25.11L55.693 22.22C55.443 21.97 55.123 21.85 54.803 21.85C54.483 21.85 54.153 21.97 53.913 22.22L44.663 31.44ZM61.893 28.4L60.393 26.9L62.403 24.89L64.093 26.58C63.303 27.13 62.573 27.75 61.893 28.4ZM44.663 43.35V35.01L54.783 24.89L60.173 30.28C57.503 33.63 56.043 37.79 56.043 42.08C56.043 42.51 56.063 42.93 56.093 43.35H44.663ZM75.033 58.53C65.953 58.51 58.603 51.16 58.583 42.08C58.583 33 65.953 25.63 75.033 25.63C84.113 25.63 91.483 33 91.483 42.08C91.483 51.16 84.113 58.53 75.033 58.53ZM102.863 72.22C102.273 72.22 101.673 71.99 101.223 71.54L86.703 57.02C87.923 56.07 89.033 54.96 89.973 53.75L104.493 68.27C105.393 69.19 105.393 70.64 104.493 71.54C104.043 71.99 103.453 72.22 102.853 72.22H102.863Z" fill="#2673E5"/>
<path d="M65.0027 52.1V49.69C65.0027 49.25 65.2327 48.87 65.6327 48.66L67.3427 47.81C67.3427 47.81 67.3927 47.77 67.4027 47.73C67.4027 47.7 67.4027 47.66 67.3927 47.63C66.9427 46.85 66.6227 45.98 66.4227 45.03C66.4227 45 66.3927 44.96 66.3627 44.95C66.3427 44.94 66.3227 44.93 66.3027 44.93C66.2927 44.93 66.2727 44.93 66.2627 44.93L64.8427 45.4C64.7927 45.42 64.7527 45.46 64.7527 45.52V47.01H62.4727V44.6C62.4727 44.1 62.7827 43.68 63.2527 43.52L66.2227 42.52C66.2227 42.52 66.3027 42.46 66.3027 42.41C66.4327 41.2 66.8127 40.02 67.4127 39C67.4327 38.96 67.4327 38.91 67.4127 38.87C67.3927 38.84 67.3527 38.82 67.3127 38.82L64.8527 39.23C64.7927 39.23 64.7527 39.29 64.7527 39.35V40.68H62.4727V38.27C62.4727 37.7 62.8727 37.23 63.4227 37.14L70.1627 36.02C70.2127 36.02 70.2527 35.97 70.2627 35.92L70.8627 32.93C70.9227 32.58 71.0327 32.25 71.2127 31.89L70.1627 28.62L72.3327 27.89L72.9927 29.87C72.9927 29.87 73.0327 29.93 73.0627 29.95C73.0827 29.95 73.0927 29.95 73.1127 29.95C73.1327 29.95 73.1527 29.95 73.1627 29.94C73.7327 29.66 74.3727 29.51 75.0027 29.51C75.6327 29.51 76.2727 29.66 76.8427 29.94C76.8627 29.94 76.8827 29.95 76.8927 29.95C76.9127 29.95 76.9227 29.95 76.9427 29.95C76.9727 29.94 77.0027 29.91 77.0127 29.87L77.6727 27.89L79.8427 28.62L78.7927 31.79C78.9727 32.26 79.0827 32.59 79.1527 32.93L79.7527 35.92C79.7527 35.97 79.8027 36.01 79.8527 36.02L86.5927 37.14C87.1427 37.24 87.5527 37.71 87.5527 38.27V40.68H85.2727V39.35C85.2727 39.29 85.2327 39.24 85.1727 39.23C85.1727 39.23 82.7227 38.82 82.7127 38.82C82.6727 38.82 82.6327 38.84 82.6127 38.87C82.5827 38.91 82.5827 38.96 82.6127 39C83.2127 40.03 83.5927 41.21 83.7227 42.41C83.7227 42.46 83.7627 42.5 83.8027 42.52L86.7727 43.52C87.2427 43.68 87.5627 44.11 87.5627 44.6V47.01H85.3027V45.51C85.3027 45.46 85.2727 45.41 85.2127 45.39L83.7927 44.92C83.7927 44.92 83.7627 44.92 83.7527 44.92C83.7327 44.92 83.7127 44.92 83.6927 44.94C83.6627 44.96 83.6427 44.99 83.6327 45.02C83.4527 45.93 83.1227 46.8 82.6627 47.63C82.6427 47.66 82.6427 47.69 82.6627 47.73C82.6627 47.76 82.6927 47.79 82.7227 47.8L84.4327 48.65C84.8127 48.85 85.0627 49.25 85.0627 49.68V52.09H82.7827V50.46C82.7827 50.46 82.7527 50.37 82.7127 50.35L81.2527 49.62C81.2527 49.62 81.2127 49.61 81.1927 49.61C81.1627 49.61 81.1327 49.62 81.1027 49.65C80.2127 50.51 79.1527 51.17 77.9527 51.6C77.8327 51.64 77.7027 51.66 77.5727 51.66C77.0827 51.66 76.6627 51.36 76.4927 50.9L75.1527 47.12C75.1527 47.12 75.0827 47.04 75.0327 47.04C74.9827 47.04 74.9327 47.07 74.9127 47.12L73.5527 50.92C73.3927 51.38 72.9627 51.69 72.4827 51.69C72.3527 51.69 72.2227 51.67 72.1027 51.62C70.9327 51.2 69.8427 50.53 68.9527 49.67C68.9327 49.65 68.8927 49.63 68.8627 49.63C68.8427 49.63 68.8227 49.63 68.8027 49.64L67.3427 50.37C67.3427 50.37 67.2727 50.43 67.2727 50.48V52.11H64.9927L65.0027 52.1ZM75.0427 36.9C72.7827 36.9 70.6627 38.1 69.4927 40.03C67.6627 43.07 68.6527 47.04 71.7027 48.89C71.7227 48.9 71.7427 48.91 71.7627 48.91C71.7727 48.91 71.7927 48.91 71.8027 48.91C71.8427 48.9 71.8627 48.87 71.8827 48.83L73.8727 43.18V39.69H76.1627V43.14L78.1627 48.83C78.1627 48.83 78.2027 48.89 78.2427 48.91C78.2527 48.91 78.2727 48.91 78.2827 48.91C78.3027 48.91 78.3227 48.91 78.3427 48.89C79.2427 48.35 80.0027 47.58 80.5527 46.68C82.3827 43.64 81.3927 39.67 78.3427 37.82C77.3427 37.22 76.2027 36.9 75.0327 36.9H75.0427ZM75.0427 34.64C75.7227 34.64 76.4027 34.72 77.0627 34.87C77.0627 34.87 77.0827 34.87 77.0927 34.87C77.1227 34.87 77.1527 34.86 77.1827 34.83C77.2127 34.8 77.2227 34.76 77.2227 34.71L76.9527 33.4C76.7727 32.49 75.9627 31.83 75.0427 31.83C74.1227 31.83 73.3127 32.49 73.1527 33.4L72.8827 34.71C72.8827 34.71 72.8827 34.79 72.9227 34.83C72.9427 34.85 72.9727 34.87 73.0127 34.87C73.0127 34.87 73.0327 34.87 73.0427 34.87C73.7027 34.71 74.3827 34.64 75.0627 34.64H75.0427Z" fill="#2673E5"/>
<path d="M77.763 28.07L79.693 28.72L78.683 31.77C78.663 31.83 78.663 31.89 78.683 31.95C78.853 32.32 78.963 32.65 79.033 32.97L79.633 35.96C79.653 36.06 79.733 36.14 79.833 36.16L86.573 37.28C87.063 37.37 87.423 37.79 87.423 38.28V40.56H85.393V39.35C85.393 39.23 85.303 39.12 85.183 39.1L82.743 38.69C82.743 38.69 82.713 38.69 82.703 38.69C82.623 38.69 82.543 38.73 82.493 38.8C82.433 38.88 82.433 38.98 82.483 39.07C83.073 40.08 83.453 41.25 83.573 42.43C83.583 42.53 83.653 42.61 83.743 42.64L86.713 43.64C87.133 43.78 87.413 44.17 87.413 44.6V46.88H85.403V45.5C85.403 45.39 85.333 45.3 85.233 45.26L83.813 44.79C83.813 44.79 83.763 44.78 83.733 44.78C83.693 44.78 83.643 44.79 83.603 44.81C83.543 44.85 83.493 44.91 83.483 44.98C83.303 45.88 82.983 46.74 82.533 47.55C82.503 47.61 82.493 47.68 82.513 47.75C82.533 47.82 82.583 47.87 82.643 47.9L84.343 48.75C84.683 48.93 84.903 49.29 84.903 49.67V51.95H82.873V50.44C82.873 50.35 82.823 50.26 82.733 50.22L81.273 49.49C81.273 49.49 81.203 49.46 81.163 49.46C81.103 49.46 81.033 49.48 80.993 49.53C80.113 50.38 79.063 51.03 77.893 51.45C77.783 51.49 77.673 51.51 77.553 51.51C77.113 51.51 76.743 51.24 76.593 50.83L75.253 47.05C75.213 46.95 75.123 46.88 75.013 46.88C74.903 46.88 74.813 46.95 74.773 47.05L73.413 50.85C73.263 51.26 72.883 51.53 72.463 51.53C72.343 51.53 72.233 51.51 72.123 51.47C70.973 51.06 69.893 50.4 69.013 49.55C68.963 49.5 68.903 49.48 68.843 49.48C68.803 49.48 68.763 49.48 68.733 49.51L67.273 50.24C67.193 50.28 67.133 50.37 67.133 50.46V51.97H65.103V49.69C65.103 49.3 65.313 48.96 65.663 48.77L67.373 47.92C67.433 47.89 67.483 47.83 67.503 47.77C67.523 47.7 67.513 47.63 67.483 47.57C67.043 46.81 66.723 45.94 66.533 45C66.523 44.93 66.473 44.87 66.413 44.83C66.373 44.81 66.333 44.8 66.283 44.8C66.253 44.8 66.233 44.8 66.203 44.81L64.783 45.28C64.683 45.31 64.613 45.41 64.613 45.52V46.88H62.583V44.6C62.583 44.16 62.853 43.78 63.283 43.63L66.253 42.63C66.343 42.6 66.413 42.52 66.423 42.42C66.543 41.23 66.923 40.07 67.513 39.06C67.563 38.98 67.553 38.87 67.503 38.79C67.453 38.72 67.383 38.68 67.293 38.68C67.283 38.68 67.263 38.68 67.253 38.68L64.813 39.09C64.693 39.11 64.603 39.21 64.603 39.34V40.55H62.573V38.27C62.573 37.76 62.933 37.34 63.423 37.27L70.163 36.15C70.263 36.13 70.343 36.05 70.363 35.95L70.963 32.95C71.023 32.62 71.123 32.3 71.303 31.95C71.333 31.89 71.333 31.82 71.313 31.76L70.303 28.71L72.233 28.06L72.853 29.93C72.873 30 72.923 30.05 72.993 30.08C73.023 30.09 73.053 30.1 73.093 30.1C73.133 30.1 73.163 30.1 73.203 30.07C73.763 29.8 74.373 29.66 74.993 29.66C75.613 29.66 76.223 29.8 76.783 30.07C76.813 30.09 76.853 30.1 76.893 30.1C76.923 30.1 76.963 30.1 76.993 30.08C77.063 30.05 77.113 30 77.133 29.93L77.753 28.06M72.973 34.98C72.973 34.98 73.013 34.98 73.033 34.98C73.683 34.83 74.353 34.75 75.023 34.75C75.693 34.75 76.363 34.83 77.013 34.98C77.033 34.98 77.053 34.98 77.073 34.98C77.133 34.98 77.203 34.96 77.243 34.91C77.303 34.85 77.333 34.76 77.313 34.68L77.043 33.37C76.843 32.4 75.993 31.7 75.013 31.7C74.033 31.7 73.173 32.4 72.993 33.37L72.723 34.68C72.703 34.76 72.723 34.85 72.793 34.91C72.843 34.96 72.903 34.98 72.963 34.98M71.743 49.01C71.743 49.01 71.803 49.01 71.823 49C71.893 48.97 71.953 48.92 71.973 48.85L73.963 43.2C73.963 43.2 73.973 43.15 73.973 43.12V39.8H76.003V43.12C76.003 43.12 76.003 43.18 76.013 43.2L78.003 48.85C78.033 48.92 78.083 48.98 78.153 49C78.183 49 78.213 49.01 78.233 49.01C78.283 49.01 78.323 49 78.363 48.97C79.283 48.41 80.053 47.64 80.613 46.72C82.483 43.62 81.473 39.57 78.363 37.69C77.343 37.07 76.173 36.75 74.993 36.75C72.693 36.75 70.523 37.97 69.343 39.94C67.473 43.04 68.483 47.09 71.593 48.97C71.633 48.99 71.673 49.01 71.723 49.01M77.563 27.74L76.863 29.84C76.263 29.55 75.613 29.4 74.963 29.4C74.313 29.4 73.663 29.55 73.063 29.84L72.363 27.74L69.963 28.55L71.053 31.84C70.883 32.19 70.753 32.54 70.693 32.92L70.093 35.91L63.353 37.03C62.733 37.12 62.293 37.66 62.293 38.28V40.81H64.823V39.35L67.263 38.94C66.643 40 66.263 41.19 66.143 42.4L63.173 43.4C62.653 43.57 62.303 44.05 62.303 44.6V47.13H64.833V45.52L66.253 45.05C66.443 45.98 66.763 46.87 67.233 47.69L65.523 48.54C65.093 48.76 64.823 49.19 64.823 49.68V52.21H67.353V50.45L68.813 49.72C69.713 50.59 70.803 51.27 72.013 51.7C72.153 51.75 72.303 51.77 72.443 51.77C72.963 51.77 73.443 51.44 73.633 50.92L74.993 47.12L76.333 50.9C76.523 51.43 77.003 51.74 77.533 51.74C77.673 51.74 77.813 51.72 77.953 51.67C79.143 51.24 80.233 50.58 81.153 49.69L82.613 50.42V52.18H85.143V49.65C85.143 49.18 84.873 48.73 84.443 48.51L82.733 47.66C83.193 46.84 83.523 45.95 83.713 45.02L85.133 45.49V47.12H87.643V44.59C87.643 44.05 87.293 43.56 86.773 43.39L83.803 42.39C83.673 41.17 83.293 39.99 82.683 38.93L85.123 39.34V40.8H87.653V38.27C87.653 37.65 87.213 37.13 86.593 37.02L79.853 35.9L79.253 32.91C79.173 32.53 79.043 32.18 78.893 31.83L79.983 28.54L77.583 27.73L77.563 27.74ZM72.943 34.73L73.213 33.42C73.373 32.57 74.113 31.95 74.983 31.95C75.853 31.95 76.593 32.57 76.773 33.42L77.043 34.73C76.373 34.57 75.683 34.49 74.993 34.49C74.303 34.49 73.613 34.57 72.943 34.73ZM71.723 48.76C68.733 46.96 67.753 43.07 69.553 40.08C70.743 38.11 72.843 37.01 74.993 37.01C76.103 37.01 77.223 37.3 78.233 37.91C81.223 39.71 82.203 43.6 80.403 46.59C79.863 47.48 79.123 48.22 78.233 48.76L76.243 43.11V39.54H73.713V43.11L71.723 48.76Z" fill="#2673E5"/>
<path d="M107.802 15.64H72.6221V17.92H107.802V15.64Z" fill="#2673E5"/>
<path d="M107.682 15.76V17.79H72.752V15.76H107.682ZM107.932 15.51H72.502V18.04H107.932V15.51Z" fill="#2673E5"/>
<path d="M107.812 21.97H85.2822V24.25H107.812V21.97Z" fill="#2673E5"/>
<path d="M107.682 22.09V24.12H85.4023V22.09H107.682ZM107.932 21.84H85.1523V24.37H107.932V21.84Z" fill="#2673E5"/>
<path d="M107.802 29.5601H94.1318V31.8401H107.802V29.5601Z" fill="#2673E5"/>
<path d="M107.682 29.6801V31.7101H94.2617V29.6801H107.682ZM107.932 29.4301H94.0117V31.9601H107.932V29.4301Z" fill="#2673E5"/>
<path d="M107.803 37.15H96.6631V39.43H107.803V37.15Z" fill="#2673E5"/>
<path d="M107.683 37.28V39.31H96.793V37.28H107.683ZM107.933 37.03H96.543V39.56H107.933V37.03Z" fill="#2673E5"/>
<path d="M107.803 44.74H96.6631V47.02H107.803V44.74Z" fill="#2673E5"/>
<path d="M107.683 44.87V46.9H96.793V44.87H107.683ZM107.933 44.62H96.543V47.15H107.933V44.62Z" fill="#2673E5"/>
<path d="M107.803 52.34H97.9326V54.62H107.803V52.34Z" fill="#2673E5"/>
<path d="M107.682 52.46V54.49H98.0625V52.46H107.682ZM107.932 52.21H97.8125V54.74H107.932V52.21Z" fill="#2673E5"/>
<path d="M67.8935 69.46C67.6835 69.25 67.5635 68.96 67.5635 68.65C67.5635 68.34 67.6835 68.06 67.8935 67.85L71.6035 64.14L73.2135 65.77L70.4035 68.58C70.4035 68.58 70.3535 68.71 70.4035 68.76L73.2135 71.57L71.6035 73.18L67.8935 69.47V69.46Z" fill="#2673E5"/>
<path d="M71.593 64.32L73.033 65.77L70.313 68.49C70.213 68.59 70.213 68.75 70.313 68.84L73.033 71.56L71.603 72.99L67.983 69.37C67.583 68.97 67.583 68.33 67.983 67.94L71.603 64.32M71.603 63.97L67.803 67.77C67.313 68.26 67.313 69.07 67.803 69.56L71.603 73.36L73.393 71.57L70.503 68.68L73.393 65.79L71.603 63.99V63.97Z" fill="#2673E5"/>
<path d="M77.7162 65.8058L75.2773 71.9064L77.3944 72.7527L79.8333 66.6521L77.7162 65.8058Z" fill="#2673E5"/>
<path d="M77.793 65.97L79.683 66.72L77.333 72.59L75.443 71.84L77.793 65.97ZM77.653 65.65L75.123 71.98L77.473 72.92L80.003 66.59L77.653 65.65Z" fill="#2673E5"/>
<path d="M81.9121 71.54L84.7221 68.73C84.7221 68.73 84.7721 68.6 84.7221 68.55L81.9121 65.74L83.5221 64.13L87.2321 67.82C87.6721 68.26 87.6721 68.99 87.2321 69.43L83.5221 73.14L81.9121 71.53V71.54Z" fill="#2673E5"/>
<path d="M83.5224 64.32L87.1424 67.92C87.3324 68.11 87.4324 68.36 87.4324 68.64C87.4324 68.92 87.3324 69.17 87.1424 69.36L83.5224 72.98L82.0924 71.55L84.8124 68.83C84.8124 68.83 84.8824 68.72 84.8824 68.65C84.8824 68.58 84.8524 68.52 84.8124 68.47L82.0924 65.75L83.5224 64.32ZM83.5224 63.97L81.7324 65.76L84.6224 68.65L81.7324 71.54L83.5224 73.33L87.3224 69.53C87.8124 69.04 87.8124 68.23 87.3224 67.74L83.5224 63.96V63.97Z" fill="#2673E5"/>
<path d="M64.7829 67.52H42.2529V69.8H64.7829V67.52Z" fill="#2673E5"/>
<path d="M64.6528 67.65V69.68H42.3828V67.65H64.6528ZM64.9028 67.4H42.1328V69.93H64.9028V67.4Z" fill="#2673E5"/>
<path d="M62.2529 59.9301H42.2529V62.2101H62.2529V59.9301Z" fill="#2673E5"/>
<path d="M62.1228 60.05V62.0801H42.3828V60.05H62.1228ZM62.3728 59.8H42.1328V62.3301H62.3728V59.8Z" fill="#2673E5"/>
<path d="M54.6529 52.34H42.2529V54.62H54.6529V52.34Z" fill="#2673E5"/>
<path d="M54.5328 52.46V54.49H42.3828V52.46H54.5328ZM54.7828 52.21H42.1328V54.74H54.7828V52.21Z" fill="#2673E5"/>
</g>
<defs>
<clipPath id="clip0_1151_23828">
<rect width="84" height="84" fill="white" transform="matrix(-1 0 0 1 117.059 0)"/>
</clipPath>
</defs>
</svg>
