<svg width="116" height="84" viewBox="0 0 116 84" fill="none" xmlns="http://www.w3.org/2000/svg">
<rect x="42.8125" width="59.2131" height="59.2131" rx="5" transform="rotate(45 42.8125 0)" fill="#2673E5" fill-opacity="0.1"/>
<g clip-path="url(#clip0_1151_23779)">
<path d="M74.6333 57.02H72.1233C71.4333 57.02 70.8633 57.58 70.8633 58.28C70.8633 58.98 71.4233 59.54 72.1233 59.54H74.6333C75.3233 59.54 75.8933 58.98 75.8933 58.28C75.8933 57.58 75.3333 57.02 74.6333 57.02Z" fill="#2673E5" stroke="#2673E5" stroke-width="0.5"/>
<path d="M103.523 8.4V6.77C103.523 5.77 103.123 4.81 102.423 4.11C101.723 3.41 100.753 3 99.7534 3H94.7334C94.0434 3 93.4734 3.56 93.4734 4.26C93.4734 4.96 94.0334 5.52 94.7334 5.52H99.7534C100.083 5.52 100.403 5.65 100.643 5.89C100.883 6.13 101.013 6.45 101.013 6.78V15.56H45.7334V6.77C45.7334 6.08 46.2934 5.51 46.9934 5.51H83.4234C84.1134 5.51 84.6834 4.95 84.6834 4.25C84.6834 3.55 84.1134 3 83.4234 3H46.9934C45.9934 3 45.0334 3.4 44.3234 4.1C43.6134 4.8 43.2234 5.77 43.2234 6.76V8.39C41.4134 8.93 39.8234 10.04 38.6934 11.56C37.5534 13.09 36.9434 14.93 36.9434 16.82V57.02C36.9434 59.35 37.8734 61.59 39.5234 63.24C41.1734 64.89 43.4134 65.82 45.7434 65.82H63.8634L59.5534 78.38H58.2934C57.6034 78.38 57.0334 78.94 57.0334 79.64C57.0334 80.34 57.5934 80.9 58.2934 80.9H88.4434C89.1334 80.9 89.7034 80.34 89.7034 79.64C89.7034 78.94 89.1434 78.38 88.4434 78.38H87.1834L82.8734 65.82H101.003C103.333 65.82 105.573 64.89 107.223 63.24C108.873 61.59 109.803 59.35 109.803 57.02V16.82C109.803 14.93 109.193 13.09 108.053 11.57C106.923 10.05 105.333 8.94 103.523 8.4ZM101.013 18.07V43.19C101.013 43.52 100.883 43.84 100.643 44.08C100.403 44.32 100.083 44.45 99.7534 44.45H46.9934C46.3034 44.45 45.7334 43.89 45.7334 43.19V18.07H101.003H101.013ZM43.2234 11.09V43.2C43.2234 44.2 43.6234 45.16 44.3234 45.86C45.0234 46.56 45.9934 46.96 46.9834 46.96H99.7534C100.753 46.96 101.713 46.56 102.413 45.86C103.113 45.16 103.513 44.19 103.513 43.2V11.09C104.633 11.57 105.593 12.37 106.263 13.39C106.933 14.41 107.293 15.6 107.283 16.82V50.74H39.4534V16.82C39.4534 15.6 39.8034 14.41 40.4734 13.39C41.1434 12.37 42.1034 11.57 43.2234 11.09V11.09ZM84.5434 78.37H62.2034L66.5134 65.81H80.2334L84.5434 78.37ZM101.013 63.3H45.7334C44.0634 63.3 42.4734 62.64 41.2934 61.46C40.1134 60.28 39.4534 58.68 39.4534 57.02V53.25H107.293V57.02C107.293 58.69 106.633 60.28 105.453 61.46C104.273 62.64 102.673 63.3 101.013 63.3Z" fill="#2673E5" stroke="#2673E5" stroke-width="0.5"/>
<path d="M88.4534 5.50999H89.7134C90.4034 5.50999 90.9734 4.94999 90.9734 4.24999C90.9734 3.54999 90.4134 2.98999 89.7134 2.98999H88.4534C87.7634 2.98999 87.1934 3.54999 87.1934 4.24999C87.1934 4.94999 87.7534 5.50999 88.4534 5.50999Z" fill="#2673E5" stroke="#2673E5" stroke-width="0.5"/>
<path d="M97.2427 10.54C97.2427 11.93 96.1127 13.05 94.7327 13.05C93.3527 13.05 92.2227 11.93 92.2227 10.54C92.2227 9.15003 93.3527 8.03003 94.7327 8.03003C96.1127 8.03003 97.2427 9.15003 97.2427 10.54Z" fill="#2673E5"/>
<path d="M97.2427 10.54C97.2427 11.93 96.1127 13.05 94.7327 13.05C93.3527 13.05 92.2227 11.93 92.2227 10.54C92.2227 9.15003 93.3527 8.03003 94.7327 8.03003C96.1127 8.03003 97.2427 9.15003 97.2427 10.54" stroke="#2673E5" stroke-width="0.5"/>
<path d="M89.7036 10.54C89.7036 11.93 88.5736 13.05 87.1936 13.05C85.8136 13.05 84.6836 11.93 84.6836 10.54C84.6836 9.15003 85.8136 8.03003 87.1936 8.03003C88.5736 8.03003 89.7036 9.15003 89.7036 10.54Z" fill="#2673E5"/>
<path d="M89.7036 10.54C89.7036 11.93 88.5736 13.05 87.1936 13.05C85.8136 13.05 84.6836 11.93 84.6836 10.54C84.6836 9.15003 85.8136 8.03003 87.1936 8.03003C88.5736 8.03003 89.7036 9.15003 89.7036 10.54" stroke="#2673E5" stroke-width="0.5"/>
<path d="M82.1636 10.54C82.1636 11.93 81.0336 13.05 79.6536 13.05C78.2736 13.05 77.1436 11.93 77.1436 10.54C77.1436 9.15003 78.2736 8.03003 79.6536 8.03003C81.0336 8.03003 82.1636 9.15003 82.1636 10.54Z" fill="#2673E5"/>
<path d="M82.1636 10.54C82.1636 11.93 81.0336 13.05 79.6536 13.05C78.2736 13.05 77.1436 11.93 77.1436 10.54C77.1436 9.15003 78.2736 8.03003 79.6536 8.03003C81.0336 8.03003 82.1636 9.15003 82.1636 10.54" stroke="#2673E5" stroke-width="0.5"/>
<path d="M50.7639 9.28003C50.0739 9.28003 49.5039 9.84003 49.5039 10.54C49.5039 11.24 50.0639 11.8 50.7639 11.8H72.1239C72.8139 11.8 73.3839 11.24 73.3839 10.54C73.3839 9.84003 72.8239 9.28003 72.1239 9.28003H50.7639Z" fill="#2673E5" stroke="#2673E5" stroke-width="0.5"/>
<path d="M50.9739 36.35C51.2039 36.7 51.5939 36.91 52.0139 36.92C52.2639 36.92 52.5039 36.85 52.7039 36.71C53.2739 36.33 53.4339 35.55 53.0539 34.98L51.0039 31.9L53.0539 28.82C53.3639 28.25 53.1839 27.54 52.6439 27.18C52.1039 26.82 51.3739 26.93 50.9739 27.44L48.4639 31.21C48.1839 31.63 48.1839 32.17 48.4639 32.59L50.9739 36.36V36.35Z" fill="#2673E5" stroke="#2673E5" stroke-width="0.5"/>
<path d="M61.3737 36.7C61.5737 36.84 61.8137 36.92 62.0637 36.91C62.4837 36.91 62.8737 36.7 63.1037 36.34L65.6137 32.57C65.8937 32.15 65.8937 31.61 65.6137 31.19L63.1037 27.42C62.9337 27.11 62.6437 26.88 62.3037 26.8C61.9637 26.71 61.5937 26.78 61.3037 26.97C61.0137 27.17 60.8137 27.48 60.7537 27.82C60.7037 28.17 60.7937 28.52 61.0137 28.8L63.0637 31.88L61.0137 34.96C60.6337 35.54 60.7937 36.31 61.3637 36.69L61.3737 36.7Z" fill="#2673E5" stroke="#2673E5" stroke-width="0.5"/>
<path d="M55.4731 37.97C55.5731 37.98 55.6831 37.98 55.7831 37.97C56.3731 37.99 56.8931 37.6 57.0431 37.03L59.5531 27.31C59.7231 26.64 59.3231 25.95 58.6531 25.78C57.9831 25.61 57.2931 26.01 57.1231 26.68L54.6131 36.4C54.5131 36.72 54.5531 37.07 54.7131 37.37C54.8731 37.67 55.1531 37.88 55.4731 37.97Z" fill="#2673E5" stroke="#2673E5" stroke-width="0.5"/>
<path d="M73.3733 41.94H94.7333C95.7333 41.94 96.6933 41.54 97.3933 40.84C98.0933 40.14 98.4933 39.17 98.4933 38.18V25.62C98.4933 24.62 98.0933 23.66 97.3933 22.96C96.6933 22.26 95.7233 21.86 94.7333 21.86H73.3733C72.3733 21.86 71.4133 22.26 70.7133 22.96C70.0133 23.66 69.6133 24.63 69.6133 25.62V38.18C69.6133 39.18 70.0133 40.14 70.7133 40.84C71.4133 41.54 72.3833 41.94 73.3733 41.94ZM84.0933 39.43L82.4833 37.01L86.2533 32.44C86.4933 32.16 86.8433 31.99 87.2033 31.99C87.5733 31.96 87.9233 32.12 88.1433 32.42L94.4233 39.44H84.0833L84.0933 39.43ZM81.0833 39.43H73.8933L77.1433 36.21C77.4033 35.94 77.7833 35.8 78.1633 35.83C78.5433 35.87 78.8733 36.08 79.0833 36.4L81.0833 39.43ZM73.3833 24.36H94.7433C95.0733 24.36 95.3933 24.49 95.6333 24.73C95.8733 24.97 96.0033 25.29 96.0033 25.62V37.39L90.0833 30.74C89.3633 29.94 88.3433 29.48 87.2733 29.48C86.1633 29.48 85.1133 29.99 84.4133 30.84L81.0633 34.86C80.4133 33.97 79.4133 33.41 78.3133 33.32C77.2133 33.23 76.1333 33.63 75.3533 34.4L72.1333 37.65V25.6C72.1333 24.91 72.6933 24.34 73.3933 24.34L73.3833 24.36Z" fill="#2673E5" stroke="#2673E5" stroke-width="0.5"/>
<path d="M80.9136 29.38C80.9136 30.77 79.7836 31.89 78.4036 31.89C77.0236 31.89 75.8936 30.76 75.8936 29.38C75.8936 28 77.0236 26.87 78.4036 26.87C79.7836 26.87 80.9136 28 80.9136 29.38Z" fill="#2673E5"/>
<path d="M80.9136 29.38C80.9136 30.77 79.7836 31.89 78.4036 31.89C77.0236 31.89 75.8936 30.76 75.8936 29.38C75.8936 28 77.0236 26.87 78.4036 26.87C79.7836 26.87 80.9136 28 80.9136 29.38" stroke="#2673E5" stroke-width="0.5"/>
</g>
<defs>
<clipPath id="clip0_1151_23779">
<rect width="84" height="84" fill="white" transform="matrix(-1 0 0 1 115.059 0)"/>
</clipPath>
</defs>
</svg>
