<svg width="296" height="280" viewBox="0 0 296 280" fill="none" xmlns="http://www.w3.org/2000/svg">
<g clip-path="url(#clip0_7018_253333)">
<path d="M296 0H0V280H296V0Z" fill="white"/>
<path d="M294.131 238.49H1.62109V238.66H294.131V238.49Z" fill="#ECECEC"/>
<path d="M64.3913 245.131H10.0312V245.301H64.3913V245.131Z" fill="#ECECEC"/>
<path d="M287.36 250.439H260.91V250.609H287.36V250.439Z" fill="#ECECEC"/>
<path d="M78.4799 251.609H65.0898V251.779H78.4799V251.609Z" fill="#ECECEC"/>
<path d="M144.628 243.24H114.488V243.41H144.628V243.24Z" fill="#ECECEC"/>
<path d="M155.272 243.24H150.852V243.41H155.272V243.24Z" fill="#ECECEC"/>
<path d="M232.23 247.49H202.07V247.66H232.23V247.49Z" fill="#ECECEC"/>
<path d="M138.81 207.37H4.06984C1.86984 207.37 0.0898438 205.58 0.0898438 203.39V13.98C0.0898438 11.78 1.87984 10 4.06984 10H138.81C141.01 10 142.79 11.79 142.79 13.98V203.38C142.79 205.58 141 207.36 138.81 207.36V207.37ZM4.06984 10.17C1.96984 10.17 0.259844 11.88 0.259844 13.98V203.38C0.259844 205.48 1.96984 207.19 4.06984 207.19H138.81C140.91 207.19 142.62 205.48 142.62 203.38V13.98C142.62 11.88 140.91 10.17 138.81 10.17H4.06984Z" fill="#ECECEC"/>
<path d="M289.74 207.37H155C152.8 207.37 151.02 205.58 151.02 203.39V13.98C151.02 11.78 152.81 10 155 10H289.74C291.94 10 293.72 11.79 293.72 13.98V203.38C293.72 205.58 291.93 207.36 289.74 207.36V207.37ZM155 10.17C152.9 10.17 151.19 11.88 151.19 13.98V203.38C151.19 205.48 152.9 207.19 155 207.19H289.74C291.84 207.19 293.55 205.48 293.55 203.38V13.98C293.55 11.88 291.84 10.17 289.74 10.17H155Z" fill="#ECECEC"/>
<path d="M66.1401 222.531H31.8501C30.3201 222.531 29.0201 221.411 28.8001 219.901L20.2201 161.241C19.9501 159.381 21.3901 157.721 23.2701 157.721H57.5501C59.0801 157.721 60.3801 158.841 60.6001 160.351L69.1801 219.011C69.4501 220.871 68.0101 222.531 66.1301 222.531H66.1401Z" fill="#ECECEC"/>
<path d="M35.9303 222.531H19.7603C18.2303 222.531 16.9303 221.411 16.7103 219.901L8.13028 161.241C7.86028 159.381 9.30028 157.721 11.1803 157.721H27.3503C28.8803 157.721 30.1803 158.841 30.4003 160.351L38.9803 219.011C39.2503 220.871 37.8103 222.531 35.9303 222.531Z" fill="#F5F5F5"/>
<path d="M240.551 142.84H73.921C69.691 142.84 65.961 146.01 65.601 149.93L61.411 195.22C61.051 199.13 64.181 202.31 68.421 202.31H235.051C239.281 202.31 243.011 199.14 243.371 195.22L247.561 149.93C247.921 146.02 244.791 142.84 240.551 142.84Z" fill="#E1E1E1"/>
<path d="M229.239 142.84H62.6085C58.3785 142.84 54.6485 146.01 54.2885 149.93L50.0985 195.22C49.7385 199.13 52.8685 202.31 57.1085 202.31H223.739C227.969 202.31 231.699 199.14 232.059 195.22L236.249 149.93C236.609 146.02 233.479 142.84 229.239 142.84Z" fill="#E7E7E7"/>
<path d="M114.371 215.349V203.559C114.371 199.588 111.152 196.369 107.181 196.369H48.7611C44.7902 196.369 41.5711 199.588 41.5711 203.559V215.349C41.5711 219.32 44.7902 222.539 48.7611 222.539H107.181C111.152 222.539 114.371 219.32 114.371 215.349Z" fill="#ECECEC"/>
<path d="M214.762 215.959V202.949C214.762 199.315 211.816 196.369 208.182 196.369H138.902C135.268 196.369 132.322 199.315 132.322 202.949V215.959C132.322 219.593 135.268 222.539 138.902 222.539H208.182C211.816 222.539 214.762 219.593 214.762 215.959Z" fill="#E1E1E1"/>
<path d="M196.809 215.959V202.949C196.809 199.315 193.863 196.369 190.229 196.369H120.949C117.315 196.369 114.369 199.315 114.369 202.949V215.959C114.369 219.593 117.315 222.539 120.949 222.539H190.229C193.863 222.539 196.809 219.593 196.809 215.959Z" fill="#ECECEC"/>
<path d="M240.091 222.531H214.591C212.711 222.531 211.481 220.861 211.991 219.011L228.051 160.351C228.461 158.841 229.901 157.721 231.431 157.721H256.931C258.811 157.721 260.041 159.391 259.531 161.241L243.471 219.901C243.061 221.411 241.621 222.531 240.091 222.531Z" fill="#ECECEC"/>
<path d="M218.671 222.531H202.501C200.621 222.531 199.391 220.861 199.901 219.011L215.961 160.351C216.371 158.841 217.811 157.721 219.341 157.721H235.511C237.391 157.721 238.621 159.391 238.111 161.241L222.051 219.901C221.641 221.411 220.201 222.531 218.671 222.531Z" fill="#F5F5F5"/>
<path d="M205.139 238.489H202.689L196.809 222.529H202.889L205.139 238.489Z" fill="#E1E1E1"/>
<path d="M236.281 238.489H233.821L227.941 222.529H234.021L236.281 238.489Z" fill="#E1E1E1"/>
<path d="M59.3008 238.489H61.7608L67.6408 222.529H61.5608L59.3008 238.489Z" fill="#E1E1E1"/>
<path d="M28.1719 238.489H30.6219L36.5019 222.529H30.4219L28.1719 238.489Z" fill="#E1E1E1"/>
<path d="M240.91 39.8105H54.8398V106.181H240.91V39.8105Z" fill="#E1E1E1"/>
<path d="M239.199 39.8105H53.1289V106.181H239.199V39.8105Z" fill="#E7E7E7"/>
<path d="M233.617 100.581V45.3809L58.7072 45.3809V100.581L233.617 100.581Z" fill="#FAFAFA"/>
<path d="M146.167 89.5414C155.308 89.5414 162.717 82.1317 162.717 72.9914C162.717 63.8511 155.308 56.4414 146.167 56.4414C137.027 56.4414 129.617 63.8511 129.617 72.9914C129.617 82.1317 137.027 89.5414 146.167 89.5414Z" fill="#E7E7E7"/>
<path d="M87.1094 100.591L98.6994 45.3906H124.279L112.689 100.591H87.1094Z" fill="white"/>
<path d="M123.488 100.591L135.078 45.3906H147.868L136.278 100.591H123.488Z" fill="white"/>
<path d="M201.598 100.591L213.188 45.3906H225.978L214.388 100.591H201.598Z" fill="white"/>
<path d="M282.043 147.332C277.703 166.142 288.323 185.582 283.983 204.392C282.553 204.332 281.113 204.272 279.683 204.212C278.253 204.152 276.813 204.092 275.383 204.032C282.593 185.332 274.833 166.022 282.043 147.332Z" fill="#ECECEC"/>
<path d="M270.911 155.492C274.471 173.482 263.051 191.462 266.611 209.452H275.221C268.791 191.462 277.341 173.482 270.921 155.492H270.911Z" fill="#ECECEC"/>
<path d="M278.863 140.531C273.173 159.711 283.753 180.411 278.063 199.601C276.503 199.451 274.943 199.311 273.383 199.161C271.823 199.011 270.263 198.871 268.703 198.721C277.513 179.831 270.053 159.421 278.853 140.531H278.863Z" fill="#E7E7E7"/>
<path d="M287.243 168.162C289.083 178.532 278.843 186.692 280.683 197.062C281.843 197.272 282.993 197.482 284.153 197.702C285.313 197.912 286.463 198.122 287.623 198.342C283.473 187.542 291.393 178.962 287.253 168.162H287.243Z" fill="#E7E7E7"/>
<path d="M291.032 196.371H262.922C256.412 209.661 256.412 225.201 262.922 238.491H291.032C297.542 225.201 297.542 209.661 291.032 196.371Z" fill="#F5F5F5"/>
<path d="M147.868 269.999C222.587 269.999 283.158 266.462 283.158 262.099C283.158 257.736 222.587 254.199 147.868 254.199C73.1495 254.199 12.5781 257.736 12.5781 262.099C12.5781 266.462 73.1495 269.999 147.868 269.999Z" fill="#F5F5F5"/>
<path d="M241.229 163.261H90.4391C88.8091 163.261 87.5591 161.931 87.6491 160.301L92.7291 67.8506C92.8191 66.2206 94.2191 64.8906 95.8491 64.8906H246.639C248.269 64.8906 249.519 66.2206 249.429 67.8506L244.349 160.301C244.259 161.931 242.859 163.261 241.229 163.261Z" fill="#1A2E35"/>
<path d="M177.799 80.6305H163.219C158.359 80.6305 154.599 76.6605 154.869 71.8105L155.019 69.1105C155.279 64.4105 159.339 60.5605 164.049 60.5605H178.619C183.489 60.5605 187.249 64.5305 186.979 69.3905L186.829 72.0805C186.569 76.7805 182.509 80.6305 177.799 80.6305Z" fill="#1A2E35"/>
<path d="M191.069 259.181H186.399L173.539 62.6211H178.209L191.069 259.181Z" fill="#1A2E35"/>
<path d="M156.02 259.181H160.69L173.54 62.6211H168.87L156.02 259.181Z" fill="#1A2E35"/>
<path d="M240.428 163.261H89.6383C88.0083 163.261 86.7583 161.931 86.8483 160.301L91.9283 67.8506C92.0183 66.2206 93.4183 64.8906 95.0483 64.8906H245.838C247.468 64.8906 248.718 66.2206 248.628 67.8506L243.548 160.301C243.458 161.931 242.058 163.261 240.428 163.261Z" fill="#007CFF"/>
<path opacity="0.6" d="M240.428 163.261H89.6383C88.0083 163.261 86.7583 161.931 86.8483 160.301L91.9283 67.8506C92.0183 66.2206 93.4183 64.8906 95.0483 64.8906H245.838C247.468 64.8906 248.718 66.2206 248.628 67.8506L243.548 160.301C243.458 161.931 242.058 163.261 240.428 163.261Z" fill="#F5F5F5"/>
<path d="M92.0264 160.43C90.7264 160.43 89.7264 159.37 89.7964 158.07L94.6264 70.1002C94.6964 68.8002 95.8164 67.7402 97.1164 67.7402H243.426C244.726 67.7402 245.726 68.8002 245.656 70.1002L240.826 158.07C240.756 159.37 239.636 160.43 238.336 160.43H92.0264Z" fill="#E7E7E7"/>
<path opacity="0.7" d="M92.0264 160.43C90.7264 160.43 89.7264 159.37 89.7964 158.07L94.6264 70.1002C94.6964 68.8002 95.8164 67.7402 97.1164 67.7402H243.426C244.726 67.7402 245.726 68.8002 245.656 70.1002L240.826 158.07C240.756 159.37 239.636 160.43 238.336 160.43H92.0264Z" fill="#F5F5F5"/>
<path opacity="0.4" d="M239.248 113.801H195.208C194.098 113.801 193.248 112.901 193.308 111.791L195.508 71.7507C195.508 71.5907 195.398 71.4707 195.238 71.4707C195.078 71.4707 194.948 71.6007 194.938 71.7507L192.738 111.791C192.678 112.901 191.728 113.801 190.618 113.801H144.848C143.738 113.801 142.888 112.901 142.948 111.791L145.148 71.7507C145.148 71.5907 145.038 71.4707 144.878 71.4707C144.718 71.4707 144.588 71.6007 144.578 71.7507L142.378 111.791C142.318 112.901 141.368 113.801 140.258 113.801H96.218C96.058 113.801 95.928 113.931 95.918 114.081C95.918 114.241 96.028 114.361 96.188 114.361H140.228C141.338 114.361 142.188 115.261 142.128 116.371L139.928 156.411C139.928 156.571 140.038 156.691 140.198 156.691C140.358 156.691 140.488 156.561 140.498 156.411L142.698 116.371C142.758 115.261 143.708 114.361 144.818 114.361H190.588C191.698 114.361 192.548 115.261 192.488 116.371L190.288 156.411C190.288 156.571 190.398 156.691 190.558 156.691C190.718 156.691 190.848 156.561 190.858 156.411L193.058 116.371C193.118 115.261 194.068 114.361 195.178 114.361H239.218C239.378 114.361 239.508 114.231 239.518 114.081C239.518 113.921 239.408 113.801 239.248 113.801Z" fill="#007CFF"/>
<path opacity="0.4" d="M167.45 78.7305H149.76L148.77 96.7205L166.43 97.1905L167.45 78.7305Z" fill="#1A2E35"/>
<path d="M165.53 96.4214C159.61 96.1314 153.69 95.8414 147.77 95.5514C148.75 89.4314 149.37 83.3014 149.62 77.1914C155.57 77.4814 161.53 77.7714 167.48 78.0514C167.2 84.1614 166.55 90.3014 165.53 96.4114V96.4214Z" fill="white"/>
<path opacity="0.4" d="M188.769 90.75L171.059 92.1L171.449 110.04L189.169 109.16L188.769 90.75Z" fill="#1A2E35"/>
<path d="M188.207 108.46C182.257 108.63 176.307 108.79 170.367 108.96C170.887 102.81 171.027 96.6798 170.807 90.5898C176.787 90.4198 182.777 90.2498 188.757 90.0898C188.947 96.1798 188.757 102.32 188.207 108.47V108.46Z" fill="#007CFF"/>
<path opacity="0.4" d="M137.039 123.471L104.379 122.221L101.449 151.271L134.029 153.281L137.039 123.471Z" fill="#1A2E35"/>
<path d="M132.408 151.97C121.498 151.09 110.587 150.2 99.6875 149.32C101.878 139.49 103.388 129.61 104.228 119.73C115.198 120.62 126.177 121.5 137.147 122.39C136.247 132.27 134.667 142.15 132.417 151.97H132.408Z" fill="#1A2E35"/>
<path d="M132.408 151.97C121.498 151.09 110.587 150.2 99.6875 149.32C101.878 139.49 103.388 129.61 104.228 119.73C115.198 120.62 126.177 121.5 137.147 122.39C136.247 132.27 134.667 142.15 132.417 151.97H132.408Z" fill="#007CFF"/>
<path opacity="0.8" d="M132.408 151.97C121.498 151.09 110.587 150.2 99.6875 149.32C101.878 139.49 103.388 129.61 104.228 119.73C115.198 120.62 126.177 121.5 137.147 122.39C136.247 132.27 134.667 142.15 132.417 151.97H132.408Z" fill="#F5F5F5"/>
<g opacity="0.4">
<path d="M103.427 82.7913C102.417 82.7913 101.627 81.9613 101.687 80.9513C101.747 79.9413 102.617 79.1113 103.627 79.1113C104.637 79.1113 105.427 79.9413 105.367 80.9513C105.307 81.9613 104.437 82.7913 103.427 82.7913Z" fill="black"/>
<path opacity="0.8" d="M132.278 82.7913H109.618C108.608 82.7913 107.818 81.9613 107.878 80.9513C107.938 79.9413 108.808 79.1113 109.818 79.1113H132.478C133.488 79.1113 134.278 79.9413 134.218 80.9513C134.158 81.9613 133.288 82.7913 132.278 82.7913Z" fill="black"/>
<path d="M102.989 90.8206C101.979 90.8206 101.189 89.9906 101.249 88.9806C101.309 87.9706 102.179 87.1406 103.189 87.1406C104.199 87.1406 104.989 87.9706 104.929 88.9806C104.869 89.9906 103.999 90.8206 102.989 90.8206Z" fill="black"/>
<path opacity="0.8" d="M135.859 90.8206H109.189C108.179 90.8206 107.389 89.9906 107.449 88.9806C107.509 87.9706 108.379 87.1406 109.389 87.1406H136.059C137.069 87.1406 137.859 87.9706 137.799 88.9806C137.739 89.9906 136.869 90.8206 135.859 90.8206Z" fill="black"/>
<path d="M102.548 98.8519C101.538 98.8519 100.748 98.0219 100.808 97.0119C100.868 96.0019 101.738 95.1719 102.748 95.1719C103.758 95.1719 104.548 96.0019 104.488 97.0119C104.428 98.0219 103.558 98.8519 102.548 98.8519Z" fill="black"/>
<path opacity="0.8" d="M121.727 98.8519H108.747C107.737 98.8519 106.947 98.0219 107.007 97.0119C107.067 96.0019 107.937 95.1719 108.947 95.1719H121.927C122.937 95.1719 123.727 96.0019 123.667 97.0119C123.607 98.0219 122.737 98.8519 121.727 98.8519Z" fill="black"/>
<path opacity="0.8" d="M133.751 106.881H120.771C119.761 106.881 118.971 106.051 119.031 105.041C119.091 104.031 119.961 103.201 120.971 103.201H133.951C134.961 103.201 135.751 104.031 135.691 105.041C135.631 106.051 134.761 106.881 133.751 106.881Z" fill="black"/>
<path d="M102.099 106.881C101.089 106.881 100.299 106.051 100.359 105.041C100.419 104.031 101.289 103.201 102.299 103.201C103.309 103.201 104.099 104.031 104.039 105.041C103.979 106.051 103.109 106.881 102.099 106.881Z" fill="black"/>
<path opacity="0.8" d="M114.298 106.881H108.298C107.288 106.881 106.498 106.051 106.558 105.041C106.618 104.031 107.488 103.201 108.498 103.201H114.498C115.508 103.201 116.298 104.031 116.238 105.041C116.178 106.051 115.308 106.881 114.298 106.881Z" fill="black"/>
</g>
<path d="M158.438 130.771H149.647L148.438 152.761H157.227L158.438 130.771Z" fill="#007CFF"/>
<path d="M171.766 135.301H162.976L162.016 152.761H170.806L171.766 135.301Z" fill="#007CFF"/>
<path d="M185.988 123.602H177.198L175.598 152.762H184.378L185.988 123.602Z" fill="#007CFF"/>
<path d="M151.606 143.181C150.736 143.181 149.856 143.161 148.976 143.111C147.446 143.031 145.446 142.841 143.656 142.031C143.366 141.901 143.246 141.571 143.376 141.281C143.506 140.991 143.836 140.871 144.126 141.001C145.746 141.731 147.596 141.911 149.036 141.981C159.576 142.521 168.816 139.781 178.106 133.341C180.326 131.811 183.626 128.971 185.666 126.021C185.846 125.761 186.196 125.701 186.456 125.871C186.716 126.051 186.776 126.401 186.606 126.661C184.486 129.731 181.166 132.611 178.766 134.271C170.036 140.321 161.356 143.181 151.626 143.181H151.606Z" fill="white"/>
<path d="M187.886 130.351C187.816 130.351 187.736 130.341 187.666 130.311C187.376 130.191 187.236 129.861 187.356 129.571C188.156 127.631 188.326 125.441 187.846 123.471C185.636 124.961 183.276 126.211 180.826 127.201C180.536 127.321 180.206 127.181 180.086 126.891C179.966 126.601 180.106 126.271 180.396 126.151C183.016 125.101 185.516 123.731 187.836 122.101C187.986 122.001 188.166 121.971 188.336 122.031C188.506 122.091 188.636 122.221 188.696 122.391C189.506 124.801 189.396 127.581 188.396 130.021C188.306 130.241 188.096 130.371 187.876 130.371L187.886 130.351Z" fill="white"/>
<path d="M234.167 108.68H201.477C200.927 108.68 200.407 108.46 200.037 108.07C199.667 107.68 199.477 107.15 199.507 106.6L201.027 78.9699C201.087 77.8399 202.057 76.9199 203.197 76.9199H235.887C236.437 76.9199 236.957 77.1399 237.327 77.5299C237.697 77.9199 237.887 78.4499 237.857 78.9999L236.337 106.63C236.277 107.76 235.307 108.68 234.167 108.68ZM203.197 77.4799C202.357 77.4799 201.647 78.1599 201.597 78.9999L200.077 106.63C200.057 107.03 200.187 107.4 200.457 107.68C200.717 107.96 201.087 108.11 201.487 108.11H234.177C235.017 108.11 235.727 107.43 235.777 106.59L237.297 78.9599C237.317 78.5599 237.187 78.1899 236.917 77.9099C236.657 77.6299 236.287 77.4799 235.887 77.4799H203.197Z" fill="#007CFF"/>
<path d="M237.259 84.8393H200.999C200.839 84.8393 200.719 84.7093 200.719 84.5593C200.719 84.4093 200.849 84.2793 200.999 84.2793H237.259C237.419 84.2793 237.539 84.4093 237.539 84.5593C237.539 84.7093 237.409 84.8393 237.259 84.8393Z" fill="#007CFF"/>
<path d="M208.248 108.68C208.248 108.68 208.238 108.68 208.228 108.68C208.068 108.68 207.948 108.54 207.958 108.38L209.268 84.5401C209.268 84.3801 209.408 84.2601 209.568 84.2701C209.728 84.2701 209.848 84.4101 209.838 84.5701L208.528 108.41C208.528 108.56 208.398 108.68 208.248 108.68Z" fill="#007CFF"/>
<path d="M233.105 87.6694H213.425C213.265 87.6694 213.145 87.5394 213.145 87.3894C213.145 87.2394 213.275 87.1094 213.425 87.1094H233.105C233.265 87.1094 233.385 87.2394 233.385 87.3894C233.385 87.5394 233.255 87.6694 233.105 87.6694Z" fill="#007CFF"/>
<path d="M230.135 91.1498H213.225C213.065 91.1498 212.945 91.0199 212.945 90.8699C212.945 90.7199 213.075 90.5898 213.225 90.5898H230.135C230.295 90.5898 230.415 90.7199 230.415 90.8699C230.415 91.0199 230.285 91.1498 230.135 91.1498Z" fill="#007CFF"/>
<path d="M222.874 94.7299H213.034C212.874 94.7299 212.754 94.5999 212.754 94.4499C212.754 94.2999 212.884 94.1699 213.034 94.1699H222.874C223.034 94.1699 223.154 94.2999 223.154 94.4499C223.154 94.5999 223.024 94.7299 222.874 94.7299Z" fill="#007CFF"/>
<path d="M224.665 101.73H212.655C212.495 101.73 212.375 101.6 212.375 101.45C212.375 101.3 212.505 101.17 212.655 101.17H224.665C224.825 101.17 224.945 101.3 224.945 101.45C224.945 101.6 224.815 101.73 224.665 101.73Z" fill="#007CFF"/>
<path d="M222.296 105.32H212.456C212.296 105.32 212.176 105.19 212.176 105.04C212.176 104.89 212.306 104.76 212.456 104.76H222.296C222.456 104.76 222.576 104.89 222.576 105.04C222.576 105.19 222.446 105.32 222.296 105.32Z" fill="#007CFF"/>
<path d="M228.055 105.32H224.905C224.745 105.32 224.625 105.19 224.625 105.04C224.625 104.89 224.755 104.76 224.905 104.76H228.055C228.215 104.76 228.335 104.89 228.335 105.04C228.335 105.19 228.205 105.32 228.055 105.32Z" fill="#007CFF"/>
<path d="M231.276 98.2084H212.846C212.686 98.2084 212.566 98.0784 212.566 97.9284C212.566 97.7784 212.696 97.6484 212.846 97.6484H231.276C231.436 97.6484 231.556 97.7784 231.556 97.9284C231.556 98.0784 231.426 98.2084 231.276 98.2084Z" fill="#007CFF"/>
<path d="M214.086 148.881C209.816 148.881 206.316 147.621 204.146 145.271C201.826 142.761 200.866 138.821 201.506 134.461C201.896 131.791 202.776 129.541 204.106 127.791C205.446 126.031 207.376 124.581 209.846 123.481C215.306 121.051 221.626 121.141 226.746 123.711C229.046 124.861 230.486 126.321 231.026 128.041C231.116 128.341 230.956 128.661 230.656 128.751C230.356 128.841 230.036 128.681 229.946 128.381C229.496 126.961 228.256 125.731 226.236 124.721C221.406 122.301 215.456 122.221 210.296 124.511C207.996 125.531 206.216 126.861 204.996 128.471C203.786 130.071 202.986 132.141 202.616 134.621C202.026 138.641 202.886 142.251 204.966 144.501C207.866 147.631 212.666 147.861 215.266 147.711C220.106 147.441 224.266 145.751 226.986 142.951C230.166 139.671 231.056 134.771 229.056 131.551C228.666 130.931 227.836 129.861 226.616 129.741C226.306 129.711 226.076 129.431 226.106 129.121C226.136 128.811 226.416 128.581 226.726 128.611C227.996 128.741 229.166 129.571 230.026 130.951C232.296 134.601 231.336 140.101 227.806 143.741C224.886 146.751 220.456 148.561 215.336 148.841C214.916 148.861 214.496 148.881 214.086 148.881Z" fill="white"/>
<path d="M69.24 89.809L67.23 93.319L65.26 96.899C63.96 99.289 62.72 101.709 61.59 104.129C61.03 105.349 60.49 106.559 60 107.769L59.91 107.989C59.91 107.989 59.89 108.029 59.88 108.039C59.85 108.079 59.84 108.109 59.82 108.139C59.78 108.199 59.76 108.259 59.73 108.339C59.68 108.499 59.7 108.769 59.81 109.119C60.03 109.839 60.69 110.789 61.49 111.669C62.28 112.549 63.3 113.459 64.21 114.249L62.57 117.729C61.74 117.489 61.05 117.249 60.31 116.929C59.59 116.619 58.88 116.249 58.18 115.839C56.79 114.979 55.4 113.929 54.25 112.189C53.69 111.319 53.21 110.249 53.02 109.009C52.93 108.389 52.9 107.739 52.98 107.109C53.02 106.789 53.06 106.479 53.14 106.179L53.25 105.729L53.34 105.449C53.79 104.019 54.25 102.609 54.8 101.249C55.86 98.509 57.06 95.859 58.36 93.289C59.01 91.999 59.69 90.729 60.4 89.469C61.12 88.209 61.81 86.989 62.63 85.709L69.24 89.799V89.809Z" fill="#FFC3BD"/>
<path d="M62.4627 113.858L66.1327 112.908L66.3427 118.828C66.3427 118.828 63.4727 119.258 61.7227 117.498L62.4727 113.858H62.4627Z" fill="#FFC3BD"/>
<path d="M71.3228 111.908L70.5028 117.108L66.3428 118.828L66.1328 112.908L71.3228 111.908Z" fill="#FFC3BD"/>
<path d="M86.4903 61.9198C86.5703 62.3298 86.8503 62.6098 87.1203 62.5598C87.3803 62.5098 87.5303 62.1298 87.4503 61.7298C87.3703 61.3198 87.0903 61.0398 86.8203 61.0898C86.5603 61.1398 86.4103 61.5198 86.4903 61.9198Z" fill="#1A2E35"/>
<path d="M86.8203 62.6191C86.8203 62.6191 88.2203 64.7691 89.4603 65.6891C88.8803 66.4991 87.6003 66.4491 87.6003 66.4491L86.8203 62.6191Z" fill="#FF847F"/>
<path d="M84.5527 59.969C84.4927 59.969 84.4327 59.949 84.3927 59.909C84.2927 59.819 84.2927 59.669 84.3827 59.569C85.2927 58.579 86.4027 58.759 86.4527 58.769C86.5827 58.789 86.6727 58.919 86.6527 59.049C86.6327 59.179 86.5027 59.269 86.3727 59.249C86.3727 59.249 85.4727 59.119 84.7427 59.899C84.6927 59.949 84.6327 59.979 84.5627 59.979L84.5527 59.969Z" fill="#1A2E35"/>
<path d="M74.9508 67.6194C75.6908 71.3694 76.4208 78.2394 73.8008 80.7394C73.8008 80.7394 74.8308 84.5394 81.7908 84.5394C89.4508 84.5394 85.4508 80.7394 85.4508 80.7394C81.2708 79.7394 81.3808 76.6394 82.1008 73.7194L74.9508 67.6094V67.6194Z" fill="#FFC3BD"/>
<path d="M72.2821 81.4387C71.7221 80.3987 71.1021 79.2087 72.3821 78.8287C73.7821 78.4187 82.8021 77.6587 85.4521 78.4287C84.6421 79.8787 86.0121 81.6587 86.0121 81.6587L72.2821 81.4387Z" fill="#1A2E35"/>
<path d="M49.58 256.269C50.09 256.379 50.61 256.409 50.86 256.199C50.96 256.109 51.07 255.939 50.98 255.639C50.93 255.479 50.83 255.359 50.67 255.279C49.98 254.949 48.39 255.599 48.32 255.629C48.28 255.649 48.25 255.689 48.25 255.739C48.25 255.789 48.28 255.829 48.32 255.849C48.56 255.969 49.08 256.159 49.6 256.269H49.58ZM50.41 255.449C50.46 255.459 50.51 255.479 50.55 255.499C50.65 255.549 50.71 255.609 50.73 255.709C50.79 255.929 50.71 255.999 50.69 256.019C50.41 256.249 49.39 256.039 48.67 255.749C49.16 255.579 49.95 255.359 50.41 255.459V255.449Z" fill="#007CFF"/>
<path d="M48.3303 255.849C48.3303 255.849 48.3703 255.849 48.3903 255.849C48.9703 255.679 50.2103 254.799 50.2203 254.219C50.2203 254.109 50.1903 253.919 49.9103 253.829C49.7303 253.769 49.5503 253.779 49.3703 253.869C48.6803 254.219 48.2503 255.639 48.2303 255.699C48.2203 255.739 48.2303 255.789 48.2603 255.819C48.2803 255.839 48.3003 255.849 48.3203 255.849H48.3303ZM49.7803 254.039C49.7803 254.039 49.8203 254.039 49.8303 254.059C49.9803 254.109 49.9803 254.189 49.9803 254.219C49.9803 254.559 49.1503 255.249 48.5503 255.529C48.7003 255.119 49.0403 254.309 49.4803 254.089C49.5803 254.039 49.6803 254.019 49.7703 254.039H49.7803Z" fill="#007CFF"/>
<path d="M87.4315 257.128C88.0915 257.128 88.7215 257.038 88.9415 256.738C89.0115 256.638 89.0715 256.458 88.9315 256.208C88.8515 256.068 88.7215 255.968 88.5515 255.928C87.7015 255.698 85.9115 256.718 85.8315 256.758C85.7915 256.788 85.7615 256.828 85.7715 256.878C85.7715 256.928 85.8215 256.968 85.8715 256.978C86.2015 257.048 86.8315 257.118 87.4415 257.118L87.4315 257.128ZM88.2415 256.138C88.3315 256.138 88.4015 256.138 88.4715 256.168C88.5815 256.198 88.6615 256.258 88.7115 256.338C88.8015 256.488 88.7615 256.568 88.7315 256.608C88.4915 256.938 87.2015 256.948 86.2415 256.808C86.7215 256.568 87.6315 256.138 88.2315 256.138H88.2415Z" fill="#007CFF"/>
<path d="M85.8817 256.988C85.8817 256.988 85.9117 256.988 85.9317 256.978C86.5517 256.698 87.7717 255.588 87.6817 255.008C87.6617 254.868 87.5617 254.698 87.2317 254.668C86.9817 254.638 86.7617 254.718 86.5617 254.878C85.9117 255.418 85.7717 256.798 85.7617 256.848C85.7617 256.888 85.7817 256.928 85.8117 256.958C85.8317 256.978 85.8617 256.978 85.8817 256.978V256.988ZM87.1317 254.908C87.1317 254.908 87.1817 254.908 87.2017 254.908C87.4217 254.928 87.4317 255.018 87.4417 255.048C87.5017 255.398 86.6617 256.268 86.0317 256.648C86.1017 256.248 86.2817 255.418 86.7117 255.068C86.8417 254.958 86.9817 254.908 87.1317 254.908Z" fill="#007CFF"/>
<path d="M80.2422 256.858H85.3722L85.8822 244.988H80.7522L80.2422 256.858Z" fill="#FFC3BD"/>
<path d="M42.6211 254.49L47.6311 255.58L52.6611 244.52L47.6511 243.43L42.6211 254.49Z" fill="#FFC3BD"/>
<path d="M48.1115 255.069L42.4815 253.849C42.2815 253.809 42.0715 253.909 41.9815 254.099L40.0315 258.339C39.8315 258.779 40.1015 259.299 40.5715 259.389C42.5415 259.779 43.5215 259.869 46.0015 260.409C47.5215 260.739 50.9615 261.579 53.0615 262.029C55.1215 262.479 55.8915 260.469 55.0715 260.089C51.3915 258.409 49.8615 256.929 48.8615 255.549C48.6815 255.299 48.4115 255.129 48.1115 255.069Z" fill="#1A2E35"/>
<path d="M85.3327 256.27H79.7327C79.5227 256.27 79.3427 256.42 79.2927 256.62L78.2827 261.18C78.1827 261.65 78.5327 262.1 79.0227 262.09C81.0427 262.06 83.9627 261.94 86.5027 261.94C89.4727 261.94 92.0327 262.1 95.5127 262.1C97.6127 262.1 98.2027 259.97 97.3227 259.78C93.3127 258.9 90.0427 258.81 86.5727 256.67C86.1927 256.44 85.7827 256.27 85.3427 256.27H85.3327Z" fill="#1A2E35"/>
<path d="M64.6098 81.8985C59.8098 82.9985 55.8398 95.2684 55.8398 95.2684L65.4898 102.618C65.4898 102.618 69.0298 99.2785 70.6098 93.1485C72.2598 86.7185 69.5198 80.7785 64.6098 81.8985Z" fill="#007CFF"/>
<path opacity="0.2" d="M64.6098 81.8985C59.8098 82.9985 55.8398 95.2684 55.8398 95.2684L65.4898 102.618C65.4898 102.618 69.0298 99.2785 70.6098 93.1485C72.2598 86.7185 69.5198 80.7785 64.6098 81.8985Z" fill="#FAFAFA"/>
<path opacity="0.2" d="M68.7303 90.9199C66.1203 93.4999 65.2703 98.1999 65.0703 102.29L65.5003 102.62C65.5003 102.62 69.0403 99.2799 70.6203 93.1399C70.7203 92.7599 70.8003 92.3699 70.8703 91.9999L68.7303 90.9199Z" fill="black"/>
<path d="M93.3333 82.1596C93.3333 82.1596 98.7933 88.3196 93.6333 126.47H66.2133C66.0233 122.26 68.6733 101.73 64.6133 81.8996C64.6133 81.8996 69.3133 80.9596 73.7933 80.7396C77.2933 80.5696 82.3733 80.4596 85.4533 80.7396C89.5133 81.1096 93.3333 82.1596 93.3333 82.1596Z" fill="#007CFF"/>
<path opacity="0.2" d="M93.3333 82.1596C93.3333 82.1596 98.7933 88.3196 93.6333 126.47H66.2133C66.0233 122.26 68.6733 101.73 64.6133 81.8996C64.6133 81.8996 69.3133 80.9596 73.7933 80.7396C77.2933 80.5696 82.3733 80.4596 85.4533 80.7396C89.5133 81.1096 93.3333 82.1596 93.3333 82.1596Z" fill="#FAFAFA"/>
<path opacity="0.2" d="M95.73 93.8185L95.63 93.7285L89.4 95.2185C89.04 99.4285 93.38 104.469 95.61 106.779C95.92 101.399 95.91 97.1585 95.74 93.8185H95.73Z" fill="black"/>
<path opacity="0.2" d="M85.8822 245L85.6222 251.12H80.4922L80.7522 245H85.8822Z" fill="black"/>
<path opacity="0.2" d="M47.6508 243.439L52.6608 244.519L50.0608 250.219L45.0508 249.139L47.6508 243.439Z" fill="black"/>
<path d="M72.8016 63.8097C74.1216 68.7197 74.6416 71.6697 77.6716 73.7097C82.2316 76.7797 87.9116 73.2597 88.0916 68.0497C88.2516 63.3597 86.0716 56.1097 80.8016 55.1197C75.6016 54.1397 71.4916 58.8897 72.8116 63.8097H72.8016Z" fill="#FFC3BD"/>
<path d="M75.0619 71.8185C77.1519 73.0185 84.7719 69.0185 83.2019 62.9585C83.2019 62.9585 86.1019 59.4685 85.7719 55.6185C85.4419 51.7685 82.8019 50.2985 79.9919 51.1285C77.5119 51.8585 77.5819 53.2185 77.5819 53.2185C77.5819 53.2185 65.8719 54.5985 68.3719 59.3585C63.6019 64.5585 72.4519 70.3285 75.0619 71.8185Z" fill="#1A2E35"/>
<path d="M68.7034 59.7482C68.7034 59.7482 67.3034 57.3282 65.2734 58.6882C66.2334 58.6982 67.8034 58.8682 68.7034 59.7482Z" fill="#1A2E35"/>
<path d="M85.4027 58.1591C85.4027 58.1591 87.9527 52.3991 83.9727 50.5391C85.3127 52.4091 86.0427 55.4191 85.4027 58.1591Z" fill="#1A2E35"/>
<path d="M81.1605 64.0082C81.4905 65.2982 82.3405 66.4081 83.2305 67.0681C84.5605 68.0581 85.5605 67.0882 85.4705 65.5782C85.3805 64.2182 84.5905 62.0681 83.1205 61.6581C81.6705 61.2581 80.7905 62.5382 81.1705 64.0082H81.1605Z" fill="#FFC3BD"/>
<path d="M83.9127 126.469C83.9127 126.469 78.0927 165.649 74.9027 180.319C71.4027 196.389 52.6527 249.569 52.6527 249.569L43.4727 247.579C43.4727 247.579 56.5827 204.249 59.5227 181.779C61.7727 164.519 66.2227 126.469 66.2227 126.469H83.9127Z" fill="#1A2E35"/>
<path d="M54.8503 246.508L53.1403 249.828L42.8203 247.588L43.6903 244.488L54.8503 246.508Z" fill="#007CFF"/>
<path opacity="0.4" d="M80.2315 140.43C73.5015 141.75 74.2215 166.83 75.0215 179.74C76.9615 170.62 79.8015 153.07 81.7415 140.62C81.2915 140.4 80.7915 140.33 80.2315 140.44V140.43Z" fill="black"/>
<path d="M93.6411 126.469C93.6411 126.469 94.3511 164.799 93.7911 180.429C93.2111 196.689 87.5311 249.929 87.5311 249.929H78.8511C78.8511 249.929 78.5311 197.639 78.1411 181.669C77.7211 164.259 75.6211 126.469 75.6211 126.469H93.6411Z" fill="#1A2E35"/>
<path opacity="0.4" d="M141.842 99.4492H124.152L123.172 117.439L140.832 117.909L141.842 99.4492Z" fill="#1A2E35"/>
<path d="M132.552 111.028C126.642 110.298 120.742 109.568 114.832 108.838C116.262 102.838 117.332 96.7983 118.022 90.7383C123.962 91.4683 129.902 92.1983 135.842 92.9283C135.112 98.9783 134.012 105.018 132.542 111.018L132.552 111.028Z" fill="#115FBC"/>
<path d="M89.2033 246.469L88.7133 250.079H78.1533L77.8633 246.859L89.2033 246.469Z" fill="#007CFF"/>
<path d="M95.8602 86.8398C96.6502 88.0698 97.5502 89.4498 98.4402 90.7198C99.3502 91.9998 100.27 93.2898 101.23 94.5198C103.14 96.9898 105.16 99.3698 107.34 101.34C107.88 101.84 108.43 102.3 108.99 102.73L109.41 103.05C109.41 103.05 109.24 102.98 109.16 102.97C108.98 102.94 108.89 102.97 108.94 102.99C109.05 103.04 109.56 102.96 110.09 102.73C110.63 102.5 111.25 102.19 111.85 101.81C114.3 100.29 116.84 98.1598 119.22 96.0998L122.21 98.5198C120.35 101.51 118.31 104.22 115.5 106.71C114.79 107.32 114.02 107.93 113.1 108.47C112.17 109 111.12 109.55 109.58 109.78C108.81 109.88 107.88 109.86 106.91 109.55C106.44 109.41 105.94 109.16 105.55 108.92L104.95 108.54C104.15 108.02 103.39 107.48 102.67 106.91C99.7802 104.62 97.3802 102.05 95.1502 99.3699C94.0602 98.0198 93.0002 96.6499 92.0102 95.2299C91.0202 93.7899 90.0802 92.4198 89.1602 90.8198L95.8401 86.8598L95.8602 86.8398Z" fill="#FFC3BD"/>
<path d="M85.7896 89.9193C84.1496 96.7893 96.5896 103.519 96.5896 103.519L104.67 94.0593C104.67 94.0593 100.99 88.4893 96.4196 84.0993C90.7696 78.6793 87.0496 84.6893 85.7996 89.9193H85.7896Z" fill="#007CFF"/>
<path opacity="0.2" d="M85.7896 89.9193C84.1496 96.7893 96.5896 103.519 96.5896 103.519L104.67 94.0593C104.67 94.0593 100.99 88.4893 96.4196 84.0993C90.7696 78.6793 87.0496 84.6893 85.7996 89.9193H85.7896Z" fill="#FAFAFA"/>
<path d="M118.41 97.5184L120.32 91.3984L125.34 93.8984C125.34 93.8984 124.61 98.3684 120.96 99.1384L118.42 97.5184H118.41Z" fill="#FFC3BD"/>
<path d="M122.33 89.6992L126.86 90.9392L125.34 93.8992L120.32 91.3992L122.33 89.6992Z" fill="#FFC3BD"/>
</g>
<defs>
<clipPath id="clip0_7018_253333">
<rect width="296" height="280" fill="white"/>
</clipPath>
</defs>
</svg>
