<svg width="296" height="360" viewBox="0 0 296 360" fill="none" xmlns="http://www.w3.org/2000/svg">
<g clip-path="url(#clip0_7018_256662)">
<path d="M296 40H0V320H296V40Z" fill="white"/>
<path d="M208.351 88.5H149.371V91.88H208.351V88.5Z" fill="#ECECEC"/>
<path d="M193.621 91.9199L195.691 96.4699H198.141L199.911 91.9199H193.621Z" fill="#ECECEC"/>
<path d="M159.5 91.9199L161.58 96.4699H164.02L165.79 91.9199H159.5Z" fill="#ECECEC"/>
<path d="M273.98 212.301V59.4414L211.56 59.4414V212.301H273.98Z" fill="#E7E7E7"/>
<path d="M270.548 62.8613H214.988V208.861H270.548V62.8613Z" fill="#F5F5F5"/>
<path d="M245.788 59.4316H241.648V212.292H245.788V59.4316Z" fill="#E7E7E7"/>
<path d="M129.223 212.292V59.4316L66.8027 59.4316V212.292H129.223Z" fill="#E7E7E7"/>
<path d="M125.783 62.8613H70.2227V208.861H125.783V62.8613Z" fill="#F5F5F5"/>
<path d="M101.031 59.4316H96.8906V212.292H101.031V59.4316Z" fill="#E7E7E7"/>
<path d="M278.231 239.441H154.081C151.861 239.441 150.051 237.631 150.051 235.411V54.5808C150.051 52.3608 151.861 50.5508 154.081 50.5508H278.231C280.451 50.5508 282.261 52.3608 282.261 54.5808V235.411C282.261 237.631 280.451 239.441 278.231 239.441ZM154.081 50.7308C151.951 50.7308 150.231 52.4608 150.231 54.5808V235.411C150.231 237.541 151.961 239.261 154.081 239.261H278.231C280.361 239.261 282.081 237.531 282.081 235.411V54.5808C282.081 52.4508 280.351 50.7308 278.231 50.7308H154.081Z" fill="#E7E7E7"/>
<path d="M135.071 239.441H10.9206C8.70063 239.441 6.89062 237.631 6.89062 235.411V54.5808C6.89062 52.3608 8.70063 50.5508 10.9206 50.5508H135.071C137.291 50.5508 139.101 52.3608 139.101 54.5808V235.411C139.101 237.631 137.291 239.441 135.071 239.441ZM10.9206 50.7308C8.79063 50.7308 7.07063 52.4608 7.07063 54.5808V235.411C7.07063 237.541 8.80063 239.261 10.9206 239.261H135.071C137.201 239.261 138.921 237.531 138.921 235.411V54.5808C138.921 52.4508 137.191 50.7308 135.071 50.7308H10.9206Z" fill="#E7E7E7"/>
<path d="M199.91 79.6211L197.38 88.4611H190.56L188.02 79.6211H199.91Z" fill="#E7E7E7"/>
<path d="M194.119 74.1513C194.119 74.1513 187.909 71.2312 187.879 66.2812C187.879 66.2812 193.769 68.6013 194.119 74.1513Z" fill="#E7E7E7"/>
<path d="M193.969 77.7907C193.969 77.7907 200.309 75.1707 200.569 70.2207C200.569 70.2207 194.579 72.2707 193.969 77.7907Z" fill="#E7E7E7"/>
<path d="M192.838 68.9114C192.838 68.9114 198.538 65.0914 197.828 60.1914C197.828 60.1914 192.358 63.3714 192.838 68.9114Z" fill="#E7E7E7"/>
<path d="M193.96 80.0506L193.28 79.9106C195.06 71.4306 189.72 60.0606 189.66 59.9406L190.29 59.6406C190.52 60.1106 195.79 71.3306 193.96 80.0506Z" fill="#E7E7E7"/>
<path d="M182.672 88.5007H168.932L166.352 74.9707H180.092L182.672 88.5007Z" fill="#F5F5F5"/>
<path d="M180.469 86.681H170.439L169.849 83.631L168.539 76.791H178.579L179.219 80.151L180.469 86.681Z" fill="#FAFAFA"/>
<path d="M172.852 80.4111C173.415 80.4111 173.872 79.9544 173.872 79.3911C173.872 78.8278 173.415 78.3711 172.852 78.3711C172.289 78.3711 171.832 78.8278 171.832 79.3911C171.832 79.9544 172.289 80.4111 172.852 80.4111Z" fill="#E7E7E7"/>
<path d="M180.472 86.6806H170.442L169.852 83.6306C170.162 82.8406 171.412 82.2506 172.132 82.2306C174.182 82.1906 175.992 83.6906 177.092 81.7306C177.462 81.0806 178.272 80.5606 179.232 80.1406L180.482 86.6706L180.472 86.6806Z" fill="#E7E7E7"/>
<path d="M166.351 74.9707L162.711 88.4707H165.431H168.931L166.351 74.9707Z" fill="#E7E7E7"/>
<path d="M43.4635 92.29C50.5138 89.309 53.8126 81.1769 50.8316 74.1266C47.8505 67.0762 39.7184 63.7775 32.6681 66.7585C25.6178 69.7396 22.319 77.8717 25.3001 84.922C28.2811 91.9723 36.4132 95.2711 43.4635 92.29Z" fill="#E7E7E7"/>
<path d="M42.9545 91.3223C49.4703 88.6234 52.5645 81.1533 49.8656 74.6375C47.1666 68.1217 39.6966 65.0275 33.1808 67.7264C26.6649 70.4254 23.5707 77.8954 26.2697 84.4112C28.9686 90.927 36.4387 94.0212 42.9545 91.3223Z" fill="#FAFAFA"/>
<path d="M38.1011 67.9102H37.6211V70.5702H38.1011V67.9102Z" fill="#E7E7E7"/>
<path d="M38.1011 88.4004H37.6211V91.0604H38.1011V88.4004Z" fill="#E7E7E7"/>
<path d="M28.9491 79.252H26.2891V79.732H28.9491V79.252Z" fill="#E7E7E7"/>
<path d="M49.4295 79.252H46.7695V79.732H49.4295V79.252Z" fill="#E7E7E7"/>
<path d="M45.8767 71.1344L43.9961 73.0156L44.3356 73.355L46.2161 71.4737L45.8767 71.1344Z" fill="#E7E7E7"/>
<path d="M31.3884 85.6227L29.5078 87.5039L29.8473 87.8433L31.7279 85.962L31.3884 85.6227Z" fill="#E7E7E7"/>
<path d="M29.8472 71.1293L29.5078 71.4688L31.389 73.3493L31.7284 73.0099L29.8472 71.1293Z" fill="#E7E7E7"/>
<path d="M44.3395 85.6177L44 85.957L45.8806 87.8383L46.22 87.4989L44.3395 85.6177Z" fill="#E7E7E7"/>
<path d="M37.7713 79.1712L37.6211 79.5527L42.1339 81.3295L42.2841 80.948L37.7713 79.1712Z" fill="#E7E7E7"/>
<path d="M38.0711 79.692H30.6211V79.282H37.6611V73.502H38.0711V79.692Z" fill="#E7E7E7"/>
<path d="M290.06 281.391H0V281.561H290.06V281.391Z" fill="#E7E7E7"/>
<path d="M148.269 309.441C229.858 309.441 295.999 307.543 295.999 305.201C295.999 302.859 229.858 300.961 148.269 300.961C66.68 300.961 0.539062 302.859 0.539062 305.201C0.539062 307.543 66.68 309.441 148.269 309.441Z" fill="#F4F4F4"/>
<path d="M21.6599 164.771C17.5499 167.341 15.3799 171.901 15.9599 176.501C17.4799 188.721 21.3399 218.081 23.8299 222.511C26.9899 228.131 70.4499 224.771 72.7099 219.651C74.9699 214.531 68.9699 164.721 65.1799 160.641C62.0299 157.241 35.2899 156.241 21.6599 164.781V164.771Z" fill="black"/>
<g opacity="0.6">
<path d="M21.6599 164.771C17.5499 167.341 15.3799 171.901 15.9599 176.501C17.4799 188.721 21.3399 218.081 23.8299 222.511C26.9899 228.131 70.4499 224.771 72.7099 219.651C74.9699 214.531 68.9699 164.721 65.1799 160.641C62.0299 157.241 35.2899 156.241 21.6599 164.781V164.771Z" fill="white"/>
</g>
<g opacity="0.5">
<path d="M26.7717 223.651C26.7117 223.311 20.9217 189.891 20.2817 177.701C19.6317 165.291 25.8817 162.471 26.1517 162.361L26.4217 162.991C26.3617 163.021 20.3417 165.771 20.9717 177.671C21.6117 189.821 27.4017 223.201 27.4517 223.541L26.7717 223.661V223.651Z" fill="white"/>
</g>
<path d="M52.3617 241.211H48.5117V295.841H52.3617V241.211Z" fill="black"/>
<g opacity="0.5">
<path d="M52.3617 241.211H48.5117V295.841H52.3617V241.211Z" fill="white"/>
</g>
<path d="M23.412 296.681H20.332V295.121C20.332 289.431 24.962 284.811 30.642 284.811H46.872V287.891H30.642C26.652 287.891 23.402 291.141 23.402 295.131V296.691L23.412 296.681Z" fill="black"/>
<g opacity="0.6">
<path d="M23.412 296.681H20.332V295.121C20.332 289.431 24.962 284.811 30.642 284.811H46.872V287.891H30.642C26.652 287.891 23.402 291.141 23.402 295.131V296.691L23.412 296.681Z" fill="white"/>
</g>
<path d="M26.9799 300.9C27.6459 298.078 25.8982 295.25 23.0762 294.584C20.2543 293.918 17.4267 295.666 16.7607 298.488C16.0946 301.31 17.8423 304.138 20.6643 304.804C23.4862 305.47 26.3138 303.722 26.9799 300.9Z" fill="black"/>
<g opacity="0.4">
<path d="M26.9799 300.9C27.6459 298.078 25.8982 295.25 23.0762 294.584C20.2543 293.918 17.4267 295.666 16.7607 298.488C16.0946 301.31 17.8423 304.138 20.6643 304.804C23.4862 305.47 26.3138 303.722 26.9799 300.9Z" fill="white"/>
</g>
<g opacity="0.5">
<path d="M21.8705 302.35C23.3285 302.35 24.5105 301.168 24.5105 299.71C24.5105 298.252 23.3285 297.07 21.8705 297.07C20.4124 297.07 19.2305 298.252 19.2305 299.71C19.2305 301.168 20.4124 302.35 21.8705 302.35Z" fill="white"/>
</g>
<path d="M54.1447 303.427C56.195 301.377 56.195 298.053 54.1447 296.003C52.0945 293.952 48.7704 293.952 46.7201 296.003C44.6699 298.053 44.6699 301.377 46.7201 303.427C48.7704 305.477 52.0945 305.477 54.1447 303.427Z" fill="black"/>
<g opacity="0.4">
<path d="M54.1447 303.425C56.195 301.375 56.195 298.051 54.1447 296.001C52.0945 293.95 48.7704 293.95 46.7201 296.001C44.6699 298.051 44.6699 301.375 46.7201 303.425C48.7704 305.475 52.0945 305.475 54.1447 303.425Z" fill="white"/>
</g>
<g opacity="0.5">
<path d="M50.433 302.35C51.891 302.35 53.073 301.168 53.073 299.71C53.073 298.252 51.891 297.07 50.433 297.07C48.9749 297.07 47.793 298.252 47.793 299.71C47.793 301.168 48.9749 302.35 50.433 302.35Z" fill="white"/>
</g>
<path d="M80.132 296.681H77.052V295.121C77.052 291.131 73.802 287.881 69.812 287.881H53.582V284.801H69.812C75.502 284.801 80.122 289.431 80.122 295.111V296.671L80.132 296.681Z" fill="black"/>
<g opacity="0.6">
<path d="M80.132 296.681H77.052V295.121C77.052 291.131 73.802 287.881 69.812 287.881H53.582V284.801H69.812C75.502 284.801 80.122 289.431 80.122 295.111V296.671L80.132 296.681Z" fill="white"/>
</g>
<path d="M82.3805 303.357C84.3848 301.262 84.3112 297.939 82.216 295.934C80.1208 293.93 76.7975 294.004 74.7932 296.099C72.7889 298.194 72.8625 301.517 74.9577 303.522C77.0529 305.526 80.3762 305.452 82.3805 303.357Z" fill="black"/>
<g opacity="0.4">
<path d="M82.3805 303.359C84.3848 301.264 84.3112 297.941 82.216 295.936C80.1208 293.932 76.7975 294.006 74.7932 296.101C72.7889 298.196 72.8625 301.519 74.9577 303.524C77.0529 305.528 80.3762 305.454 82.3805 303.359Z" fill="white"/>
</g>
<g opacity="0.5">
<path d="M75.9531 299.71C75.9531 301.17 77.1331 302.35 78.5931 302.35C80.0531 302.35 81.2331 301.17 81.2331 299.71C81.2331 298.25 80.0531 297.07 78.5931 297.07C77.1331 297.07 75.9531 298.25 75.9531 299.71Z" fill="white"/>
</g>
<path d="M53.9911 281.512H46.8711V291.942H53.9911V281.512Z" fill="black"/>
<g opacity="0.6">
<path d="M53.9911 281.512H46.8711V291.942H53.9911V281.512Z" fill="white"/>
</g>
<path d="M53.9911 240.631H46.8711V251.061H53.9911V240.631Z" fill="black"/>
<g opacity="0.6">
<path d="M53.9911 240.631H46.8711V251.061H53.9911V240.631Z" fill="white"/>
</g>
<path d="M75.2015 222.73C75.2015 222.73 77.8115 223.14 84.3515 224.25C86.5315 224.62 88.6715 224.97 90.5515 225.27C94.3015 225.87 97.0615 229.1 97.0615 232.9C97.0615 237.17 93.6015 240.63 89.3315 240.63H36.2815C30.9215 240.63 26.1115 237.1 24.7315 231.92C24.0915 229.53 23.7315 226.52 23.8815 222.74H75.2015V222.73Z" fill="black"/>
<g opacity="0.5">
<path d="M75.2015 222.73C75.2015 222.73 77.8115 223.14 84.3515 224.25C86.5315 224.62 88.6715 224.97 90.5515 225.27C94.3015 225.87 97.0615 229.1 97.0615 232.9C97.0615 237.17 93.6015 240.63 89.3315 240.63H36.2815C30.9215 240.63 26.1115 237.1 24.7315 231.92C24.0915 229.53 23.7315 226.52 23.8815 222.74H75.2015V222.73Z" fill="white"/>
</g>
<path d="M64.3103 163.291C67.0203 167.331 69.6503 171.571 72.2303 175.701C73.5503 177.751 74.8003 179.841 76.1403 181.801C76.7903 182.791 77.4503 183.771 78.1003 184.691C78.7403 185.621 79.4103 186.501 79.9903 187.221L80.6703 188.021C80.6703 188.021 80.7103 188.081 80.6703 188.071C80.6903 188.101 80.5403 188.021 80.5403 188.041C80.5603 188.051 80.5703 188.071 80.5903 188.101L80.7903 188.211C81.1003 188.371 81.5603 188.561 82.0503 188.741C82.5403 188.911 83.0703 189.091 83.6203 189.271C85.8203 189.971 88.2103 190.531 90.6003 191.161C95.4003 192.351 100.32 193.491 105.2 194.811L104.86 199.421C99.7203 199.961 94.6203 200.131 89.4503 200.041C86.8503 200.011 84.2703 199.861 81.5403 199.561C80.8603 199.491 80.1603 199.391 79.4303 199.261C78.7003 199.131 77.9503 198.981 77.0703 198.731L76.3803 198.521C76.1103 198.421 75.8303 198.311 75.5603 198.201C75.2803 198.081 74.8503 197.851 74.6003 197.701C74.3003 197.531 74.0703 197.371 73.8303 197.221C72.9303 196.601 72.3003 196.061 71.6903 195.521C70.5003 194.451 69.5303 193.421 68.5903 192.401C67.6603 191.371 66.7903 190.351 65.9503 189.311C64.3003 187.231 62.7003 185.171 61.2303 183.041C58.2403 178.801 55.5203 174.531 53.0703 169.931L64.3003 163.281L64.3103 163.291Z" fill="#007CFF"/>
<path opacity="0.2" d="M65.1589 168.041L62.0989 167.541C62.0989 167.541 60.5789 174.831 59.3789 180.351C59.9889 181.251 60.5989 182.151 61.2289 183.051C62.6989 185.181 64.2989 187.231 65.9489 189.321C66.7889 190.351 67.6589 191.381 68.5889 192.411C69.5289 193.431 70.4989 194.461 71.6889 195.531C72.2989 196.071 72.9289 196.611 73.8289 197.231C74.0689 197.391 74.2989 197.541 74.5989 197.711C74.8389 197.861 75.2689 198.081 75.5589 198.211C75.8289 198.321 76.0989 198.431 76.3789 198.531L77.0689 198.741C77.9489 198.991 78.6989 199.141 79.4289 199.271C80.1589 199.401 80.8489 199.491 81.5389 199.571C84.2289 199.861 86.7789 200.011 89.3289 200.041H89.7589C90.2089 200.051 90.6589 200.041 91.1089 200.051C88.5989 199.951 80.9289 199.251 75.2789 194.501C68.4289 188.731 65.1789 168.061 65.1789 168.061L65.1589 168.041Z" fill="black"/>
<path d="M45.8228 157.23C45.8228 157.23 32.0528 158.58 30.1728 165.74C28.8628 170.75 29.2528 200.09 38.7628 217.82C41.4528 222.83 76.6028 214.21 75.2228 210.87C71.3728 201.51 62.3228 179.17 65.1628 168.04C67.1528 160.24 52.3528 157.52 52.3528 157.52L45.8228 157.23Z" fill="#007CFF"/>
<path opacity="0.2" d="M42.1309 174.65C42.1309 174.65 40.6709 181.66 43.2509 185.46C45.8309 189.26 51.5709 190.89 54.9209 191.34C58.2709 191.79 39.3709 191.78 39.3709 191.78L36.4609 178.31L42.1209 174.65H42.1309Z" fill="black"/>
<g opacity="0.2">
<path d="M40.5798 216.091C37.8398 212.421 33.5198 191.651 33.3398 190.771L33.6798 190.701C33.7198 190.921 38.1698 212.281 40.8598 215.891L40.5798 216.101V216.091Z" fill="white"/>
</g>
<g opacity="0.2">
<path d="M32.0195 197.551C32.0195 197.551 34.4495 205.201 43.9695 205.761C53.4895 206.331 71.5095 201.281 71.5095 201.281L71.0595 199.921L32.0195 197.541V197.551Z" fill="black"/>
</g>
<path d="M48.8008 168.821L50.8808 200.331L56.6308 205.271L59.5708 198.151C59.5708 198.151 52.9008 178.981 51.1608 167.541L48.8008 168.821Z" fill="#1A2E35"/>
<path d="M58.6206 131.942C58.6206 131.942 61.0206 133.722 58.9606 137.652L56.1406 131.842L58.6106 131.942H58.6206Z" fill="#1A2E35"/>
<path d="M40.9997 139.441C40.9997 139.441 37.9697 136.751 38.2397 135.591C38.5497 134.231 40.1097 134.621 40.1097 134.621C40.1097 134.621 39.3097 129.271 40.5797 128.071C41.6197 127.081 43.1997 128.731 43.1997 128.731C43.1997 128.731 46.6797 123.571 48.8397 123.661C50.9997 123.751 49.8697 125.551 49.8697 125.551C49.8697 125.551 55.3797 121.561 57.2697 122.321C59.1497 123.081 58.0697 125.151 58.0697 125.151C58.0697 125.151 62.1197 121.571 63.2397 123.781C64.3597 125.991 59.5297 129.411 59.5297 129.411C59.5297 129.411 62.2497 130.011 61.0697 131.811C59.8897 133.611 58.0997 132.761 58.0997 132.761L41.0097 139.431L40.9997 139.441Z" fill="#1A2E35"/>
<path d="M52.6511 159.271C52.0511 160.071 50.8411 161.041 48.4411 161.361C45.4111 161.771 43.5711 159.831 42.6211 158.811C43.4811 154.481 43.5011 148.561 42.7611 144.631L52.4511 152.701C51.7811 155.021 51.4411 157.441 52.6611 159.271H52.6511Z" fill="#FF8B7B"/>
<g opacity="0.2">
<path d="M46.6996 147.92L52.4296 152.69C52.1696 153.57 51.9696 154.46 51.8796 155.34C49.6896 154.99 46.9696 153.2 46.1496 150.93C45.6396 149.52 46.1196 148.07 46.6896 147.92" fill="black"/>
</g>
<path d="M41.14 137.321C40.73 130.841 47.07 125.941 53.32 128.461C59.67 131.021 60.57 140.641 59.19 146.461C57.66 152.931 49.67 155.911 44.74 150.921C41.46 147.601 41.55 143.791 41.14 137.321Z" fill="#FF8B7B"/>
<path d="M52.5101 141.081C52.4001 141.081 52.3101 141.011 52.2701 140.911C52.1101 140.461 51.8501 140.181 51.5101 140.091C51.1001 139.981 50.6901 140.171 50.5901 140.241C50.5201 140.331 50.4101 140.371 50.3001 140.331C50.1701 140.281 50.1001 140.141 50.1401 140.001C50.2301 139.751 50.8101 139.551 51.2401 139.541C51.6601 139.521 52.3701 139.691 52.7501 140.731C52.8001 140.861 52.7301 141.011 52.6001 141.061C52.5701 141.071 52.5401 141.081 52.5101 141.081Z" fill="#1A2E35"/>
<path d="M56.5414 141.192C56.5414 141.192 56.5014 141.192 56.4814 141.192C56.3414 141.162 56.2614 141.022 56.2914 140.882C56.5314 139.932 57.1314 139.742 57.4614 139.722C57.9014 139.692 58.4514 139.902 58.5514 140.142C58.6014 140.272 58.5414 140.422 58.4114 140.482C58.3014 140.522 58.1814 140.482 58.1114 140.402C58.0314 140.342 57.6614 140.172 57.3414 140.272C57.0814 140.352 56.9014 140.602 56.7914 141.012C56.7614 141.132 56.6614 141.202 56.5414 141.202V141.192Z" fill="#1A2E35"/>
<path d="M56.8812 146.381C56.6212 146.981 55.9612 148.071 54.6112 148.301C54.3912 148.351 54.1412 148.361 53.8712 148.351C52.5512 148.281 51.8112 147.611 51.3912 146.861C51.0912 146.321 50.9612 145.761 50.9012 145.361C50.8712 145.141 51.0912 144.961 51.3012 145.051C51.3112 145.051 51.3312 145.051 51.3412 145.071C52.1612 145.391 53.9812 145.981 56.6012 145.981C56.6812 145.981 56.7512 146.011 56.8012 146.061C56.9012 146.131 56.9312 146.261 56.8812 146.391V146.381Z" fill="#1A2E35"/>
<path d="M54.6106 148.301C54.3906 148.351 54.1406 148.361 53.8706 148.351C52.5506 148.281 51.8106 147.611 51.3906 146.861C51.9506 146.791 52.8906 146.751 53.7106 147.081C54.4606 147.381 54.6206 147.921 54.6106 148.301Z" fill="#FF5551"/>
<path d="M56.7998 146.051C56.7598 146.141 56.6898 146.241 56.5998 146.341C56.0798 146.871 51.8898 146.001 51.5798 145.761C51.3998 145.621 51.3498 145.301 51.3398 145.061C52.1598 145.381 53.9798 145.971 56.5998 145.971C56.6798 145.971 56.7498 146.001 56.7998 146.051Z" fill="white"/>
<path d="M41.0316 138.751C41.0516 139.061 42.4516 141.561 44.2116 141.051C45.9716 140.541 44.8816 135.751 44.8816 135.751C44.8816 135.751 48.2816 136.081 47.2916 133.191C47.2916 133.191 49.8516 135.001 52.5516 132.531C52.5516 132.531 56.6116 135.041 58.5816 133.531C58.5816 133.531 58.8216 127.781 52.3116 126.301C48.6616 125.471 40.5116 128.331 41.0316 138.751Z" fill="#1A2E35"/>
<path d="M38.3713 142.74C38.8513 144.42 40.0613 145.73 41.3313 146.4C43.2413 147.42 44.6613 145.83 44.5213 143.78C44.3913 141.94 43.2513 139.19 41.1513 139.02C39.0813 138.85 37.8213 140.82 38.3713 142.74Z" fill="#FF8B7B"/>
<path d="M58.6888 138.081C58.5988 138.081 58.5088 138.031 58.4688 137.951C58.2588 137.581 57.9888 137.341 57.6688 137.261C57.1388 137.121 56.6288 137.421 56.6188 137.421C56.4988 137.491 56.3388 137.451 56.2688 137.331C56.1988 137.211 56.2388 137.051 56.3588 136.981C56.3888 136.961 57.0588 136.571 57.7988 136.761C58.2588 136.881 58.6388 137.201 58.9188 137.701C58.9888 137.821 58.9488 137.981 58.8188 138.051C58.7788 138.071 58.7388 138.081 58.6888 138.081Z" fill="#1A2E35"/>
<path d="M49.7005 138.28C49.7005 138.28 49.6205 138.28 49.5905 138.25C49.4605 138.19 49.4105 138.03 49.4705 137.91C49.4805 137.88 49.8305 137.18 50.5605 136.94C51.0105 136.79 51.5005 136.85 52.0105 137.11C52.1405 137.18 52.1905 137.33 52.1205 137.46C52.0505 137.59 51.9005 137.64 51.7705 137.57C51.3905 137.37 51.0405 137.33 50.7205 137.43C50.2005 137.6 49.9305 138.13 49.9305 138.14C49.8905 138.23 49.7905 138.28 49.7005 138.28Z" fill="#1A2E35"/>
<path d="M51.4503 142.681C51.4503 142.681 51.4303 142.681 51.4203 142.681C50.0703 142.661 48.9803 141.551 49.0003 140.191C49.0203 138.851 50.1203 137.771 51.4503 137.771C51.4603 137.771 51.4703 137.771 51.4803 137.771C52.1303 137.771 52.7503 138.041 53.2003 138.511C53.6603 138.981 53.9003 139.601 53.8903 140.251C53.8903 140.901 53.6203 141.521 53.1503 141.971C52.6903 142.421 52.0803 142.661 51.4403 142.661L51.4503 142.681ZM51.4503 138.121C50.3003 138.121 49.3603 139.051 49.3403 140.201C49.3203 141.361 50.2603 142.321 51.4203 142.341C51.4303 142.341 51.4403 142.341 51.4503 142.341C52.0003 142.341 52.5203 142.131 52.9203 141.741C53.3203 141.351 53.5503 140.821 53.5603 140.261C53.5803 139.101 52.6403 138.141 51.4803 138.121C51.4703 138.121 51.4603 138.121 51.4503 138.121Z" fill="white"/>
<path d="M57.7589 142.341C57.7589 142.341 57.7389 142.341 57.7189 142.341C57.0689 142.341 56.4489 142.071 55.9989 141.601C55.5389 141.131 55.2989 140.511 55.3089 139.861C55.3289 138.521 56.4289 137.441 57.7589 137.441C57.7689 137.441 57.7789 137.441 57.7889 137.441C58.4389 137.441 59.0589 137.711 59.5089 138.181C59.9689 138.651 60.2089 139.271 60.1989 139.921C60.1989 140.571 59.9289 141.191 59.4589 141.641C58.9989 142.091 58.3889 142.331 57.7489 142.331L57.7589 142.341ZM57.7589 137.781C56.6089 137.781 55.6689 138.711 55.6489 139.861C55.6489 140.421 55.8489 140.961 56.2489 141.361C56.6389 141.761 57.1689 141.991 57.7289 142.001C58.2789 142.001 58.8189 141.801 59.2289 141.401C59.6289 141.011 59.8589 140.481 59.8689 139.921C59.8689 139.361 59.6689 138.821 59.2689 138.421C58.8789 138.021 58.3489 137.791 57.7889 137.781C57.7889 137.781 57.7689 137.781 57.7589 137.781Z" fill="white"/>
<path d="M54.5781 139.631C54.5781 139.631 55.7681 141.521 57.0881 142.631C58.4181 143.741 55.0081 144.511 55.0081 144.511L54.5781 139.631Z" fill="#FF5551"/>
<path d="M55.4798 140.03C55.4798 140.03 55.4198 140.03 55.3898 140C54.4998 139.43 53.8398 139.94 53.8098 139.96C53.7398 140.02 53.6298 140.01 53.5698 139.93C53.5098 139.86 53.5198 139.75 53.5998 139.69C53.5998 139.69 54.4798 139 55.5798 139.7C55.6598 139.75 55.6798 139.86 55.6298 139.94C55.5998 139.99 55.5398 140.02 55.4898 140.02L55.4798 140.03Z" fill="white"/>
<path d="M49.1788 139.94C49.1788 139.94 49.0988 139.93 49.0688 139.9C48.9688 139.82 46.5388 137.84 43.7788 139.83C43.6988 139.88 43.5988 139.87 43.5388 139.79C43.4788 139.71 43.4988 139.61 43.5788 139.55C46.5588 137.41 49.2688 139.61 49.2888 139.63C49.3588 139.69 49.3688 139.8 49.3088 139.87C49.2788 139.91 49.2288 139.93 49.1788 139.93V139.94Z" fill="white"/>
<path d="M42.8125 156.291C42.8125 156.291 39.0825 156.431 38.0625 159.851L46.2425 168.691L48.4325 161.371C48.4325 161.371 43.4025 159.591 42.8125 156.291Z" fill="#007CFF"/>
<path d="M46.0022 168.591C46.0022 168.591 45.9522 168.591 45.9222 168.571C41.5022 166.281 38.1422 160.191 38.1022 160.131C38.0522 160.051 38.0822 159.941 38.1722 159.901C38.2522 159.851 38.3622 159.881 38.4022 159.971C38.4322 160.031 41.7522 166.031 46.0722 168.271C46.1522 168.311 46.1922 168.421 46.1422 168.501C46.1122 168.561 46.0522 168.591 45.9922 168.591H46.0022Z" fill="white"/>
<path d="M52.9919 166.791C52.9419 166.791 52.8919 166.771 52.8519 166.721C52.7919 166.641 52.8119 166.541 52.8819 166.481C54.9819 164.871 56.6719 159.401 56.6919 159.341C56.7219 159.251 56.8119 159.201 56.9019 159.231C56.9919 159.261 57.0419 159.351 57.0119 159.441C56.9419 159.671 55.2619 165.071 53.0819 166.751C53.0519 166.771 53.0119 166.791 52.9819 166.791H52.9919Z" fill="white"/>
<path d="M51.7214 156.901C51.7214 156.901 50.8314 160.261 48.4414 161.361L52.6814 166.071C52.6814 166.071 56.5614 161.041 56.1614 158.531C56.1614 158.531 54.6114 156.551 51.7214 156.901Z" fill="#007CFF"/>
<path d="M48.4322 161.361L46.2422 168.691L50.3122 171.851L52.6722 166.071L48.4322 161.361Z" fill="#1A2E35"/>
<path d="M57.2808 213.911C57.2808 213.911 49.4408 231.691 66.2708 236.181C77.7708 239.251 94.5308 231.521 101.951 233.971C101.951 233.971 98.7108 235.111 94.9708 247.641C91.2308 260.171 84.0208 290.561 84.0208 290.561L92.9108 290.921C92.9108 290.921 117.561 235.211 118.041 226.371C118.521 217.531 74.4108 211.191 74.4108 211.191L57.2808 213.911Z" fill="#1A2E35"/>
<path d="M104.089 226.9C103.609 235.74 73.5695 290.86 73.5695 290.86L65.4695 290.65H65.1095L62.4595 290.57C62.4595 290.57 71.5195 261.69 75.2595 249.17C78.6495 237.82 82.9995 236.55 83.7795 236.41C73.7895 237.46 61.4395 238.75 47.9595 237.33C30.5195 235.49 38.0795 216.42 38.0795 216.42L41.0695 216.03L41.4495 215.98L57.2695 213.91C57.2695 213.91 104.549 218.06 104.069 226.9H104.089Z" fill="#1A2E35"/>
<g opacity="0.2">
<path d="M43.0306 223.221C42.1906 223.221 41.3106 223.111 40.3906 222.901L40.4706 222.571C43.1706 223.201 45.4906 222.881 47.3706 221.621C50.7906 219.331 51.5906 214.661 51.6006 214.611L51.9406 214.671C51.9406 214.671 51.1106 219.541 47.5606 221.911C46.2506 222.791 44.7306 223.231 43.0306 223.231V223.221Z" fill="white"/>
</g>
<g opacity="0.2">
<path d="M87.512 235.73C85.002 239.22 80.812 245.06 76.952 254.21C72.402 264.97 66.022 288.62 65.482 290.64C65.462 290.72 65.452 290.77 65.452 290.78C65.432 290.86 65.352 290.91 65.282 290.91C65.272 290.91 65.252 290.91 65.242 290.91C65.152 290.88 65.102 290.79 65.122 290.7C65.122 290.7 65.122 290.68 65.132 290.65C65.482 289.36 72.012 265.06 76.642 254.1C80.522 244.91 84.732 239.05 87.242 235.55C88.832 233.33 89.882 231.87 89.692 231.17C89.642 230.98 89.492 230.85 89.232 230.74C88.242 230.33 83.722 230.82 78.002 231.44C67.362 232.59 52.792 234.18 45.492 231.86C43.552 231.24 42.112 230.03 41.212 228.27C39.032 223.99 40.612 217.77 41.112 216.05L41.492 216C41.072 217.42 39.362 223.87 41.522 228.12C42.382 229.8 43.752 230.94 45.602 231.53C52.832 233.83 67.372 232.25 77.972 231.1C83.972 230.45 88.302 229.98 89.372 230.43C89.732 230.58 89.952 230.79 90.032 231.09C90.272 231.94 89.302 233.29 87.542 235.75L87.512 235.73Z" fill="white"/>
</g>
<path d="M63.6813 290.57L62.2812 297.72H68.0912L71.3913 291.39L63.6813 290.57Z" fill="#FF8B7B"/>
<path d="M62.2639 296.261C62.2639 296.261 60.9339 296.05 61.0039 297.71C61.0739 299.37 59.6239 303.381 59.6939 304.921H77.5739C77.5739 304.921 78.1439 301.11 74.9039 300.99C70.5639 300.84 69.0839 298.341 69.0839 298.341C68.8339 296.601 67.5839 297.181 65.7439 297.371C64.0739 297.541 62.2539 296.261 62.2539 296.261H62.2639Z" fill="#007CFF"/>
<path d="M70.0234 299.352C70.0234 299.352 69.1834 299.452 68.7734 300.092L70.0234 299.352Z" fill="black"/>
<path d="M68.7844 300.261C68.7844 300.261 68.7244 300.261 68.6944 300.231C68.6144 300.181 68.5944 300.071 68.6444 299.991C69.0944 299.291 69.9744 299.181 70.0144 299.171C70.1044 299.161 70.1944 299.231 70.2044 299.321C70.2144 299.411 70.1444 299.501 70.0544 299.511C70.0544 299.511 69.2944 299.611 68.9344 300.171C68.9044 300.221 68.8444 300.251 68.7944 300.251L68.7844 300.261Z" fill="black"/>
<path d="M70.8516 299.721C70.8516 299.721 70.0116 299.821 69.6016 300.461L70.8516 299.721Z" fill="black"/>
<path d="M69.6126 300.631C69.6126 300.631 69.5526 300.631 69.5226 300.601C69.4426 300.551 69.4226 300.441 69.4726 300.361C69.9226 299.661 70.8026 299.551 70.8426 299.541C70.9326 299.541 71.0226 299.601 71.0326 299.691C71.0426 299.781 70.9726 299.871 70.8826 299.881C70.8826 299.881 70.1226 299.981 69.7626 300.541C69.7326 300.591 69.6726 300.621 69.6226 300.621L69.6126 300.631Z" fill="black"/>
<path d="M71.8945 300.221C71.8945 300.221 71.0545 300.321 70.6445 300.961L71.8945 300.221Z" fill="black"/>
<path d="M70.6438 301.131C70.6438 301.131 70.5838 301.131 70.5538 301.101C70.4738 301.051 70.4538 300.941 70.5038 300.861C70.9538 300.161 71.8338 300.051 71.8738 300.041C71.9638 300.041 72.0538 300.101 72.0638 300.191C72.0738 300.281 72.0038 300.371 71.9138 300.381C71.9138 300.381 71.1538 300.481 70.7938 301.041C70.7638 301.091 70.7038 301.121 70.6538 301.121L70.6438 301.131Z" fill="black"/>
<path d="M77.4128 303.881H59.8028C59.7128 303.881 59.6328 303.801 59.6328 303.711C59.6328 303.621 59.7128 303.541 59.8028 303.541H77.4128C77.5028 303.541 77.5828 303.621 77.5828 303.711C77.5828 303.801 77.5028 303.881 77.4128 303.881Z" fill="black"/>
<path d="M74.4619 293.66H60.6719L61.5319 289.42H75.3219L74.4619 293.66Z" fill="#1A2E35"/>
<g opacity="0.3">
<path d="M74.4619 293.66H60.6719L61.5319 289.42H75.3219L74.4619 293.66Z" fill="white"/>
</g>
<path d="M85.0102 290.57L83.9102 297.72H89.7302L92.2001 291.34L85.0102 290.57Z" fill="#FF8B7B"/>
<path d="M83.8287 296.261C83.8287 296.261 82.4887 296.05 82.6287 297.71C82.7687 299.37 81.4887 303.381 81.6187 304.921H99.4987C99.4987 304.921 99.9087 301.11 96.6687 300.99C92.3187 300.84 90.7387 298.341 90.7387 298.341C90.4187 296.601 89.1887 297.181 87.3587 297.371C85.6987 297.541 83.8287 296.261 83.8287 296.261Z" fill="#007CFF"/>
<path d="M91.7217 299.352C91.7217 299.352 90.8917 299.452 90.5117 300.092L91.7217 299.352Z" fill="black"/>
<path d="M90.5104 300.261C90.5104 300.261 90.4504 300.261 90.4204 300.241C90.3404 300.191 90.3104 300.091 90.3604 300.001C90.7804 299.291 91.6604 299.181 91.7004 299.181C91.7904 299.171 91.8804 299.241 91.8904 299.331C91.9004 299.421 91.8304 299.511 91.7404 299.521C91.7404 299.521 90.9904 299.621 90.6504 300.181C90.6204 300.231 90.5604 300.261 90.5004 300.261H90.5104Z" fill="black"/>
<path d="M92.5694 299.721C92.5694 299.721 91.7394 299.821 91.3594 300.461L92.5694 299.721Z" fill="black"/>
<path d="M91.3502 300.631C91.3502 300.631 91.2902 300.631 91.2602 300.611C91.1802 300.561 91.1502 300.461 91.2002 300.371C91.6202 299.661 92.5002 299.551 92.5402 299.551C92.6302 299.551 92.7202 299.611 92.7302 299.701C92.7402 299.791 92.6702 299.881 92.5802 299.891C92.5802 299.891 91.8302 299.991 91.4902 300.551C91.4602 300.601 91.4002 300.631 91.3402 300.631H91.3502Z" fill="black"/>
<path d="M93.628 300.221C93.628 300.221 92.798 300.321 92.418 300.961L93.628 300.221Z" fill="black"/>
<path d="M92.4088 301.131C92.4088 301.131 92.3488 301.131 92.3188 301.111C92.2388 301.061 92.2088 300.961 92.2588 300.871C92.6788 300.161 93.5588 300.051 93.5988 300.051C93.6888 300.051 93.7788 300.111 93.7888 300.201C93.7988 300.291 93.7288 300.381 93.6388 300.391C93.6388 300.391 92.8888 300.491 92.5488 301.051C92.5188 301.101 92.4588 301.131 92.3988 301.131H92.4088Z" fill="black"/>
<path d="M99.2995 303.881H81.6895C81.5995 303.881 81.5195 303.801 81.5195 303.711C81.5195 303.621 81.5995 303.541 81.6895 303.541H99.2995C99.3895 303.541 99.4695 303.621 99.4695 303.711C99.4695 303.801 99.3895 303.881 99.2995 303.881Z" fill="black"/>
<path d="M94.4089 293.66H82.1289L82.7389 289.42H95.0289L94.4089 293.66Z" fill="#1A2E35"/>
<g opacity="0.3">
<path d="M94.4089 293.66H82.1289L82.7389 289.42H95.0289L94.4089 293.66Z" fill="white"/>
</g>
<path d="M43.5319 171.05L43.2519 171.7L42.9319 172.49C42.7219 173.02 42.5119 173.56 42.3119 174.11C41.9219 175.2 41.5519 176.29 41.2619 177.38C40.6419 179.54 40.2719 181.67 40.2119 183.47C40.1919 184.36 40.2519 185.16 40.3819 185.8C40.4919 186.46 40.6819 186.93 40.8819 187.32C41.1019 187.7 41.3719 188.04 41.8019 188.41C42.2419 188.76 42.8519 189.13 43.6619 189.42C44.4519 189.71 45.3919 189.95 46.4219 190.13L46.8219 190.2L47.3219 190.27L48.3119 190.42L50.3019 190.7C52.9519 191.08 55.6119 191.45 58.2819 191.8C63.6119 192.52 69.0219 193.2 74.3519 193.97L74.4819 201.11C68.9019 202 63.4019 202.47 57.8319 202.75C55.0519 202.87 52.2619 202.97 49.4719 202.97H47.3719L46.3219 202.95H45.8019L45.1819 202.92C43.4919 202.84 41.7319 202.61 39.9119 202.13C38.0919 201.67 36.1819 200.92 34.3319 199.79C33.4119 199.21 32.5119 198.56 31.6719 197.78C30.8419 197 30.0819 196.14 29.4119 195.21C28.0819 193.35 27.1619 191.28 26.6219 189.29C26.0619 187.29 25.8719 185.35 25.8219 183.52C25.7519 179.85 26.3619 176.57 27.1919 173.47C27.6219 171.93 28.1019 170.42 28.6819 168.96C28.9619 168.23 29.2619 167.5 29.5819 166.78L30.0819 165.69L30.3519 165.13L30.6819 164.48L43.5319 171.03V171.05Z" fill="#007CFF"/>
<g opacity="0.2">
<path d="M38.2931 201.682C38.2931 201.682 38.1931 198.492 36.0831 196.562C33.9831 194.652 30.3631 195.932 30.3231 195.942L30.2031 195.622C30.3631 195.562 34.0631 194.262 36.3131 196.312C38.5431 198.342 38.6331 201.542 38.6431 201.682H38.3031H38.2931Z" fill="white"/>
</g>
<path d="M88.0903 201.08H81.3503L74.3703 200.76L73.5703 196.06C73.5703 196.06 80.1403 195.49 82.0803 196.06C82.0803 196.06 87.0203 198.45 87.6703 199.3C88.3203 200.15 88.0803 201.08 88.0803 201.08H88.0903Z" fill="#FF8B7B"/>
<path d="M70.6308 201.25C70.6308 201.25 70.5308 201.23 70.5008 201.19C69.1808 199.67 69.0608 194.86 69.0508 194.66C69.0508 194.56 69.1208 194.49 69.2208 194.48C69.3108 194.48 69.3908 194.55 69.3908 194.65C69.3908 194.7 69.5108 199.53 70.7508 200.96C70.8108 201.03 70.8008 201.14 70.7308 201.2C70.7008 201.23 70.6608 201.24 70.6208 201.24L70.6308 201.25Z" fill="white"/>
<path d="M69.6622 198.801C69.5722 198.801 69.4922 198.731 69.4922 198.641C69.4922 198.551 69.5622 198.461 69.6522 198.461L73.9822 198.281C74.0822 198.281 74.1522 198.351 74.1622 198.441C74.1622 198.531 74.0922 198.621 74.0022 198.621L69.6722 198.801H69.6622Z" fill="white"/>
<path d="M118.892 199.752H111.742L104.342 199.412L103.492 194.422C103.492 194.422 110.462 193.812 112.522 194.422C112.522 194.422 117.772 196.962 118.462 197.862C119.152 198.762 118.892 199.752 118.892 199.752Z" fill="#FF8B7B"/>
<path d="M122.61 160.211C122.61 160.211 122.01 212.421 122.61 226.241C123.24 240.651 126.94 290.141 126.99 289.921H135.86C135.86 289.921 143.22 193.001 143.9 182.811C144.58 172.621 141.24 163.821 141.24 163.821L122.6 160.211H122.61Z" fill="#007CFF"/>
<path d="M162.872 165.751C162.872 165.751 167.252 214.201 167.962 228.001C168.672 241.791 170.612 290.381 170.612 290.381L161.172 289.851C161.172 289.851 144.162 192.331 142.402 182.161C140.642 171.991 142.742 165.691 142.742 165.691L162.872 165.751Z" fill="#007CFF"/>
<g opacity="0.2">
<path d="M163.873 179.222C162.173 179.222 160.773 178.652 159.713 177.542C157.073 174.752 157.433 169.542 157.453 169.322L157.793 169.352C157.793 169.402 157.423 174.632 159.963 177.312C160.993 178.392 162.373 178.922 164.053 178.882V179.222C164.003 179.222 163.933 179.222 163.873 179.222Z" fill="white"/>
</g>
<g opacity="0.2">
<path d="M145.42 182.362C145.15 182.362 144.85 182.312 144.52 182.202L144.63 181.872C145.61 182.192 146.41 181.952 147.02 181.132C147.43 180.582 147.66 179.832 147.66 179.032V169.322H148V179.032C148 179.912 147.75 180.732 147.29 181.342C146.92 181.842 146.31 182.352 145.42 182.352V182.362Z" fill="white"/>
</g>
<g opacity="0.2">
<path d="M144.742 168.592H144.402V187.272H144.742V168.592Z" fill="white"/>
</g>
<g opacity="0.2">
<path d="M164.08 290.222C164 290.222 163.93 290.162 163.91 290.082L146.05 188.182C146.03 188.092 146.1 188.002 146.19 187.982C146.28 187.962 146.37 188.032 146.39 188.122L164.25 290.022C164.27 290.112 164.2 290.202 164.11 290.222C164.1 290.222 164.09 290.222 164.08 290.222Z" fill="white"/>
</g>
<path d="M135.002 290.391L134.812 297.621H129.002L127.672 291.161L135.002 290.391Z" fill="#E67B62"/>
<path d="M135.162 296.151C135.162 296.151 136.542 295.941 136.102 297.621C135.662 299.301 136.212 303.361 135.802 304.921H117.922C117.922 304.921 118.202 301.061 121.462 300.941C125.832 300.781 127.872 298.261 127.872 298.261C128.512 296.491 129.632 297.091 131.422 297.271C133.052 297.441 135.162 296.141 135.162 296.141V296.151Z" fill="#1A2E35"/>
<path d="M126.699 299.279C126.699 299.279 127.509 299.379 127.779 300.029L126.699 299.279Z" fill="black"/>
<path d="M127.78 300.19C127.72 300.19 127.65 300.15 127.63 300.09C127.41 299.54 126.69 299.44 126.68 299.44C126.59 299.43 126.53 299.35 126.54 299.26C126.55 299.17 126.63 299.11 126.72 299.12C126.76 299.12 127.63 299.24 127.93 299.97C127.96 300.05 127.93 300.15 127.84 300.18C127.82 300.18 127.8 300.19 127.78 300.19Z" fill="white"/>
<path d="M125.789 299.65C125.789 299.65 126.599 299.75 126.869 300.4L125.789 299.65Z" fill="black"/>
<path d="M126.87 300.571C126.81 300.571 126.74 300.531 126.72 300.471C126.5 299.921 125.78 299.821 125.77 299.821C125.68 299.811 125.62 299.731 125.63 299.641C125.64 299.551 125.72 299.491 125.81 299.501C125.85 299.501 126.72 299.621 127.02 300.351C127.05 300.431 127.02 300.531 126.93 300.561C126.91 300.561 126.89 300.571 126.87 300.571Z" fill="white"/>
<path d="M124.641 300.16C124.641 300.16 125.451 300.26 125.721 300.91L124.641 300.16Z" fill="black"/>
<path d="M125.722 301.071C125.662 301.071 125.592 301.031 125.572 300.971C125.342 300.421 124.632 300.321 124.622 300.321C124.532 300.311 124.472 300.231 124.482 300.141C124.492 300.051 124.572 299.991 124.662 300.001C124.702 300.001 125.572 300.121 125.872 300.851C125.902 300.931 125.872 301.031 125.782 301.061C125.762 301.061 125.742 301.071 125.722 301.071Z" fill="white"/>
<path d="M135.954 303.861H118.344C118.254 303.861 118.184 303.791 118.184 303.701C118.184 303.611 118.254 303.541 118.344 303.541H135.954C136.044 303.541 136.114 303.611 136.114 303.701C136.114 303.791 136.044 303.861 135.954 303.861Z" fill="white"/>
<path d="M125.893 293.511H137.333L137.483 289.221H125.793L125.893 293.511Z" fill="#1A2E35"/>
<path d="M162.051 290.391L163.911 297.551H169.721L169.551 291.161L162.051 290.391Z" fill="#E67B62"/>
<path d="M163.562 296.08C163.562 296.08 162.182 295.87 162.622 297.55C163.062 299.23 162.512 303.29 162.922 304.85H180.802C180.802 304.85 180.522 300.99 177.262 300.87C172.892 300.71 170.852 298.19 170.852 298.19C170.212 296.42 169.092 297.02 167.302 297.2C165.672 297.37 163.562 296.07 163.562 296.07V296.08Z" fill="#1A2E35"/>
<path d="M172.021 299.209C172.021 299.209 171.211 299.309 170.941 299.959L172.021 299.209Z" fill="black"/>
<path d="M170.943 300.12C171.003 300.12 171.073 300.08 171.093 300.02C171.313 299.47 172.032 299.37 172.042 299.37C172.132 299.36 172.192 299.28 172.182 299.19C172.172 299.1 172.093 299.04 172.003 299.05C171.963 299.05 171.092 299.17 170.792 299.9C170.762 299.98 170.793 300.08 170.883 300.11C170.903 300.11 170.923 300.12 170.943 300.12Z" fill="white"/>
<path d="M172.932 299.58C172.932 299.58 172.122 299.68 171.852 300.33L172.932 299.58Z" fill="black"/>
<path d="M171.853 300.501C171.913 300.501 171.983 300.461 172.003 300.401C172.223 299.851 172.943 299.751 172.953 299.751C173.043 299.741 173.103 299.661 173.093 299.571C173.083 299.481 173.003 299.421 172.913 299.431C172.873 299.431 172.003 299.551 171.703 300.281C171.673 300.361 171.703 300.461 171.793 300.491C171.813 300.491 171.833 300.501 171.853 300.501Z" fill="white"/>
<path d="M174.08 300.09C174.08 300.09 173.27 300.19 173 300.84L174.08 300.09Z" fill="black"/>
<path d="M173.001 301.001C173.061 301.001 173.131 300.961 173.151 300.901C173.381 300.351 174.091 300.251 174.101 300.251C174.191 300.241 174.251 300.161 174.241 300.071C174.231 299.981 174.141 299.921 174.061 299.931C174.021 299.931 173.151 300.051 172.851 300.781C172.821 300.861 172.851 300.961 172.941 300.991C172.961 300.991 172.981 301.001 173.001 301.001Z" fill="white"/>
<path d="M162.769 303.791H180.379C180.469 303.791 180.539 303.721 180.539 303.631C180.539 303.541 180.469 303.471 180.379 303.471H162.769C162.679 303.471 162.609 303.541 162.609 303.631C162.609 303.721 162.679 303.791 162.769 303.791Z" fill="white"/>
<path d="M172.271 293.511L160.431 293.651L159.641 289.361L172.121 289.221L172.271 293.511Z" fill="#1A2E35"/>
<path d="M158.94 102.371L161.29 105.311L163.69 108.291C165.29 110.271 166.92 112.211 168.55 114.101C170.2 115.971 171.84 117.821 173.51 119.421C174.34 120.231 175.16 121.001 175.93 121.621C176.31 121.931 176.68 122.211 177 122.421C177.17 122.551 177.28 122.601 177.42 122.701C177.49 122.751 177.51 122.751 177.56 122.781L177.62 122.821L177.65 122.841C177.65 122.841 177.58 122.821 177.56 122.811C176.84 122.651 176.76 122.791 176.89 122.811C177.02 122.841 177.38 122.811 177.78 122.721C178.6 122.561 179.62 122.191 180.67 121.771C182.79 120.931 185.01 119.771 187.23 118.581C191.66 116.151 196.15 113.371 200.54 110.651L204.97 115.861C201.23 119.931 197.29 123.611 192.91 127.091C190.72 128.841 188.42 130.481 185.81 132.031C184.49 132.801 183.09 133.521 181.37 134.151C180.5 134.461 179.57 134.761 178.39 134.951C177.21 135.111 175.77 135.271 173.78 134.711C172.42 134.281 171.62 133.891 170.74 133.441C169.91 133.001 169.17 132.551 168.47 132.091C167.08 131.171 165.86 130.241 164.71 129.281C162.43 127.351 160.37 125.401 158.43 123.361C156.48 121.341 154.66 119.261 152.89 117.151C152.02 116.081 151.15 115.021 150.31 113.931L149.06 112.281L147.82 110.561L158.93 102.361L158.94 102.371Z" fill="#1A2E35"/>
<path d="M200.53 110.651C200.53 110.651 203.57 108.061 204.64 106.281C205.72 104.491 211.44 110.401 211.51 111.241C211.59 112.091 204.95 115.861 204.95 115.861L200.52 110.651H200.53Z" fill="#E67B62"/>
<path d="M204.031 106.192C204.031 106.192 209.361 99.4918 210.701 98.7718C212.031 98.0518 208.601 104.392 208.601 104.392C208.601 104.392 213.221 106.962 213.321 108.652C213.421 110.342 212.441 111.942 211.321 112.242C210.201 112.552 209.371 111.472 209.371 111.472L204.031 106.182V106.192Z" fill="#E67B62"/>
<path d="M201.629 110.323C201.629 110.323 202.069 103.412 203.199 103.262C204.329 103.112 206.649 106.613 206.649 106.613L201.629 110.333V110.323Z" fill="#E67B62"/>
<path d="M136.23 97.9924C136.23 97.9924 123.21 102.462 122.33 105.762C121.45 109.062 123.56 134.912 123.67 139.822C123.78 144.742 119.75 162.922 122.54 166.412C125.53 170.152 162.75 172.212 163.4 167.752C164.24 161.982 162.16 143.402 162.38 136.942C162.6 130.482 160.59 104.872 159.16 102.382C157.74 99.8924 144.82 98.5624 144.82 98.5624L136.23 97.9824V97.9924Z" fill="#1A2E35"/>
<g opacity="0.2">
<path d="M124.38 166.951C123.36 164.221 124.96 154.101 126.13 146.701C126.42 144.851 126.67 143.251 126.85 141.991C127.71 135.841 125.31 121.981 125.28 121.841L125.62 121.781C125.64 121.921 128.06 135.821 127.19 142.031C127.01 143.291 126.76 144.891 126.47 146.741C125.37 153.681 123.72 164.171 124.71 166.811L124.39 166.931L124.38 166.951Z" fill="white"/>
</g>
<path d="M134.602 80.9316C134.602 80.9316 132.902 75.8116 133.562 73.7316C134.222 71.6516 135.692 71.3716 135.692 71.3716C135.692 71.3716 136.522 65.8416 142.002 66.1716C147.482 66.5016 153.832 64.5316 155.042 67.3816C156.252 70.2316 151.912 72.0916 151.912 72.0916C151.912 72.0916 153.632 74.1216 152.972 75.8216C152.312 77.5116 150.802 75.9316 150.802 75.9316L134.602 80.9416V80.9316Z" fill="#1A2E35"/>
<path d="M146.531 100.771C145.931 101.571 145.231 103.171 142.831 103.501C139.801 103.911 136.341 100.711 135.961 99.3911C136.821 95.0611 137.371 90.0511 136.621 86.1211L140.571 89.4111L146.301 94.1811C146.271 94.2911 146.241 94.4011 146.211 94.5111C146.171 94.6511 146.141 94.8011 146.111 94.9411C146.031 95.3011 145.971 95.6411 145.931 95.9911C145.901 96.2711 145.881 96.5511 145.871 96.8211C145.841 97.6711 145.921 98.5011 146.081 99.2911C146.191 99.8011 146.331 100.281 146.511 100.751L146.531 100.771Z" fill="#E67B62"/>
<path d="M142.574 109.992C141.194 109.992 139.964 109.562 138.904 108.692C135.314 105.772 134.864 99.0119 134.844 98.7219C134.844 98.6319 134.914 98.5419 135.004 98.5419C135.104 98.5419 135.184 98.6119 135.184 98.7019C135.184 98.7719 135.644 105.602 139.124 108.422C140.364 109.432 141.864 109.822 143.574 109.562C144.844 109.372 145.804 108.782 146.414 107.782C148.314 104.712 146.394 98.8119 146.374 98.7619C146.344 98.6719 146.394 98.5719 146.484 98.5419C146.574 98.5119 146.674 98.5619 146.704 98.6519C146.784 98.9019 148.684 104.762 146.704 107.962C146.034 109.042 144.994 109.692 143.614 109.902C143.254 109.952 142.914 109.982 142.574 109.982V109.992Z" fill="white"/>
<g opacity="0.2">
<path d="M146.1 99.3114C143.96 98.8614 141.31 97.1314 140.52 94.9514C140.01 93.5414 140.49 92.0914 141.07 91.9414L145.95 96.0014C145.92 96.2814 145.9 96.5614 145.89 96.8314C145.86 97.6814 145.94 98.5114 146.1 99.3014V99.3114Z" fill="black"/>
</g>
<path d="M135.031 78.8209C134.621 72.3409 140.961 67.4409 147.211 69.9609C153.561 72.5209 154.461 82.1409 153.081 87.9609C151.551 94.4309 143.561 97.4109 138.631 92.4209C135.351 89.1009 135.441 85.2909 135.031 78.8209Z" fill="#E67B62"/>
<g opacity="0.2">
<path d="M140.843 75.1523C140.843 75.1523 142.083 77.7623 140.313 78.4623C138.543 79.1623 140.313 82.3423 140.313 82.3423L136.613 83.7423C136.613 83.7423 134.723 81.8823 134.723 79.0723C134.723 76.2623 134.873 74.4023 134.873 74.4023L140.833 75.1523H140.843Z" fill="black"/>
</g>
<path d="M134.721 75.2721C134.721 75.2721 138.671 76.3721 140.311 75.6021C141.951 74.8321 139.431 73.6321 140.691 72.5921C141.951 71.5521 149.011 72.0021 150.981 73.0321C152.951 74.0621 151.101 69.3021 147.151 68.7021C143.211 68.1021 135.431 68.9721 134.711 75.2721H134.721Z" fill="#1A2E35"/>
<path d="M137.563 83.2716C137.563 83.2716 133.793 86.7516 136.943 91.9416C138.933 95.2316 144.493 98.0516 147.993 97.5516C152.933 96.8416 153.383 86.4016 153.383 86.4016C153.383 86.4016 151.923 84.8016 150.053 86.0116C148.183 87.2216 146.463 84.7616 144.953 84.7616C143.443 84.7616 141.993 87.0616 140.843 86.1316C139.693 85.2016 140.313 82.3516 140.313 82.3516L137.563 83.2816V83.2716Z" fill="#1A2E35"/>
<path d="M132.262 83.1424C132.742 84.8224 133.952 86.1324 135.222 86.8024C137.132 87.8224 138.552 86.2324 138.412 84.1824C138.282 82.3424 137.142 79.5924 135.042 79.4224C132.972 79.2524 131.712 81.2224 132.262 83.1424Z" fill="#E67B62"/>
<path d="M144.953 81.9717C144.953 82.5017 145.233 82.9217 145.583 82.9217C145.923 82.9217 146.203 82.4917 146.203 81.9617C146.203 81.4317 145.923 81.0117 145.573 81.0117C145.233 81.0117 144.953 81.4417 144.953 81.9717Z" fill="#1A2E35"/>
<path d="M150.73 81.8916C150.73 82.4216 151.01 82.8416 151.36 82.8416C151.7 82.8416 151.98 82.4116 151.98 81.8816C151.98 81.3516 151.7 80.9316 151.35 80.9316C151.01 80.9316 150.73 81.3616 150.73 81.8916Z" fill="#1A2E35"/>
<path d="M145.391 86.752C145.391 86.752 147.361 87.692 150.591 87.342C150.591 87.342 150.251 89.622 148.161 89.672C145.631 89.732 145.391 86.762 145.391 86.762V86.752Z" fill="white"/>
<path d="M152.572 79.581C152.482 79.581 152.392 79.531 152.352 79.451C152.142 79.081 151.872 78.841 151.552 78.761C151.022 78.621 150.512 78.921 150.502 78.921C150.382 78.991 150.222 78.951 150.152 78.831C150.082 78.711 150.122 78.551 150.242 78.481C150.272 78.461 150.942 78.071 151.682 78.261C152.142 78.381 152.522 78.701 152.802 79.201C152.872 79.321 152.832 79.481 152.702 79.551C152.662 79.571 152.622 79.581 152.572 79.581Z" fill="#1A2E35"/>
<path d="M143.591 79.7821C143.591 79.7821 143.511 79.7821 143.481 79.7521C143.351 79.6921 143.301 79.5321 143.361 79.4121C143.371 79.3821 143.721 78.6821 144.451 78.4421C144.901 78.2921 145.391 78.3521 145.901 78.6121C146.031 78.6821 146.081 78.8321 146.011 78.9621C145.941 79.0921 145.791 79.1421 145.661 79.0721C145.281 78.8721 144.931 78.8221 144.611 78.9321C144.091 79.1021 143.821 79.6321 143.821 79.6421C143.781 79.7321 143.681 79.7821 143.591 79.7821Z" fill="#1A2E35"/>
<path d="M148.461 81.1211C148.461 81.1211 148.851 82.7911 150.171 83.9011C151.501 85.0111 148.891 86.0011 148.891 86.0011L148.461 81.1211Z" fill="#D54C38"/>
<path d="M133.601 113.583L122.271 125.043C120.421 126.973 118.551 128.863 116.801 130.803C115.041 132.703 113.321 134.673 111.981 136.483C111.651 136.923 111.351 137.353 111.111 137.723C110.881 138.073 110.721 138.403 110.701 138.323C110.701 138.263 110.701 138.233 110.721 138.073V137.973C110.721 137.913 110.721 137.853 110.721 137.803C110.721 137.683 110.711 137.563 110.701 137.473C110.651 137.073 110.551 136.873 110.521 136.823C110.421 136.693 110.491 136.963 110.661 137.273C111.011 137.933 111.711 138.823 112.501 139.673C113.301 140.533 114.181 141.413 115.121 142.283C118.891 145.743 123.241 149.103 127.491 152.343L124.171 158.323C121.471 157.233 118.951 156.033 116.391 154.733C113.851 153.413 111.341 152.003 108.861 150.363C107.621 149.543 106.371 148.673 105.141 147.673C103.901 146.653 102.661 145.573 101.381 144.003C100.751 143.203 100.081 142.273 99.5115 140.863C99.2315 140.163 98.9714 139.283 98.8814 138.203C98.8514 137.943 98.8515 137.653 98.8615 137.363L98.8814 136.933L98.9115 136.583C98.9615 136.083 99.0414 135.713 99.1314 135.323C99.4814 133.903 99.8915 132.983 100.291 132.103C100.691 131.243 101.101 130.493 101.521 129.783C103.191 126.973 104.931 124.633 106.701 122.323C108.511 120.053 110.321 117.853 112.211 115.743C114.091 113.613 116.011 111.563 117.971 109.543C119.951 107.533 121.911 105.573 124.051 103.643L133.591 113.623L133.601 113.583Z" fill="#1A2E35"/>
<path d="M122.951 149.073C122.951 149.073 126.751 151.513 127.001 153.803C127.251 156.093 125.551 161.353 123.961 161.103C122.371 160.853 121.161 160.603 120.431 158.293C119.701 155.993 122.961 149.062 122.961 149.062L122.951 149.073Z" fill="#E67B62"/>
<g opacity="0.2">
<path d="M122.46 179.211L122.43 178.871C129.25 178.331 129.05 168.461 129.04 168.361H129.38C129.38 168.451 129.6 178.651 122.45 179.221L122.46 179.211Z" fill="white"/>
</g>
<path d="M136.04 201.691H94.3697C93.3797 201.691 92.6698 200.721 92.9798 199.771L102.03 172.211C102.23 171.611 102.79 171.211 103.42 171.211H145.09C146.08 171.211 146.79 172.181 146.48 173.131L137.43 200.691C137.23 201.291 136.67 201.691 136.04 201.691Z" fill="#007CFF"/>
<g opacity="0.6">
<path d="M136.04 201.691H94.3697C93.3797 201.691 92.6698 200.721 92.9798 199.771L102.03 172.211C102.23 171.611 102.79 171.211 103.42 171.211H145.09C146.08 171.211 146.79 172.181 146.48 173.131L137.43 200.691C137.23 201.291 136.67 201.691 136.04 201.691Z" fill="white"/>
</g>
<g opacity="0.5">
<path d="M123.871 186.991C123.551 188.811 121.801 190.281 119.951 190.281C118.101 190.281 116.871 188.811 117.191 186.991C117.511 185.171 119.261 183.701 121.111 183.701C122.961 183.701 124.191 185.171 123.871 186.991Z" fill="white"/>
</g>
<path d="M79.5313 201.08L78.6513 203.73C78.3813 204.54 78.9813 205.37 79.8313 205.37H135.021C135.561 205.37 136.031 205.03 136.201 204.52L137.351 201.08H79.5413H79.5313Z" fill="#007CFF"/>
<g opacity="0.6">
<path d="M79.5313 201.08L78.6513 203.73C78.3813 204.54 78.9813 205.37 79.8313 205.37H135.021C135.561 205.37 136.031 205.03 136.201 204.52L137.351 201.08H79.5413H79.5313Z" fill="white"/>
</g>
<path d="M137.23 201.25H93.1895C93.0995 201.25 93.0195 201.17 93.0195 201.08C93.0195 200.99 93.0995 200.91 93.1895 200.91H137.23C137.32 200.91 137.4 200.99 137.4 201.08C137.4 201.17 137.32 201.25 137.23 201.25Z" fill="#007CFF"/>
<path d="M165.021 201.691H206.691C207.681 201.691 208.391 200.721 208.081 199.771L199.031 172.211C198.831 171.611 198.271 171.211 197.641 171.211H155.971C154.981 171.211 154.271 172.181 154.581 173.131L163.631 200.691C163.831 201.291 164.391 201.691 165.021 201.691Z" fill="#007CFF"/>
<g opacity="0.6">
<path d="M165.021 201.691H206.691C207.681 201.691 208.391 200.721 208.081 199.771L199.031 172.211C198.831 171.611 198.271 171.211 197.641 171.211H155.971C154.981 171.211 154.271 172.181 154.581 173.131L163.631 200.691C163.831 201.291 164.391 201.691 165.021 201.691Z" fill="white"/>
</g>
<g opacity="0.4">
<path d="M168.79 198.892H202.8C203.61 198.892 204.19 198.102 203.93 197.332L196.54 174.832C196.38 174.342 195.92 174.012 195.41 174.012H161.4C160.59 174.012 160.01 174.802 160.27 175.572L167.66 198.072C167.82 198.562 168.28 198.892 168.79 198.892Z" fill="white"/>
</g>
<path d="M221.523 201.08L222.403 203.73C222.673 204.54 222.073 205.37 221.223 205.37H166.033C165.493 205.37 165.023 205.03 164.853 204.52L163.703 201.08H221.513H221.523Z" fill="#007CFF"/>
<g opacity="0.4">
<path d="M221.523 201.08L222.403 203.73C222.673 204.54 222.073 205.37 221.223 205.37H166.033C165.493 205.37 165.023 205.03 164.853 204.52L163.703 201.08H221.513H221.523Z" fill="white"/>
</g>
<path d="M245.259 205.371H78.0391V210.421H245.259V205.371Z" fill="black"/>
<g opacity="0.8">
<path d="M245.259 205.371H78.0391V210.421H245.259V205.371Z" fill="white"/>
</g>
<path d="M89.0903 210.422L74.0703 304.892L77.0803 304.962L95.6903 210.422H89.0903Z" fill="black"/>
<g opacity="0.8">
<path d="M89.0903 210.422L74.0703 304.882L77.0803 304.952L95.6903 210.422H89.0903Z" fill="white"/>
</g>
<path d="M231.34 210.422L246.36 304.892L243.34 304.962L224.73 210.422H231.34Z" fill="black"/>
<g opacity="0.8">
<path d="M231.34 210.422L246.36 304.882L243.34 304.952L224.73 210.422H231.34Z" fill="white"/>
</g>
<path d="M228.071 215.652H89.2812V217.592H228.071V215.652Z" fill="black"/>
<g opacity="0.8">
<path d="M228.071 215.652H89.2812V217.592H228.071V215.652Z" fill="white"/>
</g>
<path d="M245.947 213.911C245.947 213.911 253.787 231.691 236.957 236.181C225.457 239.251 208.697 231.521 201.277 233.971C201.277 233.971 204.517 235.111 208.257 247.641C211.997 260.171 218.417 283.561 218.417 283.561L209.527 283.921C209.527 283.921 185.667 235.211 185.187 226.371C184.707 217.531 228.817 211.191 228.817 211.191L245.947 213.911Z" fill="#1A2E35"/>
<path d="M265.138 216.432C265.138 216.432 272.698 235.502 255.258 237.342C241.728 238.772 229.328 237.462 219.318 236.412C219.318 236.412 224.228 236.652 227.968 249.182C231.708 261.712 238.728 283.662 238.728 283.662L227.728 283.702C227.728 283.702 199.618 235.752 199.148 226.912C198.668 218.072 245.948 213.922 245.948 213.922L265.138 216.442V216.432Z" fill="#1A2E35"/>
<g opacity="0.2">
<path d="M215.667 284.862C214.897 282.812 196.887 234.692 196.887 231.682C196.887 228.672 223.627 225.072 226.677 224.672L226.717 225.012C214.857 226.542 197.227 229.582 197.227 231.682C197.227 234.622 215.797 284.242 215.987 284.742L215.667 284.862Z" fill="white"/>
</g>
<path d="M237.687 284.801L239.087 291.941H233.267L229.977 285.621L237.687 284.801Z" fill="#CD5B51"/>
<path d="M239.087 290.74C239.297 292.47 233.537 291.04 232.947 291.94C232.357 292.84 231.587 295.85 230.687 297.36C229.787 298.87 224.727 303.76 224.727 303.76H235.537L237.167 301.4L237.707 303.76H240.697C240.697 303.76 239.567 291.96 239.087 290.74Z" fill="#1A2E35"/>
<path d="M226.905 287.89H240.695L239.825 283.65H226.035L226.905 287.89Z" fill="#1A2E35"/>
<g opacity="0.3">
<path d="M226.905 287.89H240.695L239.825 283.65H226.035L226.905 287.89Z" fill="white"/>
</g>
<path d="M215.378 145.141C215.278 145.181 215.158 145.161 215.068 145.081C214.938 144.971 214.918 144.771 215.028 144.631C216.168 143.281 217.628 143.451 217.688 143.461C217.858 143.481 217.988 143.641 217.968 143.821C217.948 143.991 217.788 144.121 217.618 144.101C217.568 144.101 216.428 143.981 215.518 145.051C215.478 145.101 215.428 145.131 215.378 145.151" fill="#1A2E35"/>
<path d="M215.979 146.522C215.979 146.522 215.499 148.922 214.719 150.182C215.519 150.702 216.639 150.192 216.639 150.192L215.969 146.512L215.979 146.522Z" fill="#BA221F"/>
<path d="M216.808 146.682C216.958 147.202 216.808 147.702 216.468 147.802C216.128 147.902 215.728 147.562 215.578 147.032C215.428 146.512 215.578 146.012 215.918 145.912C216.258 145.812 216.658 146.152 216.808 146.682Z" fill="#1A2E35"/>
<path d="M216.079 145.9H214.719C214.719 145.9 215.649 146.69 216.079 145.9Z" fill="#1A2E35"/>
<path d="M216.118 138.012C216.118 138.012 213.128 138.772 215.578 143.262L217.808 138.672L216.118 138.012Z" fill="#1A2E35"/>
<path d="M228.858 133.251C228.858 133.251 226.318 123.311 234.418 124.051C242.518 124.791 241.098 131.631 241.098 131.631C241.098 131.631 245.988 131.801 243.768 137.401C241.548 143.001 232.848 139.431 232.848 139.431C230.778 138.061 229.558 135.901 228.858 133.251Z" fill="#1A2E35"/>
<path d="M232.357 162.821C230.177 162.601 228.567 163.051 227.427 163.671C228.437 161.761 227.597 159.601 226.457 157.631L232.067 149.191C232.407 153.291 233.677 160.631 237.137 162.451C237.137 162.451 238.277 163.431 232.357 162.831V162.821Z" fill="#CD5B51"/>
<g opacity="0.2">
<path d="M229.777 152.621L226.457 157.621C226.837 158.281 227.187 158.971 227.437 159.661C229.027 158.951 230.777 156.481 230.467 154.701C230.307 153.811 230.037 152.991 229.777 152.631" fill="black"/>
</g>
<path d="M233.559 141.291C234.329 147.761 234.789 150.491 232.149 154.361C228.179 160.191 220.059 159.711 217.369 153.601C214.949 148.101 214.099 138.431 219.909 134.751C225.629 131.121 232.789 134.821 233.549 141.291" fill="#CD5B51"/>
<path d="M223.428 131.931C223.428 131.931 229.318 130.291 233.408 133.991C237.488 137.691 238.578 147.411 232.438 153.931C232.628 155.901 224.108 156.891 221.448 151.361C220.488 149.361 219.118 148.061 218.478 141.121L216.008 140.531C213.958 139.641 214.158 131.341 223.428 131.911V131.931Z" fill="#1A2E35"/>
<path d="M224.456 146.45C224.226 147.78 223.406 148.88 222.486 149.51C221.106 150.45 219.886 149.35 219.816 147.77C219.756 146.35 220.406 144.14 222.006 143.83C223.586 143.52 224.716 144.93 224.446 146.45" fill="#CD5B51"/>
<path d="M220.398 149.831C220.538 150.411 221.128 150.761 221.708 150.621C222.288 150.481 222.638 149.891 222.498 149.311C222.358 148.731 221.768 148.381 221.188 148.521C220.608 148.661 220.258 149.251 220.398 149.831Z" fill="white"/>
<path d="M236.067 140.451C236.067 140.451 236.057 140.451 236.047 140.451C228.217 139.731 228.297 131.651 228.297 131.571C228.297 131.471 228.377 131.391 228.477 131.391C228.577 131.391 228.657 131.471 228.657 131.571C228.657 131.891 228.587 139.401 236.087 140.091C236.187 140.091 236.257 140.191 236.247 140.281C236.247 140.371 236.157 140.441 236.067 140.441V140.451Z" fill="#007CFF"/>
<path d="M228.477 133.891C228.477 133.891 228.467 133.891 228.457 133.891C227.517 133.801 222.817 133.291 222.417 132.131C222.357 131.971 222.347 131.711 222.637 131.431C224.207 129.891 228.657 133.421 228.847 133.571C228.927 133.631 228.937 133.741 228.877 133.821C228.817 133.901 228.707 133.911 228.627 133.851C228.627 133.851 228.617 133.851 228.607 133.841C228.577 133.871 228.527 133.891 228.477 133.891ZM223.727 131.401C223.387 131.401 223.097 131.491 222.897 131.691C222.717 131.871 222.747 131.981 222.767 132.011C223.007 132.701 226.077 133.271 228.177 133.491C227.027 132.641 225.017 131.391 223.737 131.391L223.727 131.401Z" fill="#007CFF"/>
<path d="M228.476 133.5C228.376 133.5 228.306 133.42 228.296 133.33C228.296 133.33 228.296 133.32 228.296 133.31C228.246 133.31 228.196 133.28 228.166 133.23C227.616 132.46 224.936 128.58 225.536 127.51C225.626 127.36 225.806 127.19 226.206 127.22C228.406 127.4 228.646 133.07 228.656 133.31C228.656 133.41 228.586 133.49 228.486 133.5H228.476ZM226.106 127.58C225.906 127.58 225.856 127.66 225.846 127.69C225.486 128.33 227.066 131.02 228.266 132.75C228.126 130.95 227.576 127.69 226.176 127.58C226.156 127.58 226.126 127.58 226.106 127.58Z" fill="#007CFF"/>
<path d="M251.317 207.991C246.717 216.071 219.207 214.951 217.687 213.221C216.177 211.491 222.117 190.361 222.107 185.161V185.141C222.077 179.971 216.847 174.081 218.767 170.251C219.477 168.841 220.887 167.321 222.397 165.951C223.737 164.741 225.147 163.651 226.197 162.891C226.287 162.821 226.367 162.771 226.437 162.711H226.447C226.687 162.521 226.907 162.371 227.097 162.241C227.557 161.921 227.827 161.751 227.827 161.751C227.827 161.751 232.497 160.611 237.327 160.281C237.617 160.261 237.897 160.251 238.187 160.231C240.157 160.141 242.097 160.201 243.727 160.541C249.617 161.771 250.577 167.001 250.797 172.841C251.017 178.681 255.907 199.881 251.307 207.971L251.317 207.991Z" fill="#007CFF"/>
<g opacity="0.2">
<path d="M220.84 213.92L220.5 213.9C220.84 208.88 227.31 181.01 227.37 180.73L227.7 180.81C227.63 181.09 221.17 208.93 220.84 213.92Z" fill="white"/>
</g>
<g opacity="0.2">
<path d="M238.199 160.252C238.199 160.252 238.199 160.282 238.189 160.302C237.909 161.382 234.319 164.272 231.009 164.152C228.029 164.052 226.479 163.092 226.199 162.902C226.289 162.832 226.369 162.782 226.439 162.722H226.449C226.689 162.532 226.909 162.382 227.099 162.252C227.839 162.492 229.569 162.942 232.009 162.862C235.319 162.752 237.319 160.302 237.319 160.302C237.609 160.272 237.889 160.262 238.179 160.252H238.199Z" fill="black"/>
</g>
<path d="M230.417 174.601C229.937 181.531 224.727 184.241 222.107 185.171V185.151C222.077 179.981 216.847 174.091 218.767 170.261C219.477 168.851 220.887 167.331 222.397 165.961C225.967 166.631 230.837 168.651 230.417 174.601Z" fill="#CD5B51"/>
<path d="M227.71 173.072C227 177.522 226.04 181.752 224.77 186.092C224.12 188.262 223.41 190.422 222.43 192.662C221.93 193.792 221.4 194.932 220.58 196.182C220.15 196.812 219.69 197.482 218.9 198.242L218.59 198.532L218.22 198.832C217.98 199.012 217.6 199.282 217.39 199.382C217.14 199.512 216.89 199.642 216.64 199.762L216.02 200.002C215.8 200.092 215.61 200.152 215.44 200.192L214.89 200.352C214.54 200.442 214.22 200.512 213.88 200.592L212.93 200.762L212.02 200.892C210.82 201.042 209.67 201.122 208.54 201.192C206.27 201.302 204.06 201.302 201.86 201.252C197.46 201.152 193.51 201.332 189.15 200.772L188.84 195.982C193.06 195.492 197.33 194.502 201.49 193.982C203.57 193.712 205.64 193.422 207.64 193.072C208.63 192.902 209.61 192.712 210.52 192.482L211.19 192.312L211.81 192.132L212.35 191.942L212.57 191.852C212.65 191.822 212.71 191.792 212.74 191.772C212.78 191.752 212.82 191.722 212.86 191.702C212.84 191.702 212.83 191.702 212.81 191.702C212.84 191.682 212.67 191.782 212.64 191.802C212.62 191.812 212.6 191.832 212.58 191.842H212.56C212.53 191.842 212.69 191.632 212.83 191.362C213.13 190.792 213.5 189.982 213.81 189.122C214.45 187.392 215 185.452 215.52 183.492C216.54 179.572 217.42 175.412 218.24 171.422L227.71 173.062V173.072Z" fill="#CD5B51"/>
<path d="M175.418 201.082L182.028 200.762H189.128L189.928 196.062C189.928 196.062 183.358 195.492 181.418 196.062C181.418 196.062 176.478 198.452 175.828 199.302C175.178 200.152 175.418 201.082 175.418 201.082Z" fill="#CD5B51"/>
<path d="M227.148 162.351C227.148 162.351 226.898 160.901 227.738 160.431C228.578 159.971 232.128 157.311 233.538 157.151C234.938 156.981 236.368 160.361 237.338 160.301C238.308 160.251 229.558 163.091 227.158 162.351H227.148Z" fill="#007CFF"/>
<path d="M282.588 164.591C287.278 166.591 288.148 169.771 287.548 174.551C285.958 187.271 281.938 217.821 279.348 222.431C276.058 228.281 229.968 228.891 227.628 223.561C225.278 218.231 232.588 173.261 236.538 169.011C239.818 165.471 269.178 158.871 282.598 164.591H282.588Z" fill="black"/>
<g opacity="0.6">
<path d="M282.588 164.591C287.278 166.591 288.148 169.771 287.548 174.551C285.958 187.271 281.938 217.821 279.348 222.431C276.058 228.281 229.968 228.891 227.628 223.561C225.278 218.231 232.588 173.261 236.538 169.011C239.818 165.471 269.178 158.871 282.598 164.591H282.588Z" fill="white"/>
</g>
<g opacity="0.5">
<path d="M231.991 222.751L231.301 222.721C231.311 222.431 232.661 193.891 237.071 177.031C239.771 166.701 244.141 165.671 244.321 165.631L244.461 166.301C244.461 166.301 240.311 167.351 237.731 177.201C233.341 194.001 231.991 222.461 231.981 222.751H231.991Z" fill="white"/>
</g>
<path d="M228.059 222.73C228.059 222.73 225.449 223.14 218.909 224.25C216.729 224.62 214.589 224.97 212.709 225.27C208.959 225.87 206.199 229.1 206.199 232.9C206.199 237.17 209.659 240.63 213.929 240.63H266.979C272.339 240.63 277.149 237.1 278.529 231.92C279.169 229.53 279.529 226.52 279.379 222.74H228.059V222.73Z" fill="black"/>
<g opacity="0.5">
<path d="M228.059 222.73C228.059 222.73 225.449 223.14 218.909 224.25C216.729 224.62 214.589 224.97 212.709 225.27C208.959 225.87 206.199 229.1 206.199 232.9C206.199 237.17 209.659 240.63 213.929 240.63H266.979C272.339 240.63 277.149 237.1 278.529 231.92C279.169 229.53 279.529 226.52 279.379 222.74H228.059V222.73Z" fill="white"/>
</g>
<path d="M255.541 241.211H251.691V295.841H255.541V241.211Z" fill="black"/>
<g opacity="0.5">
<path d="M255.541 241.211H251.691V295.841H255.541V241.211Z" fill="white"/>
</g>
<path d="M280.632 296.681H283.712V295.121C283.712 289.431 279.082 284.811 273.402 284.811H257.172V287.891H273.402C277.392 287.891 280.642 291.141 280.642 295.131V296.691L280.632 296.681Z" fill="black"/>
<g opacity="0.6">
<path d="M280.632 296.681H283.712V295.121C283.712 289.431 279.082 284.811 273.402 284.811H257.172V287.891H273.402C277.392 287.891 280.642 291.141 280.642 295.131V296.691L280.632 296.681Z" fill="white"/>
</g>
<path d="M285.879 303.421C287.929 301.371 287.929 298.047 285.879 295.997C283.829 293.946 280.505 293.946 278.454 295.997C276.404 298.047 276.404 301.371 278.454 303.421C280.505 305.472 283.829 305.472 285.879 303.421Z" fill="black"/>
<g opacity="0.4">
<path d="M285.879 303.421C287.929 301.371 287.929 298.047 285.879 295.997C283.829 293.946 280.505 293.946 278.454 295.997C276.404 298.047 276.404 301.371 278.454 303.421C280.505 305.472 283.829 305.472 285.879 303.421Z" fill="white"/>
</g>
<g opacity="0.5">
<path d="M279.531 299.71C279.531 301.17 280.711 302.35 282.171 302.35C283.631 302.35 284.811 301.17 284.811 299.71C284.811 298.25 283.631 297.07 282.171 297.07C280.711 297.07 279.531 298.25 279.531 299.71Z" fill="white"/>
</g>
<path d="M254.454 304.89C257.316 304.424 259.258 301.727 258.793 298.865C258.327 296.003 255.63 294.061 252.768 294.526C249.906 294.992 247.963 297.689 248.429 300.551C248.895 303.413 251.592 305.355 254.454 304.89Z" fill="black"/>
<g opacity="0.4">
<path d="M254.454 304.89C257.316 304.424 259.258 301.727 258.793 298.865C258.327 296.003 255.63 294.061 252.768 294.526C249.906 294.992 247.963 297.689 248.429 300.551C248.895 303.413 251.592 305.355 254.454 304.89Z" fill="white"/>
</g>
<g opacity="0.5">
<path d="M253.613 302.35C255.071 302.35 256.253 301.168 256.253 299.71C256.253 298.252 255.071 297.07 253.613 297.07C252.155 297.07 250.973 298.252 250.973 299.71C250.973 301.168 252.155 302.35 253.613 302.35Z" fill="white"/>
</g>
<path d="M223.91 296.681H226.99V295.121C226.99 291.131 230.24 287.881 234.23 287.881H250.46V284.801H234.23C228.54 284.801 223.92 289.431 223.92 295.111V296.671L223.91 296.681Z" fill="black"/>
<g opacity="0.6">
<path d="M223.91 296.681H226.99V295.121C226.99 291.131 230.24 287.881 234.23 287.881H250.46V284.801H234.23C228.54 284.801 223.92 289.431 223.92 295.111V296.671L223.91 296.681Z" fill="white"/>
</g>
<path d="M230.572 300.933C231.241 298.112 229.495 295.283 226.674 294.614C223.853 293.946 221.023 295.691 220.355 298.513C219.686 301.334 221.432 304.163 224.253 304.832C227.074 305.5 229.904 303.755 230.572 300.933Z" fill="black"/>
<g opacity="0.4">
<path d="M230.572 300.933C231.241 298.112 229.495 295.283 226.674 294.614C223.853 293.946 221.023 295.691 220.355 298.513C219.686 301.334 221.432 304.163 224.253 304.832C227.074 305.5 229.904 303.755 230.572 300.933Z" fill="white"/>
</g>
<g opacity="0.5">
<path d="M225.452 302.35C226.911 302.35 228.092 301.168 228.092 299.71C228.092 298.252 226.911 297.07 225.452 297.07C223.994 297.07 222.812 298.252 222.812 299.71C222.812 301.168 223.994 302.35 225.452 302.35Z" fill="white"/>
</g>
<path d="M257.171 281.51H250.051V291.94H257.171V281.51Z" fill="black"/>
<g opacity="0.6">
<path d="M257.171 281.51H250.051V291.94H257.171V281.51Z" fill="white"/>
</g>
<path d="M257.171 240.631H250.051V251.061H257.171V240.631Z" fill="black"/>
<g opacity="0.6">
<path d="M257.171 240.631H250.051V251.061H257.171V240.631Z" fill="white"/>
</g>
<path d="M219.155 284.801L220.565 291.941H214.745L211.445 285.621L219.155 284.801Z" fill="#CD5B51"/>
<path d="M220.567 290.74C220.777 292.47 215.017 291.04 214.427 291.94C213.837 292.84 213.067 295.85 212.167 297.36C211.267 298.87 206.207 303.76 206.207 303.76H217.017L218.647 301.4L219.187 303.76H222.177C222.177 303.76 221.047 291.96 220.567 290.74Z" fill="#1A2E35"/>
<path d="M208.386 287.89H222.176L221.306 283.65H207.516L208.386 287.89Z" fill="#1A2E35"/>
<g opacity="0.3">
<path d="M208.386 287.89H222.176L221.306 283.65H207.516L208.386 287.89Z" fill="white"/>
</g>
</g>
<defs>
<clipPath id="clip0_7018_256662">
<rect width="296" height="280" fill="white" transform="translate(0 40)"/>
</clipPath>
</defs>
</svg>
