<svg width="296" height="360" viewBox="0 0 296 360" fill="none" xmlns="http://www.w3.org/2000/svg">
<g clip-path="url(#clip0_7018_256053)">
<path d="M296 40H0V320H296V40Z" fill="white"/>
<path d="M294.43 277.73H2.01953V277.9H294.43V277.73Z" fill="#E7E7E7"/>
<path d="M34.3675 284.32H11.4375V284.49H34.3675V284.32Z" fill="#E7E7E7"/>
<path d="M99.6372 282.439H81.3672V282.609H99.6372V282.439Z" fill="#E7E7E7"/>
<path d="M69.2062 288.41H37.4062V288.58H69.2062V288.41Z" fill="#E7E7E7"/>
<path d="M286.63 289.59H271.68V289.76H286.63V289.59Z" fill="#E7E7E7"/>
<path d="M268.32 289.59H246.18V289.76H268.32V289.59Z" fill="#E7E7E7"/>
<path d="M205.236 286.67H167.066V286.84H205.236V286.67Z" fill="#E7E7E7"/>
<path d="M139.228 246.85H5.52813C3.34813 246.85 1.57812 245.08 1.57812 242.9V54.95C1.57812 52.77 3.34813 51 5.52813 51H139.228C141.408 51 143.178 52.77 143.178 54.95V242.89C143.178 245.07 141.408 246.84 139.228 246.84V246.85ZM5.52813 51.17C3.44813 51.17 1.74812 52.87 1.74812 54.95V242.89C1.74812 244.97 3.44813 246.67 5.52813 246.67H139.228C141.308 246.67 143.008 244.97 143.008 242.89V54.95C143.008 52.87 141.308 51.17 139.228 51.17H5.52813Z" fill="#E7E7E7"/>
<path d="M288.998 246.85H155.298C153.118 246.85 151.348 245.08 151.348 242.9V54.95C151.348 52.77 153.118 51 155.298 51H288.998C291.178 51 292.948 52.77 292.948 54.95V242.89C292.948 245.07 291.178 246.84 288.998 246.84V246.85ZM155.288 51.17C153.208 51.17 151.508 52.87 151.508 54.95V242.89C151.508 244.97 153.208 246.67 155.288 246.67H288.988C291.068 246.67 292.768 244.97 292.768 242.89V54.95C292.768 52.87 291.068 51.17 288.988 51.17H155.288Z" fill="#E7E7E7"/>
<path d="M23.8475 165.17L211.188 165.17V60.8699L23.8475 60.8699V165.17Z" fill="#E1E1E1"/>
<path d="M13.5583 165.17L210.238 165.17V60.8699L13.5583 60.8699V165.17Z" fill="#ECECEC"/>
<path d="M207.02 161.96V64.0898L16.7695 64.0898V161.96H207.02Z" fill="#F5F5F5"/>
<path d="M129.99 161.96L94.0703 64.0898H153.35L189.27 161.96H129.99Z" fill="#ECECEC"/>
<path d="M72.9278 161.96L37.0078 64.0898H81.7278L117.648 161.96H72.9278Z" fill="#ECECEC"/>
<path d="M274.59 274.488H285.25V202.728H274.59V274.488Z" fill="#F0F0F0"/>
<path d="M166.107 277.729H283.207V274.499H166.107V277.729Z" fill="#F0F0F0"/>
<path d="M274.589 202.738H164.059V274.498H274.589V202.738Z" fill="#ECECEC"/>
<path d="M275.69 202.738H286.59V199.918H275.69V202.738Z" fill="#F0F0F0"/>
<path d="M275.699 199.908H162.719V202.728H275.699V199.908Z" fill="#FAFAFA"/>
<path d="M270.83 236.748H167.82V208.588H270.83V236.748ZM168.69 235.878H269.96V209.458H168.69V235.878Z" fill="#E1E1E1"/>
<path d="M270.83 268.649H167.82V240.879H270.83V268.649ZM168.69 267.779H269.96V241.749H168.69V267.779Z" fill="#E1E1E1"/>
<path d="M188.248 214.198H250.398C251.028 214.198 251.548 213.678 251.548 213.048C251.548 212.418 251.028 211.898 250.398 211.898H188.248C187.618 211.898 187.098 212.418 187.098 213.048C187.098 213.678 187.618 214.198 188.248 214.198Z" fill="#E1E1E1"/>
<path d="M188.248 246.488H250.398C251.028 246.488 251.548 245.967 251.548 245.337C251.548 244.707 251.028 244.188 250.398 244.188H188.248C187.618 244.188 187.098 244.707 187.098 245.337C187.098 245.967 187.618 246.488 188.248 246.488Z" fill="#E1E1E1"/>
<path d="M73.1664 191.67H55.2764C48.9064 191.67 43.1564 196.25 41.6564 202.53L36.9264 222.27L27.2164 222.24H27.1864C22.5564 222.24 18.5764 225.53 17.7064 230.08L16.4164 236.84C14.4664 237.12 12.7864 238.61 12.3164 240.59H60.3164C66.6864 240.59 72.4264 236.01 73.9264 229.74L80.7164 201.39C81.9364 196.31 78.3264 191.67 73.1764 191.67H73.1664ZM26.1564 236.78H18.9764L20.1764 230.55C20.8164 227.2 23.7564 224.76 27.1764 224.76H27.2064L36.3164 224.79L35.1664 229.6C34.1764 233.75 30.3764 236.78 26.1564 236.78Z" fill="#ECECEC"/>
<path d="M59.1055 240.59H61.1555L69.2255 277.73H67.1755L59.1055 240.59Z" fill="#E1E1E1"/>
<path d="M51.4062 240.59H53.4562L61.5262 277.73H59.4762L51.4062 240.59Z" fill="#E1E1E1"/>
<path d="M21.2177 240.59H19.1677L11.0977 277.73H13.1477L21.2177 240.59Z" fill="#E1E1E1"/>
<path d="M28.9169 240.59H26.8669L18.7969 277.73H20.8469L28.9169 240.59Z" fill="#E1E1E1"/>
<path d="M139.62 191.67H121.73C115.36 191.67 109.61 196.25 108.11 202.53L103.38 222.27L93.6695 222.24H93.6395C89.0095 222.24 85.0295 225.53 84.1595 230.08L82.8695 236.84C80.9195 237.12 79.2395 238.61 78.7695 240.59H126.77C133.14 240.59 138.88 236.01 140.38 229.74L147.17 201.39C148.39 196.31 144.78 191.67 139.63 191.67H139.62ZM92.6095 236.78H85.4295L86.6295 230.55C87.2695 227.2 90.2095 224.76 93.6295 224.76H93.6595L102.77 224.79L101.62 229.6C100.63 233.75 96.8295 236.78 92.6095 236.78Z" fill="#ECECEC"/>
<path d="M125.559 240.59H127.609L135.679 277.73H133.629L125.559 240.59Z" fill="#E1E1E1"/>
<path d="M117.867 240.59H119.917L127.987 277.73H125.937L117.867 240.59Z" fill="#E1E1E1"/>
<path d="M87.6786 240.59H85.6286L77.5586 277.73H79.6086L87.6786 240.59Z" fill="#E1E1E1"/>
<path d="M95.37 240.59H93.32L85.25 277.73H87.3L95.37 240.59Z" fill="#E1E1E1"/>
<path d="M224.5 199.878H257.93L260.65 170.068H227.21L224.5 199.878Z" fill="#ECECEC"/>
<path d="M223.359 199.878H256.799L259.509 170.068H226.069L223.359 199.878Z" fill="#F0F0F0"/>
<path d="M253.801 196.579L255.911 173.369H229.071L226.961 196.579H253.801Z" fill="#F5F5F5"/>
<path d="M216.746 178.107L214.766 199.877H230.796L232.776 178.107H216.746Z" fill="#ECECEC"/>
<path d="M215.917 178.107L213.938 199.877H229.967L231.947 178.107H215.917Z" fill="#F0F0F0"/>
<path d="M218.106 180.518L216.566 197.468H227.776L229.316 180.518H218.106Z" fill="#F5F5F5"/>
<path d="M148.219 309C222.363 309 282.469 305.49 282.469 301.16C282.469 296.83 222.363 293.32 148.219 293.32C74.0745 293.32 13.9688 296.83 13.9688 301.16C13.9688 305.49 74.0745 309 148.219 309Z" fill="#ECECEC"/>
<path d="M257.35 229.28H74.95C70.4 229.28 66.86 225.56 67.08 221L73.89 81.7995C74.11 77.2495 78.02 73.5195 82.57 73.5195H264.97C269.52 73.5195 273.06 77.2395 272.84 81.7995L266.03 221C265.81 225.55 261.9 229.28 257.35 229.28Z" fill="#007CFF"/>
<g opacity="0.8">
<path d="M257.35 229.28H74.95C70.4 229.28 66.86 225.56 67.08 221L73.89 81.7995C74.11 77.2495 78.02 73.5195 82.57 73.5195H264.97C269.52 73.5195 273.06 77.2395 272.84 81.7995L266.03 221C265.81 225.55 261.9 229.28 257.35 229.28Z" fill="#F5F5F5"/>
</g>
<path d="M272.04 74.9899C271.07 73.9199 269.85 73.0799 268.5 72.5699L268.75 71.9199C270.2 72.4799 271.51 73.3799 272.55 74.5199L272.04 74.9899Z" fill="#007CFF"/>
<path d="M265.07 71.25H250.48V71.94H265.07V71.25Z" fill="#007CFF"/>
<path d="M264.981 73.5293H82.5706C78.0206 73.5293 74.1106 77.2493 73.8906 81.8093H272.841C273.061 77.2593 269.521 73.5293 264.971 73.5293H264.981Z" fill="#007CFF"/>
<path d="M72.6488 219.9L78.9488 91.1903C79.0488 89.0603 80.8688 87.3203 82.9988 87.3203H263.189C265.319 87.3203 266.969 89.0503 266.869 91.1903L260.569 219.9C260.469 222.03 258.649 223.77 256.519 223.77H76.3288C74.1988 223.77 72.5488 222.04 72.6488 219.9Z" fill="#F5F5F5"/>
<g opacity="0.3">
<path d="M98.2095 131.45H89.9295C89.1595 131.45 88.5595 130.82 88.5995 130.05L89.3095 115.49C89.3495 114.72 90.0095 114.09 90.7795 114.09H99.0595C99.8295 114.09 100.43 114.72 100.39 115.49L99.6795 130.05C99.6395 130.82 98.9795 131.45 98.2095 131.45Z" fill="#007CFF"/>
</g>
<g opacity="0.3">
<path d="M114.85 131.45H106.57C105.8 131.45 105.2 130.82 105.24 130.05L106.08 112.88C106.12 112.11 106.78 111.48 107.55 111.48H115.83C116.6 111.48 117.2 112.11 117.16 112.88L116.32 130.05C116.28 130.82 115.62 131.45 114.85 131.45Z" fill="#007CFF"/>
</g>
<g opacity="0.3">
<path d="M131.479 131.452H123.199C122.429 131.452 121.829 130.822 121.869 130.052L122.799 111.082C122.839 110.312 123.499 109.682 124.269 109.682H132.549C133.319 109.682 133.919 110.312 133.879 111.082L132.949 130.052C132.909 130.822 132.249 131.452 131.479 131.452Z" fill="#007CFF"/>
</g>
<g opacity="0.3">
<path d="M148.12 131.451H139.84C139.07 131.451 138.47 130.821 138.51 130.051L139.52 109.451C139.56 108.681 140.22 108.051 140.99 108.051H149.27C150.04 108.051 150.64 108.681 150.6 109.451L149.59 130.051C149.55 130.821 148.89 131.451 148.12 131.451Z" fill="#007CFF"/>
</g>
<path d="M164.749 131.451H156.469C155.699 131.451 155.099 130.821 155.139 130.051L156.449 103.181C156.489 102.411 157.149 101.781 157.919 101.781H166.199C166.969 101.781 167.569 102.411 167.529 103.181L166.219 130.051C166.179 130.821 165.519 131.451 164.749 131.451Z" fill="#007CFF"/>
<path d="M162.758 98.6307L163.178 97.9607C163.448 97.5307 163.138 96.9707 162.628 96.9707H161.858C161.368 96.9707 161.058 97.4907 161.288 97.9207L161.638 98.5907C161.868 99.0307 162.498 99.0507 162.758 98.6307Z" fill="#1A2E35"/>
<g opacity="0.3">
<path d="M181.389 131.451H173.109C172.339 131.451 171.739 130.821 171.779 130.051L172.889 107.421C172.929 106.651 173.589 106.021 174.359 106.021H182.639C183.409 106.021 184.009 106.651 183.969 107.421L182.859 130.051C182.819 130.821 182.159 131.451 181.389 131.451Z" fill="#007CFF"/>
</g>
<g opacity="0.1">
<path d="M182.108 135.971H88.7685C88.5185 135.971 88.3185 135.761 88.3285 135.511C88.3385 135.261 88.5585 135.051 88.8085 135.051H182.148C182.398 135.051 182.598 135.261 182.588 135.511C182.578 135.761 182.358 135.971 182.108 135.971Z" fill="#1A2E35"/>
</g>
<g opacity="0.1">
<path d="M188.758 216.921L194.768 94.1509C194.778 93.9109 194.988 93.7109 195.228 93.7109H195.268C195.508 93.7109 195.698 93.9109 195.688 94.1509L189.678 216.921C189.668 217.161 189.458 217.361 189.218 217.361H189.178C188.938 217.361 188.748 217.161 188.758 216.921Z" fill="#1A2E35"/>
</g>
<path d="M219.569 117.021C218.929 120.551 219.589 123.961 221.229 126.741L217.119 129.271C214.879 125.451 214.099 120.891 214.909 116.401C216.589 107.171 224.689 100.091 234.009 99.6914L233.979 104.411C227.039 104.691 220.859 109.911 219.559 117.021H219.569Z" fill="#007CFF"/>
<g opacity="0.3">
<path d="M252.058 111.591L247.598 113.391C245.908 108.751 241.808 105.241 236.508 104.531C235.658 104.421 234.818 104.381 233.988 104.411L234.018 99.6906C235.148 99.6406 236.258 99.6906 237.368 99.8406C244.138 100.751 249.758 105.241 252.058 111.591Z" fill="#007CFF"/>
</g>
<path d="M252.871 121.48C250.961 131.96 240.821 139.44 230.411 138.04C224.811 137.29 219.941 134.08 217.121 129.27L221.231 126.74C223.281 130.24 226.861 132.77 231.261 133.36C239.171 134.42 246.761 128.82 248.211 120.86C248.691 118.23 248.441 115.67 247.601 113.39L252.061 111.59C253.201 114.72 253.481 118.13 252.871 121.48Z" fill="#1A2E35"/>
<path d="M219.46 102.77C219.37 102.77 219.28 102.73 219.21 102.66L216.14 99.4305H205.6C205.41 99.4305 205.25 99.2805 205.25 99.0805C205.25 98.8805 205.4 98.7305 205.6 98.7305H216.29C216.38 98.7305 216.48 98.7705 216.54 98.8405L219.71 102.18C219.84 102.32 219.84 102.54 219.7 102.67C219.63 102.73 219.55 102.77 219.46 102.77Z" fill="#1A2E35"/>
<path d="M239.508 157.499C236.548 155.659 233.118 155.069 229.838 155.599L229.328 150.929C233.838 150.219 238.378 151.109 242.148 153.449C249.888 158.249 252.818 168.179 249.058 176.869L244.728 175.179C247.538 168.709 245.478 161.199 239.518 157.499H239.508Z" fill="#007CFF"/>
<path d="M230.109 189.22L230.429 184.49C235.439 184.57 240.489 182.05 243.489 177.45C243.969 176.71 244.379 175.95 244.709 175.18L249.039 176.87C248.589 177.92 248.039 178.92 247.419 179.89C243.589 185.78 236.969 189.35 230.109 189.22Z" fill="#1A2E35"/>
<g opacity="0.3">
<path d="M220.659 186.47C211.869 181.02 209.479 169.08 215.369 160.02C218.539 155.14 223.649 151.81 229.319 150.93L229.829 155.6C225.699 156.25 221.789 158.63 219.299 162.46C214.819 169.34 216.609 178.28 223.289 182.42C225.499 183.79 227.959 184.46 230.429 184.5L230.109 189.23C226.729 189.17 223.469 188.22 220.659 186.48V186.47Z" fill="#007CFF"/>
</g>
<path d="M216.96 153.79C216.87 153.79 216.78 153.75 216.71 153.68L213.64 150.45H203.1C202.91 150.45 202.75 150.3 202.75 150.1C202.75 149.9 202.9 149.75 203.1 149.75H213.79C213.88 149.75 213.98 149.79 214.04 149.86L217.21 153.2C217.34 153.34 217.34 153.56 217.2 153.69C217.13 153.75 217.05 153.79 216.96 153.79Z" fill="#1A2E35"/>
<path d="M207.81 206.42H204.3C203.33 206.42 202.5 207.21 202.45 208.18L202.28 211.69C202.23 212.66 202.99 213.45 203.96 213.45H207.47C208.44 213.45 209.27 212.66 209.32 211.69L209.49 208.18C209.54 207.21 208.78 206.42 207.81 206.42Z" fill="#007CFF"/>
<path d="M227.47 206.42H223.96C222.99 206.42 222.16 207.21 222.11 208.18L221.94 211.69C221.89 212.66 222.65 213.45 223.62 213.45H227.13C228.1 213.45 228.93 212.66 228.98 211.69L229.15 208.18C229.2 207.21 228.44 206.42 227.47 206.42Z" fill="#1A2E35"/>
<g opacity="0.3">
<path d="M247.118 206.42H243.608C242.638 206.42 241.808 207.21 241.758 208.18L241.588 211.69C241.538 212.66 242.298 213.45 243.268 213.45H246.778C247.748 213.45 248.578 212.66 248.628 211.69L248.798 208.18C248.848 207.21 248.088 206.42 247.118 206.42Z" fill="#007CFF"/>
</g>
<path d="M97.8292 163.941L97.7792 164.891H94.1992C94.2592 164.531 94.3892 164.191 94.5992 163.871C94.8092 163.551 95.2092 163.121 95.8092 162.591C96.2892 162.161 96.5892 161.871 96.6992 161.721C96.8492 161.511 96.9292 161.301 96.9392 161.101C96.9492 160.871 96.8992 160.701 96.7792 160.571C96.6592 160.451 96.4992 160.391 96.2792 160.391C96.0592 160.391 95.8892 160.451 95.7592 160.581C95.6292 160.711 95.5392 160.921 95.5092 161.221L94.4992 161.121C94.5892 160.561 94.7992 160.151 95.1292 159.911C95.4592 159.671 95.8692 159.541 96.3492 159.541C96.8792 159.541 97.2792 159.681 97.5692 159.961C97.8592 160.241 97.9892 160.601 97.9692 161.021C97.9592 161.261 97.8992 161.491 97.8092 161.711C97.7092 161.931 97.5692 162.151 97.3692 162.391C97.2392 162.551 96.9992 162.771 96.6692 163.071C96.3392 163.371 96.1192 163.561 96.0292 163.661C95.9392 163.761 95.8592 163.851 95.8092 163.941H97.8392H97.8292Z" fill="#1A2E35"/>
<path d="M98.5586 163.521L99.5786 163.411C99.5986 163.641 99.6686 163.821 99.8086 163.961C99.9486 164.091 100.109 164.161 100.289 164.161C100.499 164.161 100.689 164.071 100.839 163.901C100.999 163.731 101.079 163.471 101.099 163.121C101.119 162.791 101.049 162.551 100.919 162.381C100.779 162.221 100.589 162.131 100.359 162.131C100.069 162.131 99.7986 162.261 99.5486 162.521L98.7286 162.401L99.3886 159.631H102.089L102.039 160.591H100.109L99.9086 161.501C100.139 161.391 100.379 161.331 100.619 161.331C101.069 161.331 101.449 161.491 101.749 161.821C102.049 162.151 102.189 162.581 102.159 163.101C102.139 163.541 101.989 163.931 101.719 164.271C101.349 164.741 100.859 164.981 100.239 164.981C99.7486 164.981 99.3486 164.851 99.0586 164.581C98.7586 164.321 98.5986 163.961 98.5586 163.511V163.521Z" fill="#1A2E35"/>
<path d="M102.84 164.891L102.89 163.871H103.91L103.86 164.891H102.84Z" fill="#1A2E35"/>
<path d="M104.77 163.521L105.79 163.411C105.81 163.641 105.88 163.821 106.02 163.961C106.16 164.091 106.32 164.161 106.5 164.161C106.71 164.161 106.9 164.071 107.05 163.901C107.21 163.731 107.29 163.471 107.31 163.121C107.33 162.791 107.26 162.551 107.13 162.381C106.99 162.221 106.8 162.131 106.57 162.131C106.28 162.131 106.01 162.261 105.76 162.521L104.94 162.401L105.6 159.631H108.3L108.25 160.591H106.32L106.12 161.501C106.35 161.391 106.59 161.331 106.83 161.331C107.28 161.331 107.66 161.491 107.96 161.821C108.26 162.151 108.4 162.581 108.37 163.101C108.35 163.541 108.2 163.931 107.93 164.271C107.56 164.741 107.07 164.981 106.45 164.981C105.96 164.981 105.56 164.851 105.27 164.581C104.97 164.321 104.81 163.961 104.77 163.511V163.521Z" fill="#1A2E35"/>
<path d="M110.829 164.891L110.879 163.821H108.699L108.739 162.931L111.219 159.551H112.079L111.909 162.931H112.569L112.529 163.831H111.869L111.819 164.901H110.829V164.891ZM110.929 162.921L111.019 161.101L109.709 162.921H110.929Z" fill="#1A2E35"/>
<path d="M112.999 162.211C113.019 161.891 113.099 161.651 113.239 161.501C113.389 161.351 113.579 161.271 113.819 161.271C114.059 161.271 114.259 161.351 114.389 161.501C114.519 161.651 114.579 161.891 114.559 162.211C114.539 162.531 114.459 162.761 114.319 162.921C114.169 163.071 113.979 163.151 113.739 163.151C113.499 163.151 113.299 163.071 113.169 162.921C113.039 162.771 112.979 162.531 112.989 162.211H112.999ZM113.529 162.211C113.519 162.441 113.529 162.601 113.589 162.671C113.629 162.731 113.679 162.761 113.749 162.761C113.819 162.761 113.879 162.731 113.919 162.671C113.979 162.591 114.009 162.441 114.019 162.211C114.029 161.981 114.019 161.821 113.969 161.751C113.929 161.691 113.879 161.661 113.799 161.661C113.719 161.661 113.669 161.691 113.629 161.751C113.569 161.831 113.539 161.981 113.529 162.221V162.211ZM114.159 165.031H113.659L115.739 161.281H116.229L114.169 165.031H114.159ZM115.309 164.101C115.329 163.781 115.409 163.551 115.549 163.391C115.699 163.241 115.889 163.161 116.129 163.161C116.369 163.161 116.559 163.241 116.689 163.391C116.819 163.541 116.879 163.781 116.859 164.101C116.839 164.421 116.759 164.661 116.619 164.811C116.469 164.961 116.279 165.041 116.039 165.041C115.799 165.041 115.599 164.961 115.469 164.811C115.339 164.661 115.279 164.421 115.299 164.101H115.309ZM115.839 164.101C115.829 164.331 115.839 164.491 115.899 164.561C115.939 164.621 115.989 164.651 116.059 164.651C116.129 164.651 116.189 164.621 116.229 164.561C116.289 164.481 116.319 164.331 116.329 164.091C116.339 163.861 116.329 163.701 116.279 163.631C116.239 163.571 116.189 163.541 116.109 163.541C116.029 163.541 115.979 163.571 115.939 163.631C115.879 163.711 115.849 163.861 115.839 164.091V164.101Z" fill="#1A2E35"/>
<path d="M124.501 175.52C124.501 175.52 124.451 175.52 124.421 175.52C124.231 175.48 124.121 175.29 124.161 175.1C126.501 165.26 131.471 155.18 137.281 154.85C141.191 154.63 143.421 157.89 146.011 161.67C147.871 164.39 149.991 167.47 153.081 169.79C155.211 171.39 157.391 171.81 159.551 171.03C164.361 169.29 168.971 161.47 171.571 150.6C171.611 150.41 171.801 150.3 171.991 150.34C172.181 150.38 172.291 150.57 172.251 150.76C169.551 162.02 164.901 169.84 159.791 171.68C157.401 172.54 155.001 172.09 152.671 170.34C149.481 167.95 147.341 164.82 145.441 162.05C142.871 158.3 140.841 155.34 137.321 155.53C131.861 155.84 127.111 165.65 124.831 175.25C124.791 175.41 124.651 175.52 124.491 175.52H124.501Z" fill="#007CFF"/>
<g opacity="0.1">
<path d="M175.231 180.31H91.341C89.871 180.31 88.501 179.73 87.501 178.68C86.501 177.63 85.991 176.24 86.061 174.76L87.251 150.34C87.401 147.3 89.991 144.82 93.041 144.82H176.931C178.401 144.82 179.771 145.4 180.771 146.45C181.771 147.5 182.281 148.89 182.211 150.37L181.021 174.79C180.871 177.83 178.281 180.31 175.231 180.31ZM93.041 145.52C90.361 145.52 88.081 147.7 87.951 150.38L86.761 174.8C86.701 176.09 87.141 177.3 88.011 178.21C88.881 179.12 90.061 179.62 91.351 179.62H175.241C177.921 179.62 180.201 177.44 180.331 174.76L181.521 150.34C181.581 149.05 181.141 147.84 180.271 146.93C179.401 146.02 178.221 145.52 176.931 145.52H93.041Z" fill="#1A2E35"/>
</g>
<g opacity="0.1">
<path d="M109.492 151.75H95.9419C95.5219 151.75 95.1219 151.58 94.8319 151.28C94.5419 150.98 94.3919 150.58 94.4119 150.15C94.4519 149.29 95.1919 148.58 96.0519 148.58H109.602C110.022 148.58 110.422 148.75 110.712 149.05C111.002 149.35 111.152 149.75 111.132 150.18C111.092 151.04 110.352 151.75 109.492 151.75ZM96.0619 149.28C95.5719 149.28 95.1319 149.7 95.1119 150.19C95.1019 150.42 95.1819 150.64 95.3419 150.81C95.5019 150.97 95.7119 151.07 95.9419 151.07H109.492C109.982 151.07 110.422 150.65 110.442 150.16C110.452 149.93 110.372 149.71 110.212 149.54C110.052 149.38 109.842 149.28 109.612 149.28H96.0619Z" fill="#1A2E35"/>
</g>
<path d="M97.19 172.34H93.67L93.5 175.86H97.02L97.19 172.34Z" fill="#007CFF"/>
<g opacity="0.3">
<path d="M101.049 217.33H93.8693C92.5493 217.33 91.5193 216.25 91.5893 214.93L91.9393 207.75C91.9993 206.43 93.1393 205.35 94.4593 205.35H101.639C102.959 205.35 103.989 206.43 103.919 207.75L103.569 214.93C103.509 216.25 102.369 217.33 101.049 217.33Z" fill="#007CFF"/>
</g>
<g opacity="0.1">
<path d="M128.569 213.409H110.069C109.519 213.409 108.999 213.189 108.629 212.799C108.249 212.399 108.059 211.879 108.089 211.329C108.149 210.199 109.109 209.279 110.239 209.279H128.739C129.289 209.279 129.809 209.499 130.179 209.889C130.559 210.289 130.749 210.809 130.719 211.359C130.659 212.489 129.699 213.409 128.569 213.409ZM110.229 209.959C109.459 209.959 108.799 210.589 108.769 211.359C108.749 211.719 108.879 212.069 109.119 212.319C109.359 212.579 109.699 212.719 110.059 212.719H128.559C129.329 212.719 129.989 212.089 130.019 211.319C130.039 210.959 129.909 210.609 129.669 210.359C129.429 210.099 129.089 209.959 128.729 209.959H110.229Z" fill="#1A2E35"/>
</g>
<path d="M97.6708 213.41C97.6708 213.41 97.6608 213.41 97.6508 213.41C97.4608 213.41 97.3108 213.24 97.3208 213.05L97.4708 209.98C97.4708 209.79 97.6408 209.62 97.8308 209.65C98.0208 209.65 98.1708 209.82 98.1608 210.01L98.0108 213.08C98.0108 213.27 97.8508 213.41 97.6608 213.41H97.6708Z" fill="#007CFF"/>
<path d="M96.3502 211.38C96.2602 211.38 96.1702 211.34 96.1002 211.27C95.9702 211.13 95.9702 210.91 96.1102 210.78L97.5902 209.37C97.6602 209.31 97.7402 209.27 97.8402 209.27C97.9302 209.27 98.0202 209.31 98.0802 209.38L99.4302 210.79C99.5602 210.93 99.5602 211.15 99.4202 211.28C99.2802 211.41 99.0602 211.41 98.9302 211.27L97.8202 210.11L96.5902 211.29C96.5202 211.35 96.4402 211.39 96.3502 211.39V211.38Z" fill="#007CFF"/>
<path d="M94.2617 196.29L94.3317 194.77C93.8617 194.63 93.5217 194.43 93.3117 194.15C93.1017 193.88 93.0117 193.54 93.0317 193.15C93.0517 192.75 93.1917 192.42 93.4517 192.15C93.7117 191.88 94.0617 191.72 94.4817 191.68L94.5017 191.32H95.0317L95.0117 191.68C95.3917 191.73 95.6917 191.86 95.9117 192.07C96.1317 192.28 96.2617 192.58 96.3017 192.94L95.3717 193.06C95.3317 192.77 95.1917 192.58 94.9617 192.48L94.8917 193.9C95.4617 194.06 95.8517 194.26 96.0517 194.51C96.2517 194.76 96.3417 195.08 96.3217 195.48C96.3017 195.92 96.1517 196.29 95.8717 196.59C95.5917 196.89 95.2117 197.08 94.7417 197.14L94.7117 197.82H94.1817L94.2117 197.16C93.7917 197.11 93.4617 196.95 93.2117 196.69C92.9617 196.43 92.8117 196.06 92.7617 195.58L93.7117 195.48C93.7417 195.67 93.8017 195.84 93.9017 195.98C94.0017 196.12 94.1117 196.22 94.2417 196.29H94.2617ZM94.4517 192.47C94.3017 192.52 94.1917 192.6 94.1017 192.72C94.0117 192.84 93.9617 192.97 93.9517 193.11C93.9517 193.24 93.9817 193.36 94.0517 193.47C94.1217 193.58 94.2417 193.67 94.3917 193.74L94.4517 192.48V192.47ZM94.7917 196.34C94.9717 196.31 95.1317 196.22 95.2517 196.09C95.3717 195.96 95.4317 195.8 95.4417 195.62C95.4417 195.46 95.4117 195.32 95.3217 195.2C95.2317 195.08 95.0817 194.99 94.8617 194.93L94.7917 196.35V196.34Z" fill="#1A2E35"/>
<path d="M96.9302 195.671L97.9202 195.551C97.9402 195.801 98.0102 195.991 98.1502 196.131C98.2802 196.261 98.4502 196.331 98.6402 196.331C98.8502 196.331 99.0302 196.251 99.1802 196.091C99.3302 195.931 99.4202 195.711 99.4302 195.441C99.4402 195.181 99.3802 194.981 99.2502 194.831C99.1202 194.681 98.9502 194.601 98.7602 194.601C98.6302 194.601 98.4702 194.631 98.2902 194.681L98.4402 193.851C98.7202 193.851 98.9302 193.801 99.0802 193.671C99.2302 193.541 99.3102 193.371 99.3202 193.161C99.3202 192.981 99.2802 192.841 99.1802 192.731C99.0802 192.621 98.9402 192.571 98.7602 192.571C98.5802 192.571 98.4302 192.631 98.3002 192.751C98.1702 192.871 98.0902 193.051 98.0502 193.281L97.1202 193.121C97.2002 192.801 97.3101 192.541 97.4501 192.351C97.5901 192.161 97.7802 192.011 98.0302 191.891C98.2802 191.771 98.5402 191.721 98.8302 191.721C99.3302 191.721 99.7302 191.881 100.01 192.201C100.25 192.461 100.36 192.761 100.34 193.091C100.32 193.561 100.04 193.931 99.5201 194.211C99.8201 194.281 100.06 194.421 100.23 194.651C100.4 194.881 100.48 195.151 100.46 195.481C100.44 195.951 100.25 196.351 99.8902 196.681C99.5302 197.011 99.1001 197.181 98.5901 197.181C98.1101 197.181 97.7102 197.041 97.4102 196.761C97.1002 196.481 96.9402 196.121 96.9102 195.671H96.9302Z" fill="#1A2E35"/>
<path d="M104.54 196.131L104.49 197.081H100.91C100.97 196.721 101.1 196.381 101.31 196.061C101.52 195.741 101.92 195.311 102.52 194.781C103 194.351 103.3 194.061 103.41 193.911C103.56 193.701 103.64 193.491 103.65 193.281C103.66 193.051 103.61 192.881 103.49 192.751C103.37 192.631 103.21 192.571 102.99 192.571C102.77 192.571 102.6 192.631 102.47 192.761C102.34 192.891 102.25 193.101 102.22 193.401L101.21 193.301C101.3 192.741 101.51 192.341 101.84 192.091C102.17 191.841 102.58 191.721 103.06 191.721C103.59 191.721 103.99 191.861 104.28 192.151C104.57 192.431 104.7 192.791 104.68 193.211C104.67 193.451 104.61 193.681 104.52 193.901C104.42 194.121 104.27 194.341 104.08 194.581C103.95 194.741 103.71 194.961 103.38 195.261C103.04 195.561 102.83 195.751 102.74 195.851C102.65 195.951 102.57 196.041 102.52 196.131H104.55H104.54Z" fill="#1A2E35"/>
<path d="M105.223 195.671L106.213 195.551C106.233 195.801 106.303 195.991 106.443 196.131C106.573 196.261 106.743 196.331 106.933 196.331C107.143 196.331 107.323 196.251 107.473 196.091C107.623 195.931 107.713 195.711 107.723 195.441C107.733 195.181 107.673 194.981 107.543 194.831C107.413 194.681 107.243 194.601 107.053 194.601C106.923 194.601 106.763 194.631 106.583 194.681L106.733 193.851C107.013 193.851 107.223 193.801 107.373 193.671C107.523 193.541 107.603 193.371 107.613 193.161C107.613 192.981 107.573 192.841 107.473 192.731C107.373 192.621 107.233 192.571 107.053 192.571C106.873 192.571 106.723 192.631 106.593 192.751C106.463 192.871 106.383 193.051 106.343 193.281L105.413 193.121C105.493 192.801 105.603 192.541 105.743 192.351C105.883 192.161 106.073 192.011 106.323 191.891C106.573 191.771 106.833 191.721 107.123 191.721C107.623 191.721 108.023 191.881 108.303 192.201C108.543 192.461 108.653 192.761 108.633 193.091C108.613 193.561 108.333 193.931 107.813 194.211C108.113 194.281 108.353 194.421 108.523 194.651C108.693 194.881 108.773 195.151 108.753 195.481C108.733 195.951 108.543 196.351 108.183 196.681C107.823 197.011 107.393 197.181 106.883 197.181C106.403 197.181 106.003 197.041 105.703 196.761C105.393 196.481 105.233 196.121 105.203 195.671H105.223Z" fill="#1A2E35"/>
<path d="M109.571 196.061H110.591L110.551 196.791C110.541 197.091 110.501 197.321 110.441 197.491C110.381 197.661 110.281 197.821 110.131 197.951C109.981 198.091 109.801 198.191 109.571 198.271L109.391 197.851C109.601 197.781 109.751 197.691 109.841 197.571C109.931 197.451 109.991 197.291 110.001 197.081H109.501L109.551 196.061H109.571Z" fill="#1A2E35"/>
<path d="M113.383 191.731C113.903 191.731 114.293 191.911 114.563 192.281C114.893 192.721 115.023 193.441 114.973 194.451C114.923 195.461 114.713 196.181 114.343 196.621C114.033 196.981 113.623 197.171 113.113 197.171C112.603 197.171 112.183 196.971 111.893 196.571C111.593 196.171 111.473 195.461 111.523 194.441C111.573 193.441 111.783 192.711 112.153 192.271C112.463 191.911 112.873 191.721 113.383 191.721V191.731ZM113.343 192.581C113.223 192.581 113.103 192.621 113.003 192.701C112.903 192.781 112.823 192.921 112.753 193.121C112.673 193.381 112.613 193.831 112.583 194.451C112.553 195.071 112.563 195.511 112.613 195.741C112.663 195.971 112.733 196.131 112.823 196.211C112.913 196.291 113.023 196.331 113.143 196.331C113.263 196.331 113.383 196.291 113.483 196.211C113.583 196.131 113.663 195.991 113.733 195.791C113.813 195.531 113.873 195.081 113.903 194.461C113.933 193.841 113.923 193.401 113.873 193.171C113.823 192.941 113.753 192.781 113.663 192.701C113.573 192.621 113.463 192.581 113.343 192.581Z" fill="#1A2E35"/>
<path d="M115.75 192.77L115.8 191.82H119.29L119.25 192.56C118.95 192.84 118.63 193.25 118.31 193.78C117.99 194.31 117.73 194.88 117.55 195.47C117.36 196.07 117.26 196.6 117.24 197.07H116.25C116.3 196.33 116.49 195.58 116.82 194.82C117.14 194.05 117.56 193.37 118.07 192.77H115.75Z" fill="#1A2E35"/>
<path d="M120.69 194.201C120.43 194.091 120.25 193.941 120.14 193.741C120.03 193.541 119.98 193.331 119.99 193.101C120.01 192.701 120.16 192.371 120.45 192.111C120.74 191.851 121.14 191.721 121.65 191.721C122.16 191.721 122.54 191.851 122.81 192.111C123.08 192.371 123.2 192.701 123.18 193.101C123.17 193.351 123.09 193.571 122.96 193.761C122.82 193.951 122.63 194.101 122.4 194.201C122.69 194.321 122.91 194.491 123.05 194.721C123.19 194.951 123.26 195.211 123.24 195.511C123.22 196.001 123.04 196.401 122.71 196.711C122.38 197.021 121.96 197.171 121.43 197.171C120.95 197.171 120.55 197.041 120.24 196.791C119.87 196.491 119.7 196.081 119.73 195.551C119.74 195.261 119.83 195.001 119.98 194.761C120.13 194.521 120.37 194.331 120.68 194.201H120.69ZM120.74 195.451C120.73 195.731 120.79 195.951 120.92 196.111C121.06 196.271 121.23 196.351 121.45 196.351C121.67 196.351 121.84 196.271 121.98 196.121C122.13 195.971 122.21 195.751 122.22 195.461C122.23 195.211 122.17 195.011 122.04 194.861C121.91 194.711 121.73 194.631 121.52 194.631C121.27 194.631 121.08 194.721 120.95 194.891C120.82 195.061 120.75 195.251 120.74 195.451ZM120.95 193.171C120.95 193.371 120.99 193.531 121.1 193.651C121.21 193.771 121.36 193.821 121.55 193.821C121.74 193.821 121.9 193.761 122.02 193.651C122.14 193.531 122.21 193.381 122.22 193.171C122.22 192.981 122.18 192.831 122.07 192.711C121.96 192.591 121.81 192.541 121.62 192.541C121.43 192.541 121.26 192.601 121.14 192.711C121.02 192.831 120.95 192.981 120.94 193.171H120.95Z" fill="#1A2E35"/>
<path d="M124.043 197.081L124.093 196.061H125.113L125.063 197.081H124.043Z" fill="#1A2E35"/>
<path d="M127.871 191.731C128.391 191.731 128.781 191.911 129.051 192.281C129.381 192.721 129.511 193.441 129.461 194.451C129.411 195.461 129.201 196.181 128.831 196.621C128.521 196.981 128.111 197.171 127.601 197.171C127.091 197.171 126.671 196.971 126.381 196.571C126.081 196.171 125.961 195.461 126.011 194.441C126.061 193.441 126.271 192.711 126.641 192.271C126.951 191.911 127.361 191.721 127.871 191.721V191.731ZM127.831 192.581C127.711 192.581 127.591 192.621 127.491 192.701C127.391 192.781 127.311 192.921 127.241 193.121C127.161 193.381 127.101 193.831 127.071 194.451C127.041 195.071 127.051 195.511 127.101 195.741C127.151 195.971 127.221 196.131 127.311 196.211C127.401 196.291 127.511 196.331 127.631 196.331C127.751 196.331 127.871 196.291 127.971 196.211C128.071 196.131 128.151 195.991 128.221 195.791C128.301 195.531 128.361 195.081 128.391 194.461C128.421 193.841 128.411 193.401 128.361 193.171C128.311 192.941 128.241 192.781 128.151 192.701C128.061 192.621 127.951 192.581 127.831 192.581Z" fill="#1A2E35"/>
<path d="M132.023 191.731C132.543 191.731 132.933 191.911 133.203 192.281C133.533 192.721 133.663 193.441 133.613 194.451C133.563 195.461 133.353 196.181 132.983 196.621C132.673 196.981 132.263 197.171 131.753 197.171C131.243 197.171 130.823 196.971 130.533 196.571C130.233 196.171 130.113 195.461 130.163 194.441C130.213 193.441 130.423 192.711 130.793 192.271C131.103 191.911 131.513 191.721 132.023 191.721V191.731ZM131.983 192.581C131.863 192.581 131.743 192.621 131.643 192.701C131.543 192.781 131.463 192.921 131.393 193.121C131.313 193.381 131.253 193.831 131.223 194.451C131.193 195.071 131.203 195.511 131.253 195.741C131.303 195.971 131.373 196.131 131.463 196.211C131.553 196.291 131.663 196.331 131.783 196.331C131.903 196.331 132.023 196.291 132.123 196.211C132.223 196.131 132.303 195.991 132.373 195.791C132.453 195.531 132.513 195.081 132.543 194.461C132.573 193.841 132.563 193.401 132.513 193.171C132.463 192.941 132.393 192.781 132.303 192.701C132.213 192.621 132.103 192.581 131.983 192.581Z" fill="#1A2E35"/>
<g opacity="0.4">
<path d="M148.388 205.35H141.208C139.888 205.35 138.758 206.43 138.688 207.75L138.338 214.93C138.278 216.25 139.298 217.33 140.618 217.33H147.798C149.118 217.33 150.248 216.25 150.318 214.93L150.668 207.75C150.728 206.43 149.708 205.35 148.388 205.35Z" fill="#1A2E35"/>
</g>
<g opacity="0.1">
<path d="M175.319 213.409H156.819C156.269 213.409 155.749 213.189 155.379 212.799C154.999 212.399 154.809 211.879 154.839 211.329C154.899 210.199 155.859 209.279 156.989 209.279H175.489C176.039 209.279 176.559 209.499 176.929 209.889C177.309 210.289 177.499 210.809 177.469 211.359C177.409 212.489 176.449 213.409 175.319 213.409ZM156.979 209.959C156.209 209.959 155.549 210.589 155.519 211.359C155.499 211.719 155.629 212.069 155.869 212.319C156.109 212.579 156.449 212.719 156.809 212.719H175.309C176.079 212.719 176.739 212.089 176.769 211.319C176.789 210.959 176.659 210.609 176.419 210.359C176.179 210.099 175.839 209.959 175.479 209.959H156.979Z" fill="#1A2E35"/>
</g>
<path d="M144.436 213.029C144.436 213.029 144.426 213.029 144.416 213.029C144.226 213.029 144.076 212.859 144.086 212.669L144.236 209.599C144.236 209.409 144.406 209.249 144.596 209.269C144.786 209.269 144.936 209.439 144.926 209.629L144.776 212.699C144.776 212.889 144.616 213.029 144.426 213.029H144.436Z" fill="#F5F5F5"/>
<path d="M144.417 213.409C144.327 213.409 144.237 213.369 144.177 213.299L142.827 211.889C142.697 211.749 142.697 211.529 142.837 211.399C142.977 211.269 143.197 211.269 143.327 211.409L144.437 212.569L145.667 211.389C145.807 211.259 146.027 211.259 146.157 211.399C146.287 211.539 146.287 211.759 146.147 211.889L144.667 213.299C144.607 213.359 144.517 213.399 144.427 213.399L144.417 213.409Z" fill="#F5F5F5"/>
<path d="M52.7391 92.5793C49.9491 96.1893 49.4591 101.159 49.6191 103.699C49.8091 106.859 45.6991 106.999 46.8391 112.479C47.8291 117.229 44.9391 118.739 45.0091 122.429C45.1591 131.049 52.8891 133.599 67.3191 131.049C81.7491 128.499 73.0791 115.329 75.0091 110.149C76.9391 104.969 75.4091 92.7993 71.5491 93.3493C71.9791 84.1893 58.3091 85.3893 52.7491 92.5793H52.7391Z" fill="#1A2E35"/>
<path d="M57.6164 131.35C57.5164 133.1 57.3364 134.68 57.0964 136.33C56.8564 137.96 56.5664 139.59 56.2064 141.22C55.8464 142.85 55.4164 144.47 54.9064 146.1C54.3864 147.73 53.7764 149.35 53.0164 150.98L52.8564 151.33C52.0764 153 50.1364 153.76 48.4364 153.1C47.4164 152.7 46.5164 152.24 45.6364 151.77C44.7564 151.3 43.9464 150.78 43.1264 150.26C42.3264 149.73 41.5364 149.18 40.7764 148.59C40.0164 148 39.2764 147.41 38.5564 146.73C37.6964 145.93 37.6564 144.59 38.4564 143.73C38.9864 143.16 39.7664 142.95 40.4764 143.11L40.5464 143.13C41.4364 143.33 42.3264 143.59 43.1964 143.84L45.7964 144.6L48.3164 145.34C49.1364 145.57 49.9464 145.78 50.6764 145.94L46.0964 148.06C46.5464 146.77 46.9064 145.39 47.2564 143.98C47.5764 142.56 47.8564 141.11 48.1164 139.64C48.3564 138.17 48.5864 136.68 48.7764 135.19C48.9764 133.72 49.1564 132.16 49.3064 130.76V130.67C49.5664 128.39 51.6264 126.75 53.9064 127C56.1064 127.24 57.7164 129.18 57.5964 131.36L57.6164 131.35Z" fill="#CD5B51"/>
<path d="M38.0572 140.739L36.3572 140.129C35.4772 139.819 34.5072 140.289 34.2172 141.169L33.5672 143.119C33.3072 143.889 33.6472 144.739 34.3772 145.119L36.5072 146.239C36.5072 146.239 39.9972 148.899 41.7072 147.269L42.6572 144.499L40.0872 141.999C39.5072 141.439 38.8172 141.009 38.0572 140.739Z" fill="#CD5B51"/>
<path d="M56.7759 121.82C51.6759 122.78 50.5959 124.87 46.8359 132.62C47.9659 137.72 57.6559 142.2 57.6559 142.2C57.6559 142.2 65.1859 128.41 56.7759 121.82Z" fill="#1A2E35"/>
<path d="M65.5255 296.639C68.7255 292.369 68.9955 291.199 71.0055 288.949C72.7255 287.029 72.7155 287.169 74.7455 285.529C76.0855 284.439 75.2855 282.869 74.0455 282.209C73.0855 281.689 72.0155 281.239 70.8555 280.559L65.5755 284.869C66.0955 287.319 65.0155 292.419 62.7855 295.799C61.2055 298.229 64.2355 298.349 65.5155 296.649L65.5255 296.639Z" fill="#1A2E35"/>
<path d="M49.9457 160.619C49.9457 160.619 45.0257 195.109 41.3656 218.649C40.6356 223.369 41.0756 228.049 42.6656 232.269C48.9356 248.959 65.1757 285.259 65.1757 285.259C65.9157 285.989 70.4157 281.719 70.8557 280.539C70.8557 280.539 65.2356 234.669 56.5056 224.389C74.3157 187.629 74.0357 160.609 74.0357 160.609H49.9356L49.9457 160.619Z" fill="#007CFF"/>
<g opacity="0.2">
<path d="M74.0386 161.648L60.8986 162.568C60.8986 162.568 58.3486 200.458 57.8086 221.698C72.3986 190.448 73.8886 166.738 74.0386 161.648Z" fill="black"/>
<path d="M57.718 226.039C57.538 236.929 56.988 251.109 55.918 264.199C59.248 271.869 62.248 278.649 63.878 282.319C65.458 277.759 67.218 272.309 68.798 266.539C66.588 253.199 62.718 233.989 57.708 226.039H57.718Z" fill="black"/>
</g>
<path d="M62.8666 283.48C63.2666 284.07 63.9666 285.12 64.4466 285.92C64.6066 286.19 64.9666 286.24 65.2566 286.05C67.4466 284.64 70.4866 281.74 71.4766 280.78C71.6766 280.59 71.7366 280.31 71.6366 280.09L70.5766 277.68C70.4366 277.35 70.0066 277.27 69.6866 277.52L63.0466 282.65C62.7766 282.86 62.6966 283.22 62.8666 283.47V283.48Z" fill="#007CFF"/>
<path d="M62.8666 283.48C63.2666 284.07 63.9666 285.12 64.4466 285.92C64.6066 286.19 64.9666 286.24 65.2566 286.05C67.4466 284.64 70.4866 281.74 71.4766 280.78C71.6766 280.59 71.7366 280.31 71.6366 280.09L70.5766 277.68C70.4366 277.35 70.0066 277.27 69.6866 277.52L63.0466 282.65C62.7766 282.86 62.6966 283.22 62.8666 283.47V283.48Z" fill="#F5F5F5"/>
<path d="M47.178 298.34C52.198 299.34 54.148 299.65 57.008 300.12C59.458 300.52 59.918 300.92 61.878 301.27C63.518 301.56 64.098 300.06 64.338 298.25C64.458 297.34 64.678 295.11 64.938 293.65L57.148 293.24C55.298 294.93 50.348 295.48 47.358 295.28C44.508 295.09 45.188 297.94 47.188 298.34H47.178Z" fill="#1A2E35"/>
<path d="M57.1778 160.619C57.1778 160.619 59.7678 204.919 60.2378 224.999C60.7378 246.089 60.3278 279.029 56.5078 293.039C57.5578 293.739 62.4078 293.739 64.9278 292.999C64.9278 292.999 80.6678 248.339 74.7378 225.939C86.6678 176.599 79.5778 164.949 77.5978 160.629H57.1678L57.1778 160.619Z" fill="#007CFF"/>
<path d="M57.1778 290.169C56.9378 290.859 56.4978 292.049 56.0278 292.949C55.8578 293.269 55.9878 293.599 56.3178 293.689C59.0178 294.399 63.3178 294.129 64.6978 294.019C64.9578 293.999 65.2078 293.819 65.3278 293.579L66.5678 290.989C66.7378 290.639 66.5478 290.289 66.1778 290.259L57.9378 289.659C57.6178 289.639 57.2878 289.859 57.1778 290.169Z" fill="#007CFF"/>
<path d="M57.1778 290.169C56.9378 290.859 56.4978 292.049 56.0278 292.949C55.8578 293.269 55.9878 293.599 56.3178 293.689C59.0178 294.399 63.3178 294.129 64.6978 294.019C64.9578 293.999 65.2078 293.819 65.3278 293.579L66.5678 290.989C66.7378 290.639 66.5478 290.289 66.1778 290.259L57.9378 289.659C57.6178 289.639 57.2878 289.859 57.1778 290.169Z" fill="#F5F5F5"/>
<path d="M77.4062 121.459C76.3062 121.349 75.1462 121.259 73.9562 121.199C69.3162 120.979 65.5162 120.829 61.3962 121.199C60.0362 121.319 58.6162 121.499 57.2662 121.679C52.3862 122.359 48.5362 126.609 48.3862 131.479C48.3062 134.199 48.8962 138.299 49.4662 144.779C50.2162 153.219 48.1562 157.509 49.9562 160.619C53.4862 163.969 69.6662 162.289 77.6062 160.619C79.9862 157.549 75.3162 149.529 82.9262 129.839C84.4462 125.899 81.5062 121.869 77.4062 121.459Z" fill="#1A2E35"/>
<path d="M60.9886 127.93C60.8386 128.44 60.5386 128.81 60.3186 128.75C60.0886 128.69 60.0286 128.22 60.1686 127.7C60.3086 127.18 60.6186 126.82 60.8386 126.88C61.0686 126.94 61.1286 127.41 60.9886 127.93Z" fill="#F5F5F5"/>
<path d="M59.9576 132.209C59.8876 132.739 59.6476 133.149 59.4176 133.119C59.1876 133.089 59.0476 132.639 59.1076 132.109C59.1776 131.579 59.4176 131.169 59.6476 131.199C59.8776 131.229 60.0176 131.679 59.9576 132.209Z" fill="#F5F5F5"/>
<path d="M71.2963 107.489C71.1763 111.669 70.6363 118.499 73.2663 121.189C73.2663 121.189 69.4363 120.619 61.3163 125.639C58.9663 122.269 60.7163 121.189 60.7163 121.189C63.0263 120.769 65.0563 118.409 63.7863 115.479L71.3063 107.479L71.2963 107.489Z" fill="#CD5B51"/>
<path d="M63.0178 124.629C65.6978 125.009 66.5278 129.049 66.5278 129.049C66.5278 129.049 72.9578 124.499 74.9878 121.299C74.0378 120.799 72.6378 119.809 72.6378 119.809C72.6378 119.809 64.5678 123.089 63.0078 124.629H63.0178Z" fill="#F5F5F5"/>
<path d="M60.4764 124.199C60.4764 124.199 58.3564 124.659 57.2864 127.609C56.6764 121.719 59.4664 121.179 59.4664 121.179C59.4664 121.179 60.3064 120.579 61.8864 120.829C59.7664 121.949 60.4764 124.199 60.4764 124.199Z" fill="#F5F5F5"/>
<g opacity="0.2">
<path d="M66.5973 112.97L65.5373 113.61L63.7773 115.48C64.2673 116.6 64.2673 117.65 63.9473 118.52C65.9473 117.74 67.9773 116.17 68.5073 114.48C68.5073 114.47 68.5073 114.46 68.5173 114.44C68.8673 113.3 67.6073 112.35 66.5873 112.96L66.5973 112.97Z" fill="black"/>
</g>
<path d="M69.9463 97.6995C71.8763 104.049 72.8263 106.689 70.9763 111.189C68.1863 117.949 60.2163 119.309 56.4863 113.749C53.1263 108.749 50.5363 99.1995 55.4963 94.1795C60.3863 89.2295 68.0163 91.3495 69.9463 97.6995Z" fill="#CD5B51"/>
<g opacity="0.4">
<path d="M63.2287 93.9888C61.6087 98.3188 65.4587 103.719 70.9787 103.299C73.5387 98.3888 71.9887 94.6388 70.6187 93.0988C69.2487 91.5688 65.0987 91.2888 63.2287 93.9888Z" fill="#1A2E35"/>
</g>
<path d="M70.5856 93.9195C69.8456 99.1795 52.7856 95.9195 51.8556 101.19C51.8156 94.2995 59.5056 85.1095 70.5856 93.9195Z" fill="#1A2E35"/>
<path d="M61.5967 104.179C61.7867 104.709 61.6667 105.249 61.3467 105.389C61.0267 105.529 60.6067 105.219 60.4267 104.689C60.2367 104.159 60.3567 103.619 60.6767 103.479C61.0067 103.339 61.4167 103.649 61.5967 104.179Z" fill="#1A2E35"/>
<path d="M55.2061 106.179C55.3961 106.709 55.2761 107.249 54.9561 107.389C54.6361 107.529 54.2161 107.219 54.0361 106.689C53.8461 106.159 53.9661 105.619 54.2861 105.479C54.6161 105.339 55.0261 105.649 55.2061 106.179Z" fill="#1A2E35"/>
<path d="M54.4372 105.439L53.1172 105.589C53.1172 105.589 54.0772 106.309 54.4372 105.439Z" fill="#1A2E35"/>
<path d="M56.9963 105.879C56.9963 105.879 56.9463 108.509 56.4062 109.999C57.2962 110.359 58.3063 109.589 58.3063 109.589L56.9963 105.879Z" fill="#BA221F"/>
<path d="M59.9675 111.319C59.6975 111.429 59.4075 111.529 59.0875 111.599C58.9975 111.619 58.9175 111.559 58.9075 111.469C58.8975 111.379 58.9475 111.289 59.0375 111.269C61.3575 110.749 62.1875 108.819 62.1975 108.799C62.2375 108.709 62.3275 108.669 62.4075 108.699C62.4875 108.729 62.5275 108.829 62.4875 108.909C62.4575 108.989 61.7875 110.539 59.9675 111.309V111.319Z" fill="#1A2E35"/>
<path d="M74.0184 103.15C74.0584 104.64 73.4784 105.89 72.7184 106.6C71.5684 107.67 70.1684 106.44 69.7984 104.67C69.4684 103.08 69.6584 100.6 71.1484 100.23C72.6084 99.8697 73.9784 101.44 74.0284 103.15H74.0184Z" fill="#CD5B51"/>
<path d="M61.4659 101.149C61.3859 101.169 61.2959 101.149 61.2259 101.099C60.1259 100.259 59.0159 100.689 58.9959 100.699C58.8359 100.769 58.6559 100.689 58.5959 100.519C58.5459 100.349 58.6359 100.159 58.7959 100.089C58.8559 100.069 60.2459 99.5194 61.6159 100.569C61.7559 100.669 61.7759 100.879 61.6659 101.029C61.6159 101.099 61.5359 101.149 61.4659 101.159V101.149Z" fill="#1A2E35"/>
<path d="M52.2854 104.41C52.2154 104.45 52.1254 104.45 52.0554 104.42C51.8954 104.36 51.8154 104.17 51.8754 104C52.5154 102.26 53.9354 101.86 53.9954 101.84C54.1654 101.79 54.3354 101.9 54.3654 102.08C54.3954 102.26 54.2954 102.44 54.1254 102.48C54.0654 102.5 52.9754 102.82 52.4654 104.21C52.4354 104.3 52.3654 104.37 52.2954 104.4L52.2854 104.41Z" fill="#1A2E35"/>
<path d="M60.8278 103.449L59.5078 103.599C59.5078 103.599 60.4678 104.319 60.8278 103.449Z" fill="#1A2E35"/>
<path d="M81.6072 136.079C81.6072 136.449 81.6072 136.619 81.6072 136.869L81.5872 137.549C81.5672 137.999 81.5272 138.429 81.4772 138.859C81.3872 139.729 81.2372 140.579 81.0572 141.439C80.6872 143.139 80.1672 144.839 79.4172 146.479C78.6772 148.119 77.7172 149.719 76.4972 151.159C75.3072 152.619 73.8172 153.879 72.1972 154.879L71.9472 155.029C71.7372 155.159 71.5072 155.259 71.2872 155.319C69.7372 155.759 68.5672 155.549 67.6872 155.319C66.7872 155.069 66.0872 154.739 65.4472 154.399C64.1772 153.719 63.1772 152.929 62.2172 152.139C61.2772 151.329 60.4172 150.489 59.6172 149.609C58.8072 148.719 58.0672 147.839 57.3572 146.829C56.6872 145.889 56.9172 144.579 57.8572 143.909C58.5472 143.419 59.4372 143.409 60.1172 143.809L60.1972 143.859L62.9872 145.479C63.9172 146.009 64.8372 146.529 65.7372 146.969C66.6272 147.429 67.5372 147.809 68.3072 148.059C68.6872 148.179 69.0372 148.239 69.2272 148.229C69.4272 148.229 69.4172 148.109 68.9372 148.199L68.0272 148.639C68.8772 147.959 69.6172 147.169 70.2472 146.269C70.5672 145.819 70.8572 145.339 71.1172 144.829C71.3872 144.329 71.6272 143.799 71.8372 143.239C72.2572 142.139 72.6072 140.959 72.8372 139.739C72.9672 139.129 73.0472 138.509 73.1372 137.899C73.1772 137.589 73.2072 137.279 73.2372 136.979L73.2972 136.209L73.3272 135.849C73.4972 133.569 75.4872 131.849 77.7672 132.019C79.9172 132.179 81.5572 133.969 81.6072 136.079Z" fill="#CD5B51"/>
<path d="M55.6681 150.179H40.6781C39.2781 150.179 37.9481 149.199 37.7181 147.999L35.8781 138.479C35.6481 137.279 36.5981 136.299 37.9981 136.299H52.9881C54.3881 136.299 55.7181 137.279 55.9481 138.479L57.7881 147.999C58.0181 149.199 57.0681 150.179 55.6681 150.179Z" fill="#007CFF"/>
<path d="M55.1983 149.549H40.6183C39.5383 149.549 38.4883 148.799 38.3083 147.899L36.5183 138.649C36.4483 138.309 36.5183 137.989 36.7383 137.739C37.0083 137.409 37.4683 137.219 38.0083 137.219H52.5883C53.6683 137.219 54.7183 137.969 54.8983 138.869L56.6883 148.119C56.7583 148.459 56.6883 148.779 56.4683 149.029C56.1983 149.359 55.7383 149.539 55.1983 149.539V149.549ZM38.0083 137.399C37.5283 137.399 37.1083 137.569 36.8783 137.849C36.6983 138.059 36.6383 138.329 36.6983 138.619L38.4883 147.869C38.6483 148.689 39.6283 149.379 40.6283 149.379H55.2083C55.6883 149.379 56.1083 149.219 56.3383 148.929C56.5183 148.719 56.5783 148.449 56.5183 148.159L54.7283 138.909C54.5683 138.089 53.5883 137.399 52.5883 137.399H38.0083Z" fill="#F5F5F5"/>
<path d="M55.9767 141.098L54.2267 140.658C53.3167 140.428 52.4067 140.998 52.1967 141.908L51.7367 143.908C51.5567 144.708 51.9767 145.518 52.7367 145.818L54.9667 146.728C54.9667 146.728 58.6967 149.038 60.2467 147.258L60.9267 144.408L58.1267 142.168C57.4967 141.668 56.7667 141.298 55.9867 141.108L55.9767 141.098Z" fill="#CD5B51"/>
<path d="M77.6573 121.49C83.7373 121.85 85.5973 128.19 83.5773 139.71C82.5973 144.04 70.4573 138.12 70.4573 138.12C70.4573 138.12 70.0373 125.81 77.6573 121.49Z" fill="#1A2E35"/>
<path d="M270.457 235.978C267.937 234.778 265.357 234.889 262.857 235.959C266.427 231.489 268.457 228.088 265.877 226.948C263.587 225.948 260.237 226.929 256.997 229.739C260.927 222.139 264.187 214.468 260.747 213.868C255.637 212.978 251.257 220.739 249.547 230.109C248.177 224.409 245.387 220.009 241.957 219.799C237.707 219.529 239.567 227.969 242.127 236.329C240.097 234.359 237.667 233.439 234.917 234.069C231.647 234.819 231.657 238.699 233.157 243.739C232.537 243.659 231.887 243.668 231.207 243.788C225.227 244.918 232.587 253.169 238.937 262.409C237.767 262.009 236.527 261.969 235.277 262.409C230.987 263.909 238.767 271.459 243.037 275.969H234.427C233.737 275.969 233.157 276.448 233.007 277.118C232.637 278.748 232.417 280.409 232.337 282.079C232.057 287.259 232.997 292.569 234.567 297.689C235.227 299.849 237.227 301.319 239.487 301.319H252.077C254.337 301.319 256.337 299.849 256.997 297.689C258.557 292.569 259.507 287.259 259.227 282.079C259.187 281.239 259.107 280.409 258.997 279.589C258.887 278.758 258.737 277.938 258.557 277.118C258.477 276.778 258.297 276.498 258.047 276.288C257.797 276.088 257.477 275.959 257.137 275.959H249.397C256.167 269.089 264.407 264.118 264.567 257.368C264.627 254.948 263.077 254.279 260.807 255.049C269.957 246.199 278.137 239.629 270.487 235.989L270.457 235.978Z" fill="#F5F5F5"/>
<g opacity="0.5">
<path d="M249.226 244.529C247.016 230.679 253.066 212.519 260.736 213.859C267.096 214.969 250.536 240.299 249.226 244.529Z" fill="#F5F5F5"/>
<g opacity="0.4">
<path d="M249.226 244.529C247.016 230.679 253.066 212.519 260.736 213.859C267.096 214.969 250.536 240.299 249.226 244.529Z" fill="black"/>
</g>
<path d="M247.165 257.598C246.345 235.458 259.835 224.298 265.875 226.948C272.065 229.658 251.885 245.338 247.165 257.598Z" fill="#F5F5F5"/>
<g opacity="0.3">
<path d="M247.165 257.598C246.345 235.458 259.835 224.298 265.875 226.948C272.065 229.658 251.885 245.338 247.165 257.598Z" fill="black"/>
</g>
<path d="M246.806 251.6C254.026 241.34 249.566 220.269 241.946 219.789C234.386 219.309 246.186 246.44 246.806 251.6Z" fill="#F5F5F5"/>
<path d="M245.568 275.768C242.718 258.838 257.298 229.718 270.458 235.978C283.248 242.068 251.798 256.328 245.568 275.768Z" fill="#F5F5F5"/>
<g opacity="0.4">
<path d="M245.568 275.768C242.718 258.838 257.298 229.718 270.458 235.978C283.248 242.068 251.798 256.328 245.568 275.768Z" fill="black"/>
</g>
<g opacity="0.3">
<path d="M246.806 251.6C254.026 241.34 249.566 220.269 241.946 219.789C234.386 219.309 246.186 246.44 246.806 251.6Z" fill="black"/>
</g>
<path d="M245.354 271.4C252.564 255.8 246.384 231.42 234.914 234.05C225.394 236.24 243.654 264.83 245.354 271.4Z" fill="#F5F5F5"/>
<g opacity="0.4">
<path d="M245.354 271.4C252.564 255.8 246.384 231.42 234.914 234.05C225.394 236.24 243.654 264.83 245.354 271.4Z" fill="black"/>
</g>
<path d="M245.856 276.04C245.066 261.08 240.526 242.01 231.206 243.77C222.286 245.46 243.066 262.98 245.856 276.04Z" fill="#F5F5F5"/>
<g opacity="0.3">
<path d="M245.856 276.04C245.066 261.08 240.526 242.01 231.206 243.77C222.286 245.46 243.066 262.98 245.856 276.04Z" fill="black"/>
</g>
<path d="M243.566 283.39C245.836 261.32 264.736 249 264.546 257.36C264.336 266.31 249.916 272.13 243.566 283.39Z" fill="#F5F5F5"/>
<g opacity="0.3">
<path d="M243.566 283.39C245.836 261.32 264.736 249 264.546 257.36C264.336 266.31 249.916 272.13 243.566 283.39Z" fill="black"/>
</g>
<path d="M245.395 278.708C248.045 270.818 241.815 260.098 235.275 262.388C229.855 264.288 243.695 275.828 245.395 278.708Z" fill="#F5F5F5"/>
<g opacity="0.4">
<path d="M245.395 278.708C248.045 270.818 241.815 260.098 235.275 262.388C229.855 264.288 243.695 275.828 245.395 278.708Z" fill="black"/>
</g>
</g>
<g opacity="0.5">
<path d="M252.066 301.299H239.476C237.216 301.299 235.216 299.829 234.556 297.669C232.996 292.549 232.046 287.239 232.326 282.059C232.416 280.389 232.626 278.729 232.996 277.099C233.146 276.429 233.736 275.949 234.426 275.949H257.116C257.806 275.949 258.386 276.429 258.546 277.099C258.916 278.729 259.136 280.389 259.216 282.059C259.496 287.239 258.546 292.549 256.986 297.669C256.326 299.829 254.326 301.299 252.066 301.299Z" fill="#F5F5F5"/>
<g opacity="0.4">
<path d="M252.066 301.299H239.476C237.216 301.299 235.216 299.829 234.556 297.669C232.996 292.549 232.046 287.239 232.326 282.059C232.416 280.389 232.626 278.729 232.996 277.099C233.146 276.429 233.736 275.949 234.426 275.949H257.116C257.806 275.949 258.386 276.429 258.546 277.099C258.916 278.729 259.136 280.389 259.216 282.059C259.496 287.239 258.546 292.549 256.986 297.669C256.326 299.829 254.326 301.299 252.066 301.299Z" fill="black"/>
</g>
<path d="M259.216 282.059H232.336C232.426 280.389 232.636 278.729 233.006 277.099C233.156 276.429 233.746 275.949 234.436 275.949H257.126C257.816 275.949 258.396 276.429 258.556 277.099C258.926 278.729 259.146 280.389 259.226 282.059H259.216Z" fill="#F5F5F5"/>
</g>
</g>
<defs>
<clipPath id="clip0_7018_256053">
<rect width="296" height="280" fill="white" transform="translate(0 40)"/>
</clipPath>
</defs>
</svg>
