<svg width="296" height="360" viewBox="0 0 296 360" fill="none" xmlns="http://www.w3.org/2000/svg">
<g clip-path="url(#clip0_7018_259253)">
<path d="M296 40H0V320H296V40Z" fill="white"/>
<path d="M286.71 290.441H263.73V290.611H286.71V290.441Z" fill="#E7E7E7"/>
<path d="M204.358 292.32H198.328V292.49H204.358V292.32Z" fill="#E7E7E7"/>
<path d="M263.039 284H249.719V284.17H263.039V284Z" fill="#E7E7E7"/>
<path d="M40.8997 285.16H10.9297V285.33H40.8997V285.16Z" fill="#E7E7E7"/>
<path d="M51.4681 285.16H47.0781V285.33H51.4681V285.16Z" fill="#E7E7E7"/>
<path d="M130.75 288.09H65.75V288.26H130.75V288.09Z" fill="#E7E7E7"/>
<path d="M139.95 248.331H5.96C3.78 248.331 2 246.551 2 244.371V56.0205C2 53.8405 3.78 52.0605 5.96 52.0605H139.95C142.13 52.0605 143.91 53.8405 143.91 56.0205V244.371C143.91 246.551 142.13 248.331 139.95 248.331ZM5.96 52.2305C3.87 52.2305 2.17 53.9305 2.17 56.0205V244.371C2.17 246.461 3.87 248.161 5.96 248.161H139.95C142.04 248.161 143.74 246.461 143.74 244.371V56.0205C143.74 53.9305 142.04 52.2305 139.95 52.2305H5.96Z" fill="#E7E7E7"/>
<path d="M290.04 248.331H156.05C153.87 248.331 152.09 246.551 152.09 244.371V56.0205C152.09 53.8405 153.87 52.0605 156.05 52.0605H290.04C292.22 52.0605 294 53.8405 294 56.0205V244.371C294 246.551 292.22 248.331 290.04 248.331ZM156.05 52.2305C153.96 52.2305 152.26 53.9305 152.26 56.0205V244.371C152.26 246.461 153.96 248.161 156.05 248.161H290.04C292.13 248.161 293.83 246.461 293.83 244.371V56.0205C293.83 53.9305 292.13 52.2305 290.04 52.2305H156.05Z" fill="#E7E7E7"/>
<path d="M293.959 279.271H2.03906V279.441H293.959V279.271Z" fill="#E7E7E7"/>
<path d="M252.079 192.35C247.729 191.01 244.869 190.12 241.469 189.07C240.689 188.83 240.899 187.68 241.709 187.72C245.669 187.93 248.919 188.1 253.929 188.37C251.039 183.35 249.339 180.22 247.389 176.29C247.029 175.57 247.989 174.93 248.519 175.53C251.129 178.46 253.309 180.85 256.809 184.6C257.649 179.74 258.609 175.27 259.819 170.77C260.039 169.96 261.249 170.17 261.169 171.01C260.849 174.66 260.729 178.34 260.819 181.89C260.979 181.95 260.989 181.95 261.149 182.01C264.089 178.66 267.169 175.44 270.379 172.36C270.999 171.77 271.919 172.62 271.389 173.29C268.269 177.24 265.389 181.38 262.759 185.68C266.949 184.1 271.169 182.56 275.409 181.08C276.199 180.8 276.709 181.92 275.979 182.33C271.589 184.82 267.239 187.37 262.909 190C267.489 191.46 270.469 192.41 274.089 193.56C274.859 193.81 274.649 194.95 273.839 194.9C270.129 194.68 267.059 194.49 262.359 194.21C264.629 196.87 266.209 198.69 268.039 200.75C268.579 201.35 267.819 202.23 267.139 201.78C264.829 200.25 262.799 198.89 259.839 196.9C260.139 199.26 260.399 201.09 260.709 202.88C260.849 203.7 259.689 204.02 259.389 203.25C258.619 201.29 257.919 199.33 257.029 196.74C253.689 212.71 254.559 228.19 257.789 244.07C256.189 243.78 255.389 243.64 253.789 243.35C251.449 227.07 252.059 212.5 255.669 196.5C253.669 198.57 252.189 200.13 250.789 201.7C250.229 202.32 249.259 201.6 249.689 200.89C250.629 199.33 251.659 197.73 253.029 195.68C249.459 196.46 247.009 197 244.319 197.61C243.529 197.79 243.129 196.68 243.859 196.32C246.369 195.07 248.679 193.96 252.079 192.35Z" fill="#E7E7E7"/>
<path d="M246.441 197.871C249.731 196.121 252.111 194.871 254.581 193.551C255.541 193.041 254.981 191.581 253.931 191.841C250.841 192.601 247.961 193.311 243.871 194.311C245.511 189.591 246.541 186.411 247.551 182.921C247.851 181.881 246.431 181.261 245.871 182.191C244.221 184.931 242.641 187.471 240.321 191.151C238.911 187.391 237.471 183.901 235.891 180.471C235.421 179.451 233.891 180.011 234.171 181.091C234.861 183.811 235.441 186.551 235.881 189.241C235.731 189.331 235.721 189.331 235.581 189.421C232.951 187.361 230.251 185.401 227.491 183.521C226.541 182.871 225.501 184.181 226.341 184.961C229.251 187.621 232.031 190.411 234.681 193.331C231.121 192.711 227.541 192.121 223.961 191.561C222.851 191.391 222.461 192.981 223.521 193.341C227.471 194.711 231.401 196.121 235.341 197.601C231.831 199.501 229.331 200.851 226.681 202.291C225.721 202.811 226.291 204.261 227.351 204.001C230.211 203.281 232.901 202.591 236.681 201.641C235.331 204.011 234.291 205.801 233.231 207.601C232.681 208.531 233.901 209.481 234.671 208.731C236.171 207.261 237.671 205.781 239.651 203.831C239.741 205.241 239.801 206.451 239.851 207.591C239.891 208.701 241.501 208.801 241.681 207.701C241.911 206.331 242.131 204.871 242.381 203.141C248.641 218.211 250.681 233.581 250.471 249.781C251.991 249.201 252.751 248.911 254.261 248.321C253.521 231.891 250.201 217.691 243.671 202.641C245.111 203.651 246.321 204.521 247.421 205.331C248.331 205.991 249.411 204.771 248.641 203.961C247.891 203.161 247.071 202.311 246.121 201.341C248.901 201.421 251.021 201.481 253.091 201.551C254.181 201.591 254.421 200.031 253.361 199.741C251.321 199.181 249.221 198.621 246.431 197.901L246.441 197.871Z" fill="#ECECEC"/>
<path d="M260.832 206.621C258.372 205.311 256.612 204.381 254.762 203.401C254.082 203.041 254.472 202.001 255.222 202.191C257.532 202.761 259.662 203.281 262.702 204.031C261.482 200.521 260.722 198.191 259.972 195.581C259.762 194.851 260.762 194.411 261.162 195.061C262.392 197.111 263.552 198.981 265.282 201.721C266.332 198.911 267.412 196.311 268.602 193.751C268.932 193.031 270.022 193.421 269.822 194.191C269.292 196.251 268.852 198.331 268.512 200.371C268.612 200.431 268.612 200.431 268.702 200.481C270.702 198.921 272.752 197.421 274.852 196.001C275.522 195.541 276.262 196.481 275.652 197.031C273.462 199.021 271.372 201.111 269.392 203.301C272.062 202.831 274.732 202.391 277.412 201.981C278.192 201.861 278.472 202.981 277.722 203.241C274.772 204.261 271.842 205.311 268.902 206.411C271.522 207.831 273.362 208.831 275.352 209.901C276.032 210.271 275.622 211.301 274.882 211.111C272.742 210.571 270.752 210.061 267.932 209.351C268.952 211.131 269.722 212.461 270.522 213.821C270.912 214.481 270.052 215.151 269.502 214.621C268.372 213.511 267.252 212.411 265.772 210.951C265.702 212.051 265.652 213.001 265.622 213.881C265.592 214.661 264.452 214.741 264.322 213.961C264.142 212.911 263.972 211.791 263.782 210.451C259.222 221.431 257.732 232.641 257.882 244.451C256.772 244.031 256.222 243.811 255.112 243.391C255.652 231.411 258.072 221.061 262.832 210.091C261.712 210.881 260.782 211.551 259.922 212.171C259.282 212.641 258.512 211.781 259.062 211.201C259.652 210.571 260.292 209.911 261.052 209.131C258.952 209.191 257.372 209.241 255.812 209.291C255.042 209.311 254.872 208.211 255.622 208.011C257.162 207.591 258.732 207.171 260.832 206.631V206.621Z" fill="#F5F5F5"/>
<path d="M243.702 279.16H264.392C265.842 279.16 267.032 278.03 267.122 276.59L269.312 240.9C269.412 239.32 238.672 239.32 238.762 240.9L240.952 276.59C241.042 278.03 242.242 279.16 243.682 279.16H243.702Z" fill="#E1E1E1"/>
<path d="M242.438 196.691C241.888 196.241 241.608 195.541 241.698 194.831L242.168 190.871L241.108 192.711C240.478 193.801 239.038 194.091 238.038 193.331L235.958 191.761L237.858 194.821C238.398 195.701 238.228 196.841 237.438 197.511L234.988 199.611L237.388 199.061C238.438 198.821 239.508 199.421 239.838 200.451L240.668 202.981L241.198 200.291C241.438 199.081 242.658 198.341 243.838 198.691L245.458 199.171L242.448 196.681L242.438 196.691Z" fill="#E7E7E7"/>
<path d="M256.241 189.871C256.641 189.541 256.841 189.031 256.781 188.511L256.441 185.621L257.221 186.961C257.681 187.761 258.731 187.971 259.461 187.421L260.981 186.281L259.591 188.521C259.191 189.161 259.321 189.991 259.891 190.481L261.681 192.021L259.921 191.621C259.151 191.441 258.371 191.881 258.131 192.631L257.531 194.481L257.141 192.521C256.971 191.641 256.071 191.101 255.211 191.351L254.031 191.701L256.231 189.881L256.241 189.871Z" fill="#F5F5F5"/>
<path d="M264.419 206.431C264.709 206.191 264.849 205.831 264.809 205.461L264.569 203.391L265.129 204.351C265.459 204.921 266.209 205.071 266.739 204.681L267.829 203.861L266.839 205.471C266.559 205.931 266.649 206.531 267.059 206.881L268.349 207.981L267.089 207.691C266.539 207.561 265.979 207.881 265.799 208.421L265.369 209.741L265.089 208.331C264.969 207.701 264.319 207.311 263.709 207.491L262.859 207.741L264.439 206.431H264.419Z" fill="#E7E7E7"/>
<path d="M241.022 108.061H223.672C222.943 108.061 222.352 108.652 222.352 109.381V112.101C222.352 112.83 222.943 113.421 223.672 113.421H241.022C241.751 113.421 242.342 112.83 242.342 112.101V109.381C242.342 108.652 241.751 108.061 241.022 108.061Z" fill="#F5F5F5"/>
<path d="M234.92 114.711H217.57C216.841 114.711 216.25 115.302 216.25 116.031V118.751C216.25 119.48 216.841 120.071 217.57 120.071H234.92C235.649 120.071 236.24 119.48 236.24 118.751V116.031C236.24 115.302 235.649 114.711 234.92 114.711Z" fill="#F5F5F5"/>
<path d="M255.842 114.711H238.492C237.763 114.711 237.172 115.302 237.172 116.031V118.751C237.172 119.48 237.763 120.071 238.492 120.071H255.842C256.571 120.071 257.162 119.48 257.162 118.751V116.031C257.162 115.302 256.571 114.711 255.842 114.711Z" fill="#ECECEC"/>
<path d="M58.3292 145.08H39.7692C39.0402 145.08 38.4492 145.671 38.4492 146.4V149.45C38.4492 150.179 39.0402 150.77 39.7692 150.77H58.3292C59.0582 150.77 59.6492 150.179 59.6492 149.45V146.4C59.6492 145.671 59.0582 145.08 58.3292 145.08Z" fill="#F5F5F5"/>
<path d="M58.3292 159.191H39.7692C39.0402 159.191 38.4492 159.782 38.4492 160.511V163.561C38.4492 164.29 39.0402 164.881 39.7692 164.881H58.3292C59.0582 164.881 59.6492 164.29 59.6492 163.561V160.511C59.6492 159.782 59.0582 159.191 58.3292 159.191Z" fill="#F5F5F5"/>
<path d="M51.8605 152.131H33.3005C32.5715 152.131 31.9805 152.722 31.9805 153.451V156.501C31.9805 157.23 32.5715 157.821 33.3005 157.821H51.8605C52.5895 157.821 53.1805 157.23 53.1805 156.501V153.451C53.1805 152.722 52.5895 152.131 51.8605 152.131Z" fill="#F5F5F5"/>
<path d="M74.0519 152.131H55.4919C54.7629 152.131 54.1719 152.722 54.1719 153.451V156.501C54.1719 157.23 54.7629 157.821 55.4919 157.821H74.0519C74.7809 157.821 75.3719 157.23 75.3719 156.501V153.451C75.3719 152.722 74.7809 152.131 74.0519 152.131Z" fill="#ECECEC"/>
<path d="M238.908 159.24H258.168C258.897 159.24 259.488 158.649 259.488 157.92V154.68C259.488 153.951 258.897 153.36 258.168 153.36H238.908C238.179 153.36 237.588 153.951 237.588 154.68V157.92C237.588 158.649 238.179 159.24 238.908 159.24Z" fill="#F5F5F5"/>
<path d="M245.6 151.951H264.86C265.589 151.951 266.18 151.36 266.18 150.631V147.391C266.18 146.662 265.589 146.071 264.86 146.071H245.6C244.871 146.071 244.28 146.662 244.28 147.391V150.631C244.28 151.36 244.871 151.951 245.6 151.951Z" fill="#F5F5F5"/>
<path d="M222.682 151.951H241.942C242.671 151.951 243.262 151.36 243.262 150.631V147.391C243.262 146.662 242.671 146.071 241.942 146.071H222.682C221.953 146.071 221.362 146.662 221.362 147.391V150.631C221.362 151.36 221.953 151.951 222.682 151.951Z" fill="#ECECEC"/>
<path d="M32.3581 130.18H52.7581C53.4871 130.18 54.0781 129.589 54.0781 128.86V125.32C54.0781 124.591 53.4871 124 52.7581 124H32.3581C31.6291 124 31.0381 124.591 31.0381 125.32V128.86C31.0381 129.589 31.6291 130.18 32.3581 130.18Z" fill="#F5F5F5"/>
<path d="M43.1198 122.521H63.5198C64.2489 122.521 64.8398 121.931 64.8398 121.201V117.661C64.8398 116.932 64.2489 116.341 63.5198 116.341H43.1198C42.3908 116.341 41.7998 116.932 41.7998 117.661V121.201C41.7998 121.931 42.3908 122.521 43.1198 122.521Z" fill="#F5F5F5"/>
<path d="M19.0105 122.521H39.4105C40.1395 122.521 40.7305 121.931 40.7305 121.201V117.661C40.7305 116.932 40.1395 116.341 39.4105 116.341H19.0105C18.2815 116.341 17.6905 116.932 17.6905 117.661V121.201C17.6905 121.931 18.2815 122.521 19.0105 122.521Z" fill="#ECECEC"/>
<path d="M75.8384 56.75H74.8984V84.52H75.8384V56.75Z" fill="#E7E7E7"/>
<path d="M45.6914 99.9515L75.3714 82.0215L105.041 99.9515H45.6914Z" fill="#ECECEC"/>
<path d="M77.4111 99.9515L75.3711 82.0215L88.7011 99.9515H77.4111Z" fill="#F5F5F5"/>
<path d="M221.112 56.75H220.172V84.52H221.112V56.75Z" fill="#E7E7E7"/>
<path d="M190.961 99.9515L220.631 82.0215L250.311 99.9515H190.961Z" fill="#ECECEC"/>
<path d="M222.679 99.9515L220.629 82.0215L233.969 99.9515H222.679Z" fill="#F5F5F5"/>
<path d="M144.649 307.941C218.954 307.941 279.189 304.422 279.189 300.081C279.189 295.74 218.954 292.221 144.649 292.221C70.345 292.221 10.1094 295.74 10.1094 300.081C10.1094 304.422 70.345 307.941 144.649 307.941Z" fill="#F5F5F5"/>
<path d="M106.279 114.37H102.809V110.9C102.809 109.94 103.589 109.17 104.539 109.17C105.499 109.17 106.269 109.95 106.269 110.9V114.37H106.279Z" fill="#1A2E35"/>
<path d="M193.189 114.37H189.719V110.9C189.719 109.94 190.499 109.17 191.449 109.17C192.409 109.17 193.179 109.95 193.179 110.9V114.37H193.189Z" fill="#1A2E35"/>
<g opacity="0.5">
<path d="M106.279 114.37H102.809V110.9C102.809 109.94 103.589 109.17 104.539 109.17C105.499 109.17 106.269 109.95 106.269 110.9V114.37H106.279Z" fill="white"/>
<path d="M193.189 114.37H189.719V110.9C189.719 109.94 190.499 109.17 191.449 109.17C192.409 109.17 193.179 109.95 193.179 110.9V114.37H193.189Z" fill="white"/>
</g>
<path d="M202.198 113.98H93.808C90.6931 113.98 88.168 116.506 88.168 119.62V174.14C88.168 177.255 90.6931 179.78 93.808 179.78H202.198C205.313 179.78 207.838 177.255 207.838 174.14V119.62C207.838 116.506 205.313 113.98 202.198 113.98Z" fill="#007CFF"/>
<path opacity="0.8" d="M202.198 113.98H93.808C90.6931 113.98 88.168 116.506 88.168 119.62V174.14C88.168 177.255 90.6931 179.78 93.808 179.78H202.198C205.313 179.78 207.838 177.255 207.838 174.14V119.62C207.838 116.506 205.313 113.98 202.198 113.98Z" fill="white"/>
<path d="M203.92 181.52H92.0797C88.9597 181.52 86.4297 178.99 86.4297 175.87V117.9C86.4297 114.78 88.9597 112.25 92.0797 112.25H203.92C207.04 112.25 209.57 114.78 209.57 117.9V175.87C209.57 178.99 207.04 181.52 203.92 181.52ZM92.0797 115.72C90.8797 115.72 89.8997 116.7 89.8997 117.9V175.87C89.8997 177.07 90.8797 178.05 92.0797 178.05H203.92C205.12 178.05 206.1 177.07 206.1 175.87V117.9C206.1 116.7 205.12 115.72 203.92 115.72H92.0797Z" fill="#007CFF"/>
<g opacity="0.4">
<path d="M203.92 181.52H92.0797C88.9597 181.52 86.4297 178.99 86.4297 175.87V117.9C86.4297 114.78 88.9597 112.25 92.0797 112.25H203.92C207.04 112.25 209.57 114.78 209.57 117.9V175.87C209.57 178.99 207.04 181.52 203.92 181.52ZM92.0797 115.72C90.8797 115.72 89.8997 116.7 89.8997 117.9V175.87C89.8997 177.07 90.8797 178.05 92.0797 178.05H203.92C205.12 178.05 206.1 177.07 206.1 175.87V117.9C206.1 116.7 205.12 115.72 203.92 115.72H92.0797Z" fill="white"/>
</g>
<path d="M125.36 127.12C129.83 127.32 135.32 130.07 136.44 134.84C137.79 140.59 130.19 142.92 125.91 143.06C121.84 143.19 114.91 141.74 114.19 136.79C113.38 131.18 121.43 129.99 125.35 129.9C125.68 129.9 125.69 129.37 125.35 129.38C121.27 129.48 113.58 130.63 113.57 136.15C113.55 141.87 121.53 143.72 125.91 143.59C130.24 143.46 137.39 141.32 137.11 135.81C136.83 130.22 130.21 126.83 125.35 126.61C125.02 126.59 125.02 127.12 125.35 127.13L125.36 127.12Z" fill="#1A2E35"/>
<path d="M111.662 157.029C111.712 158.509 111.862 160.009 111.812 161.479C111.802 161.919 112.292 161.649 111.552 161.639C110.852 161.619 110.132 161.689 109.432 161.709C107.622 161.769 105.812 161.839 104.002 161.899C103.312 161.919 102.562 161.869 101.882 161.969C101.132 162.079 101.632 162.149 101.592 161.929C101.302 160.369 101.472 158.569 101.422 156.989C101.422 156.749 101.322 156.379 101.392 156.159C101.492 155.819 100.982 156.379 101.222 156.269C101.582 156.109 102.322 156.229 102.732 156.219C105.782 156.109 108.832 156.009 111.882 155.899C112.212 155.889 112.222 155.369 111.882 155.379C108.302 155.499 104.712 155.629 101.132 155.749C100.992 155.749 100.862 155.869 100.872 156.009C100.942 158.089 101.012 160.169 101.092 162.249C101.092 162.389 101.212 162.519 101.352 162.509C104.932 162.389 108.522 162.259 112.102 162.139C112.242 162.139 112.372 162.019 112.362 161.879C112.302 160.259 112.252 158.639 112.192 157.029C112.182 156.699 111.662 156.689 111.672 157.029H111.662Z" fill="#1A2E35"/>
<path d="M137.921 157.459C137.991 159.499 138.421 161.799 138.141 163.799C138.031 164.589 138.701 163.939 137.661 164.139C136.711 164.319 135.601 164.209 134.641 164.239C132.061 164.329 129.481 164.419 126.901 164.509C125.911 164.539 124.861 164.679 123.881 164.609C122.781 164.539 123.581 164.949 123.361 164.449C122.621 162.699 123.181 159.329 123.121 157.409C123.101 156.699 123.221 156.099 122.941 156.269C123.351 156.019 124.581 156.209 125.091 156.199C129.431 156.049 133.781 155.899 138.121 155.749C138.451 155.739 138.461 155.219 138.121 155.229C133.021 155.409 127.911 155.579 122.811 155.759C122.671 155.759 122.541 155.879 122.551 156.019C122.651 158.979 122.751 161.949 122.861 164.909C122.861 165.049 122.981 165.179 123.121 165.169C128.221 164.989 133.331 164.819 138.431 164.639C138.571 164.639 138.701 164.519 138.691 164.379C138.611 162.079 138.531 159.769 138.451 157.469C138.441 157.139 137.921 157.129 137.931 157.469L137.921 157.459Z" fill="#1A2E35"/>
<path d="M195.731 128.03C195.781 129.36 195.971 130.77 195.871 132.09C195.771 133.37 196.431 132.42 195.511 132.76C193.521 133.5 190.151 132.94 188.021 133.02C184.751 133.13 181.491 133.25 178.221 133.36C177.111 133.4 175.981 133.48 174.871 133.48C174.681 133.48 174.191 133.6 174.031 133.51C173.521 133.22 174.391 134.12 174.031 133.42C173.551 132.48 173.921 130.33 173.891 129.25C173.891 128.98 173.651 127.7 173.831 127.48C173.691 127.65 173.581 127.82 173.991 127.63C175.681 126.85 179.231 127.45 181.051 127.39C186.011 127.22 190.981 127.05 195.941 126.88C196.271 126.87 196.281 126.35 195.941 126.36C188.481 126.62 181.021 126.88 173.561 127.13C173.421 127.13 173.291 127.25 173.301 127.39C173.371 129.52 173.451 131.65 173.521 133.77C173.521 133.91 173.641 134.04 173.781 134.03C181.241 133.77 188.701 133.51 196.161 133.26C196.301 133.26 196.431 133.14 196.421 133C196.361 131.34 196.311 129.69 196.251 128.03C196.241 127.7 195.721 127.69 195.731 128.03Z" fill="#1A2E35"/>
<path d="M199.873 136.49C189.953 136.49 180.023 136.49 170.103 136.49C169.773 136.49 169.763 137.01 170.103 137.01C180.023 137.01 189.953 137.01 199.873 137.01C200.203 137.01 200.213 136.49 199.873 136.49Z" fill="#1A2E35"/>
<path d="M197.251 142.25C192.291 142.25 187.331 142.25 182.361 142.25C182.031 142.25 182.021 142.77 182.361 142.77C187.321 142.77 192.281 142.77 197.251 142.77C197.581 142.77 197.591 142.25 197.251 142.25Z" fill="#1A2E35"/>
<path d="M193.191 144.549C189.581 144.549 185.971 144.549 182.361 144.549C182.031 144.549 182.021 145.069 182.361 145.069C185.971 145.069 189.581 145.069 193.191 145.069C193.521 145.069 193.531 144.549 193.191 144.549Z" fill="#1A2E35"/>
<path d="M134.61 135.189C129.65 135.189 124.69 135.189 119.72 135.189C119.39 135.189 119.38 135.709 119.72 135.709C124.68 135.709 129.64 135.709 134.61 135.709C134.94 135.709 134.95 135.189 134.61 135.189Z" fill="#1A2E35"/>
<path d="M130.55 137.49H119.72C119.39 137.49 119.38 138.01 119.72 138.01H130.55C130.88 138.01 130.89 137.49 130.55 137.49Z" fill="#1A2E35"/>
<path d="M197.161 150.709C192.201 150.709 187.241 150.709 182.271 150.709C181.941 150.709 181.931 151.229 182.271 151.229C187.231 151.229 192.191 151.229 197.161 151.229C197.491 151.229 197.501 150.709 197.161 150.709Z" fill="#1A2E35"/>
<path d="M189.723 161.99C187.243 161.99 184.763 161.99 182.283 161.99C181.953 161.99 181.943 162.51 182.283 162.51C184.763 162.51 187.243 162.51 189.723 162.51C190.053 162.51 190.063 161.99 189.723 161.99Z" fill="#1A2E35"/>
<path d="M110 159.17C107.52 159.17 105.04 159.17 102.56 159.17C102.23 159.17 102.22 159.69 102.56 159.69C105.04 159.69 107.52 159.69 110 159.69C110.33 159.69 110.34 159.17 110 159.17Z" fill="#1A2E35"/>
<path d="M134.781 159.3C131.841 159.53 128.891 159.76 125.951 160C125.621 160.03 125.621 160.55 125.951 160.52C128.891 160.29 131.841 160.06 134.781 159.82C135.111 159.79 135.111 159.27 134.781 159.3Z" fill="#1A2E35"/>
<path d="M155.782 147.449C153.072 147.449 150.362 147.449 147.642 147.449C147.312 147.449 147.302 147.969 147.642 147.969C150.352 147.969 153.072 147.969 155.782 147.969C156.112 147.969 156.122 147.449 155.782 147.449Z" fill="#1A2E35"/>
<path d="M197.161 159.93C192.201 159.93 187.241 159.93 182.271 159.93C181.941 159.93 181.931 160.45 182.271 160.45C187.231 160.45 192.191 160.45 197.161 160.45C197.491 160.45 197.501 159.93 197.161 159.93Z" fill="#1A2E35"/>
<path d="M145.171 145.07L144.961 151.13C144.961 151.27 145.081 151.39 145.221 151.39C149.691 151.54 154.161 151.7 158.631 151.85C158.771 151.85 158.891 151.73 158.891 151.59C158.981 148.99 159.071 146.4 159.161 143.8C159.161 143.66 159.041 143.54 158.901 143.54C154.431 143.39 149.961 143.23 145.491 143.08C145.161 143.07 145.161 143.59 145.491 143.6L156.911 143.99C157.341 144 158.361 143.83 158.721 144.05C159.091 144.27 158.461 143.57 158.641 143.98C158.711 144.15 158.641 144.62 158.611 144.82C158.301 146.82 158.991 149.26 158.391 151.19C158.241 151.66 158.911 151.26 157.971 151.3C157.171 151.33 156.351 151.24 155.551 151.22C153.211 151.14 150.881 151.06 148.541 150.98C147.661 150.95 146.771 150.91 145.891 150.89C144.961 150.87 145.551 151.15 145.501 150.63C145.321 148.84 145.631 146.88 145.691 145.07C145.701 144.74 145.181 144.74 145.171 145.07Z" fill="#1A2E35"/>
<path d="M115.961 143.63C112.451 145.73 109.521 149.17 108.211 153.04C108.101 153.36 108.601 153.49 108.711 153.18C109.981 149.45 112.841 146.11 116.221 144.08C116.511 143.91 116.251 143.46 115.961 143.63Z" fill="#1A2E35"/>
<path d="M107.05 150.399C107.28 151.749 107.51 153.099 107.74 154.449C107.78 154.659 108.04 154.679 108.17 154.559L111.52 151.769C111.78 151.559 111.41 151.189 111.15 151.399C110.03 152.329 108.91 153.259 107.8 154.189C107.95 154.229 108.09 154.269 108.23 154.299C108 152.949 107.77 151.599 107.54 150.249C107.48 149.919 106.98 150.059 107.04 150.389L107.05 150.399Z" fill="#1A2E35"/>
<path d="M134.701 141.78C137.731 142.99 140.481 145.34 142.001 148.21C142.161 148.51 142.611 148.24 142.451 147.95C140.861 144.95 137.991 142.53 134.841 141.28C134.531 141.16 134.391 141.66 134.701 141.78Z" fill="#1A2E35"/>
<path d="M142.543 145.669C142.533 146.799 142.523 147.939 142.513 149.069C142.643 148.999 142.773 148.919 142.903 148.849C141.863 148.239 140.833 147.629 139.793 147.009C139.503 146.839 139.243 147.289 139.533 147.459C140.573 148.069 141.603 148.679 142.643 149.299C142.813 149.399 143.033 149.269 143.033 149.079C143.043 147.949 143.053 146.809 143.063 145.679C143.063 145.339 142.543 145.339 142.543 145.679V145.669Z" fill="#1A2E35"/>
<path d="M128.632 146.139C129.092 148.279 129.432 150.449 129.732 152.619C129.782 152.949 130.282 152.809 130.232 152.479C129.932 150.309 129.592 148.139 129.132 145.999C129.062 145.669 128.562 145.809 128.632 146.139Z" fill="#1A2E35"/>
<path d="M130.731 150.899C130.451 151.699 130.161 152.509 129.881 153.309C130.021 153.269 130.171 153.229 130.311 153.199C129.721 152.509 129.131 151.819 128.551 151.139C128.331 150.879 127.971 151.249 128.181 151.509C128.771 152.199 129.361 152.889 129.941 153.569C130.081 153.729 130.311 153.619 130.371 153.459C130.651 152.659 130.941 151.849 131.221 151.049C131.331 150.729 130.831 150.599 130.721 150.909L130.731 150.899Z" fill="#1A2E35"/>
<path d="M177.18 144.549H172.58L172.84 144.809V140.209L172.58 140.469H177.18L176.92 140.209V144.809C176.92 145.139 177.44 145.149 177.44 144.809V140.209C177.44 140.069 177.32 139.949 177.18 139.949H172.58C172.44 139.949 172.32 140.069 172.32 140.209V144.809C172.32 144.949 172.44 145.069 172.58 145.069H177.18C177.51 145.069 177.52 144.549 177.18 144.549Z" fill="#1A2E35"/>
<path d="M177.18 153.01H172.58L172.84 153.27V148.67L172.58 148.93H177.18L176.92 148.67V153.27C176.92 153.6 177.44 153.61 177.44 153.27V148.67C177.44 148.53 177.32 148.41 177.18 148.41H172.58C172.44 148.41 172.32 148.53 172.32 148.67V153.27C172.32 153.41 172.44 153.53 172.58 153.53H177.18C177.51 153.53 177.52 153.01 177.18 153.01Z" fill="#1A2E35"/>
<path d="M177.18 161.469H172.58L172.84 161.729V157.129L172.58 157.389H177.18L176.92 157.129V161.729C176.92 162.059 177.44 162.069 177.44 161.729V157.129C177.44 156.989 177.32 156.869 177.18 156.869H172.58C172.44 156.869 172.32 156.989 172.32 157.129V161.729C172.32 161.869 172.44 161.989 172.58 161.989H177.18C177.51 161.989 177.52 161.469 177.18 161.469Z" fill="#1A2E35"/>
<path d="M171.351 141.19C172.501 141.7 173.551 142.46 174.311 143.47C174.411 143.61 174.581 143.65 174.721 143.52C176.221 142.16 178.081 140.81 180.111 140.46C180.441 140.4 180.301 139.9 179.971 139.96C177.841 140.32 176.471 141.73 174.721 142.82C174.151 143.17 174.671 142.98 174.481 142.84C174.121 142.58 173.831 142.16 173.471 141.87C172.901 141.42 172.261 141.03 171.601 140.73C171.301 140.59 171.031 141.04 171.341 141.18L171.351 141.19Z" fill="#1A2E35"/>
<path d="M171.351 150.04C172.501 150.55 173.551 151.31 174.311 152.32C174.411 152.46 174.581 152.5 174.721 152.37C176.221 151.01 178.081 149.66 180.111 149.31C180.441 149.25 180.301 148.75 179.971 148.81C177.841 149.17 176.471 150.58 174.721 151.67C174.151 152.02 174.671 151.83 174.481 151.69C174.121 151.43 173.831 151.01 173.471 150.72C172.901 150.27 172.261 149.88 171.601 149.58C171.301 149.44 171.031 149.89 171.341 150.03L171.351 150.04Z" fill="#1A2E35"/>
<path d="M171.351 158.11C172.501 158.62 173.551 159.38 174.311 160.39C174.411 160.53 174.581 160.57 174.721 160.44C176.221 159.08 178.081 157.73 180.111 157.38C180.441 157.32 180.301 156.82 179.971 156.88C177.841 157.24 176.471 158.65 174.721 159.74C174.151 160.09 174.671 159.9 174.481 159.76C174.121 159.5 173.831 159.08 173.471 158.79C172.901 158.34 172.261 157.95 171.601 157.65C171.301 157.51 171.031 157.96 171.341 158.1L171.351 158.11Z" fill="#1A2E35"/>
<g opacity="0.3">
<path d="M125.36 127.12C129.83 127.32 135.32 130.07 136.44 134.84C137.79 140.59 130.19 142.92 125.91 143.06C121.84 143.19 114.91 141.74 114.19 136.79C113.38 131.18 121.43 129.99 125.35 129.9C125.68 129.9 125.69 129.37 125.35 129.38C121.27 129.48 113.58 130.63 113.57 136.15C113.55 141.87 121.53 143.72 125.91 143.59C130.24 143.46 137.39 141.32 137.11 135.81C136.83 130.22 130.21 126.83 125.35 126.61C125.02 126.59 125.02 127.12 125.35 127.13L125.36 127.12Z" fill="white"/>
</g>
<g opacity="0.3">
<path d="M111.662 157.029C111.712 158.509 111.862 160.009 111.812 161.479C111.802 161.919 112.292 161.649 111.552 161.639C110.852 161.619 110.132 161.689 109.432 161.709C107.622 161.769 105.812 161.839 104.002 161.899C103.312 161.919 102.562 161.869 101.882 161.969C101.132 162.079 101.632 162.149 101.592 161.929C101.302 160.369 101.472 158.569 101.422 156.989C101.422 156.749 101.322 156.379 101.392 156.159C101.492 155.819 100.982 156.379 101.222 156.269C101.582 156.109 102.322 156.229 102.732 156.219C105.782 156.109 108.832 156.009 111.882 155.899C112.212 155.889 112.222 155.369 111.882 155.379C108.302 155.499 104.712 155.629 101.132 155.749C100.992 155.749 100.862 155.869 100.872 156.009C100.942 158.089 101.012 160.169 101.092 162.249C101.092 162.389 101.212 162.519 101.352 162.509C104.932 162.389 108.522 162.259 112.102 162.139C112.242 162.139 112.372 162.019 112.362 161.879C112.302 160.259 112.252 158.639 112.192 157.029C112.182 156.699 111.662 156.689 111.672 157.029H111.662Z" fill="white"/>
</g>
<g opacity="0.3">
<path d="M137.921 157.459C137.991 159.499 138.421 161.799 138.141 163.799C138.031 164.589 138.701 163.939 137.661 164.139C136.711 164.319 135.601 164.209 134.641 164.239C132.061 164.329 129.481 164.419 126.901 164.509C125.911 164.539 124.861 164.679 123.881 164.609C122.781 164.539 123.581 164.949 123.361 164.449C122.621 162.699 123.181 159.329 123.121 157.409C123.101 156.699 123.221 156.099 122.941 156.269C123.351 156.019 124.581 156.209 125.091 156.199C129.431 156.049 133.781 155.899 138.121 155.749C138.451 155.739 138.461 155.219 138.121 155.229C133.021 155.409 127.911 155.579 122.811 155.759C122.671 155.759 122.541 155.879 122.551 156.019C122.651 158.979 122.751 161.949 122.861 164.909C122.861 165.049 122.981 165.179 123.121 165.169C128.221 164.989 133.331 164.819 138.431 164.639C138.571 164.639 138.701 164.519 138.691 164.379C138.611 162.079 138.531 159.769 138.451 157.469C138.441 157.139 137.921 157.129 137.931 157.469L137.921 157.459Z" fill="white"/>
</g>
<g opacity="0.3">
<path d="M195.731 128.03C195.781 129.36 195.971 130.77 195.871 132.09C195.771 133.37 196.431 132.42 195.511 132.76C193.521 133.5 190.151 132.94 188.021 133.02C184.751 133.13 181.491 133.25 178.221 133.36C177.111 133.4 175.981 133.48 174.871 133.48C174.681 133.48 174.191 133.6 174.031 133.51C173.521 133.22 174.391 134.12 174.031 133.42C173.551 132.48 173.921 130.33 173.891 129.25C173.891 128.98 173.651 127.7 173.831 127.48C173.691 127.65 173.581 127.82 173.991 127.63C175.681 126.85 179.231 127.45 181.051 127.39C186.011 127.22 190.981 127.05 195.941 126.88C196.271 126.87 196.281 126.35 195.941 126.36C188.481 126.62 181.021 126.88 173.561 127.13C173.421 127.13 173.291 127.25 173.301 127.39C173.371 129.52 173.451 131.65 173.521 133.77C173.521 133.91 173.641 134.04 173.781 134.03C181.241 133.77 188.701 133.51 196.161 133.26C196.301 133.26 196.431 133.14 196.421 133C196.361 131.34 196.311 129.69 196.251 128.03C196.241 127.7 195.721 127.69 195.731 128.03Z" fill="white"/>
</g>
<g opacity="0.3">
<path d="M199.873 136.49C189.953 136.49 180.023 136.49 170.103 136.49C169.773 136.49 169.763 137.01 170.103 137.01C180.023 137.01 189.953 137.01 199.873 137.01C200.203 137.01 200.213 136.49 199.873 136.49Z" fill="white"/>
</g>
<g opacity="0.3">
<path d="M197.251 142.25C192.291 142.25 187.331 142.25 182.361 142.25C182.031 142.25 182.021 142.77 182.361 142.77C187.321 142.77 192.281 142.77 197.251 142.77C197.581 142.77 197.591 142.25 197.251 142.25Z" fill="white"/>
</g>
<g opacity="0.3">
<path d="M193.191 144.549C189.581 144.549 185.971 144.549 182.361 144.549C182.031 144.549 182.021 145.069 182.361 145.069C185.971 145.069 189.581 145.069 193.191 145.069C193.521 145.069 193.531 144.549 193.191 144.549Z" fill="white"/>
</g>
<g opacity="0.3">
<path d="M134.61 135.189C129.65 135.189 124.69 135.189 119.72 135.189C119.39 135.189 119.38 135.709 119.72 135.709C124.68 135.709 129.64 135.709 134.61 135.709C134.94 135.709 134.95 135.189 134.61 135.189Z" fill="white"/>
</g>
<g opacity="0.3">
<path d="M130.55 137.49H119.72C119.39 137.49 119.38 138.01 119.72 138.01H130.55C130.88 138.01 130.89 137.49 130.55 137.49Z" fill="white"/>
</g>
<g opacity="0.3">
<path d="M197.161 150.709C192.201 150.709 187.241 150.709 182.271 150.709C181.941 150.709 181.931 151.229 182.271 151.229C187.231 151.229 192.191 151.229 197.161 151.229C197.491 151.229 197.501 150.709 197.161 150.709Z" fill="white"/>
</g>
<g opacity="0.3">
<path d="M189.723 161.99C187.243 161.99 184.763 161.99 182.283 161.99C181.953 161.99 181.943 162.51 182.283 162.51C184.763 162.51 187.243 162.51 189.723 162.51C190.053 162.51 190.063 161.99 189.723 161.99Z" fill="white"/>
</g>
<g opacity="0.3">
<path d="M110 159.17C107.52 159.17 105.04 159.17 102.56 159.17C102.23 159.17 102.22 159.69 102.56 159.69C105.04 159.69 107.52 159.69 110 159.69C110.33 159.69 110.34 159.17 110 159.17Z" fill="white"/>
</g>
<g opacity="0.3">
<path d="M134.781 159.3C131.841 159.53 128.891 159.76 125.951 160C125.621 160.03 125.621 160.55 125.951 160.52C128.891 160.29 131.841 160.06 134.781 159.82C135.111 159.79 135.111 159.27 134.781 159.3Z" fill="white"/>
</g>
<g opacity="0.3">
<path d="M155.782 147.449C153.072 147.449 150.362 147.449 147.642 147.449C147.312 147.449 147.302 147.969 147.642 147.969C150.352 147.969 153.072 147.969 155.782 147.969C156.112 147.969 156.122 147.449 155.782 147.449Z" fill="white"/>
</g>
<g opacity="0.3">
<path d="M197.161 159.93C192.201 159.93 187.241 159.93 182.271 159.93C181.941 159.93 181.931 160.45 182.271 160.45C187.231 160.45 192.191 160.45 197.161 160.45C197.491 160.45 197.501 159.93 197.161 159.93Z" fill="white"/>
</g>
<g opacity="0.3">
<path d="M145.171 145.07L144.961 151.13C144.961 151.27 145.081 151.39 145.221 151.39C149.691 151.54 154.161 151.7 158.631 151.85C158.771 151.85 158.891 151.73 158.891 151.59C158.981 148.99 159.071 146.4 159.161 143.8C159.161 143.66 159.041 143.54 158.901 143.54C154.431 143.39 149.961 143.23 145.491 143.08C145.161 143.07 145.161 143.59 145.491 143.6L156.911 143.99C157.341 144 158.361 143.83 158.721 144.05C159.091 144.27 158.461 143.57 158.641 143.98C158.711 144.15 158.641 144.62 158.611 144.82C158.301 146.82 158.991 149.26 158.391 151.19C158.241 151.66 158.911 151.26 157.971 151.3C157.171 151.33 156.351 151.24 155.551 151.22C153.211 151.14 150.881 151.06 148.541 150.98C147.661 150.95 146.771 150.91 145.891 150.89C144.961 150.87 145.551 151.15 145.501 150.63C145.321 148.84 145.631 146.88 145.691 145.07C145.701 144.74 145.181 144.74 145.171 145.07Z" fill="white"/>
</g>
<g opacity="0.3">
<path d="M115.961 143.63C112.451 145.73 109.521 149.17 108.211 153.04C108.101 153.36 108.601 153.49 108.711 153.18C109.981 149.45 112.841 146.11 116.221 144.08C116.511 143.91 116.251 143.46 115.961 143.63Z" fill="white"/>
</g>
<g opacity="0.3">
<path d="M107.05 150.399C107.28 151.749 107.51 153.099 107.74 154.449C107.78 154.659 108.04 154.679 108.17 154.559L111.52 151.769C111.78 151.559 111.41 151.189 111.15 151.399C110.03 152.329 108.91 153.259 107.8 154.189C107.95 154.229 108.09 154.269 108.23 154.299C108 152.949 107.77 151.599 107.54 150.249C107.48 149.919 106.98 150.059 107.04 150.389L107.05 150.399Z" fill="white"/>
</g>
<g opacity="0.3">
<path d="M134.701 141.78C137.731 142.99 140.481 145.34 142.001 148.21C142.161 148.51 142.611 148.24 142.451 147.95C140.861 144.95 137.991 142.53 134.841 141.28C134.531 141.16 134.391 141.66 134.701 141.78Z" fill="white"/>
</g>
<g opacity="0.3">
<path d="M142.543 145.669C142.533 146.799 142.523 147.939 142.513 149.069C142.643 148.999 142.773 148.919 142.903 148.849C141.863 148.239 140.833 147.629 139.793 147.009C139.503 146.839 139.243 147.289 139.533 147.459C140.573 148.069 141.603 148.679 142.643 149.299C142.813 149.399 143.033 149.269 143.033 149.079C143.043 147.949 143.053 146.809 143.063 145.679C143.063 145.339 142.543 145.339 142.543 145.679V145.669Z" fill="white"/>
</g>
<g opacity="0.3">
<path d="M128.632 146.139C129.092 148.279 129.432 150.449 129.732 152.619C129.782 152.949 130.282 152.809 130.232 152.479C129.932 150.309 129.592 148.139 129.132 145.999C129.062 145.669 128.562 145.809 128.632 146.139Z" fill="white"/>
</g>
<g opacity="0.3">
<path d="M130.731 150.899C130.451 151.699 130.161 152.509 129.881 153.309C130.021 153.269 130.171 153.229 130.311 153.199C129.721 152.509 129.131 151.819 128.551 151.139C128.331 150.879 127.971 151.249 128.181 151.509C128.771 152.199 129.361 152.889 129.941 153.569C130.081 153.729 130.311 153.619 130.371 153.459C130.651 152.659 130.941 151.849 131.221 151.049C131.331 150.729 130.831 150.599 130.721 150.909L130.731 150.899Z" fill="white"/>
</g>
<g opacity="0.3">
<path d="M177.18 144.549H172.58L172.84 144.809V140.209L172.58 140.469H177.18L176.92 140.209V144.809C176.92 145.139 177.44 145.149 177.44 144.809V140.209C177.44 140.069 177.32 139.949 177.18 139.949H172.58C172.44 139.949 172.32 140.069 172.32 140.209V144.809C172.32 144.949 172.44 145.069 172.58 145.069H177.18C177.51 145.069 177.52 144.549 177.18 144.549Z" fill="white"/>
</g>
<g opacity="0.3">
<path d="M177.18 153.01H172.58L172.84 153.27V148.67L172.58 148.93H177.18L176.92 148.67V153.27C176.92 153.6 177.44 153.61 177.44 153.27V148.67C177.44 148.53 177.32 148.41 177.18 148.41H172.58C172.44 148.41 172.32 148.53 172.32 148.67V153.27C172.32 153.41 172.44 153.53 172.58 153.53H177.18C177.51 153.53 177.52 153.01 177.18 153.01Z" fill="white"/>
</g>
<g opacity="0.3">
<path d="M177.18 161.469H172.58L172.84 161.729V157.129L172.58 157.389H177.18L176.92 157.129V161.729C176.92 162.059 177.44 162.069 177.44 161.729V157.129C177.44 156.989 177.32 156.869 177.18 156.869H172.58C172.44 156.869 172.32 156.989 172.32 157.129V161.729C172.32 161.869 172.44 161.989 172.58 161.989H177.18C177.51 161.989 177.52 161.469 177.18 161.469Z" fill="white"/>
</g>
<g opacity="0.3">
<path d="M171.351 141.19C172.501 141.7 173.551 142.46 174.311 143.47C174.411 143.61 174.581 143.65 174.721 143.52C176.221 142.16 178.081 140.81 180.111 140.46C180.441 140.4 180.301 139.9 179.971 139.96C177.841 140.32 176.471 141.73 174.721 142.82C174.151 143.17 174.671 142.98 174.481 142.84C174.121 142.58 173.831 142.16 173.471 141.87C172.901 141.42 172.261 141.03 171.601 140.73C171.301 140.59 171.031 141.04 171.341 141.18L171.351 141.19Z" fill="white"/>
</g>
<g opacity="0.3">
<path d="M171.351 150.04C172.501 150.55 173.551 151.31 174.311 152.32C174.411 152.46 174.581 152.5 174.721 152.37C176.221 151.01 178.081 149.66 180.111 149.31C180.441 149.25 180.301 148.75 179.971 148.81C177.841 149.17 176.471 150.58 174.721 151.67C174.151 152.02 174.671 151.83 174.481 151.69C174.121 151.43 173.831 151.01 173.471 150.72C172.901 150.27 172.261 149.88 171.601 149.58C171.301 149.44 171.031 149.89 171.341 150.03L171.351 150.04Z" fill="white"/>
</g>
<g opacity="0.3">
<path d="M171.351 158.11C172.501 158.62 173.551 159.38 174.311 160.39C174.411 160.53 174.581 160.57 174.721 160.44C176.221 159.08 178.081 157.73 180.111 157.38C180.441 157.32 180.301 156.82 179.971 156.88C177.841 157.24 176.471 158.65 174.721 159.74C174.151 160.09 174.671 159.9 174.481 159.76C174.121 159.5 173.831 159.08 173.471 158.79C172.901 158.34 172.261 157.95 171.601 157.65C171.301 157.51 171.031 157.96 171.341 158.1L171.351 158.11Z" fill="white"/>
</g>
<path d="M184.871 282.24C184.871 294.43 205.381 297.41 230.681 297.41C255.981 297.41 266.141 294.43 266.141 282.24C266.141 270.05 259.001 255.23 233.701 255.23C208.401 255.23 184.881 270.05 184.881 282.24H184.871Z" fill="#007CFF"/>
<path opacity="0.5" d="M184.871 282.24C184.871 294.43 205.381 297.41 230.681 297.41C255.981 297.41 266.141 294.43 266.141 282.24C266.141 270.05 259.001 255.23 233.701 255.23C208.401 255.23 184.881 270.05 184.881 282.24H184.871Z" fill="white"/>
<path d="M181.562 265.171C180.632 281.931 185.262 290.981 195.832 291.571C206.402 292.161 215.722 279.051 216.652 262.281C217.582 245.521 206.942 232.681 196.372 232.091C185.802 231.501 182.492 248.401 181.562 265.171Z" fill="#007CFF"/>
<path opacity="0.5" d="M181.562 265.171C180.632 281.931 185.262 290.981 195.832 291.571C206.402 292.161 215.722 279.051 216.652 262.281C217.582 245.521 206.942 232.681 196.372 232.091C185.802 231.501 182.492 248.401 181.562 265.171Z" fill="white"/>
<path opacity="0.1" d="M233.17 256.681C233.17 256.681 243 255.431 243.87 258.901C244.74 262.371 227.65 260.461 224.23 263.931C220.8 267.401 235.37 269.181 232.2 271.261C229.71 272.891 221.2 265.491 210.33 268.271C199.46 271.051 197.91 262.851 199.12 255.241C200.33 247.631 201.21 239.441 204.5 240.071C207.79 240.691 218.48 255.671 233.17 256.681Z" fill="black"/>
<path opacity="0.1" d="M202.588 269.112C202.588 269.112 192.418 267.322 191.848 271.582C191.288 275.842 190.508 269.542 202.588 269.112Z" fill="black"/>
<path opacity="0.1" d="M186.19 287.09C183.33 283.74 181.78 278.54 181.5 271.58C182.81 284.83 190.5 293.42 221.23 294.81C252.02 296.2 258.79 287 262.09 288.1C263.47 288.56 263.48 289.83 263.02 291.14C258.33 295.99 248.09 297.4 230.68 297.4C209.15 297.4 191.1 295.24 186.2 287.08L186.19 287.09Z" fill="black"/>
<path d="M239.042 230.381C239.042 230.381 237.602 230.611 236.762 231.471C235.912 232.331 233.422 232.241 233.422 232.241L233.172 235.061L238.862 234.731L239.042 230.381Z" fill="#C95B51"/>
<path d="M216.099 213.511C216.839 213.471 219.689 214.951 221.399 222.461C223.119 229.961 222.729 232.481 236.039 231.631L235.609 235.371C235.609 235.371 224.079 236.611 220.639 233.841C217.209 231.091 213.349 213.671 216.099 213.511Z" fill="#1A2E35"/>
<path opacity="0.6" d="M219.932 222.74L220.582 223.89C220.582 223.89 219.872 230.96 221.232 234.22C221.022 234.1 220.822 233.97 220.642 233.83C219.722 233.09 218.762 231.28 217.922 229.04L219.932 222.74Z" fill="black"/>
<path d="M200.93 199.721C200.93 199.721 200.83 201.911 199.82 202.361C198.8 202.811 200.57 205.321 200.08 206.851C199.59 208.381 198.45 209.761 199.67 211.821C199.67 211.821 199.41 210.111 200.27 209.091C200.27 209.091 199.91 211.961 200.84 212.031C201.77 212.091 201.95 211.251 203.48 211.611C205.01 211.971 203.66 209.261 203.66 209.261C203.66 209.261 204.27 209.671 204.69 211.101C205.1 212.541 209.14 210.881 210.79 211.471C212.43 212.061 212.89 209.021 212.89 209.021C212.89 209.021 213.62 210.821 213.03 211.441C213.03 211.441 214.32 211.071 214.47 209.351C214.47 209.351 214.85 209.871 214.66 210.961C214.66 210.961 215.91 210.871 215.59 208.451C215.27 206.031 213.39 205.341 212.9 203.421C212.41 201.501 206.37 197.791 206.37 197.791L200.94 199.711L200.93 199.721Z" fill="#1A2E35"/>
<path d="M204.18 207.102L209.33 210.452C209.31 214.062 211.92 213.872 211.92 213.872C211.92 213.872 211.96 215.132 208.82 215.592C205.67 216.052 204.59 215.932 204.59 215.932C206.16 214.052 204.97 209.552 204.19 207.102H204.18Z" fill="#C95B51"/>
<path opacity="0.1" d="M209.681 212.411C209.461 211.931 209.321 211.301 209.321 210.451L204.731 207.461L204.441 207.971C204.441 207.971 206.181 212.611 209.681 212.401V212.411Z" fill="black"/>
<path d="M202.69 201.59C203.21 205.79 203.34 207.58 205.61 209.6C209.01 212.65 214.05 211.1 214.8 206.83C215.47 202.99 214.5 196.77 210.28 195.35C207.27 194.32 203.99 195.93 202.96 198.94C202.67 199.79 202.58 200.69 202.7 201.58L202.69 201.59Z" fill="#C95B51"/>
<path d="M211.969 204.061C212.319 204.821 212.779 205.541 213.329 206.181C212.989 206.461 212.549 206.571 212.119 206.491L211.969 204.071V204.061Z" fill="#B6221F"/>
<path d="M208.27 201.87C208.27 201.87 208.21 201.85 208.19 201.84C208.12 201.78 208.11 201.68 208.16 201.6C208.55 201.09 209.16 200.8 209.79 200.83C209.88 200.84 209.95 200.92 209.94 201.01C209.94 201.1 209.85 201.17 209.76 201.16C209.23 201.15 208.73 201.39 208.41 201.81C208.37 201.86 208.31 201.88 208.26 201.87H208.27Z" fill="#263237"/>
<path d="M214.499 201.21C214.499 201.21 214.439 201.19 214.419 201.18C214.009 200.85 213.469 200.75 212.959 200.89C212.869 200.92 212.779 200.88 212.739 200.79C212.709 200.7 212.759 200.61 212.839 200.57C213.449 200.39 214.109 200.52 214.619 200.91C214.699 200.96 214.719 201.07 214.659 201.14C214.619 201.19 214.559 201.22 214.489 201.21H214.499Z" fill="#263237"/>
<path d="M209.509 203.639C209.529 203.979 209.729 204.249 209.959 204.229C210.189 204.219 210.349 203.929 210.319 203.579C210.299 203.229 210.099 202.969 209.879 202.989C209.659 202.999 209.489 203.289 209.509 203.639Z" fill="#263237"/>
<path d="M213.388 203.401C213.408 203.741 213.608 204.011 213.828 203.991C214.048 203.981 214.218 203.691 214.198 203.341C214.178 202.991 213.978 202.731 213.758 202.751C213.538 202.761 213.368 203.051 213.388 203.401Z" fill="#263237"/>
<path d="M213.66 202.78L214.47 202.49C214.47 202.49 214.09 203.16 213.66 202.78Z" fill="#263237"/>
<path d="M209.781 203.02L210.591 202.73C210.591 202.73 210.211 203.4 209.781 203.02Z" fill="#263237"/>
<path d="M209.939 207.081C209.849 206.981 209.769 206.861 209.689 206.751C209.659 206.711 209.669 206.661 209.709 206.641C209.749 206.621 209.799 206.641 209.819 206.671C210.179 207.281 210.809 207.671 211.519 207.741C211.569 207.741 211.599 207.781 211.599 207.821C211.599 207.861 211.559 207.901 211.519 207.901C210.899 207.851 210.329 207.561 209.929 207.081H209.939Z" fill="#1A2E35"/>
<path d="M210.351 195.63C210.351 195.63 212.601 198.13 210.151 199.13C207.701 200.13 205.481 201.61 205.121 203.68C204.761 205.75 202.751 205.82 202.751 205.82C202.751 205.82 199.501 201.7 201.601 197.37C203.701 193.04 209.491 194.12 210.351 195.63Z" fill="#1A2E35"/>
<path d="M203.828 196.291C203.828 196.291 206.538 192.091 211.088 194.121C215.638 196.151 215.838 199.601 214.688 199.261C213.548 198.921 211.728 198.581 210.428 196.221C209.128 193.871 203.828 196.281 203.828 196.281V196.291Z" fill="#1A2E35"/>
<path d="M204.5 204.19C204.5 204.19 206.74 204.06 205.67 207.01C205.67 207.01 205.51 205.14 204.5 204.19Z" fill="#1A2E35"/>
<path d="M201.901 204.981C202.181 205.751 202.761 206.371 203.501 206.711C204.491 207.161 205.141 206.311 205.011 205.291C204.891 204.381 204.221 203.041 203.161 203.021C202.391 203.031 201.771 203.661 201.781 204.441C201.781 204.621 201.821 204.811 201.891 204.981H201.901Z" fill="#C95B51"/>
<path d="M234.031 240.061L222.041 238.401C221.791 238.361 221.641 238.091 221.761 237.861L229.201 223.371C229.401 222.971 229.841 222.741 230.281 222.811L242.271 224.471C242.521 224.511 242.671 224.781 242.551 225.011L235.111 239.501C234.901 239.901 234.471 240.131 234.031 240.061Z" fill="#007CFF"/>
<path opacity="0.5" d="M234.031 240.061L222.041 238.401C221.791 238.361 221.641 238.091 221.761 237.861L229.201 223.371C229.401 222.971 229.841 222.741 230.281 222.811L242.271 224.471C242.521 224.511 242.671 224.781 242.551 225.011L235.111 239.501C234.901 239.901 234.471 240.131 234.031 240.061Z" fill="white"/>
<path d="M234.5 240.122L222.51 238.462C222.26 238.422 222.11 238.152 222.23 237.922L229.67 223.432C229.88 223.032 230.31 222.802 230.75 222.872L242.74 224.532C242.99 224.572 243.14 224.842 243.02 225.072L235.58 239.562C235.38 239.962 234.94 240.192 234.5 240.122Z" fill="#007CFF"/>
<path opacity="0.7" d="M234.5 240.122L222.51 238.462C222.26 238.422 222.11 238.152 222.23 237.922L229.67 223.432C229.88 223.032 230.31 222.802 230.75 222.872L242.74 224.532C242.99 224.572 243.14 224.842 243.02 225.072L235.58 239.562C235.38 239.962 234.94 240.192 234.5 240.122Z" fill="white"/>
<path opacity="0.7" d="M241.098 227.031L239.718 226.841C239.718 226.841 239.668 226.801 239.688 226.781L240.548 225.111C240.548 225.111 240.618 225.041 240.678 225.041L242.058 225.231C242.058 225.231 242.108 225.271 242.088 225.291L241.228 226.961C241.228 226.961 241.158 227.031 241.098 227.031Z" fill="#007CFF"/>
<path opacity="0.3" d="M241.098 227.031L239.718 226.841C239.718 226.841 239.668 226.801 239.688 226.781L240.548 225.111C240.548 225.111 240.618 225.041 240.678 225.041L242.058 225.231C242.058 225.231 242.108 225.271 242.088 225.291L241.228 226.961C241.228 226.961 241.158 227.031 241.098 227.031Z" fill="#007CFF"/>
<path d="M233.643 231.632C233.443 232.202 232.973 232.612 232.593 232.562C232.223 232.512 232.083 232.012 232.283 231.442C232.483 230.872 232.953 230.462 233.333 230.512C233.703 230.562 233.843 231.062 233.643 231.632Z" fill="white"/>
<path d="M245.781 285.521L248.061 294.861L251.321 293.701L250.361 284.221L245.781 285.521Z" fill="#C95B51"/>
<path d="M251.581 293.171L247.621 293.241C247.451 293.241 247.301 293.361 247.271 293.531L246.521 297.241C246.451 297.571 246.661 297.891 246.991 297.961C247.031 297.961 247.081 297.971 247.121 297.971C248.761 297.911 250.211 297.791 252.251 297.761C254.661 297.721 254.051 298.021 256.881 298.001C258.591 298.001 258.861 296.051 258.141 295.961C254.821 295.601 253.871 294.621 252.571 293.461C252.291 293.241 251.931 293.131 251.581 293.151V293.171Z" fill="#1A2E35"/>
<path opacity="0.1" d="M250.921 289.721L250.361 284.221L245.781 285.521L247.091 290.921L250.921 289.721Z" fill="black"/>
<path d="M214.08 240.301L219.31 238.291C219.31 238.291 222.06 241.321 223.76 244.931C225.47 248.541 217.25 248.541 217.25 248.541L214.66 243.691L214.07 240.301H214.08Z" fill="#007CFF"/>
<path opacity="0.3" d="M214.08 240.301L219.31 238.291C219.31 238.291 222.06 241.321 223.76 244.931C225.47 248.541 217.25 248.541 217.25 248.541L214.66 243.691L214.07 240.301H214.08Z" fill="black"/>
<path opacity="0.2" d="M217.118 239.131C218.598 247.311 221.248 245.851 221.248 245.851L220.088 247.561L216.948 247.961L214.668 243.691L214.078 240.301L217.118 239.131Z" fill="black"/>
<path d="M263.199 268.561L270.509 277.281L273.089 275.341L266.669 265.641L263.199 268.561Z" fill="#C95B51"/>
<path d="M271.791 272.911L268.651 275.351C268.511 275.451 268.461 275.631 268.531 275.791L270.021 279.271C270.151 279.581 270.511 279.731 270.821 279.601C270.861 279.581 270.901 279.561 270.931 279.541C272.241 278.561 273.381 277.641 275.041 276.451C277.001 275.051 276.671 275.641 278.991 274.021C280.391 273.041 279.511 271.291 278.871 271.631C275.941 273.221 274.521 272.821 272.801 272.611C272.441 272.591 272.091 272.701 271.801 272.921L271.791 272.911Z" fill="#1A2E35"/>
<path opacity="0.1" d="M267.189 273.311L270.289 271.111L266.669 265.641L263.199 268.561L267.189 273.311Z" fill="black"/>
<path d="M203.47 243.831C203.47 243.831 201.57 254.781 205.35 261.861C209.13 268.941 217.52 270.231 239.08 247.391C239.08 247.391 246.66 250.921 264.91 271.501L268.97 268.361C268.97 268.361 253.09 242.561 245.41 236.431C237.66 230.251 220.7 247.521 218.54 246.561C216.62 245.711 215.71 239.751 215.71 239.751L203.47 243.831Z" fill="#007CFF"/>
<path opacity="0.3" d="M203.47 243.831C203.47 243.831 201.57 254.781 205.35 261.861C209.13 268.941 217.52 270.231 239.08 247.391C239.08 247.391 246.66 250.921 264.91 271.501L268.97 268.361C268.97 268.361 253.09 242.561 245.41 236.431C237.66 230.251 220.7 247.521 218.54 246.561C216.62 245.711 215.71 239.751 215.71 239.751L203.47 243.831Z" fill="black"/>
<path d="M263.621 271.48L265.301 272.97L270.091 268.99L269.271 266.85L263.621 271.48Z" fill="#007CFF"/>
<path d="M222.84 262.041C227.2 259.041 232.53 254.341 239.09 247.391C239.09 247.391 245.32 245.091 247.51 249.541C249.7 253.991 251.1 286.191 251.1 286.191L245.91 287.691C245.91 287.691 236.63 258.631 236.68 256.721L222.84 262.051V262.041Z" fill="#007CFF"/>
<path opacity="0.4" d="M222.84 262.041C227.2 259.041 232.53 254.341 239.09 247.391C239.09 247.391 245.32 245.091 247.51 249.541C249.7 253.991 251.1 286.191 251.1 286.191L245.91 287.691C245.91 287.691 236.63 258.631 236.68 256.721L222.84 262.051V262.041Z" fill="black"/>
<path opacity="0.2" d="M247.511 249.541C247.111 248.721 246.571 248.141 245.961 247.721C247.811 248.701 250.421 251.061 250.731 256.681C249.991 255.981 249.301 255.341 248.631 254.741C248.291 252.231 247.911 250.351 247.511 249.541Z" fill="black"/>
<path opacity="0.2" d="M239.078 247.391C239.078 247.391 240.028 247.041 241.318 246.881C240.568 248.321 237.848 253.201 232.808 258.201L222.828 262.041C227.188 259.041 232.518 254.341 239.078 247.391Z" fill="black"/>
<path d="M244.98 287.101L245.64 289.211L251.67 287.421L251.74 285.141L244.98 287.101Z" fill="#007CFF"/>
<path d="M220.902 239.741C220.902 239.741 219.352 242.261 202.932 244.761C202.932 244.761 203.652 239.691 201.922 232.431C200.192 225.171 193.772 218.341 200.032 216.581C206.292 214.821 217.102 211.191 218.032 215.121C218.962 219.051 220.652 220.761 220.582 223.891C220.512 227.021 218.232 229.291 220.902 239.741Z" fill="#1A2E35"/>
<path d="M241.062 231.66C241.152 231.33 241.112 230.99 240.952 230.68C240.702 230.2 240.262 229.58 239.652 229.65C238.662 229.75 238.392 230.46 238.142 231.39C237.892 232.32 237.102 233.96 238.002 234.53C238.862 235.07 240.182 234.78 241.062 231.67V231.66Z" fill="#C95B51"/>
<path d="M203.67 215.561C203.67 215.561 212.41 216.061 211.89 213.581C211.89 213.581 210.19 212.801 210.52 211.881C210.85 210.961 206.35 211.911 204.59 211.661C203.87 211.561 204.33 212.491 204.28 213.501C204.23 214.511 203.66 215.571 203.66 215.571L203.67 215.561Z" fill="#1A2E35"/>
<path opacity="0.6" d="M202.289 234.13L208.679 234.05L210.849 232.57L213.309 231.48L213.629 232.35C213.629 232.35 205.999 241.23 203.049 240.45C202.979 238.74 202.769 236.59 202.289 234.13Z" fill="black"/>
<path opacity="0.6" d="M207.699 232.311C207.699 232.311 205.249 233.051 204.829 231.271C204.229 228.701 202.439 221.561 200.619 218.821C198.639 215.821 202.539 230.141 202.539 230.141L203.409 233.161L204.779 235.011L207.739 232.911L207.709 232.311H207.699Z" fill="black"/>
<path opacity="0.6" d="M212.17 214.701C212.17 214.701 212.47 216.371 205.91 216.221C205.91 216.221 213.56 218.051 212.17 214.701Z" fill="black"/>
<path d="M218.289 228.659L218.199 227.949L217.699 228.239L218.289 228.659Z" fill="#1A2E35"/>
<path opacity="0.7" d="M218.289 228.659L218.199 227.949L217.699 228.239L218.289 228.659Z" fill="white"/>
<path d="M212.309 219.87L212.389 219.41L212.919 219.1L213.359 219.24L218.129 227.2L218.239 227.97L217.709 228.29L217.079 227.83L212.309 219.87Z" fill="#1A2E35"/>
<path opacity="0.6" d="M212.309 219.87L212.389 219.41L212.919 219.1L213.359 219.24L218.129 227.2L218.239 227.97L217.709 228.29L217.079 227.83L212.309 219.87Z" fill="white"/>
<path opacity="0.5" d="M212.941 219.723L212.418 220.037L217.061 227.782L217.584 227.469L212.941 219.723Z" fill="white"/>
<path d="M198.519 217.001C196.289 217.631 196.149 220.651 198.179 228.061C200.209 235.471 201.699 240.211 205.629 238.421C209.559 236.641 214.099 231.861 214.099 231.861L212.129 228.651C212.129 228.651 205.729 234.161 204.379 233.111C203.039 232.061 201.929 216.031 198.509 216.991L198.519 217.001Z" fill="#1A2E35"/>
<path d="M211.289 229.93L213.999 227.65C213.999 227.65 213.599 223.1 215.069 223.04C216.279 222.99 217.239 224.44 217.459 226.42C217.679 228.4 215.449 229.63 215.449 229.63L212.829 232.53L211.289 229.93Z" fill="#C95B51"/>
<path d="M155.81 186.17C155.81 186.17 161.9 182.42 165.07 187.8C167.32 191.62 166.07 195.46 167.86 198.57C170.64 203.41 168.79 205.73 164.62 206.59C160.46 207.46 153.77 207.34 154.7 202.48C155.65 197.51 151 186.09 155.81 186.16V186.17Z" fill="#1A2E35"/>
<path d="M162.459 197C162.459 197 162.959 204.13 164.299 204.25C164.299 204.25 161.159 205.82 158.079 204.25L157.859 200.97L162.459 197Z" fill="#FCB373"/>
<path d="M133.071 297.751H130.621L131.391 259.711H134.661L133.071 297.751Z" fill="#007CFF"/>
<path opacity="0.7" d="M133.071 297.751H130.621L131.391 259.711H134.661L133.071 297.751Z" fill="white"/>
<path d="M153.159 297.751H150.719L151.489 259.711H154.759L153.159 297.751Z" fill="#007CFF"/>
<path d="M173.25 297.751H175.7L174.92 259.711H171.66L173.25 297.751Z" fill="#007CFF"/>
<g opacity="0.4">
<path d="M173.25 297.751H175.7L174.92 259.711H171.66L173.25 297.751Z" fill="white"/>
</g>
<path d="M173.421 259.711H133.211V263.271H173.421V259.711Z" fill="#007CFF"/>
<path opacity="0.5" d="M173.421 259.711H133.211V263.271H173.421V259.711Z" fill="white"/>
<path d="M153.149 297.751H155.599L154.829 259.711H151.559L153.149 297.751Z" fill="#007CFF"/>
<path opacity="0.7" d="M153.149 297.751H155.599L154.829 259.711H151.559L153.149 297.751Z" fill="white"/>
<path d="M175.859 214.65H169.199C165.699 214.65 161.989 216.46 161.009 219.81C158.229 229.3 156.129 259.05 156.129 259.05H173.959C176.129 259.05 177.939 257.42 178.179 255.27L181.919 221.41C182.319 217.8 179.489 214.65 175.859 214.65Z" fill="#1A2E35"/>
<path opacity="0.6" d="M175.859 214.65H169.199C165.699 214.65 161.989 216.46 161.009 219.81C158.229 229.3 156.129 259.05 156.129 259.05H173.959C176.129 259.05 177.939 257.42 178.179 255.27L181.919 221.41C182.319 217.8 179.489 214.65 175.859 214.65Z" fill="white"/>
<path d="M171.8 214.651H165.14C161.64 214.651 157.93 216.461 156.95 219.811C154.17 229.301 152.07 259.051 152.07 259.051H169.28C171.8 259.051 173.91 257.161 174.19 254.651L177.86 221.401C178.26 217.791 175.43 214.641 171.8 214.641V214.651Z" fill="#1A2E35"/>
<path opacity="0.5" d="M171.8 214.651H165.14C161.64 214.651 157.93 216.461 156.95 219.811C154.17 229.301 152.07 259.051 152.07 259.051H169.28C171.8 259.051 173.91 257.161 174.19 254.651L177.86 221.401C178.26 217.791 175.43 214.641 171.8 214.641V214.651Z" fill="white"/>
<path d="M158.32 259.71H132.26C129.86 259.71 127.91 257.76 127.91 255.36C127.91 252.96 129.86 251.01 132.26 251.01H158.32V259.71Z" fill="#1A2E35"/>
<path opacity="0.5" d="M158.32 259.71H132.26C129.86 259.71 127.91 257.76 127.91 255.36C127.91 252.96 129.86 251.01 132.26 251.01H158.32V259.71Z" fill="white"/>
<path d="M174.252 259.71H157.422C155.122 259.71 153.262 257.85 153.262 255.55V255.17C153.262 252.87 155.122 251.01 157.422 251.01H174.252C176.652 251.01 178.602 252.96 178.602 255.36C178.602 257.76 176.652 259.71 174.252 259.71Z" fill="#1A2E35"/>
<path opacity="0.6" d="M174.252 259.71H157.422C155.122 259.71 153.262 257.85 153.262 255.55V255.17C153.262 252.87 155.122 251.01 157.422 251.01H174.252C176.652 251.01 178.602 252.96 178.602 255.36C178.602 257.76 176.652 259.71 174.252 259.71Z" fill="white"/>
<path d="M149.81 213.791C149.81 213.791 150.39 220.121 147.4 222.801C144.68 225.241 140.29 226.441 140.29 226.441L136.42 225.311C136.05 225.201 135.66 225.311 135.42 225.601L133.69 227.701C133.34 228.121 133.43 228.761 133.89 229.111C134.1 229.271 134.37 229.351 134.63 229.321L136.63 229.071C136.63 229.071 138.47 229.411 139.07 229.361C139.55 229.321 140.89 228.851 140.89 228.851C140.89 228.851 147.79 228.261 150.74 225.311C153.69 222.361 154.42 216.251 154.42 216.251L149.8 213.781L149.81 213.791Z" fill="#FCB373"/>
<path d="M129.469 281.221L129.919 295.071H133.019L134.469 280.971L129.469 281.221Z" fill="#FCB373"/>
<path d="M129.88 293.65L133.41 293.67C133.56 293.67 133.7 293.78 133.73 293.93L134.46 297.25C134.53 297.54 134.34 297.84 134.05 297.9C134.01 297.9 133.97 297.91 133.93 297.91C132.46 297.88 131.15 297.8 129.32 297.8C127.16 297.8 127.71 298.06 125.16 298.09C123.63 298.11 123.35 296.36 124 296.28C126.97 295.91 127.83 295.01 128.98 293.95C129.23 293.75 129.55 293.64 129.87 293.66L129.88 293.65Z" fill="#1A2E35"/>
<path opacity="0.1" d="M133.339 292.031L133.689 288.641H129.719L129.829 292.031H133.339Z" fill="#1A2E35"/>
<path d="M165.76 229.18C165.76 229.18 175.42 251.12 166.14 251.12H139.37C139.37 251.12 138.21 256.96 134.04 289.03H129.56C129.56 289.03 128.81 251.46 131.29 245.86C133.23 241.47 145.66 238.33 151.55 237.18C153.13 236.87 154.34 235.59 154.56 233.99L155.87 228.6L165.77 229.18H165.76Z" fill="#1A2E35"/>
<path opacity="0.2" d="M165.76 229.18C165.76 229.18 175.42 251.12 166.14 251.12H139.37C139.37 251.12 138.21 256.96 134.04 289.03H129.56C129.56 289.03 128.81 251.46 131.29 245.86C133.23 241.47 145.66 238.33 151.55 237.18C153.13 236.87 154.34 235.59 154.56 233.99L155.87 228.6L165.77 229.18H165.76Z" fill="black"/>
<path d="M128.699 288.271L129.059 290.701H134.379L134.879 288.271H128.699Z" fill="#1A2E35"/>
<path opacity="0.2" d="M128.699 288.271L129.059 290.701H134.379L134.879 288.271H128.699Z" fill="white"/>
<path d="M138.781 281.23L139.301 294.89H142.271L144.401 280.98L138.781 281.23Z" fill="#FCB373"/>
<path opacity="0.1" d="M142.71 292.031L143.23 288.641H139.07L139.19 292.031H142.71Z" fill="#1A2E35"/>
<path d="M139.368 293.65L142.898 293.67C143.048 293.67 143.188 293.78 143.218 293.93L143.948 297.25C144.018 297.54 143.828 297.84 143.538 297.9C143.498 297.9 143.458 297.91 143.418 297.91C141.948 297.88 140.638 297.8 138.808 297.8C136.648 297.8 137.198 298.06 134.648 298.09C133.118 298.11 132.838 296.36 133.488 296.28C136.458 295.91 137.318 295.01 138.468 293.95C138.718 293.75 139.038 293.64 139.358 293.66L139.368 293.65Z" fill="#1A2E35"/>
<path d="M170.641 229.561C170.641 229.561 171.331 229.561 172.381 234.741C173.711 241.331 175.621 251.121 169.311 251.121H148.821C148.821 251.121 147.821 253.501 143.461 289.031H138.981C138.981 289.031 136.491 251.011 138.971 245.401C140.881 241.081 150.361 239.111 155.571 238.431C157.061 238.241 158.291 237.041 158.331 235.541C158.371 233.981 158.141 229.281 158.141 229.281L170.641 229.551V229.561Z" fill="#1A2E35"/>
<path d="M138.078 288.271L138.598 290.701H143.758L144.248 288.271H138.078Z" fill="#1A2E35"/>
<path opacity="0.2" d="M138.078 288.271L138.598 290.701H143.758L144.248 288.271H138.078Z" fill="white"/>
<path d="M153.11 204.29C150.61 203.91 149.2 210.06 149.07 215.86L154.99 217.25C154.99 217.25 157.77 204.99 153.1 204.29H153.11Z" fill="#007CFF"/>
<path opacity="0.1" d="M153.11 204.29C150.61 203.91 149.2 210.06 149.07 215.86L154.99 217.25C154.99 217.25 157.77 204.99 153.1 204.29H153.11Z" fill="black"/>
<path d="M154.691 232.311C154.691 232.311 154.551 228.201 153.741 222.991C152.801 217.021 151.191 210.311 151.741 206.061C151.891 204.911 152.821 204.121 154.001 204.121H170.201C171.231 204.121 172.121 205.091 172.001 206.091C171.441 210.641 170.041 221.971 172.181 232.661C172.181 232.661 159.801 233.651 154.691 232.301V232.311Z" fill="#007CFF"/>
<path d="M168.74 212.24C168.74 212.24 169.82 219.61 166.57 221.68C163.32 223.76 156.22 225.91 156.22 225.91L151.83 224.98C151.6 224.93 151.36 225.03 151.24 225.22L149.48 228.06C149.35 228.27 149.38 228.54 149.54 228.74C149.67 228.9 149.87 228.98 150.07 228.96L152.73 228.68C152.73 228.68 154.11 229 154.58 228.99C155.17 228.97 156.86 228.45 156.86 228.45C156.86 228.45 167.01 227.46 170.11 224.36C173.21 221.26 173.61 214.83 173.61 214.83L168.75 212.23L168.74 212.24Z" fill="#FCB373"/>
<path d="M170.77 204.271C167.62 203.891 168.45 210.941 168.07 215.871L173.96 216.531C173.96 216.531 175.45 204.831 170.77 204.271Z" fill="#007CFF"/>
<path opacity="0.1" d="M170.77 204.271C167.62 203.891 168.45 210.941 168.07 215.871L173.96 216.531C173.96 216.531 175.45 204.831 170.77 204.271Z" fill="black"/>
<path d="M157.558 204.59C157.558 204.59 156.948 209.85 163.898 205.16C164.338 204.86 164.498 204.29 164.278 203.81C164.038 203.29 163.788 202.56 163.778 201.73C163.778 201.27 163.238 201 162.858 201.26C161.878 201.93 160.288 202.65 158.138 202.47C157.708 202.44 157.388 202.83 157.498 203.24C157.608 203.63 157.668 204.11 157.558 204.58V204.59Z" fill="#007CFF"/>
<path opacity="0.1" d="M157.558 204.59C157.558 204.59 156.948 209.85 163.898 205.16C164.338 204.86 164.498 204.29 164.278 203.81C164.038 203.29 163.788 202.56 163.778 201.73C163.778 201.27 163.238 201 162.858 201.26C161.878 201.93 160.288 202.65 158.138 202.47C157.708 202.44 157.388 202.83 157.498 203.24C157.608 203.63 157.668 204.11 157.558 204.58V204.59Z" fill="black"/>
<path opacity="0.1" d="M162.549 198.03C162.489 197.41 162.459 197 162.459 197L157.859 200.97L157.969 202.7C159.299 202.6 161.229 201.74 162.539 198.03H162.549Z" fill="black"/>
<path d="M162.831 191.28C163.201 195.34 163.451 197.05 161.731 199.42C159.151 202.99 154.091 202.56 152.511 198.7C151.091 195.22 150.721 189.17 154.411 186.97C157.041 185.38 160.451 186.22 162.041 188.85C162.491 189.59 162.761 190.42 162.831 191.29V191.28Z" fill="#FCB373"/>
<path d="M154.29 195.121C154.13 195.921 153.87 196.691 153.5 197.411C153.88 197.591 154.32 197.601 154.7 197.421L154.29 195.121Z" fill="#EC873E"/>
<path d="M156.81 192.561C156.81 192.561 156.86 192.531 156.88 192.511C156.93 192.441 156.92 192.341 156.85 192.281C156.37 191.891 155.74 191.761 155.14 191.931C155.06 191.961 155.01 192.051 155.04 192.141C155.07 192.221 155.16 192.271 155.24 192.241C155.73 192.111 156.26 192.221 156.65 192.541C156.7 192.571 156.75 192.581 156.81 192.561Z" fill="#263237"/>
<path d="M151.179 193.421C151.179 193.421 151.119 193.411 151.099 193.391C151.029 193.341 151.009 193.241 151.059 193.171C151.389 192.651 151.959 192.331 152.569 192.311C152.659 192.311 152.729 192.391 152.729 192.481C152.729 192.571 152.659 192.641 152.569 192.641C152.059 192.671 151.599 192.941 151.329 193.371C151.299 193.421 151.239 193.441 151.189 193.441L151.179 193.421Z" fill="#263237"/>
<path d="M156.492 194.171C156.552 194.491 156.422 194.791 156.212 194.831C155.992 194.871 155.782 194.641 155.722 194.311C155.662 193.981 155.792 193.691 156.002 193.651C156.212 193.611 156.432 193.841 156.492 194.171Z" fill="#263237"/>
<path d="M152.8 194.831C152.86 195.151 152.73 195.451 152.52 195.491C152.31 195.531 152.09 195.301 152.03 194.971C151.97 194.641 152.1 194.351 152.31 194.311C152.52 194.271 152.75 194.501 152.8 194.831Z" fill="#263237"/>
<path d="M152.41 194.31L151.59 194.23C151.59 194.23 152.1 194.77 152.41 194.31Z" fill="#263237"/>
<path d="M156.101 193.65L155.281 193.57C155.281 193.57 155.791 194.11 156.101 193.65Z" fill="#263237"/>
<path d="M164.271 194.321C164.161 195.101 163.751 195.811 163.121 196.281C162.281 196.901 161.491 196.241 161.411 195.261C161.341 194.371 161.691 192.981 162.681 192.741C163.411 192.591 164.121 193.061 164.271 193.791C164.311 193.961 164.311 194.141 164.271 194.321Z" fill="#FCB373"/>
<path d="M155.819 199.08C155.699 199.12 155.579 199.14 155.459 199.16C155.419 199.16 155.379 199.14 155.379 199.1C155.379 199.06 155.409 199.02 155.449 199.02C156.069 198.94 156.619 198.57 156.919 198.02C156.939 197.98 156.979 197.97 157.019 197.98C157.059 198 157.069 198.04 157.059 198.08C156.799 198.57 156.359 198.93 155.839 199.08H155.819Z" fill="#1A2E35"/>
<path d="M157.298 188.431C157.298 188.431 156.188 190.161 157.048 191.381C157.908 192.591 152.068 190.051 150.558 192.711C150.558 192.711 148.648 184.501 157.298 185.601V188.431Z" fill="#1A2E35"/>
<path d="M157.051 187.91C157.051 187.91 156.401 191.2 158.541 192.22C160.681 193.23 160.621 195.95 162.551 195.5C165.331 194.84 163.341 186.42 158.841 185.5C155.501 184.82 157.051 187.91 157.051 187.91Z" fill="#1A2E35"/>
<path d="M96.4088 298.33H94.0187L92.9688 235H97.4587L96.4088 298.33Z" fill="#007CFF"/>
<path opacity="0.7" d="M96.4088 298.33H94.0187L92.9688 235H97.4587L96.4088 298.33Z" fill="white"/>
<path d="M122.819 298.33H120.429L119.379 235H123.869L122.819 298.33Z" fill="#007CFF"/>
<path opacity="0.4" d="M122.819 298.33H120.429L119.379 235H123.869L122.819 298.33Z" fill="white"/>
<path d="M140.369 233.941H95.2188V238.891H140.369V233.941Z" fill="#007CFF"/>
<path opacity="0.3" d="M140.369 233.941H95.2188V238.891H140.369V233.941Z" fill="white"/>
<path d="M166.851 233.941H140.371V238.891H166.851V233.941Z" fill="#007CFF"/>
<path opacity="0.5" d="M166.851 233.941H140.371V238.891H166.851V233.941Z" fill="white"/>
<path d="M167.979 298.33H165.589L164.539 235H169.029L167.979 298.33Z" fill="#007CFF"/>
<path opacity="0.4" d="M167.979 298.33H165.589L164.539 235H169.029L167.979 298.33Z" fill="white"/>
<path d="M170.019 230.75H135.609C134.643 230.75 133.859 231.534 133.859 232.5V233.25C133.859 234.216 134.643 235 135.609 235H170.019C170.986 235 171.769 234.216 171.769 233.25V232.5C171.769 231.534 170.986 230.75 170.019 230.75Z" fill="#1A2E35"/>
<path opacity="0.6" d="M170.019 230.75H135.609C134.643 230.75 133.859 231.534 133.859 232.5V233.25C133.859 234.216 134.643 235 135.609 235H170.019C170.986 235 171.769 234.216 171.769 233.25V232.5C171.769 231.534 170.986 230.75 170.019 230.75Z" fill="white"/>
<path d="M138.01 230.75H91C90.0335 230.75 89.25 231.534 89.25 232.5V233.25C89.25 234.216 90.0335 235 91 235H138.01C138.976 235 139.76 234.216 139.76 233.25V232.5C139.76 231.534 138.976 230.75 138.01 230.75Z" fill="#1A2E35"/>
<path opacity="0.5" d="M138.01 230.75H91C90.0335 230.75 89.25 231.534 89.25 232.5V233.25C89.25 234.216 90.0335 235 91 235H138.01C138.976 235 139.76 234.216 139.76 233.25V232.5C139.76 231.534 138.976 230.75 138.01 230.75Z" fill="white"/>
<path d="M141.571 298.33H139.171L138.121 235H142.611L141.571 298.33Z" fill="#007CFF"/>
<path opacity="0.7" d="M141.571 298.33H139.171L138.121 235H142.611L141.571 298.33Z" fill="white"/>
<path d="M136.589 230.752C136.199 230.752 135.879 230.432 135.879 230.042C135.879 229.652 136.199 229.332 136.589 229.332H155.809C156.199 229.332 156.519 229.652 156.519 230.042C156.519 230.432 156.199 230.752 155.809 230.752H136.589Z" fill="#007CFF"/>
<path opacity="0.2" d="M136.589 230.752C136.199 230.752 135.879 230.432 135.879 230.042C135.879 229.652 136.199 229.332 136.589 229.332H155.809C156.199 229.332 156.519 229.652 156.519 230.042C156.519 230.432 156.199 230.752 155.809 230.752H136.589Z" fill="black"/>
<path d="M138.23 229.531L135.67 211.321C135.58 210.651 134.96 210.111 134.29 210.111H131.84V230.741H137.19C137.86 230.741 138.33 230.201 138.23 229.531Z" fill="#007CFF"/>
<path d="M136.13 230.751H114.4C113.73 230.751 113.11 230.211 113.02 229.541L110.46 211.331C110.37 210.661 110.83 210.121 111.5 210.121H133.23C133.9 210.121 134.52 210.661 134.61 211.331L137.17 229.541C137.26 230.211 136.8 230.751 136.13 230.751Z" fill="#007CFF"/>
<path opacity="0.7" d="M136.13 230.751H114.4C113.73 230.751 113.11 230.211 113.02 229.541L110.46 211.331C110.37 210.661 110.83 210.121 111.5 210.121H133.23C133.9 210.121 134.52 210.661 134.61 211.331L137.17 229.541C137.26 230.211 136.8 230.751 136.13 230.751Z" fill="white"/>
<path opacity="0.7" d="M124.87 219.93C124.96 220.54 124.53 221.04 123.92 221.04C123.31 221.04 122.74 220.54 122.66 219.93C122.57 219.32 123 218.82 123.61 218.82C124.22 218.82 124.79 219.32 124.87 219.93Z" fill="white"/>
<path d="M59.6506 225.47C57.0406 240.7 75.2306 232.72 82.4706 232.9C82.9306 232.91 83.3806 233.01 83.8206 233.17L86.0606 242.83L83.8906 252.84L78.8206 260.86H47.2606L24.4406 245.42L18.6406 227.31L20.2706 197.96L20.9906 193.25C20.9906 193.25 21.7106 199.05 37.6606 197.6C53.6006 196.15 66.1006 191.01 69.7206 196.15C74.0706 202.31 61.3806 215.41 59.6506 225.48V225.47Z" fill="#007CFF"/>
<path opacity="0.2" d="M83.3516 250.401V256.101L74.2516 259.771L56.3116 258.821L51.6016 252.841L53.6016 249.721H65.1416L83.3516 250.401Z" fill="black"/>
<path d="M54.3394 269.051H48.8594V294.001H54.3394V269.051Z" fill="#1A2E35"/>
<path opacity="0.5" d="M54.3394 269.051H48.8594V294.001H54.3394V269.051Z" fill="white"/>
<path d="M55.7592 291.73H47.4392L30.4492 294.95V297.78H33.9492L47.4392 295.23H55.7592L69.2492 297.78H72.7392V294.95L55.7592 291.73Z" fill="#1A2E35"/>
<path opacity="0.3" d="M55.7592 291.73H47.4392L30.4492 294.95V297.78H33.9492L47.4392 295.23H55.7592L69.2492 297.78H72.7392V294.95L55.7592 291.73Z" fill="white"/>
<path d="M69.2509 299.011H72.7509C73.8409 299.011 73.8509 297.311 72.7509 297.311H69.2509C68.1609 297.311 68.1509 299.011 69.2509 299.011Z" fill="#007CFF"/>
<path d="M30.4502 299.011H33.9502C35.0402 299.011 35.0502 297.311 33.9502 297.311H30.4502C29.3602 297.311 29.3502 299.011 30.4502 299.011Z" fill="#007CFF"/>
<path opacity="0.2" d="M54.3394 269.051H48.8594V274.701H54.3394V269.051Z" fill="black"/>
<path d="M81.2297 253.941H48.4297V246.871H81.2297C83.1797 246.871 84.7697 248.451 84.7697 250.411C84.7697 252.361 83.1897 253.951 81.2297 253.951V253.941Z" fill="#007CFF"/>
<path opacity="0.1" d="M81.2297 253.941H48.4297V246.871H81.2297C83.1797 246.871 84.7697 248.451 84.7697 250.411C84.7697 252.361 83.1897 253.951 81.2297 253.951V253.941Z" fill="black"/>
<path d="M53.7485 202.811C53.7485 202.811 57.9485 214.591 61.3785 214.851C64.8085 215.121 69.0185 208.801 69.0185 208.801L70.7285 204.351L74.1785 204.061V209.651L70.6385 211.431C70.6385 211.431 65.2185 220.331 61.0185 220.111C56.8085 219.891 52.5685 213.381 51.7085 210.061C51.2385 208.241 51.5485 204.441 53.7485 202.811Z" fill="#FFC3BD"/>
<path d="M74.9217 212.51L76.1717 202.22L71.4117 201.9L71.2617 212.26L74.9217 212.51Z" fill="#1A2E35"/>
<path opacity="0.5" d="M74.9217 212.51L76.1717 202.22L71.4117 201.9L71.2617 212.26L74.9217 212.51Z" fill="white"/>
<path d="M76.2592 200.746L71.5 200.426L71.4006 201.902L76.1599 202.223L76.2592 200.746Z" fill="#007CFF"/>
<path d="M71.9633 199.44L75.9443 199.708C76.1638 199.723 76.322 199.904 76.3073 200.123L76.265 200.752L71.5057 200.432L71.548 199.803C71.5628 199.584 71.7438 199.425 71.9633 199.44Z" fill="#1A2E35"/>
<path d="M52.6495 213.181C52.6495 213.181 48.1495 205.751 51.0195 202.221C53.8995 198.701 58.2895 210.321 58.2895 210.321L52.6395 213.181H52.6495Z" fill="#007CFF"/>
<path opacity="0.3" d="M52.6495 213.181C52.6495 213.181 48.1495 205.751 51.0195 202.221C53.8995 198.701 58.2895 210.321 58.2895 210.321L52.6395 213.181H52.6495Z" fill="white"/>
<path d="M51.7695 212.65L52.6295 213.91L58.9395 210.65L58.3495 209.33L51.7695 212.65Z" fill="#007CFF"/>
<path opacity="0.1" d="M51.7695 212.65L52.6295 213.91L58.9395 210.65L58.3495 209.33L51.7695 212.65Z" fill="white"/>
<path d="M30.0787 241.611C30.0787 241.611 24.4286 221.861 31.0486 202.221C31.0486 202.221 39.6386 198.221 51.8886 201.151C53.2886 201.491 54.1487 202.911 53.7887 204.311C52.5587 209.071 50.6687 220.431 55.2387 234.791C55.2387 234.791 44.4986 241.331 30.0787 241.611Z" fill="#007CFF"/>
<path opacity="0.5" d="M30.0787 241.611C30.0787 241.611 24.4286 221.861 31.0486 202.221C31.0486 202.221 39.6386 198.221 51.8886 201.151C53.2886 201.491 54.1487 202.911 53.7887 204.311C52.5587 209.071 50.6687 220.431 55.2387 234.791C55.2387 234.791 44.4986 241.331 30.0787 241.611Z" fill="white"/>
<path d="M40.8203 200.171L44.9703 203.761L47.3803 201.631C46.4703 200.951 46.7203 199.421 47.2303 197.771L41.3503 193.131C41.6503 195.311 41.8703 198.301 40.8303 200.171H40.8203Z" fill="#FFC3BD"/>
<path d="M71.0011 246.529L78.6411 249.639L77.7811 252.869L69.6211 251.189L71.0011 246.529Z" fill="#FFC3BD"/>
<path d="M44.9016 235.5C44.9016 235.5 81.4816 222.83 84.4916 234.47C87.5116 246.11 59.7916 254.14 45.2616 253.65C30.7416 253.16 44.8916 235.5 44.8916 235.5H44.9016Z" fill="#1A2E35"/>
<path opacity="0.3" d="M44.9016 235.5C44.9016 235.5 81.4816 222.83 84.4916 234.47C87.5116 246.11 59.7916 254.14 45.2616 253.65C30.7416 253.16 44.8916 235.5 44.8916 235.5H44.9016Z" fill="black"/>
<path opacity="0.7" d="M72.092 236.679L54.342 247.989L57.172 252.639C57.172 252.639 55.452 253.209 53.082 247.529L64.072 240.269C64.072 240.269 60.632 239.919 60.722 239.389C60.862 238.509 68.412 236.829 71.862 236.099C72.212 236.029 72.392 236.489 72.092 236.679Z" fill="black"/>
<path opacity="0.7" d="M53.7005 247.491L56.7805 252.711C52.6005 253.431 48.5905 253.771 45.2705 253.651C43.7205 253.601 42.5005 253.351 41.5605 252.951L40.4805 250.881L42.8105 245.971L53.7105 247.491H53.7005Z" fill="black"/>
<path d="M54.0125 248.289L50.5625 251.189L52.1425 253.649L57.4025 252.829L54.0125 248.289Z" fill="#FFC3BD"/>
<path d="M58.3298 252.92L54.7198 247.23L53.0898 248.39L56.2098 253.3L58.3298 252.92Z" fill="#1A2E35"/>
<path opacity="0.3" d="M58.3298 252.92L54.7198 247.23L53.0898 248.39L56.2098 253.3L58.3298 252.92Z" fill="white"/>
<path d="M32.0506 247.62C30.0806 244.28 26.2906 234.25 35.4106 232.5C44.5406 230.75 74.5206 247.62 74.5206 247.62L73.1206 252.01L44.7306 247.33C44.7306 247.33 52.6206 254.47 43.9906 253.59C37.1406 252.89 33.9506 250.87 32.0406 247.63L32.0506 247.62Z" fill="#1A2E35"/>
<path d="M73.7917 246.529L72.0117 252.259L73.7917 252.499L75.3917 247.549L73.7917 246.529Z" fill="#1A2E35"/>
<path opacity="0.3" d="M73.7917 246.529L72.0117 252.259L73.7917 252.499L75.3917 247.549L73.7917 246.529Z" fill="white"/>
<path d="M53.1601 253.53L51.9101 249.74C51.8601 249.6 51.7201 249.51 51.5701 249.52L48.2601 249.85C47.9701 249.88 47.7501 250.14 47.7801 250.43C47.7801 250.47 47.7901 250.51 47.8001 250.54C48.2701 251.9 48.7501 253.09 49.3001 254.79C49.9601 256.8 49.5501 256.37 50.2901 258.74C50.7401 260.17 52.4401 259.9 52.3201 259.27C51.7601 256.4 52.5001 255.84 53.1401 254.45C53.2501 254.16 53.2601 253.83 53.1401 253.54L53.1601 253.53Z" fill="#1A2E35"/>
<path d="M77.9616 249.429L76.6816 253.319C76.6316 253.469 76.6916 253.629 76.8216 253.709L79.7516 255.459C80.0116 255.619 80.3516 255.529 80.5016 255.279C80.5216 255.249 80.5416 255.209 80.5516 255.169C80.9916 253.759 81.3216 252.489 81.9016 250.739C82.5816 248.679 82.6516 249.279 83.4916 246.869C83.9916 245.419 82.4216 244.599 82.1316 245.189C80.8416 247.909 79.8816 247.919 78.5116 248.679C78.2416 248.849 78.0416 249.119 77.9516 249.429H77.9616Z" fill="#1A2E35"/>
<path d="M72.9498 236.49H56.4898C55.7098 236.49 55.0898 235.86 55.0898 235.09H74.3598C74.3598 235.87 73.7298 236.49 72.9598 236.49H72.9498Z" fill="#1A2E35"/>
<path opacity="0.2" d="M72.9498 236.49H56.4898C55.7098 236.49 55.0898 235.86 55.0898 235.09H74.3598C74.3598 235.87 73.7298 236.49 72.9598 236.49H72.9498Z" fill="white"/>
<path d="M60.8288 236.49H48.8687C48.0887 236.49 47.4688 235.86 47.4688 235.09H62.2287C62.2287 235.87 61.5988 236.49 60.8288 236.49Z" fill="#007CFF"/>
<path opacity="0.5" d="M60.8288 236.49H48.8687C48.0887 236.49 47.4688 235.86 47.4688 235.09H62.2287C62.2287 235.87 61.5988 236.49 60.8288 236.49Z" fill="white"/>
<path d="M73.0671 236.061H62.2371C62.0071 236.061 61.8471 235.831 61.9271 235.621L66.7471 221.851C66.8771 221.471 67.2371 221.221 67.6371 221.221H78.4671C78.6971 221.221 78.8571 221.451 78.7771 221.661L73.9571 235.431C73.8271 235.811 73.4671 236.061 73.0671 236.061Z" fill="#007CFF"/>
<path opacity="0.5" d="M73.0671 236.061H62.2371C62.0071 236.061 61.8471 235.831 61.9271 235.621L66.7471 221.851C66.8771 221.471 67.2371 221.221 67.6371 221.221H78.4671C78.6971 221.221 78.8571 221.451 78.7771 221.661L73.9571 235.431C73.8271 235.811 73.4671 236.061 73.0671 236.061Z" fill="white"/>
<path d="M73.489 236.061H62.659C62.429 236.061 62.269 235.831 62.349 235.621L67.169 221.851C67.299 221.471 67.659 221.221 68.059 221.221H78.889C79.119 221.221 79.279 221.451 79.199 221.661L74.379 235.431C74.249 235.811 73.889 236.061 73.489 236.061Z" fill="#007CFF"/>
<path opacity="0.7" d="M73.489 236.061H62.659C62.429 236.061 62.269 235.831 62.349 235.621L67.169 221.851C67.299 221.471 67.659 221.221 68.059 221.221H78.889C79.119 221.221 79.279 221.451 79.199 221.661L74.379 235.431C74.249 235.811 73.889 236.061 73.489 236.061Z" fill="white"/>
<path d="M71.6888 228.642C71.5788 229.172 71.2088 229.602 70.8788 229.602C70.5488 229.602 70.3588 229.172 70.4688 228.642C70.5788 228.112 70.9488 227.682 71.2788 227.682C71.6088 227.682 71.7988 228.112 71.6888 228.642Z" fill="white"/>
<path d="M35.4916 208.141C35.4916 208.141 38.1416 221.161 39.9216 223.321C41.7016 225.481 49.4816 231.291 49.4816 231.291L54.1016 230.321L57.4116 233.081L55.2516 234.791L52.6916 233.831C52.6916 233.831 50.8516 234.201 48.4616 234.201C46.0716 234.201 36.3816 228.501 34.4616 225.291C32.5416 222.091 29.8516 210.041 29.8516 210.041L35.5116 208.141H35.4916Z" fill="#FFC3BD"/>
<path d="M39.2891 200.261L40.9391 199.311L44.9691 203.771C44.9691 203.771 42.7491 202.871 42.1291 203.231C41.5691 203.561 41.9591 204.991 41.3091 205.001C39.8591 205.031 39.2891 200.271 39.2891 200.271V200.261Z" fill="#007CFF"/>
<path d="M44.9688 203.761L47.0687 199.611L48.7887 200.541C48.7887 200.541 50.3887 204.571 49.1687 204.991C48.4287 205.251 48.1388 203.361 47.3988 203.091C46.8088 202.871 44.9688 203.761 44.9688 203.761Z" fill="#007CFF"/>
<g opacity="0.2">
<path d="M39.2891 200.261L40.9391 199.311L44.9691 203.771C44.9691 203.771 42.7491 202.871 42.1291 203.231C41.5691 203.561 41.9591 204.991 41.3091 205.001C39.8591 205.031 39.2891 200.271 39.2891 200.271V200.261Z" fill="white"/>
<path d="M44.9688 203.761L47.0687 199.611L48.7887 200.541C48.7887 200.541 50.3887 204.571 49.1687 204.991C48.4287 205.251 48.1388 203.361 47.3988 203.091C46.8088 202.871 44.9688 203.761 44.9688 203.761Z" fill="white"/>
</g>
<path d="M30.0812 214.621C30.0812 214.621 27.0212 205.351 31.0512 202.221C35.0812 199.091 36.9712 212.901 36.9712 212.901L30.0712 214.621H30.0812Z" fill="#007CFF"/>
<path opacity="0.3" d="M30.0812 214.621C30.0812 214.621 27.0212 205.351 31.0512 202.221C35.0812 199.091 36.9712 212.901 36.9712 212.901L30.0712 214.621H30.0812Z" fill="white"/>
<path d="M29.2617 213.82L29.8717 215.41L37.6017 213.43L37.2917 211.84L29.2617 213.82Z" fill="#007CFF"/>
<path opacity="0.1" d="M29.2617 213.82L29.8717 215.41L37.6017 213.43L37.2917 211.84L29.2617 213.82Z" fill="white"/>
<path opacity="0.1" d="M41.4398 193.901C41.4098 193.631 41.3798 193.371 41.3398 193.131L47.2198 197.771C46.9998 198.481 46.8398 199.161 46.7898 199.771C43.2398 199.801 41.8898 195.871 41.4398 193.901Z" fill="black"/>
<path d="M42.4503 186.351C41.2303 190.501 40.6203 192.241 41.9103 195.041C43.8603 199.291 49.2203 199.891 51.6503 196.191C53.8303 192.861 55.5003 186.641 52.1003 183.581C49.6903 181.391 45.9603 181.561 43.7703 183.971C43.1503 184.651 42.7003 185.471 42.4503 186.351Z" fill="#FFC3BD"/>
<path d="M47.1182 190.51C46.9982 190.84 47.0782 191.17 47.2982 191.25C47.5182 191.33 47.7882 191.12 47.9082 190.79C48.0282 190.46 47.9582 190.13 47.7382 190.05C47.5182 189.97 47.2482 190.18 47.1282 190.51H47.1182Z" fill="#1A2E35"/>
<path d="M50.8607 191.87C50.7407 192.2 50.8207 192.53 51.0307 192.61C51.2407 192.69 51.5207 192.48 51.6407 192.15C51.7607 191.82 51.6807 191.49 51.4707 191.41C51.2607 191.33 50.9807 191.54 50.8607 191.87Z" fill="#1A2E35"/>
<path d="M49.6012 191.961C49.8112 192.791 50.1313 193.601 50.5513 194.341C50.1613 194.551 49.6912 194.581 49.2812 194.411L49.6012 191.951V191.961Z" fill="#FF8935"/>
<path d="M46.9811 188.68C47.0411 188.74 47.1411 188.76 47.2211 188.72C48.0911 188.3 49.1711 188.89 49.1811 188.9C49.2811 188.96 49.4111 188.92 49.4611 188.82C49.5211 188.72 49.4811 188.59 49.3811 188.54C49.3211 188.54 48.0911 187.84 47.0411 188.34C46.9411 188.39 46.9011 188.51 46.9411 188.62C46.9411 188.64 46.9611 188.66 46.9711 188.68H46.9811Z" fill="#1A2E35"/>
<path d="M53.0506 191.151C53.1106 191.191 53.1906 191.201 53.2606 191.171C53.3606 191.121 53.4106 191.001 53.3706 190.901C53.1206 190.281 52.5806 189.821 51.9306 189.661C51.8206 189.641 51.7106 189.721 51.6906 189.831C51.6706 189.941 51.7506 190.051 51.8606 190.071C52.3706 190.201 52.7906 190.571 52.9906 191.061C53.0106 191.091 53.0306 191.121 53.0606 191.141L53.0506 191.151Z" fill="#1A2E35"/>
<path d="M41.6391 188.77C41.6391 188.77 43.1991 188.73 42.9791 186.96C42.9791 186.96 45.5491 186.89 45.6591 185C45.6591 185 47.9091 186.99 48.6991 185.43C48.6991 185.43 51.4491 187.89 51.8191 186.26C51.8191 186.26 54.6791 189.81 54.5391 187.64C54.5391 187.64 57.7691 187.31 54.8691 184.52C54.8691 184.52 57.5191 182.2 53.2391 181.26C53.2391 181.26 53.6091 178.51 50.5991 179.72C50.5991 179.72 49.8991 176.73 47.2891 178.47C47.2891 178.47 45.8791 176.37 44.3391 179.19C44.3391 179.19 42.0691 177.89 41.3391 180.82C41.3391 180.82 37.2191 181.32 38.9191 184.03C38.9191 184.03 40.1891 193.12 41.3391 193.12C42.1191 193.12 41.6391 188.76 41.6391 188.76V188.77Z" fill="#1A2E35"/>
<path d="M40.2193 189.201C40.2493 190.041 40.5993 190.831 41.2093 191.401C42.0193 192.161 42.9393 191.551 43.1293 190.521C43.3093 189.591 43.0993 188.081 42.0793 187.721C41.3393 187.471 40.5293 187.871 40.2793 188.611C40.2193 188.801 40.1893 189.001 40.2093 189.191L40.2193 189.201Z" fill="#FFC3BD"/>
<path d="M48.0401 195.541C48.1901 195.581 48.3401 195.611 48.4901 195.631C48.5401 195.631 48.5801 195.611 48.5901 195.561C48.5901 195.511 48.5601 195.471 48.5101 195.461C47.7401 195.381 47.0501 194.931 46.6501 194.261C46.6301 194.211 46.5701 194.201 46.5301 194.221C46.4801 194.241 46.4701 194.301 46.4901 194.341C46.8201 194.941 47.3801 195.371 48.0401 195.551V195.541Z" fill="#1A2E35"/>
<path d="M18.2705 193.611C18.2705 193.611 3.4705 269.571 52.3305 270.961C96.8905 272.231 86.9305 235.821 84.0305 233.281C81.1305 230.741 92.0005 256.651 74.0705 257.011C52.4505 257.451 48.5305 236.901 41.2805 236.721C34.0305 236.541 23.0705 246.141 21.9905 228.751C20.9005 211.361 26.6105 181.831 18.2805 193.611H18.2705Z" fill="#007CFF"/>
<path opacity="0.5" d="M18.2705 193.611C18.2705 193.611 3.4705 269.571 52.3305 270.961C96.8905 272.231 86.9305 235.821 84.0305 233.281C81.1305 230.741 92.0005 256.651 74.0705 257.011C52.4505 257.451 48.5305 236.901 41.2805 236.721C34.0305 236.541 23.0705 246.141 21.9905 228.751C20.9005 211.361 26.6105 181.831 18.2805 193.611H18.2705Z" fill="white"/>
</g>
<defs>
<clipPath id="clip0_7018_259253">
<rect width="296" height="280" fill="white" transform="translate(0 40)"/>
</clipPath>
</defs>
</svg>
