<svg width="48" height="48" viewBox="0 0 48 48" fill="none" xmlns="http://www.w3.org/2000/svg">
<path d="M18.6667 24.6667C19.4 24.6667 20 24.0667 20 23.3333C20 22.6 19.4 22 18.6667 22C17.9333 22 17.3333 22.6 17.3333 23.3333C17.3333 24.0667 17.9333 24.6667 18.6667 24.6667ZM19.42 25.4C19.1733 25.36 18.9267 25.3333 18.6667 25.3333C18.0067 25.3333 17.38 25.4733 16.8133 25.72C16.32 25.9333 16 26.4133 16 26.9533V28H19V26.9267C19 26.3733 19.1533 25.8533 19.42 25.4Z" fill="#D2345C"/>
<path d="M29.3333 24.6667C28.6 24.6667 28 24.0667 28 23.3333C28 22.6 28.6 22 29.3333 22C30.0667 22 30.6667 22.6 30.6667 23.3333C30.6667 24.0667 30.0667 24.6667 29.3333 24.6667ZM28.58 25.4C28.8267 25.36 29.0733 25.3333 29.3333 25.3333C29.9933 25.3333 30.62 25.4733 31.1867 25.72C31.68 25.9333 32 26.4133 32 26.9533V28H29V26.9267C29 26.3733 28.8467 25.8533 28.58 25.4Z" fill="#FCC612"/>
<path d="M26.8267 25.1C26.0467 24.7533 25.0867 24.5 24 24.5C22.9133 24.5 21.9533 24.76 21.1733 25.1C20.4533 25.42 20 26.14 20 26.9267V28H28V26.9267C28 26.14 27.5467 25.42 26.8267 25.1ZM21.38 26.6667C21.44 26.5133 21.4667 26.4067 21.9867 26.2067C22.6333 25.9533 23.3133 25.8333 24 25.8333C24.6867 25.8333 25.3667 25.9533 26.0133 26.2067C26.5267 26.4067 26.5533 26.5133 26.62 26.6667H21.38ZM24 21.3333C24.3667 21.3333 24.6667 21.6333 24.6667 22C24.6667 22.3667 24.3667 22.6667 24 22.6667C23.6333 22.6667 23.3333 22.3667 23.3333 22C23.3333 21.6333 23.6333 21.3333 24 21.3333ZM24 20C22.8933 20 22 20.8933 22 22C22 23.1067 22.8933 24 24 24C25.1067 24 26 23.1067 26 22C26 20.8933 25.1067 20 24 20Z" fill="#2673E5"/>
<rect x="0.5" y="0.5" width="47" height="47" rx="23.5" stroke="#2673E5"/>
</svg>
