<svg width="48" height="48" viewBox="0 0 48 48" fill="none" xmlns="http://www.w3.org/2000/svg">
<path d="M31.7437 19.971C32.0854 19.6293 32.0854 19.0773 31.7437 18.7357L29.2643 16.2563C28.9227 15.9146 28.3707 15.9146 28.029 16.2563L24.0953 20.19L20.6872 16.7819C20.0038 16.0986 18.8912 16.0986 18.2078 16.7819L16.5432 18.4465C15.8598 19.1299 15.8598 20.2426 16.5432 20.9259L19.9513 24.334L16 28.2853V32H19.7147L23.6747 28.04L27.0828 31.4481C27.9151 32.2804 29.0366 31.9737 29.5622 31.4481L31.2268 29.7834C31.9102 29.1001 31.9102 27.9874 31.2268 27.304L27.8188 23.896L31.7437 19.971ZM17.7873 19.6819L19.4431 18.0172L20.5558 19.1299L20.0389 19.6512L19.522 20.1725L20.7573 21.4078L21.7999 20.3652L22.8512 21.4166L21.1866 23.0812L17.7873 19.6819ZM27.626 26.2001L26.5834 27.2427L27.8188 28.478L28.8613 27.4355L29.974 28.5481L28.3094 30.2127L24.9013 26.8047L26.5659 25.14L27.626 26.2001ZM18.9875 30.2478H17.7522V29.0125L26.1717 20.593L27.407 21.8283L18.9875 30.2478ZM27.407 19.3489L28.6423 18.1136L29.8776 19.3489L28.6423 20.5843L27.407 19.3489Z" fill="#2673E5"/>
<rect x="20.5508" y="19.125" width="1.76086" height="1.55646" transform="rotate(45 20.5508 19.125)" fill="#D2345C"/>
<rect x="27.6094" y="26.2109" width="1.76915" height="1.47498" transform="rotate(45 27.6094 26.2109)" fill="#FCC612"/>
<rect x="0.5" y="0.5" width="47" height="47" rx="23.5" stroke="#2673E5"/>
</svg>
