<svg width="106" height="84" viewBox="0 0 106 84" fill="none" xmlns="http://www.w3.org/2000/svg">
<rect x="42.7549" y="0.000305176" width="59.2131" height="59.2131" rx="5" transform="rotate(45 42.7549 0.000305176)" fill="#2673E5" fill-opacity="0.1"/>
<g clip-path="url(#clip0_1151_23812)">
<g clip-path="url(#clip1_1151_23812)">
<path d="M64.6899 57.02H62.1799C61.4899 57.02 60.9199 57.58 60.9199 58.28C60.9199 58.98 61.4799 59.54 62.1799 59.54H64.6899C65.3799 59.54 65.9499 58.98 65.9499 58.28C65.9499 57.58 65.3899 57.02 64.6899 57.02Z" fill="#2673E5" stroke="#2673E5" stroke-width="0.5"/>
<path d="M93.58 8.4V6.77C93.58 5.77 93.18 4.81 92.48 4.11C91.78 3.41 90.81 3 89.81 3H84.79C84.1 3 83.53 3.56 83.53 4.26C83.53 4.96 84.09 5.52 84.79 5.52H89.81C90.14 5.52 90.46 5.65 90.7 5.89C90.94 6.13 91.07 6.45 91.07 6.78V15.56H35.79V6.77C35.79 6.08 36.35 5.51 37.05 5.51H73.48C74.17 5.51 74.74 4.95 74.74 4.25C74.74 3.55 74.17 3 73.48 3H37.05C36.05 3 35.09 3.4 34.38 4.1C33.67 4.8 33.28 5.77 33.28 6.76V8.39C31.47 8.93 29.88 10.04 28.75 11.56C27.61 13.09 27 14.93 27 16.82V57.02C27 59.35 27.93 61.59 29.58 63.24C31.23 64.89 33.47 65.82 35.8 65.82H53.92L49.61 78.38H48.35C47.66 78.38 47.09 78.94 47.09 79.64C47.09 80.34 47.65 80.9 48.35 80.9H78.5C79.19 80.9 79.76 80.34 79.76 79.64C79.76 78.94 79.2 78.38 78.5 78.38H77.24L72.93 65.82H91.06C93.39 65.82 95.63 64.89 97.28 63.24C98.93 61.59 99.86 59.35 99.86 57.02V16.82C99.86 14.93 99.25 13.09 98.11 11.57C96.98 10.05 95.39 8.94 93.58 8.4ZM91.07 18.07V43.19C91.07 43.52 90.94 43.84 90.7 44.08C90.46 44.32 90.14 44.45 89.81 44.45H37.05C36.36 44.45 35.79 43.89 35.79 43.19V18.07H91.06H91.07ZM33.28 11.09V43.2C33.28 44.2 33.68 45.16 34.38 45.86C35.08 46.56 36.05 46.96 37.04 46.96H89.81C90.81 46.96 91.77 46.56 92.47 45.86C93.17 45.16 93.57 44.19 93.57 43.2V11.09C94.69 11.57 95.65 12.37 96.32 13.39C96.99 14.41 97.35 15.6 97.34 16.82V50.74H29.51V16.82C29.51 15.6 29.86 14.41 30.53 13.39C31.2 12.37 32.16 11.57 33.28 11.09ZM74.6 78.37H52.26L56.57 65.81H70.29L74.6 78.37ZM91.07 63.3H35.79C34.12 63.3 32.53 62.64 31.35 61.46C30.17 60.28 29.51 58.68 29.51 57.02V53.25H97.35V57.02C97.35 58.69 96.69 60.28 95.51 61.46C94.33 62.64 92.73 63.3 91.07 63.3Z" fill="#2673E5" stroke="#2673E5" stroke-width="0.5"/>
<path d="M78.51 5.50999H79.77C80.46 5.50999 81.03 4.94999 81.03 4.24999C81.03 3.54999 80.47 2.98999 79.77 2.98999H78.51C77.82 2.98999 77.25 3.54999 77.25 4.24999C77.25 4.94999 77.81 5.50999 78.51 5.50999Z" fill="#2673E5" stroke="#2673E5" stroke-width="0.5"/>
<path d="M87.3003 10.54C87.3003 11.93 86.1703 13.05 84.7903 13.05C83.4103 13.05 82.2803 11.93 82.2803 10.54C82.2803 9.14997 83.4103 8.02997 84.7903 8.02997C86.1703 8.02997 87.3003 9.14997 87.3003 10.54Z" fill="#2673E5"/>
<path d="M87.3003 10.54C87.3003 11.93 86.1703 13.05 84.7903 13.05C83.4103 13.05 82.2803 11.93 82.2803 10.54C82.2803 9.14997 83.4103 8.02997 84.7903 8.02997C86.1703 8.02997 87.3003 9.14997 87.3003 10.54" stroke="#2673E5" stroke-width="0.5"/>
<path d="M79.7602 10.54C79.7602 11.93 78.6302 13.05 77.2502 13.05C75.8702 13.05 74.7402 11.93 74.7402 10.54C74.7402 9.14997 75.8702 8.02997 77.2502 8.02997C78.6302 8.02997 79.7602 9.14997 79.7602 10.54Z" fill="#2673E5"/>
<path d="M79.7602 10.54C79.7602 11.93 78.6302 13.05 77.2502 13.05C75.8702 13.05 74.7402 11.93 74.7402 10.54C74.7402 9.14997 75.8702 8.02997 77.2502 8.02997C78.6302 8.02997 79.7602 9.14997 79.7602 10.54" stroke="#2673E5" stroke-width="0.5"/>
<path d="M72.2202 10.54C72.2202 11.93 71.0902 13.05 69.7102 13.05C68.3302 13.05 67.2002 11.93 67.2002 10.54C67.2002 9.14997 68.3302 8.02997 69.7102 8.02997C71.0902 8.02997 72.2202 9.14997 72.2202 10.54Z" fill="#2673E5"/>
<path d="M72.2202 10.54C72.2202 11.93 71.0902 13.05 69.7102 13.05C68.3302 13.05 67.2002 11.93 67.2002 10.54C67.2002 9.14997 68.3302 8.02997 69.7102 8.02997C71.0902 8.02997 72.2202 9.14997 72.2202 10.54" stroke="#2673E5" stroke-width="0.5"/>
<path d="M40.8196 9.27997C40.1296 9.27997 39.5596 9.83997 39.5596 10.54C39.5596 11.24 40.1196 11.8 40.8196 11.8H62.1796C62.8696 11.8 63.4396 11.24 63.4396 10.54C63.4396 9.83997 62.8796 9.27997 62.1796 9.27997H40.8196Z" fill="#2673E5" stroke="#2673E5" stroke-width="0.5"/>
<path d="M44.7395 36.35C44.9695 36.7 45.3595 36.91 45.7795 36.92C46.0295 36.92 46.2695 36.85 46.4695 36.71C47.0395 36.33 47.1995 35.55 46.8195 34.98L44.7695 31.9L46.8195 28.82C47.1295 28.25 46.9495 27.54 46.4095 27.18C45.8695 26.82 45.1395 26.93 44.7395 27.44L42.2295 31.21C41.9495 31.63 41.9495 32.17 42.2295 32.59L44.7395 36.36V36.35Z" fill="#2673E5" stroke="#2673E5" stroke-width="0.5"/>
<path d="M55.1403 36.7C55.3403 36.84 55.5803 36.92 55.8303 36.91C56.2503 36.91 56.6403 36.7 56.8703 36.34L59.3803 32.57C59.6603 32.15 59.6603 31.61 59.3803 31.19L56.8703 27.42C56.7003 27.11 56.4103 26.88 56.0703 26.8C55.7303 26.71 55.3603 26.78 55.0703 26.97C54.7803 27.17 54.5803 27.48 54.5203 27.82C54.4703 28.17 54.5603 28.52 54.7803 28.8L56.8303 31.88L54.7803 34.96C54.4003 35.54 54.5603 36.31 55.1303 36.69L55.1403 36.7Z" fill="#2673E5" stroke="#2673E5" stroke-width="0.5"/>
<path d="M49.2299 37.97C49.3299 37.98 49.4399 37.98 49.5399 37.97C50.1299 37.99 50.6499 37.6 50.7999 37.03L53.3099 27.31C53.4799 26.64 53.0799 25.95 52.4099 25.78C51.7399 25.61 51.0499 26.01 50.8799 26.68L48.3699 36.4C48.2699 36.72 48.3099 37.07 48.4699 37.37C48.6299 37.67 48.9099 37.88 49.2299 37.97Z" fill="#2673E5" stroke="#2673E5" stroke-width="0.5"/>
<path fill-rule="evenodd" clip-rule="evenodd" d="M81.8505 31.08C81.8505 27.48 78.9305 24.56 75.3305 24.56C71.7305 24.56 68.8105 27.48 68.8105 31.08C68.8105 34.68 71.7305 37.6 75.3305 37.6C78.9305 37.6 81.8505 34.68 81.8505 31.08ZM78.8405 31.08C78.8405 33.02 77.2705 34.59 75.3305 34.59C73.3905 34.59 71.8205 33.02 71.8205 31.08C71.8205 29.14 73.3905 27.57 75.3305 27.57C77.2705 27.57 78.8405 29.14 78.8405 31.08Z" fill="#2673E5"/>
<path fill-rule="evenodd" clip-rule="evenodd" d="M67.2305 32.58H70.1705C71.0005 32.58 71.6705 31.9 71.6705 31.08C71.6705 30.26 71.0005 29.58 70.1705 29.58H67.2305C66.4005 29.58 65.7305 30.25 65.7305 31.08C65.7305 31.91 66.4005 32.58 67.2305 32.58Z" fill="#2673E5"/>
<path fill-rule="evenodd" clip-rule="evenodd" d="M70.7004 37.8L72.7804 35.72C73.3704 35.13 73.3704 34.18 72.7804 33.59C72.1904 33 71.2404 33 70.6504 33.59L68.5704 35.67C67.9804 36.26 67.9804 37.21 68.5704 37.8C69.1604 38.39 70.1104 38.39 70.7004 37.8Z" fill="#2673E5"/>
<path fill-rule="evenodd" clip-rule="evenodd" d="M76.8301 39.03V36.09C76.8301 35.26 76.1501 34.59 75.3301 34.59C74.5101 34.59 73.8301 35.26 73.8301 36.09V39.03C73.8301 39.86 74.5001 40.53 75.3301 40.53C76.1601 40.53 76.8301 39.86 76.8301 39.03Z" fill="#2673E5"/>
<path fill-rule="evenodd" clip-rule="evenodd" d="M82.0509 35.57L79.9709 33.49C79.3809 32.9 78.4309 32.9 77.8409 33.49C77.2509 34.08 77.2509 35.03 77.8409 35.62L79.9209 37.7C80.5109 38.29 81.4609 38.29 82.0509 37.7C82.6409 37.11 82.6409 36.16 82.0509 35.57Z" fill="#2673E5"/>
<path fill-rule="evenodd" clip-rule="evenodd" d="M83.2808 29.58H80.3408C79.5108 29.58 78.8408 30.25 78.8408 31.08C78.8408 31.91 79.5108 32.58 80.3408 32.58H83.2808C84.1108 32.58 84.7808 31.9 84.7808 31.08C84.7808 30.26 84.1108 29.58 83.2808 29.58Z" fill="#2673E5"/>
<path fill-rule="evenodd" clip-rule="evenodd" d="M79.9209 24.32L77.8409 26.4C77.2509 26.99 77.2509 27.94 77.8409 28.53C78.4309 29.12 79.3809 29.12 79.9709 28.53L82.0509 26.45C82.6409 25.86 82.6409 24.91 82.0509 24.32C81.4609 23.73 80.5109 23.73 79.9209 24.32Z" fill="#2673E5"/>
<path fill-rule="evenodd" clip-rule="evenodd" d="M73.8301 22.98V25.92C73.8301 26.75 74.5001 27.42 75.3301 27.42C76.1601 27.42 76.8301 26.75 76.8301 25.92V22.98C76.8301 22.15 76.1501 21.48 75.3301 21.48C74.5101 21.48 73.8301 22.15 73.8301 22.98Z" fill="#2673E5"/>
<path fill-rule="evenodd" clip-rule="evenodd" d="M68.5704 26.35L70.6504 28.43C71.2404 29.02 72.1904 29.02 72.7804 28.43C73.3704 27.84 73.3704 26.89 72.7804 26.3L70.7004 24.22C70.1104 23.63 69.1604 23.63 68.5704 24.22C67.9804 24.81 67.9804 25.76 68.5704 26.35Z" fill="#2673E5"/>
</g>
</g>
<defs>
<clipPath id="clip0_1151_23812">
<rect width="84" height="84" fill="white" transform="matrix(-4.37114e-08 1 1 4.37114e-08 21.1152 0)"/>
</clipPath>
<clipPath id="clip1_1151_23812">
<rect width="72.86" height="77.89" fill="white" transform="translate(27 3)"/>
</clipPath>
</defs>
</svg>
