<svg width="15" height="16" viewBox="0 0 15 16" fill="none" xmlns="http://www.w3.org/2000/svg">
<path d="M13.1588 8.66141C13.1588 8.22656 13.4337 7.85983 13.8186 7.71725C13.9652 7.66339 14.0681 7.53032 14.0681 7.37428V6.88715C14.0681 4.77943 13.0559 2.90933 11.4923 1.73151C11.364 1.63488 11.1818 1.6523 11.0685 1.76557L4.5109 8.32319C4.13625 8.69785 3.52556 8.76913 3.11605 8.43408C2.64477 8.04834 2.61863 7.3521 3.03843 6.9323L9.02417 0.947352C9.14694 0.82458 9.08912 0.609134 8.91882 0.573491C8.49823 0.484778 8.06338 0.435669 7.61665 0.435669H0.869716C0.65427 0.435669 0.479221 0.610718 0.479221 0.826164V15.3252C0.479221 15.5525 0.754073 15.6658 0.914865 15.5058L8.76595 7.65468C9.14061 7.28003 9.7513 7.20795 10.1608 7.54379C10.6321 7.92953 10.6582 8.62577 10.2384 9.04557L3.72516 15.5588C3.57704 15.707 3.6816 15.9604 3.8915 15.9604H7.57704C11.002 15.9604 13.8004 13.307 14.0452 9.94458C14.0562 9.79171 13.9557 9.65705 13.8123 9.60319C13.4313 9.45903 13.1596 9.09389 13.1596 8.6622L13.1588 8.66141Z" fill="white"/>
</svg>
