<svg width="28" height="28" viewBox="0 0 28 28" fill="none" xmlns="http://www.w3.org/2000/svg">
<path d="M16.0064 0C16.3488 0.060314 16.6958 0.102534 17.0352 0.183958C19.0538 0.667977 20.8425 1.62546 22.4781 2.88602C25.0013 4.83115 26.4821 7.45028 27.3082 10.4841C27.3727 10.7208 27.4208 10.9817 27.3938 11.2214C27.3247 11.8426 26.754 12.3146 26.1112 12.3176C25.3827 12.3221 24.6558 12.3176 23.9274 12.3176C22.8325 12.3206 22.1071 13.1213 22.1822 14.222C22.2092 14.6156 22.2873 14.982 22.5156 15.3092C22.8325 15.7631 23.2666 15.9922 23.8178 15.9968C24.5987 16.0028 25.3812 16.0043 26.1622 16.0118C26.2899 16.0118 26.419 16.0179 26.5437 16.042C27.1625 16.1626 27.4884 16.6708 27.3998 17.3011C27.2556 18.3173 26.8951 19.2582 26.4431 20.169C25.4894 22.093 24.2293 23.7863 22.5757 25.1585C20.823 26.612 18.8135 27.5333 16.5651 27.9088C16.2017 27.9691 15.8277 27.9947 15.4597 27.9962C10.891 28.0023 6.3207 27.9992 1.75194 27.9992C1.07158 27.9992 0.595483 27.5258 0.59248 26.8427C0.589476 26.3285 0.590978 25.8144 0.59248 25.3002C0.595483 24.6518 1.01752 24.2809 1.66633 24.2945C2.54194 24.3141 3.41904 24.3231 4.29315 24.2854C5.13721 24.2477 5.59979 23.815 5.78603 22.9796C5.89867 22.4775 5.86563 21.9754 5.63584 21.5155C5.30843 20.8611 4.7302 20.5655 4.02431 20.5414C3.27036 20.5158 2.5149 20.5188 1.76095 20.5339C1.1677 20.5444 0.544419 20.1072 0.587974 19.3547C0.61651 18.8496 0.59248 18.34 0.593982 17.8333C0.596985 17.1684 1.03103 16.7205 1.69187 16.716C2.53443 16.71 3.37699 16.7085 4.21955 16.7175C4.51843 16.7205 4.72269 16.5999 4.84584 16.333C4.95848 16.0887 4.91343 15.846 4.70166 15.6289C4.18801 15.1011 3.66085 14.5884 3.15621 14.0532C2.3512 13.1997 1.5612 12.3312 0.760692 11.4702C0.633031 11.333 0.586472 11.1807 0.589476 10.9922C0.596985 10.1946 0.59248 9.39541 0.59248 8.59775C0.59248 7.86946 1.02352 7.42766 1.75945 7.42012C2.56146 7.41258 3.36498 7.39449 4.16548 7.42465C5.00955 7.45782 5.64785 6.90293 5.8401 6.08568C6.01281 5.35136 5.62983 4.31396 5.03208 3.92945C4.75273 3.75002 4.45835 3.63844 4.12343 3.64145C3.33494 3.64899 2.54644 3.64749 1.75795 3.65653C1.01301 3.6701 0.590978 3.25846 0.590978 2.50604C0.590978 2.02655 0.586472 1.54555 0.598487 1.06605C0.610502 0.530763 0.871832 0.199036 1.37947 0.0376962C1.4035 0.030157 1.42453 0.0120628 1.44706 0C6.29968 0 11.1538 0 16.0064 0Z" fill="url(#paint0_linear_3069_16260)"/>
<defs>
<linearGradient id="paint0_linear_3069_16260" x1="18.2127" y1="8.24793" x2="-3.89467" y2="23.5114" gradientUnits="userSpaceOnUse">
<stop stop-color="#476BB3"/>
<stop offset="0.67" stop-color="#495278"/>
</linearGradient>
</defs>
</svg>
