<?xml version="1.0" encoding="utf-8"?>
<!-- Generator: Adobe Illustrator 26.5.0, SVG Export Plug-In . SVG Version: 6.00 Build 0)  -->
<svg version="1.1" id="Layer_1" xmlns="http://www.w3.org/2000/svg" xmlns:xlink="http://www.w3.org/1999/xlink" x="0px" y="0px"
	 viewBox="0 0 60 60" style="enable-background:new 0 0 60 60;" xml:space="preserve">
<g>
	<g>
		<path d="M15.9,50.6H1.9c-1,0-1.9-0.8-1.9-1.9V11.2c0-1,0.8-1.9,1.9-1.9h14.1c3,0,5.8,1.2,8,3.3s3.3,4.9,3.3,8c0,3-1.2,5.8-3.3,8
			c-0.5,0.5-1.1,1-1.7,1.4c0.6,0.4,1.2,0.9,1.7,1.4c2.1,2.1,3.3,4.9,3.3,8c0,3-1.2,5.9-3.3,8C21.8,49.4,18.9,50.6,15.9,50.6z
			 M3.8,46.8h12.2c2,0,3.9-0.8,5.3-2.2c1.4-1.4,2.2-3.3,2.2-5.3c0-2-0.8-3.9-2.2-5.3c-1.4-1.4-3.3-2.2-5.3-2.2c-1,0-1.9-0.8-1.9-1.9
			s0.8-1.9,1.9-1.9c2,0,3.9-0.8,5.3-2.2c1.4-1.4,2.2-3.3,2.2-5.3c0-2-0.8-3.9-2.2-5.3c-1.4-1.4-3.3-2.2-5.3-2.2H3.8V46.8z"/>
	</g>
	<g>
		<path d="M15.9,31.8H1.9C0.8,31.8,0,31,0,30s0.8-1.9,1.9-1.9h14.1c1,0,1.9,0.8,1.9,1.9S17,31.8,15.9,31.8z"/>
	</g>
	<g>
		<path d="M47.1,50.7c-0.6,0-1.3,0-1.9-0.1c-2.7-0.4-5.3-1.7-7.2-3.7c-1.9-2-3.2-4.5-3.6-7.3l0-6.5c0,0,0,0,0,0
			c0-3.4,1.4-6.7,3.8-9.1c4.8-4.8,13.3-4.8,18.1,0c2.4,2.4,3.8,5.6,3.8,9.1c0,1-0.8,1.9-1.9,1.9h-20v4.4c0.2,1.7,1.1,3.5,2.5,4.9
			c1.4,1.4,3.2,2.3,5.1,2.6c1.9,0.3,3.9-0.1,5.6-1c1.7-0.9,3.1-2.4,3.9-4.2c0.4-0.9,1.6-1.3,2.5-0.9c0.9,0.4,1.3,1.6,0.9,2.5
			c-1.2,2.5-3.1,4.6-5.6,5.9C51.3,50.1,49.2,50.7,47.1,50.7z M38.3,31.2h17.7c-0.4-1.7-1.2-3.3-2.5-4.5c-3.4-3.4-9.4-3.4-12.8,0
			C39.5,27.9,38.7,29.5,38.3,31.2z"/>
	</g>
	<g>
		<path d="M51.9,13.1h-9.4c-1,0-1.9-0.8-1.9-1.9s0.8-1.9,1.9-1.9h9.4c1,0,1.9,0.8,1.9,1.9S52.9,13.1,51.9,13.1z"/>
	</g>
</g>
</svg>
