<svg width="13" height="12" viewBox="0 0 13 12" fill="none" xmlns="http://www.w3.org/2000/svg">
<g clip-path="url(#clip0_6062_107578)">
<path fill-rule="evenodd" clip-rule="evenodd" d="M8.50156 1.1C8.72248 1.1 8.90156 1.27908 8.90156 1.5V2.10001H9.50156C10.2748 2.10001 10.9016 2.72681 10.9016 3.50001V5.50001V9.50001C10.9016 10.2732 10.2748 10.9 9.50156 10.9H3.50156C2.72836 10.9 2.10156 10.2732 2.10156 9.50001V5.50001V3.50001C2.10156 2.72681 2.72836 2.10001 3.50156 2.10001H4.10547V1.5C4.10547 1.27908 4.28455 1.1 4.50547 1.1C4.72638 1.1 4.90547 1.27908 4.90547 1.5V2.10001H8.10156V1.5C8.10156 1.27908 8.28065 1.1 8.50156 1.1ZM10.1016 3.50001V5.10001H2.90156V3.50001C2.90156 3.16864 3.17019 2.90001 3.50156 2.90001H4.10547V3.5C4.10547 3.72091 4.28455 3.9 4.50547 3.9C4.72638 3.9 4.90547 3.72091 4.90547 3.5V2.90001H8.10156V3.5C8.10156 3.72091 8.28065 3.9 8.50156 3.9C8.72248 3.9 8.90156 3.72091 8.90156 3.5V2.90001H9.50156C9.83293 2.90001 10.1016 3.16864 10.1016 3.50001ZM10.1016 5.90001H2.90156V9.50001C2.90156 9.83138 3.17019 10.1 3.50156 10.1H9.50156C9.83293 10.1 10.1016 9.83138 10.1016 9.50001V5.90001ZM4.50547 7C4.22933 7 4.00547 7.22386 4.00547 7.5V8.5C4.00547 8.77614 4.22933 9 4.50547 9H5.50547C5.78161 9 6.00547 8.77614 6.00547 8.5V7.5C6.00547 7.22386 5.78161 7 5.50547 7H4.50547Z" fill="black" fill-opacity="0.7"/>
</g>
<defs>
<clipPath id="clip0_6062_107578">
<rect width="12" height="12" fill="white" transform="translate(0.5)"/>
</clipPath>
</defs>
</svg>
