<svg width="32" height="32" viewBox="0 0 32 32" fill="none" xmlns="http://www.w3.org/2000/svg">
<g clip-path="url(#clip0_2643_16888)">
<path d="M9 8H13L15 13L12.5 14.5C13.571 16.6715 15.3285 18.429 17.5 19.5L19 17L24 19V23C24 23.5304 23.7893 24.0391 23.4142 24.4142C23.0391 24.7893 22.5304 25 22 25C18.0993 24.763 14.4202 23.1065 11.6568 20.3432C8.8935 17.5798 7.23705 13.9007 7 10C7 9.46957 7.21071 8.96086 7.58579 8.58579C7.96086 8.21071 8.46957 8 9 8" stroke="white" stroke-width="1.25" stroke-linecap="round" stroke-linejoin="round"/>
</g>
<defs>
<clipPath id="clip0_2643_16888">
<rect width="24" height="24" fill="white" transform="translate(4 4)"/>
</clipPath>
</defs>
</svg>
