<svg width="296" height="247" viewBox="0 0 296 247" fill="none" xmlns="http://www.w3.org/2000/svg">
<g clip-path="url(#clip0_2326_16765)">
<path d="M280.215 43.0998H279.385V42.5398H279.655V42.2598H280.215V43.0998Z" fill="#ECECEC"/>
<path d="M278.265 43.1H277.155V42.54H278.265V43.1ZM276.045 43.1H274.935V42.54H276.045V43.1ZM273.825 43.1H272.715V42.54H273.825V43.1ZM271.605 43.1H270.495V42.54H271.605V43.1ZM269.385 43.1H268.275V42.54H269.385V43.1ZM267.165 43.1H266.055V42.54H267.165V43.1ZM264.945 43.1H263.835V42.54H264.945V43.1ZM262.725 43.1H261.615V42.54H262.725V43.1ZM260.505 43.1H259.395V42.54H260.505V43.1ZM258.285 43.1H257.175V42.54H258.285V43.1ZM256.065 43.1H254.955V42.54H256.065V43.1ZM253.845 43.1H252.735V42.54H253.845V43.1ZM251.625 43.1H250.515V42.54H251.625V43.1ZM249.405 43.1H248.295V42.54H249.405V43.1ZM247.185 43.1H246.075V42.54H247.185V43.1ZM244.965 43.1H243.855V42.54H244.965V43.1ZM242.745 43.1H241.635V42.54H242.745V43.1Z" fill="#ECECEC"/>
<path d="M240.455 43.0998H239.615V42.2598H240.175V42.5398H240.455V43.0998Z" fill="#ECECEC"/>
<path d="M240.175 41.1505H239.615V40.0405H240.175V41.1505ZM240.175 38.9305H239.615V37.8205H240.175V38.9305ZM240.175 36.7105H239.615V35.6005H240.175V36.7105ZM240.175 34.4905H239.615V33.3805H240.175V34.4905ZM240.175 32.2705H239.615V31.1605H240.175V32.2705ZM240.175 30.0505H239.615V28.9405H240.175V30.0505ZM240.175 27.8305H239.615V26.7205H240.175V27.8305ZM240.175 25.6105H239.615V24.5005H240.175V25.6105ZM240.175 23.3905H239.615V22.2805H240.175V23.3905ZM240.175 21.1705H239.615V20.0605H240.175V21.1705ZM240.175 18.9505H239.615V17.8405H240.175V18.9505ZM240.175 16.7305H239.615V15.6205H240.175V16.7305ZM240.175 14.5105H239.615V13.4005H240.175V14.5105ZM240.175 12.2905H239.615V11.1805H240.175V12.2905ZM240.175 10.0705H239.615V8.96051H240.175V10.0705ZM240.175 7.85051H239.615V6.74051H240.175V7.85051ZM240.175 5.63051H239.615V4.52051H240.175V5.63051Z" fill="#ECECEC"/>
<path d="M240.175 3.33H239.615V2.5H240.455V3.05H240.175V3.33Z" fill="#ECECEC"/>
<path d="M278.265 3.05023H277.155V2.49023H278.265V3.05023ZM276.045 3.05023H274.935V2.49023H276.045V3.05023ZM273.825 3.05023H272.715V2.49023H273.825V3.05023ZM271.605 3.05023H270.495V2.49023H271.605V3.05023ZM269.385 3.05023H268.275V2.49023H269.385V3.05023ZM267.165 3.05023H266.055V2.49023H267.165V3.05023ZM264.945 3.05023H263.835V2.49023H264.945V3.05023ZM262.725 3.05023H261.615V2.49023H262.725V3.05023ZM260.505 3.05023H259.395V2.49023H260.505V3.05023ZM258.285 3.05023H257.175V2.49023H258.285V3.05023ZM256.065 3.05023H254.955V2.49023H256.065V3.05023ZM253.845 3.05023H252.735V2.49023H253.845V3.05023ZM251.625 3.05023H250.515V2.49023H251.625V3.05023ZM249.405 3.05023H248.295V2.49023H249.405V3.05023ZM247.185 3.05023H246.075V2.49023H247.185V3.05023ZM244.965 3.05023H243.855V2.49023H244.965V3.05023ZM242.745 3.05023H241.635V2.49023H242.745V3.05023Z" fill="#ECECEC"/>
<path d="M280.215 3.33H279.655V3.05H279.385V2.5H280.215V3.33Z" fill="#ECECEC"/>
<path d="M280.214 41.1505H279.654V40.0405H280.214V41.1505ZM280.214 38.9305H279.654V37.8205H280.214V38.9305ZM280.214 36.7105H279.654V35.6005H280.214V36.7105ZM280.214 34.4905H279.654V33.3805H280.214V34.4905ZM280.214 32.2705H279.654V31.1605H280.214V32.2705ZM280.214 30.0505H279.654V28.9405H280.214V30.0505ZM280.214 27.8305H279.654V26.7205H280.214V27.8305ZM280.214 25.6105H279.654V24.5005H280.214V25.6105ZM280.214 23.3905H279.654V22.2805H280.214V23.3905ZM280.214 21.1705H279.654V20.0605H280.214V21.1705ZM280.214 18.9505H279.654V17.8405H280.214V18.9505ZM280.214 16.7305H279.654V15.6205H280.214V16.7305ZM280.214 14.5105H279.654V13.4005H280.214V14.5105ZM280.214 12.2905H279.654V11.1805H280.214V12.2905ZM280.214 10.0705H279.654V8.96051H280.214V10.0705ZM280.214 7.85051H279.654V6.74051H280.214V7.85051ZM280.214 5.63051H279.654V4.52051H280.214V5.63051Z" fill="#ECECEC"/>
<path d="M242.385 40.3203H237.395V45.3103H242.385V40.3203Z" fill="white"/>
<path d="M242.665 45.59H237.115V40.04H242.665V45.59ZM237.675 45.03H242.105V40.6H237.675V45.03Z" fill="#ECECEC"/>
<path d="M242.416 20.2998H237.426V25.2898H242.416V20.2998Z" fill="white"/>
<path d="M242.665 25.5695H237.115V20.0195H242.665V25.5695ZM237.675 25.0095H242.105V20.5795H237.675V25.0095Z" fill="#ECECEC"/>
<path d="M242.416 0.280273H237.426V5.27027H242.416V0.280273Z" fill="white"/>
<path d="M242.665 5.55H237.115V0H242.665V5.55ZM237.675 4.99H242.105V0.56H237.675V4.99Z" fill="#ECECEC"/>
<path d="M282.457 40.3203H277.467V45.3103H282.457V40.3203Z" fill="white"/>
<path d="M282.716 45.59H277.166V40.04H282.716V45.59ZM277.726 45.03H282.156V40.6H277.726V45.03Z" fill="#ECECEC"/>
<path d="M282.457 20.2998H277.467V25.2898H282.457V20.2998Z" fill="white"/>
<path d="M282.716 25.5695H277.166V20.0195H282.716V25.5695ZM277.726 25.0095H282.156V20.5795H277.726V25.0095Z" fill="#ECECEC"/>
<path d="M282.457 0.280273H277.467V5.27027H282.457V0.280273Z" fill="white"/>
<path d="M282.716 5.55H277.166V0H282.716V5.55ZM277.726 4.99H282.156V0.56H277.726V4.99Z" fill="#ECECEC"/>
<path d="M262.435 0.280273H257.445V5.27027H262.435V0.280273Z" fill="white"/>
<path d="M262.685 5.55H257.135V0H262.685V5.55ZM257.695 4.99H262.125V0.56H257.695V4.99Z" fill="#ECECEC"/>
<path d="M262.414 40.3203H257.424V45.3103H262.414V40.3203Z" fill="white"/>
<path d="M262.685 45.59H257.135V40.04H262.685V45.59ZM257.695 45.03H262.125V40.6H257.695V45.03Z" fill="#ECECEC"/>
<path d="M60.2834 243.89H59.4434V243.33H59.7234V243.05H60.2834V243.89Z" fill="#ECECEC"/>
<path d="M58.3331 243.89H57.2231V243.33H58.3331V243.89ZM56.1131 243.89H55.0031V243.33H56.1131V243.89ZM53.8931 243.89H52.7831V243.33H53.8931V243.89ZM51.6731 243.89H50.5631V243.33H51.6731V243.89ZM49.4531 243.89H48.3431V243.33H49.4531V243.89ZM47.2331 243.89H46.1231V243.33H47.2331V243.89ZM45.0131 243.89H43.9031V243.33H45.0131V243.89ZM42.7931 243.89H41.6831V243.33H42.7931V243.89ZM40.5731 243.89H39.4631V243.33H40.5731V243.89ZM38.3531 243.89H37.2431V243.33H38.3531V243.89ZM36.1331 243.89H35.0231V243.33H36.1331V243.89ZM33.9131 243.89H32.8031V243.33H33.9131V243.89ZM31.6931 243.89H30.5831V243.33H31.6931V243.89ZM29.4731 243.89H28.3631V243.33H29.4731V243.89ZM27.2531 243.89H26.1431V243.33H27.2531V243.89ZM25.0331 243.89H23.9231V243.33H25.0331V243.89ZM22.8131 243.89H21.7031V243.33H22.8131V243.89Z" fill="#ECECEC"/>
<path d="M20.5136 243.89H19.6836V243.05H20.2336V243.33H20.5136V243.89Z" fill="#ECECEC"/>
<path d="M20.2338 241.941H19.6738V240.831H20.2338V241.941ZM20.2338 239.721H19.6738V238.611H20.2338V239.721ZM20.2338 237.501H19.6738V236.391H20.2338V237.501ZM20.2338 235.281H19.6738V234.171H20.2338V235.281ZM20.2338 233.061H19.6738V231.951H20.2338V233.061ZM20.2338 230.841H19.6738V229.731H20.2338V230.841ZM20.2338 228.621H19.6738V227.511H20.2338V228.621ZM20.2338 226.401H19.6738V225.291H20.2338V226.401ZM20.2338 224.181H19.6738V223.071H20.2338V224.181ZM20.2338 221.961H19.6738V220.851H20.2338V221.961ZM20.2338 219.741H19.6738V218.631H20.2338V219.741ZM20.2338 217.521H19.6738V216.411H20.2338V217.521ZM20.2338 215.301H19.6738V214.191H20.2338V215.301ZM20.2338 213.081H19.6738V211.971H20.2338V213.081ZM20.2338 210.861H19.6738V209.751H20.2338V210.861ZM20.2338 208.641H19.6738V207.531H20.2338V208.641ZM20.2338 206.421H19.6738V205.311H20.2338V206.421Z" fill="#ECECEC"/>
<path d="M20.2336 204.12H19.6836V203.29H20.5136V203.84H20.2336V204.12Z" fill="#ECECEC"/>
<path d="M58.3331 203.84H57.2231V203.28H58.3331V203.84ZM56.1131 203.84H55.0031V203.28H56.1131V203.84ZM53.8931 203.84H52.7831V203.28H53.8931V203.84ZM51.6731 203.84H50.5631V203.28H51.6731V203.84ZM49.4531 203.84H48.3431V203.28H49.4531V203.84ZM47.2331 203.84H46.1231V203.28H47.2331V203.84ZM45.0131 203.84H43.9031V203.28H45.0131V203.84ZM42.7931 203.84H41.6831V203.28H42.7931V203.84ZM40.5731 203.84H39.4631V203.28H40.5731V203.84ZM38.3531 203.84H37.2431V203.28H38.3531V203.84ZM36.1331 203.84H35.0231V203.28H36.1331V203.84ZM33.9131 203.84H32.8031V203.28H33.9131V203.84ZM31.6931 203.84H30.5831V203.28H31.6931V203.84ZM29.4731 203.84H28.3631V203.28H29.4731V203.84ZM27.2531 203.84H26.1431V203.28H27.2531V203.84ZM25.0331 203.84H23.9231V203.28H25.0331V203.84ZM22.8131 203.84H21.7031V203.28H22.8131V203.84Z" fill="#ECECEC"/>
<path d="M60.2834 204.12H59.7234V203.84H59.4434V203.29H60.2834V204.12Z" fill="#ECECEC"/>
<path d="M60.2846 241.941H59.7246V240.831H60.2846V241.941ZM60.2846 239.721H59.7246V238.611H60.2846V239.721ZM60.2846 237.501H59.7246V236.391H60.2846V237.501ZM60.2846 235.281H59.7246V234.171H60.2846V235.281ZM60.2846 233.061H59.7246V231.951H60.2846V233.061ZM60.2846 230.841H59.7246V229.731H60.2846V230.841ZM60.2846 228.621H59.7246V227.511H60.2846V228.621ZM60.2846 226.401H59.7246V225.291H60.2846V226.401ZM60.2846 224.181H59.7246V223.071H60.2846V224.181ZM60.2846 221.961H59.7246V220.851H60.2846V221.961ZM60.2846 219.741H59.7246V218.631H60.2846V219.741ZM60.2846 217.521H59.7246V216.411H60.2846V217.521ZM60.2846 215.301H59.7246V214.191H60.2846V215.301ZM60.2846 213.081H59.7246V211.971H60.2846V213.081ZM60.2846 210.861H59.7246V209.751H60.2846V210.861ZM60.2846 208.641H59.7246V207.531H60.2846V208.641ZM60.2846 206.421H59.7246V205.311H60.2846V206.421Z" fill="#ECECEC"/>
<path d="M22.4529 241.11H17.4629V246.1H22.4529V241.11Z" fill="white"/>
<path d="M22.7336 246.38H17.1836V240.83H22.7336V246.38ZM17.7436 245.82H22.1736V241.39H17.7436V245.82Z" fill="#ECECEC"/>
<path d="M22.4744 221.09H17.4844V226.08H22.4744V221.09Z" fill="white"/>
<path d="M22.7336 226.36H17.1836V220.81H22.7336V226.36ZM17.7436 225.8H22.1736V221.37H17.7436V225.8Z" fill="#ECECEC"/>
<path d="M22.4744 201.07H17.4844V206.06H22.4744V201.07Z" fill="white"/>
<path d="M22.7336 206.34H17.1836V200.79H22.7336V206.34ZM17.7436 205.78H22.1736V201.35H17.7436V205.78Z" fill="#ECECEC"/>
<path d="M62.5232 241.11H57.5332V246.1H62.5232V241.11Z" fill="white"/>
<path d="M62.7727 246.38H57.2227V240.83H62.7727V246.38ZM57.7827 245.82H62.2127V241.39H57.7827V245.82Z" fill="#ECECEC"/>
<path d="M62.5232 221.09H57.5332V226.08H62.5232V221.09Z" fill="white"/>
<path d="M62.7727 226.36H57.2227V220.81H62.7727V226.36ZM57.7827 225.8H62.2127V221.37H57.7827V225.8Z" fill="#ECECEC"/>
<path d="M62.5232 201.07H57.5332V206.06H62.5232V201.07Z" fill="white"/>
<path d="M62.7727 206.34H57.2227V200.79H62.7727V206.34ZM57.7827 205.78H62.2127V201.35H57.7827V205.78Z" fill="#ECECEC"/>
<path d="M42.4939 201.07H37.5039V206.06H42.4939V201.07Z" fill="white"/>
<path d="M42.7531 206.34H37.2031V200.79H42.7531V206.34ZM37.7631 205.78H42.1931V201.35H37.7631V205.78Z" fill="#ECECEC"/>
<path d="M42.4724 241.11H37.4824V246.1H42.4724V241.11Z" fill="white"/>
<path d="M42.7531 246.38H37.2031V240.83H42.7531V246.38ZM37.7631 245.82H42.1931V241.39H37.7631V245.82Z" fill="#ECECEC"/>
<path d="M295.854 63.8506H253.984V78.5906H295.854V63.8506Z" fill="#ECECEC"/>
<path d="M295.854 57.2305H253.984V63.8505H295.854V57.2305Z" fill="#DCDCDC"/>
<path d="M257.925 61.7603L255.695 59.5303L255.905 59.3203L258.135 61.5503L257.925 61.7603Z" fill="white"/>
<path d="M255.905 61.7603L255.695 61.5503L257.925 59.3203L258.135 59.5303L255.905 61.7603Z" fill="white"/>
<path d="M291.376 60.3201L291.164 60.5322L292.493 61.8618L292.705 61.6497L291.376 60.3201Z" fill="white"/>
<path d="M292.499 59.2117L291.17 60.541L291.382 60.7531L292.711 59.4238L292.499 59.2117Z" fill="white"/>
<path d="M292.839 60.3387L292.627 60.5508L293.956 61.8804L294.168 61.6683L292.839 60.3387Z" fill="white"/>
<path d="M293.966 59.2327L292.637 60.5625L292.849 60.7746L294.178 59.4447L293.966 59.2327Z" fill="white"/>
<path d="M264.785 67.9102H258.455V74.2402H264.785V67.9102Z" fill="white"/>
<path d="M273.644 67.9102H267.314V74.2402H273.644V67.9102Z" fill="#DCDCDC"/>
<path d="M282.516 67.9102H276.186V74.2402H282.516V67.9102Z" fill="#C8C8C8"/>
<path d="M291.375 67.9102H285.045V74.2402H291.375V67.9102Z" fill="#A8A8A8"/>
<path d="M273.854 200.57H231.984V234.56H273.854V200.57Z" fill="#ECECEC"/>
<path d="M273.854 193.95H231.984V200.57H273.854V193.95Z" fill="#DCDCDC"/>
<path d="M235.925 198.48L233.695 196.24L233.905 196.04L236.135 198.27L235.925 198.48Z" fill="white"/>
<path d="M233.905 198.48L233.695 198.27L235.925 196.04L236.135 196.24L233.905 198.48Z" fill="white"/>
<path d="M269.376 197.046L269.164 197.258L270.493 198.587L270.705 198.375L269.376 197.046Z" fill="white"/>
<path d="M270.499 195.933L269.17 197.263L269.382 197.475L270.711 196.145L270.499 195.933Z" fill="white"/>
<path d="M270.839 197.054L270.627 197.266L271.956 198.595L272.168 198.383L270.839 197.054Z" fill="white"/>
<path d="M271.964 195.955L270.635 197.285L270.847 197.497L272.176 196.167L271.964 195.955Z" fill="white"/>
<path d="M242.844 204.63H236.514V210.96H242.844V204.63Z" fill="#DCDCDC"/>
<path d="M269.304 207.02H247.824V208.58H269.304V207.02Z" fill="#DCDCDC"/>
<path d="M242.844 214.25H236.514V220.58H242.844V214.25Z" fill="#C8C8C8"/>
<path d="M269.304 216.63H247.824V218.19H269.304V216.63Z" fill="#C8C8C8"/>
<path d="M242.844 223.86H236.514V230.19H242.844V223.86Z" fill="#A8A8A8"/>
<path d="M269.304 226.25H247.824V227.81H269.304V226.25Z" fill="#A8A8A8"/>
<path d="M55.9845 105.84H0.144531V158.46H55.9845V105.84Z" fill="#ECECEC"/>
<path d="M55.9845 100.07H0.144531V105.84H55.9845V100.07Z" fill="#DCDCDC"/>
<path d="M3.58477 104.01L1.63477 102.07L1.81477 101.88L3.76477 103.83L3.58477 104.01Z" fill="white"/>
<path d="M1.81477 104.01L1.63477 103.83L3.58477 101.88L3.76477 102.07L1.81477 104.01Z" fill="white"/>
<path d="M52.0882 102.766L51.9043 102.95L53.0567 104.103L53.2406 103.919L52.0882 102.766Z" fill="white"/>
<path d="M53.0569 101.799L51.9043 102.951L52.0881 103.135L53.2407 101.982L53.0569 101.799Z" fill="white"/>
<path d="M53.3558 102.769L53.1719 102.953L54.3243 104.106L54.5081 103.922L53.3558 102.769Z" fill="white"/>
<path d="M54.326 101.813L53.1738 102.966L53.3577 103.15L54.5099 101.997L54.326 101.813Z" fill="white"/>
<path d="M54.7243 110.931H1.4043V111.241H54.7243V110.931Z" fill="#DCDCDC"/>
<path d="M54.7243 116.19H1.4043V116.5H54.7243V116.19Z" fill="#DCDCDC"/>
<path d="M54.7243 121.45H1.4043V121.76H54.7243V121.45Z" fill="#DCDCDC"/>
<path d="M54.7243 126.721H1.4043V127.031H54.7243V126.721Z" fill="#DCDCDC"/>
<path d="M54.7243 131.98H1.4043V132.29H54.7243V131.98Z" fill="#DCDCDC"/>
<path d="M54.7243 137.25H1.4043V137.56H54.7243V137.25Z" fill="#DCDCDC"/>
<path d="M54.7243 142.511H1.4043V142.821H54.7243V142.511Z" fill="#DCDCDC"/>
<path d="M54.7243 147.78H1.4043V148.09H54.7243V147.78Z" fill="#DCDCDC"/>
<path d="M54.7243 153.04H1.4043V153.35H54.7243V153.04Z" fill="#DCDCDC"/>
<path d="M5.27539 107.69H8.38539L6.83539 109.25L5.27539 107.69Z" fill="#DCDCDC"/>
<path d="M36.1048 107.82H10.9648V109.11H36.1048V107.82Z" fill="#DCDCDC"/>
<path d="M5.27539 139.261H8.38539L6.83539 140.811L5.27539 139.261Z" fill="#DCDCDC"/>
<path d="M36.1048 139.391H10.9648V140.681H36.1048V139.391Z" fill="#DCDCDC"/>
<path d="M11.7441 115.27V112.16L13.3041 113.71L11.7441 115.27Z" fill="#DCDCDC"/>
<path d="M40.6341 113.07H15.4941V114.36H40.6341V113.07Z" fill="#DCDCDC"/>
<path d="M11.7441 120.54V117.42L13.3041 118.98L11.7441 120.54Z" fill="#DCDCDC"/>
<path d="M29.8241 118.33H15.4941V119.62H29.8241V118.33Z" fill="#DCDCDC"/>
<path d="M11.7441 125.801V122.681L13.3041 124.241L11.7441 125.801Z" fill="#DCDCDC"/>
<path d="M35.1941 123.601H15.4941V124.891H35.1941V123.601Z" fill="#DCDCDC"/>
<path d="M11.7441 131.06V127.95L13.3041 129.51L11.7441 131.06Z" fill="#DCDCDC"/>
<path d="M40.6341 128.86H15.4941V130.15H40.6341V128.86Z" fill="#DCDCDC"/>
<path d="M11.7441 136.33V133.21L13.3041 134.77L11.7441 136.33Z" fill="#DCDCDC"/>
<path d="M32.4041 134.13H15.4941V135.42H32.4041V134.13Z" fill="#DCDCDC"/>
<path d="M11.7441 146.86V143.74L13.3041 145.3L11.7441 146.86Z" fill="#DCDCDC"/>
<path d="M23.5341 144.66H15.4941V145.95H23.5341V144.66Z" fill="#DCDCDC"/>
<path d="M11.7441 152.121V149.011L13.3041 150.561L11.7441 152.121Z" fill="#DCDCDC"/>
<path d="M32.4041 149.921H15.4941V151.211H32.4041V149.921Z" fill="#DCDCDC"/>
<path d="M11.7441 157.391V154.271L13.3041 155.831L11.7441 157.391Z" fill="#DCDCDC"/>
<path d="M40.6341 155.181H15.4941V156.471H40.6341V155.181Z" fill="#DCDCDC"/>
<path d="M263.134 26.6797H32.5645V148.946H263.134V26.6797Z" fill="white"/>
<path d="M263.225 149H32.4746V26.6299H263.215V149H263.225ZM32.6546 148.896H263.065V26.7339H32.6446V148.896H32.6546Z" fill="#1A2E35"/>
<path d="M263.134 19.0703H32.5645V26.7103H263.134V19.0703Z" fill="#1A2E35"/>
<path d="M38.2738 22.8908C38.2738 23.7708 37.5638 24.4808 36.6838 24.4808C35.8038 24.4808 35.0938 23.7708 35.0938 22.8908C35.0938 22.0108 35.8038 21.3008 36.6838 21.3008C37.5638 21.3008 38.2738 22.0108 38.2738 22.8908Z" fill="#C8C8C8"/>
<path d="M44.764 22.8908C44.764 23.7708 44.054 24.4808 43.174 24.4808C42.294 24.4808 41.584 23.7708 41.584 22.8908C41.584 22.0108 42.294 21.3008 43.174 21.3008C44.054 21.3008 44.764 22.0108 44.764 22.8908Z" fill="white"/>
<path d="M51.2445 22.8908C51.2445 23.7708 50.5345 24.4808 49.6545 24.4808C48.7745 24.4808 48.0645 23.7708 48.0645 22.8908C48.0645 22.0108 48.7745 21.3008 49.6545 21.3008C50.5345 21.3008 51.2445 22.0108 51.2445 22.8908Z" fill="#A8A8A8"/>
<path d="M159.543 175.7C159.543 175.7 152.143 194.75 152.133 194.76C150.703 198.4 149.503 201.61 149.043 203.33C149.043 203.33 149.043 203.35 149.043 203.36C148.873 204.01 148.803 204.44 148.873 204.59C148.873 204.6 148.873 204.61 148.883 204.62C149.673 205.78 178.393 218.09 179.543 218.18C180.693 218.28 181.043 215.01 180.313 213.65C179.573 212.28 170.683 202.65 170.683 202.65L177.903 183.54L159.553 175.7H159.543Z" fill="#DCDCDC"/>
<path d="M148.863 204.58C148.863 204.58 148.863 204.61 148.873 204.61C149.673 205.77 178.383 218.08 179.533 218.18C180.683 218.28 181.033 215.01 180.303 213.64C179.903 212.9 177.133 209.75 174.663 207.02C176.973 209.69 182.203 217.77 150.793 198.24C149.983 200.38 149.353 202.19 149.053 203.33C149.053 203.34 149.053 203.35 149.053 203.36C148.883 204.01 148.803 204.44 148.883 204.59L148.863 204.58Z" fill="#C8C8C8"/>
<path d="M154.512 188.65L173.222 195.91C173.222 195.91 184.852 168.71 189.302 156.2C191.362 150.4 183.742 117.53 181.852 111.41C180.692 107.65 178.132 102.56 178.132 102.56L157.872 101.01C157.872 101.01 171.572 144.3 170.222 148.47C168.582 153.55 154.512 188.66 154.512 188.66V188.65Z" fill="#C8C8C8"/>
<path d="M171.651 102.05L168.831 139.13C165.521 125.17 157.871 101 157.871 101L171.651 102.06V102.05Z" fill="#DCDCDC"/>
<path d="M182.141 113.59C181.741 113.44 181.311 113.39 180.901 113.3C180.571 113.22 180.241 113.14 179.921 113.04C179.311 112.84 178.681 112.55 178.181 111.98C177.611 111.34 177.331 110.37 177.051 109.44C176.891 108.89 176.721 108.34 176.551 107.79C176.471 107.52 176.381 107.26 176.301 106.99C176.201 106.68 176.061 106.36 175.991 106.03C175.981 105.98 175.931 106.01 175.941 106.05C176.001 106.27 176.031 106.51 176.081 106.74C176.141 107.01 176.191 107.27 176.241 107.54C176.341 108.02 176.441 108.49 176.551 108.96C176.741 109.81 176.921 110.7 177.251 111.46C177.851 112.86 178.931 113.42 180.011 113.62C180.321 113.68 180.631 113.71 180.941 113.73C181.331 113.76 181.731 113.81 182.121 113.74C182.181 113.73 182.201 113.61 182.131 113.58L182.141 113.59Z" fill="#DCDCDC"/>
<path d="M128.673 136.35C128.673 136.35 115.453 123.89 115.443 123.88C112.433 121.39 108.113 117.54 107.393 117.54C106.043 117.94 85.1535 141.65 84.7135 142.71C84.2635 143.77 87.2635 145.11 88.7935 144.84C90.3235 144.56 102.223 139.08 102.223 139.08L116.153 151.44L128.683 136.35H128.673Z" fill="#DCDCDC"/>
<path d="M88.7835 144.84C89.5535 144.7 92.9135 143.26 96.0835 141.85C92.3835 142.78 85.1035 143.11 114.903 123.42C111.933 120.95 108.083 117.54 107.393 117.53C106.043 117.93 85.1535 141.64 84.7135 142.7C84.2635 143.76 87.2635 145.1 88.7835 144.83V144.84Z" fill="#C8C8C8"/>
<path d="M175.464 102.36C175.464 102.36 176.124 108.8 174.414 113.83C173.174 117.51 171.934 120.73 171.334 121.03C170.654 121.37 167.394 122.54 166.304 122.9C166.304 122.9 157.164 152.95 150.694 161.23C148.624 163.88 137.094 166.68 132.554 163.9C121.254 156.99 111.174 147.02 111.174 147.02L122.544 130.57L136.724 142.46C136.724 142.46 146.024 120.46 146.604 115.55C147.074 111.56 150.234 104.16 152.764 100.69L175.464 102.36Z" fill="#C8C8C8"/>
<path d="M153.285 112.631C153.885 112.601 154.505 112.691 155.105 112.721C155.585 112.751 156.075 112.761 156.555 112.761C157.465 112.761 158.415 112.651 159.245 112.251C160.185 111.801 160.795 110.931 161.375 110.101C161.725 109.611 162.075 109.121 162.425 108.641C162.595 108.401 162.775 108.171 162.945 107.941C163.155 107.671 163.415 107.391 163.585 107.101C163.605 107.061 163.675 107.101 163.655 107.141C163.514 107.331 163.425 107.561 163.315 107.771C163.185 108.011 163.055 108.261 162.915 108.501C162.675 108.931 162.434 109.371 162.184 109.801C161.734 110.571 161.305 111.391 160.675 112.041C159.525 113.221 157.875 113.451 156.305 113.311C155.855 113.271 155.405 113.211 154.955 113.141C154.405 113.051 153.805 112.981 153.275 112.801C153.195 112.771 153.194 112.651 153.294 112.641L153.285 112.631Z" fill="#DCDCDC"/>
<path d="M172.174 120.75C169.794 121.27 167.454 122.14 165.214 123.06C165.124 123.1 165.164 123.23 165.264 123.2C167.604 122.5 169.974 121.85 172.274 121.02C172.454 120.96 172.364 120.7 172.184 120.74L172.174 120.75Z" fill="#DCDCDC"/>
<path d="M174.604 105.58C174.604 105.5 174.474 105.47 174.464 105.55C174.174 108.2 173.734 110.5 173.234 112.95C172.994 114.08 171.344 120.32 169.404 119.62C169.084 119.5 168.944 119.16 168.954 118.65C168.954 118.04 169.274 117.33 169.444 116.74C169.814 115.44 170.154 114.13 170.414 112.8C170.914 110.32 171.214 107.82 171.204 105.29C171.204 105.21 171.084 105.2 171.074 105.29C170.674 108.75 170.184 112.2 169.274 115.57C168.834 117.19 167.714 119.58 169.414 120.03C171.144 120.49 172.754 116.47 173.104 115.35C174.074 112.25 174.484 108.82 174.614 105.58H174.604Z" fill="#DCDCDC"/>
<path d="M169.445 119.801C169.215 120.201 169.025 120.631 168.845 121.061C168.705 121.391 168.535 121.751 168.535 122.121C168.535 122.191 168.625 122.211 168.665 122.171C168.935 121.901 169.075 121.511 169.245 121.171C169.445 120.781 169.645 120.401 169.835 120.001C169.955 119.741 169.575 119.551 169.435 119.801H169.445Z" fill="#DCDCDC"/>
<path d="M169.252 78.8202C173.182 80.0502 189.972 81.1502 194.462 76.6402C199.042 72.0402 200.672 55.7402 201.012 53.6902C201.812 48.8902 187.412 50.2102 187.162 51.5402C186.262 56.2402 186.112 68.2902 184.292 69.1602C180.462 70.9902 176.622 71.6802 170.342 73.6902C165.962 75.0902 164.912 77.4602 169.252 78.8202Z" fill="#DCDCDC"/>
<path d="M200.783 54.5804C201.253 53.0104 202.823 45.5404 202.783 43.3904C202.743 41.2404 202.173 35.0604 200.523 34.9304C198.873 34.8004 198.893 36.6204 198.893 36.6204C198.893 36.6204 198.243 34.0504 196.562 34.0704C194.892 34.0904 195.012 36.9204 195.012 36.9204C195.012 36.9204 194.152 34.3304 192.482 34.4604C190.812 34.5904 191.423 37.4204 191.423 37.4204C191.423 37.4204 190.743 35.0104 189.413 35.7004C187.813 36.5304 189.573 40.8204 189.443 43.2004C189.413 43.7404 188.062 54.1004 188.062 54.1004L200.783 54.5904V54.5804Z" fill="#DCDCDC"/>
<path d="M191.372 37.17C192.652 40.33 192.672 41.93 192.072 45.24C192.062 45.3 192.152 45.34 192.172 45.27C193.052 42.09 193.322 40.07 191.522 37.1C191.432 36.95 191.312 37.02 191.372 37.17Z" fill="#A8A8A8"/>
<path d="M194.912 36.6503C195.952 40.0503 195.992 41.7903 195.622 45.3003C195.622 45.3503 195.702 45.3603 195.712 45.3103C196.362 41.9003 196.582 39.8803 195.092 36.6303C195.022 36.4803 194.862 36.5003 194.912 36.6603V36.6503Z" fill="#A8A8A8"/>
<path d="M198.862 36.7906C199.632 40.1506 199.752 42.0606 198.962 45.4206C198.942 45.5006 199.062 45.5306 199.082 45.4606C200.222 42.1106 200.102 39.7306 198.972 36.7806C198.892 36.5806 198.822 36.5806 198.872 36.7906H198.862Z" fill="#A8A8A8"/>
<path d="M187.642 56.1902C187.642 56.1902 185.332 52.6002 184.662 50.7902C183.992 48.9902 183.982 41.3502 185.632 41.2602C187.762 41.1402 188.632 45.5402 188.782 47.7602C188.782 47.7602 193.702 47.4702 195.022 50.4902C196.332 53.5202 187.642 56.1902 187.642 56.1902Z" fill="#DCDCDC"/>
<path d="M186.232 41.4204C188.252 42.7104 188.262 45.6304 188.562 47.7604C188.582 47.9204 188.722 47.9604 188.842 47.9204C190.912 47.9404 193.832 48.5604 195.072 50.3704C195.112 50.4204 195.192 50.3704 195.162 50.3204C194.102 48.2104 191.282 47.3604 189.012 47.4804C188.732 45.2804 188.602 42.3604 186.252 41.4004C186.242 41.4004 186.232 41.4104 186.242 41.4204H186.232Z" fill="#A8A8A8"/>
<path d="M186.453 54.7102C186.453 54.7102 185.453 67.7902 184.393 68.5102C182.633 69.7102 171.953 72.8502 168.183 74.1702C164.413 75.4902 162.093 78.3302 171.963 80.4302C181.503 82.4602 191.683 82.9902 196.313 80.5002C201.963 77.4702 205.553 63.0902 205.553 63.0902L186.443 54.7002L186.453 54.7102Z" fill="#C8C8C8"/>
<path d="M203.694 66.3401C196.054 62.6101 187.894 59.5601 186.464 58.9501C186.394 58.9201 186.374 59.0401 186.444 59.0701C187.784 59.6401 197.134 64.0201 203.674 66.4801C203.754 66.5101 203.774 66.3801 203.694 66.3501V66.3401Z" fill="#A8A8A8"/>
<g opacity="0.1">
<path d="M165.152 77.5205C165.762 78.5105 167.752 79.5405 171.972 80.4405C181.512 82.4705 191.692 83.0005 196.322 80.5105C196.932 80.1805 197.512 79.7205 198.072 79.1705L165.162 77.5205H165.152Z" fill="black"/>
</g>
<path d="M171.764 60.8906C169.954 68.3006 158.754 76.1906 147.404 75.0406C137.794 74.0606 129.794 63.3706 130.894 56.1006C132.074 48.3906 139.404 45.1006 144.994 46.9406C150.764 48.8406 152.614 54.1006 157.094 54.6806C159.234 54.9506 162.614 53.5406 165.794 53.8106C169.344 54.1106 172.694 57.1006 171.764 60.8906Z" fill="#DCDCDC"/>
<path d="M163.035 53.9203C161.765 54.1903 160.475 54.3903 159.175 54.4503C157.875 54.4803 156.535 54.3903 155.295 53.8503C154.665 53.5903 154.135 53.1603 153.645 52.7203C153.155 52.2803 152.695 51.8303 152.225 51.3803C151.295 50.4803 150.355 49.5903 149.345 48.8003C148.345 47.9903 147.275 47.2903 146.115 46.7703C144.955 46.2603 143.695 45.9603 142.425 45.9403C141.155 45.9103 139.885 46.1803 138.695 46.6603C137.495 47.1203 136.375 47.7903 135.305 48.5203C136.305 47.7003 137.405 46.9803 138.605 46.4403C139.795 45.9003 141.105 45.5803 142.425 45.5703C143.755 45.5203 145.075 45.8603 146.285 46.3603C147.495 46.8903 148.615 47.6103 149.645 48.4203C150.675 49.2403 151.605 50.1503 152.535 51.0603C152.995 51.5203 153.455 51.9703 153.925 52.4003C154.405 52.8303 154.885 53.2303 155.455 53.4903C156.595 54.0303 157.895 54.1803 159.175 54.1903C160.465 54.2103 161.755 54.0703 163.045 53.9003L163.035 53.9203Z" fill="#DCDCDC"/>
<path d="M171.275 62.3901C170.115 64.9201 168.525 67.2601 166.645 69.3301C164.765 71.4001 162.505 73.1601 159.975 74.3901C158.705 75.0001 157.365 75.4601 155.985 75.7401C155.645 75.8301 155.295 75.8801 154.945 75.9301C154.595 75.9801 154.255 76.0401 153.895 76.0601C153.545 76.0801 153.195 76.1201 152.845 76.1301H151.795C148.985 76.0301 146.235 75.2901 143.695 74.1501C144.355 74.3601 145.005 74.6101 145.675 74.8001C146.345 74.9801 147.005 75.1801 147.695 75.2901C149.045 75.6001 150.425 75.7201 151.805 75.7401C154.555 75.7401 157.315 75.1701 159.775 73.9401C162.265 72.7701 164.465 71.0401 166.385 69.0601C167.345 68.0701 168.235 67.0001 169.045 65.8801C169.875 64.7701 170.615 63.5901 171.285 62.3701L171.275 62.3901Z" fill="#DCDCDC"/>
<path d="M161.113 79.5008C155.733 88.3808 147.373 101.611 141.913 101.861C136.983 102.091 128.833 98.3508 119.953 94.3608C118.193 93.5708 124.653 80.6608 126.453 81.6908C129.983 83.7308 138.023 88.8108 140.373 89.0308C141.383 89.1208 152.053 80.1208 158.113 75.7408C163.433 71.8808 162.163 77.7708 161.113 79.5008Z" fill="#DCDCDC"/>
<path d="M121.083 94.8502C119.453 94.6702 111.953 93.2402 109.993 92.3702C108.023 91.5002 102.553 88.5902 103.063 87.0202C103.573 85.4502 105.243 86.1702 105.243 86.1702C105.243 86.1702 103.123 84.5702 103.783 83.0402C104.443 81.5002 107.003 82.7202 107.003 82.7202C107.003 82.7202 104.943 80.9202 105.713 79.4402C106.483 77.9502 108.853 79.6002 108.853 79.6002C108.853 79.6002 106.893 78.0402 108.043 77.0902C109.423 75.9402 112.703 79.2102 114.953 80.0102C115.463 80.1902 125.533 82.9402 125.533 82.9402L121.073 94.8602L121.083 94.8502Z" fill="#DCDCDC"/>
<path d="M108.653 79.4605C111.073 81.8605 112.543 82.5005 115.823 83.2205C115.883 83.2305 115.883 83.3305 115.813 83.3205C112.543 82.9005 110.573 82.3705 108.533 79.5605C108.433 79.4205 108.533 79.3305 108.653 79.4505V79.4605Z" fill="#A8A8A8"/>
<path d="M106.812 82.5205C109.542 84.8005 111.132 85.5005 114.512 86.5105C114.562 86.5205 114.542 86.6105 114.492 86.6005C111.092 85.8805 109.152 85.3105 106.722 82.6805C106.612 82.5605 106.692 82.4205 106.812 82.5205Z" fill="#A8A8A8"/>
<path d="M105.413 86.2206C108.213 88.2306 109.933 89.0806 113.333 89.6406C113.413 89.6506 113.403 89.7706 113.323 89.7706C109.793 89.5306 107.653 88.4906 105.363 86.3106C105.203 86.1606 105.243 86.0906 105.413 86.2206Z" fill="#A8A8A8"/>
<path d="M127.643 83.3605C127.643 83.3605 125.223 79.8405 123.813 78.5305C122.403 77.2205 115.373 74.2605 114.643 75.7405C113.703 77.6605 117.433 80.1605 119.413 81.1505C119.413 81.1505 117.243 85.5805 119.523 87.9605C121.803 90.3405 127.633 83.3605 127.633 83.3605H127.643Z" fill="#DCDCDC"/>
<path d="M114.563 76.3504C114.973 78.7104 117.663 79.8404 119.513 80.9504C119.653 81.0304 119.633 81.1804 119.553 81.2704C118.763 83.1904 118.213 86.1204 119.403 87.9604C119.433 88.0104 119.363 88.0704 119.323 88.0204C117.783 86.2204 118.093 83.3004 119.083 81.2504C117.163 80.1504 114.513 78.8904 114.543 76.3504C114.543 76.3404 114.563 76.3304 114.563 76.3504Z" fill="#A8A8A8"/>
<path d="M128.663 82.2304C128.663 82.2304 139.433 88.6904 140.653 88.2804C142.683 87.6104 155.293 77.2204 158.643 75.0404C161.993 72.8504 163.353 75.4904 161.553 79.0404C156.833 88.3704 149.023 103.01 141.463 104.99C137.393 106.06 122.543 101.59 122.543 101.59L128.663 82.2304Z" fill="#C8C8C8"/>
<path d="M155.703 89.7402C155.903 89.4502 156.003 89.0902 156.173 88.7702C156.353 88.4302 156.523 88.1002 156.703 87.7702C157.053 87.1202 157.403 86.4802 157.753 85.8302C158.443 84.5302 159.213 83.2802 159.943 82.0102C159.953 81.9902 159.983 82.0102 159.973 82.0302C159.343 83.3702 158.743 84.7002 158.023 86.0002C158.003 86.0302 157.993 86.0602 157.973 86.0802C158.133 85.9002 158.293 85.7202 158.453 85.5402C158.783 85.1702 159.113 84.7902 159.443 84.4102C159.463 84.3902 159.503 84.4102 159.483 84.4402C159.193 84.8402 158.883 85.2302 158.553 85.6002C158.383 85.7902 158.213 85.9802 158.033 86.1602C157.953 86.2402 157.863 86.3302 157.783 86.4102C157.513 86.8902 157.243 87.3702 156.973 87.8602C156.783 88.1902 156.593 88.5102 156.403 88.8402C156.213 89.1602 155.943 89.4502 155.783 89.7902C155.763 89.8402 155.683 89.7902 155.713 89.7502L155.703 89.7402Z" fill="#A8A8A8"/>
<path d="M131.673 85.1305C128.923 92.6605 126.883 100.581 126.453 101.971C126.433 102.041 126.553 102.041 126.573 101.971C126.973 100.661 130.163 91.4705 131.813 85.1305C131.833 85.0605 131.713 85.0505 131.683 85.1305H131.673Z" fill="#A8A8A8"/>
<path d="M159.963 165.08C159.963 165.08 147.543 181.31 147.533 181.32C145.143 184.41 143.103 187.16 142.173 188.69C142.173 188.69 142.163 188.7 142.163 188.72C141.813 189.29 141.623 189.69 141.653 189.85C141.653 189.86 141.653 189.87 141.653 189.88C142.093 191.21 166.243 211.04 167.313 211.45C168.393 211.86 169.633 208.83 169.313 207.31C168.983 205.79 163.133 194.06 163.133 194.06L175.393 177.72L159.953 165.08H159.963Z" fill="#FFABA1"/>
<path d="M151.244 176.48L167.464 188.3C167.464 188.3 184.854 168.7 189.304 156.19C191.364 150.39 183.744 117.52 181.854 111.4C180.694 107.64 178.134 102.55 178.134 102.55L157.874 101C157.874 101 171.574 144.29 170.224 148.46C168.584 153.54 151.244 176.48 151.244 176.48Z" fill="#115FBC"/>
<g opacity="0.7">
<path d="M171.655 102.05L168.835 139.13C165.525 125.17 157.875 101 157.875 101L171.655 102.06V102.05Z" fill="#2673E5"/>
</g>
<g opacity="0.7">
<path d="M182.145 113.59C181.745 113.44 181.315 113.39 180.905 113.3C180.575 113.22 180.245 113.14 179.925 113.04C179.315 112.84 178.685 112.55 178.185 111.98C177.615 111.34 177.335 110.37 177.055 109.44C176.895 108.89 176.725 108.34 176.555 107.79C176.475 107.52 176.385 107.26 176.305 106.99C176.205 106.68 176.065 106.36 175.995 106.03C175.985 105.98 175.935 106.01 175.945 106.05C176.005 106.27 176.035 106.51 176.085 106.74C176.145 107.01 176.195 107.27 176.245 107.54C176.345 108.02 176.445 108.49 176.555 108.96C176.745 109.81 176.925 110.7 177.255 111.46C177.855 112.86 178.935 113.42 180.015 113.62C180.325 113.68 180.635 113.71 180.945 113.73C181.335 113.76 181.735 113.81 182.125 113.74C182.185 113.73 182.205 113.61 182.135 113.58L182.145 113.59Z" fill="#2673E5"/>
</g>
<path d="M141.653 189.84V189.87C142.093 191.21 166.243 211.04 167.313 211.45C168.393 211.86 169.633 208.82 169.313 207.31C169.133 206.49 167.353 202.7 165.743 199.38C167.223 202.59 169.993 211.81 145.263 184.29C143.893 186.12 142.783 187.68 142.173 188.69C142.173 188.69 142.163 188.7 142.163 188.71C141.813 189.29 141.623 189.68 141.653 189.84Z" fill="#1A2E35"/>
<path d="M137.813 129.701C137.813 129.701 126.883 115.191 126.873 115.171C124.323 112.211 120.723 107.681 120.003 107.561C118.603 107.721 94.0128 127.571 93.3928 128.541C92.7728 129.511 95.5028 131.341 97.0528 131.331C98.6128 131.311 111.263 127.921 111.263 127.921L122.903 142.451L137.803 129.701H137.813Z" fill="#FFABA1"/>
<path d="M97.0528 131.33C97.8328 131.32 101.383 130.47 104.753 129.62C100.943 129.91 93.7128 129 126.413 114.64C123.913 111.7 120.683 107.69 120.013 107.57C118.613 107.73 94.0128 127.57 93.4028 128.55C92.7828 129.52 95.5028 131.35 97.0528 131.33Z" fill="#1A2E35"/>
<path d="M175.463 102.36C175.463 102.36 176.123 108.8 174.413 113.83C173.173 117.51 171.933 120.73 171.333 121.03C170.653 121.37 167.393 122.54 166.303 122.9C166.303 122.9 159.162 147.11 153.292 154.98C151.282 157.67 142.153 160.33 137.713 157.39C127.293 150.48 114.812 132.35 114.812 132.35L129.853 119.14L142.702 134.93C142.702 134.93 146.033 120.46 146.613 115.55C147.083 111.56 150.243 104.16 152.773 100.69L175.473 102.36H175.463Z" fill="#115FBC"/>
<g opacity="0.7">
<path d="M153.283 112.631C153.883 112.601 154.503 112.691 155.103 112.721C155.583 112.751 156.073 112.761 156.553 112.761C157.463 112.761 158.413 112.651 159.243 112.251C160.183 111.801 160.793 110.931 161.373 110.101C161.723 109.611 162.073 109.121 162.423 108.641C162.593 108.401 162.773 108.171 162.943 107.941C163.153 107.671 163.413 107.391 163.583 107.101C163.603 107.061 163.673 107.101 163.653 107.141C163.513 107.331 163.423 107.561 163.313 107.771C163.183 108.011 163.053 108.261 162.913 108.501C162.673 108.931 162.433 109.371 162.183 109.801C161.733 110.571 161.303 111.391 160.673 112.041C159.523 113.221 157.873 113.451 156.303 113.311C155.853 113.271 155.403 113.211 154.953 113.141C154.403 113.051 153.803 112.981 153.273 112.801C153.193 112.771 153.193 112.651 153.293 112.641L153.283 112.631Z" fill="#2673E5"/>
<path d="M172.172 120.75C169.792 121.27 167.452 122.14 165.212 123.06C165.122 123.1 165.162 123.23 165.262 123.2C167.602 122.5 169.972 121.85 172.272 121.02C172.452 120.96 172.362 120.7 172.182 120.74L172.172 120.75Z" fill="#2673E5"/>
<path d="M174.602 105.58C174.602 105.5 174.472 105.47 174.462 105.55C174.172 108.2 173.732 110.5 173.232 112.95C172.992 114.08 171.342 120.32 169.402 119.62C169.082 119.5 168.942 119.16 168.952 118.65C168.952 118.04 169.272 117.33 169.442 116.74C169.812 115.44 170.152 114.13 170.412 112.8C170.912 110.32 171.212 107.82 171.202 105.29C171.202 105.21 171.082 105.2 171.072 105.29C170.672 108.75 170.182 112.2 169.272 115.57C168.832 117.19 167.712 119.58 169.412 120.03C171.142 120.49 172.752 116.47 173.102 115.35C174.072 112.25 174.482 108.82 174.612 105.58H174.602Z" fill="#2673E5"/>
<path d="M169.443 119.801C169.213 120.201 169.023 120.631 168.843 121.061C168.703 121.391 168.533 121.751 168.533 122.121C168.533 122.191 168.623 122.211 168.663 122.171C168.933 121.901 169.073 121.511 169.243 121.171C169.443 120.781 169.643 120.401 169.833 120.001C169.953 119.741 169.573 119.551 169.433 119.801H169.443Z" fill="#2673E5"/>
</g>
<path d="M171.593 57.841C172.963 65.351 165.943 77.121 155.103 80.681C145.933 83.701 134.263 77.201 132.313 70.111C130.243 62.591 135.603 56.601 141.463 56.001C147.503 55.381 151.343 59.441 155.663 58.141C157.733 57.521 160.233 54.851 163.253 53.801C166.623 52.621 170.893 53.991 171.593 57.841Z" fill="#1A2E35"/>
<path d="M160.774 55.021C159.724 55.791 158.634 56.491 157.464 57.081C156.294 57.641 155.024 58.101 153.674 58.111C152.994 58.131 152.334 57.951 151.714 57.751C151.084 57.551 150.484 57.331 149.874 57.101C148.654 56.661 147.444 56.231 146.194 55.911C144.954 55.581 143.684 55.371 142.414 55.371C141.144 55.381 139.874 55.611 138.714 56.121C137.544 56.611 136.484 57.381 135.594 58.301C134.684 59.211 133.934 60.271 133.264 61.381C133.844 60.221 134.564 59.121 135.424 58.141C136.294 57.161 137.354 56.341 138.564 55.781C139.754 55.201 141.094 54.961 142.414 54.931C143.734 54.921 145.044 55.121 146.314 55.441C147.584 55.771 148.814 56.221 150.024 56.681C150.634 56.911 151.234 57.141 151.844 57.341C152.454 57.541 153.054 57.711 153.684 57.721C154.944 57.751 156.194 57.361 157.374 56.851C158.564 56.351 159.684 55.691 160.784 55.011L160.774 55.021Z" fill="#1A2E35"/>
<path d="M171.753 59.4111C171.733 62.2011 171.223 64.9811 170.353 67.6311C169.473 70.2911 168.133 72.8111 166.323 74.9711C165.413 76.0411 164.373 77.0111 163.233 77.8311C162.953 78.0511 162.663 78.2411 162.363 78.4211C162.063 78.6111 161.773 78.8111 161.463 78.9711C161.153 79.1311 160.843 79.3111 160.533 79.4711L159.563 79.8911C156.963 80.9511 154.143 81.4011 151.363 81.4011C152.053 81.3211 152.753 81.2911 153.433 81.1911C154.123 81.0811 154.803 81.0011 155.473 80.8211C156.833 80.5511 158.143 80.1011 159.403 79.5611C161.913 78.4511 164.203 76.8011 165.953 74.6711C167.753 72.5911 169.063 70.1111 170.003 67.5211C170.473 66.2211 170.853 64.8911 171.143 63.5311C171.443 62.1811 171.653 60.8011 171.753 59.4111Z" fill="#1A2E35"/>
<path d="M169.233 78.4903C172.743 80.6303 188.783 85.7503 194.223 82.4503C199.773 79.0903 205.283 63.6603 206.113 61.7603C208.053 57.3003 193.753 55.1103 193.193 56.3303C191.183 60.6703 188.143 72.3403 186.163 72.7403C182.003 73.5903 178.113 73.3403 171.533 73.7703C166.943 74.0703 165.353 76.1203 169.233 78.4903Z" fill="#FFABA1"/>
<path d="M205.683 62.5607C206.513 61.1507 209.843 54.2807 210.313 52.1807C210.793 50.0807 211.723 43.9507 210.153 43.4207C208.583 42.8907 208.163 44.6607 208.163 44.6607C208.163 44.6607 208.153 42.0107 206.523 41.6207C204.893 41.2307 204.333 44.0107 204.333 44.0107C204.333 44.0107 204.123 41.2907 202.473 41.0207C200.823 40.7507 200.733 43.6407 200.733 43.6407C200.733 43.6407 200.653 41.1407 199.203 41.4907C197.453 41.9107 198.123 46.5007 197.423 48.7707C197.263 49.2907 193.453 59.0107 193.453 59.0107L205.683 62.5507V62.5607Z" fill="#FFABA1"/>
<path d="M200.752 43.3912C201.232 46.7712 200.862 48.3312 199.492 51.3912C199.462 51.4512 199.552 51.5012 199.582 51.4412C201.202 48.5612 201.952 46.6712 200.922 43.3512C200.872 43.1912 200.732 43.2212 200.762 43.3812L200.752 43.3912Z" fill="#1A2E35"/>
<path d="M204.302 43.7513C204.492 47.3013 204.112 49.0013 202.902 52.3113C202.882 52.3613 202.962 52.3913 202.982 52.3413C204.432 49.1913 205.142 47.2813 204.472 43.7613C204.442 43.6013 204.282 43.5813 204.292 43.7413L204.302 43.7513Z" fill="#1A2E35"/>
<path d="M208.103 44.8313C208.043 48.2813 207.693 50.1612 206.113 53.2312C206.073 53.3012 206.173 53.3612 206.223 53.2913C208.133 50.3212 208.593 47.9812 208.203 44.8412C208.173 44.6312 208.103 44.6113 208.103 44.8313Z" fill="#1A2E35"/>
<path d="M192.544 60.9605C192.544 60.9605 191.164 56.9105 190.954 55.0005C190.744 53.0905 192.574 45.6805 194.194 45.9805C196.294 46.3705 196.074 50.8605 195.684 53.0405C195.684 53.0405 200.534 53.9405 201.074 57.2005C201.614 60.4505 192.544 60.9505 192.544 60.9505V60.9605Z" fill="#FFABA1"/>
<path d="M194.733 46.2807C196.383 48.0207 195.683 50.8507 195.463 53.0007C195.443 53.1607 195.573 53.2307 195.703 53.2207C197.713 53.7307 200.393 55.0407 201.153 57.0907C201.173 57.1507 201.263 57.1307 201.253 57.0607C200.733 54.7507 198.203 53.2507 195.963 52.8307C196.223 50.6307 196.803 47.7607 194.743 46.2607C194.733 46.2607 194.713 46.2607 194.723 46.2807H194.733Z" fill="#1A2E35"/>
<g opacity="0.7">
<path d="M191.744 59.2305C191.744 59.2305 187.624 71.6805 186.414 72.1305C184.414 72.8705 173.294 73.3505 169.314 73.7205C165.334 74.1005 162.404 76.2905 171.474 80.7105C180.234 84.9805 189.994 87.9505 195.084 86.6505C201.294 85.0705 208.254 71.9805 208.254 71.9805L191.734 59.2305H191.744Z" fill="#2673E5"/>
</g>
<path d="M205.673 74.6804C199.153 69.2204 191.973 64.2904 190.733 63.3504C190.673 63.3104 190.623 63.4204 190.683 63.4604C191.843 64.3304 199.863 70.8404 205.613 74.8004C205.683 74.8504 205.733 74.7304 205.673 74.6704V74.6804Z" fill="#1A2E35"/>
<g opacity="0.1">
<path d="M165.574 76.2402C165.934 77.3502 167.614 78.8302 171.484 80.7102C180.254 84.9802 190.004 87.9502 195.094 86.6502C195.764 86.4802 196.444 86.1702 197.114 85.7702L165.564 76.2402H165.574Z" fill="black"/>
</g>
<g opacity="0.7">
<path d="M178.283 102.56L152.543 100.68C152.543 100.68 155.733 82.9604 160.393 76.0304C162.513 72.8804 165.733 73.1304 168.133 74.5504C168.733 74.9004 176.013 81.9504 177.043 84.7704C177.953 87.2604 176.323 90.4504 176.323 90.4504L178.283 102.57V102.56Z" fill="#2673E5"/>
</g>
<path d="M167.553 90.0699C168.663 89.9899 169.783 89.9499 170.903 90.0299C171.453 90.0699 172.003 90.1399 172.553 90.2199C172.823 90.2599 173.103 90.2899 173.373 90.3199C173.653 90.3499 173.953 90.3699 174.243 90.3299C174.273 90.3299 174.273 90.3599 174.243 90.3699C173.973 90.4299 173.713 90.4799 173.433 90.4999C173.173 90.5199 172.903 90.4999 172.643 90.4999C172.083 90.4599 171.523 90.3999 170.963 90.3599C169.833 90.2699 168.703 90.1899 167.563 90.1799C167.513 90.1799 167.513 90.0899 167.563 90.0899L167.553 90.0699Z" fill="#1A2E35"/>
<path d="M165.023 91.5195C165.903 91.2695 166.813 91.0595 167.713 90.9095C168.173 90.8395 168.623 90.7895 169.083 90.7495C169.303 90.7295 169.523 90.7195 169.743 90.7095C169.983 90.6995 170.233 90.7095 170.473 90.7095C170.503 90.7095 170.503 90.7495 170.473 90.7495C170.243 90.7695 170.023 90.8295 169.793 90.8595C169.563 90.8895 169.343 90.9295 169.113 90.9595C168.663 91.0295 168.203 91.0995 167.753 91.1695C166.843 91.2995 165.933 91.4395 165.033 91.5995C164.983 91.5995 164.973 91.5395 165.023 91.5295V91.5195Z" fill="#1A2E35"/>
<path d="M162.393 79.8315C155.533 87.6215 144.963 99.1715 139.543 98.4415C134.643 97.7915 127.283 92.6715 119.253 87.1715C117.653 86.0815 126.303 74.5215 127.883 75.8515C131.003 78.4815 138.013 84.9015 140.283 85.5415C141.263 85.8115 153.353 78.8415 160.093 75.5915C166.013 72.7415 163.723 78.3115 162.383 79.8215L162.393 79.8315Z" fill="#FFABA1"/>
<path d="M120.274 87.8712C118.704 87.4112 111.574 84.6712 109.794 83.4712C108.014 82.2712 103.134 78.4312 103.924 76.9712C104.704 75.5112 106.224 76.5212 106.224 76.5212C106.224 76.5212 104.424 74.5712 105.344 73.1812C106.264 71.7812 108.574 73.4312 108.574 73.4312C108.574 73.4312 106.864 71.3012 107.884 69.9712C108.904 68.6412 110.944 70.6912 110.944 70.6912C110.944 70.6912 109.294 68.8112 110.594 68.0712C112.154 67.1812 114.804 70.9812 116.874 72.1712C117.344 72.4412 126.774 76.9312 126.774 76.9312L120.274 87.8712Z" fill="#FFABA1"/>
<path d="M110.772 70.5109C112.732 73.3009 114.072 74.1909 117.162 75.4809C117.222 75.5109 117.202 75.6009 117.132 75.5809C113.982 74.5909 112.142 73.7209 110.632 70.5909C110.562 70.4409 110.682 70.3709 110.772 70.5009V70.5109Z" fill="#1A2E35"/>
<path d="M108.423 73.2008C110.713 75.9208 112.153 76.8908 115.293 78.4908C115.333 78.5108 115.303 78.5908 115.253 78.5708C112.043 77.2608 110.223 76.3608 108.293 73.3308C108.203 73.1908 108.303 73.0708 108.413 73.1908L108.423 73.2008Z" fill="#1A2E35"/>
<path d="M106.383 76.5909C108.783 79.0709 110.323 80.2009 113.573 81.3609C113.653 81.3909 113.613 81.5009 113.533 81.4809C110.103 80.6209 108.173 79.2209 106.313 76.6709C106.183 76.5009 106.233 76.4309 106.383 76.5909Z" fill="#1A2E35"/>
<path d="M128.774 77.7111C128.774 77.7111 127.014 73.8211 125.864 72.2811C124.714 70.7411 118.314 66.5811 117.334 67.9211C116.074 69.6411 119.294 72.7711 121.074 74.0911C121.074 74.0911 118.154 78.0711 119.984 80.8111C121.814 83.5611 128.774 77.7111 128.774 77.7111Z" fill="#FFABA1"/>
<path d="M117.133 68.5016C117.113 70.9016 119.563 72.4916 121.193 73.9016C121.313 74.0116 121.273 74.1516 121.173 74.2216C120.063 75.9716 119.003 78.7616 119.843 80.7816C119.863 80.8416 119.783 80.8816 119.753 80.8316C118.553 78.7916 119.373 75.9616 120.713 74.1316C119.023 72.7016 116.633 71.0016 117.113 68.5016C117.113 68.4916 117.133 68.4916 117.133 68.5016Z" fill="#1A2E35"/>
<g opacity="0.7">
<path d="M129.973 76.7814C129.973 76.7814 139.433 85.0414 140.703 84.8614C142.813 84.5614 157.063 76.5714 160.753 75.0014C164.433 73.4414 165.313 76.2814 162.913 79.4514C156.613 87.7914 146.343 100.821 138.553 101.441C134.353 101.771 120.533 94.7514 120.533 94.7514L129.983 76.7814H129.973Z" fill="#2673E5"/>
</g>
<path d="M155.264 88.9511C155.514 88.6911 155.674 88.3611 155.894 88.0811C156.124 87.7811 156.354 87.4811 156.594 87.1911C157.054 86.6211 157.514 86.0411 157.974 85.4711C158.884 84.3211 159.854 83.2211 160.804 82.1011C160.814 82.0811 160.844 82.1011 160.824 82.1211C159.974 83.3311 159.134 84.5311 158.204 85.6811C158.184 85.7111 158.164 85.7311 158.144 85.7511C158.334 85.6011 158.524 85.4511 158.714 85.3011C159.104 84.9911 159.494 84.6811 159.884 84.3711C159.904 84.3511 159.944 84.3911 159.914 84.4111C159.554 84.7511 159.184 85.0811 158.794 85.3911C158.594 85.5511 158.394 85.7011 158.184 85.8511C158.084 85.9211 157.994 85.9811 157.894 86.0511C157.544 86.4811 157.194 86.9011 156.844 87.3311C156.604 87.6211 156.354 87.9111 156.104 88.1911C155.854 88.4711 155.544 88.7111 155.324 89.0111C155.294 89.0511 155.224 88.9911 155.264 88.9611V88.9511Z" fill="#1A2E35"/>
<path d="M132.424 80.1715C128.394 87.1015 124.974 94.5215 124.304 95.8215C124.274 95.8815 124.394 95.9115 124.424 95.8415C125.044 94.6315 129.814 86.1415 132.554 80.1915C132.584 80.1215 132.464 80.1015 132.424 80.1615V80.1715Z" fill="#1A2E35"/>
<path d="M162.555 74.4605C162.745 74.9305 165.515 77.7105 167.705 77.2805C168.415 77.1405 167.815 73.2105 167.815 73.2105L167.835 72.9106L168.135 68.7105L162.895 66.3605L162.145 66.0605C162.145 66.0605 162.145 67.2106 162.145 68.6506C162.145 68.7206 162.145 68.7805 162.145 68.8505C162.145 68.9305 162.145 69.0106 162.145 69.0806C162.145 69.2906 162.145 69.5106 162.145 69.7306C162.145 69.9006 162.145 70.0606 162.155 70.2306C162.155 70.4106 162.165 70.5805 162.175 70.7505C162.255 72.4805 162.475 74.2506 162.555 74.4406V74.4605Z" fill="#FFABA1"/>
<path d="M162.154 68.6506C163.804 71.7106 166.584 72.6406 167.844 72.9106L168.144 68.7105L162.904 66.3605L162.154 66.0605C162.154 66.0605 162.154 67.2106 162.154 68.6506Z" fill="#1A2E35"/>
<path d="M172.934 60.2399C176.144 66.8999 172.514 69.5699 171.084 70.2699C169.784 70.8999 165.254 72.8699 161.374 66.5699C157.494 60.2799 159.574 56.6799 162.484 55.0899C165.394 53.4999 169.724 53.5799 172.934 60.2399Z" fill="#FFABA1"/>
<path d="M171.445 59.5401C171.275 59.5901 171.115 59.6201 170.945 59.6501C170.755 59.6901 170.605 59.7401 170.415 59.6701C170.315 59.6301 170.255 59.4801 170.285 59.3801C170.355 59.1401 170.575 59.0301 170.805 58.9701C171.055 58.9101 171.265 58.9201 171.495 59.0301C171.715 59.1301 171.665 59.4701 171.445 59.5401Z" fill="#1A2E35"/>
<path d="M166.825 61.6301C166.975 61.5401 167.095 61.4301 167.235 61.3301C167.395 61.2101 167.525 61.1301 167.595 60.9401C167.635 60.8401 167.555 60.6901 167.465 60.6501C167.235 60.5501 167.015 60.6501 166.815 60.7801C166.605 60.9301 166.475 61.0901 166.405 61.3401C166.335 61.5801 166.625 61.7601 166.825 61.6401V61.6301Z" fill="#1A2E35"/>
<path d="M168.635 62.79C168.635 62.79 168.605 62.83 168.615 62.85C168.845 63.3 169.045 63.85 168.705 64.2C168.695 64.21 168.705 64.23 168.725 64.22C169.195 63.91 168.925 63.18 168.635 62.79Z" fill="#1A2E35"/>
<path d="M168.005 62.5096C167.245 62.8096 167.895 64.2996 168.595 64.0196C169.285 63.7496 168.635 62.2596 168.005 62.5096Z" fill="#1A2E35"/>
<path d="M167.745 62.7192C167.655 62.8592 167.585 63.0692 167.435 63.1492C167.265 63.2492 167.055 63.1492 166.875 63.0492C166.855 63.0392 166.845 63.0492 166.855 63.0792C166.975 63.3692 167.215 63.6092 167.535 63.5192C167.835 63.4392 167.925 63.0992 167.865 62.7792C167.865 62.7192 167.775 62.6592 167.735 62.7192H167.745Z" fill="#1A2E35"/>
<path d="M171.164 61.5801C171.164 61.5801 171.214 61.5801 171.214 61.6101C171.394 62.0801 171.684 62.5901 172.174 62.5601C172.194 62.5601 172.194 62.5801 172.174 62.5901C171.634 62.7401 171.254 62.0601 171.154 61.5901L171.164 61.5801Z" fill="#1A2E35"/>
<path d="M171.365 60.9199C172.085 60.5499 172.785 62.0099 172.115 62.3599C171.455 62.6999 170.765 61.2299 171.365 60.9199Z" fill="#1A2E35"/>
<path d="M171.724 60.8703C171.874 60.8903 172.054 60.9803 172.204 60.9203C172.374 60.8503 172.414 60.6403 172.444 60.4403C172.444 60.4203 172.464 60.4303 172.474 60.4403C172.614 60.7203 172.664 61.0503 172.414 61.2403C172.194 61.4103 171.894 61.2503 171.694 61.0003C171.654 60.9503 171.664 60.8603 171.724 60.8703Z" fill="#1A2E35"/>
<path d="M170.236 66.6002C170.386 66.6702 170.566 66.7802 170.736 66.7202C170.906 66.6702 171.066 66.5202 171.196 66.4102C171.206 66.4002 171.226 66.4102 171.226 66.4302C171.176 66.6602 170.956 66.8702 170.726 66.9102C170.496 66.9502 170.326 66.8102 170.196 66.6402C170.176 66.6202 170.206 66.5902 170.236 66.6002Z" fill="#1A2E35"/>
<path d="M171.675 65.05C171.675 65.05 171.585 65.63 171.245 66C171.115 66.14 170.965 66.25 170.765 66.29C170.355 66.38 170.175 66.06 170.095 65.74C170.025 65.48 170.025 65.22 170.025 65.22C170.025 65.22 170.805 65.43 171.675 65.04V65.05Z" fill="#1A2E35"/>
<path d="M171.246 66.0004C171.116 66.1404 170.966 66.2504 170.766 66.2904C170.356 66.3804 170.176 66.0604 170.096 65.7404C170.506 65.5804 171.016 65.6404 171.246 65.9904V66.0004Z" fill="#FF9BBE"/>
<path d="M171.415 64.0799C171.415 64.0799 171.815 64.7199 171.965 65.0499C171.975 65.0799 171.905 65.1299 171.795 65.1899C171.795 65.1899 171.795 65.1899 171.785 65.1899C171.255 65.5399 170.595 65.5998 170.035 65.2898C169.995 65.2698 170.025 65.2199 170.065 65.2199C170.635 65.3398 171.135 65.2098 171.645 64.9898C171.625 64.8898 170.915 63.9098 170.965 63.8898C171.135 63.7998 171.535 63.7598 171.775 63.7298C170.975 62.3698 169.955 61.1398 169.185 59.7698C169.155 59.7198 169.225 59.6698 169.265 59.7098C170.415 60.9198 171.375 62.4698 172.235 63.8498C172.345 64.0198 171.565 64.0799 171.415 64.0799Z" fill="#1A2E35"/>
<path d="M161.615 66.7703C162.355 66.4003 163.445 63.4703 161.945 59.7603C161.945 59.7603 163.065 63.1803 163.015 63.7703C162.975 64.3603 163.625 62.1203 162.455 59.1203C162.455 59.1203 164.595 59.6103 166.165 59.4103C167.735 59.2103 168.585 58.8303 168.635 58.6903C168.695 58.5503 166.355 58.7703 165.525 58.3703C165.525 58.3703 169.985 58.5203 171.755 57.9203C171.965 57.8503 170.415 54.3403 167.035 53.7303C163.645 53.1203 160.285 56.1103 159.615 57.6803C159.615 57.6803 158.585 58.2603 158.105 60.8703C157.585 63.6703 160.805 67.1803 161.605 66.7803L161.615 66.7703Z" fill="#1A2E35"/>
<path d="M162.546 69.0299C162.676 69.0299 162.796 69.0199 162.896 68.9899C163.026 68.9699 163.126 68.9299 163.226 68.8699C163.376 68.7999 163.486 68.6999 163.576 68.5899C163.656 68.4999 163.716 68.3899 163.756 68.2899C163.866 68.0299 163.866 67.7999 163.866 67.7999L162.786 66.0999C162.786 66.0999 160.456 64.5199 159.686 65.4299C158.906 66.3399 161.226 69.0399 162.546 69.0299Z" fill="#FFABA1"/>
<path d="M160.376 66.1802C160.376 66.1802 160.366 66.2102 160.376 66.2102C161.306 66.2302 162.016 66.8202 162.606 67.4802C162.256 67.2702 161.866 67.2302 161.576 67.6702C161.556 67.6902 161.596 67.7202 161.616 67.7002C161.916 67.5002 162.176 67.4702 162.506 67.6502C162.736 67.7802 162.936 67.9702 163.126 68.1502C163.196 68.2102 163.306 68.1202 163.246 68.0502C163.246 68.0502 163.246 68.0402 163.236 68.0302C162.866 66.9902 161.526 65.8602 160.376 66.1802Z" fill="#1A2E35"/>
<path d="M162.536 68.7003C162.636 68.8603 162.846 68.9103 163.006 68.8103C163.166 68.7103 163.216 68.5003 163.116 68.3403C163.016 68.1803 162.806 68.1303 162.646 68.2303C162.486 68.3303 162.436 68.5403 162.536 68.7003Z" fill="white"/>
<path d="M161.695 68.4703C161.765 68.5803 161.915 68.6203 162.025 68.5503C162.135 68.4803 162.175 68.3303 162.105 68.2203C162.035 68.1103 161.885 68.0703 161.775 68.1403C161.665 68.2103 161.625 68.3603 161.695 68.4703Z" fill="white"/>
<path d="M157.814 76.4201C157.814 76.4201 165.184 81.8701 168.784 80.6601C172.384 79.4501 170.024 73.6601 170.024 73.6601C170.024 73.6601 168.134 73.2701 165.134 73.3901C161.424 73.5401 157.814 76.4101 157.814 76.4101V76.4201Z" fill="#FFABA1"/>
<path d="M155.392 190.81L155.112 190.63L181.172 151.39L175.802 111.85L158.642 110.38L146.112 150.76L145.922 150.56L115.752 120.17L115.992 119.94L145.962 150.13L158.412 110.03L158.542 110.04L176.092 111.54L176.112 111.67L181.512 151.47L181.482 151.53L155.392 190.81Z" fill="#2673E5"/>
<path d="M166.927 77.1198L166.598 77.1367L168.339 111.052L168.669 111.035L166.927 77.1198Z" fill="#2673E5"/>
<path d="M140.013 94.0296L139.913 93.9596L118.443 79.1296L118.633 78.8596L140.003 93.6197L159.973 77.7396H160.023L172.363 76.3396H172.383L192.743 79.2197L200.853 53.6396L201.173 53.7397L192.973 79.5896L192.833 79.5696L172.353 76.6696L160.113 78.0596L140.013 94.0296Z" fill="#2673E5"/>
<path d="M166.592 77.1498L165.582 60.6098L165.912 60.5898L166.932 77.1298L166.592 77.1498Z" fill="#2673E5"/>
<path d="M119.319 78.524L117.926 77.6396L117.041 79.0326L118.434 79.917L119.319 78.524Z" fill="#2673E5"/>
<path d="M116.526 119.569L115.293 118.473L114.197 119.706L115.43 120.802L116.526 119.569Z" fill="#2673E5"/>
<path d="M147.22 150.37L145.986 149.274L144.89 150.508L146.124 151.604L147.22 150.37Z" fill="#2673E5"/>
<path d="M156.16 190.924L154.832 189.945L153.853 191.274L155.181 192.252L156.16 190.924Z" fill="#2673E5"/>
<path d="M182.492 151.316L181.164 150.337L180.185 151.665L181.513 152.644L182.492 151.316Z" fill="#2673E5"/>
<path d="M176.783 111.013L175.145 110.816L174.947 112.455L176.586 112.652L176.783 111.013Z" fill="#2673E5"/>
<path d="M159.439 109.494L157.801 109.297L157.604 110.935L159.242 111.132L159.439 109.494Z" fill="#2673E5"/>
<path d="M169.445 110.342L167.807 110.145L167.61 111.783L169.248 111.98L169.445 110.342Z" fill="#2673E5"/>
<path d="M167.488 76.2254L165.844 76.3604L165.979 78.0048L167.623 77.8699L167.488 76.2254Z" fill="#2673E5"/>
<path d="M166.504 59.9813L164.859 60.1162L164.994 61.7607L166.639 61.6258L166.504 59.9813Z" fill="#2673E5"/>
<path d="M172.943 75.7713L171.299 75.9062L171.434 77.5507L173.078 77.4158L172.943 75.7713Z" fill="#2673E5"/>
<path d="M193.669 78.7246L192.043 78.4424L191.761 80.0681L193.386 80.3503L193.669 78.7246Z" fill="#2673E5"/>
<path d="M201.935 53.5307L200.367 53.0156L199.852 54.5832L201.42 55.0982L201.935 53.5307Z" fill="#2673E5"/>
<path d="M160.717 76.7772L159.072 76.9121L159.207 78.5566L160.852 78.4217L160.717 76.7772Z" fill="#2673E5"/>
<path d="M140.111 92.5291L138.836 93.5762L139.883 94.8514L141.158 93.8043L140.111 92.5291Z" fill="#2673E5"/>
<path d="M211.194 218.361H84.5039V33.8906H211.204V218.361H211.194ZM84.8339 218.031H210.864V34.2206H84.8339V218.021V218.031Z" fill="#2673E5"/>
<path d="M86.2337 32.4902H83.0938V35.6302H86.2337V32.4902Z" fill="white"/>
<path d="M86.4036 35.7903H82.9336V32.3203H86.4036V35.7903ZM83.2636 35.4603H86.0736V32.6503H83.2636V35.4603Z" fill="#2673E5"/>
<path d="M212.603 32.4902H209.463V35.6302H212.603V32.4902Z" fill="white"/>
<path d="M212.763 35.7903H209.293V32.3203H212.763V35.7903ZM209.623 35.4603H212.433V32.6503H209.623V35.4603Z" fill="#2673E5"/>
<path d="M149.423 32.4902H146.283V35.6302H149.423V32.4902Z" fill="white"/>
<path d="M149.583 35.7903H146.113V32.3203H149.583V35.7903ZM146.443 35.4603H149.253V32.6503H146.443V35.4603Z" fill="#2673E5"/>
<path d="M86.2337 216.62H83.0938V219.76H86.2337V216.62Z" fill="white"/>
<path d="M86.4036 219.93H82.9336V216.46H86.4036V219.93ZM83.2636 219.6H86.0736V216.79H83.2636V219.6Z" fill="#2673E5"/>
<path d="M212.603 216.62H209.463V219.76H212.603V216.62Z" fill="white"/>
<path d="M212.763 219.93H209.293V216.46H212.763V219.93ZM209.623 219.6H212.433V216.79H209.623V219.6Z" fill="#2673E5"/>
<path d="M86.2337 124.551H83.0938V127.691H86.2337V124.551Z" fill="white"/>
<path d="M86.4036 127.861H82.9336V124.391H86.4036V127.861ZM83.2636 127.531H86.0736V124.721H83.2636V127.531Z" fill="#2673E5"/>
<path d="M212.603 124.551H209.463V127.691H212.603V124.551Z" fill="white"/>
<path d="M212.763 127.861H209.293V124.391H212.763V127.861ZM209.623 127.531H212.433V124.721H209.623V127.531Z" fill="#2673E5"/>
<path d="M149.423 216.62H146.283V219.76H149.423V216.62Z" fill="white"/>
<path d="M149.583 219.93H146.113V216.46H149.583V219.93ZM146.443 219.6H149.253V216.79H146.443V219.6Z" fill="#2673E5"/>
<g opacity="0.3">
<path d="M116.052 170.03H10V201.134H116.052V170.03Z" fill="#2673E5"/>
</g>
<path d="M116.052 165H10V170.03H116.052V165Z" fill="#2673E5"/>
<path d="M12.9977 168.437L11.3008 166.749L11.4558 166.585L13.1527 168.282L12.9977 168.437Z" fill="#1A2E35"/>
<path d="M11.4558 168.437L11.3008 168.282L12.9977 166.585L13.1527 166.749L11.4558 168.437Z" fill="#1A2E35"/>
<path d="M112.654 167.357L112.496 167.516L113.501 168.521L113.659 168.362L112.654 167.357Z" fill="#1A2E35"/>
<path d="M113.497 166.515L112.492 167.52L112.651 167.678L113.656 166.673L113.497 166.515Z" fill="#1A2E35"/>
<path d="M113.762 167.369L113.604 167.527L114.608 168.532L114.767 168.374L113.762 167.369Z" fill="#1A2E35"/>
<path d="M114.606 166.515L113.602 167.521L113.76 167.679L114.764 166.673L114.606 166.515Z" fill="#1A2E35"/>
<g opacity="0.7">
<path d="M115.104 170.029H10.9473V176.3H115.104V170.029Z" fill="#2673E5"/>
</g>
<path d="M36.7022 173.837H36.6074V176.3H36.7022V173.837Z" fill="#1A2E35"/>
<path d="M31.5166 174.621H31.4219V176.309H31.5166V174.621Z" fill="#1A2E35"/>
<path d="M32.8174 174.621H32.7227V176.309H32.8174V174.621Z" fill="#1A2E35"/>
<path d="M34.1084 174.621H34.0137V176.309H34.1084V174.621Z" fill="#1A2E35"/>
<path d="M35.4092 174.621H35.3145V176.309H35.4092V174.621Z" fill="#1A2E35"/>
<path d="M43.1885 173.837H43.0938V176.3H43.1885V173.837Z" fill="#1A2E35"/>
<path d="M38.003 174.621H37.9082V176.309H38.003V174.621Z" fill="#1A2E35"/>
<path d="M39.3018 174.621H39.207V176.309H39.3018V174.621Z" fill="#1A2E35"/>
<path d="M40.5948 174.621H40.5V176.309H40.5948V174.621Z" fill="#1A2E35"/>
<path d="M41.8975 174.621H41.8027V176.309H41.8975V174.621Z" fill="#1A2E35"/>
<path d="M49.6748 173.837H49.5801V176.3H49.6748V173.837Z" fill="#1A2E35"/>
<path d="M44.4893 174.621H44.3945V176.309H44.4893V174.621Z" fill="#1A2E35"/>
<path d="M45.7901 174.621H45.6953V176.309H45.7901V174.621Z" fill="#1A2E35"/>
<path d="M47.0811 174.621H46.9863V176.309H47.0811V174.621Z" fill="#1A2E35"/>
<path d="M48.3819 174.621H48.2871V176.309H48.3819V174.621Z" fill="#1A2E35"/>
<path d="M56.1592 173.837H56.0645V176.3H56.1592V173.837Z" fill="#1A2E35"/>
<path d="M50.9756 174.621H50.8809V176.309H50.9756V174.621Z" fill="#1A2E35"/>
<path d="M52.2744 174.621H52.1797V176.309H52.2744V174.621Z" fill="#1A2E35"/>
<path d="M53.5674 174.621H53.4727V176.309H53.5674V174.621Z" fill="#1A2E35"/>
<path d="M54.8682 174.621H54.7734V176.309H54.8682V174.621Z" fill="#1A2E35"/>
<path d="M62.6475 173.837H62.5527V176.3H62.6475V173.837Z" fill="#1A2E35"/>
<path d="M57.46 174.621H57.3652V176.309H57.46V174.621Z" fill="#1A2E35"/>
<path d="M58.753 174.621H58.6582V176.309H58.753V174.621Z" fill="#1A2E35"/>
<path d="M60.0537 174.621H59.959V176.309H60.0537V174.621Z" fill="#1A2E35"/>
<path d="M61.3545 174.621H61.2598V176.309H61.3545V174.621Z" fill="#1A2E35"/>
<path d="M69.1319 173.837H69.0371V176.3H69.1319V173.837Z" fill="#1A2E35"/>
<path d="M63.9483 174.621H63.8535V176.309H63.9483V174.621Z" fill="#1A2E35"/>
<path d="M65.2393 174.621H65.1445V176.309H65.2393V174.621Z" fill="#1A2E35"/>
<path d="M66.5401 174.621H66.4453V176.309H66.5401V174.621Z" fill="#1A2E35"/>
<path d="M67.8408 174.621H67.7461V176.309H67.8408V174.621Z" fill="#1A2E35"/>
<path d="M75.6182 173.837H75.5234V176.3H75.6182V173.837Z" fill="#1A2E35"/>
<path d="M70.4326 174.621H70.3379V176.309H70.4326V174.621Z" fill="#1A2E35"/>
<path d="M71.7256 174.621H71.6309V176.309H71.7256V174.621Z" fill="#1A2E35"/>
<path d="M73.0264 174.621H72.9316V176.309H73.0264V174.621Z" fill="#1A2E35"/>
<path d="M74.3174 174.621H74.2227V176.309H74.3174V174.621Z" fill="#1A2E35"/>
<path d="M82.1045 173.837H82.0098V176.3H82.1045V173.837Z" fill="#1A2E35"/>
<path d="M76.9209 174.621H76.8262V176.309H76.9209V174.621Z" fill="#1A2E35"/>
<path d="M78.2119 174.621H78.1172V176.309H78.2119V174.621Z" fill="#1A2E35"/>
<path d="M79.5127 174.621H79.418V176.309H79.5127V174.621Z" fill="#1A2E35"/>
<path d="M80.8057 174.621H80.7109V176.309H80.8057V174.621Z" fill="#1A2E35"/>
<path d="M88.5908 173.837H88.4961V176.3H88.5908V173.837Z" fill="#1A2E35"/>
<path d="M83.4053 174.621H83.3105V176.309H83.4053V174.621Z" fill="#1A2E35"/>
<path d="M84.6983 174.621H84.6035V176.309H84.6983V174.621Z" fill="#1A2E35"/>
<path d="M85.999 174.621H85.9043V176.309H85.999V174.621Z" fill="#1A2E35"/>
<path d="M87.2901 174.621H87.1953V176.309H87.2901V174.621Z" fill="#1A2E35"/>
<path d="M95.0772 173.837H94.9824V176.3H95.0772V173.837Z" fill="#1A2E35"/>
<path d="M89.8916 174.621H89.7969V176.309H89.8916V174.621Z" fill="#1A2E35"/>
<path d="M91.1826 174.621H91.0879V176.309H91.1826V174.621Z" fill="#1A2E35"/>
<path d="M92.4834 174.621H92.3887V176.309H92.4834V174.621Z" fill="#1A2E35"/>
<path d="M93.7764 174.621H93.6816V176.309H93.7764V174.621Z" fill="#1A2E35"/>
<path d="M101.564 173.837H101.469V176.3H101.564V173.837Z" fill="#1A2E35"/>
<path d="M96.3682 174.621H96.2734V176.309H96.3682V174.621Z" fill="#1A2E35"/>
<path d="M97.6709 174.621H97.5762V176.309H97.6709V174.621Z" fill="#1A2E35"/>
<path d="M98.9717 174.621H98.877V176.309H98.9717V174.621Z" fill="#1A2E35"/>
<path d="M100.263 174.621H100.168V176.309H100.263V174.621Z" fill="#1A2E35"/>
<path d="M108.05 173.837H107.955V176.3H108.05V173.837Z" fill="#1A2E35"/>
<path d="M102.856 174.621H102.762V176.309H102.856V174.621Z" fill="#1A2E35"/>
<path d="M104.155 174.621H104.061V176.309H104.155V174.621Z" fill="#1A2E35"/>
<path d="M105.456 174.621H105.361V176.309H105.456V174.621Z" fill="#1A2E35"/>
<path d="M106.749 174.621H106.654V176.309H106.749V174.621Z" fill="#1A2E35"/>
<path d="M114.536 173.837H114.441V176.3H114.536V173.837Z" fill="#1A2E35"/>
<path d="M109.341 174.621H109.246V176.309H109.341V174.621Z" fill="#1A2E35"/>
<path d="M110.642 174.621H110.547V176.309H110.642V174.621Z" fill="#1A2E35"/>
<path d="M111.933 174.621H111.838V176.309H111.933V174.621Z" fill="#1A2E35"/>
<path d="M113.233 174.621H113.139V176.309H113.233V174.621Z" fill="#1A2E35"/>
<g opacity="0.5">
<path d="M66.3246 176.309H31.4219V179.298H66.3246V176.309Z" fill="#2673E5"/>
</g>
<g opacity="0.5">
<path d="M73.4731 182.278H52.8691V185.267H73.4731V182.278Z" fill="#2673E5"/>
</g>
<g opacity="0.5">
<path d="M89.5995 188.256H73.4746V191.245H89.5995V188.256Z" fill="#2673E5"/>
</g>
<g opacity="0.5">
<path d="M100.4 194.226H93.4492V197.215H100.4V194.226Z" fill="#2673E5"/>
</g>
<path d="M115.104 197.214H100.4V200.203H115.104V197.214Z" fill="#2673E5"/>
<path d="M64.5068 185.268H57.3574V188.257H64.5068V185.268Z" fill="#2673E5"/>
<path d="M93.4489 191.245H76.7383V194.234H93.4489V191.245Z" fill="#2673E5"/>
<path d="M57.3218 179.298H34.9434V182.287H57.3218V179.298Z" fill="#2673E5"/>
<path d="M37.1143 177.799C37.1143 178.109 36.8645 178.351 36.563 178.351C36.2615 178.351 36.0117 178.101 36.0117 177.799C36.0117 177.498 36.2615 177.248 36.563 177.248C36.8645 177.248 37.1143 177.498 37.1143 177.799Z" fill="white"/>
<path d="M43.2647 177.799C43.2647 178.109 43.0149 178.351 42.7134 178.351C42.4119 178.351 42.1621 178.101 42.1621 177.799C42.1621 177.498 42.4119 177.248 42.7134 177.248C43.0149 177.248 43.2647 177.498 43.2647 177.799Z" fill="white"/>
<path d="M49.4229 177.799C49.4229 178.109 49.1731 178.351 48.8716 178.351C48.5701 178.351 48.3203 178.101 48.3203 177.799C48.3203 177.498 48.5701 177.248 48.8716 177.248C49.1731 177.248 49.4229 177.498 49.4229 177.799Z" fill="white"/>
<path d="M55.5811 177.799C55.5811 178.109 55.3313 178.351 55.0298 178.351C54.7283 178.351 54.4785 178.101 54.4785 177.799C54.4785 177.498 54.7283 177.248 55.0298 177.248C55.3313 177.248 55.5811 177.498 55.5811 177.799Z" fill="white"/>
<path d="M61.7412 177.799C61.7412 178.109 61.4914 178.351 61.1899 178.351C60.8885 178.351 60.6387 178.101 60.6387 177.799C60.6387 177.498 60.8885 177.248 61.1899 177.248C61.4914 177.248 61.7412 177.498 61.7412 177.799Z" fill="white"/>
<path d="M75.9287 189.754C75.9287 190.064 75.6789 190.306 75.3774 190.306C75.076 190.306 74.8262 190.056 74.8262 189.754C74.8262 189.453 75.076 189.203 75.3774 189.203C75.6789 189.203 75.9287 189.453 75.9287 189.754Z" fill="white"/>
<path d="M82.0869 189.754C82.0869 190.064 81.8371 190.306 81.5357 190.306C81.2342 190.306 80.9844 190.056 80.9844 189.754C80.9844 189.453 81.2342 189.203 81.5357 189.203C81.8371 189.203 82.0869 189.453 82.0869 189.754Z" fill="white"/>
<path d="M88.2471 189.754C88.2471 190.064 87.9973 190.306 87.6958 190.306C87.3943 190.306 87.1445 190.056 87.1445 189.754C87.1445 189.453 87.3943 189.203 87.6958 189.203C87.9973 189.203 88.2471 189.453 88.2471 189.754Z" fill="white"/>
<path d="M79.4854 192.744C79.4854 193.054 79.2356 193.295 78.9341 193.295C78.6326 193.295 78.3828 193.045 78.3828 192.744C78.3828 192.442 78.6326 192.192 78.9341 192.192C79.2356 192.192 79.4854 192.442 79.4854 192.744Z" fill="white"/>
<path d="M85.6436 192.744C85.6436 193.054 85.3938 193.295 85.0923 193.295C84.7908 193.295 84.541 193.045 84.541 192.744C84.541 192.442 84.7908 192.192 85.0923 192.192C85.3938 192.192 85.6436 192.442 85.6436 192.744Z" fill="white"/>
<path d="M91.8037 192.744C91.8037 193.054 91.5539 193.295 91.2524 193.295C90.951 193.295 90.7012 193.045 90.7012 192.744C90.7012 192.442 90.951 192.192 91.2524 192.192C91.5539 192.192 91.8037 192.442 91.8037 192.744Z" fill="white"/>
<path d="M102.149 198.705C102.149 199.015 101.9 199.256 101.598 199.256C101.297 199.256 101.047 199.006 101.047 198.705C101.047 198.403 101.297 198.153 101.598 198.153C101.9 198.153 102.149 198.403 102.149 198.705Z" fill="white"/>
<path d="M108.308 198.705C108.308 199.015 108.058 199.256 107.756 199.256C107.455 199.256 107.205 199.006 107.205 198.705C107.205 198.403 107.455 198.153 107.756 198.153C108.058 198.153 108.308 198.403 108.308 198.705Z" fill="white"/>
<path d="M114.468 198.705C114.468 199.015 114.218 199.256 113.917 199.256C113.615 199.256 113.365 199.006 113.365 198.705C113.365 198.403 113.615 198.153 113.917 198.153C114.218 198.153 114.468 198.403 114.468 198.705Z" fill="white"/>
<path d="M60.9302 187.317C61.2346 187.317 61.4815 187.071 61.4815 186.766C61.4815 186.462 61.2346 186.215 60.9302 186.215C60.6257 186.215 60.3789 186.462 60.3789 186.766C60.3789 187.071 60.6257 187.317 60.9302 187.317Z" fill="white"/>
<path d="M97.4795 195.715C97.4795 196.025 97.2297 196.267 96.9282 196.267C96.6267 196.267 96.377 196.017 96.377 195.715C96.377 195.414 96.6267 195.164 96.9282 195.164C97.2297 195.164 97.4795 195.414 97.4795 195.715Z" fill="white"/>
<path d="M57.0122 184.328C57.3167 184.328 57.5635 184.081 57.5635 183.777C57.5635 183.472 57.3167 183.226 57.0122 183.226C56.7078 183.226 56.4609 183.472 56.4609 183.777C56.4609 184.081 56.7078 184.328 57.0122 184.328Z" fill="white"/>
<path d="M63.1704 184.328C63.4749 184.328 63.7217 184.081 63.7217 183.777C63.7217 183.472 63.4749 183.226 63.1704 183.226C62.866 183.226 62.6191 183.472 62.6191 183.777C62.6191 184.081 62.866 184.328 63.1704 184.328Z" fill="white"/>
<path d="M69.8818 183.777C69.8818 184.087 69.6321 184.328 69.3306 184.328C69.0291 184.328 68.7793 184.078 68.7793 183.777C68.7793 183.475 69.0291 183.226 69.3306 183.226C69.6321 183.226 69.8818 183.475 69.8818 183.777Z" fill="white"/>
<path d="M40.5361 180.788C40.5361 181.098 40.2864 181.339 39.9849 181.339C39.6834 181.339 39.4336 181.089 39.4336 180.788C39.4336 180.486 39.6834 180.236 39.9849 180.236C40.2864 180.236 40.5361 180.486 40.5361 180.788Z" fill="white"/>
<path d="M46.6943 180.788C46.6943 181.098 46.4446 181.339 46.1431 181.339C45.8416 181.339 45.5918 181.089 45.5918 180.788C45.5918 180.486 45.8416 180.236 46.1431 180.236C46.4446 180.236 46.6943 180.486 46.6943 180.788Z" fill="white"/>
<path d="M52.8545 180.788C52.8545 181.098 52.6047 181.339 52.3032 181.339C52.0017 181.339 51.752 181.089 51.752 180.788C51.752 180.486 52.0017 180.236 52.3032 180.236C52.6047 180.236 52.8545 180.486 52.8545 180.788Z" fill="white"/>
<path d="M31.422 176.31H10.9473V179.299H31.422V176.31Z" fill="#1A2E35"/>
<g opacity="0.7">
<path d="M31.422 179.299H10.9473V182.288H31.422V179.299Z" fill="#2673E5"/>
</g>
<path d="M31.422 182.278H10.9473V185.267H31.422V182.278Z" fill="#1A2E35"/>
<g opacity="0.7">
<path d="M31.422 185.269H10.9473V188.258H31.422V185.269Z" fill="#2673E5"/>
</g>
<path d="M31.422 188.257H10.9473V191.246H31.422V188.257Z" fill="#1A2E35"/>
<g opacity="0.7">
<path d="M31.422 191.246H10.9473V194.235H31.422V191.246Z" fill="#2673E5"/>
</g>
<path d="M31.422 194.234H10.9473V197.223H31.422V194.234Z" fill="#1A2E35"/>
<g opacity="0.7">
<path d="M31.422 197.224H10.9473V200.213H31.422V197.224Z" fill="#2673E5"/>
</g>
<g opacity="0.7">
<path d="M115.104 179.229H31.4219V179.367H115.104V179.229Z" fill="#2673E5"/>
</g>
<g opacity="0.7">
<path d="M115.104 182.219H31.4219V182.357H115.104V182.219Z" fill="#2673E5"/>
</g>
<g opacity="0.7">
<path d="M115.104 185.199H31.4219V185.337H115.104V185.199Z" fill="#2673E5"/>
</g>
<g opacity="0.7">
<path d="M115.104 188.188H31.4219V188.325H115.104V188.188Z" fill="#2673E5"/>
</g>
<g opacity="0.7">
<path d="M115.104 191.176H31.4219V191.314H115.104V191.176Z" fill="#2673E5"/>
</g>
<g opacity="0.7">
<path d="M115.104 194.166H31.4219V194.304H115.104V194.166Z" fill="#2673E5"/>
</g>
<g opacity="0.7">
<path d="M115.104 197.155H31.4219V197.293H115.104V197.155Z" fill="#2673E5"/>
</g>
<g opacity="0.7">
<path d="M115.104 200.144H31.4219V200.281H115.104V200.144Z" fill="#2673E5"/>
</g>
<path d="M52.9827 168.479H52.707V200.204H52.9827V168.479Z" fill="white"/>
<path d="M53.7491 167.093V169.1L52.8361 169.875L51.9316 169.1V167.093H53.7491Z" fill="white"/>
<g opacity="0.5">
<path d="M93.022 61.4717H9V73.6363H93.022V61.4717Z" fill="#2673E5"/>
</g>
<path d="M93.022 56H9V61.4634H93.022V56Z" fill="#2673E5"/>
<path d="M12.2505 59.7383L10.4102 57.8979L10.5835 57.7246L12.4238 59.565L12.2505 59.7383Z" fill="#1A2E35"/>
<path d="M10.5835 59.7383L10.4102 59.565L12.2505 57.7246L12.4238 57.8979L10.5835 59.7383Z" fill="#1A2E35"/>
<path d="M89.3274 58.5545L89.1523 58.7295L90.2493 59.8268L90.4244 59.6517L89.3274 58.5545Z" fill="#1A2E35"/>
<path d="M90.2477 57.6365L89.1504 58.7334L89.3254 58.9085L90.4227 57.8116L90.2477 57.6365Z" fill="#1A2E35"/>
<path d="M90.5345 58.5603L90.3594 58.7354L91.4563 59.8326L91.6314 59.6576L90.5345 58.5603Z" fill="#1A2E35"/>
<path d="M91.4602 57.6468L90.3633 58.7441L90.5384 58.9192L91.6353 57.8219L91.4602 57.6468Z" fill="#1A2E35"/>
<path d="M48.0117 70.5501V64.5586L54.0033 67.5544L48.0117 70.5501Z" fill="white"/>
<path d="M64.9453 70.5511V64.5596L70.9369 67.5553L64.9453 70.5511Z" fill="white"/>
<path d="M64.227 64.5596H63.707V70.5511H64.227V64.5596Z" fill="white"/>
<path d="M37.0677 64.5586V70.5501L31.0762 67.5544L37.0677 64.5586Z" fill="white"/>
<path d="M37.7769 70.542H38.2969V64.5504H37.7769V70.542Z" fill="white"/>
<path d="M21.8485 64.5586V70.5501L15.8652 67.5544L21.8485 64.5586Z" fill="white"/>
<path d="M15.3453 70.542H15.8652V64.5504H15.3453V70.542Z" fill="white"/>
<path d="M80.1621 70.5511V64.5596L86.1454 67.5553L80.1621 70.5511Z" fill="white"/>
<path d="M86.6645 64.5596H86.1445V70.5511H86.6645V64.5596Z" fill="white"/>
<g opacity="0.5">
<path d="M290.784 175.63H193.395V189H290.784V175.63Z" fill="#2673E5"/>
</g>
<path d="M290.784 169.625H193.395V175.63H290.784V169.625Z" fill="#2673E5"/>
<path d="M196.977 173.735L194.945 171.703L195.136 171.521L197.168 173.544L196.977 173.735Z" fill="#1A2E35"/>
<path d="M195.136 173.735L194.945 173.544L196.977 171.521L197.168 171.703L195.136 173.735Z" fill="#1A2E35"/>
<path d="M286.72 172.436L286.527 172.628L287.733 173.834L287.925 173.642L286.72 172.436Z" fill="#1A2E35"/>
<path d="M287.743 171.427L286.537 172.633L286.73 172.825L287.935 171.619L287.743 171.427Z" fill="#1A2E35"/>
<path d="M288.05 172.437L287.857 172.629L289.063 173.835L289.255 173.643L288.05 172.437Z" fill="#1A2E35"/>
<path d="M289.073 171.449L287.867 172.655L288.06 172.848L289.265 171.641L289.073 171.449Z" fill="#1A2E35"/>
<g opacity="0.7">
<path d="M206.277 177.797H196.916V187.158H206.277V177.797Z" fill="#2673E5"/>
</g>
<path d="M201.841 183.339L202.739 185.498L201.841 185.87L200.943 183.693L199.465 184.845V178.759L203.728 183.058L201.841 183.339Z" fill="#ECECEC"/>
<path d="M245.74 181.735C245.74 181.735 247.218 180.311 249.794 179.595L251.1 180.901C250.384 183.477 248.96 184.955 248.96 184.955C246.864 184.366 245.141 186.008 245.141 186.008L245.005 185.871L247.672 183.205C247.898 183.341 248.189 183.314 248.388 183.123C248.615 182.896 248.615 182.534 248.388 182.307C248.161 182.08 247.799 182.08 247.572 182.307C247.372 182.506 247.345 182.797 247.49 183.023L244.824 185.69L244.688 185.554C244.688 185.554 246.338 183.84 245.74 181.735Z" fill="#ECECEC"/>
<path d="M249.319 179.443L251.256 181.38L252.07 180.565L250.133 178.628L249.319 179.443Z" fill="#ECECEC"/>
<path d="M262.939 178.759V180.437H262.376C262.249 180.437 262.168 180.364 262.14 180.246C262.131 180.183 262.113 180.056 262.095 179.847H260.653V184.89C260.771 184.909 260.871 184.927 260.934 184.936C261.007 184.945 261.052 184.963 261.079 184.963C261.106 184.963 261.125 184.972 261.134 184.972C261.297 185.008 261.388 185.108 261.388 185.28V185.861H258.576V185.28C258.576 185.117 258.657 185.017 258.821 184.972C258.83 184.972 258.848 184.963 258.875 184.963C258.902 184.963 258.957 184.945 259.02 184.936C259.093 184.927 259.183 184.909 259.301 184.89V179.838H257.859C257.841 180.056 257.823 180.192 257.814 180.255C257.787 180.373 257.714 180.446 257.587 180.446H257.016V178.768H262.921L262.939 178.759Z" fill="#ECECEC"/>
<path d="M269.723 183.394C268.643 183.212 268.498 184.346 268.48 184.79C268.462 185.235 267.936 185.679 267.609 185.743C267.609 185.743 269.278 186.205 270.113 185.353C270.893 184.555 270.439 183.511 269.723 183.394Z" fill="#ECECEC"/>
<path d="M273.66 179.348L270.703 183.747C270.53 183.412 270.231 183.167 269.868 183.112C269.805 183.112 269.741 183.094 269.678 183.094L272.934 178.768L273.66 179.357V179.348Z" fill="#ECECEC"/>
<path d="M239.989 186.197H232.578V178.786H239.989V186.197ZM233.231 185.544H239.345V179.43H233.231V185.544Z" fill="#ECECEC"/>
<path d="M283.054 180.092C283.054 180.736 282.537 181.253 281.893 181.253C281.249 181.253 280.732 180.736 280.732 180.092C280.732 179.448 281.249 178.931 281.893 178.931C282.537 178.931 283.054 179.448 283.054 180.092Z" fill="#ECECEC"/>
<path d="M282.339 179.901H281.459V183.747H282.339V179.901Z" fill="#ECECEC"/>
<path d="M284.942 183.148L286.022 184.627H277.768L278.856 183.148H284.942Z" fill="#ECECEC"/>
<path d="M286.022 184.972H277.768V185.643H286.022V184.972Z" fill="#ECECEC"/>
<path d="M216.006 183.775C215.979 184.5 215.725 185.135 215.135 185.598C214.8 185.861 214.391 185.979 213.965 186.024C213.448 186.079 212.958 186.015 212.514 185.725C212.233 185.553 212.006 185.317 211.815 185.054C211.444 184.528 211.09 183.993 210.727 183.457C210.636 183.321 210.546 183.185 210.455 183.04C210.337 182.85 210.355 182.596 210.518 182.432C210.682 182.269 210.945 182.224 211.126 182.351C211.235 182.423 211.317 182.541 211.389 182.65C211.552 182.868 211.716 183.104 211.87 183.33C211.87 183.33 211.879 183.33 211.897 183.339V179.893C211.897 179.702 212.006 179.557 212.178 179.503C212.351 179.448 212.523 179.503 212.632 179.648C212.695 179.729 212.713 179.82 212.713 179.92C212.713 180.573 212.713 181.235 212.713 181.888C212.713 181.915 212.713 181.943 212.713 181.97C212.722 182.033 212.786 182.088 212.849 182.088C212.922 182.088 212.976 182.033 212.985 181.97V179.367C212.985 179.085 213.194 178.895 213.457 178.94C213.639 178.967 213.775 179.122 213.793 179.303V181.906C213.793 181.906 213.793 181.961 213.802 181.979C213.82 182.051 213.883 182.097 213.956 182.088C214.029 182.079 214.074 182.024 214.083 181.961C214.083 181.943 214.083 181.915 214.083 181.888V179.639C214.083 179.475 214.137 179.339 214.283 179.258C214.555 179.113 214.872 179.294 214.872 179.602C214.872 179.956 214.872 180.31 214.872 180.664C214.872 181.19 214.872 181.707 214.872 182.233C214.872 182.287 214.89 182.351 214.927 182.387C214.963 182.414 215.035 182.414 215.09 182.414C215.153 182.405 215.181 182.342 215.19 182.287V180.464C215.19 180.237 215.344 180.065 215.552 180.047C215.788 180.02 215.988 180.201 215.997 180.446C215.997 180.591 215.997 180.736 215.997 180.881V182.695C215.997 183.058 216.015 183.43 215.997 183.793L216.006 183.775Z" fill="#ECECEC"/>
<path d="M223.645 184.047C222.185 184.047 221.006 182.858 221.006 181.407C221.006 179.956 222.194 178.768 223.645 178.768C225.097 178.768 226.285 179.956 226.285 181.407C226.285 182.858 225.097 184.047 223.645 184.047ZM223.645 179.738C222.729 179.738 221.976 180.482 221.976 181.407C221.976 182.332 222.72 183.076 223.645 183.076C224.571 183.076 225.314 182.332 225.314 181.407C225.314 180.482 224.571 179.738 223.645 179.738Z" fill="#ECECEC"/>
<path d="M225.275 182.637L224.582 183.33L227.115 185.864L227.808 185.171L225.275 182.637Z" fill="#ECECEC"/>
<g opacity="0.3">
<path d="M285.388 86.7305H223.102V151.992H285.388V86.7305Z" fill="#2673E5"/>
</g>
<path d="M285.388 86.7305H223.102V92.7351H285.388V86.7305Z" fill="#2673E5"/>
<path d="M226.684 90.8392L224.652 88.8165L224.843 88.626L226.875 90.6487L226.684 90.8392Z" fill="#1A2E35"/>
<path d="M224.843 90.8392L224.652 90.6487L226.684 88.626L226.875 88.8165L224.843 90.8392Z" fill="#1A2E35"/>
<path d="M281.321 89.5439L281.129 89.7363L282.334 90.9423L282.527 90.7499L281.321 89.5439Z" fill="#1A2E35"/>
<path d="M282.331 88.5225L281.125 89.7285L281.317 89.9209L282.523 88.7149L282.331 88.5225Z" fill="#1A2E35"/>
<path d="M282.648 89.541L282.455 89.7334L283.661 90.9394L283.853 90.747L282.648 89.541Z" fill="#1A2E35"/>
<path d="M283.668 88.5409L282.463 89.7471L282.655 89.9394L283.861 88.7332L283.668 88.5409Z" fill="#1A2E35"/>
<g opacity="0.7">
<path d="M282.618 95.918H225.855V106.621H282.618V95.918Z" fill="#2673E5"/>
</g>
<path d="M235.107 97.8779H228.377V104.608H235.107V97.8779Z" fill="#1A2E35"/>
<path d="M239.498 97.8779H238.936V104.608H239.498V97.8779Z" fill="#1A2E35"/>
<path d="M276.986 100.345H244.359V102.195H276.986V100.345Z" fill="#1A2E35"/>
<g opacity="0.3">
<path d="M282.618 106.612H225.855V117.315H282.618V106.612Z" fill="#2673E5"/>
</g>
<path d="M235.107 108.581H228.377V115.311H235.107V108.581Z" fill="#DCDCDC"/>
<g opacity="0.7">
<path d="M239.498 108.581H238.936V115.311H239.498V108.581Z" fill="#2673E5"/>
</g>
<g opacity="0.7">
<path d="M276.986 111.039H244.359V112.889H276.986V111.039Z" fill="#2673E5"/>
</g>
<g opacity="0.7">
<path d="M282.618 117.316H225.855V128.02H282.618V117.316Z" fill="#2673E5"/>
</g>
<path d="M235.107 119.275H228.377V126.006H235.107V119.275Z" fill="#1A2E35"/>
<path d="M239.498 119.275H238.936V126.006H239.498V119.275Z" fill="#1A2E35"/>
<path d="M276.986 121.742H244.359V123.593H276.986V121.742Z" fill="#1A2E35"/>
<g opacity="0.3">
<path d="M282.618 128.02H225.855V138.723H282.618V128.02Z" fill="#2673E5"/>
</g>
<path d="M235.107 129.979H228.377V136.709H235.107V129.979Z" fill="white"/>
<g opacity="0.7">
<path d="M239.498 129.979H238.936V136.709H239.498V129.979Z" fill="#2673E5"/>
</g>
<g opacity="0.7">
<path d="M276.986 132.445H244.359V134.296H276.986V132.445Z" fill="#2673E5"/>
</g>
<g opacity="0.7">
<path d="M282.618 138.713H225.855V149.416H282.618V138.713Z" fill="#2673E5"/>
</g>
<path d="M235.107 140.681H228.377V147.411H235.107V140.681Z" fill="#A8A8A8"/>
<path d="M239.498 140.681H238.936V147.411H239.498V140.681Z" fill="#1A2E35"/>
<path d="M276.986 143.139H244.359V144.989H276.986V143.139Z" fill="#1A2E35"/>
<path d="M201.305 86.7904L203.435 91.9404L201.305 92.8304L199.165 87.6404L195.645 90.3704V75.8604L205.795 86.1204L201.305 86.7904Z" fill="white"/>
<path d="M201.165 93.18L199.055 88.07L195.375 90.92V75.21L206.365 86.31L201.685 87.01L203.785 92.09L201.155 93.18H201.165ZM199.275 87.21L201.455 92.47L203.085 91.79L200.925 86.57L205.235 85.93L195.905 76.51V89.82L199.275 87.21Z" fill="#1A2E35"/>
</g>
<defs>
<clipPath id="clip0_2326_16765">
<rect width="295.71" height="246.38" fill="white" transform="translate(0.144531)"/>
</clipPath>
</defs>
</svg>
