<svg width="1440" height="462" viewBox="0 0 1440 462" fill="none" xmlns="http://www.w3.org/2000/svg">
<rect width="1440" height="462" fill="url(#paint0_linear_1227_26546)"/>
<path d="M419.984 161.217V166.701H402.805V161.217H419.984ZM405.078 132.576V166.701H398.047V132.576H405.078ZM435.746 167.17C433.777 167.17 432.011 166.857 430.449 166.232C428.886 165.592 427.558 164.709 426.464 163.584C425.386 162.459 424.558 161.154 423.98 159.67C423.402 158.17 423.113 156.576 423.113 154.889V153.951C423.113 152.029 423.386 150.271 423.933 148.678C424.48 147.084 425.261 145.701 426.277 144.529C427.308 143.357 428.558 142.459 430.027 141.834C431.496 141.193 433.152 140.873 434.996 140.873C436.792 140.873 438.386 141.17 439.777 141.764C441.167 142.357 442.332 143.201 443.269 144.295C444.222 145.389 444.941 146.701 445.425 148.232C445.91 149.748 446.152 151.436 446.152 153.295V156.107H425.996V151.607H439.519V151.092C439.519 150.154 439.347 149.318 439.003 148.584C438.675 147.834 438.175 147.24 437.503 146.803C436.832 146.365 435.972 146.146 434.925 146.146C434.035 146.146 433.269 146.342 432.628 146.732C431.988 147.123 431.464 147.67 431.058 148.373C430.667 149.076 430.371 149.904 430.167 150.857C429.98 151.795 429.886 152.826 429.886 153.951V154.889C429.886 155.904 430.027 156.842 430.308 157.701C430.605 158.561 431.019 159.303 431.55 159.928C432.097 160.553 432.753 161.037 433.519 161.381C434.3 161.725 435.183 161.896 436.167 161.896C437.386 161.896 438.519 161.662 439.566 161.193C440.628 160.709 441.542 159.982 442.308 159.014L445.589 162.576C445.058 163.342 444.332 164.076 443.41 164.779C442.503 165.482 441.41 166.061 440.128 166.514C438.847 166.951 437.386 167.17 435.746 167.17ZM462.897 141.342V146.123H448.132V141.342H462.897ZM451.788 135.084H458.538V159.061C458.538 159.795 458.632 160.357 458.819 160.748C459.022 161.139 459.319 161.412 459.71 161.568C460.101 161.709 460.593 161.779 461.187 161.779C461.608 161.779 461.983 161.764 462.312 161.732C462.655 161.686 462.944 161.639 463.179 161.592L463.202 166.561C462.624 166.748 461.999 166.896 461.327 167.006C460.655 167.115 459.913 167.17 459.101 167.17C457.616 167.17 456.319 166.928 455.21 166.443C454.116 165.943 453.272 165.146 452.679 164.053C452.085 162.959 451.788 161.521 451.788 159.74V135.084ZM471.018 130.701V134.1L470.338 143.451H466.073L466.096 134.451V130.701H471.018ZM487.084 159.693C487.084 159.209 486.943 158.771 486.662 158.381C486.381 157.99 485.857 157.631 485.092 157.303C484.342 156.959 483.256 156.646 481.834 156.365C480.553 156.084 479.357 155.732 478.248 155.311C477.154 154.873 476.201 154.35 475.389 153.74C474.592 153.131 473.967 152.412 473.514 151.584C473.061 150.74 472.834 149.779 472.834 148.701C472.834 147.639 473.061 146.639 473.514 145.701C473.982 144.764 474.647 143.936 475.506 143.217C476.381 142.482 477.443 141.912 478.693 141.506C479.959 141.084 481.381 140.873 482.959 140.873C485.162 140.873 487.053 141.225 488.631 141.928C490.225 142.631 491.443 143.6 492.287 144.834C493.147 146.053 493.576 147.443 493.576 149.006H486.826C486.826 148.35 486.686 147.764 486.404 147.248C486.139 146.717 485.717 146.303 485.139 146.006C484.576 145.693 483.842 145.537 482.936 145.537C482.186 145.537 481.537 145.67 480.99 145.936C480.443 146.186 480.022 146.529 479.725 146.967C479.443 147.389 479.303 147.857 479.303 148.373C479.303 148.764 479.381 149.115 479.537 149.428C479.709 149.725 479.982 149.998 480.357 150.248C480.732 150.498 481.217 150.732 481.811 150.951C482.42 151.154 483.17 151.342 484.061 151.514C485.889 151.889 487.522 152.381 488.959 152.99C490.397 153.584 491.537 154.396 492.381 155.428C493.225 156.443 493.647 157.779 493.647 159.436C493.647 160.561 493.397 161.592 492.897 162.529C492.397 163.467 491.678 164.287 490.74 164.99C489.803 165.678 488.678 166.217 487.365 166.607C486.068 166.982 484.607 167.17 482.982 167.17C480.623 167.17 478.623 166.748 476.982 165.904C475.357 165.061 474.123 163.99 473.279 162.693C472.451 161.381 472.037 160.037 472.037 158.662H478.436C478.467 159.584 478.701 160.326 479.139 160.889C479.592 161.451 480.162 161.857 480.85 162.107C481.553 162.357 482.311 162.482 483.123 162.482C483.998 162.482 484.725 162.365 485.303 162.131C485.881 161.881 486.318 161.553 486.615 161.146C486.928 160.725 487.084 160.24 487.084 159.693ZM524.724 151.725H515.958L515.911 146.896H523.271C524.567 146.896 525.63 146.732 526.458 146.404C527.286 146.061 527.903 145.568 528.31 144.928C528.732 144.271 528.942 143.475 528.942 142.537C528.942 141.475 528.739 140.615 528.333 139.959C527.942 139.303 527.325 138.826 526.482 138.529C525.653 138.232 524.583 138.084 523.271 138.084H518.396V166.701H511.364V132.576H523.271C525.255 132.576 527.028 132.764 528.591 133.139C530.169 133.514 531.505 134.084 532.599 134.85C533.692 135.615 534.528 136.584 535.107 137.756C535.685 138.912 535.974 140.287 535.974 141.881C535.974 143.287 535.653 144.584 535.013 145.771C534.388 146.959 533.396 147.928 532.036 148.678C530.692 149.428 528.935 149.842 526.763 149.92L524.724 151.725ZM524.419 166.701H514.036L516.778 161.217H524.419C525.653 161.217 526.661 161.021 527.442 160.631C528.224 160.225 528.802 159.678 529.177 158.99C529.552 158.303 529.739 157.514 529.739 156.623C529.739 155.623 529.567 154.756 529.224 154.021C528.896 153.287 528.364 152.725 527.63 152.334C526.896 151.928 525.927 151.725 524.724 151.725H517.95L517.997 146.896H526.435L528.052 148.795C530.13 148.764 531.802 149.131 533.067 149.896C534.349 150.646 535.278 151.623 535.857 152.826C536.45 154.029 536.747 155.318 536.747 156.693C536.747 158.881 536.271 160.725 535.317 162.225C534.364 163.709 532.966 164.826 531.122 165.576C529.294 166.326 527.06 166.701 524.419 166.701ZM557.079 160.631V141.342H563.829V166.701H557.477L557.079 160.631ZM557.829 155.428L559.821 155.381C559.821 157.068 559.626 158.639 559.235 160.092C558.844 161.529 558.258 162.779 557.477 163.842C556.696 164.889 555.712 165.709 554.524 166.303C553.337 166.881 551.938 167.17 550.329 167.17C549.094 167.17 547.954 166.998 546.907 166.654C545.876 166.295 544.985 165.74 544.235 164.99C543.501 164.225 542.923 163.248 542.501 162.061C542.094 160.857 541.891 159.412 541.891 157.725V141.342H548.641V157.771C548.641 158.521 548.727 159.154 548.899 159.67C549.087 160.186 549.344 160.607 549.673 160.936C550.001 161.264 550.383 161.498 550.821 161.639C551.274 161.779 551.774 161.85 552.321 161.85C553.712 161.85 554.805 161.568 555.602 161.006C556.415 160.443 556.985 159.678 557.313 158.709C557.657 157.725 557.829 156.631 557.829 155.428ZM576.59 141.342V166.701H569.817V141.342H576.59ZM569.395 134.732C569.395 133.748 569.738 132.936 570.426 132.295C571.113 131.654 572.035 131.334 573.192 131.334C574.332 131.334 575.246 131.654 575.934 132.295C576.637 132.936 576.988 133.748 576.988 134.732C576.988 135.717 576.637 136.529 575.934 137.17C575.246 137.811 574.332 138.131 573.192 138.131C572.035 138.131 571.113 137.811 570.426 137.17C569.738 136.529 569.395 135.717 569.395 134.732ZM589.773 130.701V166.701H583V130.701H589.773ZM610.808 161.17V130.701H617.605V166.701H611.488L610.808 161.17ZM594.777 154.326V153.834C594.777 151.896 594.995 150.139 595.433 148.561C595.87 146.967 596.511 145.6 597.355 144.459C598.198 143.318 599.238 142.436 600.472 141.811C601.706 141.186 603.113 140.873 604.691 140.873C606.175 140.873 607.472 141.186 608.581 141.811C609.706 142.436 610.659 143.326 611.441 144.482C612.238 145.623 612.878 146.975 613.363 148.537C613.847 150.084 614.198 151.779 614.417 153.623V154.701C614.198 156.467 613.847 158.107 613.363 159.623C612.878 161.139 612.238 162.467 611.441 163.607C610.659 164.732 609.706 165.607 608.581 166.232C607.456 166.857 606.144 167.17 604.644 167.17C603.066 167.17 601.659 166.85 600.425 166.209C599.206 165.568 598.175 164.67 597.331 163.514C596.503 162.357 595.87 160.998 595.433 159.436C594.995 157.873 594.777 156.17 594.777 154.326ZM601.527 153.834V154.326C601.527 155.373 601.605 156.35 601.761 157.256C601.933 158.162 602.206 158.967 602.581 159.67C602.972 160.357 603.472 160.896 604.081 161.287C604.706 161.662 605.464 161.85 606.355 161.85C607.511 161.85 608.464 161.592 609.214 161.076C609.964 160.545 610.534 159.818 610.925 158.896C611.331 157.975 611.566 156.912 611.628 155.709V152.639C611.581 151.654 611.441 150.771 611.206 149.99C610.988 149.193 610.659 148.514 610.222 147.951C609.8 147.389 609.269 146.951 608.628 146.639C608.003 146.326 607.261 146.17 606.402 146.17C605.527 146.17 604.777 146.373 604.152 146.779C603.527 147.17 603.019 147.709 602.628 148.396C602.253 149.084 601.972 149.896 601.784 150.834C601.613 151.756 601.527 152.756 601.527 153.834ZM653.979 157.771C653.979 157.162 653.885 156.615 653.697 156.131C653.526 155.631 653.197 155.178 652.713 154.771C652.229 154.35 651.549 153.936 650.674 153.529C649.799 153.123 648.666 152.701 647.276 152.264C645.729 151.764 644.26 151.201 642.869 150.576C641.494 149.951 640.276 149.225 639.213 148.396C638.166 147.553 637.338 146.576 636.729 145.467C636.135 144.357 635.838 143.068 635.838 141.6C635.838 140.178 636.151 138.889 636.776 137.732C637.401 136.561 638.276 135.561 639.401 134.732C640.526 133.889 641.854 133.24 643.385 132.787C644.932 132.334 646.627 132.107 648.471 132.107C650.987 132.107 653.182 132.561 655.057 133.467C656.932 134.373 658.385 135.615 659.416 137.193C660.463 138.771 660.987 140.576 660.987 142.607H654.002C654.002 141.607 653.791 140.732 653.369 139.982C652.963 139.217 652.338 138.615 651.494 138.178C650.666 137.74 649.619 137.521 648.354 137.521C647.135 137.521 646.119 137.709 645.307 138.084C644.494 138.443 643.885 138.936 643.479 139.561C643.072 140.17 642.869 140.857 642.869 141.623C642.869 142.201 643.01 142.725 643.291 143.193C643.588 143.662 644.026 144.1 644.604 144.506C645.182 144.912 645.893 145.295 646.737 145.654C647.58 146.014 648.557 146.365 649.666 146.709C651.526 147.271 653.158 147.904 654.565 148.607C655.987 149.311 657.174 150.1 658.127 150.975C659.08 151.85 659.799 152.842 660.283 153.951C660.768 155.061 661.01 156.318 661.01 157.725C661.01 159.209 660.721 160.537 660.143 161.709C659.565 162.881 658.729 163.873 657.635 164.686C656.541 165.498 655.237 166.115 653.721 166.537C652.205 166.959 650.51 167.17 648.635 167.17C646.947 167.17 645.283 166.951 643.643 166.514C642.002 166.061 640.51 165.381 639.166 164.475C637.838 163.568 636.776 162.412 635.979 161.006C635.182 159.6 634.783 157.936 634.783 156.014H641.838C641.838 157.076 642.002 157.975 642.33 158.709C642.658 159.443 643.119 160.037 643.713 160.49C644.322 160.943 645.041 161.271 645.869 161.475C646.713 161.678 647.635 161.779 648.635 161.779C649.854 161.779 650.854 161.607 651.635 161.264C652.432 160.92 653.018 160.443 653.393 159.834C653.783 159.225 653.979 158.537 653.979 157.771ZM664.771 154.279V153.787C664.771 151.928 665.037 150.217 665.568 148.654C666.099 147.076 666.873 145.709 667.888 144.553C668.904 143.396 670.154 142.498 671.638 141.857C673.123 141.201 674.826 140.873 676.748 140.873C678.67 140.873 680.381 141.201 681.881 141.857C683.381 142.498 684.638 143.396 685.654 144.553C686.685 145.709 687.467 147.076 687.998 148.654C688.529 150.217 688.795 151.928 688.795 153.787V154.279C688.795 156.123 688.529 157.834 687.998 159.412C687.467 160.975 686.685 162.342 685.654 163.514C684.638 164.67 683.388 165.568 681.904 166.209C680.42 166.85 678.717 167.17 676.795 167.17C674.873 167.17 673.162 166.85 671.662 166.209C670.177 165.568 668.92 164.67 667.888 163.514C666.873 162.342 666.099 160.975 665.568 159.412C665.037 157.834 664.771 156.123 664.771 154.279ZM671.521 153.787V154.279C671.521 155.342 671.615 156.334 671.802 157.256C671.99 158.178 672.287 158.99 672.693 159.693C673.115 160.381 673.662 160.92 674.334 161.311C675.006 161.701 675.826 161.896 676.795 161.896C677.732 161.896 678.537 161.701 679.209 161.311C679.881 160.92 680.42 160.381 680.826 159.693C681.232 158.99 681.529 158.178 681.717 157.256C681.92 156.334 682.021 155.342 682.021 154.279V153.787C682.021 152.756 681.92 151.787 681.717 150.881C681.529 149.959 681.224 149.146 680.802 148.443C680.396 147.725 679.857 147.162 679.185 146.756C678.513 146.35 677.701 146.146 676.748 146.146C675.795 146.146 674.982 146.35 674.31 146.756C673.654 147.162 673.115 147.725 672.693 148.443C672.287 149.146 671.99 149.959 671.802 150.881C671.615 151.787 671.521 152.756 671.521 153.787ZM700.173 146.592V166.701H693.4V141.342H699.751L700.173 146.592ZM699.236 153.131H697.361C697.361 151.365 697.572 149.74 697.993 148.256C698.431 146.756 699.064 145.459 699.892 144.365C700.736 143.256 701.775 142.396 703.009 141.787C704.243 141.178 705.673 140.873 707.298 140.873C708.423 140.873 709.454 141.045 710.392 141.389C711.329 141.717 712.134 142.24 712.806 142.959C713.493 143.662 714.025 144.584 714.4 145.725C714.775 146.85 714.962 148.201 714.962 149.779V166.701H708.212V150.529C708.212 149.373 708.056 148.482 707.743 147.857C707.431 147.232 706.986 146.795 706.408 146.545C705.845 146.295 705.165 146.17 704.368 146.17C703.493 146.17 702.728 146.35 702.072 146.709C701.431 147.068 700.9 147.568 700.478 148.209C700.056 148.834 699.743 149.568 699.54 150.412C699.337 151.256 699.236 152.162 699.236 153.131ZM714.329 152.357L711.915 152.662C711.915 151.006 712.118 149.467 712.525 148.045C712.947 146.623 713.564 145.373 714.376 144.295C715.204 143.217 716.228 142.381 717.447 141.787C718.665 141.178 720.072 140.873 721.665 140.873C722.884 140.873 723.993 141.053 724.993 141.412C725.993 141.756 726.845 142.311 727.548 143.076C728.267 143.826 728.814 144.811 729.189 146.029C729.579 147.248 729.775 148.74 729.775 150.506V166.701H723.001V150.506C723.001 149.334 722.845 148.443 722.533 147.834C722.236 147.209 721.798 146.779 721.22 146.545C720.658 146.295 719.986 146.17 719.204 146.17C718.392 146.17 717.681 146.334 717.072 146.662C716.462 146.975 715.954 147.412 715.548 147.975C715.142 148.537 714.837 149.193 714.634 149.943C714.431 150.678 714.329 151.482 714.329 152.357ZM747.153 167.17C745.184 167.17 743.419 166.857 741.856 166.232C740.294 165.592 738.966 164.709 737.872 163.584C736.794 162.459 735.966 161.154 735.388 159.67C734.809 158.17 734.52 156.576 734.52 154.889V153.951C734.52 152.029 734.794 150.271 735.341 148.678C735.888 147.084 736.669 145.701 737.684 144.529C738.716 143.357 739.966 142.459 741.434 141.834C742.903 141.193 744.559 140.873 746.403 140.873C748.2 140.873 749.794 141.17 751.184 141.764C752.575 142.357 753.739 143.201 754.677 144.295C755.63 145.389 756.348 146.701 756.833 148.232C757.317 149.748 757.559 151.436 757.559 153.295V156.107H737.403V151.607H750.927V151.092C750.927 150.154 750.755 149.318 750.411 148.584C750.083 147.834 749.583 147.24 748.911 146.803C748.239 146.365 747.38 146.146 746.333 146.146C745.442 146.146 744.677 146.342 744.036 146.732C743.395 147.123 742.872 147.67 742.466 148.373C742.075 149.076 741.778 149.904 741.575 150.857C741.388 151.795 741.294 152.826 741.294 153.951V154.889C741.294 155.904 741.434 156.842 741.716 157.701C742.013 158.561 742.427 159.303 742.958 159.928C743.505 160.553 744.161 161.037 744.927 161.381C745.708 161.725 746.591 161.896 747.575 161.896C748.794 161.896 749.927 161.662 750.973 161.193C752.036 160.709 752.95 159.982 753.716 159.014L756.997 162.576C756.466 163.342 755.739 164.076 754.817 164.779C753.911 165.482 752.817 166.061 751.536 166.514C750.255 166.951 748.794 167.17 747.153 167.17ZM774.305 141.342V146.123H759.539V141.342H774.305ZM763.196 135.084H769.946V159.061C769.946 159.795 770.039 160.357 770.227 160.748C770.43 161.139 770.727 161.412 771.117 161.568C771.508 161.709 772 161.779 772.594 161.779C773.016 161.779 773.391 161.764 773.719 161.732C774.063 161.686 774.352 161.639 774.586 161.592L774.61 166.561C774.032 166.748 773.407 166.896 772.735 167.006C772.063 167.115 771.321 167.17 770.508 167.17C769.024 167.17 767.727 166.928 766.617 166.443C765.524 165.943 764.68 165.146 764.086 164.053C763.492 162.959 763.196 161.521 763.196 159.74V135.084ZM785.215 130.701V166.701H778.465V130.701H785.215ZM784.254 153.131H782.402C782.418 151.365 782.652 149.74 783.105 148.256C783.558 146.756 784.207 145.459 785.051 144.365C785.894 143.256 786.902 142.396 788.074 141.787C789.262 141.178 790.574 140.873 792.012 140.873C793.262 140.873 794.394 141.053 795.41 141.412C796.441 141.756 797.324 142.318 798.058 143.1C798.808 143.865 799.387 144.873 799.793 146.123C800.199 147.373 800.402 148.889 800.402 150.67V166.701H793.605V150.623C793.605 149.498 793.441 148.615 793.113 147.975C792.801 147.318 792.34 146.857 791.73 146.592C791.137 146.311 790.402 146.17 789.527 146.17C788.558 146.17 787.73 146.35 787.043 146.709C786.371 147.068 785.832 147.568 785.426 148.209C785.019 148.834 784.723 149.568 784.535 150.412C784.348 151.256 784.254 152.162 784.254 153.131ZM813.14 141.342V166.701H806.367V141.342H813.14ZM805.945 134.732C805.945 133.748 806.288 132.936 806.976 132.295C807.663 131.654 808.585 131.334 809.742 131.334C810.882 131.334 811.796 131.654 812.484 132.295C813.187 132.936 813.538 133.748 813.538 134.732C813.538 135.717 813.187 136.529 812.484 137.17C811.796 137.811 810.882 138.131 809.742 138.131C808.585 138.131 807.663 137.811 806.976 137.17C806.288 136.529 805.945 135.717 805.945 134.732ZM825.807 146.756V166.701H819.057V141.342H825.386L825.807 146.756ZM824.823 153.131H822.995C822.995 151.256 823.237 149.568 823.722 148.068C824.206 146.553 824.886 145.264 825.761 144.201C826.636 143.123 827.675 142.303 828.878 141.74C830.097 141.162 831.456 140.873 832.956 140.873C834.143 140.873 835.229 141.045 836.214 141.389C837.198 141.732 838.042 142.279 838.745 143.029C839.464 143.779 840.011 144.771 840.386 146.006C840.776 147.24 840.972 148.748 840.972 150.529V166.701H834.175V150.506C834.175 149.381 834.018 148.506 833.706 147.881C833.393 147.256 832.932 146.818 832.323 146.568C831.729 146.303 830.995 146.17 830.12 146.17C829.214 146.17 828.425 146.35 827.753 146.709C827.097 147.068 826.55 147.568 826.112 148.209C825.69 148.834 825.37 149.568 825.151 150.412C824.932 151.256 824.823 152.162 824.823 153.131ZM862.639 141.342H868.756V165.857C868.756 168.17 868.241 170.131 867.209 171.74C866.194 173.365 864.772 174.592 862.944 175.42C861.116 176.264 858.991 176.686 856.569 176.686C855.506 176.686 854.381 176.545 853.194 176.264C852.022 175.982 850.897 175.545 849.819 174.951C848.756 174.357 847.866 173.607 847.147 172.701L850.123 168.717C850.905 169.623 851.811 170.326 852.842 170.826C853.873 171.342 855.014 171.6 856.264 171.6C857.483 171.6 858.514 171.373 859.358 170.92C860.202 170.482 860.85 169.834 861.303 168.975C861.756 168.131 861.983 167.107 861.983 165.904V147.201L862.639 141.342ZM845.577 154.326V153.834C845.577 151.896 845.811 150.139 846.28 148.561C846.764 146.967 847.444 145.6 848.319 144.459C849.209 143.318 850.288 142.436 851.553 141.811C852.819 141.186 854.248 140.873 855.842 140.873C857.53 140.873 858.944 141.186 860.084 141.811C861.225 142.436 862.163 143.326 862.897 144.482C863.631 145.623 864.202 146.975 864.608 148.537C865.03 150.084 865.358 151.779 865.592 153.623V154.701C865.358 156.467 865.006 158.107 864.538 159.623C864.069 161.139 863.452 162.467 862.686 163.607C861.92 164.732 860.967 165.607 859.827 166.232C858.702 166.857 857.358 167.17 855.795 167.17C854.233 167.17 852.819 166.85 851.553 166.209C850.303 165.568 849.233 164.67 848.342 163.514C847.452 162.357 846.764 160.998 846.28 159.436C845.811 157.873 845.577 156.17 845.577 154.326ZM852.327 153.834V154.326C852.327 155.373 852.428 156.35 852.631 157.256C852.834 158.162 853.147 158.967 853.569 159.67C854.006 160.357 854.545 160.896 855.186 161.287C855.842 161.662 856.616 161.85 857.506 161.85C858.741 161.85 859.748 161.592 860.53 161.076C861.311 160.545 861.897 159.818 862.288 158.896C862.678 157.975 862.905 156.912 862.967 155.709V152.639C862.936 151.654 862.803 150.771 862.569 149.99C862.334 149.193 862.006 148.514 861.584 147.951C861.163 147.389 860.616 146.951 859.944 146.639C859.272 146.326 858.475 146.17 857.553 146.17C856.663 146.17 855.889 146.373 855.233 146.779C854.592 147.17 854.053 147.709 853.616 148.396C853.194 149.084 852.873 149.896 852.655 150.834C852.436 151.756 852.327 152.756 852.327 153.834ZM411.922 202.412L402.641 230.701H395.164L407.844 196.576H412.602L411.922 202.412ZM419.633 230.701L410.328 202.412L409.578 196.576H414.383L427.133 230.701H419.633ZM419.211 217.998V223.506H401.188V217.998H419.211ZM436.8 224.139L442.074 205.342H446.363L444.98 212.725L439.707 230.701H436.121L436.8 224.139ZM434.128 205.342L437.902 224.115L438.253 230.701H434.035L427.613 205.342H434.128ZM451.191 223.811L454.871 205.342H461.41L454.988 230.701H450.792L451.191 223.811ZM446.949 205.342L452.199 223.998L452.925 230.701H449.316L444.042 212.748L442.707 205.342H446.949ZM476.96 231.17C474.991 231.17 473.226 230.857 471.663 230.232C470.101 229.592 468.772 228.709 467.679 227.584C466.601 226.459 465.772 225.154 465.194 223.67C464.616 222.17 464.327 220.576 464.327 218.889V217.951C464.327 216.029 464.601 214.271 465.147 212.678C465.694 211.084 466.476 209.701 467.491 208.529C468.522 207.357 469.772 206.459 471.241 205.834C472.71 205.193 474.366 204.873 476.21 204.873C478.007 204.873 479.601 205.17 480.991 205.764C482.382 206.357 483.546 207.201 484.483 208.295C485.437 209.389 486.155 210.701 486.64 212.232C487.124 213.748 487.366 215.436 487.366 217.295V220.107H467.21V215.607H480.733V215.092C480.733 214.154 480.562 213.318 480.218 212.584C479.89 211.834 479.39 211.24 478.718 210.803C478.046 210.365 477.187 210.146 476.14 210.146C475.249 210.146 474.483 210.342 473.843 210.732C473.202 211.123 472.679 211.67 472.272 212.373C471.882 213.076 471.585 213.904 471.382 214.857C471.194 215.795 471.101 216.826 471.101 217.951V218.889C471.101 219.904 471.241 220.842 471.522 221.701C471.819 222.561 472.233 223.303 472.765 223.928C473.312 224.553 473.968 225.037 474.733 225.381C475.515 225.725 476.397 225.896 477.382 225.896C478.601 225.896 479.733 225.662 480.78 225.193C481.843 224.709 482.757 223.982 483.522 223.014L486.804 226.576C486.272 227.342 485.546 228.076 484.624 228.779C483.718 229.482 482.624 230.061 481.343 230.514C480.062 230.951 478.601 231.17 476.96 231.17ZM505.401 223.693C505.401 223.209 505.26 222.771 504.979 222.381C504.698 221.99 504.174 221.631 503.409 221.303C502.659 220.959 501.573 220.646 500.151 220.365C498.87 220.084 497.674 219.732 496.565 219.311C495.471 218.873 494.518 218.35 493.706 217.74C492.909 217.131 492.284 216.412 491.831 215.584C491.378 214.74 491.151 213.779 491.151 212.701C491.151 211.639 491.378 210.639 491.831 209.701C492.299 208.764 492.963 207.936 493.823 207.217C494.698 206.482 495.76 205.912 497.01 205.506C498.276 205.084 499.698 204.873 501.276 204.873C503.479 204.873 505.37 205.225 506.948 205.928C508.542 206.631 509.76 207.6 510.604 208.834C511.463 210.053 511.893 211.443 511.893 213.006H505.143C505.143 212.35 505.003 211.764 504.721 211.248C504.456 210.717 504.034 210.303 503.456 210.006C502.893 209.693 502.159 209.537 501.253 209.537C500.503 209.537 499.854 209.67 499.307 209.936C498.76 210.186 498.338 210.529 498.042 210.967C497.76 211.389 497.62 211.857 497.62 212.373C497.62 212.764 497.698 213.115 497.854 213.428C498.026 213.725 498.299 213.998 498.674 214.248C499.049 214.498 499.534 214.732 500.128 214.951C500.737 215.154 501.487 215.342 502.378 215.514C504.206 215.889 505.838 216.381 507.276 216.99C508.713 217.584 509.854 218.396 510.698 219.428C511.542 220.443 511.963 221.779 511.963 223.436C511.963 224.561 511.713 225.592 511.213 226.529C510.713 227.467 509.995 228.287 509.057 228.99C508.12 229.678 506.995 230.217 505.682 230.607C504.385 230.982 502.924 231.17 501.299 231.17C498.94 231.17 496.94 230.748 495.299 229.904C493.674 229.061 492.44 227.99 491.596 226.693C490.768 225.381 490.354 224.037 490.354 222.662H496.753C496.784 223.584 497.018 224.326 497.456 224.889C497.909 225.451 498.479 225.857 499.167 226.107C499.87 226.357 500.628 226.482 501.44 226.482C502.315 226.482 503.042 226.365 503.62 226.131C504.198 225.881 504.635 225.553 504.932 225.146C505.245 224.725 505.401 224.24 505.401 223.693ZM515.748 218.279V217.787C515.748 215.928 516.014 214.217 516.545 212.654C517.076 211.076 517.85 209.709 518.865 208.553C519.881 207.396 521.131 206.498 522.615 205.857C524.1 205.201 525.803 204.873 527.725 204.873C529.647 204.873 531.357 205.201 532.857 205.857C534.357 206.498 535.615 207.396 536.631 208.553C537.662 209.709 538.443 211.076 538.975 212.654C539.506 214.217 539.772 215.928 539.772 217.787V218.279C539.772 220.123 539.506 221.834 538.975 223.412C538.443 224.975 537.662 226.342 536.631 227.514C535.615 228.67 534.365 229.568 532.881 230.209C531.397 230.85 529.693 231.17 527.772 231.17C525.85 231.17 524.139 230.85 522.639 230.209C521.154 229.568 519.897 228.67 518.865 227.514C517.85 226.342 517.076 224.975 516.545 223.412C516.014 221.834 515.748 220.123 515.748 218.279ZM522.498 217.787V218.279C522.498 219.342 522.592 220.334 522.779 221.256C522.967 222.178 523.264 222.99 523.67 223.693C524.092 224.381 524.639 224.92 525.311 225.311C525.982 225.701 526.803 225.896 527.772 225.896C528.709 225.896 529.514 225.701 530.186 225.311C530.857 224.92 531.397 224.381 531.803 223.693C532.209 222.99 532.506 222.178 532.693 221.256C532.897 220.334 532.998 219.342 532.998 218.279V217.787C532.998 216.756 532.897 215.787 532.693 214.881C532.506 213.959 532.201 213.146 531.779 212.443C531.373 211.725 530.834 211.162 530.162 210.756C529.49 210.35 528.678 210.146 527.725 210.146C526.772 210.146 525.959 210.35 525.287 210.756C524.631 211.162 524.092 211.725 523.67 212.443C523.264 213.146 522.967 213.959 522.779 214.881C522.592 215.787 522.498 216.756 522.498 217.787ZM551.15 210.592V230.701H544.377V205.342H550.728L551.15 210.592ZM550.212 217.131H548.337C548.337 215.365 548.548 213.74 548.97 212.256C549.408 210.756 550.041 209.459 550.869 208.365C551.712 207.256 552.752 206.396 553.986 205.787C555.22 205.178 556.65 204.873 558.275 204.873C559.4 204.873 560.431 205.045 561.369 205.389C562.306 205.717 563.111 206.24 563.783 206.959C564.47 207.662 565.002 208.584 565.377 209.725C565.752 210.85 565.939 212.201 565.939 213.779V230.701H559.189V214.529C559.189 213.373 559.033 212.482 558.72 211.857C558.408 211.232 557.962 210.795 557.384 210.545C556.822 210.295 556.142 210.17 555.345 210.17C554.47 210.17 553.705 210.35 553.048 210.709C552.408 211.068 551.877 211.568 551.455 212.209C551.033 212.834 550.72 213.568 550.517 214.412C550.314 215.256 550.212 216.162 550.212 217.131ZM565.306 216.357L562.892 216.662C562.892 215.006 563.095 213.467 563.502 212.045C563.923 210.623 564.541 209.373 565.353 208.295C566.181 207.217 567.205 206.381 568.423 205.787C569.642 205.178 571.048 204.873 572.642 204.873C573.861 204.873 574.97 205.053 575.97 205.412C576.97 205.756 577.822 206.311 578.525 207.076C579.244 207.826 579.791 208.811 580.166 210.029C580.556 211.248 580.752 212.74 580.752 214.506V230.701H573.978V214.506C573.978 213.334 573.822 212.443 573.509 211.834C573.212 211.209 572.775 210.779 572.197 210.545C571.634 210.295 570.962 210.17 570.181 210.17C569.369 210.17 568.658 210.334 568.048 210.662C567.439 210.975 566.931 211.412 566.525 211.975C566.119 212.537 565.814 213.193 565.611 213.943C565.408 214.678 565.306 215.482 565.306 216.357ZM598.13 231.17C596.161 231.17 594.396 230.857 592.833 230.232C591.271 229.592 589.943 228.709 588.849 227.584C587.771 226.459 586.943 225.154 586.364 223.67C585.786 222.17 585.497 220.576 585.497 218.889V217.951C585.497 216.029 585.771 214.271 586.318 212.678C586.864 211.084 587.646 209.701 588.661 208.529C589.693 207.357 590.943 206.459 592.411 205.834C593.88 205.193 595.536 204.873 597.38 204.873C599.177 204.873 600.771 205.17 602.161 205.764C603.552 206.357 604.716 207.201 605.653 208.295C606.607 209.389 607.325 210.701 607.81 212.232C608.294 213.748 608.536 215.436 608.536 217.295V220.107H588.38V215.607H601.903V215.092C601.903 214.154 601.732 213.318 601.388 212.584C601.06 211.834 600.56 211.24 599.888 210.803C599.216 210.365 598.357 210.146 597.31 210.146C596.419 210.146 595.653 210.342 595.013 210.732C594.372 211.123 593.849 211.67 593.443 212.373C593.052 213.076 592.755 213.904 592.552 214.857C592.364 215.795 592.271 216.826 592.271 217.951V218.889C592.271 219.904 592.411 220.842 592.693 221.701C592.989 222.561 593.403 223.303 593.935 223.928C594.482 224.553 595.138 225.037 595.903 225.381C596.685 225.725 597.568 225.896 598.552 225.896C599.771 225.896 600.903 225.662 601.95 225.193C603.013 224.709 603.927 223.982 604.693 223.014L607.974 226.576C607.443 227.342 606.716 228.076 605.794 228.779C604.888 229.482 603.794 230.061 602.513 230.514C601.232 230.951 599.771 231.17 598.13 231.17ZM620.477 196.576L619.704 220.271H614.079L613.282 196.576H620.477ZM613.094 227.607C613.094 226.607 613.438 225.779 614.126 225.123C614.829 224.451 615.751 224.115 616.891 224.115C618.048 224.115 618.969 224.451 619.657 225.123C620.344 225.779 620.688 226.607 620.688 227.607C620.688 228.576 620.344 229.396 619.657 230.068C618.969 230.74 618.048 231.076 616.891 231.076C615.751 231.076 614.829 230.74 614.126 230.068C613.438 229.396 613.094 228.576 613.094 227.607Z" fill="#FAFAFC"/>
<rect x="395" y="290.701" width="245" height="52.5977" rx="26.2989" fill="#FAFAFC"/>
<path d="M493.906 318.223H495.371C495.324 318.781 495.168 319.279 494.902 319.717C494.637 320.15 494.264 320.492 493.783 320.742C493.303 320.992 492.719 321.117 492.031 321.117C491.504 321.117 491.029 321.023 490.607 320.836C490.186 320.645 489.824 320.375 489.523 320.027C489.223 319.676 488.992 319.252 488.832 318.756C488.676 318.26 488.598 317.705 488.598 317.092V316.383C488.598 315.77 488.678 315.215 488.838 314.719C489.002 314.223 489.236 313.799 489.541 313.447C489.846 313.092 490.211 312.82 490.637 312.633C491.066 312.445 491.549 312.352 492.084 312.352C492.764 312.352 493.338 312.477 493.807 312.727C494.275 312.977 494.639 313.322 494.896 313.764C495.158 314.205 495.318 314.711 495.377 315.281H493.912C493.873 314.914 493.787 314.6 493.654 314.338C493.525 314.076 493.334 313.877 493.08 313.74C492.826 313.6 492.494 313.529 492.084 313.529C491.748 313.529 491.455 313.592 491.205 313.717C490.955 313.842 490.746 314.025 490.578 314.268C490.41 314.51 490.283 314.809 490.197 315.164C490.115 315.516 490.074 315.918 490.074 316.371V317.092C490.074 317.521 490.111 317.912 490.186 318.264C490.264 318.611 490.381 318.91 490.537 319.16C490.697 319.41 490.9 319.604 491.146 319.74C491.393 319.877 491.688 319.945 492.031 319.945C492.449 319.945 492.787 319.879 493.045 319.746C493.307 319.613 493.504 319.42 493.637 319.166C493.773 318.908 493.863 318.594 493.906 318.223ZM497.961 312V321H496.555V312H497.961ZM497.715 317.596L497.258 317.59C497.262 317.152 497.322 316.748 497.439 316.377C497.561 316.006 497.729 315.684 497.943 315.41C498.162 315.133 498.424 314.92 498.729 314.771C499.033 314.619 499.371 314.543 499.742 314.543C500.055 314.543 500.336 314.586 500.586 314.672C500.84 314.758 501.059 314.896 501.242 315.088C501.426 315.275 501.564 315.521 501.658 315.826C501.756 316.127 501.805 316.494 501.805 316.928V321H500.387V316.916C500.387 316.611 500.342 316.369 500.252 316.189C500.166 316.01 500.039 315.881 499.871 315.803C499.703 315.721 499.498 315.68 499.256 315.68C499.002 315.68 498.777 315.73 498.582 315.832C498.391 315.934 498.23 316.072 498.102 316.248C497.973 316.424 497.875 316.627 497.809 316.857C497.746 317.088 497.715 317.334 497.715 317.596ZM506.029 321.117C505.561 321.117 505.137 321.041 504.758 320.889C504.383 320.732 504.062 320.516 503.797 320.238C503.535 319.961 503.334 319.635 503.193 319.26C503.053 318.885 502.982 318.48 502.982 318.047V317.812C502.982 317.316 503.055 316.867 503.199 316.465C503.344 316.062 503.545 315.719 503.803 315.434C504.061 315.145 504.365 314.924 504.717 314.771C505.068 314.619 505.449 314.543 505.859 314.543C506.312 314.543 506.709 314.619 507.049 314.771C507.389 314.924 507.67 315.139 507.893 315.416C508.119 315.689 508.287 316.016 508.396 316.395C508.51 316.773 508.566 317.191 508.566 317.648V318.252H503.668V317.238H507.172V317.127C507.164 316.873 507.113 316.635 507.02 316.412C506.93 316.189 506.791 316.01 506.604 315.873C506.416 315.736 506.166 315.668 505.854 315.668C505.619 315.668 505.41 315.719 505.227 315.82C505.047 315.918 504.896 316.061 504.775 316.248C504.654 316.436 504.561 316.662 504.494 316.928C504.432 317.189 504.4 317.484 504.4 317.812V318.047C504.4 318.324 504.438 318.582 504.512 318.82C504.59 319.055 504.703 319.26 504.852 319.436C505 319.611 505.18 319.75 505.391 319.852C505.602 319.949 505.842 319.998 506.111 319.998C506.451 319.998 506.754 319.93 507.02 319.793C507.285 319.656 507.516 319.463 507.711 319.213L508.455 319.934C508.318 320.133 508.141 320.324 507.922 320.508C507.703 320.687 507.436 320.834 507.119 320.947C506.807 321.061 506.443 321.117 506.029 321.117ZM512.258 319.992C512.488 319.992 512.695 319.947 512.879 319.857C513.066 319.764 513.217 319.635 513.33 319.471C513.447 319.307 513.512 319.117 513.523 318.902H514.854C514.846 319.312 514.725 319.686 514.49 320.021C514.256 320.357 513.945 320.625 513.559 320.824C513.172 321.02 512.744 321.117 512.275 321.117C511.791 321.117 511.369 321.035 511.01 320.871C510.65 320.703 510.352 320.473 510.113 320.18C509.875 319.887 509.695 319.549 509.574 319.166C509.457 318.783 509.398 318.373 509.398 317.936V317.73C509.398 317.293 509.457 316.883 509.574 316.5C509.695 316.113 509.875 315.773 510.113 315.48C510.352 315.187 510.65 314.959 511.01 314.795C511.369 314.627 511.789 314.543 512.27 314.543C512.777 314.543 513.223 314.645 513.605 314.848C513.988 315.047 514.289 315.326 514.508 315.686C514.73 316.041 514.846 316.455 514.854 316.928H513.523C513.512 316.693 513.453 316.482 513.348 316.295C513.246 316.104 513.102 315.951 512.914 315.838C512.73 315.725 512.51 315.668 512.252 315.668C511.967 315.668 511.73 315.727 511.543 315.844C511.355 315.957 511.209 316.113 511.104 316.312C510.998 316.508 510.922 316.729 510.875 316.975C510.832 317.217 510.811 317.469 510.811 317.73V317.936C510.811 318.197 510.832 318.451 510.875 318.697C510.918 318.943 510.992 319.164 511.098 319.359C511.207 319.551 511.355 319.705 511.543 319.822C511.73 319.936 511.969 319.992 512.258 319.992ZM517.361 312V321H515.943V312H517.361ZM521.299 314.66L518.539 317.719L517.027 319.266L516.658 318.07L517.801 316.658L519.594 314.66H521.299ZM519.898 321L517.842 318.023L518.732 317.033L521.533 321H519.898ZM526.584 316.014V321H525.172V314.66H526.502L526.584 316.014ZM526.332 317.596L525.875 317.59C525.879 317.141 525.941 316.729 526.062 316.354C526.188 315.979 526.359 315.656 526.578 315.387C526.801 315.117 527.066 314.91 527.375 314.766C527.684 314.617 528.027 314.543 528.406 314.543C528.711 314.543 528.986 314.586 529.232 314.672C529.482 314.754 529.695 314.889 529.871 315.076C530.051 315.264 530.188 315.508 530.281 315.809C530.375 316.105 530.422 316.471 530.422 316.904V321H529.004V316.898C529.004 316.594 528.959 316.354 528.869 316.178C528.783 315.998 528.656 315.871 528.488 315.797C528.324 315.719 528.119 315.68 527.873 315.68C527.631 315.68 527.414 315.73 527.223 315.832C527.031 315.934 526.869 316.072 526.736 316.248C526.607 316.424 526.508 316.627 526.438 316.857C526.367 317.088 526.332 317.334 526.332 317.596ZM531.594 317.9V317.766C531.594 317.309 531.66 316.885 531.793 316.494C531.926 316.1 532.117 315.758 532.367 315.469C532.621 315.176 532.93 314.949 533.293 314.789C533.66 314.625 534.074 314.543 534.535 314.543C535 314.543 535.414 314.625 535.777 314.789C536.145 314.949 536.455 315.176 536.709 315.469C536.963 315.758 537.156 316.1 537.289 316.494C537.422 316.885 537.488 317.309 537.488 317.766V317.9C537.488 318.357 537.422 318.781 537.289 319.172C537.156 319.562 536.963 319.904 536.709 320.197C536.455 320.486 536.146 320.713 535.783 320.877C535.42 321.037 535.008 321.117 534.547 321.117C534.082 321.117 533.666 321.037 533.299 320.877C532.936 320.713 532.627 320.486 532.373 320.197C532.119 319.904 531.926 319.562 531.793 319.172C531.66 318.781 531.594 318.357 531.594 317.9ZM533.006 317.766V317.9C533.006 318.186 533.035 318.455 533.094 318.709C533.152 318.963 533.244 319.186 533.369 319.377C533.494 319.568 533.654 319.719 533.85 319.828C534.045 319.937 534.277 319.992 534.547 319.992C534.809 319.992 535.035 319.937 535.227 319.828C535.422 319.719 535.582 319.568 535.707 319.377C535.832 319.186 535.924 318.963 535.982 318.709C536.045 318.455 536.076 318.186 536.076 317.9V317.766C536.076 317.484 536.045 317.219 535.982 316.969C535.924 316.715 535.83 316.49 535.701 316.295C535.576 316.1 535.416 315.947 535.221 315.838C535.029 315.725 534.801 315.668 534.535 315.668C534.27 315.668 534.039 315.725 533.844 315.838C533.652 315.947 533.494 316.1 533.369 316.295C533.244 316.49 533.152 316.715 533.094 316.969C533.035 317.219 533.006 317.484 533.006 317.766ZM540.395 319.594L541.859 314.66H542.762L542.516 316.137L541.039 321H540.23L540.395 319.594ZM539.533 314.66L540.676 319.617L540.77 321H539.867L538.15 314.66H539.533ZM544.133 319.559L545.24 314.66H546.617L544.906 321H544.004L544.133 319.559ZM542.914 314.66L544.361 319.535L544.543 321H543.734L542.24 316.131L541.994 314.66H542.914Z" fill="black"/>
<path d="M955.83 375.999C955.706 375.973 955.6 375.958 955.538 375.95C955.3 375.919 954.989 375.895 954.648 375.875C953.945 375.835 952.916 375.799 951.615 375.767C949.003 375.703 945.209 375.652 940.538 375.611C931.192 375.53 918.292 375.488 904.222 375.46C896.63 375.445 888.698 375.434 880.797 375.423C859.401 375.393 838.238 375.364 824.704 375.255L824.696 375.255H824.688C818.254 375.255 813.003 369.974 813.003 363.411V351.801C813.003 345.238 818.254 339.956 824.688 339.956H847.35C859.119 339.956 868.623 330.307 868.623 318.454C868.623 306.606 859.119 296.956 847.35 296.956H824.688C818.254 296.956 813.003 291.675 813.003 285.108V272.356C813.296 266.01 818.459 261.053 824.686 261.061H824.688H847.918C851.944 261.133 855.596 258.713 857.137 254.975C858.679 251.242 857.816 246.937 854.947 244.104L816.407 204.67C816.407 204.669 816.406 204.669 816.406 204.669C814.224 202.427 813 199.402 813.003 196.24V196.238V175.398C813.003 172.251 814.24 169.238 816.431 167.016C818.631 164.795 821.599 163.554 824.688 163.554H847.35C859.119 163.554 868.623 153.909 868.623 142.056C868.623 130.203 859.119 120.558 847.35 120.558H824.699C818.239 120.482 813.003 115.156 813.003 108.563V98.1426V98.121L813.003 98.0994C812.934 94.9085 814.14 91.8285 816.343 89.5524L955.83 375.999ZM955.83 375.999C1020.76 375.792 1077.46 331.407 1093.93 267.806C1094.78 264.255 1093.97 260.516 1091.74 257.657C1089.5 254.795 1086.09 253.147 1082.5 253.168L1082.49 253.168L1059.97 253.168C1054.32 253.168 1048.91 250.901 1044.92 246.864M955.83 375.999L1044.92 246.864M1044.92 246.864C1040.93 242.829 1038.7 237.362 1038.7 231.67V231.64L1038.7 231.61C1039.05 220.01 1048.45 210.756 1059.98 210.766M1044.92 246.864L1059.98 210.766M1059.98 210.766H1083.22H1083.23C1086.82 210.788 1090.23 209.14 1092.47 206.279M1059.98 210.766L1092.47 206.279C1092.47 206.279 1092.47 206.279 1092.47 206.279M1092.47 206.279C1094.71 203.42 1095.52 199.665 1094.67 196.112M1092.47 206.279L1094.67 196.112M1094.67 196.112C1078.92 131.503 1021.68 86.0904 955.94 86H824.688C821.554 86 818.546 87.2789 816.343 89.5518L1094.67 196.112Z" stroke="url(#paint1_linear_1227_26546)" stroke-width="4"/>
<defs>
<linearGradient id="paint0_linear_1227_26546" x1="0" y1="0" x2="268.783" y2="837.765" gradientUnits="userSpaceOnUse">
<stop stop-color="#487AE3"/>
<stop offset="1" stop-color="#475F96"/>
</linearGradient>
<linearGradient id="paint1_linear_1227_26546" x1="954" y1="84" x2="890.64" y2="256.835" gradientUnits="userSpaceOnUse">
<stop stop-color="#497FDB"/>
<stop offset="1" stop-color="white" stop-opacity="0"/>
</linearGradient>
</defs>
</svg>
