<svg width="106" height="84" viewBox="0 0 106 84" fill="none" xmlns="http://www.w3.org/2000/svg">
<rect x="42.7549" y="0.000488281" width="59.2131" height="59.2131" rx="5" transform="rotate(45 42.7549 0.000488281)" fill="#2673E5" fill-opacity="0.1"/>
<g clip-path="url(#clip0_1151_23861)">
<path d="M80.6142 63C84.9812 63 89.1694 61.3406 92.2573 58.3869C95.3453 55.4332 97.0801 51.4271 97.0801 47.25C97.0801 43.0728 95.3453 39.0667 92.2573 36.113C89.1694 33.1593 84.9812 31.5 80.6142 31.5C79.5828 26.9051 76.5655 22.8671 72.2261 20.2745C70.0775 18.9907 67.6689 18.1004 65.138 17.6543C62.607 17.2083 60.0032 17.2153 57.4753 17.6749C54.9473 18.1346 52.5447 19.0378 50.4047 20.3331C48.2646 21.6284 46.4289 23.2904 45.0025 25.2242C43.5761 27.158 42.5869 29.3257 42.0913 31.6035C41.5957 33.8814 41.6035 36.2248 42.1142 38.4999L38.6142 38.4999C35.3653 38.4999 32.2494 39.7906 29.9521 42.0879C27.6548 44.3852 26.3642 47.501 26.3642 50.7499C26.3642 53.9988 27.6548 57.1147 29.9521 59.412C32.2494 61.7093 35.3653 62.9999 38.6142 62.9999L42.1142 62.9999" stroke="#2673E5" stroke-width="4" stroke-linecap="round" stroke-linejoin="round"/>
<path d="M73.6152 52.5L63.1152 42L52.6152 52.5" stroke="#2673E5" stroke-width="4" stroke-linecap="round" stroke-linejoin="round"/>
<path d="M63.1152 42L63.1152 73.5" stroke="#2673E5" stroke-width="4" stroke-linecap="round" stroke-linejoin="round"/>
</g>
<defs>
<clipPath id="clip0_1151_23861">
<rect width="84" height="84" fill="white" transform="matrix(-1 -8.74228e-08 -8.74228e-08 1 105.115 0)"/>
</clipPath>
</defs>
</svg>
