<svg width="85" height="84" viewBox="0 0 85 84" fill="none" xmlns="http://www.w3.org/2000/svg">
<g clip-path="url(#clip0_1507_27320)">
<path d="M59.6142 63.0002C63.9812 63.0002 68.1694 61.3408 71.2573 58.3871C74.3453 55.4334 76.0801 51.4274 76.0801 47.2502C76.0801 43.073 74.3453 39.067 71.2573 36.1133C68.1694 33.1596 63.9812 31.5002 59.6142 31.5002C58.5828 26.9053 55.5655 22.8674 51.2261 20.2747C49.0775 18.9909 46.6689 18.1006 44.138 17.6546C41.607 17.2086 39.0032 17.2156 36.4753 17.6752C33.9473 18.1348 31.5447 19.0381 29.4047 20.3334C27.2646 21.6287 25.4289 23.2907 24.0025 25.2244C22.5761 27.1582 21.5869 29.3259 21.0913 31.6038C20.5957 33.8816 20.6035 36.225 21.1142 38.5002L17.6142 38.5002C14.3653 38.5002 11.2494 39.7908 8.9521 42.0881C6.65478 44.3855 5.36416 47.5013 5.36416 50.7502C5.36416 53.9991 6.65478 57.1149 8.9521 59.4123C11.2494 61.7096 14.3653 63.0002 17.6142 63.0002L21.1142 63.0002" stroke="#2673E5" stroke-width="4" stroke-linecap="round" stroke-linejoin="round"/>
<path d="M52.6152 52.5L42.1152 42L31.6152 52.5" stroke="#2673E5" stroke-width="4" stroke-linecap="round" stroke-linejoin="round"/>
<path d="M42.1152 42L42.1152 73.5" stroke="#2673E5" stroke-width="4" stroke-linecap="round" stroke-linejoin="round"/>
</g>
<defs>
<clipPath id="clip0_1507_27320">
<rect width="84" height="84" fill="white" transform="matrix(-1 -8.74228e-08 -8.74228e-08 1 84.1152 0)"/>
</clipPath>
</defs>
</svg>
