<svg width="116" height="84" viewBox="0 0 116 84" fill="none" xmlns="http://www.w3.org/2000/svg">
<rect x="42.5898" width="59.2131" height="59.2131" rx="5" transform="rotate(45 42.5898 0)" fill="#2673E5" fill-opacity="0.1"/>
<g clip-path="url(#clip0_1503_27140)">
<g clip-path="url(#clip1_1503_27140)">
<path d="M105.76 4H41.91C40.34 4 38.84 4.62 37.73 5.73C36.62 6.84 36 8.34 36 9.91V73.76C36 75.33 36.62 76.83 37.73 77.94C38.84 79.05 40.34 79.67 41.91 79.67H105.76C107.33 79.67 108.83 79.05 109.94 77.94C111.05 76.83 111.67 75.33 111.67 73.76V9.91C111.67 8.34 111.05 6.84 109.94 5.73C108.83 4.62 107.33 4 105.76 4V4ZM109.31 73.76C109.31 74.7 108.94 75.6 108.27 76.27C107.6 76.94 106.7 77.31 105.76 77.31H41.91C40.97 77.31 40.07 76.94 39.4 76.27C38.73 75.6 38.36 74.7 38.36 73.76V9.91C38.36 8.97 38.73 8.07 39.4 7.4C40.07 6.73 40.97 6.36 41.91 6.36H105.76C106.7 6.36 107.6 6.73 108.27 7.4C108.94 8.07 109.31 8.97 109.31 9.91V73.76Z" fill="#2673E5" stroke="#2673E5" stroke-width="0.7"/>
<path d="M50.1899 9.90997H44.2799C43.6499 9.90997 43.0499 10.16 42.6099 10.6C42.1699 11.04 41.9199 11.65 41.9199 12.27V17H44.2799V12.27H50.1899V9.90997Z" fill="#2673E5" stroke="#2673E5" stroke-width="0.7"/>
<path d="M41.9102 19.37H44.2702V21.73H41.9102V19.37Z" fill="#2673E5" stroke="#2673E5" stroke-width="0.7"/>
<path d="M98.6701 15.82H49.0101C48.3601 15.82 47.8301 16.35 47.8301 17V31.19C47.8301 31.5 47.9501 31.8 48.1801 32.03C48.4101 32.26 48.7001 32.38 49.0201 32.38H98.6701C98.9801 32.38 99.2801 32.26 99.5101 32.03C99.7401 31.8 99.8601 31.51 99.8601 31.19V17.01C99.8601 16.7 99.7401 16.4 99.5101 16.17C99.2801 15.94 98.9901 15.82 98.6701 15.82ZM97.4901 30.01H50.1901V18.19H97.4901V30.01Z" fill="#2673E5" stroke="#2673E5" stroke-width="0.7"/>
<path d="M69.1101 56.03V37.11C69.1101 36.8 68.9901 36.5 68.7601 36.27C68.5301 36.04 68.2401 35.92 67.9201 35.92H49.0101C48.3601 35.92 47.8301 36.45 47.8301 37.1V56.02C47.8301 56.33 47.9501 56.63 48.1801 56.86C48.4101 57.09 48.7001 57.21 49.0201 57.21H67.9301C68.2401 57.21 68.5401 57.09 68.7701 56.86C69.0001 56.63 69.1201 56.34 69.1201 56.02L69.1101 56.03ZM50.1901 54.85V39.96L65.0801 54.85H50.1901ZM66.7401 53.18L51.8501 38.29H66.7401V53.18Z" fill="#2673E5" stroke="#2673E5" stroke-width="0.7"/>
<path d="M98.6705 35.93H72.6605C72.0105 35.93 71.4805 36.46 71.4805 37.11V44.2C71.4805 44.51 71.6005 44.81 71.8305 45.04C72.0605 45.27 72.3505 45.39 72.6705 45.39H98.6805C98.9905 45.39 99.2905 45.27 99.5205 45.04C99.7505 44.81 99.8705 44.52 99.8705 44.2V37.11C99.8705 36.8 99.7505 36.5 99.5205 36.27C99.2905 36.04 99.0005 35.92 98.6805 35.92L98.6705 35.93ZM97.4905 43.02H73.8405V38.29H97.4905V43.02Z" fill="#2673E5" stroke="#2673E5" stroke-width="0.7"/>
<path d="M71.4707 48.93H99.8507V51.29H71.4707V48.93Z" fill="#2673E5" stroke="#2673E5" stroke-width="0.7"/>
<path d="M71.4707 54.84H99.8507V57.2H71.4707V54.84Z" fill="#2673E5" stroke="#2673E5" stroke-width="0.7"/>
<path d="M57.2793 60.76H99.8493V63.12H57.2793V60.76Z" fill="#2673E5" stroke="#2673E5" stroke-width="0.7"/>
<path d="M47.8203 66.67H90.3903V69.03H47.8203V66.67Z" fill="#2673E5" stroke="#2673E5" stroke-width="0.7"/>
<path d="M47.8203 60.76H50.1803V63.12H47.8203V60.76Z" fill="#2673E5" stroke="#2673E5" stroke-width="0.7"/>
<path d="M52.5508 60.76H54.9108V63.12H52.5508V60.76Z" fill="#2673E5" stroke="#2673E5" stroke-width="0.7"/>
</g>
</g>
<defs>
<clipPath id="clip0_1503_27140">
<rect width="83" height="84" fill="white" transform="matrix(-1 0 0 1 115.279 0)"/>
</clipPath>
<clipPath id="clip1_1503_27140">
<rect width="75.67" height="75.67" fill="white" transform="translate(36 4)"/>
</clipPath>
</defs>
</svg>
