<svg width="85" height="84" viewBox="0 0 85 84" fill="none" xmlns="http://www.w3.org/2000/svg">
<g clip-path="url(#clip0_1507_27254)">
<path d="M66.6152 21C66.6152 26.799 61.9142 31.5 56.1152 31.5C50.3162 31.5 45.6152 26.799 45.6152 21C45.6152 15.201 50.3162 10.5 56.1152 10.5C61.9142 10.5 66.6152 15.201 66.6152 21Z" stroke="#2673E5" stroke-width="4" stroke-linecap="round" stroke-linejoin="round"/>
<path d="M73.6152 55.9995C73.6152 59.8655 70.4812 62.9995 66.6152 62.9995C62.7492 62.9995 59.6152 59.8655 59.6152 55.9995C59.6152 52.1335 62.7492 48.9995 66.6152 48.9995C70.4812 48.9995 73.6152 52.1335 73.6152 55.9995Z" stroke="#2673E5" stroke-width="4" stroke-linecap="round" stroke-linejoin="round"/>
<path d="M42.1152 50.7505C42.1152 59.449 35.0637 66.5005 26.3652 66.5005C17.6667 66.5005 10.6152 59.449 10.6152 50.7505C10.6152 42.052 17.6667 35.0005 26.3652 35.0005C35.0637 35.0005 42.1152 42.052 42.1152 50.7505Z" stroke="#2673E5" stroke-width="4" stroke-linecap="round" stroke-linejoin="round"/>
</g>
<defs>
<clipPath id="clip0_1507_27254">
<rect width="84" height="84" fill="white" transform="matrix(-4.37114e-08 1 1 4.37114e-08 0.115234 0)"/>
</clipPath>
</defs>
</svg>
