<svg width="32" height="32" viewBox="0 0 32 32" fill="none" xmlns="http://www.w3.org/2000/svg">
<path d="M13.7037 27.5454H8.6924C8.15003 27.5454 7.70898 27.1282 7.70898 26.6133V5.71699C7.70898 5.20203 8.14884 4.78482 8.6924 4.78482H13.7037C20.3255 4.78482 25.7122 9.89028 25.7122 16.1651C25.7122 22.44 20.3255 27.5454 13.7037 27.5454ZM9.67583 25.6823H13.7037C19.2407 25.6823 23.7454 21.4124 23.7454 16.1651C23.7454 10.9178 19.2419 6.64796 13.7037 6.64796H9.67583V25.6823Z" fill="black"/>
<path d="M26.0269 15.1459H22.998V18.1749H26.0269V15.1459Z" fill="black"/>
<path d="M26.0275 18.734H22.9986C22.6898 18.734 22.4395 18.4836 22.4395 18.1749V15.1459C22.4395 14.8372 22.6898 14.5869 22.9986 14.5869H26.0275C26.3362 14.5869 26.5866 14.8372 26.5866 15.1459V18.1749C26.5866 18.4836 26.3362 18.734 26.0275 18.734ZM23.5576 17.6158H25.4684V15.705H23.5576V17.6158Z" fill="black"/>
<path d="M24.7305 29.0641C24.5243 29.0641 24.3574 28.8972 24.3574 28.6909V3.3341C24.3574 3.12788 24.5243 2.961 24.7305 2.961C24.9367 2.961 25.1036 3.12788 25.1036 3.3341V28.6909C25.1036 28.8972 24.9367 29.0641 24.7305 29.0641Z" fill="black"/>
<path d="M24.7304 32C23.6635 32 22.7969 31.1322 22.7969 30.0665C22.7969 29.0008 23.6647 28.133 24.7304 28.133C25.7961 28.133 26.6639 29.0008 26.6639 30.0665C26.6639 31.1322 25.7961 32 24.7304 32ZM24.7304 29.25C24.281 29.25 23.9151 29.6159 23.9151 30.0653C23.9151 30.5147 24.281 30.8807 24.7304 30.8807C25.1798 30.8807 25.5458 30.5147 25.5458 30.0653C25.5458 29.6159 25.1798 29.25 24.7304 29.25Z" fill="black"/>
<path d="M26.1043 30.0656C26.1043 30.8249 25.4893 31.44 24.7299 31.44C23.9706 31.44 23.3555 30.8249 23.3555 30.0656C23.3555 29.3063 23.9706 28.6912 24.7299 28.6912C25.4893 28.6912 26.1043 29.3063 26.1043 30.0656Z" fill="white"/>
<path d="M8.29997 5.91248H5.81101C5.50228 5.91248 5.25195 5.66216 5.25195 5.35342V2.86566C5.25195 2.55692 5.50228 2.30659 5.81101 2.30659H8.29997C8.6087 2.30659 8.85903 2.55692 8.85903 2.86566V5.35461C8.85903 5.66335 8.6087 5.91367 8.29997 5.91367V5.91248ZM6.01366 5.15078H8.09732V3.06711H6.01366V5.15078Z" fill="black"/>
<path d="M8.29997 29.9914H5.81101C5.50228 29.9914 5.25195 29.7411 5.25195 29.4324V26.9434C5.25195 26.6347 5.50228 26.3844 5.81101 26.3844H8.29997C8.6087 26.3844 8.85903 26.6347 8.85903 26.9434V29.4324C8.85903 29.7411 8.6087 29.9914 8.29997 29.9914ZM6.01366 29.2297H8.09732V27.1461H6.01366V29.2297Z" fill="black"/>
<path d="M13.9431 5.71696H9.63867V26.6144H13.9431V5.71696Z" fill="black"/>
<path d="M24.7304 3.86813C23.6635 3.86813 22.7969 3.00034 22.7969 1.93466C22.7969 0.868989 23.6635 0 24.7304 0C25.7973 0 26.6639 0.867797 26.6639 1.93347C26.6639 2.99915 25.7961 3.86694 24.7304 3.86694V3.86813ZM24.7304 1.11812C24.281 1.11812 23.9151 1.48408 23.9151 1.93347C23.9151 2.38287 24.281 2.74882 24.7304 2.74882C25.1798 2.74882 25.5458 2.38287 25.5458 1.93347C25.5458 1.48408 25.1798 1.11812 24.7304 1.11812Z" fill="black"/>
<path d="M26.1043 1.93345C26.1043 2.69277 25.4893 3.30786 24.7299 3.30786C23.9706 3.30786 23.3555 2.69277 23.3555 1.93345C23.3555 1.17412 23.9706 0.559036 24.7299 0.559036C25.4893 0.559036 26.1043 1.17412 26.1043 1.93345Z" fill="white"/>
</svg>
