<svg width="32" height="32" viewBox="0 0 32 32" fill="none" xmlns="http://www.w3.org/2000/svg">
<path d="M13.7037 27.5454H8.69241C8.15004 27.5454 7.70898 27.1282 7.70898 26.6133V5.71699C7.70898 5.20203 8.14884 4.78482 8.69241 4.78482H13.7037C20.3254 4.78482 25.7122 9.89028 25.7122 16.1651C25.7122 22.44 20.3254 27.5454 13.7037 27.5454ZM9.67583 25.6823H13.7037C19.2407 25.6823 23.7453 21.4124 23.7453 16.1651C23.7453 10.9178 19.2419 6.64796 13.7037 6.64796H9.67583V25.6823Z" fill="url(#paint0_linear_1025_24080)"/>
<path d="M26.028 15.1459H22.999V18.1749H26.028V15.1459Z" fill="url(#paint1_linear_1025_24080)"/>
<path d="M26.0275 18.734H22.9985C22.6898 18.734 22.4395 18.4836 22.4395 18.1749V15.1459C22.4395 14.8372 22.6898 14.5869 22.9985 14.5869H26.0275C26.3362 14.5869 26.5865 14.8372 26.5865 15.1459V18.1749C26.5865 18.4836 26.3362 18.734 26.0275 18.734ZM23.5576 17.6158H25.4684V15.705H23.5576V17.6158Z" fill="url(#paint2_linear_1025_24080)"/>
<path d="M24.7295 29.0641C24.5233 29.0641 24.3564 28.8972 24.3564 28.6909V3.3341C24.3564 3.12788 24.5233 2.961 24.7295 2.961C24.9358 2.961 25.1027 3.12788 25.1027 3.3341V28.6909C25.1027 28.8972 24.9358 29.0641 24.7295 29.0641Z" fill="url(#paint3_linear_1025_24080)"/>
<path d="M24.7294 32C23.6625 32 22.7959 31.1322 22.7959 30.0665C22.7959 29.0008 23.6637 28.133 24.7294 28.133C25.795 28.133 26.6628 29.0008 26.6628 30.0665C26.6628 31.1322 25.795 32 24.7294 32ZM24.7294 29.25C24.28 29.25 23.914 29.6159 23.914 30.0653C23.914 30.5147 24.28 30.8807 24.7294 30.8807C25.1788 30.8807 25.5447 30.5147 25.5447 30.0653C25.5447 29.6159 25.1788 29.25 24.7294 29.25Z" fill="url(#paint4_linear_1025_24080)"/>
<path d="M26.1043 30.0656C26.1043 30.8249 25.4892 31.44 24.7299 31.44C23.9706 31.44 23.3555 30.8249 23.3555 30.0656C23.3555 29.3063 23.9706 28.6912 24.7299 28.6912C25.4892 28.6912 26.1043 29.3063 26.1043 30.0656Z" fill="white"/>
<path d="M8.29997 5.91248H5.81101C5.50228 5.91248 5.25195 5.66216 5.25195 5.35342V2.86566C5.25195 2.55692 5.50228 2.30659 5.81101 2.30659H8.29997C8.60871 2.30659 8.85903 2.55692 8.85903 2.86566V5.35461C8.85903 5.66335 8.60871 5.91367 8.29997 5.91367V5.91248ZM6.01366 5.15078H8.09733V3.06711H6.01366V5.15078Z" fill="url(#paint5_linear_1025_24080)"/>
<path d="M8.29997 29.9914H5.81101C5.50228 29.9914 5.25195 29.7411 5.25195 29.4324V26.9434C5.25195 26.6347 5.50228 26.3844 5.81101 26.3844H8.29997C8.60871 26.3844 8.85903 26.6347 8.85903 26.9434V29.4324C8.85903 29.7411 8.60871 29.9914 8.29997 29.9914ZM6.01366 29.2297H8.09733V27.1461H6.01366V29.2297Z" fill="url(#paint6_linear_1025_24080)"/>
<path d="M13.9431 5.71696H9.63867V26.6144H13.9431V5.71696Z" fill="url(#paint7_linear_1025_24080)"/>
<path d="M24.7294 3.86813C23.6625 3.86813 22.7959 3.00034 22.7959 1.93466C22.7959 0.868989 23.6625 0 24.7294 0C25.7962 0 26.6628 0.867797 26.6628 1.93347C26.6628 2.99915 25.795 3.86694 24.7294 3.86694V3.86813ZM24.7294 1.11812C24.28 1.11812 23.914 1.48408 23.914 1.93347C23.914 2.38287 24.28 2.74882 24.7294 2.74882C25.1788 2.74882 25.5447 2.38287 25.5447 1.93347C25.5447 1.48408 25.1788 1.11812 24.7294 1.11812Z" fill="url(#paint8_linear_1025_24080)"/>
<path d="M26.1043 1.93345C26.1043 2.69277 25.4892 3.30786 24.7299 3.30786C23.9706 3.30786 23.3555 2.69277 23.3555 1.93345C23.3555 1.17412 23.9706 0.559036 24.7299 0.559036C25.4892 0.559036 26.1043 1.17412 26.1043 1.93345Z" fill="white"/>
<defs>
<linearGradient id="paint0_linear_1025_24080" x1="7.70898" y1="4.78482" x2="29.8579" y2="22.3042" gradientUnits="userSpaceOnUse">
<stop stop-color="#487AE3"/>
<stop offset="1" stop-color="#475F96"/>
</linearGradient>
<linearGradient id="paint1_linear_1025_24080" x1="22.999" y1="15.1459" x2="26.028" y2="18.1748" gradientUnits="userSpaceOnUse">
<stop stop-color="#487AE3"/>
<stop offset="1" stop-color="#475F96"/>
</linearGradient>
<linearGradient id="paint2_linear_1025_24080" x1="22.4395" y1="14.5869" x2="26.5865" y2="18.734" gradientUnits="userSpaceOnUse">
<stop stop-color="#487AE3"/>
<stop offset="1" stop-color="#475F96"/>
</linearGradient>
<linearGradient id="paint3_linear_1025_24080" x1="24.3564" y1="2.961" x2="25.8476" y2="3.00363" gradientUnits="userSpaceOnUse">
<stop stop-color="#487AE3"/>
<stop offset="1" stop-color="#475F96"/>
</linearGradient>
<linearGradient id="paint4_linear_1025_24080" x1="22.7959" y1="28.133" x2="26.6628" y2="32" gradientUnits="userSpaceOnUse">
<stop stop-color="#487AE3"/>
<stop offset="1" stop-color="#475F96"/>
</linearGradient>
<linearGradient id="paint5_linear_1025_24080" x1="5.25195" y1="2.30659" x2="8.85903" y2="5.91367" gradientUnits="userSpaceOnUse">
<stop stop-color="#487AE3"/>
<stop offset="1" stop-color="#475F96"/>
</linearGradient>
<linearGradient id="paint6_linear_1025_24080" x1="5.25195" y1="26.3844" x2="8.85903" y2="29.9914" gradientUnits="userSpaceOnUse">
<stop stop-color="#487AE3"/>
<stop offset="1" stop-color="#475F96"/>
</linearGradient>
<linearGradient id="paint7_linear_1025_24080" x1="9.63867" y1="5.71696" x2="17.8971" y2="7.41802" gradientUnits="userSpaceOnUse">
<stop stop-color="#487AE3"/>
<stop offset="1" stop-color="#475F96"/>
</linearGradient>
<linearGradient id="paint8_linear_1025_24080" x1="22.7959" y1="0" x2="26.664" y2="3.86694" gradientUnits="userSpaceOnUse">
<stop stop-color="#487AE3"/>
<stop offset="1" stop-color="#475F96"/>
</linearGradient>
</defs>
</svg>
