<svg width="24" height="24" viewBox="0 0 24 24" fill="none" xmlns="http://www.w3.org/2000/svg">
<path d="M10.2776 20.659H6.51912C6.11234 20.659 5.78156 20.3461 5.78156 19.9598V4.28763C5.78156 3.90141 6.11145 3.5885 6.51912 3.5885H10.2776C15.2439 3.5885 19.284 7.4176 19.284 12.1237C19.284 16.8299 15.2439 20.659 10.2776 20.659ZM7.25669 19.2616H10.2776C14.4303 19.2616 17.8088 16.0592 17.8088 12.1237C17.8088 8.18824 14.4312 4.98586 10.2776 4.98586H7.25669V19.2616Z" fill="white"/>
<path d="M19.521 11.3595H17.2493V13.6312H19.521V11.3595Z" fill="white"/>
<path d="M19.521 14.0505H17.2493C17.0177 14.0505 16.83 13.8627 16.83 13.6312V11.3595C16.83 11.1279 17.0177 10.9402 17.2493 10.9402H19.521C19.7525 10.9402 19.9403 11.1279 19.9403 11.3595V13.6312C19.9403 13.8627 19.7525 14.0505 19.521 14.0505ZM17.6685 13.2119H19.1017V11.7788H17.6685V13.2119Z" fill="white"/>
<path d="M18.5472 21.798C18.3925 21.798 18.2673 21.6728 18.2673 21.5182V2.50053C18.2673 2.34587 18.3925 2.2207 18.5472 2.2207C18.7018 2.2207 18.827 2.34587 18.827 2.50053V21.5182C18.827 21.6728 18.7018 21.798 18.5472 21.798Z" fill="white"/>
<path d="M18.5472 24.0001C17.7471 24.0001 17.0971 23.3492 17.0971 22.55C17.0971 21.7507 17.748 21.0999 18.5472 21.0999C19.3465 21.0999 19.9973 21.7507 19.9973 22.55C19.9973 23.3492 19.3465 24.0001 18.5472 24.0001ZM18.5472 21.9376C18.2102 21.9376 17.9357 22.212 17.9357 22.5491C17.9357 22.8861 18.2102 23.1606 18.5472 23.1606C18.8843 23.1606 19.1587 22.8861 19.1587 22.5491C19.1587 22.212 18.8843 21.9376 18.5472 21.9376Z" fill="white"/>
<path d="M19.578 22.5492C19.578 23.1187 19.1167 23.58 18.5472 23.58C17.9777 23.58 17.5164 23.1187 17.5164 22.5492C17.5164 21.9797 17.9777 21.5184 18.5472 21.5184C19.1167 21.5184 19.578 21.9797 19.578 22.5492Z" fill="white"/>
<path d="M6.22498 4.4344H4.35826C4.12671 4.4344 3.93896 4.24665 3.93896 4.0151V2.14928C3.93896 1.91773 4.12671 1.72998 4.35826 1.72998H6.22498C6.45653 1.72998 6.64428 1.91773 6.64428 2.14928V4.01599C6.64428 4.24755 6.45653 4.43529 6.22498 4.43529V4.4344ZM4.51024 3.86312H6.073V2.30037H4.51024V3.86312Z" fill="white"/>
<path d="M6.22498 22.4935H4.35826C4.12671 22.4935 3.93896 22.3058 3.93896 22.0742V20.2075C3.93896 19.976 4.12671 19.7882 4.35826 19.7882H6.22498C6.45653 19.7882 6.64428 19.976 6.64428 20.2075V22.0742C6.64428 22.3058 6.45653 22.4935 6.22498 22.4935ZM4.51024 21.9222H6.073V20.3595H4.51024V21.9222Z" fill="white"/>
<path d="M10.4573 4.2876H7.229V19.9607H10.4573V4.2876Z" fill="white"/>
<path d="M18.5472 2.9011C17.7471 2.9011 17.0971 2.25025 17.0971 1.451C17.0971 0.651742 17.7471 0 18.5472 0C19.3474 0 19.9973 0.650848 19.9973 1.4501C19.9973 2.24936 19.3465 2.90021 18.5472 2.90021V2.9011ZM18.5472 0.838593C18.2102 0.838593 17.9357 1.11306 17.9357 1.4501C17.9357 1.78715 18.2102 2.06161 18.5472 2.06161C18.8843 2.06161 19.1587 1.78715 19.1587 1.4501C19.1587 1.11306 18.8843 0.838593 18.5472 0.838593Z" fill="white"/>
<path d="M19.578 1.45012C19.578 2.01961 19.1167 2.48093 18.5472 2.48093C17.9777 2.48093 17.5164 2.01961 17.5164 1.45012C17.5164 0.880627 17.9777 0.419312 18.5472 0.419312C19.1167 0.419312 19.578 0.880627 19.578 1.45012Z" fill="white"/>
</svg>
