<svg width="34" height="32" viewBox="0 0 34 32" fill="none" xmlns="http://www.w3.org/2000/svg">
<g clip-path="url(#clip0_1213_29333)">
<path d="M26.047 31.8076C25.7632 31.8076 25.4506 31.6425 25.3384 31.5768L25.2983 28.7279L25.2951 28.7166C25.2662 28.6028 25.1925 28.5066 25.0899 28.4425L25.0818 28.4377L25.0738 28.4345C24.9792 28.3992 24.8814 28.38 24.782 28.38C24.7532 28.38 24.7243 28.38 24.6955 28.3848H21.978C21.7792 28.3848 21.4442 28.3479 21.3303 28.2485C21.2197 28.1539 21.1796 27.8509 21.1796 27.6842L21.1428 25.1078H22.6241V26.3054C22.6065 26.4609 22.6626 26.6261 22.778 26.7495C22.9111 26.8521 23.1083 26.8729 23.251 26.8729C23.3039 26.8729 23.3408 26.8697 23.3408 26.8697H25.9748C25.9877 26.8697 26.039 26.8633 26.1111 26.8633C26.3083 26.8633 26.4622 26.9002 26.5456 26.9659C26.7075 27.0958 26.6931 27.4196 26.6931 27.4228L26.7155 31.5784C26.5199 31.7066 26.2955 31.7836 26.0598 31.8044H26.0454L26.047 31.8076ZM17.4987 31.7836C17.1476 31.7836 16.766 31.5271 16.649 31.4421V25.1431L18.2554 25.1559H18.2939V31.4453C18.1897 31.5303 17.8482 31.7836 17.4987 31.7836ZM9.3832 31.6521C9.15555 31.6329 8.9295 31.5559 8.73231 31.4277L8.75475 27.2786C8.74994 27.1824 8.76758 26.9226 8.90225 26.8136C8.984 26.7479 9.13952 26.711 9.33992 26.711C9.41047 26.711 9.46016 26.7158 9.46176 26.7158H12.1151C12.1151 26.7158 12.152 26.719 12.2033 26.719C12.3444 26.719 12.5384 26.6998 12.6586 26.6068C12.7869 26.4721 12.843 26.307 12.8237 26.1403V25.1078L14.3019 25.1206L14.2666 27.5271C14.2666 27.697 14.2265 28 14.1159 28.0946C14.0021 28.194 13.667 28.2309 13.4698 28.2309H10.7412C10.7219 28.2277 10.6915 28.2261 10.661 28.2261C10.56 28.2261 10.4638 28.2437 10.3724 28.279L10.3644 28.2822L10.3564 28.287C10.2554 28.3479 10.1833 28.4457 10.1528 28.5611L10.1496 28.5723L10.1095 31.4228C9.99723 31.487 9.68462 31.6521 9.40244 31.6521H9.38H9.3832ZM1.75195 24.7343C1.62369 24.5387 1.54673 24.311 1.52589 24.077C1.51788 23.7916 1.68781 23.4693 1.75515 23.3555L4.60725 23.3154L4.61847 23.3122C4.73071 23.2818 4.83011 23.208 4.89103 23.1086L4.89583 23.1006L4.89904 23.0926C4.94392 22.9723 4.96156 22.8457 4.94873 22.7142V19.9952C4.94873 19.806 4.98401 19.4629 5.08341 19.3491C5.19243 19.224 5.53712 19.1968 5.64934 19.1968L7.79282 19.1647V20.6413H7.02649C7.01687 20.6397 6.99444 20.6381 6.97359 20.6381C6.8261 20.6381 6.68661 20.6942 6.58241 20.7968C6.43812 20.9844 6.46057 21.321 6.46377 21.3579V23.992C6.475 24.1106 6.4814 24.4216 6.36597 24.5627C6.27779 24.6717 6.0822 24.7118 5.9299 24.7118H5.90586L1.75195 24.7343ZM28.6313 24.7118H28.6025C28.4502 24.7118 28.2562 24.6733 28.168 24.5643C28.0526 24.4216 28.059 24.1106 28.0702 24.0032V21.3499C28.0734 21.3194 28.0959 20.9844 27.9612 20.8048C27.8458 20.6926 27.7063 20.6381 27.5604 20.6381C27.5396 20.6381 27.5187 20.6381 27.4979 20.6413H26.1079C26.1079 20.6413 26.0839 20.6381 26.0678 20.6381C26.0101 20.6381 25.954 20.6477 25.9011 20.6653V19.0878C25.9588 19.1166 26.0213 19.1375 26.0855 19.1519H26.0951L28.883 19.1952C29.053 19.1952 29.356 19.2369 29.4506 19.3459C29.5516 19.4613 29.5869 19.8044 29.5853 19.9936V22.7222C29.5724 22.8361 29.5885 22.9659 29.6334 23.0894L29.6366 23.099L29.6414 23.107C29.7023 23.208 29.8001 23.2802 29.9155 23.3106L29.9267 23.3138L32.7756 23.3539C32.843 23.4693 33.0129 23.7932 33.0049 24.0818C32.9841 24.311 32.9071 24.5371 32.7788 24.7327L28.6297 24.7102L28.6313 24.7118ZM1.48421 16.7519C1.40084 16.6477 1.14593 16.3062 1.14593 15.9583C1.14593 15.6104 1.40244 15.224 1.48741 15.107H7.79122V16.7519H1.48421ZM25.8995 16.5996V14.9547H32.4229C32.5079 15.0717 32.7644 15.4533 32.7644 15.8044C32.7644 16.1555 32.5111 16.4954 32.4261 16.5996H25.8995ZM5.11867 12.7471C4.99683 12.7471 4.65856 12.7198 4.55115 12.5964C4.45175 12.481 4.41647 12.1459 4.41647 11.9487V9.22164C4.4293 9.10301 4.41326 8.97154 4.36837 8.85291L4.36517 8.84489L4.36036 8.83687C4.29944 8.73747 4.20164 8.66373 4.08781 8.63166L4.07659 8.62846L1.22609 8.58998C1.15876 8.47455 0.98882 8.1491 0.998439 7.86052C1.01767 7.63287 1.09463 7.40681 1.22288 7.20962L5.37198 7.23206H5.40085C5.55314 7.23206 5.74873 7.27054 5.83692 7.37956C5.95075 7.52064 5.94593 7.83166 5.93471 7.94068V10.594C5.9315 10.6228 5.90745 10.9595 6.04212 11.1375C6.15916 11.2497 6.29864 11.3058 6.44614 11.3058C6.46537 11.3058 6.48461 11.3058 6.50546 11.3026H7.79282V12.7856L5.12029 12.7471H5.11867ZM25.8979 10.9964H27.0362C27.0458 10.998 27.0682 10.9996 27.0891 10.9996C27.2366 10.9996 27.376 10.9435 27.4802 10.8425C27.6245 10.6549 27.6021 10.3182 27.5989 10.2814V7.64729C27.5877 7.52866 27.5812 7.21764 27.6967 7.07655C27.8057 6.94028 28.0542 6.92906 28.1279 6.92906H28.1536L32.3091 6.90501C32.4374 7.1006 32.5143 7.32665 32.5352 7.56072C32.5432 7.84609 32.3732 8.16994 32.3059 8.28377L29.4554 8.32385L29.4442 8.32705C29.3303 8.35591 29.2325 8.42806 29.1716 8.53066L29.1668 8.53868L29.1636 8.54669C29.1187 8.66693 29.1011 8.79359 29.1139 8.92505V11.6441C29.1139 11.8333 29.0786 12.1764 28.9776 12.2918C28.8831 12.4008 28.5881 12.4409 28.4133 12.4409L25.8963 12.4778V10.998L25.8979 10.9964ZM19.8073 7.46934C19.8554 7.38918 19.8907 7.30421 19.9131 7.21443L19.9163 7.20321L19.9548 4.41202C19.9548 4.29018 19.982 3.9519 20.1055 3.84449C20.2209 3.74509 20.556 3.70982 20.7532 3.70982H23.4818C23.5011 3.71303 23.5315 3.71463 23.562 3.71463C23.6614 3.71463 23.7592 3.69699 23.8506 3.66172L23.8586 3.65852L23.8666 3.65371C23.966 3.59279 24.0398 3.49339 24.0702 3.38116L24.0734 3.36994L24.1135 0.517834C24.2257 0.452102 24.5384 0.288575 24.8221 0.288575H24.8414C25.0722 0.309417 25.2983 0.386371 25.4923 0.513024L25.4682 4.66212C25.473 4.75992 25.457 5.01964 25.3223 5.12705C25.2406 5.19439 25.0867 5.22966 24.8879 5.22966C24.8141 5.22966 24.7644 5.22485 24.7612 5.22485H22.1095C22.1095 5.22485 22.0742 5.22164 22.0245 5.22164C21.8818 5.22164 21.6863 5.24088 21.5644 5.33226C21.4362 5.46533 21.38 5.63046 21.3993 5.7988V7.18878C21.3897 7.28176 21.4105 7.38116 21.457 7.46613H19.8073V7.46934ZM15.4963 7.46934V0.535469C15.6133 0.450499 15.9949 0.192383 16.346 0.192383C16.6971 0.192383 17.037 0.447293 17.1412 0.532262V7.46774H15.4963V7.46934ZM11.5957 7.46934C11.6037 7.42605 11.6053 7.38116 11.6005 7.33948V5.94629C11.6197 5.78918 11.5636 5.62244 11.4466 5.5022C11.3151 5.4012 11.1211 5.38196 10.98 5.38196C10.9223 5.38196 10.8855 5.38517 10.8855 5.38517H8.25135C8.23852 5.38517 8.19042 5.38998 8.11988 5.38998C7.91949 5.38998 7.76397 5.35311 7.6806 5.28577C7.54433 5.17675 7.5267 4.91864 7.53151 4.82725L7.50906 0.671741C7.70625 0.543485 7.93071 0.464928 8.16478 0.445689H8.17919C8.46297 0.445689 8.77719 0.61082 8.88942 0.676551L8.9295 3.52545L8.93271 3.53667C8.96157 3.6505 9.03531 3.7483 9.13631 3.81082L9.14432 3.81563L9.15234 3.81884C9.24693 3.85411 9.34473 3.87335 9.44573 3.87335C9.47459 3.87335 9.50344 3.87335 9.5339 3.86854H12.2498C12.4486 3.86854 12.7837 3.90541 12.8975 4.00481C13.0209 4.11222 13.0482 4.4489 13.0482 4.56914C13.0321 6.06172 13.0578 7.18397 13.0899 7.36673C13.0963 7.402 13.1043 7.43727 13.1155 7.47094H11.6005L11.5957 7.46934Z" fill="black"/>
<path d="M16.3474 0.288576C16.6344 0.288576 16.9229 0.482564 17.0464 0.578756V7.37154H15.5939V0.583566C15.7574 0.469738 16.0748 0.288576 16.3474 0.288576ZM24.8219 0.386372H24.8348C25.0352 0.40561 25.2275 0.466532 25.3975 0.567534L25.3734 4.66373V4.67495C25.3782 4.76633 25.3574 4.97796 25.2612 5.05491C25.1987 5.10621 25.0592 5.13667 24.8893 5.13667C24.8203 5.13667 24.7738 5.13186 24.7738 5.13186H24.7642H24.753H22.1173C22.1029 5.13186 22.0708 5.12866 22.0275 5.12866C21.7983 5.12866 21.6235 5.17194 21.5097 5.25852L21.4969 5.26814L21.4857 5.27936C21.3526 5.41884 21.2869 5.60962 21.3045 5.8004V7.18397C21.2997 7.2481 21.3045 7.31222 21.3205 7.37475H19.9642C19.9819 7.33146 19.9963 7.28657 20.0075 7.24008L20.0123 7.21764V7.19519L20.0524 4.41363C20.0524 4.22445 20.1005 3.98076 20.1694 3.91984C20.2496 3.8509 20.535 3.80762 20.7546 3.80762H23.472C23.5025 3.81082 23.5314 3.81242 23.5618 3.81242C23.6724 3.81242 23.7815 3.79319 23.8857 3.75311L23.9017 3.74669L23.9177 3.73707C24.038 3.66333 24.1277 3.54309 24.1646 3.40681L24.171 3.38437V3.36032L24.2111 0.57555C24.3554 0.496993 24.6087 0.386372 24.8235 0.386372M8.18062 0.538676C8.40988 0.538676 8.66479 0.658917 8.79465 0.729458L8.83313 3.51263V3.53507L8.83954 3.55751C8.87481 3.69699 8.96299 3.81403 9.08643 3.88938L9.10086 3.899L9.1169 3.90541C9.22271 3.94549 9.33173 3.96633 9.44395 3.96633C9.47281 3.96633 9.50166 3.96633 9.53052 3.96152H12.2496C12.4676 3.96152 12.753 4.00481 12.8332 4.07375C12.9037 4.13467 12.9502 4.37675 12.9502 4.56433C12.9358 5.88697 12.955 7.13587 12.9919 7.37154H11.7013C11.7013 7.36032 11.7013 7.3491 11.6997 7.33788V5.95431C11.7173 5.76192 11.6516 5.57275 11.5169 5.43327L11.5073 5.42365L11.4961 5.41563C11.3823 5.32906 11.2091 5.28417 10.9815 5.28417C10.9366 5.28417 10.9029 5.28577 10.8869 5.28737H8.24155H8.23193C8.23193 5.28737 8.18543 5.29218 8.1197 5.29218C7.94656 5.29218 7.80547 5.26172 7.74134 5.20882C7.64676 5.13347 7.62431 4.92184 7.62912 4.83206V4.82565V4.81924L7.60668 0.723045C7.77662 0.62044 7.969 0.557915 8.1678 0.54028H8.18062M32.2576 6.9996C32.3602 7.16954 32.4227 7.36192 32.4404 7.56072C32.4452 7.79319 32.3217 8.05451 32.2512 8.18597L29.4664 8.22445H29.444L29.4215 8.23086C29.2821 8.26613 29.165 8.35431 29.0897 8.47776L29.0801 8.49379L29.0736 8.50982C29.0239 8.64128 29.0047 8.77916 29.0175 8.92184V11.6425C29.0175 11.8621 28.9742 12.1475 28.9053 12.2261C28.846 12.295 28.6039 12.3415 28.4099 12.3415L25.9923 12.3768V11.091H27.0247C27.0456 11.0926 27.0664 11.0942 27.0873 11.0942C27.2604 11.0942 27.4223 11.0285 27.5458 10.9098L27.5554 10.9002L27.5634 10.889C27.7125 10.695 27.6997 10.3631 27.6933 10.2798V7.63447V7.62485C27.6772 7.48056 27.6917 7.23206 27.7702 7.13427C27.836 7.05251 28.0027 7.02365 28.1261 7.02365C28.1374 7.02365 28.1454 7.02365 28.147 7.02365H28.1534H28.1598L32.256 6.9996M1.27241 7.30742L5.3686 7.32986H5.37501H5.37982C5.38143 7.32986 5.38784 7.32986 5.39906 7.32986C5.53373 7.32986 5.69726 7.36513 5.75978 7.44048C5.83834 7.53828 5.85117 7.78677 5.83674 7.93106V7.94068V7.9503V10.586C5.83032 10.6709 5.81589 11.0012 5.96499 11.1952L5.97461 11.2064L5.98583 11.216C6.10928 11.3347 6.27281 11.3988 6.44595 11.3988C6.46519 11.3988 6.48443 11.3988 6.50367 11.3956H7.69646V12.683L5.1185 12.6445C4.92932 12.6445 4.68563 12.5964 4.62471 12.5275C4.55577 12.4473 4.51249 12.1619 4.51249 11.9423V9.22645C4.52692 9.08537 4.50768 8.94269 4.45798 8.81283L4.45157 8.79679L4.44195 8.78236C4.3682 8.66052 4.25116 8.57234 4.11169 8.53547L4.08764 8.52906H4.06359L1.28042 8.49058C1.20828 8.35752 1.08644 8.09619 1.09125 7.86373C1.10888 7.66653 1.1698 7.47415 1.27241 7.30261M32.3714 15.0461C32.4853 15.2096 32.6648 15.5271 32.6648 15.7996C32.6648 16.0866 32.4708 16.3751 32.3762 16.4986H25.9923V15.0461H32.3698M7.69165 15.1984V16.6509H1.53052C1.43593 16.5259 1.24195 16.2389 1.24195 15.9535C1.24195 15.6681 1.43914 15.3395 1.53694 15.1984H7.69485M25.9955 19.2257C26.0179 19.2321 26.0404 19.2385 26.0628 19.2433L26.0821 19.2481H26.1013L28.8813 19.2882C29.0672 19.2882 29.3157 19.3379 29.375 19.4068C29.4424 19.4838 29.4873 19.7707 29.4873 19.9904V22.7078C29.4744 22.8441 29.4921 22.9852 29.5402 23.1182L29.5466 23.1359L29.5562 23.1519C29.6316 23.2753 29.7486 23.3619 29.8897 23.3988L29.9121 23.4052H29.9346L32.7177 23.4453C32.7899 23.5768 32.9133 23.8381 32.9085 24.0689C32.8909 24.2677 32.8267 24.4617 32.7257 24.6317L28.6296 24.6092H28.6231H28.6183C28.6167 24.6092 28.6103 24.6092 28.6007 24.6092C28.466 24.6092 28.3041 24.5739 28.24 24.4954C28.1614 24.3992 28.1486 24.1507 28.163 24.0064V23.9952V23.984V21.3483C28.1694 21.2649 28.1823 20.9347 28.0332 20.7391L28.0235 20.7263L28.0123 20.715C27.8889 20.598 27.7269 20.5323 27.5554 20.5323C27.5346 20.5323 27.5137 20.5323 27.4929 20.5355H26.1093C26.0933 20.5355 26.0772 20.5339 26.0596 20.5339C26.0356 20.5339 26.0131 20.5339 25.9907 20.5387V19.2208M7.69004 19.2545V20.5371H7.02952C7.00868 20.5355 6.98784 20.5339 6.967 20.5339C6.79385 20.5339 6.63193 20.5996 6.50848 20.7182L6.49886 20.7279L6.49084 20.7391C6.34175 20.9331 6.35457 21.2649 6.36098 21.3483V24.0048C6.37381 24.1138 6.3706 24.388 6.28403 24.4954C6.22151 24.5723 6.05798 24.6076 5.92331 24.6076C5.91369 24.6076 5.90728 24.6076 5.90567 24.6076H5.89926H5.89285L1.79826 24.6301C1.69565 24.4585 1.63313 24.2661 1.61549 24.0673C1.61068 23.8365 1.73413 23.5751 1.80467 23.4421L4.58944 23.4036H4.61349L4.63593 23.3972C4.77221 23.3619 4.89245 23.2705 4.9662 23.1503L4.97581 23.1343L4.98223 23.1182C5.03193 22.9868 5.05116 22.8489 5.03834 22.7062V19.9856C5.03834 19.7659 5.08163 19.4806 5.14896 19.4036C5.21149 19.3331 5.45517 19.285 5.64595 19.2834L7.69004 19.2529M22.5229 25.196V26.2878C22.5053 26.4786 22.571 26.6677 22.7041 26.8072L22.7137 26.8184L22.7249 26.8281C22.8404 26.9162 23.0151 26.9611 23.246 26.9611C23.2877 26.9611 23.3197 26.9595 23.3342 26.9579H25.9795H25.9891C25.9891 26.9579 26.0372 26.9531 26.1045 26.9531C26.2744 26.9531 26.4155 26.9836 26.478 27.0349C26.5726 27.1102 26.5935 27.3218 26.5887 27.4116V27.418V27.4244L26.6111 31.5206C26.4412 31.6216 26.2504 31.6842 26.05 31.7034H26.0372C25.8079 31.7034 25.5546 31.5832 25.4247 31.5126L25.3863 28.7295V28.707L25.3799 28.6846C25.3446 28.5467 25.2564 28.4297 25.1314 28.3527L25.1169 28.3431L25.1009 28.3367C24.9951 28.2966 24.8861 28.2758 24.7754 28.2758C24.7466 28.2758 24.7177 28.2757 24.6889 28.2806H21.9682C21.7502 28.2806 21.4648 28.2373 21.3847 28.1683C21.3141 28.1074 21.2676 27.8653 21.2676 27.6729L21.2308 25.196H22.5181M12.9133 25.1976L14.1975 25.2088L14.1638 27.5222C14.1638 27.7082 14.1157 27.9567 14.0452 28.016C13.9666 28.085 13.6813 28.1283 13.4616 28.1283H10.7458C10.7153 28.125 10.6849 28.1234 10.656 28.1234C10.5438 28.1234 10.4348 28.1427 10.3322 28.1828L10.3161 28.1892L10.3017 28.1988C10.1782 28.2741 10.0917 28.3912 10.0548 28.5323L10.0484 28.5547V28.5772L10.0083 31.3603C9.87842 31.4309 9.62511 31.5495 9.39746 31.5495H9.38143C9.18423 31.5319 8.99185 31.4693 8.8203 31.3683L8.84275 27.2721V27.2657V27.2609C8.83794 27.1695 8.86038 26.9579 8.95337 26.881C9.0175 26.8297 9.15858 26.7992 9.33173 26.7992C9.39746 26.7992 9.44395 26.804 9.44395 26.804H9.45357H9.46319H12.1005C12.1165 26.804 12.1502 26.8072 12.1951 26.8072C12.4227 26.8072 12.5959 26.7623 12.7097 26.6757L12.7225 26.6661L12.7338 26.6549C12.8668 26.5138 12.931 26.3246 12.9133 26.1339V25.1976ZM16.7354 25.2297L18.1879 25.2409V31.3876C18.0628 31.4822 17.7758 31.6762 17.4889 31.6762C17.2019 31.6762 16.8764 31.479 16.7354 31.3812V25.2281M16.3474 0.0961914C15.8873 0.0961914 15.4015 0.487374 15.4015 0.487374V7.56393H17.2388V0.487374C17.2388 0.487374 16.8075 0.0961914 16.3474 0.0961914ZM24.8219 0.193987C24.4372 0.193987 24.0187 0.463326 24.0187 0.463326L23.9786 3.35711C23.9546 3.44529 23.8969 3.52385 23.8183 3.57194C23.7366 3.6024 23.65 3.61844 23.5634 3.61844C23.5362 3.61844 23.5105 3.61844 23.4833 3.61363H20.7546C20.7338 3.61363 20.2255 3.61363 20.0444 3.77234C19.8616 3.93106 19.86 4.39599 19.86 4.41202L19.8215 7.19198C19.7911 7.31703 19.7334 7.43247 19.6516 7.52866C19.6356 7.54309 19.6195 7.55591 19.6019 7.56553H21.6893C21.6668 7.55431 21.646 7.54148 21.6251 7.52866C21.5338 7.44369 21.4857 7.31864 21.4969 7.19198V5.79078C21.4809 5.6513 21.5273 5.51343 21.6251 5.41242C21.7294 5.33387 21.9185 5.32104 22.0275 5.32104C22.0772 5.32104 22.1109 5.32425 22.1109 5.32425H24.753C24.753 5.32425 24.8091 5.33066 24.8893 5.33066C25.032 5.33066 25.2548 5.31142 25.3831 5.20561C25.5867 5.04208 25.5658 4.66693 25.5658 4.66693L25.5915 0.466532C25.3718 0.312624 25.1137 0.219638 24.846 0.197193C24.838 0.197193 24.8316 0.197193 24.8235 0.197193L24.8219 0.193987ZM8.17902 0.346292C8.17902 0.346292 8.16459 0.346292 8.15658 0.346292C7.88884 0.37034 7.63233 0.463326 7.41269 0.617233L7.43674 4.81764C7.43674 4.81764 7.41589 5.19118 7.6211 5.35471C7.75257 5.46212 7.97702 5.47976 8.12131 5.47976C8.19986 5.47976 8.25277 5.47335 8.25277 5.47335H10.8949C10.8949 5.47335 10.9302 5.47014 10.9815 5.47014C11.0905 5.47014 11.2764 5.48297 11.3791 5.56152C11.4752 5.66092 11.5217 5.8004 11.5073 5.93828V7.34108C11.5153 7.41643 11.4993 7.49178 11.4672 7.55752H13.2612C13.2308 7.50461 13.1987 7.43247 13.1827 7.34108C13.1538 7.17275 13.1265 6.06974 13.1426 4.55952C13.1426 4.54349 13.1426 4.08016 12.9582 3.92144C12.7803 3.76593 12.2865 3.76273 12.2496 3.76273H12.248H9.5209C9.49525 3.76593 9.4696 3.76753 9.44395 3.76753C9.35577 3.76753 9.2676 3.7515 9.18583 3.71944C9.10567 3.67134 9.04796 3.59439 9.02551 3.50461L8.98543 0.612424C8.98543 0.612424 8.56539 0.341482 8.18062 0.341482L8.17902 0.346292ZM32.3618 6.80721L28.1614 6.83287C28.1614 6.83287 28.1502 6.83287 28.1294 6.83287C28.0364 6.83287 27.7574 6.84729 27.6227 7.01563C27.4576 7.21924 27.5041 7.64729 27.5041 7.64729V10.2894C27.5041 10.2894 27.5314 10.6212 27.4143 10.7735C27.3277 10.8585 27.2107 10.905 27.0905 10.905C27.0728 10.905 27.0552 10.905 27.0376 10.9018H25.8031V12.5756L28.4163 12.5371C28.4452 12.5371 28.8973 12.5339 29.0528 12.3543C29.2147 12.1683 29.2115 11.6441 29.2115 11.6441V8.91543C29.2003 8.8016 29.2147 8.68778 29.2548 8.58036C29.3029 8.5002 29.3799 8.44248 29.4696 8.42004L32.3634 8.37996C32.3634 8.37996 32.644 7.94549 32.6328 7.55271C32.6087 7.28657 32.5157 7.02846 32.3618 6.80882V6.80721ZM1.1682 7.11343C1.01429 7.33307 0.919704 7.59118 0.898862 7.85731C0.886037 8.2485 1.1682 8.68457 1.1682 8.68457L4.06038 8.72305C4.15016 8.7487 4.22872 8.80641 4.27682 8.88497C4.3169 8.99078 4.33133 9.10621 4.3185 9.22004V11.9471C4.3185 11.9679 4.3185 12.4762 4.47722 12.6573C4.63593 12.8401 5.10086 12.8417 5.1169 12.8417L7.88724 12.8818V11.2064H6.49405C6.47802 11.208 6.46038 11.2096 6.44435 11.2096C6.32251 11.2096 6.20547 11.1647 6.1173 11.0798C6.00026 10.9275 6.02912 10.5956 6.02912 10.5956V7.9519C6.02912 7.9519 6.07401 7.52545 5.91048 7.32024C5.77261 7.1519 5.49044 7.13748 5.39906 7.13748C5.38143 7.13748 5.3702 7.13748 5.3702 7.13748L1.1698 7.11343H1.1682ZM32.4692 14.8569H25.8015V16.6942H32.4692C32.4692 16.6942 32.8588 16.2629 32.8588 15.8028C32.8588 15.3427 32.4692 14.8569 32.4692 14.8569ZM7.88724 15.0092H1.43914C1.43914 15.0092 1.04956 15.4966 1.04956 15.9567C1.04956 16.4168 1.43914 16.8465 1.43914 16.8465H7.88724V15.0092ZM25.8031 18.9162V20.8305C25.8752 20.7695 25.9682 20.7343 26.0644 20.7343C26.0772 20.7343 26.0917 20.7343 26.1045 20.7359H27.5057C27.5233 20.7343 27.541 20.7327 27.5586 20.7327C27.6789 20.7327 27.7959 20.7792 27.8825 20.8625C27.9995 21.0164 27.9722 21.3483 27.9722 21.3483V23.9904C27.9722 23.9904 27.9257 24.4168 28.0909 24.622C28.2271 24.792 28.5109 24.8064 28.6007 24.8064C28.6183 24.8064 28.6296 24.8064 28.6296 24.8064L32.83 24.8305C32.9839 24.6108 33.0785 24.3527 33.1009 24.085C33.1121 23.6938 32.83 23.2593 32.83 23.2593L29.9378 23.2192C29.848 23.1952 29.7694 23.1375 29.7213 23.0589C29.6829 22.9515 29.6668 22.8361 29.6797 22.7238V19.9952C29.6797 19.9952 29.6829 19.4693 29.5209 19.285C29.3606 19.1006 28.8813 19.1006 28.8813 19.1006L26.1029 19.0605C25.9923 19.0349 25.8897 18.9868 25.7999 18.9178L25.8031 18.9162ZM7.88724 19.0669L5.64756 19.099C5.64756 19.099 5.1698 19.099 5.00788 19.285C4.84756 19.4693 4.85076 19.9936 4.85076 19.9936V22.7222C4.86199 22.8361 4.84756 22.9499 4.80748 23.0573C4.75938 23.1375 4.68082 23.1952 4.59265 23.2176L1.69886 23.2577C1.69886 23.2577 1.4183 23.6922 1.42952 24.0834C1.45357 24.3511 1.54656 24.6092 1.70046 24.8289L5.89926 24.8048C5.89926 24.8048 5.90888 24.8048 5.92812 24.8048C6.0179 24.8048 6.30327 24.7904 6.43954 24.6204C6.60467 24.4168 6.55818 23.9888 6.55818 23.9888V21.3467C6.55818 21.3467 6.53092 21.0148 6.64796 20.8625C6.73453 20.7776 6.85157 20.7311 6.97181 20.7311C6.98944 20.7311 7.00708 20.7311 7.02471 20.7343H7.88724V19.0653V19.0669ZM22.7201 25.0116H21.0448L21.0833 27.6842C21.0833 27.7002 21.0833 28.1635 21.2676 28.3222C21.4456 28.4778 21.9394 28.481 21.9762 28.481H24.7065C24.7322 28.4778 24.7578 28.4761 24.7819 28.4761C24.87 28.4761 24.9566 28.4922 25.04 28.5242C25.1201 28.5723 25.1795 28.6493 25.2019 28.7391L25.242 31.6313C25.242 31.6313 25.6604 31.9022 26.0452 31.9022C26.0532 31.9022 26.0596 31.9022 26.0676 31.9022C26.3354 31.8782 26.5935 31.7852 26.8115 31.6313L26.7875 27.4309C26.7875 27.4309 26.8099 27.0573 26.6047 26.8938C26.4748 26.788 26.2536 26.7687 26.1093 26.7687C26.0292 26.7687 25.973 26.7751 25.973 26.7751H23.331C23.331 26.7751 23.2989 26.7784 23.2492 26.7784C23.1402 26.7784 22.951 26.7655 22.8452 26.6854C22.749 26.5844 22.7025 26.4465 22.7169 26.3086V25.0148L22.7201 25.0116ZM12.7306 25.0116V26.1515C12.7466 26.291 12.6985 26.4289 12.6023 26.5299C12.4997 26.6084 12.3137 26.6212 12.2047 26.6212C12.1518 26.6212 12.1181 26.618 12.1181 26.618H9.47441C9.47441 26.618 9.4199 26.6116 9.34134 26.6116C9.19866 26.6116 8.97421 26.6309 8.84275 26.7351C8.64074 26.9002 8.65998 27.2737 8.65998 27.2737L8.63593 31.4741C8.85557 31.6281 9.11209 31.7226 9.37982 31.7435C9.38784 31.7435 9.39746 31.7435 9.40547 31.7435C9.79024 31.7435 10.2071 31.4741 10.2071 31.4741L10.2472 28.582C10.2712 28.4922 10.3289 28.4136 10.4075 28.3655C10.4893 28.3351 10.5758 28.319 10.6624 28.319C10.6897 28.319 10.7153 28.319 10.7426 28.3238H13.4712C13.5081 28.3238 14.0019 28.3206 14.1799 28.1651C14.3626 28.008 14.3642 27.5415 14.3642 27.5255L14.3995 25.0212L12.729 25.0068L12.7306 25.0116ZM16.5526 25.0437V31.487C16.5526 31.487 17.04 31.8766 17.4985 31.8766C17.957 31.8766 18.3899 31.487 18.3899 31.487V25.0549H18.2552L16.551 25.0421L16.5526 25.0437Z" fill="white"/>
<path d="M11.1114 8.92665H22.2088L24.2866 8.92826C24.3764 8.92826 24.4501 9.002 24.4501 9.09178V23.5014C24.4501 23.5912 24.3764 23.6649 24.2866 23.6649H21.1764L18.2858 23.713L12.5383 23.6649H12.5319H12.5255H9.39599C9.30621 23.6649 9.23246 23.5912 9.23246 23.5014V9.09178C9.23246 9.002 9.30621 8.92826 9.39919 8.92826H11.113M11.1114 7.32345H9.39759C8.42124 7.32505 7.63086 8.11703 7.63086 9.09339V23.503C7.63086 24.4794 8.42284 25.2697 9.39759 25.2697H12.5271L18.2954 25.3178L21.2052 25.2697H24.2898C25.2661 25.2697 26.0565 24.4778 26.0565 23.503V9.09178C26.0565 8.11543 25.2645 7.32505 24.2898 7.32505H11.1082L11.1114 7.32345Z" fill="black"/>
<path d="M24.098 8.64769H9.58099C9.21265 8.64769 8.91406 8.94629 8.91406 9.31463V23.3283C8.91406 23.6966 9.21265 23.9952 9.58099 23.9952H24.098C24.4664 23.9952 24.7649 23.6966 24.7649 23.3283V9.31463C24.7649 8.94629 24.4664 8.64769 24.098 8.64769Z" fill="white"/>
<path d="M17.1609 18.6998C18.4439 18.6998 19.484 17.6597 19.484 16.3768C19.484 15.0938 18.4439 14.0537 17.1609 14.0537C15.8779 14.0537 14.8379 15.0938 14.8379 16.3768C14.8379 17.6597 15.8779 18.6998 17.1609 18.6998Z" fill="black"/>
</g>
<defs>
<clipPath id="clip0_1213_29333">
<rect width="34" height="32" fill="white"/>
</clipPath>
</defs>
</svg>
