<svg width="34" height="32" viewBox="0 0 34 32" fill="none" xmlns="http://www.w3.org/2000/svg">
<g clip-path="url(#clip0_1025_24194)">
<path d="M26.046 31.8076C25.7622 31.8076 25.4496 31.6425 25.3373 31.5768L25.2973 28.7279L25.2941 28.7166C25.2652 28.6028 25.1914 28.5066 25.0888 28.4425L25.0808 28.4377L25.0728 28.4345C24.9782 28.3992 24.8804 28.38 24.781 28.38C24.7522 28.38 24.7233 28.38 24.6945 28.3848H21.977C21.7782 28.3848 21.4432 28.3479 21.3293 28.2485C21.2187 28.1539 21.1786 27.8509 21.1786 27.6842L21.1418 25.1078H22.6231V26.3054C22.6055 26.4609 22.6616 26.6261 22.777 26.7495C22.9101 26.8521 23.1073 26.8729 23.25 26.8729C23.3029 26.8729 23.3397 26.8697 23.3397 26.8697H25.9738C25.9866 26.8697 26.0379 26.8633 26.1101 26.8633C26.3073 26.8633 26.4612 26.9002 26.5446 26.9659C26.7065 27.0958 26.692 27.4196 26.692 27.4228L26.7145 31.5784C26.5189 31.7066 26.2945 31.7836 26.0588 31.8044H26.0444L26.046 31.8076ZM17.4977 31.7836C17.1466 31.7836 16.765 31.5271 16.648 31.4421V25.1431L18.2544 25.1559H18.2929V31.4453C18.1886 31.5303 17.8472 31.7836 17.4977 31.7836ZM9.38223 31.6521C9.15458 31.6329 8.92852 31.5559 8.73133 31.4277L8.75377 27.2786C8.74896 27.1824 8.7666 26.9226 8.90127 26.8136C8.98303 26.7479 9.13854 26.711 9.33894 26.711C9.40948 26.711 9.45918 26.7158 9.46079 26.7158H12.1141C12.1141 26.7158 12.151 26.719 12.2023 26.719C12.3434 26.719 12.5373 26.6998 12.6576 26.6068C12.7858 26.4721 12.842 26.307 12.8227 26.1403V25.1078L14.3009 25.1206L14.2656 27.5271C14.2656 27.697 14.2255 28 14.1149 28.0946C14.0011 28.194 13.666 28.2309 13.4688 28.2309H10.7401C10.7209 28.2277 10.6904 28.2261 10.66 28.2261C10.559 28.2261 10.4628 28.2437 10.3714 28.279L10.3634 28.2822L10.3554 28.287C10.2544 28.3479 10.1822 28.4457 10.1518 28.5611L10.1486 28.5723L10.1085 31.4228C9.99626 31.487 9.68363 31.6521 9.40147 31.6521H9.37902H9.38223ZM1.75097 24.7343C1.62271 24.5387 1.54576 24.311 1.52492 24.077C1.5169 23.7916 1.68684 23.4693 1.75418 23.3555L4.60628 23.3154L4.6175 23.3122C4.72973 23.2818 4.82913 23.208 4.89005 23.1086L4.89486 23.1006L4.89806 23.0926C4.94295 22.9723 4.96059 22.8457 4.94776 22.7142V19.9952C4.94776 19.806 4.98303 19.4629 5.08243 19.3491C5.19145 19.2241 5.53614 19.1968 5.64836 19.1968L7.79185 19.1647V20.6413H7.02552C7.0159 20.6397 6.99345 20.6381 6.97261 20.6381C6.82512 20.6381 6.68564 20.6942 6.58143 20.7968C6.43714 20.9844 6.45959 21.321 6.46279 21.3579V23.992C6.47401 24.1106 6.48043 24.4216 6.365 24.5627C6.27682 24.6717 6.08123 24.7118 5.92892 24.7118H5.90488L1.75097 24.7343ZM28.6303 24.7118H28.6015C28.4492 24.7118 28.2552 24.6733 28.167 24.5643C28.0516 24.4216 28.058 24.1106 28.0692 24.0032V21.3499C28.0724 21.3194 28.0949 20.9844 27.9602 20.8048C27.8448 20.6926 27.7053 20.6381 27.5594 20.6381C27.5385 20.6381 27.5177 20.6381 27.4969 20.6413H26.1069C26.1069 20.6413 26.0828 20.6381 26.0668 20.6381C26.0091 20.6381 25.953 20.6477 25.9001 20.6653V19.0878C25.9578 19.1166 26.0203 19.1375 26.0844 19.1519H26.0941L28.882 19.1952C29.052 19.1952 29.355 19.2369 29.4496 19.3459C29.5506 19.4613 29.5858 19.8044 29.5842 19.9936V22.7222C29.5714 22.8361 29.5874 22.9659 29.6323 23.0894L29.6355 23.099L29.6403 23.107C29.7013 23.208 29.7991 23.2802 29.9145 23.3106L29.9257 23.3138L32.7746 23.3539C32.8419 23.4693 33.0119 23.7932 33.0039 24.0818C32.983 24.311 32.9061 24.5371 32.7778 24.7327L28.6287 24.7102L28.6303 24.7118ZM1.48323 16.7519C1.39987 16.6477 1.14496 16.3062 1.14496 15.9583C1.14496 15.6104 1.40147 15.2241 1.48644 15.107H7.79025V16.7519H1.48323ZM25.8985 16.5996V14.9547H32.4219C32.5069 15.0717 32.7634 15.4533 32.7634 15.8044C32.7634 16.1555 32.5101 16.4954 32.4251 16.5996H25.8985ZM5.1177 12.7471C4.99586 12.7471 4.65758 12.7198 4.55017 12.5964C4.45077 12.481 4.4155 12.1459 4.4155 11.9487V9.22165C4.42832 9.10301 4.41229 8.97155 4.3674 8.85291L4.3642 8.84489L4.35939 8.83687C4.29846 8.73748 4.20067 8.66373 4.08684 8.63167L4.07562 8.62846L1.22512 8.58998C1.15778 8.47455 0.987843 8.1491 0.997462 7.86052C1.0167 7.63287 1.09365 7.40682 1.22191 7.20962L5.37101 7.23207H5.39987C5.55217 7.23207 5.74776 7.27054 5.83594 7.37956C5.94977 7.52064 5.94496 7.83166 5.93373 7.94068V10.594C5.93053 10.6228 5.90648 10.9595 6.04115 11.1375C6.15818 11.2497 6.29766 11.3058 6.44516 11.3058C6.4644 11.3058 6.48363 11.3058 6.50448 11.3026H7.79185V12.7856L5.11931 12.7471H5.1177ZM25.8969 10.9964H27.0351C27.0448 10.998 27.0672 10.9996 27.088 10.9996C27.2355 10.9996 27.375 10.9435 27.4792 10.8425C27.6235 10.6549 27.6011 10.3182 27.5979 10.2814V7.6473C27.5866 7.52866 27.5802 7.21764 27.6957 7.07655C27.8047 6.94028 28.0532 6.92906 28.1269 6.92906H28.1526L32.3081 6.90501C32.4363 7.1006 32.5133 7.32665 32.5341 7.56072C32.5421 7.84609 32.3722 8.16994 32.3049 8.28377L29.4544 8.32385L29.4431 8.32706C29.3293 8.35591 29.2315 8.42806 29.1706 8.53066L29.1658 8.53868L29.1626 8.5467C29.1177 8.66694 29.1001 8.79359 29.1129 8.92505V11.6441C29.1129 11.8333 29.0776 12.1764 28.9766 12.2918C28.882 12.4008 28.587 12.4409 28.4123 12.4409L25.8953 12.4778V10.998L25.8969 10.9964ZM19.8063 7.46934C19.8544 7.38918 19.8896 7.30421 19.9121 7.21443L19.9153 7.20321L19.9538 4.41203C19.9538 4.29018 19.981 3.95191 20.1045 3.84449C20.2199 3.74509 20.555 3.70982 20.7522 3.70982H23.4808C23.5001 3.71303 23.5305 3.71463 23.561 3.71463C23.6604 3.71463 23.7582 3.697 23.8496 3.66173L23.8576 3.65852L23.8656 3.65371C23.965 3.59279 24.0387 3.49339 24.0692 3.38116L24.0724 3.36994L24.1125 0.517838C24.2247 0.452106 24.5373 0.288579 24.8211 0.288579H24.8403C25.0712 0.309421 25.2973 0.386375 25.4912 0.513028L25.4672 4.66213C25.472 4.75992 25.456 5.01964 25.3213 5.12706C25.2395 5.19439 25.0856 5.22966 24.8868 5.22966C24.8131 5.22966 24.7634 5.22485 24.7602 5.22485H22.1085C22.1085 5.22485 22.0732 5.22164 22.0235 5.22164C21.8808 5.22164 21.6852 5.24088 21.5634 5.33227C21.4351 5.46533 21.379 5.63046 21.3983 5.7988V7.18878C21.3886 7.28176 21.4095 7.38116 21.456 7.46613H19.8063V7.46934ZM15.4953 7.46934V0.535473C15.6123 0.450503 15.9939 0.192387 16.345 0.192387C16.6961 0.192387 17.0359 0.447296 17.1401 0.532266V7.46774H15.4953V7.46934ZM11.5947 7.46934C11.6027 7.42605 11.6043 7.38116 11.5995 7.33948V5.94629C11.6187 5.78918 11.5626 5.62245 11.4456 5.50221C11.3141 5.4012 11.1201 5.38197 10.979 5.38197C10.9213 5.38197 10.8844 5.38517 10.8844 5.38517H8.25037C8.23754 5.38517 8.18945 5.38998 8.1189 5.38998C7.9185 5.38998 7.76299 5.35311 7.67963 5.28577C7.54335 5.17676 7.52572 4.91864 7.53053 4.82726L7.50808 0.671745C7.70528 0.543489 7.92973 0.464932 8.16379 0.445693H8.17822C8.46199 0.445693 8.77622 0.610823 8.88844 0.676555L8.92852 3.52545L8.93173 3.53667C8.96059 3.6505 9.03434 3.7483 9.13534 3.81082L9.14335 3.81563L9.15137 3.81884C9.24596 3.85411 9.34375 3.87335 9.44476 3.87335C9.47361 3.87335 9.50247 3.87335 9.53293 3.86854H12.2488C12.4476 3.86854 12.7826 3.90541 12.8965 4.00481C13.0199 4.11223 13.0472 4.4489 13.0472 4.56914C13.0311 6.06173 13.0568 7.18397 13.0888 7.36674C13.0953 7.40201 13.1033 7.43728 13.1145 7.47094H11.5995L11.5947 7.46934Z" fill="url(#paint0_linear_1025_24194)"/>
<path d="M16.3464 0.288578C16.6334 0.288578 16.9219 0.482566 17.0454 0.578758V7.37154H15.5929V0.583568C15.7564 0.46974 16.0738 0.288578 16.3464 0.288578ZM24.8209 0.386374H24.8338C25.0342 0.405612 25.2265 0.466534 25.3965 0.567536L25.3724 4.66373V4.67495C25.3772 4.76633 25.3564 4.97796 25.2602 5.05491C25.1977 5.10621 25.0582 5.13667 24.8883 5.13667C24.8193 5.13667 24.7728 5.13186 24.7728 5.13186H24.7632H24.752H22.1163C22.1019 5.13186 22.0698 5.12866 22.0265 5.12866C21.7973 5.12866 21.6225 5.17195 21.5087 5.25852L21.4959 5.26814L21.4847 5.27936C21.3516 5.41884 21.2859 5.60962 21.3035 5.8004V7.18397C21.2987 7.2481 21.3035 7.31223 21.3195 7.37475H19.9632C19.9809 7.33146 19.9953 7.28657 20.0065 7.24008L20.0113 7.21764V7.19519L20.0514 4.41363C20.0514 4.22445 20.0995 3.98076 20.1684 3.91984C20.2486 3.8509 20.534 3.80762 20.7536 3.80762H23.471C23.5015 3.81082 23.5304 3.81243 23.5608 3.81243C23.6714 3.81243 23.7805 3.79319 23.8847 3.75311L23.9007 3.74669L23.9167 3.73707C24.037 3.66333 24.1267 3.54309 24.1636 3.40681L24.17 3.38437V3.36032L24.2101 0.575552C24.3544 0.496995 24.6077 0.386374 24.8225 0.386374M8.17965 0.538678C8.40891 0.538678 8.66382 0.658919 8.79368 0.72946L8.83215 3.51263V3.53507L8.83857 3.55752C8.87384 3.69699 8.96201 3.81403 9.08546 3.88938L9.09989 3.899L9.11592 3.90541C9.22173 3.94549 9.33075 3.96633 9.44298 3.96633C9.47183 3.96633 9.50069 3.96633 9.52955 3.96152H12.2486C12.4666 3.96152 12.752 4.00481 12.8322 4.07375C12.9027 4.13467 12.9492 4.37675 12.9492 4.56433C12.9348 5.88697 12.954 7.13587 12.9909 7.37154H11.7003C11.7003 7.36032 11.7003 7.3491 11.6987 7.33788V5.95431C11.7163 5.76192 11.6506 5.57275 11.5159 5.43327L11.5063 5.42365L11.4951 5.41563C11.3813 5.32906 11.2081 5.28417 10.9805 5.28417C10.9356 5.28417 10.9019 5.28577 10.8859 5.28738H8.24057H8.23095C8.23095 5.28738 8.18446 5.29219 8.11873 5.29219C7.94558 5.29219 7.8045 5.26172 7.74037 5.20882C7.64578 5.13347 7.62334 4.92184 7.62815 4.83206V4.82565V4.81924L7.6057 0.723047C7.77564 0.620442 7.96802 0.557917 8.16682 0.540281H8.17965M32.2566 6.9996C32.3592 7.16954 32.4217 7.36192 32.4394 7.56072C32.4442 7.79319 32.3207 8.05451 32.2502 8.18597L29.4654 8.22445H29.443L29.4205 8.23086C29.2811 8.26613 29.164 8.35431 29.0887 8.47776L29.079 8.49379L29.0726 8.50982C29.0229 8.64128 29.0037 8.77916 29.0165 8.92185V11.6425C29.0165 11.8621 28.9732 12.1475 28.9043 12.2261C28.845 12.295 28.6029 12.3415 28.4089 12.3415L25.9913 12.3768V11.091H27.0237C27.0446 11.0926 27.0654 11.0942 27.0863 11.0942C27.2594 11.0942 27.4213 11.0285 27.5448 10.9098L27.5544 10.9002L27.5624 10.889C27.7115 10.695 27.6987 10.3631 27.6923 10.2798V7.63447V7.62485C27.6762 7.48056 27.6907 7.23207 27.7692 7.13427C27.835 7.05251 28.0017 7.02365 28.1251 7.02365C28.1364 7.02365 28.1444 7.02365 28.146 7.02365H28.1524H28.1588L32.255 6.9996M1.27143 7.30742L5.36762 7.32986H5.37404H5.37885C5.38045 7.32986 5.38686 7.32986 5.39809 7.32986C5.53275 7.32986 5.69628 7.36513 5.75881 7.44048C5.83736 7.53828 5.85019 7.78677 5.83576 7.93106V7.94068V7.9503V10.586C5.82935 10.6709 5.81492 11.0012 5.96402 11.1952L5.97364 11.2064L5.98486 11.216C6.10831 11.3347 6.27183 11.3988 6.44498 11.3988C6.46422 11.3988 6.48346 11.3988 6.50269 11.3956H7.69548V12.683L5.11752 12.6445C4.92835 12.6445 4.68466 12.5964 4.62374 12.5275C4.5548 12.4473 4.51151 12.1619 4.51151 11.9423V9.22645C4.52594 9.08537 4.5067 8.94269 4.457 8.81283L4.45059 8.79679L4.44097 8.78237C4.36722 8.66052 4.25019 8.57235 4.11071 8.53547L4.08666 8.52906H4.06261L1.27945 8.49058C1.2073 8.35752 1.08546 8.09619 1.09027 7.86373C1.10791 7.66653 1.16883 7.47415 1.27143 7.30261M32.3704 15.0461C32.4843 15.2096 32.6638 15.5271 32.6638 15.7996C32.6638 16.0866 32.4698 16.3752 32.3752 16.4986H25.9913V15.0461H32.3688M7.69067 15.1984V16.6509H1.52955C1.43496 16.5259 1.24097 16.2389 1.24097 15.9535C1.24097 15.6681 1.43817 15.3395 1.53596 15.1984H7.69388M25.9945 19.2257C26.0169 19.2321 26.0394 19.2385 26.0618 19.2433L26.0811 19.2481H26.1003L28.8802 19.2882C29.0662 19.2882 29.3147 19.3379 29.374 19.4068C29.4414 19.4838 29.4863 19.7707 29.4863 19.9904V22.7078C29.4734 22.8441 29.4911 22.9852 29.5392 23.1182L29.5456 23.1359L29.5552 23.1519C29.6306 23.2754 29.7476 23.3619 29.8887 23.3988L29.9111 23.4052H29.9336L32.7167 23.4453C32.7889 23.5768 32.9123 23.8381 32.9075 24.0689C32.8899 24.2677 32.8257 24.4617 32.7247 24.6317L28.6285 24.6092H28.6221H28.6173C28.6157 24.6092 28.6093 24.6092 28.5997 24.6092C28.465 24.6092 28.3031 24.5739 28.239 24.4954C28.1604 24.3992 28.1476 24.1507 28.162 24.0064V23.9952V23.984V21.3483C28.1684 21.2649 28.1813 20.9347 28.0322 20.7391L28.0225 20.7263L28.0113 20.715C27.8879 20.598 27.7259 20.5323 27.5544 20.5323C27.5336 20.5323 27.5127 20.5323 27.4919 20.5355H26.1083C26.0923 20.5355 26.0762 20.5339 26.0586 20.5339C26.0346 20.5339 26.0121 20.5339 25.9897 20.5387V19.2208M7.68907 19.2545V20.5371H7.02855C7.0077 20.5355 6.98686 20.5339 6.96602 20.5339C6.79288 20.5339 6.63095 20.5996 6.5075 20.7182L6.49788 20.7279L6.48987 20.7391C6.34077 20.9331 6.3536 21.2649 6.36001 21.3483V24.0048C6.37283 24.1138 6.36963 24.388 6.28306 24.4954C6.22053 24.5723 6.057 24.6076 5.92233 24.6076C5.91271 24.6076 5.9063 24.6076 5.9047 24.6076H5.89829H5.89187L1.79728 24.6301C1.69468 24.4585 1.63215 24.2661 1.61452 24.0673C1.60971 23.8365 1.73316 23.5751 1.8037 23.4421L4.58847 23.4036H4.61251L4.63496 23.3972C4.77123 23.3619 4.89147 23.2705 4.96522 23.1503L4.97484 23.1343L4.98125 23.1182C5.03095 22.9868 5.05019 22.8489 5.03736 22.7062V19.9856C5.03736 19.7659 5.08065 19.4806 5.14799 19.4036C5.21051 19.3331 5.4542 19.285 5.64498 19.2834L7.68907 19.2529M22.5219 25.196V26.2878C22.5043 26.4786 22.57 26.6677 22.7031 26.8072L22.7127 26.8184L22.7239 26.8281C22.8394 26.9162 23.0141 26.9611 23.245 26.9611C23.2867 26.9611 23.3187 26.9595 23.3332 26.9579H25.9784H25.9881C25.9881 26.9579 26.0362 26.9531 26.1035 26.9531C26.2734 26.9531 26.4145 26.9836 26.477 27.0349C26.5716 27.1102 26.5925 27.3218 26.5877 27.4116V27.418V27.4244L26.6101 31.5206C26.4402 31.6216 26.2494 31.6842 26.049 31.7034H26.0362C25.8069 31.7034 25.5536 31.5832 25.4237 31.5126L25.3853 28.7295V28.707L25.3788 28.6846C25.3436 28.5467 25.2554 28.4297 25.1304 28.3527L25.1159 28.3431L25.0999 28.3367C24.9941 28.2966 24.8851 28.2758 24.7744 28.2758C24.7456 28.2758 24.7167 28.2757 24.6879 28.2806H21.9672C21.7492 28.2806 21.4638 28.2373 21.3837 28.1683C21.3131 28.1074 21.2666 27.8653 21.2666 27.6729L21.2297 25.196H22.5171M12.9123 25.1976L14.1965 25.2088L14.1628 27.5222C14.1628 27.7082 14.1147 27.9567 14.0442 28.016C13.9656 28.085 13.6802 28.1283 13.4606 28.1283H10.7448C10.7143 28.125 10.6839 28.1234 10.655 28.1234C10.5428 28.1234 10.4338 28.1427 10.3312 28.1828L10.3151 28.1892L10.3007 28.1988C10.1772 28.2741 10.0907 28.3912 10.0538 28.5323L10.0474 28.5547V28.5772L10.0073 31.3603C9.87744 31.4309 9.62414 31.5495 9.39648 31.5495H9.38045C9.18326 31.5319 8.99087 31.4693 8.81933 31.3683L8.84177 27.2721V27.2657V27.2609C8.83696 27.1695 8.85941 26.9579 8.95239 26.881C9.01652 26.8297 9.1576 26.7992 9.33075 26.7992C9.39648 26.7992 9.44298 26.804 9.44298 26.804H9.45259H9.46221H12.0995C12.1155 26.804 12.1492 26.8072 12.1941 26.8072C12.4217 26.8072 12.5949 26.7623 12.7087 26.6758L12.7215 26.6661L12.7328 26.6549C12.8658 26.5138 12.9299 26.3246 12.9123 26.1339V25.1976ZM16.7344 25.2297L18.1869 25.2409V31.3876C18.0618 31.4822 17.7748 31.6762 17.4879 31.6762C17.2009 31.6762 16.8754 31.479 16.7344 31.3812V25.2281M16.3464 0.0961933C15.8863 0.0961933 15.4005 0.487376 15.4005 0.487376V7.56393H17.2378V0.487376C17.2378 0.487376 16.8065 0.0961933 16.3464 0.0961933ZM24.8209 0.193989C24.4362 0.193989 24.0177 0.463328 24.0177 0.463328L23.9776 3.35712C23.9536 3.44529 23.8959 3.52385 23.8173 3.57194C23.7356 3.60241 23.649 3.61844 23.5624 3.61844C23.5352 3.61844 23.5095 3.61844 23.4823 3.61363H20.7536C20.7328 3.61363 20.2245 3.61363 20.0434 3.77235C19.8606 3.93106 19.859 4.39599 19.859 4.41202L19.8205 7.19199C19.7901 7.31704 19.7324 7.43247 19.6506 7.52866C19.6346 7.54309 19.6185 7.55591 19.6009 7.56553H21.6883C21.6658 7.55431 21.645 7.54148 21.6241 7.52866C21.5328 7.44369 21.4847 7.31864 21.4959 7.19199V5.79078C21.4799 5.6513 21.5263 5.51343 21.6241 5.41243C21.7283 5.33387 21.9175 5.32104 22.0265 5.32104C22.0762 5.32104 22.1099 5.32425 22.1099 5.32425H24.752C24.752 5.32425 24.8081 5.33066 24.8883 5.33066C25.031 5.33066 25.2538 5.31142 25.3821 5.20561C25.5857 5.04209 25.5648 4.66693 25.5648 4.66693L25.5905 0.466534C25.3708 0.312626 25.1127 0.21964 24.845 0.197195C24.837 0.197195 24.8306 0.197195 24.8225 0.197195L24.8209 0.193989ZM8.17804 0.346294C8.17804 0.346294 8.16362 0.346294 8.1556 0.346294C7.88786 0.370342 7.63135 0.463328 7.41171 0.617235L7.43576 4.81764C7.43576 4.81764 7.41492 5.19118 7.62013 5.35471C7.75159 5.46213 7.97604 5.47976 8.12033 5.47976C8.19889 5.47976 8.25179 5.47335 8.25179 5.47335H10.8939C10.8939 5.47335 10.9291 5.47014 10.9805 5.47014C11.0895 5.47014 11.2754 5.48297 11.378 5.56152C11.4742 5.66092 11.5207 5.8004 11.5063 5.93828V7.34108C11.5143 7.41643 11.4983 7.49178 11.4662 7.55752H13.2602C13.2297 7.50461 13.1977 7.43247 13.1817 7.34108C13.1528 7.17275 13.1255 6.06974 13.1416 4.55952C13.1416 4.54349 13.1416 4.08016 12.9572 3.92144C12.7792 3.76593 12.2855 3.76273 12.2486 3.76273H12.247H9.51993C9.49428 3.76593 9.46863 3.76754 9.44298 3.76754C9.3548 3.76754 9.26662 3.7515 9.18486 3.71944C9.1047 3.67134 9.04698 3.59439 9.02454 3.50461L8.98446 0.612426C8.98446 0.612426 8.56442 0.341484 8.17965 0.341484L8.17804 0.346294ZM32.3608 6.80722L28.1604 6.83287C28.1604 6.83287 28.1492 6.83287 28.1283 6.83287C28.0354 6.83287 27.7564 6.8473 27.6217 7.01563C27.4566 7.21924 27.5031 7.6473 27.5031 7.6473V10.2894C27.5031 10.2894 27.5304 10.6212 27.4133 10.7735C27.3267 10.8585 27.2097 10.905 27.0895 10.905C27.0718 10.905 27.0542 10.905 27.0366 10.9018H25.8021V12.5756L28.4153 12.5371C28.4442 12.5371 28.8963 12.5339 29.0518 12.3543C29.2137 12.1683 29.2105 11.6441 29.2105 11.6441V8.91543C29.1993 8.8016 29.2137 8.68778 29.2538 8.58036C29.3019 8.5002 29.3788 8.44249 29.4686 8.42004L32.3624 8.37996C32.3624 8.37996 32.643 7.94549 32.6318 7.55271C32.6077 7.28657 32.5147 7.02846 32.3608 6.80882V6.80722ZM1.16722 7.11343C1.01332 7.33307 0.918727 7.59118 0.897885 7.85732C0.88506 8.2485 1.16722 8.68457 1.16722 8.68457L4.05941 8.72305C4.14919 8.7487 4.22775 8.80641 4.27584 8.88497C4.31592 8.99078 4.33035 9.10621 4.31752 9.22004V11.9471C4.31752 11.9679 4.31752 12.4762 4.47624 12.6573C4.63496 12.8401 5.09989 12.8417 5.11592 12.8417L7.88626 12.8818V11.2064H6.49308C6.47704 11.208 6.45941 11.2096 6.44338 11.2096C6.32153 11.2096 6.2045 11.1647 6.11632 11.0798C5.99929 10.9275 6.02815 10.5956 6.02815 10.5956V7.9519C6.02815 7.9519 6.07304 7.52545 5.90951 7.32024C5.77163 7.1519 5.48947 7.13748 5.39809 7.13748C5.38045 7.13748 5.36923 7.13748 5.36923 7.13748L1.16883 7.11343H1.16722ZM32.4682 14.8569H25.8005V16.6942H32.4682C32.4682 16.6942 32.8578 16.2629 32.8578 15.8028C32.8578 15.3427 32.4682 14.8569 32.4682 14.8569ZM7.88626 15.0092H1.43817C1.43817 15.0092 1.04859 15.4966 1.04859 15.9567C1.04859 16.4168 1.43817 16.8465 1.43817 16.8465H7.88626V15.0092ZM25.8021 18.9162V20.8305C25.8742 20.7695 25.9672 20.7343 26.0634 20.7343C26.0762 20.7343 26.0907 20.7343 26.1035 20.7359H27.5047C27.5223 20.7343 27.54 20.7327 27.5576 20.7327C27.6778 20.7327 27.7949 20.7792 27.8815 20.8625C27.9985 21.0164 27.9712 21.3483 27.9712 21.3483V23.9904C27.9712 23.9904 27.9247 24.4168 28.0899 24.622C28.2261 24.792 28.5099 24.8064 28.5997 24.8064C28.6173 24.8064 28.6285 24.8064 28.6285 24.8064L32.8289 24.8305C32.9829 24.6108 33.0774 24.3527 33.0999 24.085C33.1111 23.6938 32.8289 23.2593 32.8289 23.2593L29.9368 23.2192C29.847 23.1952 29.7684 23.1375 29.7203 23.0589C29.6819 22.9515 29.6658 22.8361 29.6786 22.7238V19.9952C29.6786 19.9952 29.6819 19.4693 29.5199 19.285C29.3596 19.1006 28.8802 19.1006 28.8802 19.1006L26.1019 19.0605C25.9913 19.0349 25.8887 18.9868 25.7989 18.9178L25.8021 18.9162ZM7.88626 19.0669L5.64658 19.099C5.64658 19.099 5.16883 19.099 5.0069 19.285C4.84658 19.4693 4.84979 19.9936 4.84979 19.9936V22.7222C4.86101 22.8361 4.84658 22.9499 4.8065 23.0573C4.75841 23.1375 4.67985 23.1952 4.59167 23.2176L1.69789 23.2577C1.69789 23.2577 1.41732 23.6922 1.42855 24.0834C1.45259 24.3511 1.54558 24.6092 1.69949 24.8289L5.89829 24.8048C5.89829 24.8048 5.90791 24.8048 5.92714 24.8048C6.01692 24.8048 6.30229 24.7904 6.43857 24.6204C6.6037 24.4168 6.5572 23.9888 6.5572 23.9888V21.3467C6.5572 21.3467 6.52995 21.0148 6.64698 20.8625C6.73356 20.7776 6.85059 20.7311 6.97083 20.7311C6.98847 20.7311 7.0061 20.7311 7.02374 20.7343H7.88626V19.0653V19.0669ZM22.7191 25.0116H21.0438L21.0823 27.6842C21.0823 27.7002 21.0823 28.1635 21.2666 28.3222C21.4446 28.4778 21.9384 28.481 21.9752 28.481H24.7055C24.7312 28.4778 24.7568 28.4762 24.7809 28.4762C24.869 28.4762 24.9556 28.4922 25.039 28.5242C25.1191 28.5723 25.1784 28.6493 25.2009 28.7391L25.241 31.6313C25.241 31.6313 25.6594 31.9022 26.0442 31.9022C26.0522 31.9022 26.0586 31.9022 26.0666 31.9022C26.3344 31.8782 26.5925 31.7852 26.8105 31.6313L26.7865 27.4309C26.7865 27.4309 26.8089 27.0573 26.6037 26.8938C26.4738 26.788 26.2526 26.7687 26.1083 26.7687C26.0281 26.7687 25.972 26.7751 25.972 26.7751H23.33C23.33 26.7751 23.2979 26.7784 23.2482 26.7784C23.1392 26.7784 22.95 26.7655 22.8442 26.6854C22.748 26.5844 22.7015 26.4465 22.7159 26.3086V25.0148L22.7191 25.0116ZM12.7295 25.0116V26.1515C12.7456 26.291 12.6975 26.4289 12.6013 26.5299C12.4987 26.6084 12.3127 26.6212 12.2037 26.6212C12.1508 26.6212 12.1171 26.618 12.1171 26.618H9.47344C9.47344 26.618 9.41893 26.6116 9.34037 26.6116C9.19768 26.6116 8.97324 26.6309 8.84177 26.7351C8.63977 26.9002 8.65901 27.2737 8.65901 27.2737L8.63496 31.4741C8.8546 31.6281 9.11111 31.7226 9.37885 31.7435C9.38686 31.7435 9.39648 31.7435 9.4045 31.7435C9.78927 31.7435 10.2061 31.4741 10.2061 31.4741L10.2462 28.582C10.2702 28.4922 10.3279 28.4136 10.4065 28.3655C10.4883 28.3351 10.5748 28.319 10.6614 28.319C10.6887 28.319 10.7143 28.319 10.7416 28.3238H13.4702C13.5071 28.3238 14.0009 28.3206 14.1788 28.1651C14.3616 28.008 14.3632 27.5415 14.3632 27.5255L14.3985 25.0212L12.7279 25.0068L12.7295 25.0116ZM16.5516 25.0437V31.487C16.5516 31.487 17.039 31.8766 17.4975 31.8766C17.956 31.8766 18.3889 31.487 18.3889 31.487V25.0549H18.2542L16.55 25.0421L16.5516 25.0437Z" fill="white"/>
<path d="M11.1104 8.92665H22.2078L24.2856 8.92826C24.3754 8.92826 24.4491 9.002 24.4491 9.09178V23.5014C24.4491 23.5912 24.3754 23.6649 24.2856 23.6649H21.1754L18.2848 23.713L12.5373 23.6649H12.5309H12.5245H9.39501C9.30523 23.6649 9.23149 23.5912 9.23149 23.5014V9.09178C9.23149 9.002 9.30523 8.92826 9.39822 8.92826H11.112M11.1104 7.32345H9.39662C8.42026 7.32505 7.62988 8.11703 7.62988 9.09339V23.503C7.62988 24.4794 8.42187 25.2697 9.39662 25.2697H12.5261L18.2944 25.3178L21.2042 25.2697H24.2888C25.2652 25.2697 26.0555 24.4778 26.0555 23.503V9.09178C26.0555 8.11543 25.2635 7.32505 24.2888 7.32505H11.1072L11.1104 7.32345Z" fill="url(#paint1_linear_1025_24194)"/>
<path d="M24.098 8.64769H9.581C9.21266 8.64769 8.91406 8.94629 8.91406 9.31463V23.3283C8.91406 23.6966 9.21266 23.9952 9.581 23.9952H24.098C24.4664 23.9952 24.765 23.6966 24.765 23.3283V9.31463C24.765 8.94629 24.4664 8.64769 24.098 8.64769Z" fill="white"/>
<path d="M17.159 18.6998C18.442 18.6998 19.482 17.6597 19.482 16.3768C19.482 15.0938 18.442 14.0537 17.159 14.0537C15.876 14.0537 14.8359 15.0938 14.8359 16.3768C14.8359 17.6597 15.876 18.6998 17.159 18.6998Z" fill="url(#paint2_linear_1025_24194)"/>
</g>
<defs>
<linearGradient id="paint0_linear_1025_24194" x1="0.99707" y1="0.192387" x2="32.6099" y2="32.197" gradientUnits="userSpaceOnUse">
<stop stop-color="#487AE3"/>
<stop offset="1" stop-color="#475F96"/>
</linearGradient>
<linearGradient id="paint1_linear_1025_24194" x1="7.62988" y1="7.32345" x2="25.6192" y2="25.7439" gradientUnits="userSpaceOnUse">
<stop stop-color="#487AE3"/>
<stop offset="1" stop-color="#475F96"/>
</linearGradient>
<linearGradient id="paint2_linear_1025_24194" x1="14.8359" y1="14.0537" x2="19.482" y2="18.6998" gradientUnits="userSpaceOnUse">
<stop stop-color="#487AE3"/>
<stop offset="1" stop-color="#475F96"/>
</linearGradient>
<clipPath id="clip0_1025_24194">
<rect width="32.396" height="32" fill="white" transform="translate(0.801758)"/>
</clipPath>
</defs>
</svg>
