<svg width="25" height="24" viewBox="0 0 25 24" fill="none" xmlns="http://www.w3.org/2000/svg">
<g clip-path="url(#clip0_3069_16518)">
<path d="M18.9331 23.8557C18.7202 23.8557 18.4858 23.7319 18.4016 23.6826L18.3715 21.5459L18.3691 21.5375C18.3475 21.4521 18.2922 21.38 18.2152 21.3319L18.2092 21.3283L18.2032 21.3258C18.1323 21.2994 18.0589 21.285 17.9844 21.285C17.9627 21.285 17.9411 21.285 17.9194 21.2886H15.8814C15.7323 21.2886 15.481 21.2609 15.3956 21.1864C15.3126 21.1154 15.2826 20.8882 15.2826 20.7631L15.2549 18.8309H16.3659V19.7291C16.3527 19.8457 16.3948 19.9695 16.4814 20.0621C16.5812 20.1391 16.729 20.1547 16.8361 20.1547C16.8757 20.1547 16.9034 20.1523 16.9034 20.1523H18.8789C18.8886 20.1523 18.927 20.1475 18.9812 20.1475C19.129 20.1475 19.2445 20.1751 19.307 20.2244C19.4284 20.3218 19.4176 20.5647 19.4176 20.5671L19.4345 23.6838C19.2878 23.78 19.1194 23.8377 18.9427 23.8533H18.9319L18.9331 23.8557ZM12.5218 23.8377C12.2585 23.8377 11.9723 23.6453 11.8846 23.5816V18.8573L13.0894 18.8669H13.1182V23.584C13.0401 23.6477 12.784 23.8377 12.5218 23.8377ZM6.43526 23.7391C6.26452 23.7246 6.09498 23.6669 5.94709 23.5707L5.96392 20.4589C5.96031 20.3868 5.97354 20.192 6.07454 20.1102C6.13586 20.0609 6.2525 20.0333 6.4028 20.0333C6.4557 20.0333 6.49298 20.0369 6.49418 20.0369H8.48416C8.48416 20.0369 8.51182 20.0393 8.55029 20.0393C8.65611 20.0393 8.8016 20.0248 8.89178 19.9551C8.98797 19.8541 9.03005 19.7303 9.01562 19.6052V18.8309L10.1242 18.8405L10.0978 20.6453C10.0978 20.7727 10.0677 21 9.98476 21.0709C9.89939 21.1455 9.64809 21.1731 9.50019 21.1731H7.4537C7.43927 21.1707 7.41643 21.1695 7.39358 21.1695C7.31783 21.1695 7.24568 21.1828 7.17715 21.2092L7.17113 21.2116L7.16512 21.2152C7.08937 21.2609 7.03526 21.3343 7.01242 21.4208L7.01001 21.4293L6.97995 23.5671C6.89578 23.6152 6.66132 23.7391 6.44969 23.7391H6.43286H6.43526ZM0.711817 18.5507C0.615625 18.404 0.557909 18.2333 0.542278 18.0577C0.536266 17.8437 0.663721 17.602 0.714222 17.5166L2.8533 17.4866L2.86172 17.4842C2.94588 17.4613 3.02043 17.406 3.06613 17.3315L3.06973 17.3254L3.07214 17.3194C3.1058 17.2293 3.11903 17.1343 3.10941 17.0357V14.9964C3.10941 14.8545 3.13587 14.5972 3.21041 14.5118C3.29218 14.418 3.55069 14.3976 3.63486 14.3976L5.24248 14.3735V15.481H4.66773C4.66051 15.4798 4.64368 15.4786 4.62805 15.4786C4.51743 15.4786 4.41282 15.5206 4.33466 15.5976C4.22645 15.7383 4.24328 15.9908 4.24568 16.0184V17.994C4.2541 18.083 4.25891 18.3162 4.17234 18.422C4.10621 18.5038 3.95951 18.5339 3.84528 18.5339H3.82725L0.711817 18.5507ZM20.8713 18.5339H20.8497C20.7355 18.5339 20.59 18.505 20.5238 18.4232C20.4373 18.3162 20.4421 18.083 20.4505 18.0024V16.0124C20.4529 15.9896 20.4697 15.7383 20.3687 15.6036C20.2822 15.5194 20.1775 15.4786 20.0681 15.4786C20.0525 15.4786 20.0369 15.4786 20.0212 15.481H18.9787C18.9787 15.481 18.9607 15.4786 18.9487 15.4786C18.9054 15.4786 18.8633 15.4858 18.8236 15.499V14.3158C18.8669 14.3375 18.9138 14.3531 18.9619 14.3639H18.9691L21.0601 14.3964C21.1876 14.3964 21.4148 14.4277 21.4858 14.5094C21.5615 14.596 21.588 14.8533 21.5868 14.9952V17.0417C21.5771 17.1271 21.5892 17.2244 21.6228 17.317L21.6252 17.3242L21.6288 17.3303C21.6745 17.406 21.7479 17.4601 21.8345 17.483L21.8429 17.4854L23.9795 17.5154C24.0301 17.602 24.1575 17.8449 24.1515 18.0613C24.1359 18.2333 24.0781 18.4028 23.982 18.5495L20.8701 18.5327L20.8713 18.5339ZM0.511016 12.5639C0.44849 12.4858 0.257308 12.2297 0.257308 11.9687C0.257308 11.7078 0.449693 11.418 0.51342 11.3303H5.24128V12.5639H0.511016ZM18.8224 12.4497V11.216H23.715C23.7787 11.3038 23.9711 11.59 23.9711 11.8533C23.9711 12.1166 23.7812 12.3715 23.7174 12.4497H18.8224ZM3.23687 9.56032C3.14548 9.56032 2.89178 9.53988 2.81122 9.44729C2.73667 9.36072 2.71021 9.10942 2.71021 8.96152V6.91623C2.71983 6.82725 2.70781 6.72866 2.67414 6.63968L2.67174 6.63367L2.66813 6.62765C2.62244 6.5531 2.54909 6.49779 2.46372 6.47375L2.4553 6.47134L0.317428 6.44248C0.266927 6.35591 0.139472 6.11182 0.146687 5.89539C0.161116 5.72465 0.218831 5.55511 0.315024 5.40721L3.42685 5.42405H3.44849C3.56272 5.42405 3.70941 5.4529 3.77554 5.53467C3.86091 5.64048 3.85731 5.87375 3.84889 5.95551V7.94549C3.84649 7.96713 3.82845 8.21964 3.92945 8.35311C4.01723 8.43727 4.12184 8.47936 4.23246 8.47936C4.24689 8.47936 4.26132 8.47936 4.27695 8.47695H5.24248V9.58918L3.23807 9.56032H3.23687ZM18.8212 8.24729H19.6749C19.6822 8.2485 19.699 8.2497 19.7146 8.2497C19.8252 8.2497 19.9298 8.20761 20.008 8.13186C20.1162 7.99118 20.0994 7.73868 20.097 7.71102V5.73547C20.0886 5.64649 20.0838 5.41322 20.1703 5.30741C20.2521 5.20521 20.4385 5.19679 20.4938 5.19679H20.513L23.6297 5.17876C23.7258 5.32545 23.7836 5.49499 23.7992 5.67054C23.8052 5.88457 23.6777 6.12745 23.6272 6.21282L21.4894 6.24288L21.481 6.24529C21.3956 6.26693 21.3222 6.32104 21.2765 6.39799L21.2729 6.40401L21.2705 6.41002C21.2369 6.5002 21.2236 6.59519 21.2333 6.69379V8.73306C21.2333 8.87495 21.2068 9.13226 21.1311 9.21884C21.0601 9.3006 20.8389 9.33066 20.7078 9.33066L18.82 9.35832V8.2485L18.8212 8.24729ZM14.2533 5.602C14.2894 5.54188 14.3158 5.47815 14.3327 5.41082L14.3351 5.4024L14.3639 3.30902C14.3639 3.21763 14.3844 2.96393 14.4769 2.88337C14.5635 2.80882 14.8148 2.78236 14.9627 2.78236H17.0092C17.0236 2.78477 17.0465 2.78597 17.0693 2.78597C17.1439 2.78597 17.2172 2.77274 17.2858 2.74629L17.2918 2.74389L17.2978 2.74028C17.3723 2.69459 17.4276 2.62004 17.4505 2.53587L17.4529 2.52745L17.483 0.388375C17.5671 0.339077 17.8016 0.216431 18.0144 0.216431H18.0288C18.202 0.232063 18.3715 0.289778 18.517 0.384768L18.499 3.49659C18.5026 3.56994 18.4906 3.76473 18.3896 3.84529C18.3282 3.89579 18.2128 3.92224 18.0637 3.92224C18.0084 3.92224 17.9711 3.91864 17.9687 3.91864H15.98C15.98 3.91864 15.9535 3.91623 15.9162 3.91623C15.8092 3.91623 15.6625 3.93066 15.5711 3.9992C15.4749 4.099 15.4329 4.22284 15.4473 4.3491V5.39158C15.4401 5.46132 15.4557 5.53587 15.4906 5.5996H14.2533V5.602ZM11.02 5.602V0.401602C11.1078 0.337874 11.394 0.144287 11.6573 0.144287C11.9206 0.144287 12.1755 0.335469 12.2537 0.399197V5.6008H11.02V5.602ZM8.09458 5.602C8.10059 5.56954 8.1018 5.53587 8.09819 5.50461V4.45972C8.11262 4.34188 8.07053 4.21683 7.98276 4.12665C7.88416 4.0509 7.73867 4.03647 7.63286 4.03647C7.58957 4.03647 7.56192 4.03888 7.56192 4.03888H5.58637C5.57675 4.03888 5.54067 4.04248 5.48777 4.04248C5.33747 4.04248 5.22083 4.01483 5.15831 3.96433C5.05611 3.88256 5.04288 3.68898 5.04649 3.62044L5.02965 0.503806C5.17755 0.407614 5.34588 0.348696 5.52144 0.334267H5.53226C5.74508 0.334267 5.98075 0.458115 6.06492 0.507413L6.09498 2.64409L6.09739 2.6525C6.11903 2.73787 6.17434 2.81122 6.25009 2.85811L6.2561 2.86172L6.26212 2.86413C6.33306 2.89058 6.40641 2.90501 6.48216 2.90501C6.5038 2.90501 6.52544 2.90501 6.54829 2.9014H8.58516C8.73426 2.9014 8.98556 2.92906 9.07094 3.00361C9.16352 3.08417 9.18396 3.33667 9.18396 3.42685C9.17194 4.54629 9.19118 5.38797 9.21522 5.52505C9.22003 5.5515 9.22605 5.57795 9.23446 5.6032H8.09819L8.09458 5.602Z" fill="white"/>
<path d="M11.6585 0.216432C11.8737 0.216432 12.0902 0.361923 12.1828 0.434067V5.52866H11.0934V0.437675C11.216 0.352304 11.4541 0.216432 11.6585 0.216432ZM18.0144 0.289779H18.024C18.1743 0.304208 18.3186 0.349899 18.4461 0.425651L18.4281 3.49779V3.50621C18.4317 3.57475 18.416 3.73347 18.3439 3.79118C18.297 3.82966 18.1924 3.8525 18.0649 3.8525C18.0132 3.8525 17.9784 3.8489 17.9784 3.8489H17.9711H17.9627H15.986C15.9751 3.8489 15.9511 3.84649 15.9186 3.84649C15.7467 3.84649 15.6156 3.87896 15.5303 3.94389L15.5206 3.9511L15.5122 3.95952C15.4124 4.06413 15.3631 4.20721 15.3763 4.3503V5.38797C15.3727 5.43607 15.3763 5.48417 15.3884 5.53106H14.3711C14.3844 5.4986 14.3952 5.46493 14.4036 5.43006L14.4072 5.41323V5.39639L14.4373 3.31022C14.4373 3.16834 14.4733 2.98557 14.525 2.93988C14.5852 2.88818 14.7992 2.85571 14.9639 2.85571H17.002C17.0248 2.85812 17.0465 2.85932 17.0693 2.85932C17.1523 2.85932 17.2341 2.84489 17.3122 2.81483L17.3242 2.81002L17.3363 2.8028C17.4264 2.74749 17.4938 2.65731 17.5214 2.55511L17.5262 2.53828V2.52024L17.5563 0.431663C17.6645 0.372745 17.8545 0.289779 18.0156 0.289779M5.53346 0.404007C5.70541 0.404007 5.89659 0.494188 5.99398 0.547093L6.02284 2.63447V2.6513L6.02765 2.66814C6.05411 2.77274 6.12024 2.86052 6.21282 2.91703L6.22364 2.92425L6.23567 2.92906C6.31503 2.95912 6.39679 2.97475 6.48096 2.97475C6.5026 2.97475 6.52424 2.97475 6.54589 2.97114H8.58517C8.7487 2.97114 8.96272 3.00361 9.02284 3.05531C9.07575 3.101 9.11062 3.28256 9.11062 3.42325C9.0998 4.41523 9.11423 5.3519 9.14188 5.52866H8.17395C8.17395 5.52024 8.17395 5.51182 8.17274 5.50341V4.46573C8.18597 4.32144 8.13667 4.17956 8.03567 4.07495L8.02845 4.06773L8.02004 4.06172C7.93467 3.99679 7.80481 3.96313 7.63407 3.96313C7.6004 3.96313 7.57515 3.96433 7.56312 3.96553H5.57916H5.57194C5.57194 3.96553 5.53707 3.96914 5.48777 3.96914C5.35791 3.96914 5.2521 3.94629 5.204 3.90661C5.13306 3.8501 5.11623 3.69138 5.11984 3.62405V3.61924V3.61443L5.103 0.542284C5.23046 0.46533 5.37475 0.418436 5.52384 0.40521H5.53346M23.5912 5.2497C23.6681 5.37715 23.715 5.52144 23.7283 5.67054C23.7319 5.84489 23.6393 6.04088 23.5864 6.13948L21.4978 6.16834H21.481L21.4641 6.17314C21.3595 6.1996 21.2717 6.26573 21.2152 6.35832L21.208 6.37034L21.2032 6.38236C21.1659 6.48096 21.1515 6.58437 21.1611 6.69138V8.73186C21.1611 8.89659 21.1287 9.11062 21.077 9.16954C21.0325 9.22124 20.8509 9.25611 20.7054 9.25611L18.8922 9.28256V8.31824H19.6665C19.6822 8.31944 19.6978 8.32064 19.7134 8.32064C19.8433 8.32064 19.9647 8.27134 20.0573 8.18236L20.0645 8.17515L20.0705 8.16673C20.1824 8.02124 20.1727 7.77234 20.1679 7.70982V5.72585V5.71864C20.1559 5.61042 20.1667 5.42405 20.2257 5.3507C20.2749 5.28938 20.4 5.26773 20.4926 5.26773C20.501 5.26773 20.507 5.26773 20.5082 5.26773H20.513H20.5178L23.59 5.2497M0.352302 5.48056L3.42445 5.49739H3.42926H3.43286C3.43407 5.49739 3.43887 5.49739 3.44729 5.49739C3.54829 5.49739 3.67094 5.52385 3.71783 5.58036C3.77675 5.65371 3.78637 5.84008 3.77555 5.9483V5.95551V5.96272V7.93948C3.77074 8.0032 3.75992 8.2509 3.87174 8.39639L3.87895 8.40481L3.88737 8.41202C3.97996 8.501 4.1026 8.5491 4.23246 8.5491C4.24689 8.5491 4.26132 8.5491 4.27575 8.54669H5.17034V9.51222L3.23687 9.48337C3.09499 9.48337 2.91222 9.44729 2.86653 9.39559C2.81483 9.33547 2.78236 9.12144 2.78236 8.95671V6.91984C2.79318 6.81403 2.77875 6.70701 2.74148 6.60962L2.73667 6.59759L2.72946 6.58677C2.67415 6.49539 2.58637 6.42926 2.48176 6.4016L2.46372 6.39679H2.44569L0.358314 6.36793C0.304205 6.26814 0.212823 6.07214 0.21643 5.89779C0.229656 5.7499 0.275348 5.60561 0.352302 5.47695M23.6766 11.2846C23.7619 11.4072 23.8966 11.6453 23.8966 11.8497C23.8966 12.0649 23.7511 12.2814 23.6802 12.3739H18.8922V11.2846H23.6753M5.16673 11.3988V12.4882H0.545889C0.474947 12.3944 0.329456 12.1792 0.329456 11.9651C0.329456 11.7511 0.477352 11.5046 0.550698 11.3988H5.16914M18.8946 14.4192C18.9114 14.424 18.9283 14.4289 18.9451 14.4325L18.9595 14.4361H18.9739L21.0589 14.4661C21.1984 14.4661 21.3848 14.5034 21.4293 14.5551C21.4798 14.6128 21.5134 14.8281 21.5134 14.9928V17.0309C21.5038 17.1331 21.517 17.2389 21.5531 17.3387L21.5579 17.3519L21.5651 17.3639C21.6216 17.4565 21.7094 17.5214 21.8152 17.5491L21.8321 17.5539H21.8489L23.9363 17.584C23.9904 17.6826 24.083 17.8786 24.0794 18.0517C24.0661 18.2008 24.018 18.3463 23.9423 18.4737L20.8701 18.4569H20.8653H20.8617C20.8605 18.4569 20.8557 18.4569 20.8485 18.4569C20.7475 18.4569 20.626 18.4305 20.578 18.3715C20.519 18.2994 20.5094 18.113 20.5202 18.0048V17.9964V17.988V16.0112C20.525 15.9487 20.5347 15.701 20.4228 15.5543L20.4156 15.5447L20.4072 15.5363C20.3146 15.4485 20.1932 15.3992 20.0645 15.3992C20.0489 15.3992 20.0333 15.3992 20.0176 15.4016H18.98C18.9679 15.4016 18.9559 15.4004 18.9427 15.4004C18.9246 15.4004 18.9078 15.4004 18.891 15.404V14.4156M5.16553 14.4409V15.4028H4.67014C4.65451 15.4016 4.63888 15.4004 4.62324 15.4004C4.49338 15.4004 4.37194 15.4497 4.27936 15.5387L4.27214 15.5459L4.26613 15.5543C4.15431 15.6998 4.16392 15.9487 4.16873 16.0112V18.0036C4.17835 18.0854 4.17595 18.291 4.11102 18.3715C4.06413 18.4293 3.94148 18.4557 3.84048 18.4557C3.83326 18.4557 3.82845 18.4557 3.82725 18.4557H3.82244H3.81763L0.746691 18.4725C0.669737 18.3439 0.622843 18.1996 0.609616 18.0505C0.606009 17.8773 0.698594 17.6814 0.7515 17.5816L2.84008 17.5527H2.85811L2.87495 17.5479C2.97715 17.5214 3.06733 17.4529 3.12264 17.3627L3.12986 17.3507L3.13467 17.3387C3.17194 17.2401 3.18637 17.1367 3.17675 17.0297V14.9892C3.17675 14.8244 3.20922 14.6104 3.25972 14.5527C3.30661 14.4998 3.48938 14.4637 3.63246 14.4625L5.16553 14.4397M16.2902 18.897V19.7158C16.277 19.8589 16.3263 20.0008 16.4261 20.1054L16.4333 20.1138L16.4417 20.121C16.5283 20.1872 16.6593 20.2208 16.8325 20.2208C16.8637 20.2208 16.8878 20.2196 16.8986 20.2184H18.8826H18.8898C18.8898 20.2184 18.9258 20.2148 18.9764 20.2148C19.1038 20.2148 19.2096 20.2377 19.2565 20.2761C19.3275 20.3327 19.3431 20.4914 19.3395 20.5587V20.5635V20.5683L19.3563 23.6405C19.2289 23.7162 19.0858 23.7631 18.9355 23.7776H18.9258C18.7539 23.7776 18.5639 23.6874 18.4665 23.6345L18.4377 21.5471V21.5303L18.4329 21.5134C18.4064 21.41 18.3403 21.3222 18.2465 21.2645L18.2357 21.2573L18.2236 21.2525C18.1443 21.2224 18.0625 21.2068 17.9796 21.2068C17.9579 21.2068 17.9363 21.2068 17.9146 21.2104H15.8741C15.7106 21.2104 15.4966 21.178 15.4365 21.1262C15.3836 21.0806 15.3487 20.899 15.3487 20.7547L15.321 18.897H16.2866M9.08296 18.8982L10.0461 18.9066L10.0208 20.6417C10.0208 20.7812 9.98477 20.9675 9.93186 21.012C9.87294 21.0637 9.65891 21.0962 9.49419 21.0962H7.45731C7.43447 21.0938 7.41162 21.0926 7.38998 21.0926C7.30581 21.0926 7.22404 21.107 7.14709 21.1371L7.13507 21.1419L7.12425 21.1491C7.03166 21.2056 6.96673 21.2934 6.93907 21.3992L6.93427 21.416V21.4329L6.9042 23.5202C6.80681 23.5731 6.61683 23.6621 6.44609 23.6621H6.43406C6.28617 23.6489 6.14188 23.602 6.01322 23.5263L6.03006 20.4541V20.4493V20.4457C6.02645 20.3771 6.04328 20.2184 6.11302 20.1607C6.16112 20.1222 6.26693 20.0994 6.39679 20.0994C6.44609 20.0994 6.48096 20.103 6.48096 20.103H6.48817H6.49539H8.47334C8.48537 20.103 8.51062 20.1054 8.54429 20.1054C8.71503 20.1054 8.84489 20.0717 8.93026 20.0068L8.93988 19.9996L8.94829 19.9912C9.04809 19.8854 9.09619 19.7435 9.08296 19.6004V18.8982ZM11.9495 18.9222L13.0389 18.9307V23.5407C12.9451 23.6116 12.7299 23.7571 12.5146 23.7571C12.2994 23.7571 12.0553 23.6092 11.9495 23.5359V18.921M11.6585 0.0721436C11.3134 0.0721436 10.9491 0.36553 10.9491 0.36553V5.67295H12.3271V0.36553C12.3271 0.36553 12.0036 0.0721436 11.6585 0.0721436ZM18.0144 0.14549C17.7258 0.14549 17.412 0.347494 17.412 0.347494L17.382 2.51783C17.3639 2.58397 17.3206 2.64288 17.2617 2.67896C17.2004 2.7018 17.1355 2.71383 17.0705 2.71383C17.0501 2.71383 17.0309 2.71383 17.0104 2.71022H14.9639C14.9483 2.71022 14.5671 2.71022 14.4313 2.82926C14.2942 2.9483 14.293 3.29699 14.293 3.30902L14.2641 5.39399C14.2413 5.48777 14.198 5.57435 14.1367 5.64649C14.1246 5.65731 14.1126 5.66693 14.0994 5.67415H15.6649C15.6481 5.66573 15.6325 5.65611 15.6168 5.64649C15.5483 5.58276 15.5122 5.48898 15.5206 5.39399V4.34309C15.5086 4.23848 15.5435 4.13507 15.6168 4.05932C15.695 4.0004 15.8369 3.99078 15.9186 3.99078C15.9559 3.99078 15.9812 3.99319 15.9812 3.99319H17.9627C17.9627 3.99319 18.0048 3.99799 18.0649 3.99799C18.1719 3.99799 18.3391 3.98357 18.4353 3.90421C18.588 3.78156 18.5723 3.5002 18.5723 3.5002L18.5916 0.349899C18.4268 0.234468 18.2333 0.164729 18.0325 0.147895C18.0265 0.147895 18.0216 0.147895 18.0156 0.147895L18.0144 0.14549ZM5.53226 0.259719C5.53226 0.259719 5.52144 0.259719 5.51543 0.259719C5.31463 0.277755 5.12224 0.347494 4.95751 0.462925L4.97555 3.61323C4.97555 3.61323 4.95992 3.89339 5.11382 4.01603C5.21242 4.09659 5.38076 4.10982 5.48897 4.10982C5.54789 4.10982 5.58757 4.10501 5.58757 4.10501H7.56914C7.56914 4.10501 7.59559 4.1026 7.63407 4.1026C7.71583 4.1026 7.85531 4.11222 7.93226 4.17114C8.00441 4.24569 8.03928 4.3503 8.02845 4.45371V5.50581C8.03447 5.56232 8.02244 5.61884 7.99839 5.66814H9.34389C9.32104 5.62846 9.29699 5.57435 9.28497 5.50581C9.26332 5.37956 9.24288 4.5523 9.25491 3.41964C9.25491 3.40761 9.25491 3.06012 9.11663 2.94108C8.98316 2.82445 8.61282 2.82204 8.58517 2.82204H8.58397H6.53867C6.51944 2.82445 6.5002 2.82565 6.48096 2.82565C6.41483 2.82565 6.34869 2.81363 6.28737 2.78958C6.22725 2.75351 6.18396 2.69579 6.16713 2.62846L6.13707 0.459318C6.13707 0.459318 5.82204 0.256111 5.53346 0.256111L5.53226 0.259719ZM23.6693 5.10541L20.519 5.12465C20.519 5.12465 20.5106 5.12465 20.495 5.12465C20.4252 5.12465 20.216 5.13547 20.115 5.26172C19.9912 5.41443 20.026 5.73547 20.026 5.73547V7.71703C20.026 7.71703 20.0465 7.96593 19.9587 8.08016C19.8938 8.14389 19.806 8.17876 19.7158 8.17876C19.7026 8.17876 19.6894 8.17876 19.6761 8.17635H18.7503V9.43166L20.7102 9.4028C20.7319 9.4028 21.0709 9.4004 21.1876 9.26573C21.309 9.12625 21.3066 8.73306 21.3066 8.73306V6.68657C21.2982 6.6012 21.309 6.51583 21.3391 6.43527C21.3751 6.37515 21.4329 6.33186 21.5002 6.31503L23.6705 6.28497C23.6705 6.28497 23.881 5.95912 23.8725 5.66453C23.8545 5.46493 23.7848 5.27134 23.6693 5.10661V5.10541ZM0.274145 5.33507C0.158715 5.4998 0.0877726 5.69339 0.0721414 5.89298C0.0625221 6.18637 0.274145 6.51343 0.274145 6.51343L2.44328 6.54228C2.51062 6.56152 2.56954 6.60481 2.60561 6.66373C2.63567 6.74308 2.64649 6.82966 2.63687 6.91503V8.96032C2.63687 8.97595 2.63687 9.35711 2.75591 9.49298C2.87495 9.63006 3.22364 9.63126 3.23567 9.63126L5.31342 9.66132V8.40481H4.26853C4.25651 8.40601 4.24328 8.40721 4.23126 8.40721C4.13988 8.40721 4.0521 8.37355 3.98597 8.30982C3.89819 8.19559 3.91984 7.94669 3.91984 7.94669V5.96393C3.91984 5.96393 3.9535 5.64409 3.83086 5.49018C3.72745 5.36393 3.51583 5.35311 3.44729 5.35311C3.43407 5.35311 3.42565 5.35311 3.42565 5.35311L0.275348 5.33507H0.274145ZM23.7499 11.1427H18.7491V12.5206H23.7499C23.7499 12.5206 24.0421 12.1972 24.0421 11.8521C24.0421 11.507 23.7499 11.1427 23.7499 11.1427ZM5.31342 11.2569H0.477352C0.477352 11.2569 0.185167 11.6224 0.185167 11.9675C0.185167 12.3126 0.477352 12.6349 0.477352 12.6349H5.31342V11.2569ZM18.7503 14.1872V15.6228C18.8044 15.5772 18.8741 15.5507 18.9463 15.5507C18.9559 15.5507 18.9667 15.5507 18.9764 15.5519H20.0273C20.0405 15.5507 20.0537 15.5495 20.0669 15.5495C20.1571 15.5495 20.2449 15.5844 20.3098 15.6469C20.3976 15.7623 20.3772 16.0112 20.3772 16.0112V17.9928C20.3772 17.9928 20.3423 18.3126 20.4661 18.4665C20.5683 18.594 20.7812 18.6048 20.8485 18.6048C20.8617 18.6048 20.8701 18.6048 20.8701 18.6048L24.0204 18.6228C24.1359 18.4581 24.2068 18.2645 24.2236 18.0637C24.2321 17.7703 24.0204 17.4445 24.0204 17.4445L21.8513 17.4144C21.784 17.3964 21.725 17.3531 21.689 17.2942C21.6601 17.2136 21.6481 17.1271 21.6577 17.0429V14.9964C21.6577 14.9964 21.6601 14.602 21.5387 14.4637C21.4184 14.3254 21.0589 14.3254 21.0589 14.3254L18.9751 14.2954C18.8922 14.2762 18.8152 14.2401 18.7479 14.1884L18.7503 14.1872ZM5.31342 14.3002L3.63366 14.3242C3.63366 14.3242 3.27535 14.3242 3.1539 14.4637C3.03366 14.602 3.03607 14.9952 3.03607 14.9952V17.0417C3.04449 17.1271 3.03366 17.2124 3.0036 17.293C2.96753 17.3531 2.90861 17.3964 2.84248 17.4132L0.672141 17.4433C0.672141 17.4433 0.461721 17.7691 0.470137 18.0625C0.488173 18.2633 0.557913 18.4569 0.673344 18.6216L3.82244 18.6036C3.82244 18.6036 3.82966 18.6036 3.84409 18.6036C3.91142 18.6036 4.12545 18.5928 4.22765 18.4653C4.3515 18.3126 4.31663 17.9916 4.31663 17.9916V16.01C4.31663 16.01 4.29619 15.7611 4.38396 15.6469C4.44889 15.5832 4.53667 15.5483 4.62685 15.5483C4.64008 15.5483 4.6533 15.5483 4.66653 15.5507H5.31342V14.299V14.3002ZM16.4381 18.7587H15.1816L15.2104 20.7631C15.2104 20.7751 15.2104 21.1226 15.3487 21.2417C15.4822 21.3583 15.8525 21.3607 15.8802 21.3607H17.9279C17.9471 21.3583 17.9663 21.3571 17.9844 21.3571C18.0505 21.3571 18.1154 21.3691 18.178 21.3932C18.2381 21.4293 18.2826 21.487 18.2994 21.5543L18.3295 23.7234C18.3295 23.7234 18.6433 23.9267 18.9319 23.9267C18.9379 23.9267 18.9427 23.9267 18.9487 23.9267C19.1495 23.9086 19.3431 23.8389 19.5066 23.7234L19.4886 20.5731C19.4886 20.5731 19.5054 20.293 19.3515 20.1703C19.2541 20.091 19.0882 20.0765 18.98 20.0765C18.9198 20.0765 18.8778 20.0814 18.8778 20.0814H16.8962C16.8962 20.0814 16.8721 20.0838 16.8349 20.0838C16.7531 20.0838 16.6112 20.0741 16.5319 20.014C16.4597 19.9383 16.4248 19.8349 16.4357 19.7315V18.7611L16.4381 18.7587ZM8.94589 18.7587V19.6136C8.95791 19.7182 8.92184 19.8216 8.8497 19.8974C8.77274 19.9563 8.63326 19.9659 8.5515 19.9659C8.51182 19.9659 8.48657 19.9635 8.48657 19.9635H6.5038C6.5038 19.9635 6.46292 19.9587 6.404 19.9587C6.29699 19.9587 6.12865 19.9731 6.03006 20.0513C5.87855 20.1751 5.89298 20.4553 5.89298 20.4553L5.87495 23.6056C6.03968 23.721 6.23206 23.792 6.43286 23.8076C6.43887 23.8076 6.44609 23.8076 6.4521 23.8076C6.74068 23.8076 7.0533 23.6056 7.0533 23.6056L7.08336 21.4365C7.1014 21.3691 7.14469 21.3102 7.2036 21.2741C7.26493 21.2513 7.32986 21.2393 7.39479 21.2393C7.41523 21.2393 7.43447 21.2393 7.45491 21.2429H9.5014C9.52906 21.2429 9.8994 21.2405 10.0329 21.1238C10.1699 21.006 10.1711 20.6561 10.1711 20.6441L10.1976 18.7659L8.94469 18.7551L8.94589 18.7587ZM11.8124 18.7828V23.6152C11.8124 23.6152 12.178 23.9074 12.5218 23.9074C12.8657 23.9074 13.1904 23.6152 13.1904 23.6152V18.7912H13.0894L11.8112 18.7816L11.8124 18.7828Z" fill="white"/>
<path fill-rule="evenodd" clip-rule="evenodd" d="M6.44614 5.49255H7.73151L7.72911 5.49376H17.6153C18.3463 5.49376 18.9403 6.08654 18.9403 6.81881V17.6272C18.9403 18.3583 18.3475 18.9523 17.6153 18.9523H15.3019L13.1195 18.9883L8.79324 18.9523H6.44614C5.71508 18.9523 5.12109 18.3595 5.12109 17.6272V6.82001C5.12109 6.08774 5.71388 5.49376 6.44614 5.49255ZM6.58443 6.48572H17.4722C17.7485 6.48572 17.9724 6.70967 17.9724 6.98592V17.4961C17.9724 17.7724 17.7485 17.9963 17.4722 17.9963H6.58443C6.30818 17.9963 6.08423 17.7724 6.08423 17.4961V6.98592C6.08423 6.70967 6.30818 6.48572 6.58443 6.48572Z" fill="white"/>
<path d="M12.2681 14.0249C13.2304 14.0249 14.0104 13.2448 14.0104 12.2826C14.0104 11.3203 13.2304 10.5403 12.2681 10.5403C11.3059 10.5403 10.5258 11.3203 10.5258 12.2826C10.5258 13.2448 11.3059 14.0249 12.2681 14.0249Z" fill="white"/>
</g>
<defs>
<clipPath id="clip0_3069_16518">
<rect width="24.297" height="24" fill="white"/>
</clipPath>
</defs>
</svg>
