<svg width="16" height="16" viewBox="0 0 16 16" fill="none" xmlns="http://www.w3.org/2000/svg">
<g clip-path="url(#clip0_2319_13542)">
<path d="M11.9997 2H3.99967C3.63148 2 3.33301 2.29848 3.33301 2.66667V13.3333C3.33301 13.7015 3.63148 14 3.99967 14H11.9997C12.3679 14 12.6663 13.7015 12.6663 13.3333V2.66667C12.6663 2.29848 12.3679 2 11.9997 2Z" stroke="white" stroke-width="1.25" stroke-linecap="round" stroke-linejoin="round"/>
<path d="M7.99967 12.0001C8.36786 12.0001 8.66634 11.7016 8.66634 11.3334C8.66634 10.9652 8.36786 10.6667 7.99967 10.6667C7.63148 10.6667 7.33301 10.9652 7.33301 11.3334C7.33301 11.7016 7.63148 12.0001 7.99967 12.0001Z" stroke="white" stroke-width="1.25" stroke-linecap="round" stroke-linejoin="round"/>
</g>
<defs>
<clipPath id="clip0_2319_13542">
<rect width="16" height="16" fill="white"/>
</clipPath>
</defs>
</svg>
