<svg width="390" height="342" viewBox="0 0 390 342" fill="none" xmlns="http://www.w3.org/2000/svg">
<g filter="url(#filter0_d_2643_16472)">
<rect x="11" y="11" width="360" height="312" rx="10" fill="white" shape-rendering="crispEdges"/>
<rect x="180.754" y="63" width="59.2131" height="59.2131" rx="5" transform="rotate(45 180.754 63)" fill="#2673E5" fill-opacity="0.15"/>
<g clip-path="url(#clip0_2643_16472)">
<path d="M225.613 84C225.613 89.799 220.912 94.5 215.113 94.5C209.314 94.5 204.613 89.799 204.613 84C204.613 78.201 209.314 73.5 215.113 73.5C220.912 73.5 225.613 78.201 225.613 84Z" stroke="#2673E5" stroke-width="4" stroke-linecap="round" stroke-linejoin="round"/>
<path d="M232.613 119C232.613 122.866 229.479 126 225.613 126C221.747 126 218.613 122.866 218.613 119C218.613 115.134 221.747 112 225.613 112C229.479 112 232.613 115.134 232.613 119Z" stroke="#2673E5" stroke-width="4" stroke-linecap="round" stroke-linejoin="round"/>
<path d="M201.113 113.75C201.113 122.448 194.062 129.5 185.363 129.5C176.665 129.5 169.613 122.448 169.613 113.75C169.613 105.052 176.665 98 185.363 98C194.062 98 201.113 105.052 201.113 113.75Z" stroke="#2673E5" stroke-width="4" stroke-linecap="round" stroke-linejoin="round"/>
</g>
<path d="M139.086 172.625H141.07L143.992 180.977L146.914 172.625H148.898L144.789 184H143.195L139.086 172.625ZM138.016 172.625H139.992L140.352 180.766V184H138.016V172.625ZM147.992 172.625H149.977V184H147.633V180.766L147.992 172.625ZM156.613 182.094V178.328C156.613 178.057 156.569 177.826 156.48 177.633C156.392 177.435 156.254 177.281 156.066 177.172C155.884 177.062 155.647 177.008 155.355 177.008C155.105 177.008 154.889 177.052 154.707 177.141C154.525 177.224 154.384 177.346 154.285 177.508C154.186 177.664 154.137 177.849 154.137 178.062H151.887C151.887 177.703 151.97 177.362 152.137 177.039C152.303 176.716 152.545 176.432 152.863 176.188C153.181 175.938 153.558 175.742 153.996 175.602C154.439 175.461 154.933 175.391 155.48 175.391C156.137 175.391 156.72 175.5 157.23 175.719C157.741 175.938 158.142 176.266 158.433 176.703C158.73 177.141 158.879 177.688 158.879 178.344V181.961C158.879 182.424 158.907 182.805 158.965 183.102C159.022 183.393 159.105 183.648 159.215 183.867V184H156.941C156.832 183.771 156.749 183.484 156.691 183.141C156.639 182.792 156.613 182.443 156.613 182.094ZM156.91 178.852L156.926 180.125H155.668C155.371 180.125 155.113 180.159 154.894 180.227C154.676 180.294 154.496 180.391 154.355 180.516C154.215 180.635 154.111 180.776 154.043 180.938C153.98 181.099 153.949 181.276 153.949 181.469C153.949 181.661 153.993 181.836 154.082 181.992C154.17 182.143 154.298 182.263 154.465 182.352C154.631 182.435 154.827 182.477 155.051 182.477C155.389 182.477 155.683 182.409 155.933 182.273C156.183 182.138 156.376 181.971 156.512 181.773C156.652 181.576 156.725 181.388 156.73 181.211L157.324 182.164C157.241 182.378 157.126 182.599 156.98 182.828C156.84 183.057 156.66 183.273 156.441 183.477C156.222 183.674 155.959 183.839 155.652 183.969C155.345 184.094 154.98 184.156 154.558 184.156C154.022 184.156 153.535 184.049 153.097 183.836C152.665 183.617 152.321 183.318 152.066 182.938C151.816 182.552 151.691 182.115 151.691 181.625C151.691 181.182 151.775 180.789 151.941 180.445C152.108 180.102 152.353 179.812 152.676 179.578C153.004 179.339 153.413 179.159 153.902 179.039C154.392 178.914 154.959 178.852 155.605 178.852H156.91ZM162.976 177.352V184H160.726V175.547H162.836L162.976 177.352ZM162.648 179.477H162.039C162.039 178.852 162.119 178.289 162.281 177.789C162.442 177.284 162.669 176.854 162.961 176.5C163.252 176.141 163.599 175.867 164 175.68C164.406 175.487 164.859 175.391 165.359 175.391C165.755 175.391 166.117 175.448 166.445 175.562C166.773 175.677 167.054 175.859 167.289 176.109C167.528 176.359 167.711 176.69 167.836 177.102C167.966 177.513 168.031 178.016 168.031 178.609V184H165.765V178.602C165.765 178.227 165.713 177.935 165.609 177.727C165.505 177.518 165.351 177.372 165.148 177.289C164.95 177.201 164.705 177.156 164.414 177.156C164.112 177.156 163.849 177.216 163.625 177.336C163.406 177.456 163.224 177.622 163.078 177.836C162.937 178.044 162.83 178.289 162.757 178.57C162.685 178.852 162.648 179.154 162.648 179.477ZM174.902 181.977V175.547H177.152V184H175.035L174.902 181.977ZM175.152 180.242L175.816 180.227C175.816 180.789 175.751 181.312 175.621 181.797C175.49 182.276 175.295 182.693 175.035 183.047C174.774 183.396 174.446 183.669 174.05 183.867C173.654 184.06 173.188 184.156 172.652 184.156C172.24 184.156 171.86 184.099 171.511 183.984C171.167 183.865 170.871 183.68 170.621 183.43C170.376 183.174 170.183 182.849 170.042 182.453C169.907 182.052 169.839 181.57 169.839 181.008V175.547H172.089V181.023C172.089 181.273 172.118 181.484 172.175 181.656C172.238 181.828 172.324 181.969 172.433 182.078C172.542 182.188 172.67 182.266 172.816 182.312C172.967 182.359 173.134 182.383 173.316 182.383C173.779 182.383 174.144 182.289 174.41 182.102C174.681 181.914 174.871 181.659 174.98 181.336C175.095 181.008 175.152 180.643 175.152 180.242ZM181.898 184H179.632V174.797C179.632 174.156 179.757 173.617 180.007 173.18C180.262 172.737 180.619 172.404 181.077 172.18C181.541 171.951 182.091 171.836 182.726 171.836C182.934 171.836 183.135 171.852 183.327 171.883C183.52 171.909 183.708 171.943 183.89 171.984L183.867 173.68C183.768 173.654 183.663 173.635 183.554 173.625C183.445 173.615 183.317 173.609 183.171 173.609C182.9 173.609 182.669 173.656 182.476 173.75C182.288 173.839 182.145 173.971 182.046 174.148C181.947 174.326 181.898 174.542 181.898 174.797V184ZM183.585 175.547V177.141H178.374V175.547H183.585ZM189.487 182.094V178.328C189.487 178.057 189.443 177.826 189.355 177.633C189.266 177.435 189.128 177.281 188.941 177.172C188.758 177.062 188.521 177.008 188.23 177.008C187.98 177.008 187.764 177.052 187.581 177.141C187.399 177.224 187.258 177.346 187.159 177.508C187.06 177.664 187.011 177.849 187.011 178.062H184.761C184.761 177.703 184.844 177.362 185.011 177.039C185.178 176.716 185.42 176.432 185.737 176.188C186.055 175.938 186.433 175.742 186.87 175.602C187.313 175.461 187.808 175.391 188.355 175.391C189.011 175.391 189.594 175.5 190.105 175.719C190.615 175.938 191.016 176.266 191.308 176.703C191.605 177.141 191.753 177.688 191.753 178.344V181.961C191.753 182.424 191.782 182.805 191.839 183.102C191.896 183.393 191.98 183.648 192.089 183.867V184H189.816C189.706 183.771 189.623 183.484 189.566 183.141C189.514 182.792 189.487 182.443 189.487 182.094ZM189.784 178.852L189.8 180.125H188.542C188.245 180.125 187.987 180.159 187.769 180.227C187.55 180.294 187.37 180.391 187.23 180.516C187.089 180.635 186.985 180.776 186.917 180.938C186.855 181.099 186.823 181.276 186.823 181.469C186.823 181.661 186.868 181.836 186.956 181.992C187.045 182.143 187.172 182.263 187.339 182.352C187.506 182.435 187.701 182.477 187.925 182.477C188.264 182.477 188.558 182.409 188.808 182.273C189.058 182.138 189.251 181.971 189.386 181.773C189.527 181.576 189.599 181.388 189.605 181.211L190.198 182.164C190.115 182.378 190.001 182.599 189.855 182.828C189.714 183.057 189.534 183.273 189.316 183.477C189.097 183.674 188.834 183.839 188.527 183.969C188.219 184.094 187.855 184.156 187.433 184.156C186.896 184.156 186.409 184.049 185.972 183.836C185.54 183.617 185.196 183.318 184.941 182.938C184.691 182.552 184.566 182.115 184.566 181.625C184.566 181.182 184.649 180.789 184.816 180.445C184.982 180.102 185.227 179.812 185.55 179.578C185.878 179.339 186.287 179.159 186.777 179.039C187.266 178.914 187.834 178.852 188.48 178.852H189.784ZM197.14 182.398C197.416 182.398 197.661 182.346 197.874 182.242C198.088 182.133 198.254 181.982 198.374 181.789C198.499 181.591 198.564 181.359 198.569 181.094H200.687C200.681 181.688 200.522 182.216 200.21 182.68C199.897 183.138 199.478 183.5 198.952 183.766C198.426 184.026 197.838 184.156 197.187 184.156C196.53 184.156 195.957 184.047 195.468 183.828C194.983 183.609 194.58 183.307 194.257 182.922C193.934 182.531 193.692 182.078 193.53 181.562C193.369 181.042 193.288 180.484 193.288 179.891V179.664C193.288 179.065 193.369 178.508 193.53 177.992C193.692 177.471 193.934 177.018 194.257 176.633C194.58 176.242 194.983 175.938 195.468 175.719C195.952 175.5 196.52 175.391 197.171 175.391C197.864 175.391 198.47 175.523 198.991 175.789C199.517 176.055 199.929 176.435 200.226 176.93C200.528 177.419 200.681 178 200.687 178.672H198.569C198.564 178.391 198.504 178.135 198.39 177.906C198.28 177.677 198.119 177.495 197.905 177.359C197.697 177.219 197.439 177.148 197.132 177.148C196.804 177.148 196.536 177.219 196.327 177.359C196.119 177.495 195.957 177.682 195.843 177.922C195.728 178.156 195.647 178.424 195.601 178.727C195.559 179.023 195.538 179.336 195.538 179.664V179.891C195.538 180.219 195.559 180.534 195.601 180.836C195.642 181.138 195.72 181.406 195.835 181.641C195.955 181.875 196.119 182.06 196.327 182.195C196.536 182.331 196.806 182.398 197.14 182.398ZM206.292 175.547V177.141H201.37V175.547H206.292ZM202.589 173.461H204.839V181.453C204.839 181.698 204.87 181.885 204.933 182.016C205 182.146 205.099 182.237 205.229 182.289C205.36 182.336 205.524 182.359 205.722 182.359C205.862 182.359 205.987 182.354 206.097 182.344C206.211 182.328 206.308 182.312 206.386 182.297L206.393 183.953C206.201 184.016 205.992 184.065 205.768 184.102C205.544 184.138 205.297 184.156 205.026 184.156C204.531 184.156 204.099 184.076 203.729 183.914C203.365 183.747 203.084 183.482 202.886 183.117C202.688 182.753 202.589 182.273 202.589 181.68V173.461ZM212.733 181.977V175.547H214.983V184H212.866L212.733 181.977ZM212.983 180.242L213.647 180.227C213.647 180.789 213.582 181.312 213.452 181.797C213.322 182.276 213.126 182.693 212.866 183.047C212.606 183.396 212.277 183.669 211.882 183.867C211.486 184.06 211.02 184.156 210.483 184.156C210.072 184.156 209.691 184.099 209.342 183.984C208.999 183.865 208.702 183.68 208.452 183.43C208.207 183.174 208.014 182.849 207.874 182.453C207.738 182.052 207.671 181.57 207.671 181.008V175.547H209.921V181.023C209.921 181.273 209.949 181.484 210.007 181.656C210.069 181.828 210.155 181.969 210.264 182.078C210.374 182.188 210.501 182.266 210.647 182.312C210.798 182.359 210.965 182.383 211.147 182.383C211.611 182.383 211.975 182.289 212.241 182.102C212.512 181.914 212.702 181.659 212.811 181.336C212.926 181.008 212.983 180.643 212.983 180.242ZM219.112 177.391V184H216.862V175.547H218.979L219.112 177.391ZM221.659 175.492L221.62 177.578C221.51 177.562 221.378 177.549 221.221 177.539C221.07 177.523 220.932 177.516 220.807 177.516C220.489 177.516 220.213 177.557 219.979 177.641C219.75 177.719 219.557 177.836 219.401 177.992C219.25 178.148 219.135 178.339 219.057 178.562C218.984 178.786 218.943 179.042 218.932 179.328L218.479 179.188C218.479 178.641 218.534 178.138 218.643 177.68C218.753 177.216 218.911 176.812 219.12 176.469C219.333 176.125 219.594 175.859 219.901 175.672C220.208 175.484 220.56 175.391 220.956 175.391C221.081 175.391 221.208 175.401 221.338 175.422C221.469 175.438 221.575 175.461 221.659 175.492ZM225.256 175.547V184H222.998V175.547H225.256ZM222.858 173.344C222.858 173.016 222.972 172.745 223.202 172.531C223.431 172.318 223.738 172.211 224.123 172.211C224.504 172.211 224.808 172.318 225.037 172.531C225.272 172.745 225.389 173.016 225.389 173.344C225.389 173.672 225.272 173.943 225.037 174.156C224.808 174.37 224.504 174.477 224.123 174.477C223.738 174.477 223.431 174.37 223.202 174.156C222.972 173.943 222.858 173.672 222.858 173.344ZM229.479 177.352V184H227.229V175.547H229.338L229.479 177.352ZM229.151 179.477H228.541C228.541 178.852 228.622 178.289 228.783 177.789C228.945 177.284 229.171 176.854 229.463 176.5C229.755 176.141 230.101 175.867 230.502 175.68C230.908 175.487 231.362 175.391 231.862 175.391C232.257 175.391 232.619 175.448 232.948 175.562C233.276 175.677 233.557 175.859 233.791 176.109C234.031 176.359 234.213 176.69 234.338 177.102C234.468 177.513 234.533 178.016 234.533 178.609V184H232.268V178.602C232.268 178.227 232.216 177.935 232.112 177.727C232.007 177.518 231.854 177.372 231.651 177.289C231.453 177.201 231.208 177.156 230.916 177.156C230.614 177.156 230.351 177.216 230.127 177.336C229.908 177.456 229.726 177.622 229.58 177.836C229.44 178.044 229.333 178.289 229.26 178.57C229.187 178.852 229.151 179.154 229.151 179.477ZM241.756 175.547H243.795V183.719C243.795 184.49 243.623 185.143 243.279 185.68C242.941 186.221 242.467 186.63 241.857 186.906C241.248 187.188 240.54 187.328 239.732 187.328C239.378 187.328 239.003 187.281 238.607 187.188C238.217 187.094 237.842 186.948 237.482 186.75C237.128 186.552 236.831 186.302 236.592 186L237.584 184.672C237.844 184.974 238.147 185.208 238.49 185.375C238.834 185.547 239.214 185.633 239.631 185.633C240.037 185.633 240.381 185.557 240.662 185.406C240.943 185.26 241.16 185.044 241.311 184.758C241.462 184.477 241.537 184.135 241.537 183.734V177.5L241.756 175.547ZM236.068 179.875V179.711C236.068 179.065 236.147 178.479 236.303 177.953C236.464 177.422 236.691 176.966 236.982 176.586C237.279 176.206 237.639 175.911 238.061 175.703C238.482 175.495 238.959 175.391 239.49 175.391C240.053 175.391 240.524 175.495 240.904 175.703C241.285 175.911 241.597 176.208 241.842 176.594C242.087 176.974 242.277 177.424 242.412 177.945C242.553 178.461 242.662 179.026 242.74 179.641V180C242.662 180.589 242.545 181.135 242.389 181.641C242.232 182.146 242.027 182.589 241.772 182.969C241.516 183.344 241.199 183.635 240.818 183.844C240.443 184.052 239.996 184.156 239.475 184.156C238.954 184.156 238.482 184.049 238.061 183.836C237.644 183.622 237.287 183.323 236.99 182.938C236.693 182.552 236.464 182.099 236.303 181.578C236.147 181.057 236.068 180.49 236.068 179.875ZM238.318 179.711V179.875C238.318 180.224 238.352 180.549 238.42 180.852C238.488 181.154 238.592 181.422 238.732 181.656C238.878 181.885 239.058 182.065 239.272 182.195C239.49 182.32 239.748 182.383 240.045 182.383C240.456 182.383 240.792 182.297 241.053 182.125C241.313 181.948 241.509 181.706 241.639 181.398C241.769 181.091 241.844 180.737 241.865 180.336V179.312C241.855 178.984 241.811 178.69 241.732 178.43C241.654 178.164 241.545 177.938 241.404 177.75C241.264 177.562 241.081 177.417 240.857 177.312C240.634 177.208 240.368 177.156 240.061 177.156C239.764 177.156 239.506 177.224 239.287 177.359C239.074 177.49 238.894 177.669 238.748 177.898C238.607 178.128 238.501 178.398 238.428 178.711C238.355 179.018 238.318 179.352 238.318 179.711Z" fill="black"/>
<path d="M138.227 206.047H139.758L142.636 213.724L145.507 206.047H147.038L143.237 216H142.021L138.227 206.047ZM137.529 206.047H138.985L139.238 212.691V216H137.529V206.047ZM146.279 206.047H147.742V216H146.026V212.691L146.279 206.047ZM153.785 214.517V210.989C153.785 210.725 153.737 210.497 153.642 210.306C153.546 210.114 153.4 209.966 153.204 209.861C153.013 209.757 152.771 209.704 152.479 209.704C152.211 209.704 151.978 209.75 151.782 209.841C151.586 209.932 151.434 210.055 151.324 210.21C151.215 210.365 151.16 210.54 151.16 210.736H149.52C149.52 210.445 149.59 210.162 149.731 209.889C149.873 209.615 150.078 209.371 150.347 209.157C150.616 208.943 150.937 208.774 151.311 208.651C151.684 208.528 152.104 208.467 152.568 208.467C153.124 208.467 153.617 208.56 154.045 208.747C154.478 208.934 154.817 209.216 155.063 209.595C155.314 209.968 155.439 210.438 155.439 211.003V214.291C155.439 214.628 155.462 214.931 155.508 215.2C155.558 215.465 155.629 215.695 155.72 215.891V216H154.031C153.954 215.822 153.892 215.597 153.847 215.323C153.806 215.045 153.785 214.776 153.785 214.517ZM154.024 211.502L154.038 212.521H152.855C152.55 212.521 152.281 212.55 152.049 212.609C151.816 212.664 151.623 212.746 151.468 212.855C151.313 212.965 151.197 213.097 151.119 213.252C151.042 213.407 151.003 213.582 151.003 213.778C151.003 213.974 151.049 214.154 151.14 214.318C151.231 214.478 151.363 214.603 151.536 214.694C151.714 214.785 151.928 214.831 152.179 214.831C152.516 214.831 152.81 214.763 153.061 214.626C153.316 214.485 153.516 214.314 153.662 214.113C153.808 213.908 153.885 213.715 153.895 213.532L154.428 214.264C154.373 214.451 154.28 214.651 154.147 214.865C154.015 215.079 153.842 215.285 153.628 215.48C153.418 215.672 153.165 215.829 152.869 215.952C152.577 216.075 152.24 216.137 151.857 216.137C151.374 216.137 150.944 216.041 150.565 215.85C150.187 215.654 149.891 215.392 149.677 215.063C149.463 214.731 149.355 214.355 149.355 213.936C149.355 213.544 149.428 213.197 149.574 212.896C149.725 212.591 149.943 212.336 150.23 212.131C150.522 211.926 150.878 211.771 151.297 211.666C151.716 211.557 152.195 211.502 152.732 211.502H154.024ZM160.553 208.604V209.807H156.383V208.604H160.553ZM157.586 206.792H159.233V213.956C159.233 214.184 159.265 214.359 159.329 214.482C159.397 214.601 159.491 214.681 159.609 214.722C159.728 214.763 159.867 214.783 160.026 214.783C160.14 214.783 160.25 214.776 160.354 214.763C160.459 214.749 160.544 214.735 160.607 214.722L160.614 215.979C160.478 216.021 160.318 216.057 160.136 216.089C159.958 216.121 159.753 216.137 159.521 216.137C159.142 216.137 158.807 216.071 158.516 215.938C158.224 215.802 157.996 215.581 157.832 215.275C157.668 214.97 157.586 214.564 157.586 214.059V206.792ZM165.085 216.137C164.538 216.137 164.044 216.048 163.602 215.87C163.164 215.688 162.79 215.435 162.48 215.111C162.175 214.788 161.94 214.407 161.776 213.97C161.612 213.532 161.53 213.061 161.53 212.555V212.281C161.53 211.702 161.615 211.178 161.783 210.709C161.952 210.24 162.187 209.839 162.487 209.506C162.788 209.169 163.144 208.911 163.554 208.733C163.964 208.556 164.408 208.467 164.887 208.467C165.415 208.467 165.878 208.556 166.274 208.733C166.671 208.911 166.999 209.162 167.259 209.485C167.523 209.804 167.719 210.185 167.847 210.627C167.979 211.069 168.045 211.557 168.045 212.09V212.794H162.33V211.611H166.418V211.481C166.409 211.185 166.35 210.907 166.24 210.647C166.135 210.388 165.974 210.178 165.755 210.019C165.536 209.859 165.244 209.779 164.88 209.779C164.606 209.779 164.363 209.839 164.148 209.957C163.939 210.071 163.763 210.237 163.622 210.456C163.481 210.675 163.371 210.939 163.294 211.249C163.221 211.554 163.185 211.898 163.185 212.281V212.555C163.185 212.878 163.228 213.179 163.314 213.457C163.406 213.73 163.538 213.97 163.711 214.175C163.884 214.38 164.094 214.542 164.34 214.66C164.586 214.774 164.866 214.831 165.181 214.831C165.577 214.831 165.93 214.751 166.24 214.592C166.55 214.432 166.819 214.207 167.047 213.915L167.915 214.756C167.756 214.988 167.548 215.212 167.293 215.426C167.038 215.635 166.726 215.806 166.356 215.938C165.992 216.071 165.568 216.137 165.085 216.137ZM170.984 210.012V216H169.337V208.604H170.909L170.984 210.012ZM173.247 208.556L173.233 210.087C173.133 210.069 173.024 210.055 172.905 210.046C172.791 210.037 172.677 210.032 172.563 210.032C172.281 210.032 172.033 210.073 171.818 210.155C171.604 210.233 171.424 210.347 171.278 210.497C171.137 210.643 171.028 210.821 170.95 211.03C170.873 211.24 170.827 211.475 170.813 211.734L170.438 211.762C170.438 211.297 170.483 210.866 170.574 210.47C170.665 210.073 170.802 209.725 170.984 209.424C171.171 209.123 171.404 208.888 171.682 208.72C171.964 208.551 172.29 208.467 172.659 208.467C172.759 208.467 172.867 208.476 172.98 208.494C173.099 208.512 173.188 208.533 173.247 208.556ZM176.043 208.604V216H174.389V208.604H176.043ZM174.279 206.662C174.279 206.411 174.361 206.204 174.525 206.04C174.694 205.871 174.926 205.787 175.223 205.787C175.514 205.787 175.744 205.871 175.913 206.04C176.082 206.204 176.166 206.411 176.166 206.662C176.166 206.908 176.082 207.113 175.913 207.277C175.744 207.441 175.514 207.523 175.223 207.523C174.926 207.523 174.694 207.441 174.525 207.277C174.361 207.113 174.279 206.908 174.279 206.662ZM182.018 214.517V210.989C182.018 210.725 181.97 210.497 181.874 210.306C181.778 210.114 181.632 209.966 181.437 209.861C181.245 209.757 181.004 209.704 180.712 209.704C180.443 209.704 180.211 209.75 180.015 209.841C179.819 209.932 179.666 210.055 179.557 210.21C179.447 210.365 179.393 210.54 179.393 210.736H177.752C177.752 210.445 177.823 210.162 177.964 209.889C178.105 209.615 178.31 209.371 178.579 209.157C178.848 208.943 179.169 208.774 179.543 208.651C179.917 208.528 180.336 208.467 180.801 208.467C181.357 208.467 181.849 208.56 182.277 208.747C182.71 208.934 183.05 209.216 183.296 209.595C183.547 209.968 183.672 210.438 183.672 211.003V214.291C183.672 214.628 183.695 214.931 183.74 215.2C183.79 215.465 183.861 215.695 183.952 215.891V216H182.264C182.186 215.822 182.125 215.597 182.079 215.323C182.038 215.045 182.018 214.776 182.018 214.517ZM182.257 211.502L182.271 212.521H181.088C180.783 212.521 180.514 212.55 180.281 212.609C180.049 212.664 179.855 212.746 179.7 212.855C179.545 212.965 179.429 213.097 179.352 213.252C179.274 213.407 179.235 213.582 179.235 213.778C179.235 213.974 179.281 214.154 179.372 214.318C179.463 214.478 179.595 214.603 179.769 214.694C179.946 214.785 180.16 214.831 180.411 214.831C180.748 214.831 181.042 214.763 181.293 214.626C181.548 214.485 181.749 214.314 181.895 214.113C182.04 213.908 182.118 213.715 182.127 213.532L182.66 214.264C182.605 214.451 182.512 214.651 182.38 214.865C182.248 215.079 182.075 215.285 181.86 215.48C181.651 215.672 181.398 215.829 181.102 215.952C180.81 216.075 180.473 216.137 180.09 216.137C179.607 216.137 179.176 216.041 178.798 215.85C178.42 215.654 178.123 215.392 177.909 215.063C177.695 214.731 177.588 214.355 177.588 213.936C177.588 213.544 177.661 213.197 177.807 212.896C177.957 212.591 178.176 212.336 178.463 212.131C178.755 211.926 179.11 211.771 179.529 211.666C179.949 211.557 180.427 211.502 180.965 211.502H182.257ZM187.158 205.5V216H185.504V205.5H187.158ZM194.076 205.5V216H192.436V205.5H194.076ZM193.789 212.028L193.256 212.021C193.26 211.511 193.331 211.039 193.468 210.606C193.609 210.174 193.805 209.798 194.056 209.479C194.311 209.155 194.616 208.907 194.972 208.733C195.327 208.556 195.721 208.467 196.154 208.467C196.519 208.467 196.847 208.517 197.139 208.617C197.435 208.717 197.69 208.879 197.904 209.103C198.118 209.321 198.28 209.608 198.39 209.964C198.504 210.315 198.561 210.743 198.561 211.249V216H196.906V211.235C196.906 210.88 196.854 210.597 196.749 210.388C196.649 210.178 196.501 210.028 196.305 209.937C196.109 209.841 195.869 209.793 195.587 209.793C195.291 209.793 195.029 209.852 194.801 209.971C194.577 210.089 194.391 210.251 194.24 210.456C194.09 210.661 193.976 210.898 193.898 211.167C193.826 211.436 193.789 211.723 193.789 212.028ZM204.398 214.517V210.989C204.398 210.725 204.351 210.497 204.255 210.306C204.159 210.114 204.013 209.966 203.817 209.861C203.626 209.757 203.384 209.704 203.093 209.704C202.824 209.704 202.591 209.75 202.396 209.841C202.2 209.932 202.047 210.055 201.938 210.21C201.828 210.365 201.773 210.54 201.773 210.736H200.133C200.133 210.445 200.203 210.162 200.345 209.889C200.486 209.615 200.691 209.371 200.96 209.157C201.229 208.943 201.55 208.774 201.924 208.651C202.298 208.528 202.717 208.467 203.182 208.467C203.738 208.467 204.23 208.56 204.658 208.747C205.091 208.934 205.431 209.216 205.677 209.595C205.927 209.968 206.053 210.438 206.053 211.003V214.291C206.053 214.628 206.076 214.931 206.121 215.2C206.171 215.465 206.242 215.695 206.333 215.891V216H204.645C204.567 215.822 204.506 215.597 204.46 215.323C204.419 215.045 204.398 214.776 204.398 214.517ZM204.638 211.502L204.651 212.521H203.469C203.163 212.521 202.895 212.55 202.662 212.609C202.43 212.664 202.236 212.746 202.081 212.855C201.926 212.965 201.81 213.097 201.732 213.252C201.655 213.407 201.616 213.582 201.616 213.778C201.616 213.974 201.662 214.154 201.753 214.318C201.844 214.478 201.976 214.603 202.149 214.694C202.327 214.785 202.541 214.831 202.792 214.831C203.129 214.831 203.423 214.763 203.674 214.626C203.929 214.485 204.13 214.314 204.275 214.113C204.421 213.908 204.499 213.715 204.508 213.532L205.041 214.264C204.986 214.451 204.893 214.651 204.761 214.865C204.629 215.079 204.455 215.285 204.241 215.48C204.032 215.672 203.779 215.829 203.482 215.952C203.191 216.075 202.854 216.137 202.471 216.137C201.988 216.137 201.557 216.041 201.179 215.85C200.8 215.654 200.504 215.392 200.29 215.063C200.076 214.731 199.969 214.355 199.969 213.936C199.969 213.544 200.042 213.197 200.188 212.896C200.338 212.591 200.557 212.336 200.844 212.131C201.135 211.926 201.491 211.771 201.91 211.666C202.329 211.557 202.808 211.502 203.346 211.502H204.638ZM209.409 210.183V216H207.762V208.604H209.313L209.409 210.183ZM209.115 212.028L208.582 212.021C208.587 211.497 208.66 211.017 208.801 210.579C208.947 210.142 209.147 209.766 209.402 209.451C209.662 209.137 209.972 208.895 210.332 208.727C210.692 208.553 211.093 208.467 211.535 208.467C211.891 208.467 212.212 208.517 212.499 208.617C212.791 208.713 213.039 208.87 213.244 209.089C213.454 209.308 213.613 209.592 213.723 209.943C213.832 210.29 213.887 210.716 213.887 211.222V216H212.232V211.215C212.232 210.859 212.18 210.579 212.075 210.374C211.975 210.164 211.827 210.016 211.631 209.93C211.439 209.839 211.2 209.793 210.913 209.793C210.631 209.793 210.378 209.852 210.154 209.971C209.931 210.089 209.742 210.251 209.587 210.456C209.437 210.661 209.32 210.898 209.238 211.167C209.156 211.436 209.115 211.723 209.115 212.028ZM220.08 214.469V205.5H221.734V216H220.237L220.08 214.469ZM215.268 212.384V212.24C215.268 211.68 215.334 211.169 215.466 210.709C215.598 210.244 215.789 209.845 216.04 209.513C216.291 209.175 216.596 208.918 216.956 208.74C217.316 208.558 217.722 208.467 218.173 208.467C218.619 208.467 219.011 208.553 219.349 208.727C219.686 208.9 219.973 209.148 220.21 209.472C220.447 209.791 220.636 210.174 220.777 210.62C220.919 211.062 221.019 211.554 221.078 212.097V212.555C221.019 213.083 220.919 213.566 220.777 214.004C220.636 214.441 220.447 214.82 220.21 215.139C219.973 215.458 219.684 215.704 219.342 215.877C219.005 216.05 218.61 216.137 218.159 216.137C217.713 216.137 217.309 216.043 216.949 215.856C216.594 215.67 216.291 215.408 216.04 215.07C215.789 214.733 215.598 214.337 215.466 213.881C215.334 213.421 215.268 212.922 215.268 212.384ZM216.915 212.24V212.384C216.915 212.721 216.945 213.035 217.004 213.327C217.068 213.619 217.166 213.876 217.298 214.1C217.43 214.318 217.601 214.492 217.811 214.619C218.025 214.742 218.28 214.804 218.576 214.804C218.95 214.804 219.257 214.722 219.499 214.558C219.741 214.394 219.93 214.173 220.066 213.895C220.208 213.612 220.303 213.298 220.354 212.951V211.714C220.326 211.445 220.269 211.194 220.183 210.962C220.101 210.729 219.989 210.527 219.848 210.354C219.706 210.176 219.531 210.039 219.321 209.943C219.116 209.843 218.872 209.793 218.59 209.793C218.289 209.793 218.034 209.857 217.824 209.984C217.615 210.112 217.441 210.287 217.305 210.511C217.173 210.734 217.075 210.994 217.011 211.29C216.947 211.586 216.915 211.903 216.915 212.24ZM225.221 205.5V216H223.566V205.5H225.221ZM228.789 208.604V216H227.135V208.604H228.789ZM227.025 206.662C227.025 206.411 227.107 206.204 227.271 206.04C227.44 205.871 227.673 205.787 227.969 205.787C228.26 205.787 228.491 205.871 228.659 206.04C228.828 206.204 228.912 206.411 228.912 206.662C228.912 206.908 228.828 207.113 228.659 207.277C228.491 207.441 228.26 207.523 227.969 207.523C227.673 207.523 227.44 207.441 227.271 207.277C227.107 207.113 227.025 206.908 227.025 206.662ZM232.228 210.183V216H230.58V208.604H232.132L232.228 210.183ZM231.934 212.028L231.4 212.021C231.405 211.497 231.478 211.017 231.619 210.579C231.765 210.142 231.965 209.766 232.221 209.451C232.48 209.137 232.79 208.895 233.15 208.727C233.51 208.553 233.911 208.467 234.354 208.467C234.709 208.467 235.03 208.517 235.317 208.617C235.609 208.713 235.857 208.87 236.062 209.089C236.272 209.308 236.432 209.592 236.541 209.943C236.65 210.29 236.705 210.716 236.705 211.222V216H235.051V211.215C235.051 210.859 234.998 210.579 234.894 210.374C234.793 210.164 234.645 210.016 234.449 209.93C234.258 209.839 234.019 209.793 233.731 209.793C233.449 209.793 233.196 209.852 232.973 209.971C232.749 210.089 232.56 210.251 232.405 210.456C232.255 210.661 232.139 210.898 232.057 211.167C231.975 211.436 231.934 211.723 231.934 212.028ZM243.124 208.604H244.621V215.795C244.621 216.46 244.48 217.025 244.197 217.49C243.915 217.955 243.521 218.308 243.015 218.55C242.509 218.796 241.923 218.919 241.258 218.919C240.975 218.919 240.661 218.878 240.314 218.796C239.973 218.714 239.64 218.582 239.316 218.399C238.997 218.222 238.731 217.987 238.517 217.695L239.289 216.725C239.553 217.039 239.845 217.269 240.164 217.415C240.483 217.561 240.818 217.634 241.169 217.634C241.547 217.634 241.868 217.563 242.133 217.422C242.402 217.285 242.609 217.082 242.755 216.813C242.901 216.545 242.974 216.216 242.974 215.829V210.278L243.124 208.604ZM238.1 212.384V212.24C238.1 211.68 238.168 211.169 238.305 210.709C238.441 210.244 238.637 209.845 238.893 209.513C239.148 209.175 239.458 208.918 239.822 208.74C240.187 208.558 240.599 208.467 241.06 208.467C241.538 208.467 241.946 208.553 242.283 208.727C242.625 208.9 242.91 209.148 243.138 209.472C243.366 209.791 243.543 210.174 243.671 210.62C243.803 211.062 243.901 211.554 243.965 212.097V212.555C243.906 213.083 243.805 213.566 243.664 214.004C243.523 214.441 243.336 214.82 243.104 215.139C242.871 215.458 242.584 215.704 242.242 215.877C241.905 216.05 241.506 216.137 241.046 216.137C240.595 216.137 240.187 216.043 239.822 215.856C239.462 215.67 239.152 215.408 238.893 215.07C238.637 214.733 238.441 214.337 238.305 213.881C238.168 213.421 238.1 212.922 238.1 212.384ZM239.747 212.24V212.384C239.747 212.721 239.779 213.035 239.843 213.327C239.911 213.619 240.014 213.876 240.15 214.1C240.292 214.318 240.469 214.492 240.684 214.619C240.902 214.742 241.16 214.804 241.456 214.804C241.843 214.804 242.16 214.722 242.406 214.558C242.657 214.394 242.848 214.173 242.98 213.895C243.117 213.612 243.213 213.298 243.268 212.951V211.714C243.24 211.445 243.183 211.194 243.097 210.962C243.015 210.729 242.903 210.527 242.762 210.354C242.62 210.176 242.443 210.039 242.229 209.943C242.014 209.843 241.761 209.793 241.47 209.793C241.174 209.793 240.916 209.857 240.697 209.984C240.479 210.112 240.299 210.287 240.157 210.511C240.021 210.734 239.918 210.994 239.85 211.29C239.781 211.586 239.747 211.903 239.747 212.24ZM123.051 237.997C123.051 237.833 123.01 237.685 122.928 237.553C122.846 237.416 122.688 237.293 122.456 237.184C122.228 237.074 121.891 236.974 121.444 236.883C121.052 236.796 120.692 236.694 120.364 236.575C120.041 236.452 119.763 236.304 119.53 236.131C119.298 235.958 119.118 235.753 118.99 235.516C118.863 235.279 118.799 235.005 118.799 234.695C118.799 234.395 118.865 234.11 118.997 233.841C119.129 233.572 119.318 233.335 119.564 233.13C119.811 232.925 120.109 232.763 120.46 232.645C120.815 232.526 121.212 232.467 121.649 232.467C122.269 232.467 122.8 232.572 123.242 232.781C123.689 232.986 124.031 233.267 124.268 233.622C124.505 233.973 124.623 234.369 124.623 234.812H122.976C122.976 234.616 122.925 234.433 122.825 234.265C122.729 234.091 122.584 233.952 122.388 233.848C122.192 233.738 121.946 233.684 121.649 233.684C121.367 233.684 121.132 233.729 120.945 233.82C120.763 233.907 120.626 234.021 120.535 234.162C120.449 234.303 120.405 234.458 120.405 234.627C120.405 234.75 120.428 234.862 120.474 234.962C120.524 235.058 120.606 235.146 120.72 235.229C120.834 235.306 120.989 235.379 121.185 235.447C121.385 235.516 121.636 235.582 121.937 235.646C122.502 235.764 122.987 235.917 123.393 236.104C123.803 236.286 124.117 236.523 124.336 236.814C124.555 237.102 124.664 237.466 124.664 237.908C124.664 238.236 124.593 238.537 124.452 238.811C124.315 239.079 124.115 239.314 123.851 239.515C123.586 239.711 123.27 239.863 122.9 239.973C122.536 240.082 122.126 240.137 121.67 240.137C121 240.137 120.433 240.018 119.968 239.781C119.503 239.54 119.15 239.232 118.908 238.858C118.671 238.48 118.553 238.088 118.553 237.683H120.146C120.164 237.988 120.248 238.232 120.398 238.414C120.553 238.592 120.745 238.722 120.973 238.804C121.205 238.881 121.444 238.92 121.69 238.92C121.987 238.92 122.235 238.881 122.436 238.804C122.636 238.722 122.789 238.612 122.894 238.476C122.998 238.334 123.051 238.175 123.051 237.997ZM129.497 232.604V233.807H125.327V232.604H129.497ZM126.53 230.792H128.178V237.956C128.178 238.184 128.21 238.359 128.273 238.482C128.342 238.601 128.435 238.681 128.554 238.722C128.672 238.763 128.811 238.783 128.971 238.783C129.085 238.783 129.194 238.776 129.299 238.763C129.404 238.749 129.488 238.735 129.552 238.722L129.559 239.979C129.422 240.021 129.262 240.057 129.08 240.089C128.902 240.121 128.697 240.137 128.465 240.137C128.087 240.137 127.752 240.071 127.46 239.938C127.168 239.802 126.94 239.581 126.776 239.275C126.612 238.97 126.53 238.564 126.53 238.059V230.792ZM132.423 234.012V240H130.775V232.604H132.348L132.423 234.012ZM134.686 232.556L134.672 234.087C134.572 234.069 134.462 234.055 134.344 234.046C134.23 234.037 134.116 234.032 134.002 234.032C133.719 234.032 133.471 234.073 133.257 234.155C133.043 234.233 132.863 234.347 132.717 234.497C132.576 234.643 132.466 234.821 132.389 235.03C132.311 235.24 132.266 235.475 132.252 235.734L131.876 235.762C131.876 235.297 131.922 234.866 132.013 234.47C132.104 234.073 132.241 233.725 132.423 233.424C132.61 233.123 132.842 232.888 133.12 232.72C133.403 232.551 133.729 232.467 134.098 232.467C134.198 232.467 134.305 232.476 134.419 232.494C134.537 232.512 134.626 232.533 134.686 232.556ZM140.168 238.257V232.604H141.822V240H140.264L140.168 238.257ZM140.4 236.719L140.954 236.705C140.954 237.202 140.899 237.66 140.79 238.079C140.681 238.494 140.512 238.856 140.284 239.166C140.056 239.471 139.765 239.711 139.409 239.884C139.054 240.052 138.628 240.137 138.131 240.137C137.771 240.137 137.44 240.084 137.14 239.979C136.839 239.875 136.579 239.713 136.36 239.494C136.146 239.275 135.98 238.991 135.861 238.64C135.743 238.289 135.684 237.869 135.684 237.382V232.604H137.331V237.396C137.331 237.664 137.363 237.89 137.427 238.072C137.491 238.25 137.577 238.394 137.687 238.503C137.796 238.612 137.924 238.69 138.069 238.735C138.215 238.781 138.37 238.804 138.534 238.804C139.004 238.804 139.373 238.713 139.642 238.53C139.915 238.343 140.109 238.093 140.223 237.778C140.341 237.464 140.4 237.111 140.4 236.719ZM146.532 238.824C146.801 238.824 147.043 238.772 147.257 238.667C147.476 238.558 147.651 238.407 147.783 238.216C147.92 238.024 147.995 237.803 148.009 237.553H149.561C149.551 238.031 149.41 238.466 149.137 238.858C148.863 239.25 148.501 239.562 148.05 239.795C147.599 240.023 147.1 240.137 146.553 240.137C145.988 240.137 145.495 240.041 145.076 239.85C144.657 239.654 144.308 239.385 144.03 239.043C143.752 238.701 143.543 238.307 143.401 237.86C143.265 237.414 143.196 236.935 143.196 236.425V236.186C143.196 235.675 143.265 235.197 143.401 234.75C143.543 234.299 143.752 233.902 144.03 233.561C144.308 233.219 144.657 232.952 145.076 232.761C145.495 232.565 145.985 232.467 146.546 232.467C147.138 232.467 147.658 232.585 148.104 232.822C148.551 233.055 148.902 233.381 149.157 233.8C149.417 234.215 149.551 234.698 149.561 235.249H148.009C147.995 234.976 147.927 234.729 147.804 234.511C147.685 234.287 147.517 234.11 147.298 233.978C147.084 233.845 146.826 233.779 146.525 233.779C146.193 233.779 145.917 233.848 145.698 233.984C145.479 234.117 145.309 234.299 145.186 234.531C145.062 234.759 144.974 235.017 144.919 235.304C144.869 235.586 144.844 235.88 144.844 236.186V236.425C144.844 236.73 144.869 237.026 144.919 237.313C144.969 237.601 145.056 237.858 145.179 238.086C145.306 238.309 145.479 238.489 145.698 238.626C145.917 238.758 146.195 238.824 146.532 238.824ZM154.216 232.604V233.807H150.046V232.604H154.216ZM151.249 230.792H152.896V237.956C152.896 238.184 152.928 238.359 152.992 238.482C153.061 238.601 153.154 238.681 153.272 238.722C153.391 238.763 153.53 238.783 153.689 238.783C153.803 238.783 153.913 238.776 154.018 238.763C154.122 238.749 154.207 238.735 154.271 238.722L154.277 239.979C154.141 240.021 153.981 240.057 153.799 240.089C153.621 240.121 153.416 240.137 153.184 240.137C152.805 240.137 152.47 240.071 152.179 239.938C151.887 239.802 151.659 239.581 151.495 239.275C151.331 238.97 151.249 238.564 151.249 238.059V230.792ZM159.938 238.257V232.604H161.592V240H160.033L159.938 238.257ZM160.17 236.719L160.724 236.705C160.724 237.202 160.669 237.66 160.56 238.079C160.45 238.494 160.282 238.856 160.054 239.166C159.826 239.471 159.534 239.711 159.179 239.884C158.823 240.052 158.397 240.137 157.9 240.137C157.54 240.137 157.21 240.084 156.909 239.979C156.608 239.875 156.349 239.713 156.13 239.494C155.916 239.275 155.749 238.991 155.631 238.64C155.512 238.289 155.453 237.869 155.453 237.382V232.604H157.101V237.396C157.101 237.664 157.132 237.89 157.196 238.072C157.26 238.25 157.347 238.394 157.456 238.503C157.565 238.612 157.693 238.69 157.839 238.735C157.985 238.781 158.14 238.804 158.304 238.804C158.773 238.804 159.142 238.713 159.411 238.53C159.685 238.343 159.878 238.093 159.992 237.778C160.111 237.464 160.17 237.111 160.17 236.719ZM164.935 234.012V240H163.287V232.604H164.859L164.935 234.012ZM167.197 232.556L167.184 234.087C167.083 234.069 166.974 234.055 166.855 234.046C166.742 234.037 166.628 234.032 166.514 234.032C166.231 234.032 165.983 234.073 165.769 234.155C165.554 234.233 165.374 234.347 165.229 234.497C165.087 234.643 164.978 234.821 164.9 235.03C164.823 235.24 164.777 235.475 164.764 235.734L164.388 235.762C164.388 235.297 164.433 234.866 164.524 234.47C164.616 234.073 164.752 233.725 164.935 233.424C165.121 233.123 165.354 232.888 165.632 232.72C165.914 232.551 166.24 232.467 166.609 232.467C166.71 232.467 166.817 232.476 166.931 232.494C167.049 232.512 167.138 232.533 167.197 232.556ZM171.354 240.137C170.807 240.137 170.312 240.048 169.87 239.87C169.433 239.688 169.059 239.435 168.749 239.111C168.444 238.788 168.209 238.407 168.045 237.97C167.881 237.532 167.799 237.061 167.799 236.555V236.281C167.799 235.702 167.883 235.178 168.052 234.709C168.22 234.24 168.455 233.839 168.756 233.506C169.057 233.169 169.412 232.911 169.822 232.733C170.232 232.556 170.677 232.467 171.155 232.467C171.684 232.467 172.146 232.556 172.543 232.733C172.939 232.911 173.268 233.162 173.527 233.485C173.792 233.804 173.988 234.185 174.115 234.627C174.247 235.069 174.313 235.557 174.313 236.09V236.794H168.599V235.611H172.687V235.481C172.677 235.185 172.618 234.907 172.509 234.647C172.404 234.388 172.242 234.178 172.023 234.019C171.805 233.859 171.513 233.779 171.148 233.779C170.875 233.779 170.631 233.839 170.417 233.957C170.207 234.071 170.032 234.237 169.891 234.456C169.749 234.675 169.64 234.939 169.562 235.249C169.49 235.554 169.453 235.898 169.453 236.281V236.555C169.453 236.878 169.496 237.179 169.583 237.457C169.674 237.73 169.806 237.97 169.979 238.175C170.153 238.38 170.362 238.542 170.608 238.66C170.854 238.774 171.135 238.831 171.449 238.831C171.846 238.831 172.199 238.751 172.509 238.592C172.819 238.432 173.088 238.207 173.315 237.915L174.184 238.756C174.024 238.988 173.817 239.212 173.562 239.426C173.306 239.635 172.994 239.806 172.625 239.938C172.26 240.071 171.837 240.137 171.354 240.137ZM179.748 237.997C179.748 237.833 179.707 237.685 179.625 237.553C179.543 237.416 179.386 237.293 179.153 237.184C178.925 237.074 178.588 236.974 178.142 236.883C177.75 236.796 177.39 236.694 177.062 236.575C176.738 236.452 176.46 236.304 176.228 236.131C175.995 235.958 175.815 235.753 175.688 235.516C175.56 235.279 175.496 235.005 175.496 234.695C175.496 234.395 175.562 234.11 175.694 233.841C175.826 233.572 176.016 233.335 176.262 233.13C176.508 232.925 176.806 232.763 177.157 232.645C177.513 232.526 177.909 232.467 178.347 232.467C178.966 232.467 179.497 232.572 179.939 232.781C180.386 232.986 180.728 233.267 180.965 233.622C181.202 233.973 181.32 234.369 181.32 234.812H179.673C179.673 234.616 179.623 234.433 179.522 234.265C179.427 234.091 179.281 233.952 179.085 233.848C178.889 233.738 178.643 233.684 178.347 233.684C178.064 233.684 177.829 233.729 177.643 233.82C177.46 233.907 177.324 234.021 177.232 234.162C177.146 234.303 177.103 234.458 177.103 234.627C177.103 234.75 177.125 234.862 177.171 234.962C177.221 235.058 177.303 235.146 177.417 235.229C177.531 235.306 177.686 235.379 177.882 235.447C178.082 235.516 178.333 235.582 178.634 235.646C179.199 235.764 179.684 235.917 180.09 236.104C180.5 236.286 180.814 236.523 181.033 236.814C181.252 237.102 181.361 237.466 181.361 237.908C181.361 238.236 181.291 238.537 181.149 238.811C181.013 239.079 180.812 239.314 180.548 239.515C180.284 239.711 179.967 239.863 179.598 239.973C179.233 240.082 178.823 240.137 178.367 240.137C177.697 240.137 177.13 240.018 176.665 239.781C176.2 239.54 175.847 239.232 175.605 238.858C175.368 238.48 175.25 238.088 175.25 237.683H176.843C176.861 237.988 176.945 238.232 177.096 238.414C177.251 238.592 177.442 238.722 177.67 238.804C177.902 238.881 178.142 238.92 178.388 238.92C178.684 238.92 178.932 238.881 179.133 238.804C179.333 238.722 179.486 238.612 179.591 238.476C179.696 238.334 179.748 238.175 179.748 237.997ZM184.349 238.414L184.342 239.59C184.342 240.055 184.226 240.533 183.993 241.025C183.761 241.518 183.453 241.923 183.07 242.242L182.188 241.729C182.316 241.524 182.432 241.317 182.537 241.107C182.642 240.898 182.726 240.674 182.79 240.438C182.854 240.201 182.886 239.938 182.886 239.651V238.414H184.349ZM191.431 238.359L193.14 232.604H194.192L193.905 234.326L192.183 240H191.239L191.431 238.359ZM190.426 232.604L191.759 238.387L191.868 240H190.815L188.812 232.604H190.426ZM195.792 238.318L197.084 232.604H198.69L196.694 240H195.642L195.792 238.318ZM194.37 232.604L196.059 238.291L196.271 240H195.327L193.584 234.319L193.297 232.604H194.37ZM203.072 240.137C202.525 240.137 202.031 240.048 201.589 239.87C201.151 239.688 200.778 239.435 200.468 239.111C200.162 238.788 199.928 238.407 199.764 237.97C199.6 237.532 199.518 237.061 199.518 236.555V236.281C199.518 235.702 199.602 235.178 199.771 234.709C199.939 234.24 200.174 233.839 200.475 233.506C200.775 233.169 201.131 232.911 201.541 232.733C201.951 232.556 202.396 232.467 202.874 232.467C203.403 232.467 203.865 232.556 204.262 232.733C204.658 232.911 204.986 233.162 205.246 233.485C205.51 233.804 205.706 234.185 205.834 234.627C205.966 235.069 206.032 235.557 206.032 236.09V236.794H200.317V235.611H204.405V235.481C204.396 235.185 204.337 234.907 204.228 234.647C204.123 234.388 203.961 234.178 203.742 234.019C203.523 233.859 203.232 233.779 202.867 233.779C202.594 233.779 202.35 233.839 202.136 233.957C201.926 234.071 201.751 234.237 201.609 234.456C201.468 234.675 201.359 234.939 201.281 235.249C201.208 235.554 201.172 235.898 201.172 236.281V236.555C201.172 236.878 201.215 237.179 201.302 237.457C201.393 237.73 201.525 237.97 201.698 238.175C201.871 238.38 202.081 238.542 202.327 238.66C202.573 238.774 202.854 238.831 203.168 238.831C203.564 238.831 203.918 238.751 204.228 238.592C204.537 238.432 204.806 238.207 205.034 237.915L205.902 238.756C205.743 238.988 205.535 239.212 205.28 239.426C205.025 239.635 204.713 239.806 204.344 239.938C203.979 240.071 203.555 240.137 203.072 240.137ZM209.081 229.5V240H207.427V229.5H209.081ZM215.397 238.469V229.5H217.052V240H215.555L215.397 238.469ZM210.585 236.384V236.24C210.585 235.68 210.651 235.169 210.783 234.709C210.915 234.244 211.107 233.845 211.357 233.513C211.608 233.175 211.913 232.918 212.273 232.74C212.633 232.558 213.039 232.467 213.49 232.467C213.937 232.467 214.329 232.553 214.666 232.727C215.003 232.9 215.29 233.148 215.527 233.472C215.764 233.791 215.953 234.174 216.095 234.62C216.236 235.062 216.336 235.554 216.396 236.097V236.555C216.336 237.083 216.236 237.566 216.095 238.004C215.953 238.441 215.764 238.82 215.527 239.139C215.29 239.458 215.001 239.704 214.659 239.877C214.322 240.05 213.928 240.137 213.477 240.137C213.03 240.137 212.627 240.043 212.267 239.856C211.911 239.67 211.608 239.408 211.357 239.07C211.107 238.733 210.915 238.337 210.783 237.881C210.651 237.421 210.585 236.922 210.585 236.384ZM212.232 236.24V236.384C212.232 236.721 212.262 237.035 212.321 237.327C212.385 237.619 212.483 237.876 212.615 238.1C212.747 238.318 212.918 238.492 213.128 238.619C213.342 238.742 213.597 238.804 213.894 238.804C214.267 238.804 214.575 238.722 214.816 238.558C215.058 238.394 215.247 238.173 215.384 237.895C215.525 237.612 215.621 237.298 215.671 236.951V235.714C215.644 235.445 215.587 235.194 215.5 234.962C215.418 234.729 215.306 234.527 215.165 234.354C215.024 234.176 214.848 234.039 214.639 233.943C214.434 233.843 214.19 233.793 213.907 233.793C213.606 233.793 213.351 233.857 213.142 233.984C212.932 234.112 212.759 234.287 212.622 234.511C212.49 234.734 212.392 234.994 212.328 235.29C212.264 235.586 212.232 235.903 212.232 236.24ZM220.538 232.604V240H218.884V232.604H220.538ZM218.774 230.662C218.774 230.411 218.856 230.204 219.021 230.04C219.189 229.871 219.422 229.787 219.718 229.787C220.009 229.787 220.24 229.871 220.408 230.04C220.577 230.204 220.661 230.411 220.661 230.662C220.661 230.908 220.577 231.113 220.408 231.277C220.24 231.441 220.009 231.523 219.718 231.523C219.422 231.523 219.189 231.441 219.021 231.277C218.856 231.113 218.774 230.908 218.774 230.662ZM223.977 234.183V240H222.329V232.604H223.881L223.977 234.183ZM223.683 236.028L223.149 236.021C223.154 235.497 223.227 235.017 223.368 234.579C223.514 234.142 223.715 233.766 223.97 233.451C224.229 233.137 224.539 232.895 224.899 232.727C225.259 232.553 225.66 232.467 226.103 232.467C226.458 232.467 226.779 232.517 227.066 232.617C227.358 232.713 227.606 232.87 227.812 233.089C228.021 233.308 228.181 233.592 228.29 233.943C228.399 234.29 228.454 234.716 228.454 235.222V240H226.8V235.215C226.8 234.859 226.747 234.579 226.643 234.374C226.542 234.164 226.394 234.016 226.198 233.93C226.007 233.839 225.768 233.793 225.48 233.793C225.198 233.793 224.945 233.852 224.722 233.971C224.498 234.089 224.309 234.251 224.154 234.456C224.004 234.661 223.888 234.898 223.806 235.167C223.724 235.436 223.683 235.723 223.683 236.028ZM234.873 232.604H236.37V239.795C236.37 240.46 236.229 241.025 235.946 241.49C235.664 241.955 235.27 242.308 234.764 242.55C234.258 242.796 233.672 242.919 233.007 242.919C232.724 242.919 232.41 242.878 232.063 242.796C231.722 242.714 231.389 242.582 231.065 242.399C230.746 242.222 230.48 241.987 230.266 241.695L231.038 240.725C231.302 241.039 231.594 241.269 231.913 241.415C232.232 241.561 232.567 241.634 232.918 241.634C233.296 241.634 233.618 241.563 233.882 241.422C234.151 241.285 234.358 241.082 234.504 240.813C234.65 240.545 234.723 240.216 234.723 239.829V234.278L234.873 232.604ZM229.849 236.384V236.24C229.849 235.68 229.917 235.169 230.054 234.709C230.19 234.244 230.386 233.845 230.642 233.513C230.897 233.175 231.207 232.918 231.571 232.74C231.936 232.558 232.348 232.467 232.809 232.467C233.287 232.467 233.695 232.553 234.032 232.727C234.374 232.9 234.659 233.148 234.887 233.472C235.115 233.791 235.292 234.174 235.42 234.62C235.552 235.062 235.65 235.554 235.714 236.097V236.555C235.655 237.083 235.554 237.566 235.413 238.004C235.272 238.441 235.085 238.82 234.853 239.139C234.62 239.458 234.333 239.704 233.991 239.877C233.654 240.05 233.255 240.137 232.795 240.137C232.344 240.137 231.936 240.043 231.571 239.856C231.211 239.67 230.901 239.408 230.642 239.07C230.386 238.733 230.19 238.337 230.054 237.881C229.917 237.421 229.849 236.922 229.849 236.384ZM231.496 236.24V236.384C231.496 236.721 231.528 237.035 231.592 237.327C231.66 237.619 231.763 237.876 231.899 238.1C232.041 238.318 232.218 238.492 232.433 238.619C232.651 238.742 232.909 238.804 233.205 238.804C233.592 238.804 233.909 238.722 234.155 238.558C234.406 238.394 234.597 238.173 234.729 237.895C234.866 237.612 234.962 237.298 235.017 236.951V235.714C234.989 235.445 234.932 235.194 234.846 234.962C234.764 234.729 234.652 234.527 234.511 234.354C234.369 234.176 234.192 234.039 233.978 233.943C233.763 233.843 233.51 233.793 233.219 233.793C232.923 233.793 232.665 233.857 232.446 233.984C232.228 234.112 232.048 234.287 231.906 234.511C231.77 234.734 231.667 234.994 231.599 235.29C231.53 235.586 231.496 235.903 231.496 236.24ZM245.735 238.517V234.989C245.735 234.725 245.688 234.497 245.592 234.306C245.496 234.114 245.35 233.966 245.154 233.861C244.963 233.757 244.721 233.704 244.43 233.704C244.161 233.704 243.928 233.75 243.732 233.841C243.536 233.932 243.384 234.055 243.274 234.21C243.165 234.365 243.11 234.54 243.11 234.736H241.47C241.47 234.445 241.54 234.162 241.682 233.889C241.823 233.615 242.028 233.371 242.297 233.157C242.566 232.943 242.887 232.774 243.261 232.651C243.634 232.528 244.054 232.467 244.519 232.467C245.075 232.467 245.567 232.56 245.995 232.747C246.428 232.934 246.768 233.216 247.014 233.595C247.264 233.968 247.39 234.438 247.39 235.003V238.291C247.39 238.628 247.412 238.931 247.458 239.2C247.508 239.465 247.579 239.695 247.67 239.891V240H245.981C245.904 239.822 245.842 239.597 245.797 239.323C245.756 239.045 245.735 238.776 245.735 238.517ZM245.975 235.502L245.988 236.521H244.806C244.5 236.521 244.231 236.55 243.999 236.609C243.767 236.664 243.573 236.746 243.418 236.855C243.263 236.965 243.147 237.097 243.069 237.252C242.992 237.407 242.953 237.582 242.953 237.778C242.953 237.974 242.999 238.154 243.09 238.318C243.181 238.478 243.313 238.603 243.486 238.694C243.664 238.785 243.878 238.831 244.129 238.831C244.466 238.831 244.76 238.763 245.011 238.626C245.266 238.485 245.466 238.314 245.612 238.113C245.758 237.908 245.836 237.715 245.845 237.532L246.378 238.264C246.323 238.451 246.23 238.651 246.098 238.865C245.965 239.079 245.792 239.285 245.578 239.48C245.368 239.672 245.116 239.829 244.819 239.952C244.528 240.075 244.19 240.137 243.808 240.137C243.325 240.137 242.894 240.041 242.516 239.85C242.137 239.654 241.841 239.392 241.627 239.063C241.413 238.731 241.306 238.355 241.306 237.936C241.306 237.544 241.379 237.197 241.524 236.896C241.675 236.591 241.894 236.336 242.181 236.131C242.472 235.926 242.828 235.771 243.247 235.666C243.666 235.557 244.145 235.502 244.683 235.502H245.975ZM250.746 234.183V240H249.099V232.604H250.65L250.746 234.183ZM250.452 236.028L249.919 236.021C249.924 235.497 249.996 235.017 250.138 234.579C250.284 234.142 250.484 233.766 250.739 233.451C250.999 233.137 251.309 232.895 251.669 232.727C252.029 232.553 252.43 232.467 252.872 232.467C253.228 232.467 253.549 232.517 253.836 232.617C254.128 232.713 254.376 232.87 254.581 233.089C254.791 233.308 254.95 233.592 255.06 233.943C255.169 234.29 255.224 234.716 255.224 235.222V240H253.569V235.215C253.569 234.859 253.517 234.579 253.412 234.374C253.312 234.164 253.164 234.016 252.968 233.93C252.776 233.839 252.537 233.793 252.25 233.793C251.967 233.793 251.715 233.852 251.491 233.971C251.268 234.089 251.079 234.251 250.924 234.456C250.773 234.661 250.657 234.898 250.575 235.167C250.493 235.436 250.452 235.723 250.452 236.028ZM261.417 238.469V229.5H263.071V240H261.574L261.417 238.469ZM256.604 236.384V236.24C256.604 235.68 256.671 235.169 256.803 234.709C256.935 234.244 257.126 233.845 257.377 233.513C257.628 233.175 257.933 232.918 258.293 232.74C258.653 232.558 259.059 232.467 259.51 232.467C259.956 232.467 260.348 232.553 260.686 232.727C261.023 232.9 261.31 233.148 261.547 233.472C261.784 233.791 261.973 234.174 262.114 234.62C262.256 235.062 262.356 235.554 262.415 236.097V236.555C262.356 237.083 262.256 237.566 262.114 238.004C261.973 238.441 261.784 238.82 261.547 239.139C261.31 239.458 261.021 239.704 260.679 239.877C260.341 240.05 259.947 240.137 259.496 240.137C259.049 240.137 258.646 240.043 258.286 239.856C257.931 239.67 257.628 239.408 257.377 239.07C257.126 238.733 256.935 238.337 256.803 237.881C256.671 237.421 256.604 236.922 256.604 236.384ZM258.252 236.24V236.384C258.252 236.721 258.282 237.035 258.341 237.327C258.405 237.619 258.503 237.876 258.635 238.1C258.767 238.318 258.938 238.492 259.147 238.619C259.362 238.742 259.617 238.804 259.913 238.804C260.287 238.804 260.594 238.722 260.836 238.558C261.077 238.394 261.267 238.173 261.403 237.895C261.545 237.612 261.64 237.298 261.69 236.951V235.714C261.663 235.445 261.606 235.194 261.52 234.962C261.438 234.729 261.326 234.527 261.185 234.354C261.043 234.176 260.868 234.039 260.658 233.943C260.453 233.843 260.209 233.793 259.927 233.793C259.626 233.793 259.371 233.857 259.161 233.984C258.951 234.112 258.778 234.287 258.642 234.511C258.509 234.734 258.411 234.994 258.348 235.29C258.284 235.586 258.252 235.903 258.252 236.24ZM166.035 262.517V258.989C166.035 258.725 165.987 258.497 165.892 258.306C165.796 258.114 165.65 257.966 165.454 257.861C165.263 257.757 165.021 257.704 164.729 257.704C164.461 257.704 164.228 257.75 164.032 257.841C163.836 257.932 163.684 258.055 163.574 258.21C163.465 258.365 163.41 258.54 163.41 258.736H161.77C161.77 258.445 161.84 258.162 161.981 257.889C162.123 257.615 162.328 257.371 162.597 257.157C162.866 256.943 163.187 256.774 163.561 256.651C163.934 256.528 164.354 256.467 164.818 256.467C165.374 256.467 165.867 256.56 166.295 256.747C166.728 256.934 167.067 257.216 167.313 257.595C167.564 257.968 167.689 258.438 167.689 259.003V262.291C167.689 262.628 167.712 262.931 167.758 263.2C167.808 263.465 167.879 263.695 167.97 263.891V264H166.281C166.204 263.822 166.142 263.597 166.097 263.323C166.056 263.045 166.035 262.776 166.035 262.517ZM166.274 259.502L166.288 260.521H165.105C164.8 260.521 164.531 260.55 164.299 260.609C164.066 260.664 163.873 260.746 163.718 260.855C163.563 260.965 163.447 261.097 163.369 261.252C163.292 261.407 163.253 261.582 163.253 261.778C163.253 261.974 163.299 262.154 163.39 262.318C163.481 262.478 163.613 262.603 163.786 262.694C163.964 262.785 164.178 262.831 164.429 262.831C164.766 262.831 165.06 262.763 165.311 262.626C165.566 262.485 165.766 262.314 165.912 262.113C166.058 261.908 166.135 261.715 166.145 261.532L166.678 262.264C166.623 262.451 166.53 262.651 166.397 262.865C166.265 263.079 166.092 263.285 165.878 263.48C165.668 263.672 165.415 263.829 165.119 263.952C164.827 264.075 164.49 264.137 164.107 264.137C163.624 264.137 163.194 264.041 162.815 263.85C162.437 263.654 162.141 263.392 161.927 263.063C161.713 262.731 161.605 262.355 161.605 261.936C161.605 261.544 161.678 261.197 161.824 260.896C161.975 260.591 162.193 260.336 162.48 260.131C162.772 259.926 163.128 259.771 163.547 259.666C163.966 259.557 164.445 259.502 164.982 259.502H166.274ZM173.562 261.997C173.562 261.833 173.521 261.685 173.438 261.553C173.356 261.416 173.199 261.293 172.967 261.184C172.739 261.074 172.402 260.974 171.955 260.883C171.563 260.796 171.203 260.694 170.875 260.575C170.551 260.452 170.273 260.304 170.041 260.131C169.809 259.958 169.629 259.753 169.501 259.516C169.373 259.279 169.31 259.005 169.31 258.695C169.31 258.395 169.376 258.11 169.508 257.841C169.64 257.572 169.829 257.335 170.075 257.13C170.321 256.925 170.62 256.763 170.971 256.645C171.326 256.526 171.723 256.467 172.16 256.467C172.78 256.467 173.311 256.572 173.753 256.781C174.2 256.986 174.541 257.267 174.778 257.622C175.015 257.973 175.134 258.369 175.134 258.812H173.486C173.486 258.616 173.436 258.433 173.336 258.265C173.24 258.091 173.094 257.952 172.898 257.848C172.702 257.738 172.456 257.684 172.16 257.684C171.878 257.684 171.643 257.729 171.456 257.82C171.274 257.907 171.137 258.021 171.046 258.162C170.959 258.303 170.916 258.458 170.916 258.627C170.916 258.75 170.939 258.862 170.984 258.962C171.035 259.058 171.117 259.146 171.23 259.229C171.344 259.306 171.499 259.379 171.695 259.447C171.896 259.516 172.146 259.582 172.447 259.646C173.012 259.764 173.498 259.917 173.903 260.104C174.313 260.286 174.628 260.523 174.847 260.814C175.065 261.102 175.175 261.466 175.175 261.908C175.175 262.236 175.104 262.537 174.963 262.811C174.826 263.079 174.626 263.314 174.361 263.515C174.097 263.711 173.78 263.863 173.411 263.973C173.047 264.082 172.636 264.137 172.181 264.137C171.511 264.137 170.943 264.018 170.479 263.781C170.014 263.54 169.66 263.232 169.419 262.858C169.182 262.48 169.063 262.088 169.063 261.683H170.656C170.674 261.988 170.759 262.232 170.909 262.414C171.064 262.592 171.256 262.722 171.483 262.804C171.716 262.881 171.955 262.92 172.201 262.92C172.497 262.92 172.746 262.881 172.946 262.804C173.147 262.722 173.299 262.612 173.404 262.476C173.509 262.334 173.562 262.175 173.562 261.997ZM180.767 261.997C180.767 261.833 180.726 261.685 180.644 261.553C180.562 261.416 180.404 261.293 180.172 261.184C179.944 261.074 179.607 260.974 179.16 260.883C178.768 260.796 178.408 260.694 178.08 260.575C177.757 260.452 177.479 260.304 177.246 260.131C177.014 259.958 176.834 259.753 176.706 259.516C176.578 259.279 176.515 259.005 176.515 258.695C176.515 258.395 176.581 258.11 176.713 257.841C176.845 257.572 177.034 257.335 177.28 257.13C177.526 256.925 177.825 256.763 178.176 256.645C178.531 256.526 178.928 256.467 179.365 256.467C179.985 256.467 180.516 256.572 180.958 256.781C181.405 256.986 181.746 257.267 181.983 257.622C182.22 257.973 182.339 258.369 182.339 258.812H180.691C180.691 258.616 180.641 258.433 180.541 258.265C180.445 258.091 180.299 257.952 180.104 257.848C179.908 257.738 179.661 257.684 179.365 257.684C179.083 257.684 178.848 257.729 178.661 257.82C178.479 257.907 178.342 258.021 178.251 258.162C178.164 258.303 178.121 258.458 178.121 258.627C178.121 258.75 178.144 258.862 178.189 258.962C178.24 259.058 178.322 259.146 178.436 259.229C178.549 259.306 178.704 259.379 178.9 259.447C179.101 259.516 179.352 259.582 179.652 259.646C180.217 259.764 180.703 259.917 181.108 260.104C181.519 260.286 181.833 260.523 182.052 260.814C182.271 261.102 182.38 261.466 182.38 261.908C182.38 262.236 182.309 262.537 182.168 262.811C182.031 263.079 181.831 263.314 181.566 263.515C181.302 263.711 180.985 263.863 180.616 263.973C180.252 264.082 179.841 264.137 179.386 264.137C178.716 264.137 178.148 264.018 177.684 263.781C177.219 263.54 176.866 263.232 176.624 262.858C176.387 262.48 176.269 262.088 176.269 261.683H177.861C177.88 261.988 177.964 262.232 178.114 262.414C178.269 262.592 178.461 262.722 178.688 262.804C178.921 262.881 179.16 262.92 179.406 262.92C179.702 262.92 179.951 262.881 180.151 262.804C180.352 262.722 180.505 262.612 180.609 262.476C180.714 262.334 180.767 262.175 180.767 261.997ZM187.083 264.137C186.536 264.137 186.042 264.048 185.6 263.87C185.162 263.688 184.788 263.435 184.479 263.111C184.173 262.788 183.938 262.407 183.774 261.97C183.61 261.532 183.528 261.061 183.528 260.555V260.281C183.528 259.702 183.613 259.178 183.781 258.709C183.95 258.24 184.185 257.839 184.485 257.506C184.786 257.169 185.142 256.911 185.552 256.733C185.962 256.556 186.406 256.467 186.885 256.467C187.413 256.467 187.876 256.556 188.272 256.733C188.669 256.911 188.997 257.162 189.257 257.485C189.521 257.804 189.717 258.185 189.845 258.627C189.977 259.069 190.043 259.557 190.043 260.09V260.794H184.328V259.611H188.416V259.481C188.407 259.185 188.348 258.907 188.238 258.647C188.133 258.388 187.972 258.178 187.753 258.019C187.534 257.859 187.243 257.779 186.878 257.779C186.604 257.779 186.361 257.839 186.146 257.957C185.937 258.071 185.761 258.237 185.62 258.456C185.479 258.675 185.369 258.939 185.292 259.249C185.219 259.554 185.183 259.898 185.183 260.281V260.555C185.183 260.878 185.226 261.179 185.312 261.457C185.404 261.73 185.536 261.97 185.709 262.175C185.882 262.38 186.092 262.542 186.338 262.66C186.584 262.774 186.864 262.831 187.179 262.831C187.575 262.831 187.928 262.751 188.238 262.592C188.548 262.432 188.817 262.207 189.045 261.915L189.913 262.756C189.754 262.988 189.546 263.212 189.291 263.426C189.036 263.635 188.724 263.806 188.354 263.938C187.99 264.071 187.566 264.137 187.083 264.137ZM192.976 258.107V264H191.328V256.604H192.88L192.976 258.107ZM192.709 260.028L192.148 260.021C192.148 259.511 192.212 259.039 192.34 258.606C192.467 258.174 192.654 257.798 192.9 257.479C193.146 257.155 193.452 256.907 193.816 256.733C194.186 256.556 194.612 256.467 195.095 256.467C195.432 256.467 195.74 256.517 196.018 256.617C196.3 256.713 196.544 256.866 196.749 257.075C196.959 257.285 197.118 257.554 197.228 257.882C197.341 258.21 197.398 258.606 197.398 259.071V264H195.751V259.215C195.751 258.855 195.696 258.572 195.587 258.367C195.482 258.162 195.329 258.016 195.129 257.93C194.933 257.839 194.698 257.793 194.425 257.793C194.115 257.793 193.851 257.852 193.632 257.971C193.418 258.089 193.242 258.251 193.105 258.456C192.969 258.661 192.868 258.898 192.805 259.167C192.741 259.436 192.709 259.723 192.709 260.028ZM197.296 259.591L196.523 259.762C196.523 259.315 196.585 258.894 196.708 258.497C196.836 258.096 197.02 257.745 197.262 257.444C197.508 257.139 197.811 256.9 198.171 256.727C198.531 256.553 198.943 256.467 199.408 256.467C199.786 256.467 200.124 256.519 200.42 256.624C200.721 256.724 200.976 256.884 201.186 257.103C201.395 257.321 201.555 257.606 201.664 257.957C201.773 258.303 201.828 258.723 201.828 259.215V264H200.174V259.208C200.174 258.834 200.119 258.545 200.01 258.34C199.905 258.135 199.755 257.993 199.559 257.916C199.363 257.834 199.128 257.793 198.854 257.793C198.599 257.793 198.374 257.841 198.178 257.937C197.986 258.028 197.825 258.158 197.692 258.326C197.56 258.49 197.46 258.679 197.392 258.894C197.328 259.108 197.296 259.34 197.296 259.591ZM203.53 253.5H205.178V262.421L205.021 264H203.53V253.5ZM210.004 260.233V260.377C210.004 260.924 209.942 261.427 209.819 261.888C209.701 262.343 209.519 262.74 209.272 263.077C209.031 263.414 208.73 263.676 208.37 263.863C208.015 264.046 207.602 264.137 207.133 264.137C206.673 264.137 206.271 264.05 205.93 263.877C205.588 263.704 205.301 263.458 205.068 263.139C204.84 262.82 204.656 262.439 204.515 261.997C204.373 261.555 204.273 261.067 204.214 260.534V260.076C204.273 259.538 204.373 259.051 204.515 258.613C204.656 258.171 204.84 257.791 205.068 257.472C205.301 257.148 205.586 256.9 205.923 256.727C206.265 256.553 206.663 256.467 207.119 256.467C207.593 256.467 208.01 256.558 208.37 256.74C208.735 256.923 209.038 257.182 209.279 257.52C209.521 257.852 209.701 258.249 209.819 258.709C209.942 259.169 210.004 259.677 210.004 260.233ZM208.356 260.377V260.233C208.356 259.901 208.329 259.589 208.274 259.297C208.22 259.001 208.129 258.741 208.001 258.518C207.878 258.294 207.709 258.119 207.495 257.991C207.285 257.859 207.023 257.793 206.709 257.793C206.417 257.793 206.167 257.843 205.957 257.943C205.747 258.044 205.572 258.18 205.431 258.354C205.289 258.527 205.178 258.727 205.096 258.955C205.018 259.183 204.966 259.429 204.938 259.693V260.931C204.979 261.272 205.066 261.587 205.198 261.874C205.335 262.157 205.526 262.384 205.772 262.558C206.019 262.726 206.335 262.811 206.723 262.811C207.028 262.811 207.285 262.749 207.495 262.626C207.705 262.503 207.871 262.332 207.994 262.113C208.122 261.89 208.213 261.63 208.268 261.334C208.327 261.038 208.356 260.719 208.356 260.377ZM213.162 253.5V264H211.508V253.5H213.162ZM217.113 263.193L219.123 256.604H220.887L217.92 265.128C217.852 265.31 217.763 265.508 217.653 265.723C217.544 265.937 217.4 266.14 217.223 266.331C217.049 266.527 216.833 266.684 216.573 266.803C216.313 266.926 215.999 266.987 215.63 266.987C215.484 266.987 215.343 266.974 215.206 266.946C215.074 266.924 214.949 266.898 214.83 266.871L214.823 265.613C214.869 265.618 214.924 265.622 214.987 265.627C215.056 265.632 215.11 265.634 215.151 265.634C215.425 265.634 215.653 265.6 215.835 265.531C216.017 265.467 216.165 265.363 216.279 265.217C216.398 265.071 216.498 264.875 216.58 264.629L217.113 263.193ZM215.979 256.604L217.735 262.141L218.029 263.877L216.888 264.171L214.201 256.604H215.979Z" fill="black"/>
</g>
<defs>
<filter id="filter0_d_2643_16472" x="0" y="0" width="390" height="342" filterUnits="userSpaceOnUse" color-interpolation-filters="sRGB">
<feFlood flood-opacity="0" result="BackgroundImageFix"/>
<feColorMatrix in="SourceAlpha" type="matrix" values="0 0 0 0 0 0 0 0 0 0 0 0 0 0 0 0 0 0 127 0" result="hardAlpha"/>
<feOffset dx="4" dy="4"/>
<feGaussianBlur stdDeviation="7.5"/>
<feComposite in2="hardAlpha" operator="out"/>
<feColorMatrix type="matrix" values="0 0 0 0 0 0 0 0 0 0 0 0 0 0 0 0 0 0 0.05 0"/>
<feBlend mode="normal" in2="BackgroundImageFix" result="effect1_dropShadow_2643_16472"/>
<feBlend mode="normal" in="SourceGraphic" in2="effect1_dropShadow_2643_16472" result="shape"/>
</filter>
<clipPath id="clip0_2643_16472">
<rect width="84" height="84" fill="white" transform="matrix(-4.37114e-08 1 1 4.37114e-08 159.113 63)"/>
</clipPath>
</defs>
</svg>
