<svg width="32" height="32" viewBox="0 0 32 32" fill="none" xmlns="http://www.w3.org/2000/svg">
<path d="M20 10.6667H20.0133" stroke="black" stroke-width="4" stroke-linecap="round" stroke-linejoin="round"/>
<path d="M22.6674 5.33335H9.33398C7.12484 5.33335 5.33398 7.12421 5.33398 9.33335V22.6667C5.33398 24.8758 7.12484 26.6667 9.33398 26.6667H22.6674C24.8765 26.6667 26.6674 24.8758 26.6674 22.6667V9.33335C26.6674 7.12421 24.8765 5.33335 22.6674 5.33335Z" stroke="black" stroke-width="1.5" stroke-linecap="round" stroke-linejoin="round"/>
<path d="M5.33398 20L10.6674 14.6666C11.2754 14.0815 11.9652 13.7735 12.6674 13.7735C13.3695 13.7735 14.0593 14.0815 14.6674 14.6666L25.5005 25.5" stroke="black" stroke-width="1.5" stroke-linecap="round" stroke-linejoin="round"/>
<path d="M18.666 18.6667L19.9993 17.3334C20.6074 16.7482 21.2972 16.4402 21.9993 16.4402C22.7015 16.4402 23.3912 16.7482 23.9993 17.3334L26.666 20" fill="black"/>
<path d="M18.666 18.6667L19.9993 17.3334C20.6074 16.7482 21.2972 16.4402 21.9993 16.4402C22.7015 16.4402 23.3912 16.7482 23.9993 17.3334L26.666 20L26.4995 23.4998L25.4995 25.4998L18.666 18.6667Z" fill="black"/>
<path d="M18.666 18.6667L19.9993 17.3334C20.6074 16.7482 21.2972 16.4402 21.9993 16.4402C22.7015 16.4402 23.3912 16.7482 23.9993 17.3334L26.666 20L26.4995 23.4998L25.4995 25.4998L18.666 18.6667Z" stroke="black" stroke-width="1.5" stroke-linecap="round" stroke-linejoin="round"/>
</svg>
