<svg width="24" height="24" viewBox="0 0 24 24" fill="none" xmlns="http://www.w3.org/2000/svg">
<g clip-path="url(#clip0_3069_16541)">
<path d="M15 8H15.01" stroke="white" stroke-width="3" stroke-linecap="round" stroke-linejoin="round"/>
<path d="M17.0002 4H7.0002C5.34334 4 4.0002 5.34315 4.0002 7V17C4.0002 18.6569 5.34334 20 7.0002 20H17.0002C18.6571 20 20.0002 18.6569 20.0002 17V7C20.0002 5.34315 18.6571 4 17.0002 4Z" stroke="white" stroke-width="1.5" stroke-linecap="round" stroke-linejoin="round"/>
<path d="M4.0002 15L8.0002 11C8.45626 10.5611 8.97359 10.3301 9.5002 10.3301C10.0268 10.3301 10.5441 10.5611 11.0002 11L19.1251 19.125" stroke="white" stroke-width="1.5" stroke-linecap="round" stroke-linejoin="round"/>
<path d="M13.9998 14L14.9998 13C15.4559 12.5611 15.9732 12.3301 16.4998 12.3301C17.0264 12.3301 17.5437 12.5611 17.9998 13L19.9998 15" fill="white"/>
<path d="M13.9998 14L14.9998 13C15.4559 12.5611 15.9732 12.3301 16.4998 12.3301C17.0264 12.3301 17.5437 12.5611 17.9998 13L19.9998 15L19.8749 17.6248L19.1249 19.1248L13.9998 14Z" fill="white"/>
<path d="M13.9998 14L14.9998 13C15.4559 12.5611 15.9732 12.3301 16.4998 12.3301C17.0264 12.3301 17.5437 12.5611 17.9998 13L19.9998 15L19.8749 17.6248L19.1249 19.1248L13.9998 14Z" stroke="white" stroke-linecap="round" stroke-linejoin="round"/>
</g>
<defs>
<clipPath id="clip0_3069_16541">
<rect width="24" height="24" fill="white"/>
</clipPath>
</defs>
</svg>
