<svg width="101" height="100" viewBox="0 0 101 100" fill="none" xmlns="http://www.w3.org/2000/svg">
<g clip-path="url(#clip0_2154_32726)">
<path d="M50.0943 54.5455C52.6047 54.5455 54.6397 52.5104 54.6397 50C54.6397 47.4897 52.6047 45.4546 50.0943 45.4546C47.5839 45.4546 45.5488 47.4897 45.5488 50C45.5488 52.5104 47.5839 54.5455 50.0943 54.5455Z" stroke="#2673E5" stroke-opacity="0.3" stroke-width="5" stroke-linecap="round" stroke-linejoin="round"/>
<path d="M50.0949 71.2123C61.8101 71.2123 71.3071 61.7153 71.3071 50.0002C71.3071 38.2851 61.8101 28.7881 50.0949 28.7881C38.3798 28.7881 28.8828 38.2851 28.8828 50.0002C28.8828 61.7153 38.3798 71.2123 50.0949 71.2123Z" stroke="#2673E5" stroke-opacity="0.3" stroke-width="5" stroke-linecap="round" stroke-linejoin="round"/>
<path d="M50.0946 87.8787C71.0145 87.8787 87.9734 70.9198 87.9734 49.9999C87.9734 29.08 71.0145 12.1211 50.0946 12.1211C29.1747 12.1211 12.2158 29.08 12.2158 49.9999C12.2158 70.9198 29.1747 87.8787 50.0946 87.8787Z" stroke="#2673E5" stroke-opacity="0.3" stroke-width="5" stroke-linecap="round" stroke-linejoin="round"/>
</g>
<defs>
<clipPath id="clip0_2154_32726">
<rect width="100" height="100" fill="white" transform="translate(0.0947266)"/>
</clipPath>
</defs>
</svg>
