<svg width="13" height="12" viewBox="0 0 13 12" fill="none" xmlns="http://www.w3.org/2000/svg">
<g clip-path="url(#clip0_6062_107558)">
<path d="M6 9C6 9.55 5.55 10 5 10C4.45 10 4 9.55 4 9C4 8.45 4.45 8 5 8C5.55 8 6 8.45 6 9ZM5 5C4.45 5 4 5.45 4 6C4 6.55 4.45 7 5 7C5.55 7 6 6.55 6 6C6 5.45 5.55 5 5 5ZM5 2C4.45 2 4 2.45 4 3C4 3.55 4.45 4 5 4C5.55 4 6 3.55 6 3C6 2.45 5.55 2 5 2ZM8 4C8.55 4 9 3.55 9 3C9 2.45 8.55 2 8 2C7.45 2 7 2.45 7 3C7 3.55 7.45 4 8 4ZM8 5C7.45 5 7 5.45 7 6C7 6.55 7.45 7 8 7C8.55 7 9 6.55 9 6C9 5.45 8.55 5 8 5ZM8 8C7.45 8 7 8.45 7 9C7 9.55 7.45 10 8 10C8.55 10 9 9.55 9 9C9 8.45 8.55 8 8 8Z" fill="black" fill-opacity="0.7"/>
<path d="M5.6 9C5.6 9.32909 5.32909 9.6 5 9.6C4.67091 9.6 4.4 9.32909 4.4 9C4.4 8.67091 4.67091 8.4 5 8.4C5.32909 8.4 5.6 8.67091 5.6 9ZM4.4 6C4.4 5.67091 4.67091 5.4 5 5.4C5.32909 5.4 5.6 5.67091 5.6 6C5.6 6.32909 5.32909 6.6 5 6.6C4.67091 6.6 4.4 6.32909 4.4 6ZM4.4 3C4.4 2.67091 4.67091 2.4 5 2.4C5.32909 2.4 5.6 2.67091 5.6 3C5.6 3.32909 5.32909 3.6 5 3.6C4.67091 3.6 4.4 3.32909 4.4 3ZM8.6 3C8.6 3.32909 8.32909 3.6 8 3.6C7.67091 3.6 7.4 3.32909 7.4 3C7.4 2.67091 7.67091 2.4 8 2.4C8.32909 2.4 8.6 2.67091 8.6 3ZM7.4 6C7.4 5.67091 7.67091 5.4 8 5.4C8.32909 5.4 8.6 5.67091 8.6 6C8.6 6.32909 8.32909 6.6 8 6.6C7.67091 6.6 7.4 6.32909 7.4 6ZM7.4 9C7.4 8.67091 7.67091 8.4 8 8.4C8.32909 8.4 8.6 8.67091 8.6 9C8.6 9.32909 8.32909 9.6 8 9.6C7.67091 9.6 7.4 9.32909 7.4 9Z" stroke="black" stroke-opacity="0.7" stroke-width="0.8"/>
</g>
<defs>
<clipPath id="clip0_6062_107558">
<rect width="12" height="12" fill="white" transform="translate(0.5)"/>
</clipPath>
</defs>
</svg>
