<svg width="44" height="44" viewBox="0 0 44 44" fill="none" xmlns="http://www.w3.org/2000/svg">
<g opacity="0.5">
<path d="M5.5 22H7.33333M22 5.5V7.33333M36.6667 22H38.5M10.2667 10.2667L11.55 11.55M33.7333 10.2667L32.45 11.55" stroke="black" stroke-width="1.5" stroke-linecap="round" stroke-linejoin="round"/>
<path d="M16.4987 29.332C14.9596 28.1777 13.8226 26.5683 13.249 24.7319C12.6753 22.8955 12.694 20.9251 13.3024 19.0999C13.9108 17.2748 15.0781 15.6872 16.6389 14.5623C18.1996 13.4374 20.0748 12.832 21.9987 12.832C23.9226 12.832 25.7978 13.4374 27.3585 14.5623C28.9193 15.6872 30.0866 17.2748 30.695 19.0999C31.3034 20.9251 31.3221 22.8955 30.7484 24.7319C30.1748 26.5683 29.0378 28.1777 27.4987 29.332C26.7829 30.0406 26.244 30.9077 25.9255 31.8632C25.607 32.8187 25.5179 33.8357 25.6654 34.832C25.6654 35.8045 25.2791 36.7371 24.5914 37.4248C23.9038 38.1124 22.9712 38.4987 21.9987 38.4987C21.0262 38.4987 20.0936 38.1124 19.406 37.4248C18.7183 36.7371 18.332 35.8045 18.332 34.832C18.4795 33.8357 18.3904 32.8187 18.0719 31.8632C17.7534 30.9077 17.2145 30.0406 16.4987 29.332" stroke="black" stroke-width="1.5" stroke-linecap="round" stroke-linejoin="round"/>
<path d="M17.7812 31.168H26.2146" stroke="black" stroke-width="1.5" stroke-linecap="round" stroke-linejoin="round"/>
</g>
</svg>
