<svg width="123" height="86" viewBox="0 0 123 86" fill="none" xmlns="http://www.w3.org/2000/svg">
<rect x="51" y="13.5" width="58" height="58" rx="1" stroke="#2673E5" stroke-width="2"/>
<rect x="69" y="31.5" width="22" height="22" rx="1" stroke="#2673E5" stroke-width="2"/>
<path d="M61.5 1V18" stroke="#2673E5" stroke-width="2" stroke-linecap="round" stroke-linejoin="round"/>
<path d="M101.5 1V18" stroke="#2673E5" stroke-width="2" stroke-linecap="round" stroke-linejoin="round"/>
<path d="M91.5 1V18" stroke="#2673E5" stroke-width="2" stroke-linecap="round" stroke-linejoin="round"/>
<path d="M81.5 1V18" stroke="#2673E5" stroke-width="2" stroke-linecap="round" stroke-linejoin="round"/>
<path d="M71.5 1V18" stroke="#2673E5" stroke-width="2" stroke-linecap="round" stroke-linejoin="round"/>
<path d="M122 23.5L105 23.5" stroke="#2673E5" stroke-width="2" stroke-linecap="round" stroke-linejoin="round"/>
<path d="M122 63.5L105 63.5" stroke="#2673E5" stroke-width="2" stroke-linecap="round" stroke-linejoin="round"/>
<path d="M122 53.5L105 53.5" stroke="#2673E5" stroke-width="2" stroke-linecap="round" stroke-linejoin="round"/>
<path d="M122 43.5L105 43.5" stroke="#2673E5" stroke-width="2" stroke-linecap="round" stroke-linejoin="round"/>
<path d="M122 33.5L105 33.5" stroke="#2673E5" stroke-width="2" stroke-linecap="round" stroke-linejoin="round"/>
<path d="M99 84.5L99 67.5" stroke="#2673E5" stroke-width="2" stroke-linecap="round" stroke-linejoin="round"/>
<path d="M59 84.5L59 67.5" stroke="#2673E5" stroke-width="2" stroke-linecap="round" stroke-linejoin="round"/>
<path d="M69 84.5L69 67.5" stroke="#2673E5" stroke-width="2" stroke-linecap="round" stroke-linejoin="round"/>
<path d="M79 84.5L79 67.5" stroke="#2673E5" stroke-width="2" stroke-linecap="round" stroke-linejoin="round"/>
<path d="M89 84.5L89 67.5" stroke="#2673E5" stroke-width="2" stroke-linecap="round" stroke-linejoin="round"/>
<path d="M38 61.5L55 61.5" stroke="#2673E5" stroke-width="2" stroke-linecap="round" stroke-linejoin="round"/>
<path d="M38 21.5L55 21.5" stroke="#2673E5" stroke-width="2" stroke-linecap="round" stroke-linejoin="round"/>
<path d="M38 31.5L55 31.5" stroke="#2673E5" stroke-width="2" stroke-linecap="round" stroke-linejoin="round"/>
<path d="M38 41.5L55 41.5" stroke="#2673E5" stroke-width="2" stroke-linecap="round" stroke-linejoin="round"/>
<path d="M38 51.5L55 51.5" stroke="#2673E5" stroke-width="2" stroke-linecap="round" stroke-linejoin="round"/>
<rect x="41.8701" y="1.5" width="59.2131" height="59.2131" rx="5" transform="rotate(45 41.8701 1.5)" fill="#2673E5" fill-opacity="0.1"/>
</svg>
