<svg width="17" height="16" viewBox="0 0 17 16" fill="none" xmlns="http://www.w3.org/2000/svg">
<g clip-path="url(#clip0_1025_26665)">
<path d="M8.49967 7.33333C9.97243 7.33333 11.1663 6.13943 11.1663 4.66667C11.1663 3.19391 9.97243 2 8.49967 2C7.02691 2 5.83301 3.19391 5.83301 4.66667C5.83301 6.13943 7.02691 7.33333 8.49967 7.33333Z" stroke="black" stroke-width="1.5" stroke-linecap="round" stroke-linejoin="round"/>
<path d="M4.5 14V12.6667C4.5 11.9594 4.78095 11.2811 5.28105 10.781C5.78115 10.281 6.45942 10 7.16667 10H7.83333" stroke="black" stroke-width="1.5" stroke-linecap="round" stroke-linejoin="round"/>
<path d="M11.4997 13.3333C12.4201 13.3333 13.1663 12.5871 13.1663 11.6667C13.1663 10.7462 12.4201 10 11.4997 10C10.5792 10 9.83301 10.7462 9.83301 11.6667C9.83301 12.5871 10.5792 13.3333 11.4997 13.3333Z" stroke="black" stroke-width="1.5" stroke-linecap="round" stroke-linejoin="round"/>
<path d="M12.833 13L14.4997 14.6667" stroke="black" stroke-width="1.5" stroke-linecap="round" stroke-linejoin="round"/>
</g>
<defs>
<clipPath id="clip0_1025_26665">
<rect width="16" height="16" fill="white" transform="translate(0.5)"/>
</clipPath>
</defs>
</svg>
