<svg width="219" height="140" viewBox="0 0 219 140" fill="none" xmlns="http://www.w3.org/2000/svg">
<path d="M106.007 92.4521H103.471V90.8525H106.007C106.399 90.8525 106.718 90.7887 106.964 90.6611C107.21 90.529 107.39 90.3467 107.504 90.1143C107.618 89.8818 107.675 89.6198 107.675 89.3281C107.675 89.0319 107.618 88.7562 107.504 88.501C107.39 88.2458 107.21 88.0407 106.964 87.8857C106.718 87.7308 106.399 87.6533 106.007 87.6533H104.182V96H102.131V86.0469H106.007C106.786 86.0469 107.454 86.1882 108.01 86.4707C108.571 86.7487 108.999 87.1338 109.295 87.626C109.591 88.1182 109.739 88.681 109.739 89.3145C109.739 89.957 109.591 90.513 109.295 90.9824C108.999 91.4518 108.571 91.8141 108.01 92.0693C107.454 92.3245 106.786 92.4521 106.007 92.4521ZM113.2 90.2168V96H111.231V88.6035H113.084L113.2 90.2168ZM115.429 88.5557L115.395 90.3809C115.299 90.3672 115.183 90.3558 115.046 90.3467C114.914 90.333 114.793 90.3262 114.684 90.3262C114.406 90.3262 114.164 90.3626 113.959 90.4355C113.758 90.5039 113.59 90.6064 113.453 90.7432C113.321 90.8799 113.221 91.0462 113.152 91.2422C113.089 91.4382 113.052 91.6615 113.043 91.9121L112.646 91.7891C112.646 91.3105 112.694 90.8708 112.79 90.4697C112.886 90.0641 113.025 89.7109 113.207 89.4102C113.394 89.1094 113.622 88.877 113.891 88.7129C114.16 88.5488 114.467 88.4668 114.813 88.4668C114.923 88.4668 115.035 88.4759 115.148 88.4941C115.262 88.5078 115.356 88.5283 115.429 88.5557ZM116.039 92.377V92.2334C116.039 91.6911 116.116 91.1921 116.271 90.7363C116.426 90.276 116.652 89.8773 116.948 89.54C117.244 89.2028 117.609 88.9408 118.042 88.7539C118.475 88.5625 118.971 88.4668 119.532 88.4668C120.093 88.4668 120.592 88.5625 121.029 88.7539C121.467 88.9408 121.833 89.2028 122.13 89.54C122.43 89.8773 122.658 90.276 122.813 90.7363C122.968 91.1921 123.046 91.6911 123.046 92.2334V92.377C123.046 92.9147 122.968 93.4137 122.813 93.874C122.658 94.3298 122.43 94.7285 122.13 95.0703C121.833 95.4076 121.469 95.6696 121.036 95.8564C120.603 96.0433 120.106 96.1367 119.546 96.1367C118.985 96.1367 118.486 96.0433 118.049 95.8564C117.616 95.6696 117.249 95.4076 116.948 95.0703C116.652 94.7285 116.426 94.3298 116.271 93.874C116.116 93.4137 116.039 92.9147 116.039 92.377ZM118.008 92.2334V92.377C118.008 92.6868 118.035 92.9762 118.09 93.2451C118.144 93.514 118.231 93.751 118.349 93.9561C118.472 94.1566 118.632 94.3138 118.828 94.4277C119.024 94.5417 119.263 94.5986 119.546 94.5986C119.819 94.5986 120.054 94.5417 120.25 94.4277C120.446 94.3138 120.603 94.1566 120.721 93.9561C120.84 93.751 120.927 93.514 120.981 93.2451C121.04 92.9762 121.07 92.6868 121.07 92.377V92.2334C121.07 91.9326 121.04 91.6501 120.981 91.3857C120.927 91.1169 120.838 90.8799 120.715 90.6748C120.596 90.4652 120.439 90.3011 120.243 90.1826C120.047 90.0641 119.81 90.0049 119.532 90.0049C119.254 90.0049 119.017 90.0641 118.821 90.1826C118.63 90.3011 118.472 90.4652 118.349 90.6748C118.231 90.8799 118.144 91.1169 118.09 91.3857C118.035 91.6501 118.008 91.9326 118.008 92.2334ZM124.456 85.5H126.424V94.3047L126.226 96H124.456V85.5ZM131.107 92.2266V92.3701C131.107 92.9215 131.048 93.4274 130.929 93.8877C130.815 94.348 130.638 94.7467 130.396 95.084C130.155 95.4167 129.854 95.6764 129.494 95.8633C129.138 96.0456 128.719 96.1367 128.236 96.1367C127.785 96.1367 127.393 96.0456 127.06 95.8633C126.732 95.681 126.456 95.4235 126.233 95.0908C126.01 94.7581 125.83 94.3685 125.693 93.9219C125.556 93.4753 125.454 92.9876 125.385 92.459V92.1445C125.454 91.6159 125.556 91.1283 125.693 90.6816C125.83 90.235 126.01 89.8454 126.233 89.5127C126.456 89.18 126.732 88.9225 127.06 88.7402C127.388 88.5579 127.776 88.4668 128.222 88.4668C128.71 88.4668 129.134 88.5602 129.494 88.7471C129.858 88.9294 130.159 89.1891 130.396 89.5264C130.638 89.859 130.815 90.2555 130.929 90.7158C131.048 91.1715 131.107 91.6751 131.107 92.2266ZM129.138 92.3701V92.2266C129.138 91.9258 129.115 91.6432 129.07 91.3789C129.029 91.11 128.956 90.8753 128.851 90.6748C128.746 90.4697 128.603 90.3079 128.421 90.1895C128.243 90.071 128.013 90.0117 127.73 90.0117C127.461 90.0117 127.233 90.0573 127.046 90.1484C126.86 90.2396 126.705 90.3672 126.582 90.5312C126.463 90.6953 126.374 90.8913 126.315 91.1191C126.256 91.3424 126.219 91.5885 126.206 91.8574V92.7529C126.219 93.113 126.279 93.432 126.383 93.71C126.493 93.9834 126.657 94.1999 126.876 94.3594C127.099 94.5143 127.388 94.5918 127.744 94.5918C128.022 94.5918 128.252 94.5371 128.434 94.4277C128.616 94.3184 128.758 94.1634 128.858 93.9629C128.963 93.7624 129.036 93.5277 129.077 93.2588C129.118 92.9854 129.138 92.6891 129.138 92.3701ZM134.609 85.5V96H132.633V85.5H134.609ZM139.84 96.1367C139.266 96.1367 138.751 96.0456 138.295 95.8633C137.839 95.6764 137.452 95.4189 137.133 95.0908C136.819 94.7627 136.577 94.3822 136.408 93.9492C136.24 93.5117 136.155 93.0469 136.155 92.5547V92.2812C136.155 91.7207 136.235 91.208 136.395 90.7432C136.554 90.2783 136.782 89.875 137.078 89.5332C137.379 89.1914 137.744 88.9294 138.172 88.7471C138.6 88.5602 139.084 88.4668 139.621 88.4668C140.145 88.4668 140.61 88.5534 141.016 88.7266C141.421 88.8997 141.761 89.1458 142.034 89.4648C142.312 89.7839 142.522 90.1667 142.663 90.6133C142.805 91.0553 142.875 91.5475 142.875 92.0898V92.9102H136.996V91.5977H140.941V91.4473C140.941 91.1738 140.89 90.93 140.79 90.7158C140.695 90.4971 140.549 90.3239 140.353 90.1963C140.157 90.0687 139.906 90.0049 139.601 90.0049C139.341 90.0049 139.118 90.0618 138.931 90.1758C138.744 90.2897 138.591 90.4492 138.473 90.6543C138.359 90.8594 138.272 91.1009 138.213 91.3789C138.158 91.6523 138.131 91.9531 138.131 92.2812V92.5547C138.131 92.8509 138.172 93.1243 138.254 93.375C138.341 93.6257 138.461 93.8421 138.616 94.0244C138.776 94.2067 138.967 94.348 139.191 94.4482C139.418 94.5485 139.676 94.5986 139.963 94.5986C140.319 94.5986 140.649 94.5303 140.954 94.3936C141.264 94.2523 141.531 94.0404 141.754 93.7578L142.711 94.7969C142.556 95.0202 142.344 95.2344 142.075 95.4395C141.811 95.6445 141.492 95.8132 141.118 95.9453C140.745 96.0729 140.319 96.1367 139.84 96.1367ZM146.165 90.1348V96H144.189V88.6035H146.042L146.165 90.1348ZM145.892 92.042H145.345C145.345 91.527 145.406 91.0531 145.529 90.6201C145.657 90.1826 145.841 89.8044 146.083 89.4854C146.329 89.1618 146.632 88.9111 146.992 88.7334C147.352 88.5557 147.769 88.4668 148.243 88.4668C148.571 88.4668 148.872 88.5169 149.146 88.6172C149.419 88.7129 149.654 88.8656 149.85 89.0752C150.05 89.2803 150.205 89.5492 150.314 89.8818C150.424 90.21 150.479 90.6042 150.479 91.0645V96H148.51V91.2832C148.51 90.946 148.464 90.6862 148.373 90.5039C148.282 90.3216 148.152 90.194 147.983 90.1211C147.819 90.0482 147.621 90.0117 147.389 90.0117C147.133 90.0117 146.91 90.0641 146.719 90.1689C146.532 90.2738 146.377 90.4196 146.254 90.6064C146.131 90.7887 146.04 91.0029 145.98 91.249C145.921 91.4951 145.892 91.7594 145.892 92.042ZM150.294 91.8164L149.59 91.9053C149.59 91.4222 149.649 90.9733 149.768 90.5586C149.891 90.1439 150.071 89.7793 150.308 89.4648C150.549 89.1504 150.848 88.9066 151.203 88.7334C151.559 88.5557 151.969 88.4668 152.434 88.4668C152.789 88.4668 153.113 88.5192 153.404 88.624C153.696 88.7243 153.944 88.8861 154.149 89.1094C154.359 89.3281 154.519 89.6152 154.628 89.9707C154.742 90.3262 154.799 90.7614 154.799 91.2764V96H152.823V91.2764C152.823 90.9346 152.778 90.6748 152.687 90.4971C152.6 90.3148 152.472 90.1895 152.304 90.1211C152.14 90.0482 151.944 90.0117 151.716 90.0117C151.479 90.0117 151.271 90.0596 151.094 90.1553C150.916 90.2464 150.768 90.374 150.649 90.5381C150.531 90.7021 150.442 90.8936 150.383 91.1123C150.324 91.3265 150.294 91.5612 150.294 91.8164ZM102.961 126.387V117.5H104.943V128H103.159L102.961 126.387ZM98.285 124.391V124.247C98.285 123.682 98.3488 123.169 98.4764 122.709C98.604 122.244 98.7908 121.845 99.0369 121.513C99.283 121.18 99.5861 120.923 99.9461 120.74C100.306 120.558 100.716 120.467 101.177 120.467C101.61 120.467 101.988 120.558 102.311 120.74C102.639 120.923 102.917 121.182 103.145 121.52C103.378 121.852 103.565 122.246 103.706 122.702C103.847 123.153 103.95 123.648 104.013 124.186V124.5C103.95 125.015 103.847 125.493 103.706 125.936C103.565 126.378 103.378 126.765 103.145 127.098C102.917 127.426 102.639 127.681 102.311 127.863C101.983 128.046 101.6 128.137 101.163 128.137C100.703 128.137 100.292 128.043 99.9324 127.856C99.577 127.67 99.2762 127.408 99.0301 127.07C98.7885 126.733 98.604 126.337 98.4764 125.881C98.3488 125.425 98.285 124.928 98.285 124.391ZM100.254 124.247V124.391C100.254 124.696 100.276 124.981 100.322 125.245C100.372 125.509 100.452 125.744 100.561 125.949C100.675 126.15 100.821 126.307 100.999 126.421C101.181 126.53 101.402 126.585 101.662 126.585C101.999 126.585 102.277 126.51 102.496 126.359C102.715 126.204 102.881 125.993 102.995 125.724C103.113 125.455 103.182 125.145 103.2 124.794V123.898C103.186 123.611 103.145 123.354 103.077 123.126C103.013 122.894 102.917 122.695 102.79 122.531C102.667 122.367 102.512 122.24 102.325 122.148C102.143 122.057 101.926 122.012 101.676 122.012C101.42 122.012 101.202 122.071 101.019 122.189C100.837 122.303 100.689 122.461 100.575 122.661C100.466 122.862 100.384 123.099 100.329 123.372C100.279 123.641 100.254 123.933 100.254 124.247ZM110.086 128.137C109.511 128.137 108.996 128.046 108.541 127.863C108.085 127.676 107.698 127.419 107.379 127.091C107.064 126.763 106.823 126.382 106.654 125.949C106.485 125.512 106.401 125.047 106.401 124.555V124.281C106.401 123.721 106.481 123.208 106.64 122.743C106.8 122.278 107.028 121.875 107.324 121.533C107.625 121.191 107.989 120.929 108.418 120.747C108.846 120.56 109.329 120.467 109.867 120.467C110.391 120.467 110.856 120.553 111.261 120.727C111.667 120.9 112.006 121.146 112.28 121.465C112.558 121.784 112.768 122.167 112.909 122.613C113.05 123.055 113.121 123.548 113.121 124.09V124.91H107.242V123.598H111.186V123.447C111.186 123.174 111.136 122.93 111.036 122.716C110.94 122.497 110.794 122.324 110.598 122.196C110.402 122.069 110.152 122.005 109.846 122.005C109.587 122.005 109.363 122.062 109.176 122.176C108.99 122.29 108.837 122.449 108.718 122.654C108.604 122.859 108.518 123.101 108.459 123.379C108.404 123.652 108.377 123.953 108.377 124.281V124.555C108.377 124.851 108.418 125.124 108.5 125.375C108.586 125.626 108.707 125.842 108.862 126.024C109.021 126.207 109.213 126.348 109.436 126.448C109.664 126.549 109.921 126.599 110.209 126.599C110.564 126.599 110.894 126.53 111.2 126.394C111.51 126.252 111.776 126.04 112 125.758L112.957 126.797C112.802 127.02 112.59 127.234 112.321 127.439C112.057 127.645 111.738 127.813 111.364 127.945C110.99 128.073 110.564 128.137 110.086 128.137ZM116.903 128H114.927V120.269C114.927 119.64 115.055 119.109 115.31 118.676C115.57 118.243 115.939 117.915 116.417 117.691C116.9 117.468 117.484 117.356 118.167 117.356C118.555 117.356 118.931 117.395 119.295 117.473C119.66 117.546 120.036 117.641 120.423 117.76L120.136 119.339C119.885 119.261 119.617 119.188 119.329 119.12C119.042 119.052 118.696 119.018 118.29 119.018C117.835 119.018 117.488 119.125 117.251 119.339C117.019 119.549 116.903 119.858 116.903 120.269V128ZM118.372 120.604V121.998H113.827V120.604H118.372ZM121.339 120.604V128H119.364V120.604H121.339ZM125.114 122.183V128H123.146V120.604H124.991L125.114 122.183ZM124.827 124.042H124.294C124.294 123.495 124.365 123.003 124.506 122.565C124.647 122.123 124.846 121.747 125.101 121.438C125.356 121.123 125.659 120.884 126.01 120.72C126.365 120.551 126.762 120.467 127.199 120.467C127.546 120.467 127.863 120.517 128.15 120.617C128.437 120.717 128.683 120.877 128.888 121.096C129.098 121.314 129.257 121.604 129.366 121.964C129.48 122.324 129.537 122.764 129.537 123.283V128H127.555V123.276C127.555 122.948 127.509 122.693 127.418 122.511C127.327 122.328 127.193 122.201 127.015 122.128C126.842 122.05 126.627 122.012 126.372 122.012C126.108 122.012 125.878 122.064 125.682 122.169C125.49 122.274 125.331 122.42 125.203 122.606C125.08 122.789 124.987 123.003 124.923 123.249C124.859 123.495 124.827 123.759 124.827 124.042ZM133.312 120.604V128H131.337V120.604H133.312ZM131.214 118.676C131.214 118.389 131.314 118.152 131.515 117.965C131.715 117.778 131.984 117.685 132.321 117.685C132.654 117.685 132.921 117.778 133.121 117.965C133.326 118.152 133.429 118.389 133.429 118.676C133.429 118.963 133.326 119.2 133.121 119.387C132.921 119.574 132.654 119.667 132.321 119.667C131.984 119.667 131.715 119.574 131.515 119.387C131.314 119.2 131.214 118.963 131.214 118.676ZM138.763 120.604V121.998H134.456V120.604H138.763ZM135.522 118.778H137.491V125.771C137.491 125.986 137.518 126.15 137.573 126.264C137.632 126.378 137.719 126.457 137.833 126.503C137.947 126.544 138.09 126.564 138.263 126.564C138.387 126.564 138.496 126.56 138.592 126.551C138.692 126.537 138.776 126.523 138.845 126.51L138.851 127.959C138.683 128.014 138.5 128.057 138.304 128.089C138.109 128.121 137.892 128.137 137.655 128.137C137.222 128.137 136.844 128.066 136.52 127.925C136.201 127.779 135.955 127.547 135.782 127.228C135.609 126.909 135.522 126.489 135.522 125.97V118.778ZM142.162 120.604V128H140.186V120.604H142.162ZM140.063 118.676C140.063 118.389 140.163 118.152 140.364 117.965C140.564 117.778 140.833 117.685 141.171 117.685C141.503 117.685 141.77 117.778 141.97 117.965C142.175 118.152 142.278 118.389 142.278 118.676C142.278 118.963 142.175 119.2 141.97 119.387C141.77 119.574 141.503 119.667 141.171 119.667C140.833 119.667 140.564 119.574 140.364 119.387C140.163 119.2 140.063 118.963 140.063 118.676ZM143.674 124.377V124.233C143.674 123.691 143.752 123.192 143.907 122.736C144.062 122.276 144.287 121.877 144.583 121.54C144.88 121.203 145.244 120.941 145.677 120.754C146.11 120.562 146.607 120.467 147.167 120.467C147.728 120.467 148.227 120.562 148.664 120.754C149.102 120.941 149.469 121.203 149.765 121.54C150.066 121.877 150.294 122.276 150.449 122.736C150.604 123.192 150.681 123.691 150.681 124.233V124.377C150.681 124.915 150.604 125.414 150.449 125.874C150.294 126.33 150.066 126.729 149.765 127.07C149.469 127.408 149.104 127.67 148.671 127.856C148.238 128.043 147.742 128.137 147.181 128.137C146.621 128.137 146.121 128.043 145.684 127.856C145.251 127.67 144.884 127.408 144.583 127.07C144.287 126.729 144.062 126.33 143.907 125.874C143.752 125.414 143.674 124.915 143.674 124.377ZM145.643 124.233V124.377C145.643 124.687 145.67 124.976 145.725 125.245C145.78 125.514 145.866 125.751 145.985 125.956C146.108 126.157 146.267 126.314 146.463 126.428C146.659 126.542 146.899 126.599 147.181 126.599C147.454 126.599 147.689 126.542 147.885 126.428C148.081 126.314 148.238 126.157 148.357 125.956C148.475 125.751 148.562 125.514 148.617 125.245C148.676 124.976 148.705 124.687 148.705 124.377V124.233C148.705 123.933 148.676 123.65 148.617 123.386C148.562 123.117 148.473 122.88 148.35 122.675C148.232 122.465 148.074 122.301 147.878 122.183C147.682 122.064 147.445 122.005 147.167 122.005C146.889 122.005 146.652 122.064 146.456 122.183C146.265 122.301 146.108 122.465 145.985 122.675C145.866 122.88 145.78 123.117 145.725 123.386C145.67 123.65 145.643 123.933 145.643 124.233ZM154.019 122.183V128H152.05V120.604H153.896L154.019 122.183ZM153.732 124.042H153.198C153.198 123.495 153.269 123.003 153.41 122.565C153.552 122.123 153.75 121.747 154.005 121.438C154.26 121.123 154.563 120.884 154.914 120.72C155.27 120.551 155.666 120.467 156.104 120.467C156.45 120.467 156.767 120.517 157.054 120.617C157.341 120.717 157.587 120.877 157.792 121.096C158.002 121.314 158.161 121.604 158.271 121.964C158.385 122.324 158.442 122.764 158.442 123.283V128H156.459V123.276C156.459 122.948 156.414 122.693 156.322 122.511C156.231 122.328 156.097 122.201 155.919 122.128C155.746 122.05 155.532 122.012 155.277 122.012C155.012 122.012 154.782 122.064 154.586 122.169C154.395 122.274 154.235 122.42 154.108 122.606C153.985 122.789 153.891 123.003 153.827 123.249C153.764 123.495 153.732 123.759 153.732 124.042Z" fill="#2673E5"/>
<path d="M10 135C4.47715 135 -1.95703e-07 130.523 -4.37114e-07 125L-5.24537e-06 15C-5.48678e-06 9.47715 4.47715 5 9.99999 5L32 5L32 135L10 135Z" fill="#FAFAFC"/>
<path d="M36.5234 43.707V95H26.3984V55.3789L14.2344 59.2461V51.2656L35.4336 43.707H36.5234Z" fill="#2673E5" fill-opacity="0.3"/>
<g filter="url(#filter0_d_2643_16599)">
<path d="M32 5H208C213.523 5 218 9.47715 218 15V125C218 130.523 213.523 135 208 135H32V5Z" fill="#2673E5" fill-opacity="0.15" shape-rendering="crispEdges"/>
</g>
<g opacity="0.5">
<path d="M108.5 45H110.333M125 28.5V30.3333M139.667 45H141.5M113.267 33.2667L114.55 34.55M136.733 33.2667L135.45 34.55" stroke="black" stroke-width="1.5" stroke-linecap="round" stroke-linejoin="round"/>
<path d="M119.499 52.332C117.96 51.1777 116.823 49.5683 116.249 47.7319C115.675 45.8955 115.694 43.9251 116.302 42.0999C116.911 40.2748 118.078 38.6872 119.639 37.5623C121.2 36.4374 123.075 35.832 124.999 35.832C126.923 35.832 128.798 36.4374 130.359 37.5623C131.919 38.6872 133.087 40.2748 133.695 42.0999C134.303 43.9251 134.322 45.8955 133.748 47.7319C133.175 49.5683 132.038 51.1777 130.499 52.332C129.783 53.0406 129.244 53.9077 128.925 54.8632C128.607 55.8187 128.518 56.8357 128.665 57.832C128.665 58.8045 128.279 59.7371 127.591 60.4248C126.904 61.1124 125.971 61.4987 124.999 61.4987C124.026 61.4987 123.094 61.1124 122.406 60.4248C121.718 59.7371 121.332 58.8045 121.332 57.832C121.48 56.8357 121.39 55.8187 121.072 54.8632C120.753 53.9077 120.214 53.0406 119.499 52.332" stroke="black" stroke-width="1.5" stroke-linecap="round" stroke-linejoin="round"/>
<path d="M120.781 54.168H129.215" stroke="black" stroke-width="1.5" stroke-linecap="round" stroke-linejoin="round"/>
</g>
<defs>
<filter id="filter0_d_2643_16599" x="23" y="0" width="196" height="140" filterUnits="userSpaceOnUse" color-interpolation-filters="sRGB">
<feFlood flood-opacity="0" result="BackgroundImageFix"/>
<feColorMatrix in="SourceAlpha" type="matrix" values="0 0 0 0 0 0 0 0 0 0 0 0 0 0 0 0 0 0 127 0" result="hardAlpha"/>
<feOffset dx="-4"/>
<feGaussianBlur stdDeviation="2.5"/>
<feComposite in2="hardAlpha" operator="out"/>
<feColorMatrix type="matrix" values="0 0 0 0 0 0 0 0 0 0 0 0 0 0 0 0 0 0 0.25 0"/>
<feBlend mode="normal" in2="BackgroundImageFix" result="effect1_dropShadow_2643_16599"/>
<feBlend mode="normal" in="SourceGraphic" in2="effect1_dropShadow_2643_16599" result="shape"/>
</filter>
</defs>
</svg>
