<svg width="85" height="85" viewBox="0 0 85 85" fill="none" xmlns="http://www.w3.org/2000/svg">
<path d="M13.0264 7.5V13.6058C13.0264 13.8591 13.1225 14.103 13.2953 14.2882L19.7574 21.2118C19.9302 21.397 20.0264 21.6409 20.0264 21.8942V38" stroke="#2673E5" stroke-width="2" stroke-linecap="round" stroke-linejoin="round"/>
<path d="M25.5264 38V14C25.5264 13.4477 25.9741 13 26.5264 13H31.0264" stroke="#2673E5" stroke-width="2" stroke-linecap="round" stroke-linejoin="round"/>
<circle cx="5.02637" cy="4.5" r="4.5" fill="#2673E5"/>
<circle cx="43.0264" cy="12.5" r="3.5" stroke="#2673E5" stroke-width="2"/>
<circle cx="43.0264" cy="12.5" r="10.5" stroke="#2673E5" stroke-width="4"/>
<circle cx="76.0264" cy="4.5" r="4.5" fill="#2673E5"/>
<circle cx="80.0264" cy="27.5" r="4.5" fill="#2673E5"/>
<circle cx="64.0264" cy="12.5" r="4.5" fill="#2673E5"/>
<circle cx="54.0264" cy="29.5" r="4.5" fill="#2673E5"/>
<path d="M42.5264 24V28.5C42.5264 29.0523 42.9741 29.5 43.5264 29.5H50.0264" stroke="#2673E5" stroke-width="2" stroke-linecap="round" stroke-linejoin="round"/>
<path d="M5.02637 8.5V20.3963C5.02637 20.7675 5.23207 21.1083 5.56062 21.2812L13.9921 25.7188C14.3207 25.8917 14.5264 26.2325 14.5264 26.6037V38" stroke="#2673E5" stroke-width="2" stroke-linecap="round" stroke-linejoin="round"/>
<path d="M64.0264 16.5V38" stroke="#2673E5" stroke-width="2" stroke-linecap="round" stroke-linejoin="round"/>
<path d="M76.0264 8V16.611C76.0264 16.8612 75.9326 17.1023 75.7635 17.2867L70.7892 22.7133C70.6202 22.8977 70.5264 23.1388 70.5264 23.389V38" stroke="#2673E5" stroke-width="2" stroke-linecap="round" stroke-linejoin="round"/>
<path d="M80.0264 31V38" stroke="#2673E5" stroke-width="2" stroke-linecap="round" stroke-linejoin="round"/>
<path d="M4.05762 55.0435L20.0944 47.211C20.3674 47.0776 20.6863 47.0757 20.9609 47.2056L37.5264 55.0435M4.05762 55.0435L3.54294 75.8236C3.53291 76.2285 3.76814 76.5995 4.13867 76.7631L20.5264 84M4.05762 55.0435L20.5264 63.087M20.5264 84V63.087M20.5264 84L36.9541 76.2273C37.3035 76.062 37.5264 75.71 37.5264 75.3234V55.0435M20.5264 63.087L37.5264 55.0435" stroke="#2673E5" stroke-width="2" stroke-linecap="round" stroke-linejoin="round"/>
<path d="M50.0576 55.0435L66.0944 47.211C66.3674 47.0776 66.6863 47.0757 66.9609 47.2056L83.5264 55.0435M50.0576 55.0435L49.5429 75.8236C49.5329 76.2285 49.7681 76.5995 50.1387 76.7631L66.5264 84M50.0576 55.0435L66.5264 63.087M66.5264 84V63.087M66.5264 84L82.9541 76.2273C83.3035 76.062 83.5264 75.71 83.5264 75.3234V55.0435M66.5264 63.087L83.5264 55.0435" stroke="#2673E5" stroke-width="2" stroke-linecap="round" stroke-linejoin="round"/>
</svg>
