<svg width="85" height="85" viewBox="0 0 85 85" fill="none" xmlns="http://www.w3.org/2000/svg">
<path d="M11.999 47.415L8.99902 65.8218" stroke="#2673E5" stroke-width="2" stroke-linecap="round" stroke-linejoin="round"/>
<path d="M18.499 47.9268L21.499 65.8222" stroke="#2673E5" stroke-width="2" stroke-linecap="round" stroke-linejoin="round"/>
<rect x="1.49902" y="66.3105" width="82" height="17.4294" rx="1" stroke="#2673E5" stroke-width="2"/>
<rect x="7.49902" y="71.4238" width="7" height="6.18079" rx="1" stroke="#2673E5" stroke-width="2"/>
<rect x="20.499" y="71.4238" width="7" height="6.18079" rx="1" stroke="#2673E5" stroke-width="2"/>
<path d="M21.499 42.8144C21.499 46.2367 18.7918 48.9726 15.499 48.9726C12.2063 48.9726 9.49902 46.2367 9.49902 42.8144C9.49902 39.3922 12.2063 36.6562 15.499 36.6562C18.7918 36.6562 21.499 39.3922 21.499 42.8144Z" stroke="#2673E5" stroke-width="2"/>
<path d="M31.499 18.2715C31.499 21.6937 28.7918 24.4297 25.499 24.4297C22.2063 24.4297 19.499 21.6937 19.499 18.2715C19.499 14.8492 22.2063 12.1133 25.499 12.1133C28.7918 12.1133 31.499 14.8492 31.499 18.2715Z" stroke="#2673E5" stroke-width="2"/>
<path d="M44.499 49.9717C44.499 53.3939 41.7918 56.1299 38.499 56.1299C35.2063 56.1299 32.499 53.3939 32.499 49.9717C32.499 46.5494 35.2063 43.8135 38.499 43.8135C41.7918 43.8135 44.499 46.5494 44.499 49.9717Z" stroke="#2673E5" stroke-width="2"/>
<path d="M65.499 34.6335C65.499 36.9262 63.6872 38.7465 61.499 38.7465C59.3108 38.7465 57.499 36.9262 57.499 34.6335C57.499 32.3408 59.3108 30.5205 61.499 30.5205C63.6872 30.5205 65.499 32.3408 65.499 34.6335Z" stroke="#2673E5" stroke-width="2"/>
<path d="M56.499 56.108C56.499 57.8359 55.1349 59.1984 53.499 59.1984C51.8631 59.1984 50.499 57.8359 50.499 56.108C50.499 54.38 51.8631 53.0176 53.499 53.0176C55.1349 53.0176 56.499 54.38 56.499 56.108Z" stroke="#2673E5" stroke-width="2"/>
<path d="M67.499 56.108C67.499 57.8359 66.1349 59.1984 64.499 59.1984C62.8631 59.1984 61.499 57.8359 61.499 56.108C61.499 54.38 62.8631 53.0176 64.499 53.0176C66.1349 53.0176 67.499 54.38 67.499 56.108Z" stroke="#2673E5" stroke-width="2"/>
<path d="M78.499 56.108C78.499 57.8359 77.1349 59.1984 75.499 59.1984C73.8631 59.1984 72.499 57.8359 72.499 56.108C72.499 54.38 73.8631 53.0176 75.499 53.0176C77.1349 53.0176 78.499 54.38 78.499 56.108Z" stroke="#2673E5" stroke-width="2"/>
<path d="M19.999 21.3389L13.499 36.6779" stroke="#2673E5" stroke-width="2" stroke-linecap="round" stroke-linejoin="round"/>
<path d="M25.999 24.918L19.999 38.7231" stroke="#2673E5" stroke-width="2" stroke-linecap="round" stroke-linejoin="round"/>
<path d="M30.999 21.3389L39.999 43.8361" stroke="#2673E5" stroke-width="2" stroke-linecap="round" stroke-linejoin="round"/>
<path d="M24.999 24.4062L33.499 45.8808" stroke="#2673E5" stroke-width="2" stroke-linecap="round" stroke-linejoin="round"/>
<path d="M41.499 43.8363L57.499 33.6104" stroke="#2673E5" stroke-width="2" stroke-linecap="round" stroke-linejoin="round"/>
<path d="M44.999 49.9712L60.999 38.7227" stroke="#2673E5" stroke-width="2" stroke-linecap="round" stroke-linejoin="round"/>
<path d="M53.499 59.1748V73.4912" stroke="#2673E5" stroke-width="2" stroke-linecap="round" stroke-linejoin="round"/>
<path d="M64.499 59.1748V73.4912" stroke="#2673E5" stroke-width="2" stroke-linecap="round" stroke-linejoin="round"/>
<path d="M75.499 59.1748V73.4912" stroke="#2673E5" stroke-width="2" stroke-linecap="round" stroke-linejoin="round"/>
<path d="M50.999 77.582H55.999" stroke="#2673E5" stroke-width="2" stroke-linecap="round" stroke-linejoin="round"/>
<path d="M61.499 77.582H66.499" stroke="#2673E5" stroke-width="2" stroke-linecap="round" stroke-linejoin="round"/>
<path d="M53.483 7.7027L53.3816 22.2648C53.4826 24.5697 55.1598 29.0966 61.0609 28.7651C68.4372 28.3508 70.2154 25.0627 70.2458 20.694C70.2701 17.1991 70.2999 12.9276 70.3117 11.2286" stroke="#2673E5" stroke-width="2" stroke-linecap="round" stroke-linejoin="round"/>
<path d="M47.8293 12.838L48.1129 18.5329C48.1284 18.8434 48.2799 19.1296 48.5243 19.3098L53.0279 22.6315" stroke="#2673E5" stroke-width="2" stroke-linecap="round" stroke-linejoin="round"/>
<path d="M53.3975 20.0811L70.6004 20.3278" stroke="#2673E5" stroke-width="2" stroke-linecap="round" stroke-linejoin="round"/>
<path d="M59.1264 4.02313L59.0149 20.0415" stroke="#2673E5" stroke-width="2" stroke-linecap="round" stroke-linejoin="round"/>
<path d="M64.7234 6.89712L64.6322 20.003" stroke="#2673E5" stroke-width="2" stroke-linecap="round" stroke-linejoin="round"/>
<path d="M72.499 77.582H77.499" stroke="#2673E5" stroke-width="2" stroke-linecap="round" stroke-linejoin="round"/>
</svg>
