<svg width="122" height="85" viewBox="0 0 122 85" fill="none" xmlns="http://www.w3.org/2000/svg">
<rect x="41.8711" y="1" width="59.2131" height="59.2131" rx="5" transform="rotate(45 41.8711 1)" fill="#2673E5" fill-opacity="0.1"/>
<path d="M63.5293 32.0435L79.5661 24.211C79.8391 24.0776 80.1579 24.0757 80.4326 24.2056L96.998 32.0435M63.5293 32.0435L63.0146 52.8236C63.0046 53.2285 63.2398 53.5995 63.6103 53.7631L79.998 61M63.5293 32.0435L79.998 40.087M79.998 61V40.087M79.998 61L96.4257 53.2273C96.7752 53.062 96.998 52.71 96.998 52.3234V32.0435M79.998 40.087L96.998 32.0435" stroke="#2673E5" stroke-width="2" stroke-linecap="round" stroke-linejoin="round"/>
<circle cx="57.498" cy="3.5" r="2.5" stroke="#2673E5" stroke-width="2"/>
<circle cx="80.498" cy="3.5" r="2.5" stroke="#2673E5" stroke-width="2"/>
<circle cx="102.498" cy="3.5" r="2.5" stroke="#2673E5" stroke-width="2"/>
<path d="M102.498 6.5V9C102.498 9.55228 102.05 10 101.498 10H90.998C90.4458 10 89.998 10.4477 89.998 11V28.5" stroke="#2673E5" stroke-width="2" stroke-linecap="round" stroke-linejoin="round"/>
<path d="M80.498 6V24" stroke="#2673E5" stroke-width="2" stroke-linecap="round" stroke-linejoin="round"/>
<path d="M57.498 6V9C57.498 9.55228 57.9458 10 58.498 10H68.998C69.5503 10 69.998 10.4477 69.998 11V28" stroke="#2673E5" stroke-width="2" stroke-linecap="round" stroke-linejoin="round"/>
<rect x="38.998" y="15" width="82" height="52" rx="3" stroke="#2673E5" stroke-width="2"/>
<rect x="43.998" y="19" width="72" height="44" rx="3" stroke="#2673E5" stroke-width="2"/>
<rect x="56.998" y="78" width="46" height="5" rx="2.5" fill="#D9D9D9" stroke="#2673E5" stroke-width="2"/>
<path d="M69.998 67.5C69.998 70.3333 68.998 76.3 64.998 77.5" stroke="#2673E5" stroke-width="2" stroke-linecap="round" stroke-linejoin="round"/>
<path d="M89.9979 67.5471C90.0501 70.38 91.1597 76.3272 95.1811 77.4534" stroke="#2673E5" stroke-width="2" stroke-linecap="round" stroke-linejoin="round"/>
</svg>
