<svg width="112" height="85" viewBox="0 0 112 85" fill="none" xmlns="http://www.w3.org/2000/svg">
<rect x="41.8711" y="0.240234" width="59.2131" height="59.2131" rx="5" transform="rotate(45 41.8711 0.240234)" fill="#2673E5" fill-opacity="0.1"/>
<rect x="47.8359" y="2" width="63.1629" height="82" rx="1" stroke="#2673E5" stroke-width="2"/>
<path d="M63.1279 13.6507H79.9277H93.673L77.8914 6.56641L63.1279 13.6507Z" stroke="#2673E5" stroke-width="2" stroke-linecap="round" stroke-linejoin="round"/>
<rect x="69.2178" y="14.3877" width="17.3452" height="11.1566" rx="1" stroke="#2673E5" stroke-width="2"/>
<rect x="74.3086" y="19.4482" width="7.16353" height="6.09639" rx="1" stroke="#2673E5" stroke-width="2"/>
<rect x="63.633" y="25.0265" width="27.4967" height="1.01205" rx="0.506024" stroke="#2673E5" stroke-width="1.01205"/>
<path d="M98.7451 3.40396L109.575 14.1687H98.7451V3.40396Z" stroke="#2673E5" stroke-width="2"/>
<path d="M111.999 1.00027L97.7446 1.00027L111.999 15.1689L111.999 1.00027Z" fill="white"/>
<path d="M47.8543 6.56641L29.9644 12.0379C28.8881 12.3671 28.2953 13.5192 28.6531 14.5863L47.8543 71.8435" stroke="#2673E5" stroke-width="2" stroke-linecap="round" stroke-linejoin="round"/>
<path d="M89.0898 71.0742H106.399" stroke="#2673E5" stroke-width="2" stroke-linecap="round" stroke-linejoin="round"/>
<path d="M89.0898 76.1348H106.399" stroke="#2673E5" stroke-width="2" stroke-linecap="round" stroke-linejoin="round"/>
<path d="M53.4541 44.4772V36.1348C53.4541 35.0302 54.3495 34.1348 55.4541 34.1348H69.2449C70.0833 34.1348 70.763 33.4551 70.763 32.6167C70.763 31.7783 71.4427 31.0986 72.2811 31.0986H92.4798C92.9225 31.0986 93.3528 31.2455 93.703 31.5163L101.814 37.7867C102.146 38.0436 102.554 38.183 102.974 38.183C104.022 38.183 104.872 39.0325 104.872 40.0805V50.3516C104.872 51.4562 103.976 52.3516 102.872 52.3516H96.5331C96.0047 52.3516 95.4978 52.5607 95.1231 52.9332L81.8455 66.1309C81.0655 66.9063 79.8057 66.9063 79.0257 66.1309L62.8722 50.0745C62.4497 49.6546 61.7674 49.6546 61.3449 50.0745C60.9224 50.4945 60.2401 50.4945 59.8177 50.0745L56.5267 46.8034C56.189 46.4677 55.7323 46.2794 55.2562 46.2794C54.2609 46.2794 53.4541 45.4725 53.4541 44.4772Z" stroke="#2673E5" stroke-width="2" stroke-linecap="round" stroke-linejoin="round"/>
<path d="M70.7627 33.123V34.6652C70.7627 35.7698 71.6581 36.6652 72.7627 36.6652H79.6104C80.1388 36.6652 80.6456 36.8743 81.0204 37.2467L96.2169 52.352" stroke="#2673E5" stroke-width="2" stroke-linecap="round" stroke-linejoin="round"/>
<path d="M60.5819 50.3271L58.9544 51.9448C58.1677 52.7268 58.1677 53.9998 58.9544 54.7818L73.4263 69.1666C74.2064 69.942 75.4661 69.942 76.2462 69.1666L78.9089 66.5199" stroke="#2673E5" stroke-width="2" stroke-linecap="round" stroke-linejoin="round"/>
<path d="M82.9814 50.3271L90.1086 57.4115" stroke="#2673E5" stroke-width="2" stroke-linecap="round" stroke-linejoin="round"/>
<path d="M78.3994 53.8701L85.5266 60.9545" stroke="#2673E5" stroke-width="2" stroke-linecap="round" stroke-linejoin="round"/>
<path d="M66.1811 53.3633L62.1084 57.4115" stroke="#2673E5" stroke-width="2" stroke-linecap="round" stroke-linejoin="round"/>
<path d="M70.2543 57.918L66.1816 61.9662" stroke="#2673E5" stroke-width="2" stroke-linecap="round" stroke-linejoin="round"/>
<path d="M74.327 62.9785L71.2725 66.0147" stroke="#2673E5" stroke-width="2" stroke-linecap="round" stroke-linejoin="round"/>
</svg>
