<svg width="86" height="86" viewBox="0 0 86 86" fill="none" xmlns="http://www.w3.org/2000/svg">
<path d="M12.3224 49.7891C8.54792 49.1042 0.999023 46.0909 0.999023 39.5164C0.999023 34.1716 3.94716 31.633 6.24834 30.6864C6.90919 30.4145 7.28707 29.5909 7.00231 28.9355C5.44062 25.3411 4.64227 18.8775 10.7783 13.8348C17.1719 8.58035 24.0522 9.21083 27.4186 10.4032C27.9127 10.5782 28.4735 10.3983 28.7646 9.96238C31.6794 5.59811 39.8096 -1.07196 52.9835 2.02137C66.0716 5.09456 69.9829 13.4947 70.4367 18.073C70.4872 18.5823 70.8693 19.0076 71.3718 19.1045C74.7621 19.7582 79.9867 22.3367 79.233 28.7299" stroke="#2673E5" stroke-width="2" stroke-linecap="round" stroke-linejoin="round"/>
<path d="M79.2329 28.7295C81.4633 30.0992 85.7181 34.174 84.8946 39.5158C83.8652 46.193 78.2035 50.3021 74.0859 49.7884" stroke="#2673E5" stroke-width="2" stroke-linecap="round" stroke-linejoin="round"/>
<path d="M11.293 25.6486C11.6361 22.9092 14.2782 16.9168 22.1016 14.8623" stroke="#2673E5" stroke-width="2" stroke-linecap="round" stroke-linejoin="round"/>
<path d="M21.587 27.7031L24.6072 31.1477C24.94 31.5272 24.9378 32.0952 24.602 32.4721L21.0723 36.4349" stroke="#2673E5" stroke-width="2" stroke-linecap="round" stroke-linejoin="round"/>
<path d="M21.5865 31.8115C19.6993 31.4691 15.8219 32.7361 15.4102 40.5433" stroke="#2673E5" stroke-width="2" stroke-linecap="round" stroke-linejoin="round"/>
<path d="M73.5682 35.1395L70.056 38.0892C69.6707 38.4128 69.105 38.3997 68.7351 38.0586L64.8299 34.4579" stroke="#2673E5" stroke-width="2" stroke-linecap="round" stroke-linejoin="round"/>
<path d="M69.4523 35.0599C69.8317 33.1835 68.637 29.2905 60.823 28.7294" stroke="#2673E5" stroke-width="2" stroke-linecap="round" stroke-linejoin="round"/>
<path d="M39.4596 74.9669L37.5151 70.8213C37.3009 70.3646 37.4608 69.8198 37.888 69.5507L42.381 66.7202" stroke="#2673E5" stroke-width="2" stroke-linecap="round" stroke-linejoin="round"/>
<path d="M40.6013 71.019C42.3193 71.8703 46.3967 71.7263 48.9622 64.3393" stroke="#2673E5" stroke-width="2" stroke-linecap="round" stroke-linejoin="round"/>
<rect x="5.08691" y="55.4111" width="25.7937" height="16.4908" rx="1" stroke="#2673E5" stroke-width="2"/>
<rect x="5.08691" y="75.957" width="25.7937" height="8.27265" rx="1" stroke="#2673E5" stroke-width="2"/>
<path d="M9.74902 80.6064H19.5283" stroke="#2673E5" stroke-width="2" stroke-linecap="round" stroke-linejoin="round"/>
<path d="M23.6455 80.6064H26.219" stroke="#2673E5" stroke-width="2" stroke-linecap="round" stroke-linejoin="round"/>
<rect x="55.5273" y="55.4111" width="25.7937" height="16.4908" rx="1" stroke="#2673E5" stroke-width="2"/>
<rect x="29.793" y="20.4844" width="25.7937" height="16.4908" rx="1" stroke="#2673E5" stroke-width="2"/>
<rect x="55.5273" y="75.957" width="25.7937" height="8.27265" rx="1" stroke="#2673E5" stroke-width="2"/>
<rect x="29.793" y="41.0303" width="25.7937" height="8.27265" rx="1" stroke="#2673E5" stroke-width="2"/>
<path d="M60.1895 80.6064H69.9687" stroke="#2673E5" stroke-width="2" stroke-linecap="round" stroke-linejoin="round"/>
<path d="M34.4541 45.6797H44.2334" stroke="#2673E5" stroke-width="2" stroke-linecap="round" stroke-linejoin="round"/>
<path d="M74.0859 80.6064H76.6594" stroke="#2673E5" stroke-width="2" stroke-linecap="round" stroke-linejoin="round"/>
<path d="M48.3516 45.6797H50.925" stroke="#2673E5" stroke-width="2" stroke-linecap="round" stroke-linejoin="round"/>
</svg>
