<svg width="24" height="24" viewBox="0 0 24 24" fill="none" xmlns="http://www.w3.org/2000/svg">
<rect width="24" height="24" rx="4" fill="black" fill-opacity="0.5"/>
<path fill-rule="evenodd" clip-rule="evenodd" d="M15.5016 8.49835L16.4444 7.55554H18.2222C18.6937 7.55554 19.1459 7.74284 19.4793 8.07624C19.8127 8.40964 20 8.86182 20 9.33332V18.2222C20 18.6937 19.8127 19.1459 19.4793 19.4793C19.1459 19.8127 18.6937 20 18.2222 20H9.33333C8.86183 20 8.40965 19.8127 8.07625 19.4793C7.74285 19.1459 7.55555 18.6937 7.55555 18.2222V16.4444L8.49836 15.5016C8.73964 15.7429 8.88888 16.0762 8.88888 16.4444V18.2222C8.88888 18.3401 8.93571 18.4531 9.01906 18.5365C9.10241 18.6198 9.21545 18.6667 9.33333 18.6667H18.2222C18.3401 18.6667 18.4531 18.6198 18.5365 18.5365C18.6198 18.4531 18.6667 18.3401 18.6667 18.2222V9.33332C18.6667 9.21545 18.6198 9.1024 18.5365 9.01905C18.4531 8.9357 18.3401 8.88888 18.2222 8.88888H16.4444C16.0763 8.88888 15.7429 8.73964 15.5016 8.49835Z" fill="white"/>
<path d="M5.77766 4H14.6666C15.6484 4 16.4443 4.79594 16.4443 5.77778V14.6667C16.4443 15.6485 15.6484 16.4445 14.6666 16.4445H5.77766C4.79582 16.4445 3.99988 15.6485 3.99988 14.6667V5.77778C3.99988 4.79594 4.79582 4 5.77766 4Z" fill="white"/>
<path fill-rule="evenodd" clip-rule="evenodd" d="M5.77766 5.33333H14.6666C14.912 5.33333 15.111 5.53232 15.111 5.77778V14.6667C15.111 14.9121 14.912 15.1111 14.6666 15.1111H5.77766C5.5322 15.1111 5.33322 14.9121 5.33322 14.6667V5.77778C5.33322 5.53232 5.5322 5.33333 5.77766 5.33333ZM14.6666 4H5.77766C4.79582 4 3.99988 4.79594 3.99988 5.77778V14.6667C3.99988 15.6485 4.79582 16.4445 5.77766 16.4445H14.6666C15.6484 16.4445 16.4443 15.6485 16.4443 14.6667V5.77778C16.4443 4.79594 15.6484 4 14.6666 4Z" fill="white"/>
</svg>
