<svg width="40" height="40" viewBox="0 0 40 40" fill="none" xmlns="http://www.w3.org/2000/svg">
<rect x="0.5" y="0.5" width="39" height="39" rx="19.5" fill="white"/>
<g clip-path="url(#clip0_5272_50716)">
<path d="M22.667 14.6667H17.3337C15.8609 14.6667 14.667 15.8607 14.667 17.3334V22.6667C14.667 24.1395 15.8609 25.3334 17.3337 25.3334H22.667C24.1398 25.3334 25.3337 24.1395 25.3337 22.6667V17.3334C25.3337 15.8607 24.1398 14.6667 22.667 14.6667Z" stroke="#475F96" stroke-width="1.25" stroke-linecap="round" stroke-linejoin="round"/>
<path d="M20 22C21.1046 22 22 21.1046 22 20C22 18.8954 21.1046 18 20 18C18.8954 18 18 18.8954 18 20C18 21.1046 18.8954 22 20 22Z" stroke="#475F96" stroke-width="1.25" stroke-linecap="round" stroke-linejoin="round"/>
<path d="M23 17V17.001" stroke="#475F96" stroke-width="1.25" stroke-linecap="round" stroke-linejoin="round"/>
</g>
<rect x="0.5" y="0.5" width="39" height="39" rx="19.5" stroke="#475F96"/>
<defs>
<clipPath id="clip0_5272_50716">
<rect width="16" height="16" fill="white" transform="translate(12 12)"/>
</clipPath>
</defs>
</svg>
