<svg width="40" height="40" viewBox="0 0 40 40" fill="none" xmlns="http://www.w3.org/2000/svg">
<g clip-path="url(#clip0_3535_15535)">
<path d="M22.6665 14.6667H17.3332C15.8604 14.6667 14.6665 15.8607 14.6665 17.3334V22.6667C14.6665 24.1395 15.8604 25.3334 17.3332 25.3334H22.6665C24.1393 25.3334 25.3332 24.1395 25.3332 22.6667V17.3334C25.3332 15.8607 24.1393 14.6667 22.6665 14.6667Z" stroke="white" stroke-width="1.25" stroke-linecap="round" stroke-linejoin="round"/>
<path d="M20 22C21.1046 22 22 21.1046 22 20C22 18.8954 21.1046 18 20 18C18.8954 18 18 18.8954 18 20C18 21.1046 18.8954 22 20 22Z" stroke="white" stroke-width="1.25" stroke-linecap="round" stroke-linejoin="round"/>
<path d="M23 17V17.001" stroke="white" stroke-width="1.25" stroke-linecap="round" stroke-linejoin="round"/>
</g>
<rect x="0.5" y="0.5" width="39" height="39" rx="19.5" stroke="white"/>
<defs>
<clipPath id="clip0_3535_15535">
<rect width="16" height="16" fill="white" transform="translate(12 12)"/>
</clipPath>
</defs>
</svg>
