<svg width="20" height="16" viewBox="0 0 20 16" fill="none" xmlns="http://www.w3.org/2000/svg">
<path d="M0.25546 6.15224C0.673732 6.98487 1.39707 8.1462 2.60779 9.2036C3.2358 9.75224 4.38098 10.7299 6.13272 11.1408C7.05864 11.3583 7.81772 11.3389 8.15735 11.3196C8.69717 11.2882 9.58495 11.2362 10.5216 10.7492C11.8145 10.0773 12.9943 8.68276 12.6999 7.92626C12.6213 7.72324 12.4151 7.51055 12.203 7.38366C11.9123 7.20844 11.6191 7.19998 11.3248 7.19514C10.9923 7.1891 10.7671 7.23865 10.5037 7.28698C10.5037 7.28698 9.78873 7.4175 9.1643 7.47067C8.06797 7.56372 6.64394 6.99575 6.49975 6.18366C6.47473 6.04348 6.47353 5.81266 6.65228 5.49363C6.70472 5.42475 6.78813 5.32928 6.90611 5.23381C7.2064 4.99091 7.51981 4.92566 7.65923 4.89665C8.09657 4.8036 8.68883 4.67792 9.07135 4.54982C9.71842 4.33472 10.1772 3.97581 10.8553 3.4465C10.984 3.3462 11.2068 3.16735 11.4761 2.92324C12.2614 2.21025 12.4271 1.85738 13.0169 1.30028C13.3875 0.949824 13.7117 0.644084 14.1907 0.406018C14.3957 0.304507 15.8519 -0.389149 17.2831 0.346803C18.3186 0.878525 18.7333 1.81991 18.8418 2.09061C18.9812 2.45315 19.1564 3.19272 19.2469 3.87067C19.4698 5.53834 19.0265 6.87127 18.7417 7.70149C18.414 8.65496 18.0314 9.31478 17.7466 9.79696C16.468 11.9649 14.5685 13.4803 14.5685 13.4803C12.8251 14.9112 11.2878 16.174 9.31802 15.9746C8.49935 15.8924 7.8928 15.6737 7.09677 15.1359C6.00402 14.3976 4.57284 13.2531 3.21435 11.5625C2.20501 10.3069 1.51028 9.0888 1.03123 8.0894C0.77264 7.44288 0.512859 6.79514 0.254269 6.14862L0.25546 6.15224Z" fill="white"/>
</svg>
