<svg width="13" height="12" viewBox="0 0 13 12" fill="none" xmlns="http://www.w3.org/2000/svg">
<g clip-path="url(#clip0_6062_107565)">
<path d="M8.37695 3.75H2.70313C2.15084 3.75 1.70312 4.24773 1.70312 4.80001V9.30001C1.70312 9.8523 2.15084 10.3 2.70313 10.3H9.70313C10.2554 10.3 10.7031 9.8523 10.7031 9.30001V6.3" stroke="black" stroke-opacity="0.7" stroke-width="0.8" stroke-linecap="round" stroke-linejoin="round"/>
<path d="M4.20312 3.62499V2.62499C4.20312 2.35978 4.30848 2.10542 4.49602 1.91789C4.68355 1.73035 4.93791 1.62499 5.20313 1.62499L7.38086 1.625C7.64608 1.625 7.90043 1.73036 8.08797 1.91789C8.2755 2.10543 8.38086 2.35978 8.38086 2.625V3.625" stroke="black" stroke-opacity="0.7" stroke-linecap="round" stroke-linejoin="round"/>
<path d="M6.20312 5.7V5.70542" stroke="black" stroke-opacity="0.7" stroke-linecap="round" stroke-linejoin="round"/>
<path d="M1.70312 6.3C3.09892 7.00335 4.64014 7.36972 6.20312 7.36972C7.76611 7.36972 9.30733 7.00335 10.7031 6.3" stroke="black" stroke-opacity="0.7" stroke-width="0.8" stroke-linecap="round" stroke-linejoin="round"/>
<path fill-rule="evenodd" clip-rule="evenodd" d="M10.4043 2.70002C9.57682 2.7008 8.90625 3.37207 8.90625 4.20001C8.90625 5.02843 9.5776 5.7 10.4058 5.7C11.226 5.7 11.8924 5.04119 11.9051 4.22369C11.9059 4.2159 11.9062 4.20799 11.9062 4.2C11.9062 4.192 11.9059 4.1841 11.9051 4.17631C11.8924 3.36007 11.228 2.70205 10.4095 2.70002C10.4086 2.70001 10.4077 2.7 10.4067 2.7C10.4059 2.7 10.4051 2.70001 10.4043 2.70002ZM11.4043 3.96316C11.3154 3.58689 11.0195 3.29064 10.6435 3.20139V3.96316H11.4043ZM11.4043 4.43684H10.4067C10.276 4.43684 10.17 4.3308 10.17 4.2V3.20093C9.71699 3.30749 9.37978 3.71436 9.37978 4.20001C9.37978 4.76683 9.83912 5.22632 10.4058 5.22632C10.8909 5.22632 11.2974 4.88948 11.4043 4.43684Z" fill="black" fill-opacity="0.7"/>
</g>
<defs>
<clipPath id="clip0_6062_107565">
<rect width="12" height="12" fill="white" transform="translate(0.5)"/>
</clipPath>
</defs>
</svg>
