<svg width="40" height="40" viewBox="0 0 40 40" fill="none" xmlns="http://www.w3.org/2000/svg">
<path d="M27.1998 21.5564V26.8801H24.1134V21.9129C24.1134 20.6651 23.667 19.8136 22.5497 19.8136C21.6969 19.8136 21.1894 20.3875 20.9662 20.9425C20.8848 21.1411 20.8638 21.4172 20.8638 21.6952V26.8801H17.7764C17.7764 26.8801 17.818 18.4673 17.7764 17.5956H20.8636V18.9116C20.8574 18.9216 20.8492 18.9321 20.8433 18.9417H20.8636V18.9116C21.2737 18.28 22.0062 17.3776 23.6457 17.3776C25.6771 17.3776 27.1998 18.7046 27.1998 21.5564ZM14.5468 13.1201C13.4907 13.1201 12.7998 13.8129 12.7998 14.724C12.7998 15.6152 13.4707 16.3289 14.5059 16.3289H14.5265C15.6032 16.3289 16.2728 15.6153 16.2728 14.724C16.2524 13.8129 15.6032 13.1201 14.5468 13.1201ZM12.9832 26.8801H16.0694V17.5956H12.9832V26.8801Z" fill="white"/>
<rect x="0.5" y="0.5" width="39" height="39" rx="19.5" stroke="white"/>
</svg>
