<?xml version="1.0" encoding="utf-8"?>
<!-- Generator: Adobe Illustrator 26.5.0, SVG Export Plug-In . SVG Version: 6.00 Build 0)  -->
<svg version="1.1" id="Layer_1" xmlns="http://www.w3.org/2000/svg" xmlns:xlink="http://www.w3.org/1999/xlink" x="0px" y="0px"
	 viewBox="0 0 60 60" style="enable-background:new 0 0 60 60;" xml:space="preserve">
<g>
	<g>
		<path d="M50.9,60H9.1c-5,0-9.1-4.1-9.1-9.1V9.1c0-5,4.1-9.1,9.1-9.1h41.8c5,0,9.1,4.1,9.1,9.1v41.8C60,55.9,55.9,60,50.9,60z
			 M9.1,4.2c-2.7,0-4.9,2.2-4.9,4.9v41.8c0,2.7,2.2,4.9,4.9,4.9h41.8c2.7,0,4.9-2.2,4.9-4.9V9.1c0-2.7-2.2-4.9-4.9-4.9H9.1z"/>
	</g>
	<g>
		<path d="M16.1,46c-1.2,0-2.1-0.9-2.1-2.1V26.5c0-1.2,0.9-2.1,2.1-2.1c1.2,0,2.1,0.9,2.1,2.1v17.4C18.2,45.1,17.2,46,16.1,46z"/>
	</g>
	<g>
		<path d="M16.1,18.2c-1.2,0-2.1-0.9-2.1-2.1s0.9-2.1,2.1-2.1c1.2,0,2.1,0.9,2.1,2.1v0C18.2,17.2,17.2,18.2,16.1,18.2z"/>
	</g>
	<g>
		<path d="M30,46c-1.2,0-2.1-0.9-2.1-2.1V26.5c0-1.2,0.9-2.1,2.1-2.1c1.2,0,2.1,0.9,2.1,2.1v17.4C32.1,45.1,31.2,46,30,46z"/>
	</g>
	<g>
		<path d="M44,46c-1.2,0-2.1-0.9-2.1-2.1V33.5c0-1.3-0.5-2.5-1.4-3.5c-1.8-1.8-5.1-1.8-6.9,0c-0.9,0.9-1.4,2.1-1.4,3.5
			c0,1.2-0.9,2.1-2.1,2.1c-1.2,0-2.1-0.9-2.1-2.1c0-2.4,0.9-4.7,2.7-6.4c3.4-3.4,9.4-3.4,12.8,0c1.7,1.7,2.7,4,2.7,6.4v10.5
			C46.1,45.1,45.1,46,44,46z"/>
	</g>
</g>
</svg>
