<svg width="32" height="32" viewBox="0 0 32 32" fill="none" xmlns="http://www.w3.org/2000/svg">
<path d="M16 18C17.6569 18 19 16.6569 19 15C19 13.3431 17.6569 12 16 12C14.3431 12 13 13.3431 13 15C13 16.6569 14.3431 18 16 18Z" stroke="white" stroke-width="1.25" stroke-linecap="round" stroke-linejoin="round"/>
<path d="M21.657 20.657L17.414 24.9C17.039 25.2746 16.5306 25.4851 16.0005 25.4851C15.4704 25.4851 14.962 25.2746 14.587 24.9L10.343 20.657C9.22422 19.5382 8.46234 18.1127 8.15369 16.5609C7.84504 15.009 8.00349 13.4005 8.60901 11.9387C9.21452 10.4769 10.2399 9.22754 11.5555 8.34851C12.8711 7.46947 14.4178 7.00029 16 7.00029C17.5822 7.00029 19.1289 7.46947 20.4445 8.34851C21.7601 9.22754 22.7855 10.4769 23.391 11.9387C23.9965 13.4005 24.155 15.009 23.8463 16.5609C23.5377 18.1127 22.7758 19.5382 21.657 20.657V20.657Z" stroke="white" stroke-width="1.25" stroke-linecap="round" stroke-linejoin="round"/>
</svg>
