<svg width="60" height="60" viewBox="0 0 60 60" fill="none" xmlns="http://www.w3.org/2000/svg">
<g clip-path="url(#clip0_1227_26485)">
<path d="M30.0005 17.5C32.7619 17.5 35.0005 15.2614 35.0005 12.5C35.0005 9.73858 32.7619 7.5 30.0005 7.5C27.2391 7.5 25.0005 9.73858 25.0005 12.5C25.0005 15.2614 27.2391 17.5 30.0005 17.5Z" fill="black"/>
<path d="M44.308 18.525C41.7466 15.8992 38.5117 14.0292 34.958 13.12M25.0305 13.12C21.4179 14.0465 18.1366 15.9655 15.558 18.66M10.8555 26.6975C10.2871 28.5783 9.99905 30.5327 10.0005 32.4975C10.0005 34.3425 10.2505 36.13 10.718 37.8275M15.618 46.3975C18.184 49.0563 21.437 50.9515 25.0155 51.8725M35.0105 51.865C38.5771 50.9417 41.819 49.0504 44.378 46.4M49.283 37.825C49.7606 36.0895 50.0019 34.2975 50.0005 32.4975C50.0005 30.5875 49.733 28.74 49.233 26.99" stroke="black" stroke-width="2" stroke-linecap="round" stroke-linejoin="round"/>
<path d="M12.5 47.5C15.2614 47.5 17.5 45.2614 17.5 42.5C17.5 39.7386 15.2614 37.5 12.5 37.5C9.73858 37.5 7.5 39.7386 7.5 42.5C7.5 45.2614 9.73858 47.5 12.5 47.5Z" fill="black"/>
<path d="M47.4995 47.5C50.2609 47.5 52.4995 45.2614 52.4995 42.5C52.4995 39.7386 50.2609 37.5 47.4995 37.5C44.7381 37.5 42.4995 39.7386 42.4995 42.5C42.4995 45.2614 44.7381 47.5 47.4995 47.5Z" fill="black"/>
</g>
<defs>
<clipPath id="clip0_1227_26485">
<rect width="60" height="60" fill="white"/>
</clipPath>
</defs>
</svg>
