<svg width="27" height="24" viewBox="0 0 27 24" fill="none" xmlns="http://www.w3.org/2000/svg">
<path d="M6.58568 0C6.38378 0 6.22002 0.163758 6.22002 0.365665V1.51383C5.71014 1.65898 5.21886 1.86275 4.7555 2.12234L3.94229 1.30914C3.799 1.16678 3.56825 1.16678 3.42497 1.30914L1.30914 3.42497C1.16678 3.56732 1.16678 3.799 1.30914 3.94229L2.12234 4.7555C1.86275 5.21979 1.65805 5.71014 1.51383 6.22002H0.365665C0.163758 6.22002 0 6.38378 0 6.58569V9.578C0 9.7799 0.163758 9.94366 0.365665 9.94366H1.51383C1.65898 10.4535 1.86275 10.9448 2.12234 11.4082L1.30914 12.2214C1.16678 12.3637 1.16678 12.5954 1.30914 12.7387L3.42497 14.8545C3.56732 14.9978 3.799 14.9969 3.94229 14.8545L4.7555 14.0413C5.21979 14.3009 5.71014 14.5056 6.22002 14.6498V15.798C6.22002 15.9999 6.38378 16.1637 6.58568 16.1637H9.57799C9.7799 16.1637 9.94366 15.9999 9.94366 15.798V14.6498C10.4535 14.5047 10.9448 14.3009 11.4082 14.0413L12.2214 14.8545C12.2902 14.9234 12.3833 14.9615 12.4801 14.9615C12.5768 14.9615 12.6699 14.9234 12.7387 14.8545L14.8545 12.7387C14.9969 12.5964 14.9969 12.3647 14.8545 12.2214L14.0413 11.4082C14.3009 10.9439 14.5056 10.4535 14.6498 9.94366H15.798C15.9999 9.94366 16.1637 9.7799 16.1637 9.578V6.58569C16.1637 6.38378 15.9999 6.22002 15.798 6.22002H14.6498C14.5047 5.71014 14.3009 5.21886 14.0413 4.7555L14.8545 3.94229C14.9234 3.87344 14.9615 3.7804 14.9615 3.68363C14.9615 3.58686 14.9234 3.49382 14.8545 3.42497L12.7387 1.30914C12.5954 1.16678 12.3647 1.16678 12.2214 1.30914L11.4082 2.12234C10.9439 1.86275 10.4535 1.65805 9.94366 1.51383V0.365665C9.94366 0.163758 9.7799 0 9.57799 0H6.58568ZM11.2751 2.89182C11.4193 2.98114 11.6054 2.95881 11.7255 2.83972L12.4801 2.08513L14.0786 3.68363L13.324 4.43822C13.2039 4.55825 13.1825 4.74434 13.2719 4.88856C13.6133 5.44124 13.8627 6.04045 14.0125 6.67036C14.0516 6.83505 14.1986 6.95135 14.3679 6.95135H15.4323V9.21233H14.3679C14.1986 9.21233 14.0516 9.32864 14.0125 9.49332C13.8627 10.1223 13.6133 10.7224 13.2719 11.2751C13.1825 11.4193 13.2049 11.6064 13.324 11.7255L14.0786 12.4801L12.4801 14.0786L11.7255 13.324C11.6054 13.2039 11.4193 13.1825 11.2751 13.2719C10.7224 13.6133 10.1232 13.8627 9.49332 14.0125C9.32863 14.0516 9.21233 14.1986 9.21233 14.3679V15.4324H6.95135V14.3679C6.95135 14.1986 6.83504 14.0516 6.67036 14.0125C6.39122 13.9464 6.1186 13.8599 5.85249 13.7557C5.70176 13.6961 5.55289 13.6301 5.40681 13.5584C5.23003 13.4719 5.05696 13.3761 4.88855 13.2719C4.74434 13.1825 4.55732 13.2049 4.43822 13.324L4.34238 13.4198L4.03068 13.7315L3.68456 14.0776L2.08606 12.4791L2.84065 11.7245C2.96067 11.6045 2.98207 11.4184 2.89275 11.2742C2.86391 11.2267 2.83599 11.1793 2.80808 11.1318C2.75318 11.0369 2.70015 10.9402 2.64991 10.8425C2.56244 10.6703 2.48243 10.4945 2.41171 10.3149C2.36891 10.2079 2.32983 10.099 2.29355 9.98925C2.23958 9.82549 2.19213 9.65987 2.15212 9.49239C2.11304 9.32771 1.96603 9.2114 1.79669 9.2114H0.731329V6.95042H1.79576C1.9651 6.95042 2.11211 6.83411 2.15119 6.66943C2.1791 6.55312 2.20981 6.43868 2.24423 6.32423C2.28424 6.19118 2.3289 6.05905 2.37822 5.92879C2.51499 5.56685 2.68619 5.21886 2.89089 4.88762C2.98021 4.74341 2.95788 4.55639 2.83879 4.43729L2.0842 3.6827L2.18468 3.58221L2.44056 3.32634L2.86577 2.90113L3.12722 2.63967L3.55895 2.20794L3.6827 2.0842L3.73666 2.13816L4.08558 2.48708L4.42985 2.83134L4.43729 2.83879C4.55732 2.95881 4.7434 2.98021 4.88762 2.89089C5.05231 2.78947 5.22072 2.69643 5.39286 2.61083C5.51195 2.55221 5.63198 2.49731 5.75387 2.44707C6.05068 2.32425 6.35587 2.22469 6.66942 2.15026C6.83411 2.11118 6.95042 1.96417 6.95042 1.79483V0.731329H9.2114V1.79576C9.2114 1.9651 9.3277 2.11211 9.49239 2.15119C10.1214 2.30099 10.7215 2.55035 11.2742 2.89182H11.2751Z" fill="white"/>
<path d="M6.47105 4.52845C6.33521 4.58986 6.20401 4.65965 6.07747 4.73594C5.60202 5.02159 5.19262 5.40586 4.87627 5.85992C4.81579 5.94645 4.75903 6.03577 4.706 6.12789C4.61109 6.29071 4.52828 6.46192 4.45757 6.6387C4.40826 6.76059 4.36546 6.8862 4.32917 7.0146C4.24636 7.3049 4.19705 7.60915 4.18402 7.92271C4.18216 7.97575 4.1803 8.02878 4.1803 8.08182C4.1803 8.1851 4.18402 8.28745 4.19239 8.38887C4.21752 8.7108 4.28172 9.02157 4.38127 9.31745C4.41384 9.41515 4.45013 9.51191 4.49107 9.60589C4.56271 9.77337 4.64552 9.93526 4.73856 10.0897C4.81393 10.2144 4.89581 10.3344 4.98327 10.4489C5.10702 10.6108 5.24287 10.7624 5.38988 10.9029C5.47827 10.9876 5.57038 11.0676 5.66622 11.1439C5.80951 11.2574 5.96024 11.3598 6.11841 11.4528C6.25519 11.5328 6.39662 11.6045 6.5427 11.6668C7.01536 11.8706 7.53548 11.9841 8.08258 11.9841C10.2338 11.9841 11.9839 10.2339 11.9839 8.08275C11.9839 5.93156 10.2338 4.1814 8.08258 4.1814C7.5085 4.1814 6.96326 4.30608 6.47198 4.52938L6.47105 4.52845ZM11.2526 8.08182C11.2526 9.83012 9.83089 11.2518 8.08258 11.2518C6.33428 11.2518 4.91256 9.83012 4.91256 8.08182C4.91256 6.33351 6.33428 4.9118 8.08258 4.9118C9.83089 4.9118 11.2526 6.33351 11.2526 8.08182Z" fill="white"/>
<path fill-rule="evenodd" clip-rule="evenodd" d="M26.3906 18.0141C26.4833 18.0389 26.5623 18.0986 26.6109 18.1812C26.6596 18.2638 26.6724 18.3621 26.6486 18.4548L26.1042 20.5361C26.0794 20.6288 26.0197 20.7078 25.9371 20.7564C25.8544 20.8051 25.7562 20.8179 25.6635 20.7941L24.9364 20.604C24.7601 20.8941 24.5544 21.165 24.3222 21.4128L24.7022 22.0628C24.7509 22.1455 24.7638 22.2437 24.7399 22.3364C24.7151 22.4292 24.6554 22.5081 24.5728 22.5568L22.7164 23.6429C22.5438 23.7429 22.3235 23.6851 22.2225 23.5134L21.8424 22.8634C21.5119 22.9442 21.175 22.991 20.8362 23.003L20.6461 23.7301C20.6039 23.8926 20.457 24 20.2973 24C20.267 24 20.2358 23.9963 20.2055 23.9881L18.1242 23.4436C18.0314 23.4189 17.9525 23.3592 17.9038 23.2766C17.8552 23.1939 17.8423 23.0957 17.8662 23.003L18.0562 22.2758C17.7661 22.0996 17.4953 21.8939 17.2474 21.6616L16.5974 22.0417C16.5148 22.0904 16.4165 22.1032 16.3238 22.0794C16.2311 22.0546 16.1521 21.9949 16.1035 21.9123L15.0174 20.0559C14.9687 19.9733 14.9559 19.8751 14.9797 19.7823C15.0045 19.6896 15.0642 19.6106 15.1468 19.562L15.7968 19.1819C15.716 18.8514 15.6692 18.5145 15.6573 18.1757L14.9302 17.9856C14.7374 17.9351 14.6217 17.7378 14.6722 17.545L15.2166 15.4637C15.2414 15.3709 15.3011 15.292 15.3837 15.2433C15.4663 15.1947 15.5646 15.1818 15.6573 15.2057L16.3844 15.3957C16.5607 15.1056 16.7663 14.8348 16.9986 14.5869L16.6185 13.9369C16.5699 13.8543 16.557 13.756 16.5809 13.6633C16.6057 13.5706 16.6653 13.4916 16.748 13.443L18.6043 12.3569C18.7769 12.2568 18.9973 12.3146 19.0983 12.4863L19.4783 13.1363C19.8089 13.0555 20.1458 13.0087 20.4846 12.9968L20.6746 12.2696C20.6994 12.1769 20.7591 12.098 20.8417 12.0493C20.9243 12.0007 21.0226 11.9878 21.1153 12.0117L23.1966 12.5561C23.2893 12.5809 23.3683 12.6406 23.4169 12.7232C23.4656 12.8058 23.4784 12.904 23.4546 12.9968L23.2645 13.7239C23.5546 13.9002 23.8255 14.1058 24.0734 14.3381L24.7234 13.958C24.806 13.9093 24.9042 13.8965 24.9969 13.9204C25.0897 13.9452 25.1686 14.0048 25.2173 14.0875L26.3034 15.9438C26.352 16.0264 26.3649 16.1247 26.341 16.2174C26.3162 16.3101 26.2566 16.3891 26.1739 16.4377L25.5239 16.8178C25.6047 17.1483 25.6515 17.4853 25.6635 17.8241L26.3906 18.0141ZM17.9274 17.2413C17.9511 17.1502 17.9796 17.062 18.0109 16.9756H18.0118C18.1665 16.5477 18.4131 16.17 18.7262 15.8626C19.2737 15.3236 20.0223 15 20.8306 15C21.0859 15 21.3411 15.0323 21.5897 15.0977C23.1903 15.5162 24.1504 17.1597 23.732 18.7596C23.5954 19.2806 23.3259 19.7389 22.9673 20.1033C22.6552 20.4202 22.2747 20.666 21.8525 20.8197C21.7491 20.8577 21.6419 20.889 21.5337 20.9155C21.3069 20.9706 21.0707 21 20.8297 21C20.6305 21 20.4312 20.9801 20.2348 20.9402C20.2016 20.9336 20.1694 20.926 20.1372 20.9184L20.1371 20.9184C20.1143 20.9137 20.0915 20.908 20.0697 20.9023C19.2955 20.6992 18.6465 20.2067 18.2414 19.514C18.0868 19.2502 17.9758 18.9693 17.9074 18.6799C17.9008 18.6505 17.8942 18.6201 17.8885 18.5907C17.8031 18.1665 17.8107 17.7262 17.915 17.2954C17.9188 17.2774 17.9226 17.2594 17.9274 17.2413Z" fill="white"/>
</svg>
