<svg width="36" height="32" viewBox="0 0 36 32" fill="none" xmlns="http://www.w3.org/2000/svg">
<path d="M9.00748 3.8147e-06C8.73827 3.8147e-06 8.51992 0.218348 8.51992 0.487557V2.01845C7.84008 2.21198 7.18505 2.48367 6.56723 2.8298L5.48295 1.74552C5.2919 1.55571 4.98423 1.55571 4.79318 1.74552L1.97208 4.56663C1.78227 4.75644 1.78227 5.06534 1.97208 5.25639L3.05635 6.34067C2.71023 6.95973 2.4373 7.61352 2.24501 8.29337H0.714115C0.444907 8.29337 0.226562 8.51171 0.226562 8.78092V12.7707C0.226562 13.0399 0.444907 13.2582 0.714115 13.2582H2.24501C2.43854 13.9381 2.71023 14.5931 3.05635 15.2109L1.97208 16.2952C1.78227 16.485 1.78227 16.7939 1.97208 16.985L4.79318 19.8061C4.98299 19.9971 5.2919 19.9959 5.48295 19.8061L6.56723 18.7218C7.18629 19.0679 7.84008 19.3408 8.51992 19.5331V21.064C8.51992 21.3332 8.73827 21.5516 9.00748 21.5516H12.9972C13.2664 21.5516 13.4848 21.3332 13.4848 21.064V19.5331C14.1646 19.3396 14.8197 19.0679 15.4375 18.7218L16.5217 19.8061C16.6135 19.8979 16.7376 19.9487 16.8666 19.9487C16.9957 19.9487 17.1197 19.8979 17.2115 19.8061L20.0326 16.985C20.2224 16.7951 20.2224 16.4862 20.0326 16.2952L18.9483 15.2109C19.2945 14.5919 19.5674 13.9381 19.7597 13.2582H21.2906C21.5598 13.2582 21.7781 13.0399 21.7781 12.7707V8.78092C21.7781 8.51171 21.5598 8.29337 21.2906 8.29337H19.7597C19.5662 7.61352 19.2945 6.95849 18.9483 6.34067L20.0326 5.25639C20.1244 5.16459 20.1753 5.04053 20.1753 4.91151C20.1753 4.78249 20.1244 4.65843 20.0326 4.56663L17.2115 1.74552C17.0205 1.55571 16.7128 1.55571 16.5217 1.74552L15.4375 2.8298C14.8184 2.48367 14.1646 2.21074 13.4848 2.01845V0.487557C13.4848 0.218348 13.2664 3.8147e-06 12.9972 3.8147e-06H9.00748ZM15.2601 3.85577C15.4524 3.97486 15.7005 3.94509 15.8605 3.78629L16.8666 2.78017L18.998 4.91151L17.9918 5.91763C17.8318 6.07767 17.8033 6.32579 17.9224 6.51808C18.3777 7.25499 18.7101 8.05393 18.9099 8.89381C18.962 9.1134 19.158 9.26847 19.3838 9.26847H20.803V12.2831H19.3838C19.158 12.2831 18.962 12.4382 18.9099 12.6578C18.7101 13.4964 18.3777 14.2966 17.9224 15.0335C17.8033 15.2258 17.833 15.4752 17.9918 15.634L18.998 16.6401L16.8666 18.7714L15.8605 17.7653C15.7005 17.6053 15.4524 17.5767 15.2601 17.6958C14.5231 18.1511 13.7242 18.4836 12.8843 18.6833C12.6647 18.7354 12.5097 18.9314 12.5097 19.1572V20.5765H9.49503V19.1572C9.49503 18.9314 9.33996 18.7354 9.12037 18.6833C8.74819 18.5952 8.3847 18.4799 8.02989 18.3409C7.82891 18.2615 7.63042 18.1734 7.43565 18.0779C7.19993 17.9625 6.96918 17.8348 6.74464 17.6958C6.55234 17.5767 6.30298 17.6065 6.14419 17.7653L6.01641 17.8931L5.60081 18.3087L5.13931 18.7702L3.00797 16.6388L4.01409 15.6327C4.17413 15.4727 4.20266 15.2246 4.08356 15.0323C4.04511 14.969 4.00789 14.9057 3.97067 14.8425C3.89748 14.7159 3.82676 14.5869 3.75977 14.4566C3.64315 14.2271 3.53646 13.9926 3.44218 13.7532C3.38511 13.6105 3.33301 13.4654 3.28462 13.319C3.21267 13.1007 3.1494 12.8798 3.09605 12.6565C3.04395 12.4369 2.84793 12.2819 2.62215 12.2819H1.20167V9.26723H2.62091C2.84669 9.26723 3.04271 9.11216 3.09481 8.89257C3.13203 8.7375 3.17297 8.5849 3.21887 8.43231C3.27222 8.25491 3.33177 8.07874 3.39752 7.90506C3.57988 7.42247 3.80815 6.95849 4.08108 6.51684C4.20018 6.32454 4.17041 6.07519 4.01161 5.91639L3.00549 4.91027L3.13947 4.77629L3.48064 4.43512L4.04759 3.86817L4.39619 3.51957L4.97183 2.94393L5.13683 2.77893L5.20878 2.85089L5.674 3.31611L6.13302 3.77513L6.14295 3.78505C6.30298 3.94509 6.5511 3.97362 6.74339 3.85453C6.96298 3.7193 7.18753 3.59524 7.41704 3.48111C7.57583 3.40295 7.73587 3.32975 7.89839 3.26276C8.29414 3.099 8.70105 2.96626 9.11913 2.86701C9.33871 2.81491 9.49379 2.61889 9.49379 2.39311V0.97511H12.5084V2.39435C12.5084 2.62014 12.6635 2.81615 12.8831 2.86825C13.7217 3.06799 14.5219 3.40047 15.2588 3.85577H15.2601Z" fill="url(#paint0_linear_1025_24148)"/>
<path d="M8.85512 6.03784C8.67399 6.11972 8.49907 6.21277 8.33035 6.3145C7.69641 6.69536 7.15055 7.20772 6.72874 7.81313C6.64811 7.92851 6.57243 8.0476 6.50172 8.17042C6.37518 8.38753 6.26476 8.6158 6.17048 8.85151C6.10473 9.01403 6.04766 9.18151 5.99928 9.35271C5.88886 9.73977 5.82311 10.1454 5.80574 10.5635C5.80326 10.6342 5.80078 10.705 5.80078 10.7757C5.80078 10.9134 5.80574 11.0498 5.81691 11.1851C5.85041 11.6143 5.93601 12.0287 6.06875 12.4232C6.11217 12.5534 6.16055 12.6825 6.21514 12.8078C6.31066 13.0311 6.42108 13.2469 6.54514 13.4529C6.64562 13.6191 6.7548 13.7791 6.87141 13.9317C7.03641 14.1476 7.21754 14.3498 7.41355 14.5371C7.53141 14.65 7.65423 14.7567 7.78201 14.8585C7.97306 15.0098 8.17403 15.1463 8.38494 15.2703C8.5673 15.377 8.75587 15.4726 8.95065 15.5557C9.58087 15.8274 10.2744 15.9787 11.0038 15.9787C13.8721 15.9787 16.2056 13.6452 16.2056 10.7769C16.2056 7.90866 13.8721 5.5751 11.0038 5.5751C10.2384 5.5751 9.51139 5.74134 8.85636 6.03909L8.85512 6.03784ZM15.2305 10.7757C15.2305 13.1067 13.3349 15.0024 11.0038 15.0024C8.67275 15.0024 6.77713 13.1067 6.77713 10.7757C6.77713 8.44459 8.67275 6.54897 11.0038 6.54897C13.3349 6.54897 15.2305 8.44459 15.2305 10.7757Z" fill="url(#paint1_linear_1025_24148)"/>
<path fill-rule="evenodd" clip-rule="evenodd" d="M35.4138 24.0188C35.5374 24.0519 35.6427 24.1314 35.7076 24.2416C35.7724 24.3518 35.7896 24.4827 35.7578 24.6064L35.0319 27.3814C34.9988 27.5051 34.9192 27.6103 34.8091 27.6752C34.6989 27.7401 34.5679 27.7572 34.4443 27.7254L33.4748 27.472C33.2398 27.8588 32.9656 28.22 32.6559 28.5505L33.1626 29.4171C33.2275 29.5273 33.2447 29.6583 33.2128 29.7819C33.1798 29.9056 33.1002 30.0108 32.99 30.0757L30.5149 31.5238C30.2848 31.6573 29.991 31.5801 29.8563 31.3512L29.3495 30.4846C28.9089 30.5923 28.4596 30.6547 28.0079 30.6706L27.7545 31.6401C27.6982 31.8568 27.5023 32 27.2894 32C27.249 32 27.2073 31.9951 27.1669 31.9841L24.3919 31.2582C24.2682 31.2251 24.163 31.1456 24.0981 31.0354C24.0332 30.9252 24.0161 30.7943 24.0479 30.6706L24.3013 29.7011C23.9145 29.4661 23.5534 29.1919 23.2229 28.8822L22.3562 29.389C22.246 29.4539 22.115 29.471 21.9914 29.4392C21.8678 29.4061 21.7625 29.3265 21.6976 29.2164L20.2495 26.7412C20.1846 26.6311 20.1675 26.5001 20.1993 26.3764C20.2324 26.2528 20.3119 26.1475 20.4221 26.0827L21.2888 25.5759C21.181 25.1352 21.1186 24.6859 21.1027 24.2342L20.1332 23.9809C19.8761 23.9135 19.7219 23.6503 19.7892 23.3933L20.5151 20.6182C20.5482 20.4946 20.6277 20.3893 20.7379 20.3244C20.8481 20.2596 20.9791 20.2424 21.1027 20.2742L22.0722 20.5276C22.3072 20.1408 22.5814 19.7797 22.8911 19.4492L22.3843 18.5825C22.3195 18.4724 22.3023 18.3414 22.3342 18.2177C22.3672 18.0941 22.4468 17.9888 22.5569 17.924L25.0321 16.4758C25.2622 16.3424 25.556 16.4195 25.6907 16.6484L26.1974 17.5151C26.6381 17.4074 27.0874 17.3449 27.5391 17.329L27.7925 16.3595C27.8255 16.2359 27.9051 16.1306 28.0153 16.0658C28.1254 16.0009 28.2564 15.9837 28.38 16.0156L31.1551 16.7415C31.2787 16.7745 31.384 16.8541 31.4489 16.9642C31.5138 17.0744 31.5309 17.2054 31.4991 17.329L31.2457 18.2985C31.6325 18.5336 31.9936 18.8078 32.3241 19.1175L33.1908 18.6107C33.301 18.5458 33.4319 18.5287 33.5556 18.5605C33.6792 18.5935 33.7845 18.6731 33.8494 18.7833L35.2975 21.2584C35.3624 21.3686 35.3795 21.4996 35.3477 21.6232C35.3146 21.7468 35.2351 21.8521 35.1249 21.917L34.2582 22.4238C34.3659 22.8645 34.4284 23.3137 34.4443 23.7654L35.4138 24.0188ZM24.1296 22.9885C24.1612 22.867 24.1991 22.7493 24.2409 22.6342H24.2421C24.4484 22.0636 24.7773 21.56 25.1947 21.1501C25.9247 20.4314 26.9228 20 28.0006 20C28.3409 20 28.6812 20.043 29.0126 20.1303C31.1468 20.6883 32.427 22.8796 31.8691 25.0128C31.6869 25.7074 31.3277 26.3185 30.8495 26.8044C30.4333 27.227 29.926 27.5546 29.363 27.7596C29.2252 27.8102 29.0822 27.852 28.938 27.8874C28.6356 27.9608 28.3206 28 27.9993 28C27.7337 28 27.468 27.9734 27.2061 27.9203C27.1619 27.9115 27.119 27.9014 27.0761 27.8913L27.0758 27.8912C27.0455 27.8849 27.0151 27.8773 26.986 27.8697C25.9538 27.5989 25.0885 26.9423 24.5483 26.0187C24.3421 25.6669 24.1941 25.2924 24.103 24.9065C24.0941 24.8673 24.0853 24.8268 24.0777 24.7876C23.9638 24.2221 23.974 23.635 24.1131 23.0606C24.1182 23.0365 24.1232 23.0125 24.1296 22.9885Z" fill="url(#paint2_linear_1025_24148)"/>
<defs>
<linearGradient id="paint0_linear_1025_24148" x1="0.226562" y1="3.8147e-06" x2="21.7781" y2="21.5516" gradientUnits="userSpaceOnUse">
<stop stop-color="#487AE3"/>
<stop offset="1" stop-color="#475F96"/>
</linearGradient>
<linearGradient id="paint1_linear_1025_24148" x1="5.80078" y1="5.5751" x2="16.2044" y2="15.98" gradientUnits="userSpaceOnUse">
<stop stop-color="#487AE3"/>
<stop offset="1" stop-color="#475F96"/>
</linearGradient>
<linearGradient id="paint2_linear_1025_24148" x1="19.7734" y1="16" x2="35.7734" y2="32" gradientUnits="userSpaceOnUse">
<stop stop-color="#487AE3"/>
<stop offset="1" stop-color="#475F96"/>
</linearGradient>
</defs>
</svg>
