<svg width="24" height="24" viewBox="0 0 24 24" fill="none" xmlns="http://www.w3.org/2000/svg">
<g clip-path="url(#clip0_3069_16426)">
<path d="M8.9998 11C11.2089 11 12.9998 9.20914 12.9998 7C12.9998 4.79086 11.2089 3 8.9998 3C6.79066 3 4.9998 4.79086 4.9998 7C4.9998 9.20914 6.79066 11 8.9998 11Z" fill="white"/>
<path d="M3 21V19C3 17.9391 3.42143 16.9217 4.17157 16.1716C4.92172 15.4214 5.93913 15 7 15H11C12.0609 15 13.0783 15.4214 13.8284 16.1716C14.5786 16.9217 15 17.9391 15 19V21" stroke="white" stroke-width="1.5" stroke-linecap="round" stroke-linejoin="round"/>
<path d="M16.0002 3.13C16.8606 3.35031 17.6232 3.85071 18.1678 4.55232C18.7124 5.25392 19.008 6.11683 19.008 7.005C19.008 7.89318 18.7124 8.75608 18.1678 9.45769C17.6232 10.1593 16.8606 10.6597 16.0002 10.88" stroke="white" stroke-width="1.5" stroke-linecap="round" stroke-linejoin="round"/>
<path d="M21 21V19C20.9949 18.1172 20.6979 17.2608 20.1553 16.5644C19.6126 15.868 18.8548 15.3707 18 15.15" stroke="white" stroke-width="1.5" stroke-linecap="round" stroke-linejoin="round"/>
</g>
<defs>
<clipPath id="clip0_3069_16426">
<rect width="24" height="24" fill="white"/>
</clipPath>
</defs>
</svg>
