<svg width="20" height="20" viewBox="0 0 20 20" fill="none" xmlns="http://www.w3.org/2000/svg">
<path d="M18.0067 2.03822H1.99652C1.42243 2.03822 0.957031 2.50361 0.957031 3.07771V18.5783C0.957031 19.1524 1.42243 19.6178 1.99652 19.6178H18.0067C18.5808 19.6178 19.0462 19.1524 19.0462 18.5783V3.07771C19.0462 2.50361 18.5808 2.03822 18.0067 2.03822Z" fill="#2673E5"/>
<path d="M18.0061 20H1.99587C1.21116 20 0.574219 19.3605 0.574219 18.5783V3.07771C0.574219 2.293 1.21371 1.65606 1.99587 1.65606H18.0035C18.7882 1.65606 19.4252 2.29555 19.4252 3.07771V18.5758C19.4252 19.3605 18.7857 19.9975 18.0035 19.9975L18.0061 20ZM1.99587 2.42039C1.63154 2.42039 1.33855 2.71593 1.33855 3.07771V18.5758C1.33855 18.9401 1.63409 19.2331 1.99587 19.2331H18.0035C18.3679 19.2331 18.6608 18.9376 18.6608 18.5758V3.07771C18.6608 2.71338 18.3653 2.42039 18.0035 2.42039H1.99587Z" fill="white"/>
<path d="M18.9184 5.73248H1.08398V6.49681H18.9184V5.73248Z" fill="white"/>
<path d="M15.6077 0.382168H14.079C13.9383 0.382168 13.8242 0.496235 13.8242 0.636945V3.69427C13.8242 3.83498 13.9383 3.94905 14.079 3.94905H15.6077C15.7484 3.94905 15.8624 3.83498 15.8624 3.69427V0.636945C15.8624 0.496235 15.7484 0.382168 15.6077 0.382168Z" fill="#2673E5"/>
<path d="M15.607 4.33121H14.0783C13.7268 4.33121 13.4414 4.04586 13.4414 3.69427V0.636943C13.4414 0.28535 13.7268 0 14.0783 0H15.607C15.9586 0 16.244 0.28535 16.244 0.636943V3.69427C16.244 4.04586 15.9586 4.33121 15.607 4.33121ZM14.2057 3.56688H15.4796V0.764331H14.2057V3.56688Z" fill="white"/>
<path d="M5.92504 0.382168H4.39638C4.25567 0.382168 4.1416 0.496235 4.1416 0.636945V3.69427C4.1416 3.83498 4.25567 3.94905 4.39638 3.94905H5.92504C6.06575 3.94905 6.17982 3.83498 6.17982 3.69427V0.636945C6.17982 0.496235 6.06575 0.382168 5.92504 0.382168Z" fill="#2673E5"/>
<path d="M5.92439 4.33121H4.39573C4.04414 4.33121 3.75879 4.04586 3.75879 3.69427V0.636943C3.75879 0.28535 4.04414 0 4.39573 0H5.92439C6.27599 0 6.56134 0.28535 6.56134 0.636943V3.69427C6.56134 4.04586 6.27599 4.33121 5.92439 4.33121ZM4.52312 3.56688H5.79701V0.764331H4.52312V3.56688Z" fill="white"/>
<path d="M12.9319 14.3108H10.002V17.1975H12.9319V14.3108Z" fill="#2673E5"/>
<path d="M13.3134 17.5796H9.61914V13.9287H13.3134V17.5796ZM10.3835 16.8153H12.5491V14.693H10.3835V16.8153Z" fill="white"/>
<path d="M15.8616 14.3108H12.9316V17.1975H15.8616V14.3108Z" fill="#2673E5"/>
<path d="M16.2431 17.5796H12.5488V13.9287H16.2431V17.5796ZM13.3132 16.8153H15.4788V14.693H13.3132V16.8153Z" fill="white"/>
<path d="M7.07154 14.3108H4.1416V17.1975H7.07154V14.3108Z" fill="#2673E5"/>
<path d="M7.45306 17.5796H3.75879V13.9287H7.45306V17.5796ZM4.52312 16.8153H6.68872V14.693H4.52312V16.8153Z" fill="white"/>
<path d="M10.0022 14.3108H7.07227V17.1975H10.0022V14.3108Z" fill="#2673E5"/>
<path d="M10.3837 17.5796H6.68945V13.9287H10.3837V17.5796ZM7.45378 16.8153H9.61939V14.693H7.45378V16.8153Z" fill="white"/>
<path d="M12.9319 11.4217H10.002V14.3083H12.9319V11.4217Z" fill="#2673E5"/>
<path d="M13.3134 14.693H9.61914V11.042H13.3134V14.693ZM10.3835 13.9287H12.5491V11.8064H10.3835V13.9287Z" fill="white"/>
<path d="M15.8616 11.4217H12.9316V14.3083H15.8616V11.4217Z" fill="#2673E5"/>
<path d="M16.2431 14.693H12.5488V11.042H16.2431V14.693ZM13.3132 13.9287H15.4788V11.8064H13.3132V13.9287Z" fill="white"/>
<path d="M7.07154 11.4217H4.1416V14.3083H7.07154V11.4217Z" fill="#2673E5"/>
<path d="M7.45306 14.693H3.75879V11.042H7.45306V14.693ZM4.52312 13.9287H6.68872V11.8064H4.52312V13.9287Z" fill="white"/>
<path d="M10.0022 11.4217H7.07227V14.3083H10.0022V11.4217Z" fill="#2673E5"/>
<path d="M10.3837 14.693H6.68945V11.042H10.3837V14.693ZM7.45378 13.9287H9.61939V11.8064H7.45378V13.9287Z" fill="white"/>
<path d="M12.9319 8.53503H10.002V11.4217H12.9319V8.53503Z" fill="#2673E5"/>
<path d="M13.3134 11.8038H9.61914V8.15287H13.3134V11.8038ZM10.3835 11.0395H12.5491V8.9172H10.3835V11.0395Z" fill="white"/>
<path d="M15.8616 8.53503H12.9316V11.4217H15.8616V8.53503Z" fill="#2673E5"/>
<path d="M16.2431 11.8038H12.5488V8.15287H16.2431V11.8038ZM13.3132 11.0395H15.4788V8.9172H13.3132V11.0395Z" fill="white"/>
<path d="M7.07154 8.53503H4.1416V11.4217H7.07154V8.53503Z" fill="#2673E5"/>
<path d="M7.45306 11.8038H3.75879V8.15287H7.45306V11.8038ZM4.52312 11.0395H6.68872V8.9172H4.52312V11.0395Z" fill="white"/>
<path d="M10.0022 8.53503H7.07227V11.4217H10.0022V8.53503Z" fill="#2673E5"/>
<path d="M10.3837 11.8038H6.68945V8.15287H10.3837V11.8038ZM7.45378 11.0395H9.61939V8.9172H7.45378V11.0395Z" fill="white"/>
</svg>
