<svg width="72" height="72" viewBox="0 0 72 72" fill="none" xmlns="http://www.w3.org/2000/svg">
<path fill-rule="evenodd" clip-rule="evenodd" d="M56.4865 0.66947C56.5227 0.667493 56.5591 0.666504 56.5954 0.666504C60.441 0.666504 64.1291 2.19418 66.8484 4.91346C69.5677 7.63273 71.0954 11.3209 71.0954 15.1665C71.0954 15.2028 71.0944 15.2391 71.0924 15.2754C70.6671 23.0759 67.9383 30.5752 63.251 36.8249C58.8321 42.7168 52.8596 47.2486 46.0154 49.9204C45.6722 54.0324 44.3904 58.0175 42.2613 61.5661C39.8991 65.5031 36.5719 68.7727 32.5943 71.0658C32.0119 71.4016 31.2998 71.4223 30.6989 71.121C30.098 70.8197 29.6887 70.2367 29.6094 69.5692C29.2467 66.5173 28.4399 63.5575 27.2314 60.7771C24.7294 64.1022 21.4822 66.8173 17.7318 68.6925C12.9213 71.0978 7.50213 72.0116 2.16892 71.3167C1.26931 71.1995 0.561262 70.4915 0.444059 69.5919C-0.250762 64.2587 0.66302 58.8395 3.06826 54.029C4.94338 50.2787 7.65835 47.0317 10.9831 44.5298C8.21617 43.3273 5.27155 42.5227 2.23531 42.1576C2.08843 42.1434 1.94187 42.1128 1.79833 42.065C1.28658 41.8956 0.874608 41.5285 0.64066 41.063C0.513159 40.8093 0.438536 40.5264 0.429456 40.2303C0.421838 39.9985 0.454485 39.7634 0.53027 39.536C0.578131 39.3914 0.641788 39.2548 0.718997 39.1278C3.01099 35.1678 6.27192 31.8549 10.1958 29.5006C13.7444 27.3714 17.7295 26.0896 21.8414 25.7464C24.5132 18.9023 29.0451 12.9298 34.937 8.51089C41.1867 3.82361 48.6859 1.09479 56.4865 0.66947ZM20.651 51.1109C22.3702 52.8301 23.8721 54.7319 25.1358 56.7732C22.8977 60.3378 19.7199 63.2263 15.943 65.1148C12.3179 66.9273 8.28715 67.7456 4.26024 67.5006C4.01519 63.4736 4.83346 59.4428 6.64597 55.8178C8.53439 52.041 11.4228 48.8633 14.9873 46.6252C17.0291 47.8891 18.9314 49.3913 20.651 51.1109ZM5.80448 38.6979C12.4776 40.1088 18.6244 43.4275 23.4794 48.2825C28.3344 53.1374 31.6531 59.2842 33.064 65.9574C35.37 64.1972 37.3296 62.011 38.8313 59.5081C40.8436 56.1543 41.9674 52.3428 42.0965 48.4338C42.1237 47.6097 42.6539 46.8868 43.4317 46.6132C50.0548 44.2832 55.8384 40.0417 60.051 34.4249C64.2524 28.823 66.703 22.1041 67.0952 15.1136C67.0813 12.348 65.9767 9.69855 64.02 7.74188C62.0633 5.78521 59.4139 4.68054 56.6482 4.66664C49.6577 5.05886 42.9388 7.50949 37.337 11.7109C31.7202 15.9235 27.4786 21.707 25.1487 28.3302C24.8751 29.108 24.1522 29.6382 23.3281 29.6654C19.4191 29.7945 15.6076 30.9183 12.2538 32.9305C9.7509 34.4323 7.56466 36.3918 5.80448 38.6979ZM45.5928 23.5002C45.5928 22.0274 46.7867 20.8335 48.2594 20.8335C49.7322 20.8335 50.9261 22.0274 50.9261 23.5002C50.9261 24.9729 49.7322 26.1668 48.2594 26.1668C46.7867 26.1668 45.5928 24.9729 45.5928 23.5002ZM48.2594 17.8335C45.1298 17.8335 42.5928 20.3705 42.5928 23.5002C42.5928 26.6298 45.1298 29.1668 48.2594 29.1668C51.3891 29.1668 53.9261 26.6298 53.9261 23.5002C53.9261 20.3705 51.3891 17.8335 48.2594 17.8335Z" fill="#2673E5" fill-opacity="0.3"/>
</svg>
