<svg width="42" height="41" viewBox="0 0 42 41" fill="none" xmlns="http://www.w3.org/2000/svg">
<path d="M35.308 6.52499C32.7466 3.89919 29.5117 2.0292 25.958 1.12M16.0305 1.12C12.4179 2.0465 9.13663 3.96554 6.55799 6.66M1.85549 14.6975C1.28714 16.5783 0.999045 18.5327 1.00049 20.4975C1.00049 22.3425 1.25049 24.13 1.71799 25.8275M6.61799 34.3975C9.18404 37.0563 12.437 38.9515 16.0155 39.8725M26.0105 39.865C29.5771 38.9417 32.819 37.0504 35.378 34.4M40.283 25.825C40.7606 24.0895 41.0019 22.2975 41.0005 20.4975C41.0005 18.5875 40.733 16.74 40.233 14.99" stroke="black" stroke-width="2" stroke-linecap="round" stroke-linejoin="round"/>
</svg>
