<svg width="296" height="280" viewBox="0 0 296 280" fill="none" xmlns="http://www.w3.org/2000/svg">
<g clip-path="url(#clip0_2326_15958)">
<path d="M148 280C229.738 280 296 275.818 296 270.66C296 265.501 229.738 261.32 148 261.32C66.2619 261.32 0 265.501 0 270.66C0 275.818 66.2619 280 148 280Z" fill="#F5F5F5"/>
<path d="M198.86 10.27H176.66C175.21 10.27 173.88 11.35 173.57 12.79L173.42 13.48C172.66 16.99 169.43 19.63 165.88 19.63H144.77C141.22 19.63 138.45 17 138.31 13.48L138.28 12.79C138.22 11.35 137.09 10.27 135.63 10.27H113.43C106.02 10.27 99.4998 16.26 98.8498 23.64L80.9898 227.28C80.3398 234.67 85.8198 240.65 93.2298 240.65H178.66C186.07 240.65 192.59 234.66 193.24 227.28L211.1 23.65C211.75 16.26 206.27 10.28 198.86 10.28V10.27Z" fill="#E1E1E1"/>
<path opacity="0.7" d="M198.86 10.27H176.66C175.21 10.27 173.88 11.35 173.57 12.79L173.42 13.48C172.66 16.99 169.43 19.63 165.88 19.63H144.77C141.22 19.63 138.45 17 138.31 13.48L138.28 12.79C138.22 11.35 137.09 10.27 135.63 10.27H113.43C106.02 10.27 99.4998 16.26 98.8498 23.64L80.9898 227.28C80.3398 234.67 85.8198 240.65 93.2298 240.65H178.66C186.07 240.65 192.59 234.66 193.24 227.28L211.1 23.65C211.75 16.26 206.27 10.28 198.86 10.28V10.27Z" fill="#E1E1E1"/>
<path d="M190.2 103.93H144.84C143.19 103.93 141.98 102.6 142.12 100.96L145.54 61.9998C145.68 60.3598 147.13 59.0298 148.78 59.0298H194.14C195.79 59.0298 197 60.3598 196.86 61.9998L193.44 100.96C193.3 102.6 191.85 103.93 190.2 103.93Z" fill="white"/>
<path d="M175.099 225.74H99.1893C95.0993 225.74 92.0793 222.44 92.4393 218.36C92.7993 214.28 96.3993 210.98 100.489 210.98H176.399C180.489 210.98 183.509 214.28 183.149 218.36C182.789 222.44 179.189 225.74 175.099 225.74Z" fill="white"/>
<path d="M181.159 48.3301H111.509C109.219 48.3301 107.519 46.4701 107.719 44.1901L108.289 37.7201C108.489 35.4301 110.509 33.5801 112.809 33.5801H182.459C184.749 33.5801 186.449 35.4401 186.249 37.7201L185.679 44.1901C185.479 46.4801 183.459 48.3301 181.159 48.3301Z" fill="white"/>
<path d="M195.318 37.5001C195.258 38.1401 194.698 38.6501 194.058 38.6501C193.418 38.6501 192.948 38.1301 192.998 37.5001C193.058 36.8601 193.618 36.3501 194.258 36.3501C194.898 36.3501 195.368 36.8701 195.318 37.5001Z" fill="white"/>
<path d="M195.019 40.9503C194.959 41.5903 194.399 42.1003 193.759 42.1003C193.119 42.1003 192.649 41.5803 192.699 40.9503C192.759 40.3103 193.319 39.8003 193.959 39.8003C194.599 39.8003 195.069 40.3203 195.019 40.9503Z" fill="white"/>
<path d="M194.718 44.3902C194.658 45.0302 194.098 45.5402 193.458 45.5402C192.818 45.5402 192.348 45.0202 192.398 44.3902C192.458 43.7502 193.018 43.2402 193.658 43.2402C194.298 43.2402 194.768 43.7602 194.718 44.3902Z" fill="white"/>
<path d="M184.569 168.21H99.8189C98.1689 168.21 96.9589 166.88 97.0989 165.24L100.999 120.78C101.139 119.14 102.589 117.81 104.239 117.81H188.989C190.639 117.81 191.849 119.14 191.709 120.78L187.809 165.24C187.669 166.88 186.219 168.21 184.569 168.21Z" fill="white"/>
<path d="M123.139 177.5H96.7593C96.3593 177.5 96.0593 177.17 96.0993 176.77C96.1393 176.37 96.4893 176.04 96.8893 176.04H123.269C123.669 176.04 123.969 176.37 123.929 176.77C123.889 177.17 123.539 177.5 123.139 177.5Z" fill="white"/>
<path d="M156.109 177.5H127.789C127.389 177.5 127.089 177.17 127.129 176.77C127.169 176.37 127.519 176.04 127.919 176.04H156.239C156.639 176.04 156.939 176.37 156.899 176.77C156.859 177.17 156.509 177.5 156.109 177.5Z" fill="white"/>
<path d="M114.039 183.91H96.189C95.789 183.91 95.489 183.58 95.529 183.18C95.569 182.78 95.919 182.45 96.319 182.45H114.169C114.569 182.45 114.869 182.78 114.829 183.18C114.789 183.58 114.439 183.91 114.039 183.91Z" fill="white"/>
<path d="M147.929 183.91H118.689C118.289 183.91 117.989 183.58 118.029 183.18C118.069 182.78 118.419 182.45 118.819 182.45H148.059C148.459 182.45 148.759 182.78 148.719 183.18C148.679 183.58 148.329 183.91 147.929 183.91Z" fill="white"/>
<path d="M143.208 190.32H95.6284C95.2284 190.32 94.9284 189.99 94.9684 189.59C95.0084 189.19 95.3584 188.86 95.7584 188.86H143.338C143.738 188.86 144.038 189.18 143.998 189.59C143.958 189.99 143.608 190.32 143.208 190.32Z" fill="white"/>
<path d="M150.999 190.32H147.859C147.459 190.32 147.159 189.99 147.199 189.59C147.239 189.19 147.589 188.86 147.989 188.86H151.129C151.529 188.86 151.829 189.18 151.789 189.59C151.749 189.99 151.399 190.32 150.999 190.32Z" fill="white"/>
<path d="M117.28 196.73H95.0601C94.6601 196.73 94.3601 196.4 94.4001 196C94.4401 195.6 94.7901 195.27 95.1901 195.27H117.41C117.81 195.27 118.11 195.59 118.07 196C118.03 196.4 117.68 196.73 117.28 196.73Z" fill="white"/>
<path d="M149.589 196.73H121.929C121.529 196.73 121.229 196.4 121.269 196C121.309 195.6 121.659 195.27 122.059 195.27H149.719C150.119 195.27 150.419 195.59 150.379 196C150.339 196.4 149.989 196.73 149.589 196.73Z" fill="white"/>
<path d="M121.859 203.15H94.5093C94.1093 203.15 93.8093 202.83 93.8493 202.42C93.8893 202.02 94.2393 201.69 94.6393 201.69H121.989C122.389 201.69 122.689 202.02 122.649 202.42C122.609 202.82 122.259 203.15 121.859 203.15Z" fill="white"/>
<path d="M148.54 203.15H126.5C126.1 203.15 125.8 202.83 125.84 202.42C125.88 202.02 126.23 201.69 126.63 201.69H148.67C149.07 201.69 149.37 202.02 149.33 202.42C149.29 202.82 148.94 203.15 148.54 203.15Z" fill="white"/>
<g opacity="0.7">
<path d="M189.131 100.25C188.761 100.63 188.171 100.67 187.821 100.33L149.931 64.2598C149.581 63.9198 149.591 63.3398 149.961 62.9598C150.331 62.5798 150.921 62.5398 151.271 62.8798L189.161 98.9498C189.511 99.2898 189.501 99.8698 189.131 100.25Z" fill="#E1E1E1"/>
<path d="M146.571 100.23C146.271 99.8499 146.351 99.2599 146.771 98.9299L166.101 83.1699C166.511 82.8299 167.101 82.8699 167.401 83.2499C167.701 83.6299 167.621 84.2199 167.201 84.5499L147.871 100.31C147.461 100.65 146.871 100.61 146.571 100.23Z" fill="#E1E1E1"/>
<path d="M171.551 79.86C171.251 79.48 171.331 78.89 171.751 78.56L191.111 62.77C191.521 62.43 192.111 62.47 192.411 62.85C192.711 63.23 192.631 63.82 192.211 64.15L172.851 79.94C172.441 80.28 171.851 80.24 171.551 79.86Z" fill="#E1E1E1"/>
<g opacity="0.7">
<path d="M189.131 100.25C188.761 100.63 188.171 100.67 187.821 100.33L149.931 64.2598C149.581 63.9198 149.591 63.3398 149.961 62.9598C150.331 62.5798 150.921 62.5398 151.271 62.8798L189.161 98.9498C189.511 99.2898 189.501 99.8698 189.131 100.25Z" fill="#E1E1E1"/>
</g>
<g opacity="0.7">
<path d="M146.571 100.23C146.271 99.8499 146.351 99.2599 146.771 98.9299L166.101 83.1699C166.511 82.8299 167.101 82.8699 167.401 83.2499C167.701 83.6299 167.621 84.2199 167.201 84.5499L147.871 100.31C147.461 100.65 146.871 100.61 146.571 100.23Z" fill="#E1E1E1"/>
</g>
<g opacity="0.7">
<path d="M171.551 79.86C171.251 79.48 171.331 78.89 171.751 78.56L191.111 62.77C191.521 62.43 192.111 62.47 192.411 62.85C192.711 63.23 192.631 63.82 192.211 64.15L172.851 79.94C172.441 80.28 171.851 80.24 171.551 79.86Z" fill="#E1E1E1"/>
</g>
</g>
<path d="M81.9991 24.0898H71.2391C69.0591 24.0898 67.2891 25.8498 67.2891 28.0298V38.7598C67.2891 40.9398 69.0591 42.6998 71.2391 42.6998H81.9991C84.1791 42.6998 85.9491 40.9398 85.9491 38.7598V28.0298C85.9491 25.8498 84.1791 24.0898 81.9991 24.0898ZM76.6191 27.8998C78.2391 27.8998 79.1191 29.2098 79.1191 30.8298C79.1191 32.4498 78.2491 33.7598 76.6191 33.7598C74.9891 33.7598 74.1191 32.4498 74.1191 30.8298C74.1191 29.2098 74.9891 27.8998 76.6191 27.8998ZM83.1191 38.8998H70.1291C70.0191 38.8998 69.9191 38.8598 69.8491 38.7898L70.6791 36.5198C71.2191 35.0598 72.6091 34.0898 74.1691 34.0898H79.0791C80.6391 34.0898 82.0291 35.0598 82.5691 36.5198L83.3991 38.7898C83.3291 38.8598 83.2291 38.8998 83.1191 38.8998Z" fill="#2673E5"/>
<path opacity="0.7" d="M81.9991 24.0898H71.2391C69.0591 24.0898 67.2891 25.8498 67.2891 28.0298V38.7598C67.2891 40.9398 69.0591 42.6998 71.2391 42.6998H81.9991C84.1791 42.6998 85.9491 40.9398 85.9491 38.7598V28.0298C85.9491 25.8498 84.1791 24.0898 81.9991 24.0898ZM76.6191 27.8998C78.2391 27.8998 79.1191 29.2098 79.1191 30.8298C79.1191 32.4498 78.2491 33.7598 76.6191 33.7598C74.9891 33.7598 74.1191 32.4498 74.1191 30.8298C74.1191 29.2098 74.9891 27.8998 76.6191 27.8998ZM83.1191 38.8998H70.1291C70.0191 38.8998 69.9191 38.8598 69.8491 38.7898L70.6791 36.5198C71.2191 35.0598 72.6091 34.0898 74.1691 34.0898H79.0791C80.6391 34.0898 82.0291 35.0598 82.5691 36.5198L83.3991 38.7898C83.3291 38.8598 83.2291 38.8998 83.1191 38.8998Z" fill="white"/>
<path d="M43.7109 68.2402H35.5309C32.5909 68.2402 30.2109 70.6202 30.2109 73.5502V81.7102C30.2109 84.6402 32.5909 87.0202 35.5309 87.0202H43.7109C46.6509 87.0202 49.0309 84.6402 49.0309 81.7102V73.5502C49.0309 70.6202 46.6509 68.2402 43.7109 68.2402ZM39.6209 82.0802C39.6209 82.0802 36.2609 78.4402 36.2609 76.5802C36.2609 74.7202 37.7609 73.2302 39.6209 73.2302C41.4809 73.2302 42.9809 74.7302 42.9809 76.5802C42.9809 78.4302 39.6209 82.0802 39.6209 82.0802Z" fill="#2673E5"/>
<path d="M39.6218 75.0503C38.7718 75.0503 38.0918 75.7303 38.0918 76.5803C38.0918 77.4303 38.7818 78.1103 39.6218 78.1103C40.4618 78.1103 41.1518 77.4303 41.1518 76.5803C41.1518 75.7303 40.4618 75.0503 39.6218 75.0503Z" fill="#2673E5"/>
<g opacity="0.7">
<path d="M43.7109 68.2402H35.5309C32.5909 68.2402 30.2109 70.6202 30.2109 73.5502V81.7102C30.2109 84.6402 32.5909 87.0202 35.5309 87.0202H43.7109C46.6509 87.0202 49.0309 84.6402 49.0309 81.7102V73.5502C49.0309 70.6202 46.6509 68.2402 43.7109 68.2402ZM39.6209 82.0802C39.6209 82.0802 36.2609 78.4402 36.2609 76.5802C36.2609 74.7202 37.7609 73.2302 39.6209 73.2302C41.4809 73.2302 42.9809 74.7302 42.9809 76.5802C42.9809 78.4302 39.6209 82.0802 39.6209 82.0802Z" fill="white"/>
<path d="M39.6218 75.0503C38.7718 75.0503 38.0918 75.7303 38.0918 76.5803C38.0918 77.4303 38.7818 78.1103 39.6218 78.1103C40.4618 78.1103 41.1518 77.4303 41.1518 76.5803C41.1518 75.7303 40.4618 75.0503 39.6218 75.0503Z" fill="white"/>
</g>
<path d="M238.211 38.1501L243.691 34.6201L238.211 31.0801V38.1501Z" fill="#2673E5"/>
<path d="M245.271 24.98H234.841C232.381 24.98 230.391 26.97 230.391 29.41V39.82C230.391 42.27 232.381 44.25 234.841 44.25H245.271C247.731 44.25 249.721 42.26 249.721 39.82V29.41C249.721 26.96 247.731 24.98 245.271 24.98ZM240.051 41.55C236.211 41.55 233.101 38.45 233.101 34.62C233.101 30.79 236.211 27.69 240.051 27.69C243.891 27.69 247.001 30.79 247.001 34.62C247.001 38.45 243.891 41.55 240.051 41.55Z" fill="#2673E5"/>
<g opacity="0.7">
<path d="M238.211 38.1501L243.691 34.6201L238.211 31.0801V38.1501Z" fill="white"/>
<path d="M245.271 24.98H234.841C232.381 24.98 230.391 26.97 230.391 29.41V39.82C230.391 42.27 232.381 44.25 234.841 44.25H245.271C247.731 44.25 249.721 42.26 249.721 39.82V29.41C249.721 26.96 247.731 24.98 245.271 24.98ZM240.051 41.55C236.211 41.55 233.101 38.45 233.101 34.62C233.101 30.79 236.211 27.69 240.051 27.69C243.891 27.69 247.001 30.79 247.001 34.62C247.001 38.45 243.891 41.55 240.051 41.55Z" fill="white"/>
</g>
<path d="M240.509 71.8799C240.509 71.6599 240.499 71.4499 240.479 71.2399L241.729 70.5499C241.639 69.9499 241.479 69.3699 241.259 68.8199L239.829 68.8399C239.649 68.4499 239.429 68.0799 239.189 67.7299L239.929 66.4999C239.549 66.0299 239.119 65.6099 238.659 65.2299L237.429 65.9599C237.079 65.7199 236.709 65.4999 236.319 65.3199L236.339 63.8899C235.789 63.6799 235.199 63.5199 234.599 63.4199L233.899 64.6699C233.689 64.6499 233.479 64.6399 233.259 64.6399C233.039 64.6399 232.829 64.6499 232.619 64.6699L231.919 63.4199C231.319 63.5099 230.739 63.6699 230.179 63.8899L230.199 65.3199C229.809 65.4999 229.439 65.7199 229.089 65.9599L227.859 65.2299C227.389 65.6099 226.969 66.0299 226.589 66.4999L227.329 67.7299C227.089 68.0799 226.869 68.4499 226.689 68.8399L225.259 68.8199C225.049 69.3699 224.889 69.9499 224.789 70.5499L226.039 71.2399C226.019 71.4499 226.009 71.6599 226.009 71.8799C226.009 72.0999 226.019 72.3099 226.039 72.5199L224.789 73.2099C224.879 73.8099 225.039 74.3899 225.259 74.9399L226.689 74.9199C226.869 75.3099 227.089 75.6799 227.329 76.0299L226.589 77.2599C226.969 77.7299 227.399 78.1499 227.859 78.5299L229.089 77.7999C229.439 78.0399 229.809 78.2599 230.199 78.4399L230.179 79.8699C230.729 80.0799 231.319 80.2399 231.919 80.3399L232.619 79.0899C232.829 79.1099 233.039 79.1199 233.259 79.1199C233.479 79.1199 233.689 79.1099 233.899 79.0899L234.599 80.3399C235.199 80.2499 235.779 80.0899 236.339 79.8699L236.319 78.4399C236.709 78.2599 237.079 78.0399 237.429 77.7999L238.659 78.5299C239.129 78.1499 239.549 77.7299 239.929 77.2599L239.189 76.0299C239.429 75.6799 239.649 75.3099 239.829 74.9199L241.259 74.9399C241.469 74.3899 241.629 73.8099 241.729 73.2099L240.479 72.5199C240.499 72.3099 240.509 72.0999 240.509 71.8799ZM233.269 76.7799C230.549 76.7799 228.349 74.5799 228.349 71.8799C228.349 69.1799 230.549 66.9799 233.269 66.9799C235.989 66.9799 238.189 69.1799 238.189 71.8799C238.189 74.5799 235.989 76.7799 233.269 76.7799Z" fill="#2673E5"/>
<path opacity="0.7" d="M240.509 71.8799C240.509 71.6599 240.499 71.4499 240.479 71.2399L241.729 70.5499C241.639 69.9499 241.479 69.3699 241.259 68.8199L239.829 68.8399C239.649 68.4499 239.429 68.0799 239.189 67.7299L239.929 66.4999C239.549 66.0299 239.119 65.6099 238.659 65.2299L237.429 65.9599C237.079 65.7199 236.709 65.4999 236.319 65.3199L236.339 63.8899C235.789 63.6799 235.199 63.5199 234.599 63.4199L233.899 64.6699C233.689 64.6499 233.479 64.6399 233.259 64.6399C233.039 64.6399 232.829 64.6499 232.619 64.6699L231.919 63.4199C231.319 63.5099 230.739 63.6699 230.179 63.8899L230.199 65.3199C229.809 65.4999 229.439 65.7199 229.089 65.9599L227.859 65.2299C227.389 65.6099 226.969 66.0299 226.589 66.4999L227.329 67.7299C227.089 68.0799 226.869 68.4499 226.689 68.8399L225.259 68.8199C225.049 69.3699 224.889 69.9499 224.789 70.5499L226.039 71.2399C226.019 71.4499 226.009 71.6599 226.009 71.8799C226.009 72.0999 226.019 72.3099 226.039 72.5199L224.789 73.2099C224.879 73.8099 225.039 74.3899 225.259 74.9399L226.689 74.9199C226.869 75.3099 227.089 75.6799 227.329 76.0299L226.589 77.2599C226.969 77.7299 227.399 78.1499 227.859 78.5299L229.089 77.7999C229.439 78.0399 229.809 78.2599 230.199 78.4399L230.179 79.8699C230.729 80.0799 231.319 80.2399 231.919 80.3399L232.619 79.0899C232.829 79.1099 233.039 79.1199 233.259 79.1199C233.479 79.1199 233.689 79.1099 233.899 79.0899L234.599 80.3399C235.199 80.2499 235.779 80.0899 236.339 79.8699L236.319 78.4399C236.709 78.2599 237.079 78.0399 237.429 77.7999L238.659 78.5299C239.129 78.1499 239.549 77.7299 239.929 77.2599L239.189 76.0299C239.429 75.6799 239.649 75.3099 239.829 74.9199L241.259 74.9399C241.469 74.3899 241.629 73.8099 241.729 73.2099L240.479 72.5199C240.499 72.3099 240.509 72.0999 240.509 71.8799ZM233.269 76.7799C230.549 76.7799 228.349 74.5799 228.349 71.8799C228.349 69.1799 230.549 66.9799 233.269 66.9799C235.989 66.9799 238.189 69.1799 238.189 71.8799C238.189 74.5799 235.989 76.7799 233.269 76.7799Z" fill="white"/>
<path d="M221.58 96.5199C221.58 96.1999 221.56 95.8799 221.54 95.5699L223.42 94.5299C223.28 93.6299 223.04 92.7599 222.72 91.9399L220.58 91.9799C220.31 91.3999 219.99 90.8499 219.62 90.3299L220.72 88.4999C220.15 87.7999 219.51 87.1699 218.81 86.5999L216.97 87.6999C216.45 87.3299 215.9 87.0099 215.31 86.7399L215.35 84.5999C214.52 84.2799 213.65 84.0399 212.75 83.8999L211.71 85.7699C211.39 85.7399 211.08 85.7299 210.75 85.7299C210.42 85.7299 210.11 85.7499 209.79 85.7699L208.75 83.8999C207.85 84.0399 206.98 84.2799 206.15 84.5999L206.19 86.7399C205.61 87.0099 205.05 87.3299 204.53 87.6999L202.69 86.5999C201.99 87.1699 201.35 87.7999 200.78 88.4999L201.88 90.3299C201.51 90.8499 201.19 91.3999 200.92 91.9799L198.78 91.9399C198.46 92.7699 198.22 93.6299 198.08 94.5299L199.96 95.5699C199.93 95.8799 199.92 96.1999 199.92 96.5199C199.92 96.8399 199.94 97.1599 199.96 97.4699L198.08 98.5099C198.22 99.4099 198.46 100.28 198.78 101.1L200.92 101.06C201.19 101.64 201.51 102.19 201.88 102.71L200.78 104.54C201.35 105.24 201.99 105.87 202.69 106.44L204.53 105.34C205.05 105.71 205.6 106.03 206.19 106.3L206.15 108.44C206.98 108.76 207.85 109 208.75 109.14L209.79 107.27C210.11 107.3 210.42 107.31 210.75 107.31C211.08 107.31 211.39 107.29 211.71 107.27L212.75 109.14C213.65 109 214.52 108.76 215.35 108.44L215.31 106.3C215.89 106.03 216.45 105.71 216.97 105.34L218.81 106.44C219.51 105.87 220.15 105.24 220.72 104.54L219.62 102.71C219.99 102.19 220.31 101.64 220.58 101.06L222.72 101.1C223.04 100.27 223.28 99.4099 223.42 98.5099L221.54 97.4699C221.57 97.1599 221.58 96.8399 221.58 96.5199ZM210.75 100.78C208.39 100.78 206.48 98.8699 206.48 96.5199C206.48 94.1699 208.39 92.2599 210.75 92.2599C213.11 92.2599 215.02 94.1699 215.02 96.5199C215.02 98.8699 213.11 100.78 210.75 100.78Z" fill="#2673E5"/>
<path opacity="0.7" d="M221.58 96.5199C221.58 96.1999 221.56 95.8799 221.54 95.5699L223.42 94.5299C223.28 93.6299 223.04 92.7599 222.72 91.9399L220.58 91.9799C220.31 91.3999 219.99 90.8499 219.62 90.3299L220.72 88.4999C220.15 87.7999 219.51 87.1699 218.81 86.5999L216.97 87.6999C216.45 87.3299 215.9 87.0099 215.31 86.7399L215.35 84.5999C214.52 84.2799 213.65 84.0399 212.75 83.8999L211.71 85.7699C211.39 85.7399 211.08 85.7299 210.75 85.7299C210.42 85.7299 210.11 85.7499 209.79 85.7699L208.75 83.8999C207.85 84.0399 206.98 84.2799 206.15 84.5999L206.19 86.7399C205.61 87.0099 205.05 87.3299 204.53 87.6999L202.69 86.5999C201.99 87.1699 201.35 87.7999 200.78 88.4999L201.88 90.3299C201.51 90.8499 201.19 91.3999 200.92 91.9799L198.78 91.9399C198.46 92.7699 198.22 93.6299 198.08 94.5299L199.96 95.5699C199.93 95.8799 199.92 96.1999 199.92 96.5199C199.92 96.8399 199.94 97.1599 199.96 97.4699L198.08 98.5099C198.22 99.4099 198.46 100.28 198.78 101.1L200.92 101.06C201.19 101.64 201.51 102.19 201.88 102.71L200.78 104.54C201.35 105.24 201.99 105.87 202.69 106.44L204.53 105.34C205.05 105.71 205.6 106.03 206.19 106.3L206.15 108.44C206.98 108.76 207.85 109 208.75 109.14L209.79 107.27C210.11 107.3 210.42 107.31 210.75 107.31C211.08 107.31 211.39 107.29 211.71 107.27L212.75 109.14C213.65 109 214.52 108.76 215.35 108.44L215.31 106.3C215.89 106.03 216.45 105.71 216.97 105.34L218.81 106.44C219.51 105.87 220.15 105.24 220.72 104.54L219.62 102.71C219.99 102.19 220.31 101.64 220.58 101.06L222.72 101.1C223.04 100.27 223.28 99.4099 223.42 98.5099L221.54 97.4699C221.57 97.1599 221.58 96.8399 221.58 96.5199ZM210.75 100.78C208.39 100.78 206.48 98.8699 206.48 96.5199C206.48 94.1699 208.39 92.2599 210.75 92.2599C213.11 92.2599 215.02 94.1699 215.02 96.5199C215.02 98.8699 213.11 100.78 210.75 100.78Z" fill="white"/>
<path d="M203.03 33.5098V37.8498L198.89 40.0298C198.17 40.4098 198.17 41.4298 198.89 41.8098L203.03 43.9898V48.3298C203.03 49.2998 203.82 50.0798 204.79 50.0798H219.65C220.62 50.0798 221.41 49.2898 221.41 48.3298V33.5098C221.41 32.5398 220.62 31.7598 219.65 31.7598H204.79C203.82 31.7598 203.03 32.5498 203.03 33.5098Z" fill="#2673E5"/>
<g opacity="0.9">
<path d="M208.149 38.03H216.589C217.159 38.03 217.629 37.57 217.629 37C217.629 36.43 217.169 35.96 216.589 35.96H208.149C207.579 35.96 207.109 36.42 207.109 37C207.109 37.58 207.569 38.03 208.149 38.03Z" fill="white"/>
<path d="M216.589 39.8901H208.149C207.579 39.8901 207.109 40.3501 207.109 40.9201C207.109 41.4901 207.569 41.9601 208.149 41.9601H216.589C217.159 41.9601 217.629 41.5001 217.629 40.9201C217.629 40.3401 217.169 39.8901 216.589 39.8901Z" fill="white"/>
<path d="M216.589 43.8101H208.149C207.579 43.8101 207.109 44.2701 207.109 44.8501C207.109 45.4301 207.569 45.8801 208.149 45.8801H216.589C217.159 45.8801 217.629 45.4201 217.629 44.8501C217.629 44.2801 217.169 43.8101 216.589 43.8101Z" fill="white"/>
</g>
<path d="M110.05 18.33H113.6L115.43 21.79C115.96 22.79 117.4 22.79 117.93 21.79L119.76 18.33H123.31C124.72 18.33 125.87 17.19 125.87 15.78V2.55C125.87 1.14 124.72 0 123.31 0H110.05C108.64 0 107.49 1.14 107.49 2.55V15.77C107.49 17.18 108.64 18.32 110.05 18.32V18.33Z" fill="#2673E5"/>
<path opacity="0.9" d="M116.69 3.9502L112.59 6.3402V13.3202H115.64V8.6302H117.74V13.3202H120.79V6.3402L116.69 3.9502Z" fill="white"/>
<path d="M146.849 231.22H143.649L141.609 227.36C141.169 226.53 139.979 226.53 139.529 227.36L137.489 231.22H134.289C132.679 231.22 131.369 232.52 131.369 234.13V246.64C131.369 248.25 132.679 249.55 134.289 249.55H146.839C148.449 249.55 149.759 248.25 149.759 246.64V234.13C149.759 232.52 148.449 231.22 146.839 231.22H146.849Z" fill="#2673E5"/>
<path opacity="0.9" d="M142.359 236C140.589 234.23 137.709 234.23 135.939 236C134.169 237.76 134.169 240.64 135.939 242.4C137.509 243.97 139.949 244.14 141.719 242.93C141.749 243.13 141.849 243.33 141.999 243.48L144.819 246.29C145.219 246.69 145.859 246.69 146.259 246.29C146.659 245.89 146.659 245.25 146.259 244.85L143.439 242.04C143.279 241.88 143.089 241.79 142.889 241.76C144.109 240 143.929 237.56 142.359 236ZM141.399 241.44C140.159 242.68 138.139 242.68 136.899 241.44C135.659 240.2 135.659 238.19 136.899 236.95C138.139 235.71 140.159 235.71 141.399 236.95C142.639 238.19 142.639 240.2 141.399 241.44Z" fill="white"/>
<path d="M262.041 147.89C262.041 147.89 255.261 164.63 248.641 166.44C242.011 168.25 232.011 166.78 232.011 166.78L228.921 167.62L225.891 167.17C225.891 167.17 225.821 167.17 225.791 167.17L222.371 167.09C221.791 167.08 221.471 166.51 221.791 166.06L223.021 164.37C223.121 164.24 223.261 164.14 223.421 164.08L226.671 163.03C226.801 162.99 226.931 162.98 227.071 163L232.051 163.79C232.051 163.79 245.891 161.53 247.291 160.25C248.701 158.97 252.871 145.59 252.871 145.59L262.051 147.89H262.041Z" fill="#FCC1BB"/>
<path opacity="0.1" d="M232.349 163.74C232.149 163.77 232.029 163.79 232.029 163.79L227.049 163C226.919 162.98 226.779 162.99 226.649 163.03L223.399 164.08C223.229 164.13 223.089 164.23 222.999 164.37L221.769 166.06C221.449 166.5 221.769 167.07 222.349 167.09L225.769 167.17C225.769 167.17 225.839 167.17 225.869 167.17L227.909 167.47C229.419 166.81 230.919 165.45 232.339 163.74H232.349Z" fill="black"/>
<path d="M266.121 131.31C261.201 129.7 254.281 133.39 251.631 148.84L261.841 151.81C261.841 151.81 273.151 133.61 266.121 131.31Z" fill="#2673E5"/>
<path d="M237.51 111.12C237.51 111.63 237.78 112.04 238.12 112.03C238.45 112.03 238.74 111.59 238.72 111.1C238.7 110.61 238.45 110.18 238.11 110.19C237.78 110.19 237.51 110.61 237.51 111.12Z" fill="#1A2E35"/>
<path d="M239.52 111.62L237.1 115.61C237.1 115.61 237.94 116.55 239.75 115.86L239.52 111.63V111.62Z" fill="#EB827E"/>
<path d="M239.98 107.94C239.92 108.01 239.83 108.04 239.74 108.03C239.08 107.92 238.4 108.13 237.92 108.6C237.82 108.71 237.66 108.72 237.55 108.63C237.44 108.53 237.43 108.37 237.53 108.25C238.13 107.64 238.98 107.36 239.82 107.5C239.97 107.52 240.07 107.65 240.05 107.8C240.05 107.85 240.02 107.9 239.99 107.94H239.98Z" fill="#1A2E35"/>
<path d="M257.06 107.51C257.44 114.25 257.74 117.09 254.76 120.92C250 125.02 241.88 125.68 239.5 119.18C237.35 113.34 237.09 103.33 243.34 99.8599C247.8 97.3899 253.42 98.9899 255.9 103.43C256.6 104.68 256.99 106.07 257.06 107.5V107.51Z" fill="#FCC1BB"/>
<path d="M247.639 122.25L249.359 132.23L257.699 130.31L254.779 120.12L247.639 122.25Z" fill="#FCC1BB"/>
<path d="M241.639 108.01C242.059 103.63 240.559 108.69 238.519 102.91C236.489 97.1402 246.069 92.4402 247.609 93.5202C249.139 94.6002 248.259 96.2502 253.329 97.1802C258.399 98.1102 258.189 103.02 258.189 103.02C258.189 103.02 261.109 104.37 260.069 110.62C259.029 116.87 255.079 121.59 255.079 121.59C255.079 121.59 253.159 119.62 250.129 121.44C250.129 121.44 248.639 120.61 247.169 118.42C245.799 116.38 245.379 114.45 243.509 114.28C239.579 113.93 241.519 109.45 241.659 108.01H241.639Z" fill="#1A2E35"/>
<path d="M257.639 103.79C257.639 103.79 261.779 101.25 259.949 98.59C258.119 95.93 258.999 101.51 257.639 103.79Z" fill="#1A2E35"/>
<path d="M242.829 110.55C241.909 111.58 241.429 112.93 241.509 114.3C241.629 116.12 243.419 116.45 244.829 115.45C246.109 114.55 247.579 112.51 246.759 110.91C245.939 109.31 243.969 109.3 242.819 110.54L242.829 110.55Z" fill="#FFC3BD"/>
<path opacity="0.1" d="M247.811 123.19L248.491 127.15C248.451 123.53 250.371 121.74 250.371 121.74C248.421 122.03 247.811 123.19 247.811 123.19Z" fill="black"/>
<path d="M189.15 148.95H186.76V162.98H189.15V148.95Z" fill="#2673E5"/>
<path opacity="0.7" d="M189.15 148.95H186.76V162.98H189.15V148.95Z" fill="white"/>
<path d="M172.759 121.09H166.819C164.589 121.09 162.789 122.89 162.789 125.11V152.56C162.789 154.78 164.589 156.58 166.819 156.58H172.759V121.09Z" fill="#2673E5"/>
<path d="M208.279 121.09H169.719C167.041 121.09 164.869 123.261 164.869 125.94V151.73C164.869 154.408 167.041 156.58 169.719 156.58H208.279C210.958 156.58 213.129 154.408 213.129 151.73V125.94C213.129 123.261 210.958 121.09 208.279 121.09Z" fill="#2673E5"/>
<path opacity="0.5" d="M208.279 121.09H169.719C167.041 121.09 164.869 123.261 164.869 125.94V151.73C164.869 154.408 167.041 156.58 169.719 156.58H208.279C210.958 156.58 213.129 154.408 213.129 151.73V125.94C213.129 123.261 210.958 121.09 208.279 121.09Z" fill="white"/>
<path d="M168.899 122.75C167.589 122.75 166.529 123.81 166.529 125.11V152.56C166.529 153.86 167.589 154.92 168.899 154.92H209.089C210.399 154.92 211.459 153.86 211.459 152.56V125.11C211.459 123.81 210.399 122.75 209.089 122.75H168.899Z" fill="#1A2E35"/>
<path d="M179.279 168.86C179.279 164.08 183.169 160.21 187.959 160.21C192.749 160.21 196.639 164.08 196.639 168.86H179.279Z" fill="#2673E5"/>
<path d="M199.76 165.91H182.41V168.72H217.12V167.57L199.76 165.91Z" fill="#2673E5"/>
<path opacity="0.8" d="M199.76 165.91H182.41V168.72H217.12V167.57L199.76 165.91Z" fill="white"/>
<path d="M199.76 168.72H182.41V165.91L199.76 167.57V168.72Z" fill="#2673E5"/>
<path opacity="0.6" d="M199.76 168.72H182.41V165.91L199.76 167.57V168.72Z" fill="white"/>
<path d="M238.039 265.44H202.229C199.229 265.44 196.789 263.01 196.789 260.01V177.91C196.789 174.91 199.229 172.48 202.229 172.48H238.039C238.839 172.48 239.489 173.13 239.489 173.93C239.489 174.73 238.839 175.38 238.039 175.38H202.229C200.829 175.38 199.699 176.51 199.699 177.9V260C199.699 261.39 200.829 262.52 202.229 262.52H238.039C238.839 262.52 239.489 263.17 239.489 263.97C239.489 264.77 238.839 265.42 238.039 265.42V265.44Z" fill="#1A2E35"/>
<g opacity="0.5">
<path d="M238.039 265.44H202.229C199.229 265.44 196.789 263.01 196.789 260.01V177.91C196.789 174.91 199.229 172.48 202.229 172.48H238.039C238.839 172.48 239.489 173.13 239.489 173.93C239.489 174.73 238.839 175.38 238.039 175.38H202.229C200.829 175.38 199.699 176.51 199.699 177.9V260C199.699 261.39 200.829 262.52 202.229 262.52H238.039C238.839 262.52 239.489 263.17 239.489 263.97C239.489 264.77 238.839 265.42 238.039 265.42V265.44Z" fill="white"/>
</g>
<path d="M202.08 168.72H151.24V172.97H202.08V168.72Z" fill="#2673E5"/>
<path opacity="0.2" d="M202.08 168.72H151.24V172.97H202.08V168.72Z" fill="white"/>
<path d="M243.12 168.72H199.76V172.97H243.12V168.72Z" fill="#2673E5"/>
<path opacity="0.5" d="M243.12 168.72H199.76V172.97H243.12V168.72Z" fill="white"/>
<path d="M227.921 235.31L230.321 259.52H224.571L218.811 235.94L227.921 235.31Z" fill="#FCC1BB"/>
<path d="M224.03 257.94L231.37 258.07C231.65 258.07 231.88 258.27 231.94 258.54L233.16 264.52C233.27 265.05 232.93 265.57 232.4 265.68C232.33 265.69 232.26 265.7 232.19 265.7C229.55 265.61 227.2 265.42 223.9 265.37C220.01 265.31 220.99 265.79 216.42 265.77C213.67 265.76 213.22 262.63 214.39 262.5C219.74 261.92 220.33 260.32 222.42 258.45C222.87 258.09 223.44 257.91 224.02 257.95L224.03 257.94Z" fill="#1A2E35"/>
<path opacity="0.1" d="M229.701 253.21L227.921 235.31L218.811 235.94L223.031 253.21H229.701Z" fill="black"/>
<path d="M267.291 179.49L243.701 180.33C243.701 180.33 211.961 191.39 211.071 199.94C210.161 208.71 220.831 248.98 220.831 248.98H230.311C230.311 248.98 227.701 219.42 226.691 210.37C225.691 201.32 259.751 204.32 265.671 196.6C271.111 189.49 267.291 179.49 267.291 179.49Z" fill="#1A2E35"/>
<path opacity="0.2" d="M267.291 179.49L243.701 180.33C243.701 180.33 211.961 191.39 211.071 199.94C210.161 208.71 220.831 248.98 220.831 248.98H230.311C230.311 248.98 227.701 219.42 226.691 210.37C225.691 201.32 259.751 204.32 265.671 196.6C271.111 189.49 267.291 179.49 267.291 179.49Z" fill="black"/>
<path d="M231.931 247.63L232.141 250.97H220.421L219.271 247.63H231.931Z" fill="#2673E5"/>
<path d="M205.981 236.46L206.611 259.52H200.961L197.611 236.46H205.981Z" fill="#FCC1BB"/>
<path d="M200.171 257.94L207.511 258.07C207.791 258.07 208.021 258.27 208.081 258.54L209.301 264.52C209.411 265.05 209.071 265.57 208.541 265.68C208.471 265.69 208.401 265.7 208.331 265.7C205.691 265.61 203.341 265.42 200.041 265.37C196.151 265.31 197.131 265.79 192.561 265.77C189.811 265.76 189.361 262.63 190.531 262.5C195.881 261.92 196.471 260.32 198.561 258.45C199.011 258.09 199.581 257.91 200.161 257.95L200.171 257.94Z" fill="#1A2E35"/>
<path opacity="0.1" d="M206.441 253.19L205.981 236.47H197.611L200.041 253.21C201.861 253.21 204.371 253.21 206.441 253.19Z" fill="black"/>
<path d="M257.041 181.44C257.041 181.44 259.001 199.32 240.761 200.15C222.521 200.98 208.291 203.07 207.871 209.54C207.451 216.01 207.871 248.98 207.871 248.98H197.961C197.961 248.98 194.101 228.13 192.601 215.21C191.141 202.65 188.471 193.55 201.391 189.3C215.121 184.78 239.541 180.6 239.541 180.6L257.121 179.49L257.061 181.44H257.041Z" fill="#1A2E35"/>
<path d="M209.33 247.63L208.7 250.97H197.82L196.67 247.63H209.33Z" fill="#2673E5"/>
<path d="M261 130.13C261 130.13 261 126.09 252.83 126.56C244.16 127.06 245.79 130.92 245.79 130.92L261 130.13Z" fill="#2673E5"/>
<path opacity="0.3" d="M261 130.13C261 130.13 261 126.09 252.83 126.56C244.16 127.06 245.79 130.92 245.79 130.92L261 130.13Z" fill="black"/>
<path d="M268.58 148.2C268.03 156.16 268.22 180.12 268.22 180.12C268.22 180.12 250.79 181.26 237.08 180.82L235.49 134.73C235.49 133.09 236.51 131.6 238.1 130.98C241.97 129.48 251.06 127.78 265.28 129.64C270.18 130.28 269.23 138.78 268.58 148.2Z" fill="#2673E5"/>
<path d="M238.291 147.89C238.291 147.89 231.511 164.63 224.891 166.44C218.261 168.25 208.261 166.78 208.261 166.78L205.171 167.62L202.141 167.17C202.141 167.17 202.071 167.17 202.041 167.17L198.621 167.09C198.041 167.08 197.721 166.51 198.041 166.06L199.271 164.37C199.371 164.24 199.511 164.14 199.671 164.08L202.921 163.03C203.051 162.99 203.181 162.98 203.321 163L208.301 163.79C208.301 163.79 222.141 161.53 223.541 160.25C224.951 158.97 229.121 145.59 229.121 145.59L238.301 147.89H238.291Z" fill="#FCC1BB"/>
<path opacity="0.1" d="M238.109 140.1C238.109 140.1 237.059 141.35 235.779 143.15L236.239 156.49C241.329 154.25 243.349 141.17 243.349 141.17L240.039 138.83L238.109 140.1Z" fill="black"/>
<path d="M242.371 131.31C237.451 129.7 230.531 133.39 227.881 148.84L238.091 151.81C238.091 151.81 249.401 133.61 242.371 131.31Z" fill="#2673E5"/>
<path d="M248.891 208.83H241.201V231.3H248.891V208.83Z" fill="#1A2E35"/>
<path opacity="0.6" d="M248.891 208.83H241.201V231.3H248.891V208.83Z" fill="white"/>
<path d="M250.07 251.65V223.1H240V251.65L217.08 254.82V257.99L245.04 255.61L273 257.99V254.82L250.07 251.65Z" fill="#1A2E35"/>
<path d="M216.741 265.77C218.414 265.77 219.771 264.418 219.771 262.75C219.771 261.082 218.414 259.73 216.741 259.73C215.068 259.73 213.711 261.082 213.711 262.75C213.711 264.418 215.068 265.77 216.741 265.77Z" fill="#2673E5"/>
<path d="M273.001 265.77C274.674 265.77 276.031 264.418 276.031 262.75C276.031 261.082 274.674 259.73 273.001 259.73C271.327 259.73 269.971 261.082 269.971 262.75C269.971 264.418 271.327 265.77 273.001 265.77Z" fill="#2673E5"/>
<path d="M245.042 265.77C246.715 265.77 248.072 264.418 248.072 262.75C248.072 261.082 246.715 259.73 245.042 259.73C243.368 259.73 242.012 261.082 242.012 262.75C242.012 264.418 243.368 265.77 245.042 265.77Z" fill="#2673E5"/>
<path opacity="0.3" d="M248.891 208.83H241.201V214.38H248.891V208.83Z" fill="black"/>
<path d="M275.421 157.91H250.381C246.301 157.91 242.891 161.01 242.511 165.06L240.401 187.63C239.921 192.77 235.721 196.78 230.551 197.04L206.381 198.26C203.441 198.41 201.141 200.83 201.141 203.76V204.27C201.141 206.79 203.191 208.83 205.721 208.83H279.331L283.291 166.52C283.721 161.9 280.081 157.91 275.421 157.91Z" fill="#2673E5"/>
<path opacity="0.3" d="M275.421 157.91H250.381C246.301 157.91 242.891 161.01 242.511 165.06L240.401 187.63C239.921 192.77 235.721 196.78 230.551 197.04L206.381 198.26C203.441 198.41 201.141 200.83 201.141 203.76V204.27C201.141 206.79 203.191 208.83 205.721 208.83H279.331L283.291 166.52C283.721 161.9 280.081 157.91 275.421 157.91Z" fill="white"/>
<path d="M217.941 183.37H221.391V201.29C221.391 202.24 220.621 203.01 219.671 203.01C218.721 203.01 217.951 202.24 217.951 201.29V183.37H217.941Z" fill="#1A2E35"/>
<path opacity="0.2" d="M217.941 183.37H221.391V201.29C221.391 202.24 220.621 203.01 219.671 203.01C218.721 203.01 217.951 202.24 217.951 201.29V183.37H217.941Z" fill="white"/>
<path d="M234.571 178.17H226.881V184.51H234.571C236.331 184.51 237.751 183.09 237.751 181.34C237.751 179.59 236.331 178.17 234.571 178.17Z" fill="#2673E5"/>
<path opacity="0.5" d="M234.571 178.17H226.881V184.51H234.571C236.331 184.51 237.751 183.09 237.751 181.34C237.751 179.59 236.331 178.17 234.571 178.17Z" fill="white"/>
<path d="M231.4 178.17H204.74C202.99 178.17 201.57 179.589 201.57 181.34C201.57 183.091 202.99 184.51 204.74 184.51H231.4C233.151 184.51 234.57 183.091 234.57 181.34C234.57 179.589 233.151 178.17 231.4 178.17Z" fill="#2673E5"/>
<path opacity="0.3" d="M231.4 178.17H204.74C202.99 178.17 201.57 179.589 201.57 181.34C201.57 183.091 202.99 184.51 204.74 184.51H231.4C233.151 184.51 234.57 183.091 234.57 181.34C234.57 179.589 233.151 178.17 231.4 178.17Z" fill="white"/>
<path d="M281.06 208.83H244.24L248.34 165.06C248.72 161.01 252.13 157.91 256.21 157.91H281.25C285.9 157.91 289.55 161.9 289.12 166.52L285.54 204.76C285.32 207.07 283.38 208.83 281.06 208.83Z" fill="#2673E5"/>
<path opacity="0.5" d="M281.06 208.83H244.24L248.34 165.06C248.72 161.01 252.13 157.91 256.21 157.91H281.25C285.9 157.91 289.55 161.9 289.12 166.52L285.54 204.76C285.32 207.07 283.38 208.83 281.06 208.83Z" fill="white"/>
<path d="M195.051 265.44H159.241C156.241 265.44 153.801 263.01 153.801 260.01V177.91C153.801 174.91 156.241 172.48 159.241 172.48H195.051C195.851 172.48 196.501 173.13 196.501 173.93C196.501 174.73 195.851 175.38 195.051 175.38H159.241C157.841 175.38 156.711 176.51 156.711 177.9V260C156.711 261.39 157.841 262.52 159.241 262.52H195.051C195.851 262.52 196.501 263.17 196.501 263.97C196.501 264.77 195.851 265.42 195.051 265.42V265.44Z" fill="#1A2E35"/>
<g opacity="0.5">
<path d="M195.051 265.44H159.241C156.241 265.44 153.801 263.01 153.801 260.01V177.91C153.801 174.91 156.241 172.48 159.241 172.48H195.051C195.851 172.48 196.501 173.13 196.501 173.93C196.501 174.73 195.851 175.38 195.051 175.38H159.241C157.841 175.38 156.711 176.51 156.711 177.9V260C156.711 261.39 157.841 262.52 159.241 262.52H195.051C195.851 262.52 196.501 263.17 196.501 263.97C196.501 264.77 195.851 265.42 195.051 265.42V265.44Z" fill="white"/>
</g>
<path d="M171.39 129.29L168.87 127.62C168.6 127.44 168.6 127.05 168.87 126.87L171.39 125.2C171.58 125.08 171.83 125.13 171.96 125.31C172.08 125.5 172.03 125.75 171.85 125.88L169.79 127.25L171.85 128.62C172.04 128.74 172.09 129 171.96 129.19C171.84 129.38 171.58 129.43 171.39 129.3V129.29Z" fill="white"/>
<path d="M176.901 129.17C176.781 128.98 176.831 128.73 177.011 128.6L179.071 127.23L177.011 125.86C176.821 125.74 176.771 125.48 176.901 125.29C177.021 125.1 177.281 125.05 177.471 125.18L179.991 126.85C180.261 127.03 180.261 127.42 179.991 127.6L177.471 129.27C177.281 129.39 177.031 129.34 176.901 129.16V129.17Z" fill="white"/>
<path d="M173.489 130.26C173.269 130.19 173.159 129.96 173.219 129.75L174.939 124.33C175.009 124.12 175.239 124 175.449 124.06C175.669 124.13 175.779 124.36 175.719 124.57L173.999 129.99C173.929 130.2 173.699 130.32 173.489 130.26Z" fill="white"/>
<path d="M187.6 134.44H169.1C168.86 134.44 168.67 134.25 168.67 134.01C168.67 133.77 168.86 133.58 169.1 133.58H187.6C187.84 133.58 188.03 133.77 188.03 134.01C188.03 134.25 187.84 134.44 187.6 134.44Z" fill="white"/>
<path d="M208.85 134.44H190.35C190.11 134.44 189.92 134.25 189.92 134.01C189.92 133.77 190.11 133.58 190.35 133.58H208.85C209.09 133.58 209.28 133.77 209.28 134.01C209.28 134.25 209.09 134.44 208.85 134.44Z" fill="white"/>
<path d="M179.67 138.24H169.1C168.86 138.24 168.67 138.05 168.67 137.81C168.67 137.57 168.86 137.38 169.1 137.38H179.67C179.91 137.38 180.1 137.57 180.1 137.81C180.1 138.05 179.91 138.24 179.67 138.24Z" fill="white"/>
<path d="M199.74 138.24H182.42C182.18 138.24 181.99 138.05 181.99 137.81C181.99 137.57 182.18 137.38 182.42 137.38H199.74C199.98 137.38 200.17 137.57 200.17 137.81C200.17 138.05 199.98 138.24 199.74 138.24Z" fill="white"/>
<path d="M197.28 142.03H169.1C168.86 142.03 168.67 141.84 168.67 141.6C168.67 141.36 168.86 141.17 169.1 141.17H197.28C197.52 141.17 197.71 141.36 197.71 141.6C197.71 141.84 197.52 142.03 197.28 142.03Z" fill="white"/>
<path d="M205.919 142.03H200.039C199.799 142.03 199.609 141.84 199.609 141.6C199.609 141.36 199.799 141.17 200.039 141.17H205.919C206.159 141.17 206.349 141.36 206.349 141.6C206.349 141.84 206.159 142.03 205.919 142.03Z" fill="white"/>
<path d="M182.25 145.83H169.09C168.85 145.83 168.66 145.64 168.66 145.4C168.66 145.16 168.85 144.97 169.09 144.97H182.25C182.49 144.97 182.68 145.16 182.68 145.4C182.68 145.64 182.49 145.83 182.25 145.83Z" fill="white"/>
<path d="M201.39 145.83H185.01C184.77 145.83 184.58 145.64 184.58 145.4C184.58 145.16 184.77 144.97 185.01 144.97H201.39C201.63 144.97 201.82 145.16 201.82 145.4C201.82 145.64 201.63 145.83 201.39 145.83Z" fill="white"/>
<path d="M187.6 149.63H169.1C168.86 149.63 168.67 149.44 168.67 149.2C168.67 148.96 168.86 148.77 169.1 148.77H187.6C187.84 148.77 188.03 148.96 188.03 149.2C188.03 149.44 187.84 149.63 187.6 149.63Z" fill="white"/>
<path d="M203.41 149.63H190.36C190.12 149.63 189.93 149.44 189.93 149.2C189.93 148.96 190.12 148.77 190.36 148.77H203.41C203.65 148.77 203.84 148.96 203.84 149.2C203.84 149.44 203.65 149.63 203.41 149.63Z" fill="white"/>
<path d="M61.8311 75.4497C62.1711 79.3497 61.3211 86.4197 58.3711 88.6797C63.1911 90.4097 68.2811 93.3997 71.5511 97.3297C74.7811 92.6397 71.1011 89.9697 71.1011 89.9697C66.9411 88.4897 67.3911 85.3597 68.4611 82.4597L61.8311 75.4497Z" fill="#CC7A63"/>
<path d="M77.5615 72.0897C77.5115 72.5797 77.7415 72.9997 78.0615 73.0297C78.3815 73.0597 78.6815 72.6797 78.7315 72.1997C78.7815 71.7097 78.5515 71.2797 78.2315 71.2497C77.9115 71.2197 77.6215 71.5997 77.5615 72.0897Z" fill="#1A2E35"/>
<path d="M78.0898 71.2598L79.2999 71.0298C79.2999 71.0298 78.6098 71.9198 78.0898 71.2598Z" fill="#1A2E35"/>
<path d="M77.7204 72.6099C78.0604 73.7699 78.5504 74.8799 79.1904 75.9099C78.6504 76.2299 77.9904 76.2899 77.4004 76.0799L77.7204 72.6099Z" fill="#B84D3C"/>
<path d="M78.9507 69.5099C79.0307 69.5099 79.1007 69.4599 79.1507 69.4099C79.2507 69.2899 79.2407 69.1099 79.1207 68.9999C78.4307 68.3699 77.4707 68.1199 76.5607 68.3199C76.4207 68.3999 76.3807 68.5799 76.4607 68.7199C76.5107 68.8099 76.6107 68.8599 76.7107 68.8599C77.4407 68.7199 78.1907 68.9299 78.7407 69.4299C78.8007 69.4899 78.8707 69.5199 78.9607 69.5199L78.9507 69.5099Z" fill="#1A2E35"/>
<path d="M61.4209 68.9797C61.2309 75.0397 61.0209 77.6197 63.7309 80.9997C67.8109 86.0797 75.1909 84.9697 77.1709 79.0697C78.9509 73.7597 78.9709 64.7197 73.3809 61.7797C67.7909 58.8397 61.6209 62.9097 61.4209 68.9897V68.9797Z" fill="#CC7A63"/>
<path d="M61.7114 80.4198C55.7314 79.3998 57.4514 75.6498 57.4514 75.6498C51.5614 74.4598 56.1114 71.5998 56.1114 71.5998C51.2114 69.4998 56.1114 67.6098 56.1114 67.6098C51.3914 63.7098 58.1514 62.3798 58.1514 62.3798C56.4814 56.2898 62.2814 58.7898 62.2814 58.7898C65.4414 53.5598 68.1614 58.5598 68.1614 58.5598C73.7014 51.0598 75.0414 57.3898 75.0414 57.3898C80.6914 55.9098 78.5214 61.8398 78.5214 61.8398C83.1814 63.0898 79.5214 65.4298 79.5214 65.4298C81.3114 67.6898 74.8214 68.0898 74.8214 68.0898C74.8214 68.0898 77.9114 73.0298 74.7914 74.4298L66.9314 80.4398C66.9314 80.4398 63.3214 78.9398 61.6914 80.4398L61.7114 80.4198Z" fill="#1A2E35"/>
<path d="M67.5801 75.5297C67.5801 75.5297 71.7001 65.6097 68.4901 57.0997L71.2301 56.1597C71.2301 56.1597 74.8101 68.4997 67.5801 75.5297Z" fill="#2673E5"/>
<path d="M71.7208 74.4397C72.4108 75.8597 72.6708 76.4797 73.6508 76.9597C74.5108 77.4397 75.6008 77.1397 76.0808 76.2797C76.3008 75.8897 76.3708 75.4297 76.2608 74.9897C76.0008 73.5597 74.9008 71.4697 73.3808 71.4197C71.8608 71.3797 71.0108 73.0297 71.7208 74.4397Z" fill="#CC7A63"/>
<path d="M67.431 95.1399C67.431 95.1399 73.051 99.2599 75.341 100.91L91.611 93.2499C91.571 91.4099 92.651 89.7299 94.361 89.0099L95.521 88.5199L97.971 87.4299C98.901 87.0199 99.981 87.1299 100.801 87.7299C101.771 88.4399 102.201 89.6799 101.861 90.8299C101.161 93.1999 99.271 95.0299 96.881 95.6599L94.511 96.2799C94.511 96.2799 80.551 106.85 75.581 107.12C70.611 107.4 63.291 102.49 63.291 102.49L67.431 95.1299V95.1399Z" fill="#CC7A63"/>
<path d="M53.9009 88.15C58.2009 88.13 63.0009 90.82 70.5609 95.71C70.5609 95.71 69.1309 101.07 64.7309 104.9C64.7309 104.9 60.5809 103.79 55.0609 98.6C48.3809 92.33 51.2609 88.16 53.9009 88.15Z" fill="#1A2E35"/>
<path d="M135.5 100.56H94.7904C93.3104 100.56 92.2204 99.3698 92.3504 97.8898L95.4204 62.9298C95.5504 61.4598 96.8504 60.2598 98.3304 60.2598H139.04C140.52 60.2598 141.61 61.4498 141.48 62.9298L138.41 97.8898C138.28 99.3598 136.98 100.56 135.5 100.56Z" fill="#2673E5"/>
<path opacity="0.4" d="M135.5 100.56H94.7904C93.3104 100.56 92.2204 99.3698 92.3504 97.8898L95.4204 62.9298C95.5504 61.4598 96.8504 60.2598 98.3304 60.2598H139.04C140.52 60.2598 141.61 61.4498 141.48 62.9298L138.41 97.8898C138.28 99.3598 136.98 100.56 135.5 100.56Z" fill="white"/>
<path opacity="0.7" d="M135.64 98.9097C136.2 98.9097 136.69 98.4597 136.74 97.8997L139.81 62.9397C139.86 62.3797 139.44 61.9297 138.89 61.9297H98.1799C97.6199 61.9297 97.1299 62.3797 97.0799 62.9397L94.0099 97.8997C93.9599 98.4597 94.3799 98.9097 94.9299 98.9097H135.64Z" fill="white"/>
<path d="M107.35 78.3496L94.0399 97.5496L94.0099 97.8996C93.9599 98.4596 94.3799 98.9096 94.9299 98.9096H117.99L107.34 78.3496H107.35Z" fill="#2673E5"/>
<path opacity="0.3" d="M107.35 78.3496L94.0399 97.5496L94.0099 97.8996C93.9599 98.4596 94.3799 98.9096 94.9299 98.9096H117.99L107.34 78.3496H107.35Z" fill="white"/>
<path d="M136.861 96.5597L125.711 75.4497L109.211 98.9097H135.641C136.201 98.9097 136.691 98.4597 136.741 97.8997L136.861 96.5597Z" fill="#2673E5"/>
<path d="M121.42 71.7197C121.24 73.7797 119.42 75.4497 117.35 75.4497C115.28 75.4497 113.76 73.7797 113.94 71.7197C114.12 69.6597 115.94 67.9897 118.01 67.9897C120.08 67.9897 121.6 69.6597 121.42 71.7197Z" fill="#2673E5"/>
<path opacity="0.4" d="M121.42 71.7197C121.24 73.7797 119.42 75.4497 117.35 75.4497C115.28 75.4497 113.76 73.7797 113.94 71.7197C114.12 69.6597 115.94 67.9897 118.01 67.9897C120.08 67.9897 121.6 69.6597 121.42 71.7197Z" fill="white"/>
<path d="M19.8099 241.64L15.6699 253.88L22.0099 256.46L26.9699 245.17L19.8099 241.64Z" fill="#CC7A63"/>
<path d="M24.2914 256.15C24.2214 256.11 24.1914 256.04 24.1914 255.97C24.1914 255.89 24.2514 255.83 24.3314 255.82C24.4614 255.79 27.4614 255.12 28.5714 255.83C28.7814 255.96 28.9314 256.16 28.9914 256.4C29.0814 256.67 28.9914 256.97 28.7714 257.15C28.3514 257.45 27.3614 257.32 26.4514 257.04C25.7014 256.81 24.9814 256.51 24.2814 256.15H24.2914ZM24.9214 256.09C26.2314 256.68 28.0714 257.23 28.5514 256.86C28.6214 256.82 28.6914 256.73 28.6314 256.47C28.6014 256.32 28.5014 256.19 28.3714 256.12C28.2714 256.06 28.1714 256.01 28.0514 255.98C27.0114 255.82 25.9414 255.85 24.9114 256.09H24.9214Z" fill="#2673E5"/>
<path d="M24.2002 256.11C24.1602 256.06 24.1502 255.99 24.1702 255.93C24.2102 255.84 25.0102 253.94 26.1802 253.46C26.5202 253.32 26.9002 253.32 27.2302 253.46C27.6902 253.65 27.7702 253.94 27.7202 254.14C27.6202 255.01 25.3802 256.04 24.3902 256.16C24.3602 256.16 24.3402 256.16 24.3202 256.14C24.2802 256.14 24.2402 256.12 24.2002 256.1V256.11ZM27.0102 253.76C26.7902 253.69 26.5602 253.7 26.3502 253.79C25.6102 254.25 25.0302 254.92 24.6902 255.72C25.7602 255.47 27.2902 254.58 27.4002 254.08C27.4002 254.03 27.4202 253.9 27.1202 253.78L27.0202 253.76H27.0102Z" fill="#2673E5"/>
<path d="M23.8608 254.9L15.9008 252.45C15.6008 252.36 15.2808 252.48 15.1208 252.76L11.6808 258.78C11.3708 259.31 11.5508 259.99 12.0908 260.3C12.1608 260.34 12.2308 260.37 12.3108 260.4C15.2008 261.23 17.8008 261.86 21.3708 262.97C25.5908 264.27 24.3608 264.44 29.3008 266.04C32.2808 267 33.8708 263.78 32.6608 263.22C27.0908 260.71 27.0308 258.78 25.4308 256.02C25.0708 255.47 24.5108 255.08 23.8808 254.91L23.8608 254.9Z" fill="#1A2E35"/>
<path opacity="0.2" d="M17.8203 247.51L24.4703 250.86L26.9703 245.17L19.8103 241.64L17.8203 247.51Z" fill="#1A2E35"/>
<path d="M47.9101 128.51C47.9101 128.51 38.9801 135.32 40.8901 156.63C41.0701 158.6 41.7101 160.67 41.7201 162.92C41.7201 164.42 41.3101 165.47 40.8201 168.84C40.1001 173.75 38.7901 192.04 37.4101 194.42C36.0401 196.77 35.4601 196.38 31.5601 202.94C27.3701 210 22.0101 222.38 17.8301 243.37C17.8301 243.37 21.4601 246.2 27.1601 247.27C27.1601 247.27 49.9901 211.37 54.8401 198.01C59.1801 186.05 64.3601 147.89 64.3601 147.89L64.7801 131.34L47.9201 128.51H47.9101Z" fill="#2673E5"/>
<path opacity="0.1" d="M57.6912 156.63H51.2212C51.2212 156.63 49.0912 176.91 56.1212 193.84C56.8512 191.12 57.6012 187.86 58.3212 184.35L61.1212 166.48C60.7212 163.46 60.4112 161.16 60.3712 161.01C60.2312 160.54 57.7012 156.64 57.7012 156.64L57.6912 156.63Z" fill="black"/>
<path d="M56.6211 246.57L56.6611 259.57L64.0211 259.08L65.1411 246.57H56.6211Z" fill="#CC7A63"/>
<path d="M64.8603 258.86C64.7903 258.85 64.7303 258.79 64.7103 258.72C64.6903 258.65 64.7303 258.57 64.7903 258.53C64.9003 258.46 67.5103 256.85 68.8003 257.15C69.0403 257.2 69.2503 257.35 69.3803 257.55C69.5603 257.78 69.5803 258.09 69.4203 258.33C69.1203 258.75 68.1503 258.96 67.2003 258.99C66.4203 259.01 65.6303 258.97 64.8603 258.86ZM65.4403 258.6C66.8703 258.72 68.7903 258.64 69.1303 258.14C69.1803 258.08 69.2203 257.97 69.0803 257.75C69.0003 257.62 68.8703 257.53 68.7203 257.51C68.6103 257.48 68.4903 257.47 68.3703 257.48C67.3303 257.67 66.3403 258.05 65.4403 258.61V258.6Z" fill="#2673E5"/>
<path d="M64.7697 258.85C64.7097 258.82 64.6797 258.76 64.6797 258.69C64.6797 258.59 64.8197 256.53 65.7597 255.7C66.0297 255.46 66.3897 255.33 66.7597 255.36C67.2597 255.39 67.4197 255.64 67.4497 255.84C67.6397 256.69 65.8697 258.41 64.9697 258.84C64.9497 258.85 64.9197 258.86 64.8897 258.84C64.8497 258.85 64.8097 258.85 64.7697 258.84V258.85ZM66.6497 255.71C66.4197 255.71 66.1997 255.8 66.0297 255.96C65.4797 256.64 65.1597 257.46 65.0997 258.33C66.0297 257.74 67.1797 256.4 67.1197 255.89C67.0997 255.84 67.0797 255.71 66.7497 255.7H66.6497V255.71Z" fill="#2673E5"/>
<path d="M64.0501 257.82L55.7201 258.12C55.4101 258.13 55.1401 258.36 55.0801 258.67L53.8201 265.48C53.7001 266.08 54.1001 266.67 54.7001 266.78C54.7801 266.79 54.8601 266.8 54.9401 266.8C57.9401 266.64 60.6001 266.38 64.3401 266.25C68.7501 266.09 67.6501 266.66 72.8401 266.55C75.9701 266.48 76.4101 262.92 75.0801 262.79C68.9901 262.24 68.2901 260.44 65.8801 258.36C65.3601 257.96 64.7001 257.77 64.0501 257.82Z" fill="#1A2E35"/>
<path opacity="0.2" d="M56.6411 253.29L64.5511 253.13L65.1411 246.57H56.6211L56.6411 253.29Z" fill="#1A2E35"/>
<path d="M52.8911 126.13C52.8911 126.13 43.9811 137.9 50.5811 160.96L58.0311 194.59C58.0311 194.59 50.9411 209.89 54.6811 250.25C54.6811 250.25 60.3111 251.15 65.6911 250C65.6911 250 73.9911 207.38 75.2511 192.98C76.6411 177.12 75.8111 129.32 75.8111 129.32L52.8911 126.13Z" fill="#2673E5"/>
<path d="M58.2713 87.9798C58.2713 87.9798 56.8913 82.0898 65.7413 84.6698C74.5913 87.2498 73.8613 92.2698 73.8613 92.2698L58.2713 87.9798Z" fill="#1A2E35"/>
<path opacity="0.4" d="M58.2713 87.9798C58.2713 87.9798 56.8913 82.0898 65.7413 84.6698C74.5913 87.2498 73.8613 92.2698 73.8613 92.2698L58.2713 87.9798Z" fill="black"/>
<path d="M80.2414 102.7C80.2414 104.76 79.3714 107.75 78.5914 111.09C78.2114 112.67 77.8614 114.32 77.6314 116C76.3814 125.12 75.9714 134.72 75.9714 134.72C75.9714 134.72 61.5014 138.77 47.4414 129.08C47.4414 129.08 50.9214 126.14 50.2114 105.76C49.8914 96.5796 46.5614 85.6596 61.7814 87.3796C74.6314 88.8296 78.9514 92.8096 79.9914 99.0296C79.9914 99.0996 80.0114 99.1896 80.0314 99.2696C80.0514 99.4596 80.0814 99.6496 80.1014 99.8496C80.2114 100.75 80.2614 101.71 80.2614 102.71L80.2414 102.7Z" fill="#1A2E35"/>
<path opacity="0.4" d="M80.2406 102.7C80.2406 104.76 79.3706 107.75 78.5906 111.09C75.1206 106.92 71.6406 99.1197 71.6406 99.1197L74.5106 94.9097L79.5606 97.2597C79.7306 97.8297 79.8706 98.4197 79.9806 99.0297C79.9806 99.0997 80.0006 99.1897 80.0206 99.2697C80.0406 99.4597 80.0706 99.6497 80.0906 99.8497C80.2006 100.75 80.2506 101.71 80.2506 102.71L80.2406 102.7Z" fill="black"/>
<path d="M85.4908 99.0999C85.4908 99.0999 90.4308 104.01 92.4508 105.98L109.691 100.83C109.921 99 111.251 97.5 113.041 97.05L114.261 96.7399L116.851 96.0299C117.831 95.7599 118.881 96.0299 119.611 96.7499C120.471 97.5899 120.701 98.88 120.191 99.97C119.151 102.21 117.001 103.74 114.541 104L112.101 104.26C112.101 104.26 96.7108 112.63 91.7608 112.17C86.8108 111.71 80.3008 105.77 80.3008 105.77L85.4908 99.1099V99.0999Z" fill="#CC7A63"/>
<path d="M73.1507 90.1798C77.4007 90.7998 81.7506 94.1697 88.4906 100.13C88.4906 100.13 86.2807 105.22 81.3607 108.35C81.3607 108.35 77.4206 106.63 72.7406 100.69C67.0706 93.4998 70.5407 89.8098 73.1507 90.1898V90.1798Z" fill="#1A2E35"/>
</g>
<defs>
<clipPath id="clip0_2326_15958">
<rect width="296" height="280" fill="white"/>
</clipPath>
</defs>
</svg>
