<svg width="118" height="84" viewBox="0 0 118 84" fill="none" xmlns="http://www.w3.org/2000/svg">
<rect x="42.3105" y="0.000488281" width="59.2131" height="59.2131" rx="5" transform="rotate(45 42.3105 0.000488281)" fill="#2673E5" fill-opacity="0.1"/>
<g clip-path="url(#clip0_1503_27156)">
<path d="M111.372 40.98H94.5916C93.5616 40.98 92.5816 41.39 91.8516 42.11C91.1216 42.83 90.7116 43.81 90.7016 44.84V63.48C89.9116 63.74 89.2916 64.36 89.0416 65.14H74.2316C73.6716 65.14 73.1316 64.91 72.7316 64.52C72.3316 64.13 72.1116 63.58 72.1116 63.02V58.74H83.7516C84.7816 58.74 85.7616 58.33 86.4916 57.6C87.2216 56.87 87.6316 55.89 87.6316 54.86V22.91C87.6216 21.88 87.2016 20.9 86.4716 20.18C85.7416 19.46 84.7516 19.06 83.7216 19.06H77.8316C77.5816 18.27 76.9616 17.65 76.1716 17.4V16.66C76.1716 15.73 75.8016 14.85 75.1416 14.19C74.4816 13.54 73.5916 13.17 72.6716 13.17H59.9816V7.88C59.9816 6.85 59.5716 5.86 58.8416 5.14C58.1116 4.41 57.1316 4 56.1016 4H39.3216C38.2916 4 37.3116 4.41 36.5816 5.14C35.8516 5.87 35.4416 6.85 35.4416 7.88V39.85C35.4416 40.88 35.8516 41.87 36.5816 42.59C37.3116 43.32 38.2916 43.73 39.3216 43.73H46.8816V62.85C46.1116 63.12 45.5016 63.73 45.2616 64.51H38.9216C38.0016 64.51 37.1316 64.87 36.4716 65.52C35.8216 66.16 35.4516 67.04 35.4316 67.95V74.19C35.4316 75.11 35.8016 76 36.4516 76.65C37.1016 77.3 37.9916 77.67 38.9116 77.67H56.5116C57.4316 77.67 58.3216 77.3 58.9716 76.65C59.6216 76 59.9916 75.11 59.9916 74.19V67.95C59.9916 67.03 59.6216 66.14 58.9716 65.49C58.3216 64.84 57.4316 64.47 56.5116 64.47H50.1816C49.9316 63.68 49.3116 63.06 48.5216 62.81V43.69H56.0816C57.1116 43.69 58.1016 43.3 58.8316 42.58C59.5616 41.86 59.9816 40.88 59.9916 39.85V14.91H72.6816C73.6716 14.91 74.4816 15.69 74.5216 16.67V17.4C73.7416 17.65 73.1216 18.25 72.8616 19.02H66.9716C65.9416 19.02 64.9516 19.43 64.2316 20.16C63.5016 20.89 63.0916 21.87 63.0916 22.9V54.85C63.0916 55.88 63.5016 56.87 64.2316 57.59C64.9616 58.32 65.9416 58.73 66.9716 58.73H70.4716V62.98C70.4716 63.98 70.8716 64.95 71.5816 65.65C72.2916 66.36 73.2516 66.76 74.2616 66.76H89.1016C89.3616 67.55 89.9716 68.17 90.7616 68.42V76.79C90.7616 77.82 91.1716 78.81 91.9016 79.53C92.6316 80.26 93.6116 80.67 94.6416 80.67H111.382C112.412 80.67 113.402 80.26 114.122 79.53C114.852 78.8 115.262 77.82 115.262 76.79V44.82C115.262 43.8 114.842 42.82 114.112 42.09C113.382 41.37 112.402 40.96 111.382 40.96L111.372 40.98ZM48.5416 64.87C48.7416 65.24 48.6616 65.7 48.3616 65.99C48.0516 66.28 47.5916 66.33 47.2316 66.11C46.8716 65.89 46.7016 65.46 46.8116 65.05C46.9216 64.64 47.2916 64.36 47.7116 64.36C48.0616 64.36 48.3816 64.55 48.5416 64.86V64.87ZM58.3216 67.95V74.19C58.3216 75.19 57.5116 76.01 56.5116 76.01H38.9216C37.9116 76.01 37.1016 75.19 37.1016 74.19V67.95C37.1016 66.95 37.9216 66.13 38.9216 66.13H45.2516C45.4816 66.82 46.0016 67.38 46.6616 67.67C47.3316 67.96 48.0816 67.96 48.7516 67.67C49.4216 67.38 49.9316 66.82 50.1616 66.13H56.4916C57.4916 66.13 58.3016 66.95 58.3016 67.95H58.3216ZM39.3216 42.04C38.7416 42.04 38.1816 41.81 37.7616 41.4C37.3516 40.99 37.1116 40.43 37.1016 39.85V38.7H46.8816V42.03L39.3216 42.05V42.04ZM58.3216 39.85C58.3216 40.44 58.0916 41 57.6716 41.42C57.2516 41.84 56.6916 42.07 56.1016 42.07H48.5416V38.74H58.3216V39.85ZM58.3216 37.06H48.5416V31.95H53.9416C54.4916 31.95 55.0216 31.73 55.4016 31.34C55.7916 30.95 56.0116 30.42 56.0116 29.87V23.63C56.0116 23.08 55.7916 22.56 55.4016 22.17C55.0116 21.78 54.4916 21.56 53.9416 21.56H41.4716C40.9216 21.56 40.4016 21.78 40.0116 22.17C39.6216 22.56 39.4016 23.08 39.4016 23.63V29.87C39.4016 30.42 39.6216 30.95 40.0116 31.34C40.4016 31.73 40.9216 31.95 41.4716 31.95H46.8716V37.04H37.1016V7.88C37.1016 7.29 37.3416 6.73 37.7516 6.31C38.1616 5.89 38.7316 5.66 39.3216 5.66H56.1016C56.6916 5.66 57.2516 5.89 57.6716 6.31C58.0916 6.73 58.3216 7.29 58.3216 7.88V13.18H56.0216V10.88C56.0216 10.33 55.8016 9.81 55.4116 9.42C55.0216 9.03 54.5016 8.82 53.9516 8.82H41.4716C40.9216 8.82 40.4016 9.04 40.0116 9.42C39.6216 9.81 39.4016 10.33 39.4016 10.88V17.14C39.4016 17.69 39.6216 18.21 40.0116 18.6C40.4016 18.99 40.9216 19.21 41.4716 19.21H53.9416C54.4916 19.21 55.0116 18.99 55.4016 18.6C55.7916 18.21 56.0116 17.69 56.0116 17.14V14.85H58.3116V37.07L58.3216 37.06ZM41.4816 30.29C41.3716 30.29 41.2716 30.25 41.1916 30.17C41.1116 30.09 41.0716 29.99 41.0716 29.88V23.64C41.0716 23.42 41.2516 23.23 41.4816 23.23H53.9516C54.1716 23.23 54.3616 23.41 54.3616 23.64V29.88C54.3616 29.99 54.3216 30.09 54.2416 30.17C54.1616 30.25 54.0616 30.29 53.9516 30.29H41.4816ZM54.3616 17.15C54.3616 17.26 54.3216 17.36 54.2416 17.44C54.1616 17.52 54.0616 17.56 53.9516 17.56H41.4816C41.2516 17.56 41.0716 17.38 41.0716 17.15V10.88C41.0716 10.66 41.2616 10.48 41.4816 10.48H53.9516C54.1716 10.48 54.3516 10.66 54.3616 10.88V17.14V17.15ZM85.9516 54.87C85.9516 55.46 85.7116 56.02 85.3016 56.44C84.8916 56.86 84.3216 57.09 83.7316 57.09H72.0916V53.76H85.9616V54.87H85.9516ZM75.7716 20.74C75.4316 20.91 75.0316 20.87 74.7416 20.63C74.4516 20.39 74.3416 19.99 74.4516 19.63C74.5716 19.27 74.8916 19.02 75.2616 18.99C75.6416 18.96 75.9916 19.16 76.1616 19.5C76.3916 19.95 76.2116 20.51 75.7616 20.75L75.7716 20.74ZM66.9516 20.74H72.8916C73.1116 21.45 73.6216 22.04 74.3016 22.34C74.9816 22.65 75.7516 22.65 76.4316 22.34C77.1116 22.03 77.6216 21.45 77.8416 20.74H83.7816C84.3716 20.74 84.9316 20.98 85.3516 21.39C85.7716 21.81 86.0016 22.37 86.0016 22.96V52.08H72.1216V47.69H73.1016C73.5116 47.69 73.9116 47.53 74.2016 47.23C74.4916 46.94 74.6616 46.54 74.6616 46.13V43.64C74.6616 42.78 73.9616 42.09 73.1116 42.09H69.8416C68.9816 42.09 68.2916 42.79 68.2916 43.64V46.13C68.2916 46.99 68.9916 47.68 69.8416 47.68H70.4616V52.07H64.7416V22.92C64.7516 22.34 64.9916 21.78 65.4016 21.37C65.8116 20.96 66.3716 20.73 66.9616 20.73L66.9516 20.74ZM69.9316 46.03V43.72H72.9816V46.03H69.9316ZM66.9516 57.09C66.3616 57.09 65.8016 56.85 65.3816 56.44C64.9616 56.03 64.7316 55.46 64.7316 54.87V53.75H70.4516V57.08L66.9516 57.1V57.09ZM92.3616 44.85C92.3616 44.26 92.5916 43.7 93.0116 43.28C93.4316 42.86 93.9916 42.63 94.5816 42.63H111.362C111.952 42.63 112.512 42.87 112.932 43.28C113.352 43.7 113.582 44.26 113.582 44.85V74.03H92.3616V68.4C93.0516 68.17 93.6116 67.65 93.9016 66.99C94.1916 66.32 94.1916 65.57 93.9016 64.9C93.6116 64.23 93.0516 63.72 92.3616 63.49V44.85ZM90.7016 66.36C90.5616 66.1 90.5516 65.8 90.6616 65.53C90.7816 65.26 91.0116 65.07 91.3016 65C91.5816 64.93 91.8816 65 92.1116 65.18C92.3416 65.36 92.4716 65.64 92.4616 65.93C92.4616 66.36 92.1716 66.74 91.7616 66.84C91.3416 66.95 90.9116 66.76 90.7016 66.38V66.36ZM113.582 76.82C113.582 77.41 113.342 77.97 112.932 78.39C112.512 78.81 111.952 79.04 111.362 79.04H94.5816C93.9916 79.04 93.4316 78.81 93.0116 78.39C92.5916 77.97 92.3616 77.41 92.3616 76.82V75.7H113.582V76.82Z" fill="#2673E5" stroke="#2673E5" stroke-width="0.5"/>
<path d="M96.7419 71.13H109.212C109.762 71.13 110.282 70.91 110.672 70.53C111.062 70.14 111.282 69.62 111.282 69.07V62.81C111.282 62.26 111.062 61.74 110.672 61.35C110.282 60.96 109.762 60.74 109.212 60.74H96.7419C96.1919 60.74 95.6719 60.96 95.2819 61.35C94.8919 61.74 94.6719 62.26 94.6719 62.81V69.07C94.6719 69.62 94.8919 70.14 95.2819 70.53C95.6719 70.92 96.1919 71.13 96.7419 71.13ZM96.3319 62.82C96.3319 62.6 96.5119 62.41 96.7419 62.41H109.212C109.442 62.41 109.622 62.59 109.622 62.82V69.08C109.622 69.19 109.582 69.29 109.502 69.37C109.422 69.45 109.322 69.49 109.212 69.48H96.7419C96.6319 69.48 96.5319 69.44 96.4519 69.37C96.3719 69.29 96.3319 69.19 96.3319 69.08V62.82Z" fill="#2673E5" stroke="#2673E5" stroke-width="0.5"/>
<path d="M96.7419 58.1399H100.712C101.262 58.1399 101.802 57.92 102.192 57.52C102.582 57.12 102.792 56.5899 102.782 56.0299V49.77C102.782 49.22 102.562 48.7 102.172 48.31C101.782 47.92 101.262 47.7 100.712 47.7H96.7419C96.1919 47.7 95.6719 47.92 95.2819 48.31C94.8919 48.7 94.6719 49.22 94.6719 49.77V56.0299C94.6719 56.5899 94.8819 57.12 95.2619 57.52C95.6519 57.92 96.1819 58.1399 96.7419 58.1399ZM96.3319 49.83C96.3319 49.61 96.5119 49.4199 96.7419 49.4199H100.712C100.932 49.4199 101.122 49.6 101.122 49.83V56.09C101.122 56.2 101.082 56.3 101.002 56.38C100.922 56.46 100.822 56.5 100.712 56.49H96.7419C96.6319 56.49 96.5319 56.45 96.4519 56.38C96.3719 56.3 96.3319 56.2 96.3319 56.09V49.83Z" fill="#2673E5" stroke="#2673E5" stroke-width="0.5"/>
<path d="M69.1112 26.55H81.5812C82.0412 26.55 82.4113 26.18 82.4113 25.72C82.4113 25.26 82.0412 24.89 81.5812 24.89H69.1112C68.6512 24.89 68.2812 25.26 68.2812 25.72C68.2812 26.18 68.6512 26.55 69.1112 26.55Z" fill="#2673E5" stroke="#2673E5" stroke-width="0.5"/>
<path d="M69.1112 30.5999H81.5812C82.0412 30.5999 82.4113 30.2299 82.4113 29.7699C82.4113 29.3099 82.0412 28.9399 81.5812 28.9399H69.1112C68.6512 28.9399 68.2812 29.3099 68.2812 29.7699C68.2812 30.2299 68.6512 30.5999 69.1112 30.5999Z" fill="#2673E5" stroke="#2673E5" stroke-width="0.5"/>
<path d="M69.1112 34.65H81.5812C82.0412 34.65 82.4113 34.28 82.4113 33.82C82.4113 33.36 82.0412 32.99 81.5812 32.99H69.1112C68.6512 32.99 68.2812 33.36 68.2812 33.82C68.2812 34.28 68.6512 34.65 69.1112 34.65Z" fill="#2673E5" stroke="#2673E5" stroke-width="0.5"/>
<path d="M69.1112 38.7H73.4712C73.9312 38.7 74.3013 38.33 74.3013 37.87C74.3013 37.41 73.9312 37.04 73.4712 37.04H69.1112C68.6512 37.04 68.2812 37.41 68.2812 37.87C68.2812 38.33 68.6512 38.7 69.1112 38.7Z" fill="#2673E5" stroke="#2673E5" stroke-width="0.5"/>
<path d="M80.861 42.04H77.591C76.731 42.04 76.041 42.74 76.041 43.59V46.08C76.041 46.94 76.741 47.63 77.591 47.63H80.861C81.271 47.63 81.671 47.47 81.961 47.18C82.251 46.89 82.421 46.49 82.421 46.08V43.59C82.421 42.73 81.721 42.04 80.871 42.04H80.861ZM80.751 46.01H77.701V43.7H80.751V46.01Z" fill="#2673E5" stroke="#2673E5" stroke-width="0.5"/>
<path d="M40.2812 69.0101C40.2812 69.2301 40.3712 69.4401 40.5212 69.6001C40.6712 69.7601 40.8912 69.84 41.1112 69.84H54.3212C54.7812 69.84 55.1512 69.4701 55.1512 69.0101C55.1512 68.5501 54.7812 68.1801 54.3212 68.1801H41.1112C40.6512 68.1801 40.2812 68.5501 40.2812 69.0101Z" fill="#2673E5" stroke="#2673E5" stroke-width="0.5"/>
<path d="M54.3212 72.27H41.1112C40.6512 72.27 40.2812 72.64 40.2812 73.1C40.2812 73.56 40.6512 73.93 41.1112 73.93H54.3212C54.7812 73.93 55.1512 73.56 55.1512 73.1C55.1512 72.64 54.7812 72.27 54.3212 72.27Z" fill="#2673E5" stroke="#2673E5" stroke-width="0.5"/>
</g>
<defs>
<clipPath id="clip0_1503_27156">
<rect width="84" height="84" fill="white" transform="matrix(-1 -8.74228e-08 -8.74228e-08 1 117.557 0)"/>
</clipPath>
</defs>
</svg>
