<svg width="17" height="16" viewBox="0 0 17 16" fill="none" xmlns="http://www.w3.org/2000/svg">
<path d="M15.1382 15.7228C15.7095 15.7228 16.1727 15.2597 16.1727 14.6884C16.1727 14.1171 15.7095 13.6539 15.1382 13.6539C14.5669 13.6539 14.1038 14.1171 14.1038 14.6884C14.1038 15.2597 14.5669 15.7228 15.1382 15.7228Z" fill="white"/>
<path d="M12.9751 1.38852C11.3355 0.272485 9.42021 -0.132267 7.59526 0.104564C7.41863 0.125158 7.2412 0.152089 7.06378 0.185356C2.85229 0.986148 0.0776375 5.04555 0.865756 9.25704C1.66259 13.4764 5.72991 16.2503 9.94061 15.4543C10.3976 15.3671 10.8341 15.2388 11.2491 15.0764C12.7248 14.5505 14.0531 13.5794 15.0067 12.1854C17.4273 8.63922 16.5164 3.80991 12.9751 1.38932V1.38852ZM9.04952 12.7121C9.04952 12.7121 9.04556 12.7129 9.04397 12.7145C9.0313 12.7256 9.01704 12.7343 9.00041 12.7359C8.00873 12.8254 7.04873 12.6044 6.22576 12.1465C6.22417 12.1458 6.22259 12.1442 6.22021 12.1434C6.09586 12.0586 5.9913 11.9984 5.92556 11.9612C5.92081 11.9588 5.91605 11.9564 5.9113 11.9541C5.90813 11.9525 5.90496 11.9509 5.9018 11.9485C4.85704 11.2547 4.08318 10.156 3.83289 8.82456C3.33625 6.2107 5.06457 3.68635 7.67447 3.19367C7.81784 3.16674 7.96041 3.14615 8.10219 3.13268C8.10219 3.13268 8.10298 3.13268 8.10378 3.13268C8.11962 3.1311 8.13546 3.12951 8.15051 3.12872C8.15922 3.12872 8.16793 3.12714 8.17665 3.12635C8.18298 3.12635 8.18932 3.12555 8.19566 3.12476C9.2515 3.04318 10.3398 3.30694 11.2792 3.94773C12.9568 5.09387 13.6856 7.1113 13.2713 8.97981C13.1018 9.71486 12.7596 10.396 12.2875 10.9751L12.297 10.983C11.4662 11.9992 10.286 12.5822 9.04873 12.7105L9.04952 12.7121ZM12.8602 13.5184C12.2891 13.5184 11.8258 13.0551 11.8258 12.484C11.8258 11.9129 12.2891 11.4495 12.8602 11.4495C13.4313 11.4495 13.8947 11.9129 13.8947 12.484C13.8947 13.0551 13.4313 13.5184 12.8602 13.5184Z" fill="white"/>
</svg>
