<svg width="32" height="25" viewBox="0 0 32 25" fill="none" xmlns="http://www.w3.org/2000/svg">
<path d="M0.703125 24.6875V17.7031C0.703125 15.6719 1.09375 13.5781 1.875 11.4219C2.65625 9.26562 3.6875 7.23438 4.96875 5.32812C6.25 3.39063 7.65625 1.75 9.1875 0.40625L15.4688 4.0625C14.3438 5.9375 13.375 7.95312 12.5625 10.1094C11.75 12.2656 11.3438 14.7969 11.3438 17.7031V24.6875H0.703125ZM16.6406 24.6875V17.7031C16.6406 15.6719 17.0312 13.5781 17.8125 11.4219C18.5938 9.26562 19.625 7.23438 20.9062 5.32812C22.1875 3.39063 23.5938 1.75 25.125 0.40625L31.4062 4.0625C30.2812 5.9375 29.3125 7.95312 28.5 10.1094C27.6875 12.2656 27.2812 14.7969 27.2812 17.7031V24.6875H16.6406Z" fill="#2673E5"/>
</svg>
