<svg width="32" height="32" viewBox="0 0 32 32" fill="none" xmlns="http://www.w3.org/2000/svg">
<g clip-path="url(#clip0_1213_29660)">
<path d="M26.4989 24.901H5.99535C4.34814 24.901 3.00781 23.5266 3.00781 21.8361V3.3482C3.00781 1.65771 4.34814 0.283279 5.99535 0.283279H26.4989C28.1461 0.283279 29.4865 1.65771 29.4865 3.3482V21.8361C29.4865 23.5252 28.1461 24.901 26.4989 24.901ZM5.99535 0.742296C4.60126 0.742296 3.46683 1.91082 3.46683 3.3482V21.8361C3.46683 23.2721 4.60126 24.4407 5.99535 24.4407H26.4989C27.893 24.4407 29.0275 23.2721 29.0275 21.8361V3.3482C29.0275 1.91213 27.893 0.742296 26.4989 0.742296H5.99535Z" fill="black"/>
<path d="M26.499 25.1843H5.99543C4.19215 25.1843 2.72461 23.6826 2.72461 21.8361V3.3482C2.72461 1.50164 4.19215 0 5.99543 0H26.499C28.3023 0 29.7699 1.50164 29.7699 3.3482V21.8361C29.7699 23.6826 28.3023 25.1843 26.499 25.1843ZM5.99543 1.02557C4.7574 1.02557 3.75018 2.06689 3.75018 3.3482V21.8361C3.75018 23.1161 4.7574 24.1574 5.99543 24.1574H26.499C27.7371 24.1574 28.7443 23.1161 28.7443 21.8361V3.3482C28.7443 2.0682 27.7371 1.02557 26.499 1.02557H5.99543Z" fill="black"/>
<path d="M2 28.3029V30.7685C2 31.4492 2.5718 32.0013 3.27738 32.0013H29.4702C30.1757 32.0013 30.7475 31.4492 30.7475 30.7685V28.3029H2ZM18.4826 30.2754C18.4826 30.5482 18.2544 30.7685 17.9711 30.7685H14.7764C14.4944 30.7685 14.2649 30.5482 14.2649 30.2754V30.1521C14.2649 29.8793 14.4931 29.659 14.7764 29.659H17.9711C18.2531 29.659 18.4826 29.8793 18.4826 30.1521V30.2754Z" fill="black"/>
<path d="M12.4701 15.2459L9.92578 12.6518L10.0898 12.4735L12.4701 10.0472L12.8242 10.3935L10.613 12.6466L12.8229 14.8997L12.4701 15.2459Z" fill="black"/>
<path d="M12.4676 15.4623L9.71484 12.6544L9.97845 12.3698L12.4689 9.83083L13.0394 10.3908L10.8269 12.6466L13.0394 14.9023L12.4689 15.4623H12.4676ZM10.1358 12.6492L12.4715 15.0308L12.6066 14.8984L10.3981 12.6466L12.6066 10.3948L12.4715 10.2623L10.1345 12.6492H10.1358Z" fill="black"/>
<path d="M18.0238 9.14129L14.2695 15.796L14.7001 16.0389L18.4544 9.38424L18.0238 9.14129Z" fill="black"/>
<path d="M14.7589 16.2492L14.0625 15.8557L17.9681 8.93509L18.6645 9.32853L14.7589 16.2492ZM14.4783 15.7403L14.6435 15.8335L18.2488 9.44394L18.0835 9.35083L14.4783 15.7403Z" fill="black"/>
<path d="M20.0162 15.2656L19.6621 14.9194L21.8719 12.6662L19.6621 10.4118L20.0149 10.0656L22.567 12.6675L22.3939 12.8407L20.0162 15.2656Z" fill="black"/>
<path d="M20.0178 15.4807L19.4473 14.9207L21.6597 12.6649L19.4473 10.4092L20.0178 9.84918L22.7824 12.6675L22.5017 12.9469L20.0178 15.4793V15.4807ZM19.8774 14.9167L20.0125 15.0492L22.3509 12.6662L20.0112 10.2807L19.8761 10.4131L22.0847 12.6649L19.8774 14.9154V14.9167Z" fill="black"/>
</g>
<defs>
<clipPath id="clip0_1213_29660">
<rect width="32" height="32" fill="white"/>
</clipPath>
</defs>
</svg>
