<svg width="24" height="24" viewBox="0 0 24 24" fill="none" xmlns="http://www.w3.org/2000/svg">
<g clip-path="url(#clip0_3069_16474)">
<path d="M19.8748 18.6757H4.49705C3.26164 18.6757 2.25639 17.6449 2.25639 16.377V2.51109C2.25639 1.24322 3.26164 0.212402 4.49705 0.212402H19.8748C21.1102 0.212402 22.1154 1.24322 22.1154 2.51109V16.377C22.1154 17.6439 21.1102 18.6757 19.8748 18.6757ZM4.49705 0.556665C3.45148 0.556665 2.60066 1.43306 2.60066 2.51109V16.377C2.60066 17.454 3.45148 18.3304 4.49705 18.3304H19.8748C20.9203 18.3304 21.7712 17.454 21.7712 16.377V2.51109C21.7712 1.43404 20.9203 0.556665 19.8748 0.556665H4.49705Z" fill="white"/>
<path d="M19.8748 18.8882H4.49705C3.14459 18.8882 2.04393 17.762 2.04393 16.3771V2.51115C2.04393 1.12623 3.14459 0 4.49705 0H19.8748C21.2272 0 22.3279 1.12623 22.3279 2.51115V16.3771C22.3279 17.762 21.2272 18.8882 19.8748 18.8882ZM4.49705 0.769181C3.56852 0.769181 2.81311 1.55016 2.81311 2.51115V16.3771C2.81311 17.3371 3.56852 18.118 4.49705 18.118H19.8748C20.8033 18.118 21.5587 17.3371 21.5587 16.3771V2.51115C21.5587 1.55115 20.8033 0.769181 19.8748 0.769181H4.49705Z" fill="white"/>
<path d="M1.5 21.2272V23.0764C1.5 23.5868 1.92885 24.0009 2.45803 24.0009H22.1026C22.6318 24.0009 23.0607 23.5868 23.0607 23.0764V21.2272H1.5ZM13.862 22.7065C13.862 22.9111 13.6908 23.0764 13.4784 23.0764H11.0823C10.8708 23.0764 10.6987 22.9111 10.6987 22.7065V22.6141C10.6987 22.4095 10.8698 22.2442 11.0823 22.2442H13.4784C13.6898 22.2442 13.862 22.4095 13.862 22.6141V22.7065Z" fill="white"/>
<path d="M9.35212 11.4344L7.44392 9.48884L7.56687 9.35507L9.35212 7.5354L9.61769 7.79507L7.95933 9.48491L9.61671 11.1747L9.35212 11.4344Z" fill="white"/>
<path d="M9.35016 11.5967L7.28557 9.49075L7.48327 9.27731L9.35114 7.37305L9.77901 7.79305L8.11967 9.48485L9.77901 11.1767L9.35114 11.5967H9.35016ZM7.60131 9.48682L9.35311 11.273L9.45442 11.1737L7.79803 9.48485L9.45442 7.796L9.35311 7.69665L7.60032 9.48682H7.60131Z" fill="white"/>
<path d="M13.5172 6.85591L10.7015 11.8469L11.0245 12.0291L13.8402 7.03812L13.5172 6.85591Z" fill="white"/>
<path d="M11.0685 12.1869L10.5462 11.8918L13.4754 6.70129L13.9977 6.99638L11.0685 12.1869ZM10.858 11.8052L10.982 11.8751L13.6859 7.08293L13.562 7.0131L10.858 11.8052Z" fill="white"/>
<path d="M15.0128 11.4492L14.7472 11.1895L16.4046 9.49969L14.7472 7.80887L15.0118 7.54919L16.9259 9.50067L16.7961 9.63051L15.0128 11.4492Z" fill="white"/>
<path d="M15.0138 11.6104L14.5859 11.1904L16.2452 9.49864L14.5859 7.80684L15.0138 7.38684L17.0872 9.50061L16.8767 9.71012L15.0138 11.6095V11.6104ZM14.9085 11.1875L15.0098 11.2868L16.7636 9.49963L15.0088 7.71045L14.9075 7.80979L16.5639 9.49864L14.9085 11.1865V11.1875Z" fill="white"/>
</g>
<defs>
<clipPath id="clip0_3069_16474">
<rect width="21.5607" height="24" fill="white" transform="translate(1.5)"/>
</clipPath>
</defs>
</svg>
