<svg width="17" height="16" viewBox="0 0 17 16" fill="none" xmlns="http://www.w3.org/2000/svg">
<g clip-path="url(#clip0_1025_26659)">
<path d="M12.7667 3.73333L12.3 4.2M2.5 8H3.16667H2.5ZM8.5 2V2.66667V2ZM13.8333 8H14.5H13.8333ZM4.23333 3.73333L4.7 4.2L4.23333 3.73333Z" stroke="black" stroke-width="1.25" stroke-linecap="round" stroke-linejoin="round"/>
<path d="M6.50033 10.6667C5.94064 10.2469 5.52721 9.6617 5.31861 8.99391C5.11001 8.32613 5.11681 7.60963 5.33805 6.94593C5.55928 6.28222 5.98374 5.70495 6.55129 5.29588C7.11884 4.88681 7.80072 4.66669 8.50033 4.66669C9.19993 4.66669 9.88181 4.88681 10.4494 5.29588C11.0169 5.70495 11.4414 6.28222 11.6626 6.94593C11.8838 7.60963 11.8906 8.32613 11.682 8.99391C11.4734 9.6617 11.06 10.2469 10.5003 10.6667C10.24 10.9243 10.0441 11.2397 9.92824 11.5871C9.81242 11.9346 9.78002 12.3044 9.83366 12.6667C9.83366 13.0203 9.69318 13.3594 9.44313 13.6095C9.19309 13.8595 8.85395 14 8.50033 14C8.1467 14 7.80757 13.8595 7.55752 13.6095C7.30747 13.3594 7.16699 13.0203 7.16699 12.6667C7.22063 12.3044 7.18823 11.9346 7.07241 11.5871C6.95659 11.2397 6.76061 10.9243 6.50033 10.6667" stroke="black" stroke-width="1.25" stroke-linecap="round" stroke-linejoin="round"/>
<path d="M6.9668 11.3333H10.0335" stroke="black" stroke-width="1.25" stroke-linecap="round" stroke-linejoin="round"/>
</g>
<defs>
<clipPath id="clip0_1025_26659">
<rect width="16" height="16" fill="white" transform="translate(0.5)"/>
</clipPath>
</defs>
</svg>
