<svg width="40" height="40" viewBox="0 0 40 40" fill="none" xmlns="http://www.w3.org/2000/svg">
<rect x="0.5" y="0.5" width="39" height="39" rx="19.5" fill="white"/>
<g clip-path="url(#clip0_5272_50714)">
<path d="M26.6663 14.6733C25.9997 15 25.3463 15.1327 24.6663 15.3333C23.919 14.49 22.811 14.4433 21.7463 14.842C20.6817 15.2407 19.9843 16.2153 19.9997 17.3333V18C17.8363 18.0553 15.9097 17.07 14.6663 15.3333C14.6663 15.3333 11.8783 20.2887 17.333 22.6667C16.085 23.498 14.8403 24.0587 13.333 24C15.5383 25.202 17.9417 25.6153 20.0223 25.0113C22.409 24.318 24.3703 22.5293 25.123 19.85C25.3475 19.0351 25.459 18.1932 25.4543 17.348C25.453 17.182 26.461 15.5 26.6663 14.6727V14.6733Z" fill="#475F96"/>
</g>
<rect x="0.5" y="0.5" width="39" height="39" rx="19.5" stroke="#475F96"/>
<defs>
<clipPath id="clip0_5272_50714">
<rect width="16" height="16" fill="white" transform="translate(12 12)"/>
</clipPath>
</defs>
</svg>
