<svg width="40" height="40" viewBox="0 0 40 40" fill="none" xmlns="http://www.w3.org/2000/svg">
<g clip-path="url(#clip0_3535_15533)">
<path d="M26.6668 14.6733C26.0002 15 25.3468 15.1327 24.6668 15.3333C23.9195 14.49 22.8115 14.4433 21.7468 14.842C20.6822 15.2407 19.9848 16.2153 20.0002 17.3333V18C17.8368 18.0553 15.9102 17.07 14.6668 15.3333C14.6668 15.3333 11.8788 20.2887 17.3335 22.6667C16.0855 23.498 14.8408 24.0587 13.3335 24C15.5388 25.202 17.9422 25.6153 20.0228 25.0113C22.4095 24.318 24.3708 22.5293 25.1235 19.85C25.348 19.0351 25.4595 18.1932 25.4548 17.348C25.4535 17.182 26.4615 15.5 26.6668 14.6727V14.6733Z" fill="white"/>
</g>
<rect x="0.5" y="0.5" width="39" height="39" rx="19.5" stroke="white"/>
<defs>
<clipPath id="clip0_3535_15533">
<rect width="16" height="16" fill="white" transform="translate(12 12)"/>
</clipPath>
</defs>
</svg>
