<svg width="60" height="60" viewBox="0 0 60 60" fill="none" xmlns="http://www.w3.org/2000/svg">
<g clip-path="url(#clip0_1227_26497)">
<path d="M22.5005 10H12.5005C11.1198 10 10.0005 11.1193 10.0005 12.5V22.5C10.0005 23.8807 11.1198 25 12.5005 25H22.5005C23.8812 25 25.0005 23.8807 25.0005 22.5V12.5C25.0005 11.1193 23.8812 10 22.5005 10Z" fill="black"/>
<path d="M47.4995 10H37.4995C36.1188 10 34.9995 11.1193 34.9995 12.5V22.5C34.9995 23.8807 36.1188 25 37.4995 25H47.4995C48.8802 25 49.9995 23.8807 49.9995 22.5V12.5C49.9995 11.1193 48.8802 10 47.4995 10Z" stroke="black" stroke-width="2" stroke-linecap="round" stroke-linejoin="round"/>
<path d="M22.5005 35H12.5005C11.1198 35 10.0005 36.1193 10.0005 37.5V47.5C10.0005 48.8807 11.1198 50 12.5005 50H22.5005C23.8812 50 25.0005 48.8807 25.0005 47.5V37.5C25.0005 36.1193 23.8812 35 22.5005 35Z" stroke="black" stroke-width="2" stroke-linecap="round" stroke-linejoin="round"/>
<path d="M47.4995 35H37.4995C36.1188 35 34.9995 36.1193 34.9995 37.5V47.5C34.9995 48.8807 36.1188 50 37.4995 50H47.4995C48.8802 50 49.9995 48.8807 49.9995 47.5V37.5C49.9995 36.1193 48.8802 35 47.4995 35Z" fill="black"/>
</g>
<defs>
<clipPath id="clip0_1227_26497">
<rect width="60" height="60" fill="white"/>
</clipPath>
</defs>
</svg>
