<svg width="81" height="76" viewBox="0 0 81 76" fill="none" xmlns="http://www.w3.org/2000/svg">
<path fill-rule="evenodd" clip-rule="evenodd" d="M17.0967 2.6665C17.0967 1.28579 18.216 0.166504 19.5967 0.166504H61.2633C62.6441 0.166504 63.7633 1.28579 63.7633 2.6665V14.3679C65.4466 13.2909 67.4474 12.6665 69.5941 12.6665C75.5772 12.6665 80.4274 17.5168 80.4274 23.4998C80.4274 29.4829 75.5772 34.3332 69.5941 34.3332C67.4474 34.3332 65.4466 33.7088 63.7633 32.6318V35.9998C63.7633 42.1882 61.305 48.1231 56.9292 52.499C53.1463 56.2818 48.1983 58.6317 42.9287 59.1991V71H57.0941C58.4748 71 59.5941 72.1193 59.5941 73.5C59.5941 74.8807 58.4748 76 57.0941 76H40.4573L40.4287 76.0002L40.4001 76H23.7607C22.38 76 21.2607 74.8807 21.2607 73.5C21.2607 72.1193 22.38 71 23.7607 71H37.9287V59.1988C32.6601 58.6309 27.7131 56.2812 23.9309 52.499C19.555 48.1231 17.0967 42.1882 17.0967 35.9998V32.6293C15.4126 33.7079 13.4103 34.3332 11.262 34.3332C5.27896 34.3332 0.428711 29.4829 0.428711 23.4998C0.428711 17.5168 5.27896 12.6665 11.262 12.6665C13.4103 12.6665 15.4126 13.2918 17.0967 14.3704V2.6665ZM58.7633 23.2602C58.7616 23.3399 58.7607 23.4198 58.7607 23.4998C58.7607 23.5799 58.7616 23.6598 58.7633 23.7395V35.9998C58.7633 40.8621 56.8318 45.5253 53.3936 48.9635C49.9555 52.4016 45.2923 54.3332 40.43 54.3332C35.5677 54.3332 30.9046 52.4016 27.4664 48.9635C24.0282 45.5253 22.0967 40.8621 22.0967 35.9998V5.1665H58.7633V23.2602ZM63.7633 23.6756C63.8563 26.816 66.4312 29.3332 69.5941 29.3332C72.8157 29.3332 75.4274 26.7215 75.4274 23.4998C75.4274 20.2782 72.8157 17.6665 69.5941 17.6665C66.4312 17.6665 63.8563 20.1837 63.7633 23.3241V23.6756ZM11.262 17.6665C8.04038 17.6665 5.42871 20.2782 5.42871 23.4998C5.42871 26.7215 8.04038 29.3332 11.262 29.3332C14.4837 29.3332 17.0954 26.7215 17.0954 23.4998C17.0954 20.2782 14.4837 17.6665 11.262 17.6665Z" fill="#2673E5" fill-opacity="0.3"/>
</svg>
