<svg width="20" height="20" viewBox="0 0 20 20" fill="none" xmlns="http://www.w3.org/2000/svg">
<g clip-path="url(#clip0_5272_50757)">
<path d="M10 17.5C14.1421 17.5 17.5 14.1421 17.5 10C17.5 5.85786 14.1421 2.5 10 2.5C5.85786 2.5 2.5 5.85786 2.5 10C2.5 14.1421 5.85786 17.5 10 17.5Z" stroke="black" stroke-opacity="0.65" stroke-width="1.25" stroke-linecap="round" stroke-linejoin="round"/>
<path d="M3 7.5H17" stroke="black" stroke-opacity="0.65" stroke-width="1.25" stroke-linecap="round" stroke-linejoin="round"/>
<path d="M3 12.5H17" stroke="black" stroke-opacity="0.65" stroke-width="1.25" stroke-linecap="round" stroke-linejoin="round"/>
<path d="M9.58371 2.5C8.17983 4.74968 7.43555 7.34822 7.43555 10C7.43555 12.6518 8.17983 15.2503 9.58371 17.5" stroke="black" stroke-opacity="0.65" stroke-width="1.25" stroke-linecap="round" stroke-linejoin="round"/>
<path d="M10.416 2.5C11.8199 4.74968 12.5642 7.34822 12.5642 10C12.5642 12.6518 11.8199 15.2503 10.416 17.5" stroke="black" stroke-opacity="0.65" stroke-width="1.25" stroke-linecap="round" stroke-linejoin="round"/>
</g>
<defs>
<clipPath id="clip0_5272_50757">
<rect width="20" height="20" fill="white"/>
</clipPath>
</defs>
</svg>
