<svg width="45" height="41" viewBox="0 0 45 41" fill="none" xmlns="http://www.w3.org/2000/svg">
<g clip-path="url(#clip0_8709_85323)">
<path d="M30.7203 27.0908H27.9617C27.5812 25.9176 27.2165 24.7286 26.836 23.5554H21.4932C21.1285 24.7286 20.748 25.9018 20.3834 27.0908H17.6406C17.8309 26.5359 18.0211 25.981 18.2114 25.4261C18.4175 24.792 18.6394 24.1578 18.8455 23.5237C19.1626 22.5724 19.4639 21.6212 19.7809 20.654C20.0822 19.7345 20.3992 18.7991 20.7163 17.8796C20.9383 17.1978 21.1602 16.532 21.3981 15.8661C21.6042 15.2636 21.7944 14.677 22.0005 14.0746C22.2225 13.3453 22.4603 12.6319 22.6664 11.9026C22.7298 11.6647 22.8408 11.6172 23.0627 11.6172C23.7128 11.6172 24.3786 11.6172 25.0287 11.6172C25.5677 11.6172 25.5994 11.6489 25.7738 12.1721C25.9482 12.7111 26.1384 13.2343 26.3128 13.7734C26.4872 14.2965 26.6299 14.8197 26.8043 15.3271C27.058 16.0881 27.3275 16.8332 27.5812 17.5942C27.9141 18.5772 28.2629 19.5601 28.5958 20.5431C28.8812 21.415 29.1666 22.287 29.452 23.159C29.769 24.1261 30.0861 25.0932 30.4191 26.0445C30.53 26.3774 30.641 26.7103 30.7837 27.0908M22.3969 20.9236H26.0433C25.4092 19.0369 24.7908 17.182 24.1725 15.3112C24.1408 15.3112 24.1091 15.3112 24.0774 15.3112C23.5225 17.1661 22.9518 19.0211 22.381 20.9077" fill="#797979"/>
<path d="M24.172 0.851562C13.5815 0.851562 4.97266 9.46036 4.97266 20.0509C4.97266 20.3522 4.97266 20.6375 4.98851 20.9388H7.31907C7.30322 20.6534 7.28736 20.3522 7.28736 20.0509C7.30322 10.7604 14.8815 3.18212 24.172 3.18212C33.4625 3.18212 41.0408 10.7445 41.0408 20.0509C41.0408 29.3573 33.4784 36.9197 24.172 36.9197C23.0147 36.9197 21.8732 36.7929 20.7634 36.5709V38.9332C21.8732 39.1393 22.9988 39.2344 24.172 39.2344C34.7626 39.2344 43.3714 30.6256 43.3714 20.0351C43.3714 9.44451 34.7626 0.851562 24.172 0.851562Z" fill="#797979"/>
<path fill-rule="evenodd" clip-rule="evenodd" d="M4.18066 20.0507C4.18066 9.0223 13.1444 0.0585938 24.1727 0.0585938C35.2002 0.0585938 44.1648 9.00559 44.1648 20.0348C44.1648 31.0632 35.2011 40.0269 24.1727 40.0269C22.956 40.0269 21.7816 39.9282 20.6194 39.7123L19.9714 39.592V35.6037L20.9196 35.7934C21.984 36.0063 23.0732 36.1268 24.1727 36.1268C33.0413 36.1268 40.2488 28.9192 40.2488 20.0507C40.2488 11.1826 33.0259 3.97457 24.1727 3.97457C15.3205 3.97457 8.09626 11.1976 8.08078 20.0513C8.08081 20.3276 8.09537 20.6083 8.11127 20.8945L8.15775 21.7312H4.23714L4.19761 20.9802C4.18066 20.6581 4.18066 20.355 4.18066 20.0595V20.0507ZM24.1727 1.64401C14.02 1.64401 5.76608 9.8979 5.76608 20.0507C5.76608 20.0828 5.76608 20.1145 5.7661 20.1458H6.49584C6.49553 20.1141 6.49537 20.0824 6.49537 20.0507C6.51197 10.3237 14.4441 2.38915 24.1727 2.38915C33.9006 2.38915 41.8342 10.306 41.8342 20.0507C41.8342 29.7948 33.9169 37.7122 24.1727 37.7122C23.2872 37.7122 22.413 37.6415 21.5568 37.5137V38.2605C22.4065 38.3834 23.2729 38.4415 24.1727 38.4415C34.3255 38.4415 42.5794 30.1876 42.5794 20.0348C42.5794 9.8829 34.3264 1.64401 24.1727 1.64401Z" fill="#797979"/>
<path d="M11.4259 21.1914L6.35262 28.0562L1.2793 21.1914H11.4259Z" fill="#797979"/>
<path fill-rule="evenodd" clip-rule="evenodd" d="M0.571276 20.8341C0.706047 20.567 0.979791 20.3984 1.27904 20.3984H11.4257C11.7249 20.3984 11.9987 20.567 12.1335 20.8341C12.2682 21.1013 12.2411 21.4216 12.0632 21.6623L6.98987 28.5271C6.84041 28.7294 6.60385 28.8487 6.35237 28.8487C6.10088 28.8487 5.86432 28.7294 5.71486 28.5271L0.641532 21.6623C0.463678 21.4216 0.436505 21.1013 0.571276 20.8341ZM2.85056 21.9839L6.35237 26.7222L9.85417 21.9839H2.85056Z" fill="#797979"/>
</g>
<defs>
<clipPath id="clip0_8709_85323">
<rect width="43.694" height="40" fill="white" transform="translate(0.486328 0.0585938)"/>
</clipPath>
</defs>
</svg>
