<svg width="36" height="61" viewBox="0 0 36 61" fill="none" xmlns="http://www.w3.org/2000/svg">
<g clip-path="url(#clip0_8709_85352)">
<path fill-rule="evenodd" clip-rule="evenodd" d="M8.89241 31.3231V33.176H28.6173V31.3231H8.89241ZM6.53418 30.8683C6.53418 29.8128 7.38213 28.9648 8.4376 28.9648H29.0721C30.1276 28.9648 30.9755 29.8128 30.9755 30.8683V33.6308C30.9755 34.6862 30.1276 35.5342 29.0721 35.5342H8.4376C7.38213 35.5342 6.53418 34.6862 6.53418 33.6308V30.8683Z" fill="#797979"/>
<path fill-rule="evenodd" clip-rule="evenodd" d="M11.5028 16.8277V30.1431H9.14453V16.7111L9.15012 16.6539C9.35223 14.5858 10.0535 13.0093 11.048 11.8349C12.0349 10.6695 13.2557 9.96423 14.4065 9.53942C15.5537 9.11595 16.6599 8.96008 17.4692 8.90731C17.8768 8.88073 18.2169 8.87981 18.4594 8.8859C18.5809 8.88895 18.6785 8.89377 18.7485 8.89809C18.7835 8.90025 18.8117 8.90228 18.8326 8.90392L18.8584 8.90603L18.8671 8.9068L18.8704 8.9071C18.871 8.90716 18.8729 8.90734 18.7627 10.0813C18.6525 11.2552 18.653 11.2553 18.6535 11.2553L18.6555 11.2555L18.6486 11.255L18.6033 11.2518C18.56 11.2492 18.4911 11.2457 18.4002 11.2434C18.218 11.2388 17.9497 11.2392 17.6227 11.2605C16.9629 11.3036 16.0952 11.4298 15.2231 11.7517C14.3547 12.0723 13.511 12.5756 12.8476 13.3589C12.1994 14.1244 11.6694 15.2203 11.5028 16.8277ZM18.6555 11.2555C18.6559 11.2555 18.6561 11.2556 18.6555 11.2555V11.2555Z" fill="#797979"/>
<path fill-rule="evenodd" clip-rule="evenodd" d="M26.0397 11.8349C27.0342 13.0093 27.7354 14.5858 27.9375 16.6539L27.9431 16.7111V30.1431H25.5849V16.8277C25.4183 15.2203 24.8883 14.1244 24.24 13.3589C23.5767 12.5756 22.7329 12.0723 21.8645 11.7517C20.9925 11.4298 20.1247 11.3036 19.465 11.2605C19.138 11.2392 18.8696 11.2388 18.6874 11.2434C18.5965 11.2457 18.5277 11.2492 18.4843 11.2518L18.4391 11.255L18.4341 11.2553C18.4346 11.2553 18.4352 11.2552 18.3249 10.0813C18.2147 8.90734 18.2153 8.90728 18.2159 8.90723L18.2206 8.9068L18.2293 8.90603L18.2551 8.90392C18.276 8.90228 18.3041 8.90025 18.3392 8.89809C18.4092 8.89377 18.5068 8.88895 18.6283 8.8859C18.8708 8.87981 19.2108 8.88073 19.6184 8.90731C20.4278 8.96008 21.534 9.11595 22.6812 9.53942C23.832 9.96423 25.0528 10.6695 26.0397 11.8349ZM18.4318 11.2555C18.4312 11.2556 18.4315 11.2556 18.4318 11.2555V11.2555Z" fill="#797979"/>
<path d="M18.6957 6.74585C17.9377 6.74585 17.3145 6.1226 17.3145 5.3646V1.43984C17.3145 0.681839 17.9377 0.0585938 18.6957 0.0585938C19.4537 0.0585938 20.0769 0.681839 20.0769 1.43984V5.3646C20.0769 6.1226 19.4537 6.74585 18.6957 6.74585Z" fill="#797979"/>
<path d="M26.4267 9.76134C25.8877 9.22232 25.8877 8.34641 26.4267 7.80739L29.2061 5.04489C29.7451 4.50587 30.621 4.50587 31.16 5.04489C31.699 5.58392 31.699 6.45983 31.16 6.99885L28.3807 9.76134C27.8417 10.3004 26.9658 10.3004 26.4267 9.76134Z" fill="#797979"/>
<path d="M30.6552 19.9332C30.1162 19.3942 30.1162 18.5183 30.6552 17.9793L33.4346 15.2168C33.9736 14.6777 34.8495 14.6777 35.3885 15.2168C35.9276 15.7558 35.9276 16.6317 35.3885 17.1707L32.6092 19.9332C32.0702 20.4722 31.1943 20.4722 30.6552 19.9332Z" fill="#797979"/>
<path d="M10.8124 9.76134C11.3514 9.22232 11.3514 8.34641 10.8124 7.80739L8.03303 5.04489C7.49401 4.50587 6.6181 4.50587 6.07907 5.04489C5.54005 5.58392 5.54005 6.45983 6.07907 6.99885L8.85841 9.76134C9.39743 10.3004 10.2733 10.3004 10.8124 9.76134Z" fill="#797979"/>
<path d="M7.56128 17.5766C7.56128 16.8186 6.93803 16.1953 6.18003 16.1953H2.25527C1.49727 16.2122 0.874023 16.8354 0.874023 17.5934C0.874023 18.3514 1.49727 18.9746 2.25527 18.9746H6.18003C6.93803 18.9746 7.56128 18.3346 7.56128 17.5766Z" fill="#797979"/>
<path fill-rule="evenodd" clip-rule="evenodd" d="M18.2342 15.0885C17.8188 15.1624 17.2246 15.3834 16.6372 16.0592L16.6336 16.0633L16.6336 16.0633C16.0265 16.7553 15.8047 17.4541 15.7283 17.9719C15.6897 18.2335 15.6885 18.4489 15.6956 18.5907C15.6991 18.6613 15.7046 18.7124 15.7081 18.7404C15.7096 18.7519 15.7107 18.7594 15.7112 18.7626C15.8273 19.3971 15.4114 20.0084 14.7767 20.132C14.1374 20.2564 13.5184 19.8391 13.3939 19.1999L14.5513 18.9746C13.3939 19.1999 13.3938 19.1994 13.3937 19.1988L13.3935 19.1977L13.393 19.1952L13.392 19.1897L13.3896 19.1765L13.3836 19.1416C13.3792 19.1145 13.3741 19.0799 13.3688 19.0383C13.3582 18.9552 13.347 18.8437 13.3402 18.7079C13.3268 18.4371 13.3308 18.065 13.3954 17.6275C13.5252 16.7477 13.901 15.603 14.8591 14.5101C15.8379 13.385 16.9357 12.9243 17.821 12.7667C18.2554 12.6894 18.6288 12.6864 18.9021 12.7045C19.0392 12.7135 19.1527 12.728 19.2382 12.7417C19.281 12.7485 19.317 12.7552 19.3456 12.761L19.3829 12.7689L19.3974 12.7722L19.4036 12.7736L19.4064 12.7743L19.4077 12.7746C19.4084 12.7748 19.409 12.7749 19.133 13.9213L19.409 12.7749C20.0421 12.9273 20.4318 13.5641 20.2794 14.1972C20.1285 14.8239 19.5031 15.212 18.8765 15.0721C18.8765 15.0721 18.8765 15.0721 18.8765 15.0721C18.8742 15.0717 18.8705 15.0711 18.8654 15.0703C18.8452 15.067 18.8044 15.0614 18.7465 15.0575C18.6298 15.0498 18.4505 15.05 18.2342 15.0885Z" fill="#797979"/>
<path fill-rule="evenodd" clip-rule="evenodd" d="M13.9457 33.6641C14.5969 33.6641 15.1248 34.192 15.1248 34.8432V58.8802C15.1248 59.5314 14.5969 60.0593 13.9457 60.0593C13.2945 60.0593 12.7666 59.5314 12.7666 58.8802V34.8432C12.7666 34.192 13.2945 33.6641 13.9457 33.6641Z" fill="#797979"/>
<path fill-rule="evenodd" clip-rule="evenodd" d="M23.3783 33.6641C24.0295 33.6641 24.5574 34.192 24.5574 34.8432V51.3002C24.5574 51.9514 24.0295 52.4793 23.3783 52.4793C22.7271 52.4793 22.1992 51.9514 22.1992 51.3002V34.8432C22.1992 34.192 22.7271 33.6641 23.3783 33.6641Z" fill="#797979"/>
</g>
<defs>
<clipPath id="clip0_8709_85352">
<rect width="34.9186" height="60" fill="white" transform="translate(0.874023 0.0585938)"/>
</clipPath>
</defs>
</svg>
