<svg width="42" height="61" viewBox="0 0 42 61" fill="none" xmlns="http://www.w3.org/2000/svg">
<g clip-path="url(#clip0_8709_85335)">
<path d="M19.6018 23.4879C22.6263 22.1034 25.8212 23.5731 26.9926 26.5763C28.4623 25.9799 29.9106 26.0864 31.2951 26.8319C32.6795 27.556 33.6167 28.6636 34.1705 30.1758C34.3622 30.1332 34.5539 30.0906 34.7456 30.0693C37.5784 29.5369 40.3899 31.539 40.8797 34.4783C41.0501 35.4581 40.9862 36.5017 40.9649 37.5028C40.901 39.8457 40.8158 42.1886 40.688 44.5315C40.2621 51.8798 35.6614 57.9288 28.4836 59.6114C23.8403 60.719 19.4953 59.7818 15.4697 57.3111C11.7637 55.0321 9.07995 51.8159 6.99263 48.0459C5.24609 44.8723 3.52085 41.6987 1.79561 38.5252C1.00754 37.0129 0.389858 35.4368 0.32596 33.6902C0.219464 31.2621 1.62521 29.8564 4.03203 29.4517C6.07676 29.1109 7.6955 30.048 9.14385 31.3686C9.35684 31.5603 9.52724 31.7946 9.78283 32.0928C9.82543 31.8585 9.84673 31.752 9.84673 31.6455C9.84673 27.4495 9.84673 23.2323 9.84673 19.0363C9.84673 18.7381 9.74023 18.5677 9.48464 18.3974C6.24715 16.2674 4.67101 13.2642 4.7988 9.40907C4.9692 5.02142 8.44098 1.03846 12.7647 0.250388C18.3664 -0.793276 23.4569 2.6998 24.5219 8.28021C25.2461 12.1141 23.4357 16.2035 20.0278 18.3548C19.7083 18.5677 19.5805 18.7594 19.5805 19.1428C19.6018 20.5699 19.5805 21.9969 19.5805 23.4879H19.6018ZM12.5091 23.7861C12.5091 27.8968 12.5091 32.0289 12.5091 36.1396C12.5091 36.4804 12.4239 36.8851 12.2109 37.162C11.6146 37.9501 10.507 37.801 9.99582 36.8851C9.22905 35.5433 8.39838 34.244 7.22692 33.2003C6.65184 32.6892 6.01286 32.2632 5.24609 32.0928C3.81904 31.7733 2.88187 32.5614 3.03097 33.9884C3.15876 35.1173 3.58475 36.1609 4.11723 37.162C5.86377 40.3995 7.6316 43.637 9.39944 46.8532C10.9969 49.7499 13.0416 52.2845 15.7253 54.244C19.0267 56.6508 22.6902 57.8223 26.7796 57.2046C33.2759 56.2248 37.5358 51.0491 38.0043 44.6806C38.1534 42.5294 38.2173 40.3569 38.2812 38.2057C38.3238 37.162 38.3664 36.1183 38.2812 35.0747C38.2173 34.1375 37.6636 33.392 36.8542 32.9234C35.8318 32.3271 34.8734 32.4975 34.0853 33.392C33.5741 33.9671 32.999 34.1375 32.4026 33.8606C31.8276 33.5837 31.572 33.0512 31.6785 32.3271C31.6785 32.2206 31.6998 32.1354 31.6998 32.0289C31.785 30.7509 31.0182 29.5369 29.7615 29.0257C28.8457 28.6423 27.7807 28.7488 26.9287 29.9202C26.7583 30.1758 26.3536 30.3462 26.0555 30.3888C25.2461 30.5166 24.6071 29.8989 24.6071 29.0683C24.6071 28.2802 24.5219 27.556 24.1172 26.8745C23.0523 25.1066 20.8797 25.1066 19.8148 26.8745C19.6657 27.1087 19.5592 27.3856 19.4314 27.6199C19.2184 28.0459 18.8776 28.3015 18.3877 28.3441C17.5145 28.4293 16.9181 27.8329 16.9181 26.8745C16.9181 21.7839 16.9181 16.6721 16.9181 11.5816C16.9181 11.2408 16.8968 10.8787 16.8329 10.5379C16.6412 9.38777 15.8105 8.5997 14.7882 8.5784C13.6806 8.5571 12.8286 9.23867 12.5943 10.4101C12.5091 10.8148 12.4878 11.2408 12.4878 11.6455C12.4878 15.6923 12.4878 19.7179 12.4878 23.7648L12.5091 23.7861ZM9.86803 15.309C9.86803 15.0321 9.86803 14.8617 9.86803 14.6913C9.86803 13.3707 9.84673 12.0715 9.91062 10.7509C9.97452 9.34517 10.507 8.08851 11.572 7.15135C12.9138 5.95859 14.49 5.6178 16.2152 6.17158C18.0256 6.76796 19.1332 8.10981 19.4314 9.94155C19.6231 11.113 19.5592 12.3484 19.6018 13.5624C19.6018 14.1162 19.6018 14.67 19.6018 15.2877C21.4974 13.7541 22.5198 10.7935 21.7317 8.00332C20.9223 5.10662 18.2173 2.91279 15.3419 2.7211C11.6998 2.48681 8.95216 4.70193 7.92979 7.40694C6.88613 10.1332 7.6955 13.5624 9.86803 15.309Z" fill="#797979"/>
</g>
<defs>
<clipPath id="clip0_8709_85335">
<rect width="40.6816" height="60" fill="white" transform="translate(0.326172 0.0585938)"/>
</clipPath>
</defs>
</svg>
