<svg width="61" height="61" viewBox="0 0 61 61" fill="none" xmlns="http://www.w3.org/2000/svg">
<g clip-path="url(#clip0_8709_85298)">
<path d="M35.1535 46.0781C35.1535 46.0781 35.1752 46.1432 35.1752 46.1865C35.1752 46.1865 35.1752 46.1215 35.1318 46.0781H35.1535ZM35.1535 46.0781C35.1535 46.0781 35.1752 46.1432 35.1752 46.1865C35.1752 46.1865 35.1752 46.1215 35.1318 46.0781H35.1535Z" fill="#797979"/>
<path d="M60.1031 57.7172L59.9513 57.5655C40.8979 38.5554 22.1695 19.8487 3.33283 1.07706C3.24612 0.990359 3.15942 0.903653 3.07271 0.816948C2.85595 0.643538 2.55248 0.535156 2.24901 0.535156C1.51202 0.535156 0.926758 1.14209 0.926758 1.90076C0.926758 2.22591 1.05682 2.55105 1.2519 2.76782C1.2519 2.76782 1.31693 2.85452 1.33861 2.8762C6.06404 7.5366 10.5944 12.1537 15.2981 16.5756C17.119 18.288 17.5958 20.1089 17.0756 22.2115C14.6695 21.7346 12.3502 21.2577 9.98745 20.8025C9.81404 21.4528 9.70566 21.7346 9.70566 21.9947C9.68398 27.3271 9.46722 32.6594 9.70566 37.9701C10.2042 48.9817 16.6638 56.8285 26.9383 59.2346C36.1507 61.3805 44.2577 59.4297 49.0698 51.106C49.1132 51.0193 49.3299 51.0409 49.46 50.9976C49.59 50.8675 49.7418 50.7158 49.8718 50.5857C52.6031 53.512 55.3343 56.4383 58.1305 59.408C58.3689 59.6681 58.7158 59.8198 59.0843 59.8198C59.7996 59.8198 60.3632 59.2563 60.3632 58.5409C60.3632 58.2375 60.2548 57.934 60.0814 57.7172H60.1031ZM46.2736 49.8487C43.7374 54.249 39.9658 56.7635 34.8935 56.9586C26.5048 57.3054 19.4383 54.7259 15.1681 46.9875C14.0409 44.9282 13.1739 42.5005 13.0438 40.1811C12.7403 35.0222 12.9354 29.8415 12.9354 24.6826C15.71 24.6392 17.2273 26.0698 17.249 28.8878C17.2707 31.7057 17.249 34.5453 17.249 37.645C24.3588 37.3415 30.0164 39.2924 32.2707 46.8357C32.4007 47.5077 33.0077 48.0279 33.723 48.0279C34.5467 48.0279 35.197 47.3776 35.197 46.5539C35.197 46.4456 35.197 46.3372 35.1753 46.2505C35.1753 46.2505 35.1753 46.1854 35.1536 46.1421C35.1536 46.0987 35.1536 46.0554 35.1103 45.9904C32.8776 38.4904 27.6753 35.2172 20.327 34.632V21.9297C22.9065 24.2274 25.6811 26.0048 24.7273 29.7548C25.0091 29.9282 25.1392 30.08 25.2476 30.0583C28.0221 29.1912 29.5611 30.8386 31.2953 32.6594C36.0424 37.645 41.0062 42.4354 45.9051 47.2909C46.7505 48.1146 46.8805 48.83 46.2736 49.8921V49.8487Z" fill="#797979"/>
<path d="M42.6537 31.4884V31.5535C42.6537 31.5535 42.5019 31.5535 42.4152 31.5535L42.2852 31.25L42.632 31.4884H42.6537Z" fill="#797979"/>
<path d="M20.2621 11.9361H20.2188V10.7656C20.2404 11.1558 20.2621 11.546 20.2621 11.9361Z" fill="#797979"/>
<path d="M50.132 15.7746C50.132 23.9466 50.132 32.1402 50.132 40.3122V41.8946C50.132 42.133 50.0019 43.2385 48.7013 43.2385C47.4007 43.2385 47.2057 42.133 47.2057 41.9379V28.6937C47.2057 24.0766 47.1623 19.4596 47.2057 14.8209C47.2057 13.2168 46.577 12.133 44.908 12.1764C43.3039 12.198 42.7837 13.3252 42.8054 14.7992C42.8054 19.4813 42.8054 24.185 42.8054 28.8671V29.9509C42.8054 30.4061 42.762 30.883 42.7187 31.5333L42.3718 31.2949L42.5019 31.5983V31.6417L42.827 31.5983C42.827 31.5983 42.827 32.9639 41.3747 32.9639C40.1392 32.9639 39.9224 32.0752 39.8574 31.7284V10.4856C39.8574 9.85699 39.8574 9.2067 39.8357 8.55641C39.7273 7.12578 39.0554 6.04196 37.473 6.12867C35.934 6.21537 35.262 7.23416 35.2837 8.72983V26.9162C35.2403 27.2414 35.0236 28.1518 33.8314 28.1518C32.6392 28.1518 32.3574 27.2414 32.314 26.9162C32.314 26.8512 32.314 26.8079 32.314 26.8079V23.8382C32.314 18.0723 32.314 12.3281 32.314 6.54052C32.314 4.87144 32.2707 3.28907 30.1247 3.09399C28.5424 2.94225 27.8487 4.11277 27.8487 6.6489V19.3079C27.8487 19.3079 27.8487 20.6735 26.3964 20.6735C24.8574 20.6735 24.8574 19.3079 24.8574 19.3079C24.8574 16.4899 24.8574 13.6937 24.8574 10.9191V8.92491C24.8574 8.68647 24.7924 7.32087 22.6681 7.32087C20.6955 7.32087 20.327 8.7515 20.327 9.18503V10.6807V11.5694C20.3487 11.7212 20.3704 11.8295 20.3704 11.8729C20.3704 12.1547 20.2187 13.1951 18.9181 13.1951C17.7909 13.1951 17.3791 12.1764 17.3791 11.8729V9.81364C17.0973 4.61133 19.8502 2.22693 24.9658 3.37578C28.0005 -1.65312 33.1377 -0.569308 35.0669 3.3541C40.1392 2.46537 41.9166 3.74428 43.0872 9.14167C48.2461 8.72983 50.262 10.5723 50.262 15.7096L50.132 15.7746Z" fill="#797979"/>
<path d="M42.7404 31.5535L42.4369 31.5968L42.4152 31.5535L42.2852 31.25L42.6537 31.4884L42.7404 31.5535Z" fill="#797979"/>
<path d="M42.7402 28.8008V31.5537L42.4367 31.597V31.5537L42.3066 31.2502L42.6535 31.4886C42.6968 30.8384 42.7402 30.3615 42.7402 29.9063V28.8225V28.8008Z" fill="#797979"/>
</g>
<defs>
<clipPath id="clip0_8709_85298">
<rect width="59.4798" height="60" fill="white" transform="translate(0.926758 0.0585938)"/>
</clipPath>
</defs>
</svg>
