<svg width="44" height="61" viewBox="0 0 44 61" fill="none" xmlns="http://www.w3.org/2000/svg">
<g clip-path="url(#clip0_8709_85313)">
<path fill-rule="evenodd" clip-rule="evenodd" d="M34.5654 25.5999C29.9746 21.4963 24.6361 19.9887 18.5798 21.0387C14.4598 21.7472 10.9607 23.7171 8.15605 26.858M34.5654 25.5999C37.6186 28.3349 39.6005 31.7188 40.2872 35.7087L40.2876 35.7111C41.6025 43.2437 39.2978 49.4313 33.3272 54.2383C30.5502 56.4594 27.3265 57.6724 23.7565 58.014C23.5605 58.0231 23.4053 58.0734 23.3151 58.1061C23.3109 58.1077 23.3066 58.1093 23.3023 58.1108H20.6917L20.6803 58.1087C20.2633 58.0289 19.8607 57.959 19.4686 57.8909C18.5304 57.728 17.6517 57.5754 16.7769 57.3235L16.7682 57.3211C12.9519 56.2599 9.83911 54.104 7.3423 51.0064C5.45387 48.6693 4.19155 46.0086 3.67202 43.0769L3.67147 43.0739C2.56328 36.9319 4.00031 31.5193 8.15605 26.858M18.2446 19.1016C24.8879 17.95 30.8336 19.6273 35.8756 24.1342C39.2305 27.1392 41.456 30.9112 42.2243 35.3736C43.6614 43.607 41.0909 50.5121 34.5591 55.7704L34.5567 55.7723C31.4528 58.2553 27.8575 59.5966 23.9431 59.971L23.9344 59.9745C23.9187 59.9808 23.898 59.989 23.8752 59.9976C23.8521 60.0064 23.8249 60.0163 23.7948 60.0263L23.6435 60.0768H19.5128V59.895C19.4219 59.8791 19.3303 59.8632 19.2381 59.8472C18.2605 59.6773 17.22 59.4965 16.2375 59.214C11.9958 58.0337 8.54398 55.6295 5.81243 52.2411C3.73001 49.6638 2.31807 46.7016 1.73652 43.4215C0.525445 36.7071 2.11616 30.6784 6.68865 25.5498C9.78158 22.0857 13.6758 19.8873 18.2446 19.1016ZM10.7662 28.4098C16.6394 22.3479 25.6967 22.5047 31.0616 26.6234L31.9504 27.3058L31.158 28.0982C31.0925 28.1637 31.0293 28.231 30.9572 28.3081L30.9466 28.3194C30.8807 28.3899 30.804 28.4719 30.7255 28.5503L21.1978 38.0781C20.7619 38.5325 20.5669 38.8519 20.5329 39.2459C20.498 39.9284 20.8106 40.4572 21.3249 40.7161C21.8943 40.9931 22.4732 40.9287 22.979 40.4993C23.1058 40.3881 23.2199 40.2744 23.3787 40.1157L32.8137 30.6806C32.9886 30.485 33.1776 30.3198 33.3188 30.1963L34.1279 29.4883L34.765 30.328C38.877 35.7473 39.0385 44.7013 33.0379 50.576C26.7955 56.6924 17.0194 56.6315 10.8778 50.5317C4.79245 44.4674 4.71405 34.6508 10.7662 28.4098ZM33.8324 32.4421L24.7592 41.5153C24.6083 41.6662 24.4509 41.8237 24.2688 41.983L24.2598 41.9909C23.1557 42.9334 21.7325 43.1043 20.4569 42.48L20.4493 42.4763C19.16 41.8316 18.4918 40.5177 18.5707 39.1235L18.5719 39.1016C18.6583 38.0083 19.2485 37.2689 19.7872 36.7087L19.8006 36.6948L28.9466 27.5491C24.2479 24.6364 16.9883 24.8129 12.1781 29.7778C6.86778 35.2535 6.94737 43.8387 12.2636 49.1373C17.6422 54.4787 26.1879 54.5357 31.6623 49.1715C36.5749 44.362 36.7518 37.1825 33.8324 32.4421Z" fill="#797979"/>
<path d="M0.42363 10.4191C0.44329 9.43613 0.895452 8.68908 1.78012 8.23692C2.66478 7.80441 3.52979 7.88305 4.33582 8.45317C4.47343 8.55147 4.61105 8.66942 4.729 8.78738C6.40004 10.4584 8.09073 12.1098 9.74211 13.8005C11.0396 15.1177 10.7644 17.1032 9.19165 17.8503C8.22835 18.3221 7.32402 18.1845 6.51799 17.4964C6.12481 17.1622 5.77094 16.7887 5.39742 16.4152C4.04093 15.0587 2.68444 13.7022 1.32796 12.3457C0.757838 11.8149 0.403971 11.2055 0.42363 10.4191Z" fill="#797979"/>
<path d="M43.5754 10.617C43.5754 11.1872 43.3002 11.7573 42.848 12.2094C41.1377 13.9198 39.447 15.6498 37.7169 17.3405C36.6357 18.3824 35.1416 18.3824 34.1586 17.3798C33.1953 16.3969 33.1953 14.9224 34.2176 13.8608C35.9083 12.1308 37.6187 10.4204 39.3487 8.72975C40.1547 7.94338 41.2163 7.76645 42.1599 8.19895C43.0643 8.6118 43.5951 9.49646 43.5754 10.5974V10.617Z" fill="#797979"/>
<path d="M24.4666 6.19228C24.4666 7.37183 24.4666 8.53173 24.4666 9.71128C24.447 11.1464 23.6999 12.0704 22.4221 12.3063C21.0656 12.5619 19.6895 11.5986 19.5912 10.2028C19.4929 8.90525 19.5322 7.58808 19.5322 6.29057C19.5322 4.95374 19.5125 3.59726 19.5715 2.26043C19.6501 0.982578 20.7314 0.0585938 22.0092 0.0585938C23.2871 0.0585938 24.3487 0.982578 24.4273 2.28009C24.506 3.5776 24.4273 4.89477 24.4273 6.19228C24.4273 6.19228 24.447 6.19228 24.4666 6.19228Z" fill="#797979"/>
</g>
<defs>
<clipPath id="clip0_8709_85313">
<rect width="43.152" height="60" fill="white" transform="translate(0.423828 0.0585938)"/>
</clipPath>
</defs>
</svg>
