<svg width="36" height="61" viewBox="0 0 36 61" fill="none" xmlns="http://www.w3.org/2000/svg">
<g clip-path="url(#clip0_8709_85342)">
<path fill-rule="evenodd" clip-rule="evenodd" d="M7.68963 7.42574C4.78097 7.42574 2.41793 9.78878 2.41793 12.6974V52.6904C2.41793 55.599 4.78097 57.9621 7.68963 57.9621H28.3107C31.2193 57.9621 33.5824 55.599 33.5824 52.6904V12.6974C33.5824 9.78878 31.2193 7.42574 28.3107 7.42574H7.68963ZM0.300781 12.6974C0.300781 8.61951 3.6117 5.30859 7.68963 5.30859H28.3107C32.3886 5.30859 35.6995 8.61951 35.6995 12.6974V52.6904C35.6995 56.7683 32.3886 60.0792 28.3107 60.0792H7.68963C3.6117 60.0792 0.300781 56.7683 0.300781 52.6904V12.6974Z" fill="#797979"/>
<path d="M26.2142 53.1789H9.78516V34.1669C9.78516 34.1669 9.84867 34.061 9.86984 34.1034C11.5847 39.3327 13.596 39.3327 15.692 37.7025C17.4069 36.3687 19.1006 34.6962 20.8155 33.4682C22.488 32.2615 24.1606 32.6425 25.7696 34.9291C26.1084 35.416 26.2354 36.0088 26.2354 37.2791C26.2142 42.5296 26.2354 47.759 26.2354 53.1577" fill="#797979"/>
<path fill-rule="evenodd" clip-rule="evenodd" d="M23.0329 33.9091C22.5917 33.7865 22.0832 33.8594 21.4349 34.3272L21.4318 34.3294C20.6187 34.9116 19.7999 35.6072 18.9469 36.3462C18.8385 36.4402 18.7294 36.535 18.6197 36.6302C17.8796 37.2731 17.1131 37.9388 16.3419 38.5386C15.2275 39.4054 13.7486 40.1511 12.196 39.4377C11.7028 39.2111 11.2547 38.8566 10.8437 38.38V52.1208H25.1766C25.1759 50.6641 25.174 49.218 25.1721 47.7791C25.1674 44.2521 25.1627 40.7684 25.1768 37.2776C25.1767 36.048 25.043 35.7395 24.902 35.5361C24.166 34.4909 23.5264 34.0463 23.0329 33.9091ZM26.2142 53.1582H27.294C27.294 51.3436 27.2916 49.5496 27.2892 47.7683C27.2845 44.2442 27.2799 40.7699 27.2939 37.2839L27.294 37.2796C27.294 35.9745 27.1745 35.0955 26.6386 34.3251L26.6353 34.3204C25.7631 33.081 24.7626 32.1925 23.5999 31.8693C22.385 31.5316 21.2216 31.871 20.1978 32.6091C19.2965 33.2546 18.4115 34.0089 17.5605 34.7462C17.449 34.8428 17.3382 34.939 17.2279 35.0348C16.4835 35.6812 15.7645 36.3056 15.0421 36.8675C14.0604 37.631 13.4857 37.7004 13.0799 37.5139C12.5426 37.267 11.7261 36.3672 10.8757 33.774L10.8514 33.7001L10.8166 33.6305C10.7273 33.4517 10.5312 33.1934 10.1714 33.0827C9.83377 32.9788 9.55296 33.0685 9.41772 33.1286C9.1899 33.2299 9.05264 33.3884 9.02544 33.4198C9.02444 33.4209 9.02358 33.4219 9.02288 33.4227C8.97355 33.4791 8.93764 33.5303 8.91944 33.5572C8.90884 33.5728 8.89998 33.5865 8.8932 33.5972L8.8841 33.6118L8.88046 33.6177L8.87886 33.6204L8.87776 33.6222C8.87768 33.6224 8.87742 33.6228 9.74662 34.1443L8.87776 33.6222L8.72656 33.8742V54.238H26.2142V53.1582Z" fill="#797979"/>
<path fill-rule="evenodd" clip-rule="evenodd" d="M12.8132 2.17574C12.6992 2.17574 12.6015 2.27343 12.6015 2.38746V5.09741C12.6015 5.21143 12.6992 5.30912 12.8132 5.30912H23.1661C23.2801 5.30912 23.3778 5.21143 23.3778 5.09741V2.38746C23.3778 2.27343 23.2801 2.17574 23.1661 2.17574H12.8132ZM10.4844 2.38746C10.4844 1.10416 11.5299 0.0585938 12.8132 0.0585938H23.1661C24.4494 0.0585938 25.495 1.10417 25.495 2.38746V5.09741C25.495 6.3807 24.4494 7.42627 23.1661 7.42627H12.8132C11.5299 7.42627 10.4844 6.3807 10.4844 5.09741V2.38746Z" fill="#797979"/>
</g>
<defs>
<clipPath id="clip0_8709_85342">
<rect width="35.3987" height="60" fill="white" transform="translate(0.300781 0.0585938)"/>
</clipPath>
</defs>
</svg>
