<?xml version="1.0" encoding="utf-8"?>
<!-- Generator: Adobe Illustrator 26.5.0, SVG Export Plug-In . SVG Version: 6.00 Build 0)  -->
<svg version="1.1" id="Layer_2_00000054235349912746950060000017256053168861776264_"
	 xmlns="http://www.w3.org/2000/svg" xmlns:xlink="http://www.w3.org/1999/xlink" x="0px" y="0px" viewBox="0 0 21 24"
	 style="enable-background:new 0 0 21 24;" xml:space="preserve">
<style type="text/css">
	.st0{fill:url(#SVGID_1_);}
</style>
<g id="Layer_1-2">
	
		<linearGradient id="SVGID_1_" gradientUnits="userSpaceOnUse" x1="16.3446" y1="4.6278" x2="2.509" y2="20.436" gradientTransform="matrix(1 0 0 -1 0 26)">
		<stop  offset="0" style="stop-color:#FEC82D"/>
		<stop  offset="8.000000e-02" style="stop-color:#E9BE3C"/>
		<stop  offset="0.31" style="stop-color:#B0A368"/>
		<stop  offset="0.53" style="stop-color:#828E8A"/>
		<stop  offset="0.73" style="stop-color:#627EA3"/>
		<stop  offset="0.89" style="stop-color:#4E75B2"/>
		<stop  offset="1" style="stop-color:#4772B8"/>
	</linearGradient>
	<path class="st0" d="M19.6,12.7c0-0.7,0.4-1.2,1-1.5c0.2-0.1,0.4-0.3,0.4-0.5V10c0-3.3-1.6-6.1-4-8c-0.2-0.1-0.5-0.1-0.7,0.1
		L6.2,12.2c-0.6,0.6-1.5,0.7-2.2,0.2C3.3,11.8,3.3,10.7,4,10l9.3-9.3c0.2-0.2,0.1-0.5-0.2-0.6C12.4,0.1,11.7,0,11,0H0.6
		C0.3,0,0,0.3,0,0.6V23c0,0.4,0.4,0.5,0.7,0.3l12.1-12.1c0.6-0.6,1.5-0.7,2.2-0.2c0.7,0.6,0.8,1.7,0.1,2.3L5,23.4
		C4.8,23.6,4.9,24,5.3,24H11c5.3,0,9.6-4.1,10-9.3c0-0.2-0.1-0.4-0.4-0.5C20,13.9,19.6,13.4,19.6,12.7L19.6,12.7z"/>
</g>
</svg>
