<svg width="150" height="40" viewBox="0 0 150 40" fill="none" xmlns="http://www.w3.org/2000/svg">
<g clip-path="url(#clip0_1213_29701)">
<path d="M22.0087 0C22.4973 0.0860664 22.9924 0.146313 23.4768 0.262503C26.3572 0.953186 28.9097 2.31949 31.2436 4.11828C34.8441 6.89392 36.9573 10.6314 38.136 14.9605C38.2282 15.2983 38.2967 15.6705 38.2582 16.0127C38.1596 16.8991 37.3452 17.5726 36.4279 17.5769C35.3885 17.5834 34.3512 17.5769 33.3117 17.5769C31.7494 17.5812 30.7142 18.7238 30.8214 20.2945C30.86 20.8561 30.9714 21.3789 31.2972 21.8458C31.7494 22.4935 32.3687 22.8205 33.1553 22.827C34.2697 22.8356 35.3863 22.8377 36.5008 22.8485C36.6829 22.8485 36.8672 22.8571 37.0451 22.8915C37.9281 23.0637 38.3932 23.7888 38.2667 24.6882C38.061 26.1384 37.5466 27.481 36.9015 28.7806C35.5406 31.5261 33.7425 33.9425 31.3829 35.9005C28.8818 37.9747 26.0143 39.2893 22.806 39.8251C22.2873 39.9112 21.7537 39.9477 21.2286 39.9499C14.7091 39.9585 8.18744 39.9542 1.66794 39.9542C0.697085 39.9542 0.0177022 39.2786 0.0134159 38.3039C0.00912956 37.5702 0.0112727 36.8364 0.0134159 36.1027C0.0177022 35.1775 0.619931 34.6482 1.54578 34.6676C2.79524 34.6955 4.04685 34.7084 5.29417 34.6547C6.49863 34.6009 7.15872 33.9833 7.42447 32.7913C7.58521 32.0748 7.53806 31.3583 7.21016 30.7021C6.74295 29.7682 5.91783 29.3465 4.91054 29.3121C3.83468 29.2755 2.75666 29.2798 1.6808 29.3013C0.834247 29.3164 -0.0551653 28.6924 0.0069864 27.6187C0.0477065 26.8979 0.0134159 26.1707 0.0155591 25.4477C0.0198454 24.4988 0.63922 23.8598 1.58221 23.8533C2.78453 23.8447 3.98684 23.8426 5.18915 23.8555C5.61564 23.8598 5.90711 23.6876 6.08285 23.3068C6.24359 22.9582 6.1793 22.6118 5.87711 22.302C5.14415 21.5489 4.3919 20.8173 3.67179 20.0535C2.52306 18.8356 1.39576 17.5963 0.25345 16.3677C0.0712813 16.1719 0.00484324 15.9546 0.00912956 15.6856C0.0198454 14.5474 0.0134159 13.407 0.0134159 12.2688C0.0134159 11.2295 0.628504 10.5991 1.67865 10.5883C2.8231 10.5776 3.96969 10.5517 5.112 10.5948C6.31646 10.6421 7.2273 9.8503 7.50163 8.6841C7.74809 7.63625 7.20158 6.1559 6.34861 5.60723C5.94998 5.35118 5.52992 5.19196 5.05199 5.19626C3.92683 5.20702 2.80167 5.20487 1.67651 5.21778C0.613502 5.23714 0.0112727 4.64974 0.0112727 3.57606C0.0112727 2.89183 0.00484324 2.20545 0.0219885 1.52122C0.0391338 0.757385 0.412044 0.284019 1.13643 0.0537915C1.17072 0.0430332 1.20073 0.0172133 1.23288 0C8.15744 0 15.0841 0 22.0087 0Z" fill="url(#paint0_linear_1213_29701)"/>
<path d="M50.2734 23.8361V1.51693C50.3356 1.50832 50.3827 1.49756 50.4299 1.49756C52.5752 1.49971 54.7184 1.4825 56.8637 1.51478C57.8581 1.52984 58.8311 1.73209 59.7291 2.19255C60.8414 2.76274 61.4843 3.70086 61.7694 4.89073C62.1208 6.35816 62.1508 7.83205 61.7158 9.29088C61.3429 10.5388 60.5328 11.3844 59.3133 11.8341C59.2426 11.86 59.174 11.8922 59.0347 11.9482C59.2169 11.9977 59.3369 12.0278 59.4569 12.0622C61.0621 12.5313 62.0801 13.5727 62.4766 15.2058C62.8345 16.6754 62.8495 18.1536 62.4659 19.6145C61.8572 21.9233 60.3142 23.2422 58.006 23.6769C57.4252 23.7866 56.8229 23.821 56.2293 23.8275C54.3647 23.8469 52.498 23.834 50.6313 23.834C50.5178 23.834 50.4063 23.834 50.2734 23.834V23.8361ZM52.6952 21.6091C53.8418 21.6091 54.9541 21.6199 56.0685 21.6027C56.48 21.5962 56.8937 21.5532 57.2987 21.4843C58.8247 21.2218 59.6905 20.3784 59.967 18.8851C60.1598 17.8502 60.1363 16.8109 59.9091 15.7824C59.7398 15.0121 59.414 14.3236 58.7475 13.8459C58.1517 13.4199 57.4702 13.1918 56.7565 13.1553C55.4342 13.0886 54.1076 13.0929 52.7831 13.067C52.7574 13.067 52.7316 13.0864 52.6931 13.1036V21.607L52.6952 21.6091ZM52.6974 10.995C53.4668 10.995 54.2061 11.0165 54.9434 10.9885C55.6228 10.9627 56.3086 10.9304 56.9794 10.8207C58.1967 10.6228 59.0325 9.95144 59.324 8.70132C59.5212 7.85572 59.5555 6.99936 59.4183 6.143C59.1804 4.66481 58.5739 3.99779 57.1316 3.67935C55.6806 3.35875 54.2061 3.49215 52.7381 3.50076C52.7295 3.50076 52.7231 3.51152 52.6974 3.52873V10.995Z" fill="#353635"/>
<path d="M149.999 12.669C149.963 14.769 149.851 16.8561 149.371 18.9066C149.153 19.8383 148.848 20.7399 148.362 21.5704C147.631 22.8162 146.572 23.6489 145.19 24.0491C143.726 24.473 142.247 24.4967 140.775 24.1244C138.846 23.6381 137.595 22.3751 136.849 20.5656C136.287 19.2079 136.024 17.7792 135.869 16.3268C135.632 14.0654 135.627 11.7997 135.814 9.53616C135.955 7.84065 136.221 6.16666 136.902 4.58949C137.878 2.33024 139.624 1.1748 142.037 0.985456C143.128 0.89939 144.208 0.959636 145.261 1.29099C147.155 1.88915 148.302 3.22964 148.962 5.0521C149.461 6.43131 149.704 7.86432 149.819 9.31884C149.909 10.4334 149.939 11.5523 149.995 12.669H149.999ZM147.352 12.669C147.352 12.2645 147.361 11.8578 147.352 11.4533C147.312 9.88042 147.226 8.31186 146.887 6.76912C146.731 6.06122 146.523 5.36839 146.109 4.75947C145.261 3.5072 144.005 3.14788 142.588 3.19952C140.852 3.26191 139.691 4.12688 139.091 5.7686C138.662 6.9391 138.469 8.16125 138.422 9.3963C138.351 11.1972 138.33 13.0003 138.353 14.8013C138.373 16.3074 138.54 17.805 138.983 19.2552C139.391 20.5849 140.143 21.6027 141.547 21.9857C142.425 22.2245 143.315 22.2116 144.196 21.9706C145.104 21.721 145.818 21.1896 146.238 20.3504C146.523 19.7802 146.744 19.1605 146.885 18.5366C147.325 16.6065 147.357 14.6356 147.357 12.6668L147.352 12.669Z" fill="#353635"/>
<path d="M101.467 1.50832H103.957V1.85473C103.957 6.82722 103.955 11.7976 103.959 16.7701C103.959 17.7469 104.034 18.7173 104.3 19.664C104.724 21.1723 105.682 21.9749 107.245 22.061C107.825 22.0933 108.423 22.0825 108.991 21.9771C110.579 21.6866 111.454 20.6194 111.784 19.1024C111.962 18.2805 112.067 17.4242 112.071 16.5829C112.097 11.6878 112.084 6.79495 112.084 1.89992V1.51477H114.516V1.84182C114.516 6.80355 114.521 11.7653 114.512 16.727C114.512 17.8351 114.493 18.954 114.206 20.032C113.723 21.8437 112.573 23.1088 110.854 23.7866C108.822 24.5892 106.752 24.5763 104.724 23.7457C102.8 22.9582 101.767 21.4693 101.597 19.3994C101.516 18.401 101.473 17.3962 101.471 16.3935C101.458 11.5673 101.464 6.73901 101.464 1.91283V1.50832H101.467Z" fill="#353635"/>
<path d="M86.6484 17.4005C86.3762 18.4785 86.1062 19.5521 85.8361 20.6258C85.5854 21.6263 85.3368 22.6269 85.0753 23.6231C85.0539 23.7048 84.9403 23.8232 84.8674 23.8253C84.1173 23.8382 83.3672 23.8339 82.6171 23.8296C82.5914 23.8296 82.5657 23.8124 82.5078 23.7931C84.5267 16.3677 86.5434 8.9423 88.5622 1.51261C88.6523 1.50616 88.7273 1.49755 88.8023 1.49755C89.696 1.49755 90.5918 1.50185 91.4855 1.49109C91.6805 1.48894 91.7706 1.53843 91.8241 1.73638C93.8387 9.06494 95.8576 16.3913 97.8764 23.7178C97.8807 23.7371 97.8807 23.7565 97.8893 23.8103C97.8079 23.8189 97.7286 23.8318 97.6493 23.8339C96.9849 23.8339 96.3226 23.8232 95.6583 23.8404C95.4289 23.8469 95.3496 23.7651 95.2939 23.5521C94.7839 21.5747 94.2588 19.6016 93.7444 17.6243C93.7037 17.4672 93.663 17.379 93.4679 17.379C91.2369 17.3876 89.0059 17.3854 86.7749 17.3854C86.747 17.3854 86.717 17.3919 86.6463 17.3983L86.6484 17.4005ZM90.2018 3.59327C90.1803 3.59327 90.1568 3.58896 90.1353 3.58681C89.1645 7.42322 88.1936 11.2575 87.2228 15.096H93.1122C92.137 11.2446 91.1683 7.41892 90.2018 3.59327Z" fill="#353635"/>
<path d="M78.9444 1.51477V3.80629H70.3931V10.9864H78.3721V13.2564H70.3888V21.4714H79.0194V23.8189H67.9199V1.51477H78.9444Z" fill="#353635"/>
<path d="M124.218 3.78908H118.564V1.51262H132.103V3.78693H126.79V23.8124H124.218V3.78908Z" fill="#353635"/>
<path d="M133.204 29.9468V39.7175H132.152V30.8699C132.124 30.8677 132.098 30.8634 132.07 30.8613C131.312 33.8112 130.551 36.7611 129.79 39.7218H128.714C127.981 36.7461 127.244 33.7617 126.509 30.7795C126.492 30.7817 126.477 30.786 126.459 30.7881V39.7175H125.396V29.949C125.973 29.949 126.545 29.9447 127.12 29.9576C127.173 29.9576 127.25 30.0781 127.27 30.1534C127.906 32.7139 128.538 35.2765 129.168 37.8391C129.194 37.9402 129.218 38.0435 129.256 38.2028C129.299 38.078 129.327 38.007 129.346 37.9359C130.006 35.3712 130.667 32.8064 131.318 30.2373C131.376 30.0092 131.466 29.9296 131.706 29.9404C132.195 29.9619 132.683 29.9468 133.204 29.9468Z" fill="#353635"/>
<path d="M143.272 36.632H144.305C144.318 36.8752 144.326 37.1032 144.343 37.3335C144.431 38.4502 145.153 39.0591 146.289 38.9752C147.301 38.8999 147.929 38.1081 147.86 37.0344C147.817 36.3588 147.528 35.8768 146.9 35.6186C146.242 35.3475 145.588 35.0721 144.92 34.8311C143.893 34.4589 143.482 33.6821 143.424 32.6515C143.394 32.1243 143.443 31.6079 143.66 31.1216C144.047 30.2524 144.753 29.8242 145.668 29.736C146.549 29.6499 147.387 29.7704 148.025 30.4697C148.535 31.027 148.645 31.709 148.612 32.4621H147.609C147.594 32.2986 147.592 32.1265 147.564 31.9608C147.423 31.0764 146.786 30.5794 145.918 30.6698C144.943 30.7709 144.408 31.3798 144.435 32.3115C144.457 33.0108 144.746 33.5121 145.398 33.7832C146.178 34.1081 146.958 34.4287 147.74 34.7515C148.3 34.9839 148.63 35.4228 148.777 35.9887C148.863 36.3114 148.904 36.6535 148.908 36.9871C148.923 37.9209 148.696 38.7708 147.927 39.3819C147.009 40.1113 145.271 40.1715 144.307 39.5023C144.12 39.3732 143.947 39.2054 143.814 39.0225C143.3 38.3146 143.227 37.4992 143.267 36.6342L143.272 36.632Z" fill="#353635"/>
<path d="M49.5215 36.6299H50.5845C50.5974 36.8601 50.6059 37.0796 50.6231 37.299C50.7152 38.4696 51.461 39.0914 52.6248 38.973C53.6364 38.8698 54.2364 38.0457 54.1379 36.9526C54.08 36.32 53.7907 35.8768 53.2163 35.6358C52.5433 35.3518 51.8682 35.0742 51.1824 34.8246C50.1794 34.4589 49.7658 33.6907 49.7165 32.688C49.6972 32.3158 49.7208 31.9307 49.8022 31.5692C50.053 30.4589 50.8995 29.7876 52.0911 29.7274C52.4062 29.7123 52.7277 29.7274 53.0384 29.7833C54.5301 30.0501 55.0358 31.4121 54.8622 32.4707H53.8914C53.8828 32.3631 53.8742 32.2512 53.8678 32.1394C53.8057 31.184 53.167 30.5945 52.269 30.659C51.251 30.7343 50.6981 31.3562 50.7281 32.333C50.7495 33.0258 51.0453 33.5121 51.6796 33.7789C52.2369 34.0135 52.8027 34.2308 53.362 34.4567C53.5228 34.5213 53.6792 34.5966 53.84 34.6568C54.6415 34.9645 55.0744 35.5691 55.1494 36.404C55.1944 36.8967 55.1966 37.4152 55.1001 37.8972C54.8472 39.1667 53.87 39.9176 52.4983 39.9542C52.1833 39.9628 51.8618 39.9456 51.5511 39.8875C50.443 39.6788 49.7572 38.9257 49.6008 37.7487C49.5536 37.3894 49.5493 37.0236 49.5215 36.6299Z" fill="#353635"/>
<path d="M84.3918 32.46C84.3618 32.2383 84.3489 32.006 84.2975 31.7843C84.1175 31.014 83.5045 30.5837 82.718 30.6612C81.7943 30.7515 81.2499 31.2787 81.2199 32.1092C81.1856 33.028 81.4385 33.4605 82.2829 33.8284C82.9066 34.1017 83.5409 34.3534 84.1818 34.5837C85.174 34.943 85.6241 35.6702 85.6777 36.6966C85.7227 37.5702 85.6177 38.4007 85.0154 39.0806C84.3253 39.8595 83.4059 40.0295 82.4351 39.937C80.8663 39.7864 80.0797 38.8526 80.039 37.1635C80.0347 36.9914 80.039 36.8214 80.039 36.6342H81.0677C81.0956 36.9419 81.1042 37.2582 81.1577 37.5659C81.3271 38.5255 81.9529 39.0096 82.9559 38.9816C83.8946 38.9537 84.4947 38.405 84.6168 37.4647C84.739 36.5245 84.4754 35.993 83.6224 35.5992C82.9966 35.3109 82.3472 35.0635 81.6978 34.8311C80.6948 34.4718 80.249 33.7079 80.2126 32.7074C80.1933 32.1996 80.264 31.6574 80.4334 31.1797C80.7698 30.2351 81.5457 29.8091 82.5079 29.736C82.8851 29.7058 83.2838 29.7274 83.6524 29.8113C84.8547 30.0845 85.5041 31.1023 85.3691 32.4643H84.3982L84.3918 32.46Z" fill="#353635"/>
<path d="M115.394 38.6847V39.724H110.553V29.9597H115.362V30.971H111.646V34.0974H115.122V35.0871H111.646V38.6826H115.394V38.6847Z" fill="#353635"/>
<path d="M64.1699 29.9468C64.59 29.9468 64.9715 29.9339 65.3529 29.9576C65.4301 29.9619 65.5265 30.0867 65.5673 30.1749C66.2102 31.595 66.8446 33.0194 67.4811 34.4438C67.5154 34.5212 67.554 34.5987 67.6161 34.73C67.8733 34.1813 68.1133 33.6756 68.3491 33.17C68.8184 32.1673 69.2921 31.1668 69.7529 30.1598C69.83 29.9941 69.92 29.9339 70.1001 29.9425C70.4044 29.9576 70.7087 29.9468 71.0602 29.9468C70.8073 30.4697 70.578 30.9538 70.3444 31.4358C69.6478 32.8731 68.947 34.3104 68.2569 35.7498C68.1883 35.8919 68.1583 36.0618 68.1562 36.2211C68.1476 37.2818 68.1519 38.3447 68.1519 39.4055C68.1519 39.5088 68.1519 39.6121 68.1519 39.7261H67.0353V39.4163C67.0353 38.3641 67.0439 37.3119 67.0289 36.2598C67.0268 36.0468 66.971 35.8208 66.8789 35.6293C66.0259 33.8284 65.1601 32.0339 64.2964 30.2373C64.2556 30.1534 64.2235 30.0673 64.1721 29.9468H64.1699Z" fill="#353635"/>
<path d="M98.6604 39.7261H97.5096V30.9646H95.0449V29.9705H100.947V30.9538H98.6626V39.7261H98.6604Z" fill="#353635"/>
</g>
<defs>
<linearGradient id="paint0_linear_1213_29701" x1="25.157" y1="11.7696" x2="-6.38963" y2="33.5501" gradientUnits="userSpaceOnUse">
<stop stop-color="#476BB3"/>
<stop offset="0.67" stop-color="#495278"/>
</linearGradient>
<clipPath id="clip0_1213_29701">
<rect width="150" height="39.9671" fill="white"/>
</clipPath>
</defs>
</svg>
