<svg width="296" height="340" viewBox="0 0 296 340" fill="none" xmlns="http://www.w3.org/2000/svg">
<g clip-path="url(#clip0_1581_34103)">
<path d="M295.559 268.49H0.888672V268.66H295.559V268.49Z" fill="#ECECEC"/>
<path d="M287.71 279.72H264.6V279.89H287.71V279.72Z" fill="#ECECEC"/>
<path d="M204.9 281.61H198.83V281.78H204.9V281.61Z" fill="#ECECEC"/>
<path d="M263.9 273.24H250.51V273.41H263.9V273.24Z" fill="#ECECEC"/>
<path d="M40.5189 274.41H10.3789V274.58H40.5189V274.41Z" fill="#ECECEC"/>
<path d="M51.1602 274.41H46.7402V274.58H51.1602V274.41Z" fill="#ECECEC"/>
<path d="M130.89 277.36H65.5195V277.53H130.89V277.36Z" fill="#ECECEC"/>
<path d="M139.159 237.37H4.41945C2.21945 237.37 0.439453 235.58 0.439453 233.39V43.98C0.439453 41.79 2.22945 40 4.41945 40H139.159C141.359 40 143.139 41.79 143.139 43.98V233.38C143.139 235.58 141.349 237.36 139.159 237.36V237.37ZM4.41945 40.17C2.31945 40.17 0.609453 41.88 0.609453 43.98V233.38C0.609453 235.48 2.31945 237.19 4.41945 237.19H139.159C141.259 237.19 142.969 235.48 142.969 233.38V43.98C142.969 41.88 141.259 40.17 139.159 40.17H4.41945Z" fill="#ECECEC"/>
<path d="M290.089 237.37H155.349C153.149 237.37 151.369 235.58 151.369 233.39V43.98C151.369 41.78 153.159 40 155.349 40H290.089C292.289 40 294.069 41.79 294.069 43.98V233.38C294.069 235.58 292.279 237.36 290.089 237.36V237.37ZM155.349 40.17C153.249 40.17 151.539 41.88 151.539 43.98V233.38C151.539 235.48 153.249 237.19 155.349 237.19H290.089C292.189 237.19 293.899 235.48 293.899 233.38V43.98C293.899 41.88 292.189 40.17 290.089 40.17H155.349Z" fill="#ECECEC"/>
<g opacity="0.5">
<path d="M274.549 111.94H151.539V267.71H274.549V111.94Z" fill="#F0F0F0"/>
<path d="M270.199 117.61H155.879V150.92H270.199V117.61Z" fill="#E1E1E1"/>
<path d="M162.369 123.01H155.879V150.93H162.369V123.01Z" fill="#ECECEC"/>
<path d="M193.769 123.01H187.279V150.93H193.769V123.01Z" fill="#ECECEC"/>
<path d="M229.427 122.302L223.031 123.404L227.774 150.918L234.17 149.816L229.427 122.302Z" fill="#ECECEC"/>
<path d="M170.42 126.69H163.93V150.93H170.42V126.69Z" fill="#ECECEC"/>
<path d="M185.349 126.69H178.859V150.93H185.349V126.69Z" fill="#ECECEC"/>
<path d="M223.019 126.69H216.529V150.93H223.019V126.69Z" fill="#ECECEC"/>
<path d="M202.302 125.844L195.967 127.252L201.226 150.914L207.561 149.506L202.302 125.844Z" fill="#ECECEC"/>
<path d="M176.039 121.62H172.789V150.92H176.039V121.62Z" fill="#ECECEC"/>
<path d="M214.668 121.62H211.418V150.92H214.668V121.62Z" fill="#ECECEC"/>
<path d="M155.879 189.5H270.199V156.19H155.879V189.5Z" fill="#E1E1E1"/>
<path d="M263.709 189.51H270.199V161.59H263.709V189.51Z" fill="#ECECEC"/>
<path d="M232.309 189.51H238.799V161.59H232.309V189.51Z" fill="#ECECEC"/>
<path d="M191.925 188.4L198.32 189.502L203.063 161.988L196.667 160.885L191.925 188.4Z" fill="#ECECEC"/>
<path d="M255.658 189.51H262.148V165.27H255.658V189.51Z" fill="#ECECEC"/>
<path d="M240.739 189.51H247.229V165.27H240.739V189.51Z" fill="#ECECEC"/>
<path d="M203.059 189.51H209.549V165.27H203.059V189.51Z" fill="#ECECEC"/>
<path d="M218.524 188.09L224.859 189.498L230.118 165.835L223.783 164.427L218.524 188.09Z" fill="#ECECEC"/>
<path d="M250.039 189.51H253.289V160.21H250.039V189.51Z" fill="#ECECEC"/>
<path d="M211.408 189.51H214.658V160.21H211.408V189.51Z" fill="#ECECEC"/>
<path d="M162.369 161.59H155.879V189.51H162.369V161.59Z" fill="#ECECEC"/>
<path d="M170.42 165.27H163.93V189.51H170.42V165.27Z" fill="#ECECEC"/>
<path d="M185.349 165.27H178.859V189.51H185.349V165.27Z" fill="#ECECEC"/>
<path d="M176.039 160.2H172.789V189.5H176.039V160.2Z" fill="#ECECEC"/>
<path d="M270.199 194.78H155.879V228.09H270.199V194.78Z" fill="#E1E1E1"/>
<path d="M227.99 200.17H221.5V228.09H227.99V200.17Z" fill="#ECECEC"/>
<path d="M263.638 199.469L257.242 200.572L261.985 228.086L268.381 226.984L263.638 199.469Z" fill="#ECECEC"/>
<path d="M204.629 203.85H198.139V228.09H204.629V203.85Z" fill="#ECECEC"/>
<path d="M219.56 203.85H213.07V228.09H219.56V203.85Z" fill="#ECECEC"/>
<path d="M257.23 203.85H250.74V228.09H257.23V203.85Z" fill="#ECECEC"/>
<path d="M236.521 203.014L230.186 204.422L235.444 228.084L241.78 226.676L236.521 203.014Z" fill="#ECECEC"/>
<path d="M210.25 198.79H207V228.09H210.25V198.79Z" fill="#ECECEC"/>
<path d="M248.879 198.79H245.629V228.09H248.879V198.79Z" fill="#ECECEC"/>
<path d="M188.923 199.47L182.527 200.573L187.27 228.087L193.666 226.984L188.923 199.47Z" fill="#ECECEC"/>
<path d="M182.519 203.85H176.029V228.09H182.519V203.85Z" fill="#ECECEC"/>
<path d="M161.81 203.012L155.475 204.42L160.733 228.083L167.069 226.675L161.81 203.012Z" fill="#ECECEC"/>
<path d="M174.17 198.79H170.92V228.09H174.17V198.79Z" fill="#ECECEC"/>
<path d="M101.28 102.71H10.2598V107.39H101.28V102.71Z" fill="#E1E1E1"/>
<path d="M18.4592 85.47H14.4492V102.71H18.4592V85.47Z" fill="#ECECEC"/>
<path d="M37.8498 85.47H33.8398V102.71H37.8498V85.47Z" fill="#ECECEC"/>
<path d="M59.8619 85.0457L55.9102 85.7269L58.8386 102.716L62.7904 102.035L59.8619 85.0457Z" fill="#ECECEC"/>
<path d="M23.4299 87.75H19.4199V102.72H23.4299V87.75Z" fill="#ECECEC"/>
<path d="M32.6389 87.75H28.6289V102.72H32.6389V87.75Z" fill="#ECECEC"/>
<path d="M55.9104 87.75H51.9004V102.72H55.9104V87.75Z" fill="#ECECEC"/>
<path d="M43.1157 87.2271L39.2012 88.0971L42.4489 102.711L46.3634 101.841L43.1157 87.2271Z" fill="#ECECEC"/>
<path d="M26.8906 84.62H24.8906V102.71H26.8906V84.62Z" fill="#ECECEC"/>
<path d="M50.7502 84.62H48.7402V102.71H50.7502V84.62Z" fill="#ECECEC"/>
<path d="M92.5498 89.07H73.0098V102.56H92.5498V89.07Z" fill="#ECECEC"/>
<path d="M10.2593 142.3H101.279V137.62H10.2593V142.3Z" fill="#E1E1E1"/>
<path d="M93.0798 137.63H97.0898V120.39H93.0798V137.63Z" fill="#ECECEC"/>
<path d="M73.6892 137.63H77.6992V120.39H73.6892V137.63Z" fill="#ECECEC"/>
<path d="M48.7494 136.943L52.7012 137.624L55.6297 120.635L51.6779 119.954L48.7494 136.943Z" fill="#ECECEC"/>
<path d="M88.1091 137.62H92.1191V122.65H88.1091V137.62Z" fill="#ECECEC"/>
<path d="M78.9002 137.62H82.9102V122.65H78.9002V137.62Z" fill="#ECECEC"/>
<path d="M55.6306 137.62H59.6406V122.65H55.6306V137.62Z" fill="#ECECEC"/>
<path d="M65.1812 136.747L69.0957 137.617L72.3435 123.003L68.429 122.133L65.1812 136.747Z" fill="#ECECEC"/>
<path d="M84.6504 137.62H86.6504V119.53H84.6504V137.62Z" fill="#ECECEC"/>
<path d="M60.7988 137.62H62.7988V119.53H60.7988V137.62Z" fill="#ECECEC"/>
<path d="M18.9991 137.47H38.5391V123.98H18.9991V137.47Z" fill="#ECECEC"/>
</g>
<path d="M148.229 300C222.948 300 283.519 296.463 283.519 292.1C283.519 287.737 222.948 284.2 148.229 284.2C73.5108 284.2 12.9395 287.737 12.9395 292.1C12.9395 296.463 73.5108 300 148.229 300Z" fill="#F5F5F5"/>
<path d="M33.12 276.95C33.12 276.95 36.13 270.39 32.69 263.92C29.25 257.45 28.26 255.93 30.45 254.6C32.64 253.27 33.65 259.77 33.65 259.77C33.65 259.77 35.5 255.3 33.97 250.62C32.45 245.94 31.49 238.32 33.57 237.5C35.65 236.68 33.97 247.01 35.77 250.53C35.77 250.53 37.29 246.61 37.54 242.85C37.79 239.09 37.4 233.09 39.04 231.55C40.68 230.01 41.74 231.08 40.12 239.37C38.5 247.66 38.52 254.41 38.52 254.41C38.52 254.41 42.09 243.53 44.48 243.21C46.88 242.89 46.87 246.42 44.82 249.47C42.77 252.52 38.82 258 38.17 260.82C38.17 260.82 42.09 252.63 45.61 255.14C49.13 257.65 42.54 262.6 39.61 264.38C36.67 266.17 34.63 277.37 34.63 277.37L33.12 276.94V276.95Z" fill="#2673E5"/>
<g opacity="0.6">
<path d="M33.12 276.95C33.12 276.95 36.13 270.39 32.69 263.92C29.25 257.45 28.26 255.93 30.45 254.6C32.64 253.27 33.65 259.77 33.65 259.77C33.65 259.77 35.5 255.3 33.97 250.62C32.45 245.94 31.49 238.32 33.57 237.5C35.65 236.68 33.97 247.01 35.77 250.53C35.77 250.53 37.29 246.61 37.54 242.85C37.79 239.09 37.4 233.09 39.04 231.55C40.68 230.01 41.74 231.08 40.12 239.37C38.5 247.66 38.52 254.41 38.52 254.41C38.52 254.41 42.09 243.53 44.48 243.21C46.88 242.89 46.87 246.42 44.82 249.47C42.77 252.52 38.82 258 38.17 260.82C38.17 260.82 42.09 252.63 45.61 255.14C49.13 257.65 42.54 262.6 39.61 264.38C36.67 266.17 34.63 277.37 34.63 277.37L33.12 276.94V276.95Z" fill="white"/>
</g>
<path d="M35.5009 279.64C35.5009 279.64 32.5709 273.03 36.0809 266.62C39.5909 260.21 40.6109 258.69 38.4309 257.34C36.2609 255.98 35.1709 262.47 35.1709 262.47C35.1709 262.47 33.3809 257.97 34.9609 253.32C36.5409 248.66 37.5909 241.06 35.5209 240.21C33.4509 239.36 35.0109 249.71 33.1609 253.2C33.1609 253.2 31.6909 249.26 31.4909 245.5C31.2909 241.74 31.7509 235.74 30.1209 234.18C28.4909 232.62 27.4309 233.67 28.9409 241.98C30.4609 250.3 30.3609 257.04 30.3609 257.04C30.3609 257.04 26.9209 246.11 24.5309 245.75C22.1409 245.4 22.1009 248.92 24.1109 252.01C26.1209 255.1 30.0109 260.63 30.6309 263.46C30.6309 263.46 26.8109 255.21 23.2609 257.67C19.7109 260.13 26.2409 265.17 29.1509 267C32.0609 268.83 33.9709 280.06 33.9709 280.06L35.4909 279.65L35.5009 279.64Z" fill="#2673E5"/>
<g opacity="0.7">
<path d="M35.5009 279.64C35.5009 279.64 32.5709 273.03 36.0809 266.62C39.5909 260.21 40.6109 258.69 38.4309 257.34C36.2609 255.98 35.1709 262.47 35.1709 262.47C35.1709 262.47 33.3809 257.97 34.9609 253.32C36.5409 248.66 37.5909 241.06 35.5209 240.21C33.4509 239.36 35.0109 249.71 33.1609 253.2C33.1609 253.2 31.6909 249.26 31.4909 245.5C31.2909 241.74 31.7509 235.74 30.1209 234.18C28.4909 232.62 27.4309 233.67 28.9409 241.98C30.4609 250.3 30.3609 257.04 30.3609 257.04C30.3609 257.04 26.9209 246.11 24.5309 245.75C22.1409 245.4 22.1009 248.92 24.1109 252.01C26.1209 255.1 30.0109 260.63 30.6309 263.46C30.6309 263.46 26.8109 255.21 23.2609 257.67C19.7109 260.13 26.2409 265.17 29.1509 267C32.0609 268.83 33.9709 280.06 33.9709 280.06L35.4909 279.65L35.5009 279.64Z" fill="white"/>
</g>
<path d="M21.9902 274.94H46.1802L44.2302 292.25H23.9502L21.9902 274.94Z" fill="#2673E5"/>
<path d="M241.669 265.66H231.949V292.25H241.669V265.66Z" fill="#2673E5"/>
<g opacity="0.3">
<path d="M241.669 265.66H238.869V292.25H241.669V265.66Z" fill="black"/>
</g>
<path d="M262.259 279.08H241.119V292.25H262.259V279.08Z" fill="#2673E5"/>
<g opacity="0.4">
<path d="M254.289 279.08H241.119V292.25H254.289V279.08Z" fill="white"/>
</g>
<path d="M189.049 259.14H171.199V292.24H189.049V259.14Z" fill="#2673E5"/>
<g opacity="0.3">
<path d="M189.039 259.14H178.469V292.24H189.039V259.14Z" fill="black"/>
</g>
<path d="M216.959 259.14H199.109V292.24H216.959V259.14Z" fill="#2673E5"/>
<g opacity="0.3">
<path d="M216.949 259.14H206.379V292.24H216.949V259.14Z" fill="black"/>
</g>
<path d="M199.159 243.76H185.909L161.799 259.14H175.059H210.009H223.269L199.159 243.76Z" fill="#2673E5"/>
<g opacity="0.4">
<path d="M185.909 243.76L161.799 259.14H175.059H210.009L185.909 243.76Z" fill="white"/>
</g>
<path d="M227.509 285.18C227.509 289.08 224.349 292.24 220.449 292.24C216.839 292.24 213.859 289.53 213.439 286.03C213.399 285.75 213.379 285.46 213.379 285.18C213.379 281.29 216.539 278.12 220.439 278.12C222.149 278.12 223.709 278.73 224.929 279.73C226.489 281.03 227.489 283 227.489 285.18H227.509Z" fill="#2673E5"/>
<g opacity="0.4">
<path d="M225.599 282.6C225.599 286.22 222.659 289.17 219.029 289.17C216.659 289.17 214.589 287.91 213.429 286.04C213.389 285.76 213.369 285.47 213.369 285.19C213.369 281.3 216.529 278.13 220.429 278.13C222.139 278.13 223.699 278.74 224.919 279.74C225.339 280.61 225.579 281.58 225.579 282.61L225.599 282.6Z" fill="white"/>
</g>
<path d="M153.809 61.95H131.949C130.016 61.95 128.449 63.517 128.449 65.45V87.31C128.449 89.243 130.016 90.81 131.949 90.81H153.809C155.742 90.81 157.309 89.243 157.309 87.31V65.45C157.309 63.517 155.742 61.95 153.809 61.95Z" fill="#1A2E35"/>
<path d="M138.389 68.42L134.309 71.29V84.35H147.379L151.449 81.49V68.42H138.389Z" fill="#2673E5"/>
<g opacity="0.2">
<path d="M147.369 71.29H134.309V84.35H147.369V71.29Z" fill="white"/>
</g>
<g opacity="0.2">
<path d="M151.449 68.42H138.389V81.48H151.449V68.42Z" fill="white"/>
</g>
<g opacity="0.6">
<path d="M134.309 71.29L138.389 68.42H151.449L147.379 71.29H134.309Z" fill="white"/>
</g>
<g opacity="0.3">
<path d="M151.449 68.42V81.49L147.379 84.35V71.29L151.449 68.42Z" fill="black"/>
</g>
<g opacity="0.3">
<path d="M134.309 84.35L138.389 81.49H151.449L147.379 84.35H134.309Z" fill="black"/>
</g>
<path d="M185.139 61.95H163.279C161.346 61.95 159.779 63.517 159.779 65.45V87.31C159.779 89.243 161.346 90.81 163.279 90.81H185.139C187.072 90.81 188.639 89.243 188.639 87.31V65.45C188.639 63.517 187.072 61.95 185.139 61.95Z" fill="#1A2E35"/>
<path d="M183.15 68.42C183.15 68.42 183.14 68.38 183.13 68.36C183.13 68.34 183.13 68.33 183.13 68.31C183.13 68.3 183.11 68.29 183.11 68.28C183.1 68.25 183.08 68.22 183.05 68.19C183.04 68.17 183.03 68.16 183.01 68.15C183 68.14 182.98 68.13 182.97 68.12C182.97 68.12 182.96 68.1 182.95 68.1C182.91 68.08 182.87 68.08 182.83 68.08C182.81 68.08 182.8 68.06 182.78 68.06H169.72C169.64 68.06 169.57 68.08 169.51 68.13L165.43 70.99C165.43 70.99 165.42 71.01 165.41 71.02C165.39 71.04 165.38 71.06 165.36 71.09C165.32 71.14 165.3 71.19 165.29 71.25C165.29 71.27 165.27 71.28 165.27 71.3V84.36C165.27 84.36 165.3 84.43 165.31 84.46C165.32 84.5 165.31 84.54 165.33 84.57C165.33 84.57 165.35 84.57 165.36 84.58C165.43 84.66 165.52 84.72 165.63 84.72H178.69C178.76 84.72 178.84 84.7 178.9 84.65L182.98 81.79C182.98 81.79 183 81.77 183.01 81.76C183.02 81.75 183.03 81.74 183.04 81.72C183.1 81.65 183.14 81.58 183.14 81.49V68.43L183.15 68.42ZM179.07 81.11V71.47L180.38 70.55L182.41 69.12V81.11H179.07ZM166.01 71.65H169.35V81.29L166.01 83.64V71.65ZM169.83 81.85H178.33V83.98H166.8L169.83 81.85ZM170.08 81.11V71.65H178.33V81.11H170.08ZM181.61 68.78L180.48 69.57L178.58 70.9H170.08V68.77H181.61V68.78ZM169.34 69.12V70.91H166.8L169.34 69.12ZM179.06 81.84H181.6L179.06 83.63V81.84Z" fill="#2673E5"/>
<g opacity="0.2">
<path d="M183.13 68.36C183.13 68.36 183.13 68.33 183.13 68.31C183.13 68.3 183.11 68.29 183.11 68.28C183.1 68.25 183.08 68.22 183.05 68.19C183.04 68.17 183.03 68.16 183.01 68.15C183 68.14 182.98 68.13 182.97 68.12C182.97 68.12 182.96 68.1 182.95 68.1C182.91 68.08 182.87 68.08 182.83 68.08C182.81 68.08 182.8 68.06 182.78 68.06H169.72C169.64 68.06 169.57 68.08 169.51 68.13L165.43 70.99C165.43 70.99 165.42 71.01 165.41 71.02C165.39 71.04 165.38 71.06 165.36 71.09C165.32 71.14 165.3 71.19 165.29 71.25C165.29 71.27 165.27 71.28 165.27 71.3V84.36C165.27 84.36 165.3 84.43 165.31 84.46C165.32 84.5 165.31 84.54 165.33 84.57C165.33 84.57 165.35 84.57 165.36 84.58C165.43 84.66 165.52 84.72 165.63 84.72H178.69C178.76 84.72 178.84 84.7 178.9 84.65L182.98 81.79C182.98 81.79 183 81.77 183.01 81.76C183.02 81.75 183.03 81.74 183.04 81.72C183.1 81.65 183.14 81.58 183.14 81.49V68.43C183.14 68.43 183.13 68.39 183.12 68.37L183.13 68.36ZM169.35 69.13V70.92H166.81L169.35 69.13ZM166.01 71.65H169.35V81.29L166.01 83.64V71.65ZM178.34 83.98H166.81L169.84 81.85H178.34V83.98ZM178.34 81.12H170.09V71.66H178.34V81.12ZM178.59 70.92H170.09V68.79H181.62L180.49 69.58L178.59 70.91V70.92ZM179.07 83.64V81.85H181.61L179.07 83.64ZM182.41 81.12H179.07V71.48L180.38 70.56L182.41 69.13V81.12Z" fill="white"/>
</g>
<path d="M122.479 61.95H100.619C98.6861 61.95 97.1191 63.517 97.1191 65.45V87.31C97.1191 89.243 98.6861 90.81 100.619 90.81H122.479C124.412 90.81 125.979 89.243 125.979 87.31V65.45C125.979 63.517 124.412 61.95 122.479 61.95Z" fill="#1A2E35"/>
<path d="M107.059 68.42L102.979 71.29V84.35H116.049L120.119 81.49V68.42H107.059Z" fill="#2673E5"/>
<g opacity="0.6">
<path d="M102.979 71.29L107.059 68.42H120.119L116.049 71.29H102.979Z" fill="white"/>
</g>
<g opacity="0.3">
<path d="M120.119 68.42V81.49L116.049 84.35V71.29L120.119 68.42Z" fill="black"/>
</g>
<g opacity="0.2">
<path d="M107.059 68.42L102.979 71.29V84.35H116.049L120.119 81.49V68.42H107.059Z" fill="white"/>
</g>
<path d="M286.579 199.82L286.799 199.73H93.7191L93.4991 199.82H93.2491L13.2891 233.27H13.5391L13.3191 233.36H206.389L206.609 233.27H206.859L286.829 199.82H286.579ZM274.969 204.51H258.079L269.069 199.91H285.959L274.969 204.51ZM112.029 214.25H128.919L117.929 218.85H101.039L112.029 214.25ZM100.389 218.85H83.4991L94.4891 214.25H111.379L100.389 218.85ZM181.969 214.07H165.079L176.069 209.47H192.959L181.969 214.07ZM193.609 209.47H210.499L199.509 214.07H182.619L193.609 209.47ZM147.109 214.25H163.999L153.009 218.85H136.119L147.109 214.25ZM135.469 218.85H118.579L129.569 214.25H146.459L135.469 218.85ZM164.649 214.25H181.539L170.549 218.85H153.659L164.649 214.25ZM164.439 214.07H147.549L158.539 209.47H175.429L164.439 214.07ZM146.899 214.07H130.009L140.999 209.47H157.889L146.899 214.07ZM129.359 214.07H112.469L123.459 209.47H140.349L129.359 214.07ZM117.499 219.03L106.509 223.63H89.6191L100.609 219.03H117.499ZM118.149 219.03H135.039L124.049 223.63H107.159L118.149 219.03ZM135.689 219.03H152.579L141.589 223.63H124.699L135.689 219.03ZM153.229 219.03H170.119L159.129 223.63H142.239L153.229 219.03ZM170.769 219.03H187.659L176.669 223.63H159.779L170.769 219.03ZM171.209 218.85L182.199 214.25H199.089L188.099 218.85H171.209ZM199.729 214.25H216.619L205.629 218.85H188.739L199.729 214.25ZM200.169 214.07L211.159 209.47H228.049L217.059 214.07H200.169ZM211.589 209.29L222.579 204.69H239.469L228.479 209.29H211.589ZM210.939 209.29H194.049L205.039 204.69H221.929L210.939 209.29ZM193.399 209.29H176.509L187.499 204.69H204.389L193.399 209.29ZM175.859 209.29H158.969L169.959 204.69H186.849L175.859 209.29ZM158.319 209.29H141.429L152.419 204.69H169.309L158.319 209.29ZM140.779 209.29H123.889L134.879 204.69H151.769L140.779 209.29ZM123.239 209.29H106.349L117.339 204.69H134.229L123.239 209.29ZM122.799 209.47L111.809 214.07H94.9191L105.909 209.47H122.799ZM94.2691 214.07H77.3791L88.3691 209.47H105.259L94.2691 214.07ZM93.8291 214.25L82.8391 218.85H65.9491L76.9391 214.25H93.8291ZM82.4091 219.03L71.4191 223.63H54.5291L65.5191 219.03H82.4091ZM83.0591 219.03H99.9491L88.9591 223.63H72.0691L83.0591 219.03ZM88.5191 223.81L77.5291 228.41H60.6391L71.6291 223.81H88.5191ZM89.1691 223.81H106.059L95.0691 228.41H78.1791L89.1691 223.81ZM106.709 223.81H123.599L112.609 228.41H95.7191L106.709 223.81ZM124.249 223.81H141.139L130.149 228.41H113.259L124.249 223.81ZM141.789 223.81H158.679L147.689 228.41H130.799L141.789 223.81ZM159.329 223.81H176.219L165.229 228.41H148.339L159.329 223.81ZM176.869 223.81H193.759L182.769 228.41H165.879L176.869 223.81ZM177.309 223.63L188.299 219.03H205.189L194.199 223.63H177.309ZM205.839 219.03H222.729L211.739 223.63H194.849L205.839 219.03ZM206.279 218.85L217.269 214.25H234.159L223.169 218.85H206.279ZM217.699 214.07L228.689 209.47H245.579L234.589 214.07H217.699ZM229.119 209.29L240.109 204.69H256.999L246.009 209.29H229.119ZM240.539 204.51L251.529 199.91H268.419L257.429 204.51H240.539ZM239.889 204.51H222.999L233.989 199.91H250.879L239.889 204.51ZM222.349 204.51H205.459L216.449 199.91H233.339L222.349 204.51ZM204.809 204.51H187.919L198.909 199.91H215.799L204.809 204.51ZM187.269 204.51H170.379L181.369 199.91H198.259L187.269 204.51ZM169.729 204.51H152.839L163.829 199.91H180.719L169.729 204.51ZM152.189 204.51H135.299L146.289 199.91H163.179L152.189 204.51ZM134.649 204.51H117.759L128.749 199.91H145.639L134.649 204.51ZM117.109 204.51H100.219L111.209 199.91H128.099L117.109 204.51ZM116.669 204.69L105.679 209.29H88.7891L99.7791 204.69H116.669ZM88.1391 209.29H71.2491L82.2391 204.69H99.1291L88.1391 209.29ZM87.6991 209.47L76.7091 214.07H59.8191L70.8091 209.47H87.6991ZM76.2791 214.25L65.2891 218.85H48.3991L59.3891 214.25H76.2791ZM64.8591 219.03L53.8691 223.63H36.9791L47.9691 219.03H64.8591ZM53.4391 223.81L42.4491 228.41H25.5791L36.5691 223.81H53.4591H53.4391ZM54.0891 223.81H70.9791L59.9891 228.41H43.0991L54.0891 223.81ZM59.5491 228.59L48.5591 233.19H31.6991L42.6891 228.59H59.5791H59.5491ZM60.1991 228.59H77.0891L66.0991 233.19H49.2091L60.1991 228.59ZM77.7391 228.59H94.6291L83.6391 233.19H66.7491L77.7391 228.59ZM95.2791 228.59H112.169L101.179 233.19H84.2891L95.2791 228.59ZM112.819 228.59H129.709L118.719 233.19H101.829L112.819 228.59ZM130.359 228.59H147.249L136.259 233.19H119.369L130.359 228.59ZM147.899 228.59H164.789L153.799 233.19H136.909L147.899 228.59ZM165.439 228.59H182.329L171.339 233.19H154.449L165.439 228.59ZM182.979 228.59H199.869L188.879 233.19H171.989L182.979 228.59ZM183.419 228.41L194.409 223.81H211.299L200.309 228.41H183.419ZM211.949 223.81H228.839L217.849 228.41H200.959L211.949 223.81ZM212.389 223.63L223.379 219.03H240.269L229.279 223.63H212.389ZM223.809 218.85L234.799 214.25H251.689L240.699 218.85H223.809ZM235.229 214.07L246.219 209.47H263.109L252.119 214.07H235.229ZM246.649 209.29L257.639 204.69H274.529L263.539 209.29H246.649ZM110.559 199.92L99.5691 204.52H82.6791L93.6691 199.92H110.559ZM25.1291 228.59H42.0191L31.0291 233.19H14.1591L25.1491 228.59H25.1291ZM189.529 233.19L200.519 228.59H217.409L206.419 233.19H189.529Z" fill="#2673E5"/>
<g opacity="0.4">
<path d="M286.579 199.82L286.799 199.73H93.7191L93.4991 199.82H93.2491L13.2891 233.27H13.5391L13.3191 233.36H206.389L206.609 233.27H206.859L286.829 199.82H286.579ZM274.969 204.51H258.079L269.069 199.91H285.959L274.969 204.51ZM112.029 214.25H128.919L117.929 218.85H101.039L112.029 214.25ZM100.389 218.85H83.4991L94.4891 214.25H111.379L100.389 218.85ZM181.969 214.07H165.079L176.069 209.47H192.959L181.969 214.07ZM193.609 209.47H210.499L199.509 214.07H182.619L193.609 209.47ZM147.109 214.25H163.999L153.009 218.85H136.119L147.109 214.25ZM135.469 218.85H118.579L129.569 214.25H146.459L135.469 218.85ZM164.649 214.25H181.539L170.549 218.85H153.659L164.649 214.25ZM164.439 214.07H147.549L158.539 209.47H175.429L164.439 214.07ZM146.899 214.07H130.009L140.999 209.47H157.889L146.899 214.07ZM129.359 214.07H112.469L123.459 209.47H140.349L129.359 214.07ZM117.499 219.03L106.509 223.63H89.6191L100.609 219.03H117.499ZM118.149 219.03H135.039L124.049 223.63H107.159L118.149 219.03ZM135.689 219.03H152.579L141.589 223.63H124.699L135.689 219.03ZM153.229 219.03H170.119L159.129 223.63H142.239L153.229 219.03ZM170.769 219.03H187.659L176.669 223.63H159.779L170.769 219.03ZM171.209 218.85L182.199 214.25H199.089L188.099 218.85H171.209ZM199.729 214.25H216.619L205.629 218.85H188.739L199.729 214.25ZM200.169 214.07L211.159 209.47H228.049L217.059 214.07H200.169ZM211.589 209.29L222.579 204.69H239.469L228.479 209.29H211.589ZM210.939 209.29H194.049L205.039 204.69H221.929L210.939 209.29ZM193.399 209.29H176.509L187.499 204.69H204.389L193.399 209.29ZM175.859 209.29H158.969L169.959 204.69H186.849L175.859 209.29ZM158.319 209.29H141.429L152.419 204.69H169.309L158.319 209.29ZM140.779 209.29H123.889L134.879 204.69H151.769L140.779 209.29ZM123.239 209.29H106.349L117.339 204.69H134.229L123.239 209.29ZM122.799 209.47L111.809 214.07H94.9191L105.909 209.47H122.799ZM94.2691 214.07H77.3791L88.3691 209.47H105.259L94.2691 214.07ZM93.8291 214.25L82.8391 218.85H65.9491L76.9391 214.25H93.8291ZM82.4091 219.03L71.4191 223.63H54.5291L65.5191 219.03H82.4091ZM83.0591 219.03H99.9491L88.9591 223.63H72.0691L83.0591 219.03ZM88.5191 223.81L77.5291 228.41H60.6391L71.6291 223.81H88.5191ZM89.1691 223.81H106.059L95.0691 228.41H78.1791L89.1691 223.81ZM106.709 223.81H123.599L112.609 228.41H95.7191L106.709 223.81ZM124.249 223.81H141.139L130.149 228.41H113.259L124.249 223.81ZM141.789 223.81H158.679L147.689 228.41H130.799L141.789 223.81ZM159.329 223.81H176.219L165.229 228.41H148.339L159.329 223.81ZM176.869 223.81H193.759L182.769 228.41H165.879L176.869 223.81ZM177.309 223.63L188.299 219.03H205.189L194.199 223.63H177.309ZM205.839 219.03H222.729L211.739 223.63H194.849L205.839 219.03ZM206.279 218.85L217.269 214.25H234.159L223.169 218.85H206.279ZM217.699 214.07L228.689 209.47H245.579L234.589 214.07H217.699ZM229.119 209.29L240.109 204.69H256.999L246.009 209.29H229.119ZM240.539 204.51L251.529 199.91H268.419L257.429 204.51H240.539ZM239.889 204.51H222.999L233.989 199.91H250.879L239.889 204.51ZM222.349 204.51H205.459L216.449 199.91H233.339L222.349 204.51ZM204.809 204.51H187.919L198.909 199.91H215.799L204.809 204.51ZM187.269 204.51H170.379L181.369 199.91H198.259L187.269 204.51ZM169.729 204.51H152.839L163.829 199.91H180.719L169.729 204.51ZM152.189 204.51H135.299L146.289 199.91H163.179L152.189 204.51ZM134.649 204.51H117.759L128.749 199.91H145.639L134.649 204.51ZM117.109 204.51H100.219L111.209 199.91H128.099L117.109 204.51ZM116.669 204.69L105.679 209.29H88.7891L99.7791 204.69H116.669ZM88.1391 209.29H71.2491L82.2391 204.69H99.1291L88.1391 209.29ZM87.6991 209.47L76.7091 214.07H59.8191L70.8091 209.47H87.6991ZM76.2791 214.25L65.2891 218.85H48.3991L59.3891 214.25H76.2791ZM64.8591 219.03L53.8691 223.63H36.9791L47.9691 219.03H64.8591ZM53.4391 223.81L42.4491 228.41H25.5791L36.5691 223.81H53.4591H53.4391ZM54.0891 223.81H70.9791L59.9891 228.41H43.0991L54.0891 223.81ZM59.5491 228.59L48.5591 233.19H31.6991L42.6891 228.59H59.5791H59.5491ZM60.1991 228.59H77.0891L66.0991 233.19H49.2091L60.1991 228.59ZM77.7391 228.59H94.6291L83.6391 233.19H66.7491L77.7391 228.59ZM95.2791 228.59H112.169L101.179 233.19H84.2891L95.2791 228.59ZM112.819 228.59H129.709L118.719 233.19H101.829L112.819 228.59ZM130.359 228.59H147.249L136.259 233.19H119.369L130.359 228.59ZM147.899 228.59H164.789L153.799 233.19H136.909L147.899 228.59ZM165.439 228.59H182.329L171.339 233.19H154.449L165.439 228.59ZM182.979 228.59H199.869L188.879 233.19H171.989L182.979 228.59ZM183.419 228.41L194.409 223.81H211.299L200.309 228.41H183.419ZM211.949 223.81H228.839L217.849 228.41H200.959L211.949 223.81ZM212.389 223.63L223.379 219.03H240.269L229.279 223.63H212.389ZM223.809 218.85L234.799 214.25H251.689L240.699 218.85H223.809ZM235.229 214.07L246.219 209.47H263.109L252.119 214.07H235.229ZM246.649 209.29L257.639 204.69H274.529L263.539 209.29H246.649ZM110.559 199.92L99.5691 204.52H82.6791L93.6691 199.92H110.559ZM25.1291 228.59H42.0191L31.0291 233.19H14.1591L25.1491 228.59H25.1291ZM189.529 233.19L200.519 228.59H217.409L206.419 233.19H189.529Z" fill="white"/>
</g>
<path d="M223.94 64.75C210.73 64.75 199.99 75.49 199.99 88.7C199.99 101.91 210.73 112.65 223.94 112.65C237.15 112.65 247.89 101.91 247.89 88.7C247.89 75.49 237.15 64.75 223.94 64.75ZM246.48 88H227.42L245 80.65C245.88 82.95 246.39 85.42 246.47 88H246.48ZM244.47 79.36L224.65 87.65V66.16C233.46 66.43 241.01 71.77 244.47 79.36ZM223.25 66.16V88H201.41C201.77 76.12 211.37 66.53 223.25 66.16ZM220.47 89.39L202.88 96.75C202 94.45 201.48 91.98 201.41 89.39H220.47ZM203.43 98.03L223.25 89.74V111.23C214.44 110.96 206.9 105.62 203.43 98.03ZM224.65 111.23V89.39H246.49C246.13 101.27 236.53 110.86 224.65 111.23Z" fill="#2673E5"/>
<g opacity="0.6">
<path d="M223.94 64.75C210.73 64.75 199.99 75.49 199.99 88.7C199.99 101.91 210.73 112.65 223.94 112.65C237.15 112.65 247.89 101.91 247.89 88.7C247.89 75.49 237.15 64.75 223.94 64.75ZM246.48 88H227.42L245 80.65C245.88 82.95 246.39 85.42 246.47 88H246.48ZM244.47 79.36L224.65 87.65V66.16C233.46 66.43 241.01 71.77 244.47 79.36ZM223.25 66.16V88H201.41C201.77 76.12 211.37 66.53 223.25 66.16ZM220.47 89.39L202.88 96.75C202 94.45 201.48 91.98 201.41 89.39H220.47ZM203.43 98.03L223.25 89.74V111.23C214.44 110.96 206.9 105.62 203.43 98.03ZM224.65 111.23V89.39H246.49C246.13 101.27 236.53 110.86 224.65 111.23Z" fill="white"/>
</g>
<path d="M223.941 61.95L222.311 66.54H225.581L223.941 61.95Z" fill="#2673E5"/>
<path d="M250.68 88.69L246.1 87.06V90.33L250.68 88.69Z" fill="#2673E5"/>
<path d="M199.51 99.07L204.37 98.76L203.08 95.75L199.51 99.07Z" fill="#2673E5"/>
<path d="M202.49 98.37C202.22 98.37 201.96 98.21 201.85 97.94C201.7 97.58 201.87 97.18 202.22 97.03L223.67 88.06C224.03 87.91 224.43 88.08 224.58 88.43C224.73 88.79 224.56 89.19 224.21 89.34L202.76 98.31C202.67 98.35 202.58 98.36 202.49 98.36V98.37Z" fill="#2673E5"/>
<path d="M223.94 89.39C223.55 89.39 223.24 89.08 223.24 88.69V65.44C223.24 65.05 223.55 64.74 223.94 64.74C224.33 64.74 224.64 65.05 224.64 65.44V88.69C224.64 89.08 224.33 89.39 223.94 89.39Z" fill="#2673E5"/>
<path d="M247.19 89.39H223.94C223.55 89.39 223.24 89.08 223.24 88.69C223.24 88.3 223.55 87.99 223.94 87.99H247.19C247.58 87.99 247.89 88.3 247.89 88.69C247.89 89.08 247.58 89.39 247.19 89.39Z" fill="#2673E5"/>
<path d="M281.83 150.8H255.89C254.343 150.8 253.09 152.054 253.09 153.6V156.07C253.09 157.616 254.343 158.87 255.89 158.87H281.83C283.376 158.87 284.63 157.616 284.63 156.07V153.6C284.63 152.054 283.376 150.8 281.83 150.8Z" fill="#2673E5"/>
<g opacity="0.4">
<path d="M281.83 150.8H255.89C254.343 150.8 253.09 152.054 253.09 153.6V156.07C253.09 157.616 254.343 158.87 255.89 158.87H281.83C283.376 158.87 284.63 157.616 284.63 156.07V153.6C284.63 152.054 283.376 150.8 281.83 150.8Z" fill="white"/>
</g>
<path d="M281.83 160.15H255.89C254.343 160.15 253.09 161.404 253.09 162.95V165.42C253.09 166.966 254.343 168.22 255.89 168.22H281.83C283.376 168.22 284.63 166.966 284.63 165.42V162.95C284.63 161.404 283.376 160.15 281.83 160.15Z" fill="#2673E5"/>
<g opacity="0.4">
<path d="M281.83 160.15H255.89C254.343 160.15 253.09 161.404 253.09 162.95V165.42C253.09 166.966 254.343 168.22 255.89 168.22H281.83C283.376 168.22 284.63 166.966 284.63 165.42V162.95C284.63 161.404 283.376 160.15 281.83 160.15Z" fill="white"/>
</g>
<path d="M281.83 169.49H255.89C254.343 169.49 253.09 170.744 253.09 172.29V174.76C253.09 176.306 254.343 177.56 255.89 177.56H281.83C283.376 177.56 284.63 176.306 284.63 174.76V172.29C284.63 170.744 283.376 169.49 281.83 169.49Z" fill="#2673E5"/>
<g opacity="0.4">
<path d="M281.83 169.49H255.89C254.343 169.49 253.09 170.744 253.09 172.29V174.76C253.09 176.306 254.343 177.56 255.89 177.56H281.83C283.376 177.56 284.63 176.306 284.63 174.76V172.29C284.63 170.744 283.376 169.49 281.83 169.49Z" fill="white"/>
</g>
<path d="M281.83 178.83H255.89C254.343 178.83 253.09 180.084 253.09 181.63V184.1C253.09 185.646 254.343 186.9 255.89 186.9H281.83C283.376 186.9 284.63 185.646 284.63 184.1V181.63C284.63 180.084 283.376 178.83 281.83 178.83Z" fill="#2673E5"/>
<g opacity="0.4">
<path d="M281.83 178.83H255.89C254.343 178.83 253.09 180.084 253.09 181.63V184.1C253.09 185.646 254.343 186.9 255.89 186.9H281.83C283.376 186.9 284.63 185.646 284.63 184.1V181.63C284.63 180.084 283.376 178.83 281.83 178.83Z" fill="white"/>
</g>
<path d="M281.83 188.17H255.89C254.343 188.17 253.09 189.424 253.09 190.97V193.44C253.09 194.986 254.343 196.24 255.89 196.24H281.83C283.376 196.24 284.63 194.986 284.63 193.44V190.97C284.63 189.424 283.376 188.17 281.83 188.17Z" fill="#2673E5"/>
<g opacity="0.4">
<path d="M281.83 188.17H255.89C254.343 188.17 253.09 189.424 253.09 190.97V193.44C253.09 194.986 254.343 196.24 255.89 196.24H281.83C283.376 196.24 284.63 194.986 284.63 193.44V190.97C284.63 189.424 283.376 188.17 281.83 188.17Z" fill="white"/>
</g>
<path d="M283.069 61.95H262.119C261.257 61.95 260.559 62.6484 260.559 63.51V129.32C260.559 130.182 261.257 130.88 262.119 130.88H283.069C283.93 130.88 284.629 130.182 284.629 129.32V63.51C284.629 62.6484 283.93 61.95 283.069 61.95Z" fill="#2673E5"/>
<g opacity="0.4">
<path d="M270.349 64.68H264.759C263.997 64.68 263.379 65.2978 263.379 66.06V71.65C263.379 72.4121 263.997 73.03 264.759 73.03H270.349C271.111 73.03 271.729 72.4121 271.729 71.65V66.06C271.729 65.2978 271.111 64.68 270.349 64.68Z" fill="white"/>
</g>
<g opacity="0.4">
<path d="M280.429 64.68H274.839C274.077 64.68 273.459 65.2978 273.459 66.06V71.65C273.459 72.4121 274.077 73.03 274.839 73.03H280.429C281.191 73.03 281.809 72.4121 281.809 71.65V66.06C281.809 65.2978 281.191 64.68 280.429 64.68Z" fill="white"/>
</g>
<g opacity="0.4">
<path d="M270.349 74.45H264.759C263.997 74.45 263.379 75.0679 263.379 75.83V81.42C263.379 82.1822 263.997 82.8 264.759 82.8H270.349C271.111 82.8 271.729 82.1822 271.729 81.42V75.83C271.729 75.0679 271.111 74.45 270.349 74.45Z" fill="white"/>
</g>
<g opacity="0.4">
<path d="M280.429 74.45H274.839C274.077 74.45 273.459 75.0679 273.459 75.83V81.42C273.459 82.1822 274.077 82.8 274.839 82.8H280.429C281.191 82.8 281.809 82.1822 281.809 81.42V75.83C281.809 75.0679 281.191 74.45 280.429 74.45Z" fill="white"/>
</g>
<g opacity="0.4">
<path d="M270.349 84.22H264.759C263.997 84.22 263.379 84.8378 263.379 85.6V91.19C263.379 91.9521 263.997 92.57 264.759 92.57H270.349C271.111 92.57 271.729 91.9521 271.729 91.19V85.6C271.729 84.8378 271.111 84.22 270.349 84.22Z" fill="white"/>
</g>
<g opacity="0.4">
<path d="M280.429 84.22H274.839C274.077 84.22 273.459 84.8378 273.459 85.6V91.19C273.459 91.9521 274.077 92.57 274.839 92.57H280.429C281.191 92.57 281.809 91.9521 281.809 91.19V85.6C281.809 84.8378 281.191 84.22 280.429 84.22Z" fill="white"/>
</g>
<g opacity="0.4">
<path d="M270.349 93.99H264.759C263.997 93.99 263.379 94.6078 263.379 95.37V100.96C263.379 101.722 263.997 102.34 264.759 102.34H270.349C271.111 102.34 271.729 101.722 271.729 100.96V95.37C271.729 94.6078 271.111 93.99 270.349 93.99Z" fill="white"/>
</g>
<g opacity="0.4">
<path d="M280.429 93.99H274.839C274.077 93.99 273.459 94.6078 273.459 95.37V100.96C273.459 101.722 274.077 102.34 274.839 102.34H280.429C281.191 102.34 281.809 101.722 281.809 100.96V95.37C281.809 94.6078 281.191 93.99 280.429 93.99Z" fill="white"/>
</g>
<g opacity="0.4">
<path d="M270.349 119.81H264.759C263.997 119.81 263.379 120.428 263.379 121.19V126.78C263.379 127.542 263.997 128.16 264.759 128.16H270.349C271.111 128.16 271.729 127.542 271.729 126.78V121.19C271.729 120.428 271.111 119.81 270.349 119.81Z" fill="white"/>
</g>
<g opacity="0.4">
<path d="M280.429 119.81H274.839C274.077 119.81 273.459 120.428 273.459 121.19V126.78C273.459 127.542 274.077 128.16 274.839 128.16H280.429C281.191 128.16 281.809 127.542 281.809 126.78V121.19C281.809 120.428 281.191 119.81 280.429 119.81Z" fill="white"/>
</g>
<g opacity="0.4">
<path d="M270.349 110.04H264.759C263.997 110.04 263.379 110.658 263.379 111.42V117.01C263.379 117.772 263.997 118.39 264.759 118.39H270.349C271.111 118.39 271.729 117.772 271.729 117.01V111.42C271.729 110.658 271.111 110.04 270.349 110.04Z" fill="white"/>
</g>
<g opacity="0.4">
<path d="M280.429 110.04H274.839C274.077 110.04 273.459 110.658 273.459 111.42V117.01C273.459 117.772 274.077 118.39 274.839 118.39H280.429C281.191 118.39 281.809 117.772 281.809 117.01V111.42C281.809 110.658 281.191 110.04 280.429 110.04Z" fill="white"/>
</g>
<path d="M120.561 194.02L121.141 188.83L121.761 183.64L123.071 173.28L124.481 162.93C124.971 159.48 125.461 156.03 126.001 152.59H126.021C125.651 156.06 125.241 159.51 124.821 162.97L123.511 173.33L122.101 183.68L121.361 188.85L120.581 194.02H120.561Z" fill="#1A2E35"/>
<path d="M122.53 192.82L122.26 192.48L120.6 193.85L119.35 192.1L118.99 192.35L120.51 194.49L122.53 192.82Z" fill="#1A2E35"/>
<path d="M127.591 154.26L127.241 154.51L125.991 152.75L124.331 154.13L124.051 153.79L126.071 152.12L127.591 154.26Z" fill="#1A2E35"/>
<path d="M221.862 126.09L205.132 126.2L188.402 126.23L154.942 126.31L121.472 126.23L104.742 126.2L88.0117 126.09V126.08L104.742 125.98L121.472 125.94L154.942 125.87L188.402 125.94L205.132 125.98L221.862 126.08V126.09Z" fill="#1A2E35"/>
<path d="M220.421 124.3L220.121 124.62L221.701 126.09L220.121 127.55L220.421 127.87L222.341 126.09L220.421 124.3Z" fill="#1A2E35"/>
<path d="M89.461 124.3L89.761 124.62L88.181 126.09L89.761 127.55L89.461 127.87L87.541 126.09L89.461 124.3Z" fill="#1A2E35"/>
<path d="M125.83 148.4C141.36 148.11 158.62 148.12 174.15 148.4C158.61 148.68 141.36 148.69 125.83 148.4Z" fill="#1A2E35"/>
<path d="M86.3594 206.76C88.6194 180.96 91.4594 152.3 94.2894 126.54C92.0194 152.37 89.1994 181.01 86.3594 206.76Z" fill="#1A2E35"/>
<path d="M222.34 128.86C175.57 129.13 123.1 129.13 76.3301 128.86C123.1 128.59 175.57 128.59 222.34 128.86Z" fill="#1A2E35"/>
<path d="M221.862 208.6L205.132 208.7L188.402 208.74L154.942 208.81L121.472 208.74L104.742 208.71L88.0117 208.6V208.59L104.742 208.49L121.472 208.45L154.942 208.38L188.402 208.45L205.132 208.49L221.862 208.59V208.6Z" fill="#1A2E35"/>
<path d="M220.421 206.81L220.121 207.13L221.701 208.6L220.121 210.06L220.421 210.38L222.341 208.6L220.421 206.81Z" fill="#1A2E35"/>
<path d="M89.461 206.81L89.761 207.13L88.181 208.6L89.761 210.06L89.461 210.38L87.541 208.6L89.461 206.81Z" fill="#1A2E35"/>
<path d="M222.34 211.37C175.57 211.64 123.1 211.64 76.3301 211.37C123.1 211.1 175.57 211.1 222.34 211.37Z" fill="#1A2E35"/>
<path d="M224.93 127.77L224.03 137.53L223.05 147.29L221.1 166.79L219 186.28L217.95 196.03L216.83 205.77L217.74 196.01L218.71 186.25L220.66 166.75L222.76 147.26L223.81 137.51L224.93 127.77Z" fill="#1A2E35"/>
<path d="M223.129 127.82L223.419 128.14L225.039 126.73L226.329 128.45L226.679 128.18L225.099 126.09L223.129 127.82Z" fill="#1A2E35"/>
<path d="M215.199 204.14L215.549 203.88L216.849 205.6L218.469 204.18L218.759 204.51L216.779 206.24L215.199 204.14Z" fill="#1A2E35"/>
<path d="M208.059 131.52H111.349C106.639 131.52 102.689 135.1 102.229 139.79L96.8788 194.64C96.3488 200.02 100.589 204.69 105.999 204.69H202.709C207.419 204.69 211.369 201.11 211.829 196.42L217.179 141.57C217.709 136.19 213.469 131.52 208.059 131.52Z" fill="#1A2E35"/>
<path d="M202.299 131.35H105.589C100.879 131.35 96.929 134.93 96.469 139.62L91.119 194.47C90.589 199.85 94.829 204.52 100.239 204.52H196.949C201.659 204.52 205.609 200.94 206.069 196.25L211.419 141.4C211.949 136.02 207.709 131.35 202.299 131.35Z" fill="#007CFF"/>
<path opacity="0.05" d="M202.299 131.35H105.589C100.879 131.35 96.929 134.93 96.469 139.62L91.119 194.47C90.589 199.85 94.829 204.52 100.239 204.52H196.949C201.659 204.52 205.609 200.94 206.069 196.25L211.419 141.4C211.949 136.02 207.709 131.35 202.299 131.35Z" fill="white"/>
<path opacity="0.6" d="M185.779 131.35H121.769L114.629 204.53H178.639L185.779 131.35Z" fill="white"/>
<path d="M103.66 194.26C103.66 196.33 102.43 198.01 100.92 198.01C99.4097 198.01 98.1797 196.33 98.1797 194.26C98.1797 192.19 99.4097 190.51 100.92 190.51C102.43 190.51 103.66 192.19 103.66 194.26Z" fill="#1A2E35"/>
<path d="M103.019 194.26C103.019 196.33 101.789 198.01 100.279 198.01C98.7691 198.01 97.5391 196.33 97.5391 194.26C97.5391 192.19 98.7691 190.51 100.279 190.51C101.789 190.51 103.019 192.19 103.019 194.26Z" fill="#007CFF"/>
<path opacity="0.5" d="M103.019 194.26C103.019 196.33 101.789 198.01 100.279 198.01C98.7691 198.01 97.5391 196.33 97.5391 194.26C97.5391 192.19 98.7691 190.51 100.279 190.51C101.789 190.51 103.019 192.19 103.019 194.26Z" fill="black"/>
<path d="M108.15 198.01C109.663 198.01 110.89 196.331 110.89 194.26C110.89 192.189 109.663 190.51 108.15 190.51C106.637 190.51 105.41 192.189 105.41 194.26C105.41 196.331 106.637 198.01 108.15 198.01Z" fill="#1A2E35"/>
<path d="M110.259 194.26C110.259 196.33 109.029 198.01 107.519 198.01C106.009 198.01 104.779 196.33 104.779 194.26C104.779 192.19 106.009 190.51 107.519 190.51C109.029 190.51 110.259 192.19 110.259 194.26Z" fill="#007CFF"/>
<path opacity="0.4" d="M110.259 194.26C110.259 196.33 109.029 198.01 107.519 198.01C106.009 198.01 104.779 196.33 104.779 194.26C104.779 192.19 106.009 190.51 107.519 190.51C109.029 190.51 110.259 192.19 110.259 194.26Z" fill="black"/>
<path d="M190.259 194.2C190.259 196.24 189.049 197.89 187.559 197.89C186.069 197.89 184.859 196.24 184.859 194.2C184.859 192.16 186.069 190.51 187.559 190.51C189.049 190.51 190.259 192.16 190.259 194.2Z" fill="#1A2E35"/>
<path d="M189.629 194.2C189.629 196.24 188.419 197.89 186.929 197.89C185.439 197.89 184.229 196.24 184.229 194.2C184.229 192.16 185.439 190.51 186.929 190.51C188.419 190.51 189.629 192.16 189.629 194.2Z" fill="#007CFF"/>
<path opacity="0.3" d="M189.629 194.2C189.629 196.24 188.419 197.89 186.929 197.89C185.439 197.89 184.229 196.24 184.229 194.2C184.229 192.16 185.439 190.51 186.929 190.51C188.419 190.51 189.629 192.16 189.629 194.2Z" fill="black"/>
<path d="M197.38 194.2C197.38 196.24 196.17 197.89 194.68 197.89C193.19 197.89 191.98 196.24 191.98 194.2C191.98 192.16 193.19 190.51 194.68 190.51C196.17 190.51 197.38 192.16 197.38 194.2Z" fill="#1A2E35"/>
<path d="M196.75 194.2C196.75 196.24 195.54 197.89 194.05 197.89C192.56 197.89 191.35 196.24 191.35 194.2C191.35 192.16 192.56 190.51 194.05 190.51C195.54 190.51 196.75 192.16 196.75 194.2Z" fill="#007CFF"/>
<path opacity="0.2" d="M196.75 194.2C196.75 196.24 195.54 197.89 194.05 197.89C192.56 197.89 191.35 196.24 191.35 194.2C191.35 192.16 192.56 190.51 194.05 190.51C195.54 190.51 196.75 192.16 196.75 194.2Z" fill="black"/>
<path d="M194.98 150.79C194.98 153.16 193.57 155.09 191.83 155.09C190.09 155.09 188.68 153.17 188.68 150.79C188.68 148.41 190.09 146.49 191.83 146.49C193.57 146.49 194.98 148.41 194.98 150.79Z" fill="#1A2E35"/>
<path d="M191.099 155.09C192.839 155.09 194.249 153.165 194.249 150.79C194.249 148.415 192.839 146.49 191.099 146.49C189.36 146.49 187.949 148.415 187.949 150.79C187.949 153.165 189.36 155.09 191.099 155.09Z" fill="#007CFF"/>
<path opacity="0.2" d="M191.099 155.09C192.839 155.09 194.249 153.165 194.249 150.79C194.249 148.415 192.839 146.49 191.099 146.49C189.36 146.49 187.949 148.415 187.949 150.79C187.949 153.165 189.36 155.09 191.099 155.09Z" fill="white"/>
<path d="M194.98 162.36C194.98 164.73 193.57 166.66 191.83 166.66C190.09 166.66 188.68 164.74 188.68 162.36C188.68 159.98 190.09 158.06 191.83 158.06C193.57 158.06 194.98 159.98 194.98 162.36Z" fill="#1A2E35"/>
<path d="M191.099 166.66C192.839 166.66 194.249 164.735 194.249 162.36C194.249 159.985 192.839 158.06 191.099 158.06C189.36 158.06 187.949 159.985 187.949 162.36C187.949 164.735 189.36 166.66 191.099 166.66Z" fill="#007CFF"/>
<path opacity="0.5" d="M191.099 166.66C192.839 166.66 194.249 164.735 194.249 162.36C194.249 159.985 192.839 158.06 191.099 158.06C189.36 158.06 187.949 159.985 187.949 162.36C187.949 164.735 189.36 166.66 191.099 166.66Z" fill="white"/>
<path d="M201.83 166.66C203.569 166.66 204.98 164.735 204.98 162.36C204.98 159.985 203.569 158.06 201.83 158.06C200.09 158.06 198.68 159.985 198.68 162.36C198.68 164.735 200.09 166.66 201.83 166.66Z" fill="#1A2E35"/>
<path d="M201.099 166.66C202.839 166.66 204.249 164.735 204.249 162.36C204.249 159.985 202.839 158.06 201.099 158.06C199.36 158.06 197.949 159.985 197.949 162.36C197.949 164.735 199.36 166.66 201.099 166.66Z" fill="#007CFF"/>
<path opacity="0.3" d="M201.099 166.66C202.839 166.66 204.249 164.735 204.249 162.36C204.249 159.985 202.839 158.06 201.099 158.06C199.36 158.06 197.949 159.985 197.949 162.36C197.949 164.735 199.36 166.66 201.099 166.66Z" fill="white"/>
<path d="M201.83 155.09C203.569 155.09 204.98 153.165 204.98 150.79C204.98 148.415 203.569 146.49 201.83 146.49C200.09 146.49 198.68 148.415 198.68 150.79C198.68 153.165 200.09 155.09 201.83 155.09Z" fill="#1A2E35"/>
<path d="M201.099 155.09C202.839 155.09 204.249 153.165 204.249 150.79C204.249 148.415 202.839 146.49 201.099 146.49C199.36 146.49 197.949 148.415 197.949 150.79C197.949 153.165 199.36 155.09 201.099 155.09Z" fill="#007CFF"/>
<path opacity="0.4" d="M201.099 155.09C202.839 155.09 204.249 153.165 204.249 150.79C204.249 148.415 202.839 146.49 201.099 146.49C199.36 146.49 197.949 148.415 197.949 150.79C197.949 153.165 199.36 155.09 201.099 155.09Z" fill="white"/>
<path d="M114.53 155.25H110.15L110.78 149.76H104.17L103.54 155.25H99.1195L98.5195 161.14H102.87L102.27 166.36H108.88L109.47 161.14H113.93L114.53 155.25Z" fill="#1A2E35"/>
<path d="M113.569 155.25H109.189L109.819 149.76H103.209L102.579 155.25H98.1586L97.5586 161.14H101.909L101.309 166.36H107.919L108.509 161.14H112.969L113.569 155.25Z" fill="#007CFF"/>
<path opacity="0.4" d="M106.839 158.2C106.839 159.2 106.249 160.01 105.519 160.01C104.789 160.01 104.199 159.2 104.199 158.2C104.199 157.2 104.789 156.39 105.519 156.39C106.249 156.39 106.839 157.2 106.839 158.2Z" fill="black"/>
<path opacity="0.5" d="M98.8086 158.2L102.139 156.69L101.129 158.2L101.589 159.71L98.8086 158.2Z" fill="black"/>
<path opacity="0.5" d="M112.189 158.2L108.879 159.71L109.879 158.2L109.429 156.69L112.189 158.2Z" fill="black"/>
<path opacity="0.5" d="M106.158 151.27L104.338 154.73L105.858 154.05L107.628 154.8L106.158 151.27Z" fill="black"/>
<path opacity="0.5" d="M104.709 165.05L106.519 161.59L104.999 162.28L103.229 161.52L104.709 165.05Z" fill="black"/>
<path opacity="0.05" d="M113.569 155.25H109.189L109.819 149.76H103.209L102.579 155.25H98.1586L97.5586 161.14H101.909L101.309 166.36H107.919L108.509 161.14H112.969L113.569 155.25Z" fill="black"/>
<path d="M105.389 177.5C105.389 177.78 105.159 178.01 104.879 178.01C104.599 178.01 104.369 177.78 104.369 177.5C104.369 177.22 104.599 176.99 104.879 176.99C105.159 176.99 105.389 177.22 105.389 177.5Z" fill="black"/>
<path d="M102.819 177.5C102.819 177.78 102.589 178.01 102.309 178.01C102.029 178.01 101.799 177.78 101.799 177.5C101.799 177.22 102.029 176.99 102.309 176.99C102.589 176.99 102.819 177.22 102.819 177.5Z" fill="black"/>
<path d="M100.249 177.5C100.249 177.78 100.019 178.01 99.7385 178.01C99.4585 178.01 99.2285 177.78 99.2285 177.5C99.2285 177.22 99.4585 176.99 99.7385 176.99C100.019 176.99 100.249 177.22 100.249 177.5Z" fill="black"/>
<path d="M107.948 177.5C107.948 177.78 107.718 178.01 107.438 178.01C107.158 178.01 106.928 177.78 106.928 177.5C106.928 177.22 107.158 176.99 107.438 176.99C107.718 176.99 107.948 177.22 107.948 177.5Z" fill="black"/>
<path d="M110.518 177.5C110.518 177.78 110.288 178.01 110.008 178.01C109.728 178.01 109.498 177.78 109.498 177.5C109.498 177.22 109.728 176.99 110.008 176.99C110.288 176.99 110.518 177.22 110.518 177.5Z" fill="black"/>
<path d="M104.879 175.45C105.161 175.45 105.389 175.222 105.389 174.94C105.389 174.658 105.161 174.43 104.879 174.43C104.597 174.43 104.369 174.658 104.369 174.94C104.369 175.222 104.597 175.45 104.879 175.45Z" fill="black"/>
<path d="M104.879 172.88C105.161 172.88 105.389 172.652 105.389 172.37C105.389 172.088 105.161 171.86 104.879 171.86C104.597 171.86 104.369 172.088 104.369 172.37C104.369 172.652 104.597 172.88 104.879 172.88Z" fill="black"/>
<path d="M104.879 180.58C105.161 180.58 105.389 180.352 105.389 180.07C105.389 179.788 105.161 179.56 104.879 179.56C104.597 179.56 104.369 179.788 104.369 180.07C104.369 180.352 104.597 180.58 104.879 180.58Z" fill="black"/>
<path d="M104.879 183.14C104.599 183.14 104.369 182.91 104.369 182.63C104.369 182.35 104.599 182.12 104.879 182.12C105.159 182.12 105.389 182.35 105.389 182.63C105.389 182.91 105.159 183.14 104.879 183.14Z" fill="black"/>
<path d="M103.059 176.2C103.34 176.2 103.569 175.972 103.569 175.69C103.569 175.408 103.34 175.18 103.059 175.18C102.777 175.18 102.549 175.408 102.549 175.69C102.549 175.972 102.777 176.2 103.059 176.2Z" fill="black"/>
<path d="M101.248 174.38C101.53 174.38 101.758 174.152 101.758 173.87C101.758 173.588 101.53 173.36 101.248 173.36C100.967 173.36 100.738 173.588 100.738 173.87C100.738 174.152 100.967 174.38 101.248 174.38Z" fill="black"/>
<path d="M106.688 179.83C106.969 179.83 107.198 179.602 107.198 179.32C107.198 179.038 106.969 178.81 106.688 178.81C106.406 178.81 106.178 179.038 106.178 179.32C106.178 179.602 106.406 179.83 106.688 179.83Z" fill="black"/>
<path d="M108.508 181.64C108.79 181.64 109.018 181.412 109.018 181.13C109.018 180.848 108.79 180.62 108.508 180.62C108.226 180.62 107.998 180.848 107.998 181.13C107.998 181.412 108.226 181.64 108.508 181.64Z" fill="black"/>
<path d="M103.059 179.83C103.34 179.83 103.569 179.602 103.569 179.32C103.569 179.038 103.34 178.81 103.059 178.81C102.777 178.81 102.549 179.038 102.549 179.32C102.549 179.602 102.777 179.83 103.059 179.83Z" fill="black"/>
<path d="M101.608 180.77C101.808 180.97 101.808 181.29 101.608 181.49C101.408 181.69 101.088 181.69 100.888 181.49C100.688 181.29 100.688 180.97 100.888 180.77C101.088 180.57 101.408 180.57 101.608 180.77Z" fill="black"/>
<path d="M106.688 176.2C106.969 176.2 107.198 175.972 107.198 175.69C107.198 175.408 106.969 175.18 106.688 175.18C106.406 175.18 106.178 175.408 106.178 175.69C106.178 175.972 106.406 176.2 106.688 176.2Z" fill="black"/>
<path d="M108.868 173.51C109.068 173.71 109.068 174.03 108.868 174.23C108.668 174.43 108.348 174.43 108.148 174.23C107.948 174.03 107.948 173.71 108.148 173.51C108.348 173.31 108.668 173.31 108.868 173.51Z" fill="black"/>
<path d="M194.981 178.52C195.262 178.52 195.491 178.292 195.491 178.01C195.491 177.728 195.262 177.5 194.981 177.5C194.699 177.5 194.471 177.728 194.471 178.01C194.471 178.292 194.699 178.52 194.981 178.52Z" fill="black"/>
<path d="M192.42 178.52C192.702 178.52 192.93 178.292 192.93 178.01C192.93 177.728 192.702 177.5 192.42 177.5C192.138 177.5 191.91 177.728 191.91 178.01C191.91 178.292 192.138 178.52 192.42 178.52Z" fill="black"/>
<path d="M189.85 178.52C190.132 178.52 190.36 178.292 190.36 178.01C190.36 177.728 190.132 177.5 189.85 177.5C189.568 177.5 189.34 177.728 189.34 178.01C189.34 178.292 189.568 178.52 189.85 178.52Z" fill="black"/>
<path d="M197.549 178.52C197.831 178.52 198.059 178.292 198.059 178.01C198.059 177.728 197.831 177.5 197.549 177.5C197.267 177.5 197.039 177.728 197.039 178.01C197.039 178.292 197.267 178.52 197.549 178.52Z" fill="black"/>
<path d="M200.62 178.01C200.62 178.29 200.39 178.52 200.11 178.52C199.83 178.52 199.6 178.29 199.6 178.01C199.6 177.73 199.83 177.5 200.11 177.5C200.39 177.5 200.62 177.73 200.62 178.01Z" fill="black"/>
<path d="M194.981 175.95C195.262 175.95 195.491 175.722 195.491 175.44C195.491 175.158 195.262 174.93 194.981 174.93C194.699 174.93 194.471 175.158 194.471 175.44C194.471 175.722 194.699 175.95 194.981 175.95Z" fill="black"/>
<path d="M194.981 173.39C195.262 173.39 195.491 173.162 195.491 172.88C195.491 172.598 195.262 172.37 194.981 172.37C194.699 172.37 194.471 172.598 194.471 172.88C194.471 173.162 194.699 173.39 194.981 173.39Z" fill="black"/>
<path d="M194.981 181.09C195.262 181.09 195.491 180.862 195.491 180.58C195.491 180.298 195.262 180.07 194.981 180.07C194.699 180.07 194.471 180.298 194.471 180.58C194.471 180.862 194.699 181.09 194.981 181.09Z" fill="black"/>
<path d="M194.981 183.65C194.701 183.65 194.471 183.42 194.471 183.14C194.471 182.86 194.701 182.63 194.981 182.63C195.261 182.63 195.491 182.86 195.491 183.14C195.491 183.42 195.261 183.65 194.981 183.65Z" fill="black"/>
<path d="M193.53 176.56C193.33 176.76 193.01 176.76 192.81 176.56C192.61 176.36 192.61 176.04 192.81 175.84C193.01 175.64 193.33 175.64 193.53 175.84C193.73 176.04 193.73 176.36 193.53 176.56Z" fill="black"/>
<path d="M191.71 174.74C191.51 174.94 191.19 174.94 190.99 174.74C190.79 174.54 190.79 174.22 190.99 174.02C191.19 173.82 191.51 173.82 191.71 174.02C191.91 174.22 191.91 174.54 191.71 174.74Z" fill="black"/>
<path d="M197.159 180.18C196.959 180.38 196.639 180.38 196.439 180.18C196.239 179.98 196.239 179.66 196.439 179.46C196.639 179.26 196.959 179.26 197.159 179.46C197.359 179.66 197.359 179.98 197.159 180.18Z" fill="black"/>
<path d="M198.97 182C198.77 182.2 198.45 182.2 198.25 182C198.05 181.8 198.05 181.48 198.25 181.28C198.45 181.08 198.77 181.08 198.97 181.28C199.17 181.48 199.17 181.8 198.97 182Z" fill="black"/>
<path d="M193.17 180.34C193.452 180.34 193.68 180.112 193.68 179.83C193.68 179.548 193.452 179.32 193.17 179.32C192.888 179.32 192.66 179.548 192.66 179.83C192.66 180.112 192.888 180.34 193.17 180.34Z" fill="black"/>
<path d="M191.36 182.15C191.641 182.15 191.87 181.922 191.87 181.64C191.87 181.358 191.641 181.13 191.36 181.13C191.078 181.13 190.85 181.358 190.85 181.64C190.85 181.922 191.078 182.15 191.36 182.15Z" fill="black"/>
<path d="M196.799 176.71C197.081 176.71 197.309 176.482 197.309 176.2C197.309 175.918 197.081 175.69 196.799 175.69C196.517 175.69 196.289 175.918 196.289 176.2C196.289 176.482 196.517 176.71 196.799 176.71Z" fill="black"/>
<path d="M198.61 174.89C198.891 174.89 199.12 174.662 199.12 174.38C199.12 174.098 198.891 173.87 198.61 173.87C198.328 173.87 198.1 174.098 198.1 174.38C198.1 174.662 198.328 174.89 198.61 174.89Z" fill="black"/>
<path d="M113.4 133.97L113 138.06H119.59L120 133.97H113.4Z" fill="#1A2E35"/>
<path opacity="0.5" d="M113.4 133.97L113 138.06H119.59L120 133.97H113.4Z" fill="white"/>
<path d="M105.17 133.97L104.77 138.06H111.35L111.77 133.97H105.17Z" fill="#1A2E35"/>
<path opacity="0.4" d="M105.17 133.97L104.77 138.06H111.35L111.77 133.97H105.17Z" fill="white"/>
<path d="M195.429 133.97L195.029 138.06H201.619L202.029 133.97H195.429Z" fill="#1A2E35"/>
<path opacity="0.2" d="M195.429 133.97L195.029 138.06H201.619L202.029 133.97H195.429Z" fill="white"/>
<path d="M187.199 133.97L186.799 138.06H193.379L193.799 133.97H187.199Z" fill="#1A2E35"/>
<path opacity="0.3" d="M187.199 133.97L186.799 138.06H193.379L193.799 133.97H187.199Z" fill="white"/>
<path d="M183.828 133.22H122.958L115.818 203H176.688L183.828 133.22Z" fill="#007CFF"/>
<path d="M129.369 150.43L128.939 156.9C128.889 157.63 129.469 158.24 130.189 158.24H134.879C135.539 158.24 136.089 157.73 136.129 157.07L136.559 150.6C136.609 149.87 136.029 149.26 135.309 149.26H130.619C129.959 149.26 129.409 149.77 129.369 150.43Z" fill="#007CFF"/>
<path opacity="0.3" d="M129.369 150.43L128.939 156.9C128.889 157.63 129.469 158.24 130.189 158.24H134.879C135.539 158.24 136.089 157.73 136.129 157.07L136.559 150.6C136.609 149.87 136.029 149.26 135.309 149.26H130.619C129.959 149.26 129.409 149.77 129.369 150.43Z" fill="white"/>
<path d="M132.269 153L132.039 156.39H134.759L134.989 153H132.269Z" fill="#007CFF"/>
<path d="M130.789 151.3L130.559 154.7H133.289L133.519 151.3H130.789Z" fill="#007CFF"/>
<path d="M141.939 150.43L141.509 156.9C141.459 157.63 142.039 158.24 142.759 158.24H147.449C148.109 158.24 148.659 157.73 148.699 157.07L149.129 150.6C149.179 149.87 148.599 149.26 147.879 149.26H143.189C142.529 149.26 141.979 149.77 141.939 150.43Z" fill="#007CFF"/>
<path opacity="0.3" d="M141.939 150.43L141.509 156.9C141.459 157.63 142.039 158.24 142.759 158.24H147.449C148.109 158.24 148.659 157.73 148.699 157.07L149.129 150.6C149.179 149.87 148.599 149.26 147.879 149.26H143.189C142.529 149.26 141.979 149.77 141.939 150.43Z" fill="white"/>
<path d="M144.839 153L144.609 156.39H147.339L147.569 153H144.839Z" fill="#007CFF"/>
<path d="M143.359 151.3L143.139 154.7H145.859L146.089 151.3H143.359Z" fill="#007CFF"/>
<path d="M154.699 150.43L154.269 156.9C154.219 157.63 154.799 158.24 155.519 158.24H160.209C160.869 158.24 161.419 157.73 161.459 157.07L161.889 150.6C161.939 149.87 161.359 149.26 160.639 149.26H155.949C155.289 149.26 154.739 149.77 154.699 150.43Z" fill="#007CFF"/>
<path opacity="0.3" d="M154.699 150.43L154.269 156.9C154.219 157.63 154.799 158.24 155.519 158.24H160.209C160.869 158.24 161.419 157.73 161.459 157.07L161.889 150.6C161.939 149.87 161.359 149.26 160.639 149.26H155.949C155.289 149.26 154.739 149.77 154.699 150.43Z" fill="white"/>
<path d="M157.599 153L157.369 156.39H160.089L160.319 153H157.599Z" fill="#007CFF"/>
<path d="M156.119 151.3L155.889 154.7H158.619L158.839 151.3H156.119Z" fill="#007CFF"/>
<path d="M167.388 150.43L166.958 156.9C166.908 157.63 167.488 158.24 168.208 158.24H172.898C173.558 158.24 174.108 157.73 174.148 157.07L174.578 150.6C174.628 149.87 174.048 149.26 173.328 149.26H168.638C167.978 149.26 167.428 149.77 167.388 150.43Z" fill="#007CFF"/>
<path opacity="0.3" d="M167.388 150.43L166.958 156.9C166.908 157.63 167.488 158.24 168.208 158.24H172.898C173.558 158.24 174.108 157.73 174.148 157.07L174.578 150.6C174.628 149.87 174.048 149.26 173.328 149.26H168.638C167.978 149.26 167.428 149.77 167.388 150.43Z" fill="white"/>
<path d="M170.289 153L170.059 156.39H172.789L173.009 153H170.289Z" fill="#007CFF"/>
<path d="M168.808 151.3L168.588 154.7H171.308L171.538 151.3H168.808Z" fill="#007CFF"/>
<path d="M126.747 166.86L126.317 173.33C126.267 174.06 126.847 174.67 127.567 174.67H132.257C132.917 174.67 133.467 174.16 133.507 173.5L133.937 167.03C133.987 166.3 133.407 165.69 132.687 165.69H127.997C127.337 165.69 126.787 166.2 126.747 166.86Z" fill="#007CFF"/>
<path opacity="0.3" d="M126.747 166.86L126.317 173.33C126.267 174.06 126.847 174.67 127.567 174.67H132.257C132.917 174.67 133.467 174.16 133.507 173.5L133.937 167.03C133.987 166.3 133.407 165.69 132.687 165.69H127.997C127.337 165.69 126.787 166.2 126.747 166.86Z" fill="white"/>
<path d="M129.648 169.43L129.418 172.82H132.148L132.368 169.43H129.648Z" fill="#007CFF"/>
<path d="M128.167 167.73L127.947 171.12H130.667L130.897 167.73H128.167Z" fill="#007CFF"/>
<path d="M139.328 166.86L138.898 173.33C138.848 174.06 139.428 174.67 140.148 174.67H144.838C145.498 174.67 146.048 174.16 146.088 173.5L146.518 167.03C146.568 166.3 145.988 165.69 145.268 165.69H140.578C139.918 165.69 139.368 166.2 139.328 166.86Z" fill="#007CFF"/>
<path opacity="0.3" d="M139.328 166.86L138.898 173.33C138.848 174.06 139.428 174.67 140.148 174.67H144.838C145.498 174.67 146.048 174.16 146.088 173.5L146.518 167.03C146.568 166.3 145.988 165.69 145.268 165.69H140.578C139.918 165.69 139.368 166.2 139.328 166.86Z" fill="white"/>
<path d="M142.218 169.43L141.998 172.82H144.718L144.948 169.43H142.218Z" fill="#007CFF"/>
<path d="M140.748 167.73L140.518 171.12H143.248L143.468 167.73H140.748Z" fill="#007CFF"/>
<path d="M152.078 166.86L151.648 173.33C151.598 174.06 152.178 174.67 152.898 174.67H157.588C158.248 174.67 158.798 174.16 158.838 173.5L159.268 167.03C159.318 166.3 158.738 165.69 158.018 165.69H153.328C152.668 165.69 152.118 166.2 152.078 166.86Z" fill="#007CFF"/>
<path opacity="0.3" d="M152.078 166.86L151.648 173.33C151.598 174.06 152.178 174.67 152.898 174.67H157.588C158.248 174.67 158.798 174.16 158.838 173.5L159.268 167.03C159.318 166.3 158.738 165.69 158.018 165.69H153.328C152.668 165.69 152.118 166.2 152.078 166.86Z" fill="white"/>
<path d="M154.978 169.43L154.748 172.82H157.478L157.698 169.43H154.978Z" fill="#007CFF"/>
<path d="M153.497 167.73L153.277 171.12H155.997L156.227 167.73H153.497Z" fill="#007CFF"/>
<path d="M164.779 166.86L164.349 173.33C164.299 174.06 164.879 174.67 165.599 174.67H170.289C170.949 174.67 171.499 174.16 171.539 173.5L171.969 167.03C172.019 166.3 171.439 165.69 170.719 165.69H166.029C165.369 165.69 164.819 166.2 164.779 166.86Z" fill="#007CFF"/>
<path opacity="0.3" d="M164.779 166.86L164.349 173.33C164.299 174.06 164.879 174.67 165.599 174.67H170.289C170.949 174.67 171.499 174.16 171.539 173.5L171.969 167.03C172.019 166.3 171.439 165.69 170.719 165.69H166.029C165.369 165.69 164.819 166.2 164.779 166.86Z" fill="white"/>
<path d="M167.669 169.43L167.449 172.82H170.169L170.399 169.43H167.669Z" fill="#007CFF"/>
<path d="M166.199 167.73L165.969 171.12H168.689L168.919 167.73H166.199Z" fill="#007CFF"/>
<path d="M124.138 184.31L123.708 190.78C123.658 191.51 124.238 192.12 124.958 192.12H129.648C130.308 192.12 130.858 191.61 130.898 190.95L131.328 184.48C131.378 183.75 130.798 183.14 130.078 183.14H125.388C124.728 183.14 124.178 183.65 124.138 184.31Z" fill="#007CFF"/>
<path opacity="0.3" d="M124.138 184.31L123.708 190.78C123.658 191.51 124.238 192.12 124.958 192.12H129.648C130.308 192.12 130.858 191.61 130.898 190.95L131.328 184.48C131.378 183.75 130.798 183.14 130.078 183.14H125.388C124.728 183.14 124.178 183.65 124.138 184.31Z" fill="white"/>
<path d="M127.029 186.88L126.809 190.27H129.529L129.759 186.88H127.029Z" fill="#007CFF"/>
<path d="M125.558 185.18L125.328 188.58H128.048L128.278 185.18H125.558Z" fill="#007CFF"/>
<path d="M136.708 184.31L136.278 190.78C136.228 191.51 136.808 192.12 137.528 192.12H142.218C142.878 192.12 143.428 191.61 143.468 190.95L143.898 184.48C143.948 183.75 143.368 183.14 142.648 183.14H137.958C137.298 183.14 136.748 183.65 136.708 184.31Z" fill="#007CFF"/>
<path opacity="0.3" d="M136.708 184.31L136.278 190.78C136.228 191.51 136.808 192.12 137.528 192.12H142.218C142.878 192.12 143.428 191.61 143.468 190.95L143.898 184.48C143.948 183.75 143.368 183.14 142.648 183.14H137.958C137.298 183.14 136.748 183.65 136.708 184.31Z" fill="white"/>
<path d="M139.609 186.88L139.379 190.27H142.109L142.329 186.88H139.609Z" fill="#007CFF"/>
<path d="M138.128 185.18L137.898 188.58H140.628L140.858 185.18H138.128Z" fill="#007CFF"/>
<path d="M149.468 184.31L149.038 190.78C148.988 191.51 149.568 192.12 150.288 192.12H154.978C155.638 192.12 156.188 191.61 156.228 190.95L156.658 184.48C156.708 183.75 156.128 183.14 155.408 183.14H150.718C150.058 183.14 149.508 183.65 149.468 184.31Z" fill="#007CFF"/>
<path opacity="0.3" d="M149.468 184.31L149.038 190.78C148.988 191.51 149.568 192.12 150.288 192.12H154.978C155.638 192.12 156.188 191.61 156.228 190.95L156.658 184.48C156.708 183.75 156.128 183.14 155.408 183.14H150.718C150.058 183.14 149.508 183.65 149.468 184.31Z" fill="white"/>
<path d="M152.359 186.88L152.139 190.27H154.859L155.089 186.88H152.359Z" fill="#007CFF"/>
<path d="M150.888 185.18L150.658 188.58H153.378L153.608 185.18H150.888Z" fill="#007CFF"/>
<path d="M162.158 184.31L161.728 190.78C161.678 191.51 162.258 192.12 162.978 192.12H167.668C168.328 192.12 168.878 191.61 168.918 190.95L169.348 184.48C169.398 183.75 168.818 183.14 168.098 183.14H163.408C162.748 183.14 162.198 183.65 162.158 184.31Z" fill="#007CFF"/>
<path opacity="0.3" d="M162.158 184.31L161.728 190.78C161.678 191.51 162.258 192.12 162.978 192.12H167.668C168.328 192.12 168.878 191.61 168.918 190.95L169.348 184.48C169.398 183.75 168.818 183.14 168.098 183.14H163.408C162.748 183.14 162.198 183.65 162.158 184.31Z" fill="white"/>
<path d="M165.058 186.88L164.828 190.27H167.548L167.778 186.88H165.058Z" fill="#007CFF"/>
<path d="M163.578 185.18L163.348 188.58H166.078L166.308 185.18H163.578Z" fill="#007CFF"/>
<path d="M160.348 139.95H162.078L162.238 138.22H160.498L160.348 139.95Z" fill="#007CFF"/>
<path d="M163.968 138.22L163.818 139.95H165.548L165.698 138.22L165.848 136.49H164.118L163.968 138.22Z" fill="#007CFF"/>
<path d="M167.727 134.76L167.577 136.49L167.427 138.22L167.277 139.95H169.007L169.157 138.22L169.307 136.49L169.457 134.76H167.727Z" fill="#007CFF"/>
<g opacity="0.4">
<path d="M160.348 139.95H162.078L162.238 138.22H160.498L160.348 139.95Z" fill="white"/>
<path d="M163.968 138.22L163.818 139.95H165.548L165.698 138.22L165.848 136.49H164.118L163.968 138.22Z" fill="white"/>
<path d="M167.727 134.76L167.577 136.49L167.427 138.22L167.277 139.95H169.007L169.157 138.22L169.307 136.49L169.457 134.76H167.727Z" fill="white"/>
</g>
<path d="M174.188 134.76L174.078 136.03H173.228L173.008 138.56H173.858L173.738 139.83H181.358L181.808 134.75H174.188V134.76ZM177.248 138.57H174.708L174.928 136.04H177.468L177.248 138.57Z" fill="#007CFF"/>
<path opacity="0.7" d="M174.188 134.76L174.078 136.03H173.228L173.008 138.56H173.858L173.738 139.83H181.358L181.808 134.75H174.188V134.76ZM177.248 138.57H174.708L174.928 136.04H177.468L177.248 138.57Z" fill="white"/>
<path d="M155.949 139.77C156.363 139.77 156.699 139.434 156.699 139.02C156.699 138.606 156.363 138.27 155.949 138.27C155.535 138.27 155.199 138.606 155.199 139.02C155.199 139.434 155.535 139.77 155.949 139.77Z" fill="#007CFF"/>
<path d="M155.948 135.47C157.288 135.47 158.448 136.23 159.048 137.33L159.788 136.78C159.008 135.46 157.588 134.56 155.948 134.56C154.218 134.56 152.728 135.56 151.988 137L152.758 137.49C153.338 136.3 154.538 135.48 155.948 135.48V135.47Z" fill="#007CFF"/>
<path d="M155.949 136.71C156.879 136.71 157.679 137.27 158.039 138.08L158.789 137.53C158.249 136.51 157.189 135.8 155.949 135.8C154.709 135.8 153.559 136.56 153.039 137.66L153.819 138.16C154.159 137.32 154.979 136.72 155.949 136.72V136.71Z" fill="#007CFF"/>
<path d="M155.949 137.92C156.489 137.92 156.929 138.32 157.019 138.84L157.809 138.25C157.509 137.52 156.789 137 155.949 137C155.109 137 154.349 137.54 154.059 138.3L154.879 138.82C154.979 138.31 155.409 137.92 155.949 137.92Z" fill="#007CFF"/>
<g opacity="0.7">
<path d="M155.949 139.77C156.363 139.77 156.699 139.434 156.699 139.02C156.699 138.606 156.363 138.27 155.949 138.27C155.535 138.27 155.199 138.606 155.199 139.02C155.199 139.434 155.535 139.77 155.949 139.77Z" fill="white"/>
</g>
<path opacity="0.7" d="M155.948 135.47C157.288 135.47 158.448 136.23 159.048 137.33L159.788 136.78C159.008 135.46 157.588 134.56 155.948 134.56C154.218 134.56 152.728 135.56 151.988 137L152.758 137.49C153.338 136.3 154.538 135.48 155.948 135.48V135.47Z" fill="white"/>
<path opacity="0.7" d="M155.949 136.71C156.879 136.71 157.679 137.27 158.039 138.08L158.789 137.53C158.249 136.51 157.189 135.8 155.949 135.8C154.709 135.8 153.559 136.56 153.039 137.66L153.819 138.16C154.159 137.32 154.979 136.72 155.949 136.72V136.71Z" fill="white"/>
<path opacity="0.7" d="M155.949 137.92C156.489 137.92 156.929 138.32 157.019 138.84L157.809 138.25C157.509 137.52 156.789 137 155.949 137C155.109 137 154.349 137.54 154.059 138.3L154.879 138.82C154.979 138.31 155.409 137.92 155.949 137.92Z" fill="white"/>
<path opacity="0.1" d="M183.828 133.22H122.958L115.818 203H176.688L183.828 133.22Z" fill="white"/>
<path d="M55.369 125.84C55.369 125.84 45.949 142.35 45.249 146.31C44.549 150.27 53.269 175.56 53.269 175.56C53.269 175.56 51.349 182.22 53.439 183.34C55.529 184.46 59.189 186.73 59.719 184.81C60.249 182.89 59.719 176.56 59.719 176.56L58.149 175.21C58.149 175.21 52.589 148.78 52.579 147.86C52.579 146.95 62.709 131.36 62.709 131.36L55.369 125.84Z" fill="#E4897B"/>
<path d="M61.1491 114.68C56.2491 116.81 43.8691 137.29 43.9891 146.08C44.1091 154.87 51.2891 169.59 51.2891 169.59L56.7691 168.56C56.7691 168.56 54.7591 147.81 55.4191 145.1C56.0791 142.39 64.0491 131.48 64.0491 131.48L61.1591 114.68H61.1491Z" fill="#2673E5"/>
<g opacity="0.2">
<path d="M55.4094 145.1C54.7494 147.81 56.7594 168.56 56.7594 168.56L51.2794 169.59C51.2794 169.59 44.0994 154.87 43.9794 146.07C43.8594 137.28 56.2494 116.8 61.1494 114.67L63.4994 128.35L64.0394 131.47C64.0394 131.47 59.7594 137.32 57.2194 141.52C56.2794 143.06 55.5894 144.37 55.4094 145.09V145.1Z" fill="white"/>
</g>
<g opacity="0.2">
<path d="M64.0396 131.48C64.0396 131.48 59.7596 137.33 57.2196 141.53C56.7896 135.18 59.9496 127.78 61.1596 125.2C61.4396 124.61 61.6096 124.26 61.6096 124.26L63.5096 128.36L64.0496 131.48H64.0396Z" fill="black"/>
</g>
<path d="M90.0996 287.05L95.7596 287.64L96.0396 284.36L96.8196 275.44L91.1596 274.84L90.2996 284.7L90.0996 287.05Z" fill="#E4897B"/>
<path d="M61.8496 286.33H67.3396L67.3796 285.09L67.3896 284.94L67.6696 276.98L67.6796 276.82L67.7896 273.77H62.2996L61.8496 286.33Z" fill="#E4897B"/>
<g opacity="0.2">
<path d="M91.1588 274.84L90.2988 284.7L96.0388 284.36L96.8188 275.44L91.1588 274.84Z" fill="black"/>
</g>
<g opacity="0.2">
<path d="M61.8887 285.63L67.3787 284.94H67.3887L67.6787 277.26H67.6687L62.1687 277.7L61.8887 285.39V285.63Z" fill="black"/>
</g>
<path d="M68.0999 286H61.4399C61.2199 286 61.0199 286.16 60.9699 286.38L59.8899 291.26C59.7999 291.7 60.0799 292.13 60.5099 292.22C60.5699 292.23 60.6299 292.24 60.6899 292.24C62.8499 292.21 64.4199 292.07 67.1199 292.07C68.7899 292.07 73.8199 292.24 76.1199 292.24C78.4199 292.24 78.7199 289.97 77.7799 289.76C73.5499 288.84 70.3699 287.56 69.0199 286.35C68.7699 286.12 68.4399 285.99 68.0999 286Z" fill="#1A2E35"/>
<path d="M96.3596 285.83H89.6997C89.4797 285.83 89.2797 285.99 89.2297 286.21L88.1497 291.09C88.0597 291.53 88.3397 291.96 88.7697 292.05C88.8297 292.06 88.8897 292.07 88.9497 292.07C91.1097 292.04 92.6797 291.9 95.3797 291.9C97.0497 291.9 102.08 292.07 104.38 292.07C106.68 292.07 106.98 289.8 106.04 289.59C101.81 288.67 98.6296 287.39 97.2796 286.18C97.0296 285.95 96.6996 285.82 96.3596 285.83Z" fill="#1A2E35"/>
<path d="M97.3384 283.54H89.2884C89.2884 283.54 89.9484 214.28 81.2384 190.89C80.6284 198.62 79.9384 206.64 79.2584 213.33C78.8284 217.47 78.4184 221.02 78.0184 223.73C75.4884 241.17 69.0984 284.24 69.0984 284.24H61.1484C61.1484 284.24 62.0884 242.98 63.0284 225.83C64.0684 207.22 64.5184 166.31 64.5584 162.82H93.6684C96.4384 177.47 103.538 236.09 97.3284 283.54H97.3384Z" fill="#1A2E35"/>
<path d="M83.0996 101.33C83.0296 101.6 82.9596 101.86 82.8596 102.11C82.3196 103.62 81.3496 104.86 80.1496 105.73C79.8396 105.96 79.4996 106.17 79.1596 106.34C77.3396 107.28 75.1696 107.45 73.2196 106.6C72.4196 106.26 71.6496 105.74 70.9496 105.03C68.1996 102.25 68.2696 99.05 67.9696 93.62C67.8896 92.45 68.0696 91.28 68.5196 90.21C70.0896 86.42 74.4496 84.63 78.2296 86.2C83.5496 88.37 84.2796 96.44 83.0996 101.33Z" fill="#E4897B"/>
<g opacity="0.2">
<path d="M80.1488 105.72C79.8388 105.95 79.4988 106.16 79.1588 106.33C77.3388 107.27 75.1688 107.44 73.2188 106.59C73.5987 105.54 74.1888 104.75 74.1888 104.75C74.1888 104.75 77.4288 104.25 80.1588 105.71L80.1488 105.72Z" fill="black"/>
</g>
<path d="M69.2285 112.76C71.8985 115.19 78.4485 114.29 78.4485 114.29C78.4485 114.29 82.5385 113.17 81.6785 111.89C79.2685 111.49 78.1085 110.37 77.6285 108.93C77.3485 108.09 77.3085 107.15 77.3885 106.18C77.4185 105.67 77.4985 105.15 77.5885 104.64L69.4985 98.65C70.5585 102.61 71.8585 109.88 69.2385 112.75L69.2285 112.76Z" fill="#E4897B"/>
<path d="M76.6792 83.86C76.6792 83.86 80.2092 82.38 82.6492 84.69C84.7092 86.64 83.3692 89.64 84.6192 92.13C85.8692 94.63 81.3592 96.25 81.3592 96.25C81.3592 96.25 80.1692 98.81 78.0992 98.65C78.0992 98.65 76.4092 100.7 76.6792 102.81C76.9492 104.93 73.9092 106.6 69.7692 106.54C65.6292 106.49 67.2892 103.9 67.2892 103.9C67.2892 103.9 65.7792 102.34 64.4192 99.26C63.0592 96.18 63.2392 92.78 63.2392 92.78C63.2392 92.78 62.8692 89.61 65.6292 86.5C68.3892 83.39 74.9792 81.83 76.6792 83.85V83.86Z" fill="#1A2E35"/>
<path d="M77.0695 96.78C77.3895 97.96 78.0395 98.83 78.8795 99.19C79.9895 99.66 80.7095 98.1 80.5495 96.47C80.3995 95.02 79.6495 92.99 78.4695 93.26C77.2895 93.53 76.6895 95.32 77.0795 96.78H77.0695Z" fill="#E4897B"/>
<g opacity="0.2">
<path d="M81.2491 190.86C80.6391 198.59 79.9491 206.63 79.2691 213.31C78.2791 203.66 77.0691 196.78 77.0691 196.78C77.0691 196.78 75.9291 195.84 72.8091 190.86C69.6791 185.86 72.8091 176.56 72.8091 176.56C72.7091 185.21 81.2591 190.86 81.2591 190.86H81.2491Z" fill="black"/>
</g>
<path d="M98.2398 281.27L97.8498 283.54H88.3398V281.45L98.2398 281.27Z" fill="#2673E5"/>
<path d="M70.0096 282.14L69.0996 284.24H61.1196L60.5996 282.14H70.0096Z" fill="#2673E5"/>
<path d="M64.2988 167.6V171.88L94.7988 169.74V165.94L64.2988 167.6Z" fill="#2673E5"/>
<g opacity="0.2">
<path d="M64.2988 167.6V171.88L94.7988 169.74V165.94L64.2988 167.6Z" fill="white"/>
</g>
<path d="M96.2897 164.06C96.4097 165.68 95.1697 167.07 93.5497 167.15L64.9297 168.55C64.0097 168.6 63.2297 167.87 63.2297 166.95C63.0497 149.53 57.0797 117.83 61.1597 114.68C65.3697 111.42 86.0497 109.71 86.0497 109.71C86.9697 111.85 87.8197 114.2 88.5797 116.69C88.6697 116.99 88.7697 117.29 88.8497 117.6C90.0397 121.52 91.0297 125.75 91.8897 130.03C91.9497 130.32 92.0097 130.61 92.0597 130.9C94.6797 144.39 95.8697 158.18 96.2897 164.07V164.06Z" fill="#2673E5"/>
<g opacity="0.4">
<path d="M96.2897 164.06C96.4097 165.68 95.1697 167.07 93.5497 167.15L64.9297 168.55C64.0097 168.6 63.2297 167.87 63.2297 166.95C63.0497 149.53 57.0797 117.83 61.1597 114.68C65.3697 111.42 86.0497 109.71 86.0497 109.71C86.9697 111.85 87.8197 114.2 88.5797 116.69C88.6697 116.99 88.7697 117.29 88.8497 117.6C90.0397 121.52 91.0297 125.75 91.8897 130.03C91.9497 130.32 92.0097 130.61 92.0597 130.9C94.6797 144.39 95.8697 158.18 96.2897 164.07V164.06Z" fill="white"/>
</g>
<path d="M80.5688 110.26C80.5688 110.26 77.4088 107.78 71.4788 107.91C65.5488 108.04 64.9688 110.26 64.9688 110.26C64.9688 110.26 58.4588 113.51 63.5688 118.86C68.6888 124.21 78.7588 110.65 78.7588 110.65L80.5688 110.26Z" fill="#2673E5"/>
<g opacity="0.2">
<path d="M80.5688 110.26C80.5688 110.26 77.4088 107.78 71.4788 107.91C65.5488 108.04 64.9688 110.26 64.9688 110.26C64.9688 110.26 58.4588 113.51 63.5688 118.86C68.6888 124.21 78.7588 110.65 78.7588 110.65L80.5688 110.26Z" fill="white"/>
</g>
<g opacity="0.2">
<path d="M91.8889 130.03C87.4189 124.12 87.1289 117.85 87.1289 117.85L88.8489 117.59C90.0389 121.51 91.0289 125.74 91.8889 130.02V130.03Z" fill="black"/>
</g>
<path d="M89.7695 109.83C89.7695 109.83 110.43 105.61 113.34 104.5C116.25 103.39 131.6 88.71 131.6 88.71L134.96 91.25C134.96 91.25 123.46 106.19 117.7 110.49C111.94 114.79 91.7895 121.3 91.7895 121.3L89.7695 109.83Z" fill="#E4897B"/>
<path d="M131.6 88.71C133.26 86.82 139.29 82.74 140.16 82.39C141.03 82.04 142.33 87.38 142.07 88.08C141.81 88.78 138.85 90.26 137.36 90.44C135.87 90.62 134.27 92.14 134.27 92.14L131.59 88.72L131.6 88.71Z" fill="#E4897B"/>
<path d="M86.0399 109.71C86.0399 109.71 85.7599 119.44 90.6299 124.27C90.6299 124.27 108.06 119.16 117.45 112.81C126.83 106.46 130.59 96.75 130.59 96.75C130.59 96.75 128.97 93.69 126.79 93.24C126.79 93.24 114.27 103.32 107.37 104.68C100.47 106.04 85.4199 109.71 85.4199 109.71" fill="#2673E5"/>
<g opacity="0.2">
<path d="M86.0399 109.71C86.0399 109.71 85.7599 119.44 90.6299 124.27C90.6299 124.27 108.06 119.16 117.45 112.81C126.83 106.46 130.59 96.75 130.59 96.75C130.59 96.75 128.97 93.69 126.79 93.24C126.79 93.24 114.27 103.32 107.37 104.68C100.47 106.04 85.4199 109.71 85.4199 109.71" fill="white"/>
</g>
<path d="M126.51 93.45L127.79 91.62L131.93 96.31L130.32 97.36L126.51 93.45Z" fill="#2673E5"/>
<path d="M50.959 168.91L56.629 167.14L57.169 168.91L50.959 170.91V168.91Z" fill="#2673E5"/>
</g>
<defs>
<clipPath id="clip0_1581_34103">
<rect width="295.12" height="260" fill="white" transform="translate(0.439453 40)"/>
</clipPath>
</defs>
</svg>
