<svg width="1192" height="222" viewBox="0 0 1192 222" fill="none" xmlns="http://www.w3.org/2000/svg">
<g clip-path="url(#clip0_2175_31439)">
<g opacity="0.45">
<path d="M360.799 154.689C352.659 155.496 346.744 162.506 346.982 170.479C347.219 178.41 354.893 185.409 362.867 185.295C362.981 185.305 363.095 185.316 363.229 185.295C371.493 184.498 377.295 179.041 376.653 170.427C376.053 162.289 369.931 153.778 360.799 154.678V154.689ZM371.803 177.55C368.959 170.851 365.897 164.276 362.505 157.836C363.353 157.909 364.17 158.085 364.956 158.354C367.914 163.479 369.921 169.091 373.075 174.113C373.116 174.185 373.168 174.247 373.22 174.299C372.92 175.49 372.444 176.577 371.792 177.55H371.803ZM373.364 168.47C373.489 169.153 373.551 169.816 373.582 170.468C371.782 167.176 370.293 163.717 368.597 160.363C371.048 162.351 372.796 165.291 373.364 168.47ZM360.002 157.919C360.002 157.919 360.002 157.94 360.013 157.95C363.726 164.898 367.035 172.021 370.096 179.279C370.117 179.331 370.148 179.373 370.179 179.424C369.621 179.921 369 180.367 368.317 180.75C364.698 173.367 361.068 165.985 357.448 158.602C358.13 158.323 358.834 158.106 359.568 157.971C359.713 157.94 359.858 157.94 360.002 157.919ZM359.03 181.609C356.321 176.111 353.611 170.613 350.891 165.105C351.211 164.37 351.604 163.666 352.06 163.003C354.966 169.547 358.161 175.956 361.657 182.21C360.768 182.116 359.889 181.909 359.03 181.599V181.609ZM364.201 182.147C360.333 175.314 356.827 168.294 353.673 161.108C354.221 160.58 354.821 160.093 355.452 159.679C359.051 167.01 362.64 174.33 366.239 181.661C365.597 181.868 364.915 182.034 364.201 182.158V182.147ZM350.043 171.338C349.877 170.354 349.877 169.36 349.991 168.387C351.873 172.197 353.756 176.018 355.638 179.828C352.773 177.768 350.591 174.651 350.043 171.338Z" fill="#2673E5"/>
<path d="M387.16 139.976C375.691 129.611 355.823 128.514 342.606 135.72C329.544 142.833 319.729 160.207 322.749 175.169C323.649 179.652 324.952 184.332 326.896 188.474C328.913 192.76 332.44 196.146 335.873 199.325C342.999 205.91 351.852 209.399 361.511 209.627C377.78 209.047 393.179 200.122 399.374 184.601C405.507 169.246 399.157 150.827 387.15 139.976H387.16ZM388.194 145.577C392.269 150.599 395.775 156.438 397.585 162.713C394.027 156.521 390.48 150.319 386.922 144.128C387.367 144.594 387.791 145.07 388.194 145.577ZM397.626 180.698C394.689 175.593 392.052 170.323 389.053 165.26C387.884 160.166 385.298 155.445 381.741 151.655C378.979 146.405 376.239 141.146 373.25 136.02C374.067 136.269 374.874 136.548 375.67 136.849C384.213 149.967 390.759 164.214 398.299 177.892C398.112 178.845 397.895 179.776 397.626 180.698ZM395.754 185.554C393.696 181.961 391.473 178.472 389.508 174.827C389.58 174.268 389.642 173.709 389.684 173.139C389.735 172.446 389.746 171.742 389.735 171.048C392.021 175.21 394.203 179.435 396.634 183.525C396.354 184.208 396.065 184.891 395.744 185.554H395.754ZM393.407 189.623C391.7 186.631 389.859 183.711 387.905 180.874C388.256 180.015 388.556 179.134 388.815 178.223C390.676 181.464 392.683 184.622 394.493 187.894C394.151 188.484 393.789 189.054 393.407 189.613V189.623ZM360.994 194.386C354.737 193.91 348.739 191.932 344.043 187.614C339.162 183.121 337.321 175.293 337.559 168.843C338.076 154.782 352.297 143.641 366.124 146.167C378.08 148.352 387.129 160.031 386.695 172.187C386.198 185.978 373.777 194.552 360.994 194.396V194.386ZM383.633 199.356C382.134 196.85 380.603 194.355 379.041 191.88C379.693 191.425 380.314 190.928 380.913 190.42C382.641 192.812 384.213 195.307 385.65 197.886C384.988 198.403 384.316 198.89 383.623 199.366L383.633 199.356ZM379.424 201.872C377.935 199.345 376.321 196.892 374.801 194.376C375.608 193.992 376.394 193.568 377.149 193.112C378.7 195.587 380.231 198.072 381.73 200.578C380.975 201.033 380.2 201.458 379.414 201.861L379.424 201.872ZM374.884 203.901C373.364 201.282 371.771 198.714 370.126 196.167C371.006 195.908 371.864 195.618 372.712 195.287C374.232 197.834 375.877 200.308 377.387 202.866C376.57 203.239 375.732 203.58 374.894 203.901H374.884ZM370.726 205.237C369.02 202.534 367.303 199.832 365.597 197.13C366.341 197.026 367.086 196.902 367.81 196.747C369.496 199.345 371.14 201.986 372.702 204.657C372.05 204.864 371.388 205.061 370.726 205.237ZM366.052 206.189C364.025 203.363 362.204 200.391 360.477 197.357C360.653 197.378 360.829 197.389 361.005 197.409C361.698 197.409 362.38 197.399 363.073 197.357C364.852 200.163 366.62 202.969 368.399 205.775C367.624 205.931 366.838 206.065 366.052 206.179V206.189ZM361.532 206.614C361.367 206.614 361.201 206.593 361.036 206.593C358.926 203.29 356.94 199.925 355.037 196.508C355.916 196.716 356.795 196.881 357.695 197.026C359.495 200.267 361.408 203.456 363.518 206.5C362.856 206.552 362.194 206.604 361.532 206.624V206.614ZM347.87 203.518C340.579 189.965 333.277 176.422 325.986 162.868C326.151 162.144 326.348 161.429 326.555 160.715C329.42 165.923 332.295 171.12 335.128 176.339C336.08 181.423 338.231 186.362 341.923 189.758C342.378 190.182 342.854 190.565 343.33 190.948C346.153 195.68 349.028 200.381 351.924 205.071C350.528 204.636 349.184 204.119 347.88 203.518H347.87ZM342.12 200.236C335.987 190.048 330.381 179.859 325.128 169.205C325.138 168.884 325.138 168.563 325.169 168.242C325.21 167.642 325.272 167.041 325.345 166.451C331.653 178.172 337.973 189.903 344.281 201.623C343.547 201.188 342.833 200.723 342.12 200.236ZM328.396 155.786C329.12 157.132 330.009 158.406 330.785 159.721C332.181 162.102 333.463 164.546 334.684 167.02C334.622 167.621 334.57 168.232 334.549 168.843C334.529 169.402 334.529 169.971 334.549 170.551C332.222 166.306 329.885 162.061 327.548 157.805C327.817 157.122 328.106 156.449 328.406 155.776L328.396 155.786ZM331.374 150.423C333.226 153.591 334.901 156.853 336.401 160.207C335.987 161.232 335.625 162.278 335.346 163.355C334.663 162.04 333.97 160.735 333.236 159.452C332.078 157.422 330.464 155.424 329.688 153.198C330.216 152.245 330.774 151.324 331.374 150.423ZM334.446 146.426C336.245 149.118 337.9 151.903 339.389 154.782C338.759 155.672 338.19 156.594 337.673 157.546C336.214 154.419 334.601 151.386 332.833 148.414C333.35 147.731 333.887 147.068 334.456 146.426H334.446ZM337.776 143.082C339.286 145.815 340.868 148.507 342.358 151.251C341.851 151.758 341.375 152.287 340.91 152.825C339.431 150.04 337.807 147.337 336.028 144.728C336.597 144.159 337.176 143.61 337.776 143.071V143.082ZM341.582 140.11C342.989 142.823 344.53 145.463 345.957 148.176C345.305 148.642 344.674 149.139 344.064 149.667C342.585 146.965 341.024 144.304 339.534 141.601C340.196 141.084 340.879 140.587 341.572 140.121L341.582 140.11ZM349.649 136C350.993 138.754 352.452 141.446 354.034 144.065C353.331 144.293 352.638 144.552 351.945 144.832C350.497 142.16 349.049 139.479 347.601 136.807C348.273 136.517 348.956 136.248 349.649 136ZM354.437 134.695C356.247 137.304 357.499 140.224 359.06 142.978C358.13 143.092 357.219 143.248 356.309 143.444C354.686 140.794 353.196 138.081 351.831 135.306C352.69 135.068 353.558 134.861 354.437 134.695ZM359.495 134.126C360.974 137.149 362.628 140.069 364.418 142.916C363.466 142.833 362.525 142.792 361.594 142.813C359.908 140.048 358.657 137.045 356.909 134.312C357.757 134.219 358.626 134.146 359.495 134.126ZM345.626 137.884C347.053 140.514 348.47 143.144 349.897 145.774C349.204 146.126 348.522 146.509 347.86 146.913C346.443 144.221 344.902 141.591 343.506 138.888C344.178 138.485 344.871 138.112 345.574 137.76C345.595 137.801 345.605 137.843 345.626 137.884ZM354.975 205.713C352.524 201.758 350.104 197.792 347.694 193.806C349.059 194.52 350.476 195.131 351.945 195.628C353.931 199.283 356.04 202.866 358.254 206.386C357.157 206.262 356.092 206.096 355.048 205.879C355.027 205.827 354.996 205.765 354.965 205.713H354.975ZM370.168 135.202C372.609 139.261 374.874 143.413 377.087 147.607C375.99 146.851 374.853 146.167 373.653 145.577C371.399 141.974 369.32 138.257 367.107 134.623C368.13 134.778 369.154 134.975 370.168 135.202ZM379.414 138.526C380.334 139.002 381.224 139.541 382.082 140.1C382.103 140.203 382.144 140.317 382.206 140.421C387.594 149.822 392.993 159.224 398.381 168.615C398.495 168.812 398.64 168.946 398.795 169.029C398.878 169.93 398.929 170.831 398.929 171.742C398.929 172.529 398.888 173.316 398.836 174.082C392.414 162.195 386.56 149.988 379.414 138.516V138.526ZM364.252 134.281C366.269 137.511 368.151 140.835 370.106 144.097C369.227 143.807 368.327 143.558 367.406 143.361C365.452 140.379 363.642 137.304 362.039 134.126C362.773 134.157 363.507 134.208 364.252 134.271V134.281ZM334.198 193.371C329.926 188.898 326.669 181.806 325.552 175.014C329.233 182.241 333.101 189.292 337.187 196.291C336.173 195.37 335.18 194.396 334.198 193.371ZM387.45 196.426C386.033 193.91 384.492 191.487 382.796 189.147C382.723 189.054 382.651 188.981 382.568 188.909C383.044 188.432 383.499 187.946 383.933 187.428C385.526 190.017 387.15 192.595 388.825 195.131C388.37 195.566 387.915 196.001 387.439 196.415L387.45 196.426ZM390.439 193.464C388.722 190.845 387.046 188.194 385.412 185.523C385.919 184.798 386.384 184.042 386.808 183.255C388.639 185.978 390.366 188.774 391.98 191.642C391.493 192.263 390.976 192.864 390.439 193.454V193.464Z" fill="#2673E5"/>
<path d="M412.334 158.478C409.769 148.694 403.656 140.141 396.293 133.37C388.671 126.35 379.435 120.241 368.917 119.143C357.737 117.984 344.075 119.319 334.674 125.874C316.358 138.63 306.75 158.665 311.497 181.029C316.575 204.988 338.139 221.7 362.391 221.689C382.693 221.814 400.988 211.294 408.848 192.243C413.223 181.64 415.291 169.764 412.344 158.489L412.334 158.478ZM408.652 183.752C405.57 194.541 400.068 204.233 390.636 210.58C382.31 216.181 372.34 218.718 362.381 218.656C342.358 218.656 323.949 206.728 316.668 187.863C312.935 178.182 312.025 166.233 314.889 156.19C317.547 146.882 323.184 139.624 330.279 133.297C334.033 129.953 338.035 126.66 342.782 124.838C348.243 122.747 354.386 122.405 360.168 122.063C371.358 121.411 380.562 124.714 389.384 131.516C405.952 144.293 414.567 162.962 408.631 183.752H408.652Z" fill="#2673E5"/>
<path d="M350.838 153.488C351.986 152.618 350.859 150.651 349.7 151.531C347.942 152.856 346.349 154.347 344.953 156.066C344.043 157.184 345.636 158.799 346.556 157.671C347.818 156.118 349.245 154.699 350.848 153.498L350.838 153.488Z" fill="#2673E5"/>
<path d="M349.205 156.345C348.233 157.422 349.826 159.027 350.808 157.95C351.75 156.904 352.804 156.045 354.014 155.341C355.276 154.616 354.139 152.659 352.877 153.384C351.512 154.171 350.271 155.175 349.205 156.345Z" fill="#2673E5"/>
</g>
<g opacity="0.45">
<path d="M633.067 20.5113C627.296 15.1272 621.825 13.5637 614.41 16.6389C607.853 19.362 602.723 25.2948 597.552 30.0162C589.765 37.1294 582.267 44.5429 574.893 52.0702C567.777 59.3491 560.775 66.7419 553.929 74.2692C550.868 77.6239 547.424 80.9475 544.776 84.675C544.673 84.7889 544.58 84.9028 544.497 85.0581C544.383 85.2134 544.321 85.3687 544.269 85.524C542.449 89.1893 541.694 93.6829 540.794 97.5968C539.346 103.861 538.147 110.208 537.568 116.617C537.454 117.839 538.736 118.419 539.729 118.263C549.72 116.7 559.586 114.484 569.546 112.724C573.6 112.01 575.358 109.214 578.202 106.273C582.959 101.355 587.686 96.406 592.412 91.4672C601.203 82.2832 609.994 73.0992 618.93 64.0498C626.293 56.5949 636.718 48.5085 640.224 38.2373C642.82 30.6582 638.363 25.4294 633.067 20.4906V20.5113ZM622.498 55.984C618.413 52.5983 615.3 48.6534 611.628 44.75C607.76 40.6498 603.623 36.8188 599.466 33.0189C600.221 32.3148 600.986 31.6107 601.741 30.917C609.446 38.5065 617.058 46.1892 624.566 53.9754C623.884 54.6484 623.191 55.311 622.508 55.9737L622.498 55.984ZM613.334 64.8781C606.105 56.6985 597.656 49.6785 589.454 42.4928C590.127 41.8405 590.809 41.1882 591.492 40.5359C600.2 46.9347 607.595 55.3628 615.186 63.0041C614.896 63.294 614.596 63.5839 614.317 63.8738C613.986 64.2051 613.665 64.5468 613.345 64.8781H613.334ZM569.215 97.6589C569.215 97.6589 569.215 97.6589 569.204 97.6589C565.957 97.8556 562.699 97.8556 559.441 97.9488C559.328 95.4638 559.348 91.5086 558.438 89.21C564.302 83.4532 569.359 77.1683 574.955 71.1734C581.263 64.4018 587.965 57.972 594.481 51.4179C597.873 54.3895 601.224 57.4025 604.44 60.5398C593.002 73.2027 581.377 85.7 569.215 97.6692V97.6589ZM597.573 34.7687C598.183 35.3175 598.783 35.8766 599.383 36.4357C598.173 37.8335 596.89 39.1588 595.536 40.4116C594.822 39.8422 594.077 39.2934 593.343 38.7446C594.739 37.409 596.156 36.0837 597.573 34.7687ZM605.929 49.8855C607.264 48.8191 608.515 47.6698 609.694 46.448C609.735 46.4894 609.777 46.5309 609.818 46.5723C610.532 47.3385 611.225 48.0943 611.907 48.8501C610.832 50.1133 609.653 51.2833 608.381 52.3601C607.574 51.5318 606.757 50.7139 605.94 49.8959L605.929 49.8855ZM604.099 48.084C603.396 47.4006 602.692 46.7069 601.979 46.0339C603.158 44.7603 604.357 43.5178 605.588 42.2857C606.374 43.0519 607.14 43.8285 607.905 44.605C606.705 45.8371 605.443 47.0071 604.099 48.084ZM600.076 44.3047C599.228 43.5386 598.38 42.7931 597.511 42.0579C598.824 40.8258 600.086 39.5316 601.255 38.1648C602.082 38.9414 602.91 39.7179 603.737 40.4945C602.486 41.737 601.265 43.0001 600.065 44.2944L600.076 44.3047ZM610.159 54.1825C611.411 53.1367 612.559 51.9978 613.624 50.7553C614.379 51.6043 615.144 52.4326 615.91 53.2506C614.772 54.3688 613.686 55.5285 612.642 56.7399C611.814 55.8909 610.987 55.0315 610.159 54.1825ZM567.674 64.495C573.993 57.8271 580.426 51.2833 586.983 44.8742C588.834 46.4894 590.685 48.1047 592.547 49.7199C586.062 56.2325 579.412 62.6313 573.134 69.3614C567.539 75.3564 562.482 81.6516 556.628 87.3981C555.646 87.1082 554.363 87.0771 553.639 86.9425C551.757 86.6008 549.875 86.3109 547.982 86.0624C553.515 78.2866 561.168 71.3701 567.674 64.495ZM554.643 112.372C551.954 108.903 547.641 104.586 543.483 101.231C543.68 100.32 543.876 99.4087 544.083 98.5079C544.828 95.3085 545.407 91.5914 546.689 88.4335C549.409 88.682 553.67 88.7337 556.059 89.9555C555.129 89.6552 556.039 91.6639 556.215 92.9789C556.483 95.0704 556.721 97.1722 556.97 99.2638C557.052 99.9368 557.497 100.579 558.252 100.548C560.662 100.454 563.154 100.61 565.554 100.382C568.17 100.144 568.077 99.6158 568.367 102.194C568.636 104.544 568.811 106.895 568.977 109.255C568.677 109.359 568.377 109.452 568.077 109.535C563.671 110.643 559.172 111.554 554.653 112.372H554.643ZM591.45 87.5327C587.386 91.7778 583.332 96.0229 579.257 100.247C576.785 102.815 574.427 106.015 571.459 107.992C571.273 105.279 571.035 102.556 570.632 99.8643C582.949 87.7708 594.708 75.1389 606.271 62.331C607.874 63.9566 609.446 65.6133 610.956 67.3217C604.42 74.0207 597.925 80.7612 591.45 87.5223V87.5327ZM617.016 61.2025C616.148 60.3327 615.289 59.463 614.431 58.5725C615.475 57.3611 616.572 56.2015 617.709 55.0729C618.64 55.984 619.612 56.8745 620.646 57.7442C619.416 58.9039 618.206 60.0532 617.016 61.2025ZM636.025 39.4177C633.833 43.8078 630.565 47.7837 626.965 51.5318C619.498 43.787 611.928 36.1354 604.254 28.5874C604.42 28.4321 604.585 28.2768 604.75 28.1215C609.911 23.4622 616.365 16.4732 624.152 18.6268C627.752 19.6208 630.699 22.7684 633.129 25.4501C637.08 29.8195 638.952 33.5366 636.015 39.4073L636.025 39.4177Z" fill="#2673E5"/>
<path d="M614.989 25.4605C614.689 23.8349 612.217 24.5286 612.517 26.1438C612.952 28.4735 613.541 30.7514 614.286 32.9982C614.803 34.5616 617.285 33.8886 616.758 32.3148C616.013 30.068 615.424 27.7901 614.989 25.4605Z" fill="#2673E5"/>
<path d="M619.334 24.57C618.817 23.0066 616.335 23.6796 616.862 25.2534C617.503 27.1896 618.145 29.1154 618.786 31.0516C619.303 32.6151 621.785 31.9421 621.258 30.3683C620.616 28.4321 619.975 26.5062 619.334 24.57Z" fill="#2673E5"/>
</g>
<g opacity="0.45">
<path d="M867.658 167.548C867.492 162.175 867.596 156.811 867.699 151.438C867.771 148.01 867.782 144.614 867.596 141.187C867.451 138.454 867.937 134.975 867.192 132.334C866.448 129.684 864.41 129.56 861.959 129.435C855.619 129.135 849.207 129.384 842.857 129.363C828.688 129.301 814.509 129.218 800.34 129.197C792.873 129.187 785.448 129.373 778.001 129.87C775.322 130.046 770.834 129.528 768.652 131.413C767.193 132.666 767.018 134.643 766.707 136.393C766.015 140.297 765.921 144.386 765.766 148.342C765.415 156.998 765.57 165.664 765.042 174.31C764.608 181.309 764.887 188.298 765.084 195.297C765.197 199.221 763.946 205.558 767.266 208.509C770.689 211.553 777.949 210.238 782.014 210.362C789.491 210.59 796.979 210.797 804.467 210.921C818.491 211.139 832.504 210.631 846.518 211.18C851.875 211.387 857.781 211.18 863.066 210.269C866.21 209.731 867.192 207.846 867.513 204.854C868.816 192.533 868.03 179.901 867.647 167.548H867.658ZM774.04 133.256C775.364 133.132 776.688 133.101 778.022 133.007C783.483 132.645 788.922 132.386 794.404 132.345C806.153 132.262 817.901 132.397 829.64 132.448C834.687 132.469 839.744 132.49 844.791 132.51C850.117 132.531 855.899 131.868 861.173 132.562C863.645 132.883 863.759 133.09 864.203 135.617C864.607 137.936 864.462 140.669 864.565 143.03C864.576 143.372 864.576 143.724 864.586 144.065C832.784 142.916 800.95 142.802 769.138 143.755C769.262 141.953 769.417 140.162 769.634 138.371C770.038 134.985 770.668 133.577 774.05 133.256H774.04ZM864.855 190.803C864.72 195.1 864.824 199.459 864.483 203.746C864.234 206.862 862.952 206.718 860.097 207.183C857.15 207.67 854.171 208.043 851.183 208.105C840.189 208.353 829.081 207.846 818.067 207.867C805.046 207.888 792.025 207.515 779.015 207.121C774.94 206.997 768.631 207.556 768.373 202.296C768.228 199.335 768.279 196.353 768.186 193.382C767.99 187.014 767.804 180.657 768.207 174.289C768.786 164.918 768.486 155.486 769.003 146.105C800.878 145.153 832.773 145.256 864.648 146.416C864.679 150.847 864.483 155.289 864.451 159.721C864.4 170.095 865.196 180.398 864.865 190.783L864.855 190.803Z" fill="#2673E5"/>
<path d="M776.792 141.86C778.716 141.632 780.722 140.524 780.391 138.288C780.091 136.3 778.747 134.954 776.699 134.871C774.744 134.83 773.317 136.756 773.017 138.536C772.645 140.752 774.786 142.098 776.802 141.86H776.792ZM775.396 138.681C775.551 138.102 776.006 137.221 776.699 137.232C777.34 137.263 777.754 137.553 777.94 138.133C778.25 139.106 777.692 139.323 776.813 139.489C776.399 139.562 776.047 139.562 775.654 139.385C775.241 139.199 775.272 139.127 775.396 138.681Z" fill="#2673E5"/>
<path d="M786.658 141.746C788.84 141.933 790.381 140.328 790.619 138.247C790.857 136.083 789.202 134.561 787.092 134.519C785.2 134.426 783.152 135.803 783.048 137.801C782.935 139.903 784.62 141.581 786.658 141.746ZM785.396 137.822C785.562 137.108 786.451 136.828 787.092 136.869C787.858 136.89 788.395 137.284 788.282 138.071C788.157 138.951 787.609 139.541 786.679 139.385C785.975 139.261 785.22 138.619 785.396 137.822Z" fill="#2673E5"/>
<path d="M797.258 141.581C799.192 141.456 800.868 139.81 800.868 137.832C800.868 135.865 798.975 134.115 797.031 134.198C794.921 134.281 793.339 136.062 793.204 138.143C793.059 140.379 795.19 141.715 797.258 141.581ZM797.031 136.559C798.727 136.486 798.985 138.909 797.289 139.22C796.617 139.344 795.593 139.065 795.542 138.309C795.49 137.501 796.224 136.59 797.031 136.559Z" fill="#2673E5"/>
<path d="M803.453 156.759C800.184 154.099 795.603 156.345 792.697 158.375C787.205 162.185 782.706 166.969 777.525 171.141C769.644 178.047 779.18 185.575 784.651 189.664C788.353 192.439 792.79 196.25 797.309 197.585C800.298 198.476 804.911 197.306 805.118 193.547C805.335 189.83 799.595 186.113 797.102 183.918C795.572 182.582 793.979 181.319 792.314 180.149C791.59 179.642 790.835 179.166 790.101 178.669C788.487 177.581 787.857 177.809 788.839 176.246C791.332 172.301 810.992 162.879 803.463 156.759H803.453ZM786.274 178.876C788.012 181.05 791.828 182.593 794.021 184.394C795.737 185.802 797.33 187.345 798.923 188.888C799.564 189.509 801.539 190.772 801.808 191.673C803.132 196.084 799.585 195.763 797.413 195.049C797.62 194.893 797.826 194.748 798.033 194.593C798.54 194.22 798.799 193.568 798.457 192.978C798.168 192.47 797.361 192.17 796.844 192.553C796.379 192.895 795.924 193.237 795.458 193.578C795.293 193.703 795.169 193.858 795.065 194.024C794.569 193.775 794.083 193.506 793.597 193.226C793.772 193.102 793.938 192.978 794.124 192.864C795.417 192.087 794.238 190.048 792.935 190.834C792.428 191.145 791.952 191.507 791.497 191.891C790.918 191.497 790.339 191.083 789.77 190.669C790.101 190.493 790.421 190.317 790.752 190.151C792.087 189.437 790.908 187.407 789.563 188.122C788.943 188.453 788.322 188.784 787.691 189.116C787.319 188.826 786.946 188.536 786.574 188.256C786.76 188.132 786.957 187.998 787.164 187.884C788.487 187.138 787.298 185.109 785.974 185.854C785.499 186.123 785.064 186.434 784.64 186.776C784.102 186.372 783.523 185.937 782.923 185.461C783.223 185.223 783.534 185.016 783.896 184.84C784.475 184.57 784.619 183.742 784.32 183.224C783.978 182.634 783.285 182.531 782.706 182.8C782.106 183.079 781.569 183.483 781.082 183.928C780.648 183.545 780.224 183.141 779.821 182.727C780.193 182.479 780.576 182.23 780.948 181.982C782.21 181.153 781.031 179.103 779.759 179.952C779.262 180.284 778.776 180.605 778.28 180.936C777.732 180.17 777.308 179.383 777.07 178.575H778.187C779.697 178.575 779.707 176.215 778.187 176.215H776.946C777.09 175.49 777.432 174.755 778 174.03C778.435 174.496 778.88 174.951 779.397 175.324C779.914 175.697 780.71 175.417 781.01 174.9C781.351 174.31 781.103 173.657 780.586 173.284C780.772 173.419 780.4 173.108 780.358 173.077C780.214 172.932 780.069 172.787 779.924 172.643C779.841 172.56 779.759 172.467 779.676 172.384C780.069 172.063 780.462 171.731 780.855 171.4C781.31 171.835 781.744 172.301 782.137 172.798C782.53 173.295 783.389 173.212 783.802 172.798C784.299 172.301 784.195 171.628 783.802 171.131C783.44 170.675 783.037 170.24 782.623 169.837C783.182 169.329 783.74 168.822 784.299 168.315C784.744 168.718 785.199 169.101 785.623 169.526C786.698 170.592 788.363 168.925 787.288 167.859C786.895 167.466 786.471 167.103 786.057 166.73C786.698 166.161 787.35 165.602 788.012 165.043C788.436 165.529 788.88 165.985 789.315 166.472C790.328 167.6 791.983 165.933 790.98 164.805C790.608 164.39 790.173 164.028 789.832 163.603C790.132 163.376 790.421 163.148 790.721 162.93C791.156 162.62 791.58 162.289 791.993 161.957C792.211 162.257 792.428 162.547 792.645 162.848C793.017 163.365 793.669 163.614 794.258 163.272C794.765 162.972 795.055 162.175 794.682 161.657C794.403 161.274 794.124 160.901 793.855 160.518C794.383 160.125 794.931 159.752 795.499 159.42C795.53 159.462 795.562 159.503 795.603 159.545C795.955 159.886 796.296 160.228 796.647 160.57C797.733 161.626 799.399 159.969 798.313 158.903C798.116 158.706 797.909 158.509 797.713 158.313C799.171 157.753 800.433 157.753 801.395 159.555C802.615 161.843 801.332 162.371 799.781 163.956C795.892 167.921 790.918 170.655 786.988 174.496C785.509 175.935 784.909 177.198 786.254 178.876H786.274Z" fill="#2673E5"/>
<path d="M848.276 163.79C844.573 161.015 840.137 157.205 835.617 155.869C832.628 154.979 828.015 156.149 827.809 159.907C827.591 163.624 833.331 167.341 835.824 169.536C837.354 170.872 838.947 172.135 840.612 173.305C841.336 173.813 842.091 174.289 842.826 174.786C844.439 175.873 845.07 175.645 844.087 177.209C841.595 181.153 821.934 190.576 829.463 196.695C832.732 199.356 837.313 197.109 840.219 195.08C845.711 191.269 850.21 186.486 855.391 182.313C863.272 175.407 853.737 167.88 848.266 163.79H848.276ZM853.737 180.656C849.755 183.866 846.332 187.563 842.174 190.555C840.354 191.86 838.761 193.433 836.744 194.448C834.614 195.525 832.804 196.332 831.511 193.92C830.984 192.926 830.942 192.274 831.17 191.715C831.739 192.17 832.297 192.636 832.897 193.061C833.414 193.433 834.21 193.154 834.51 192.636C834.862 192.046 834.603 191.394 834.086 191.021C833.611 190.679 833.156 190.306 832.69 189.944C832.835 189.809 832.98 189.675 833.125 189.52C833.466 189.167 833.828 188.836 834.19 188.505C834.666 189.012 835.141 189.53 835.669 189.985C836.155 190.4 836.858 190.462 837.334 189.985C837.758 189.561 837.82 188.733 837.334 188.318C836.848 187.894 836.403 187.428 835.958 186.952C836.527 186.486 837.096 186.03 837.675 185.585C838.161 186.206 838.637 186.838 839.185 187.397C840.24 188.484 841.905 186.817 840.85 185.73C840.374 185.243 839.95 184.705 839.537 184.167C840.012 183.804 840.499 183.452 840.974 183.09C841.419 183.514 841.791 183.98 842.195 184.446C842.608 184.933 843.436 184.871 843.86 184.446C844.335 183.97 844.273 183.266 843.86 182.779C843.529 182.386 843.198 182.003 842.846 181.64C843.467 181.143 844.067 180.636 844.656 180.108C844.956 180.325 845.235 180.563 845.494 180.843C846.538 181.94 848.203 180.273 847.159 179.176C846.921 178.917 846.652 178.679 846.383 178.461C846.818 177.975 847.118 177.509 847.262 177.022C847.748 177.053 848.234 177.084 848.721 177.115C849.351 177.157 849.9 176.546 849.9 175.935C849.9 175.262 849.362 174.796 848.721 174.755C848.028 174.713 847.345 174.672 846.652 174.63C846.642 174.62 846.631 174.599 846.621 174.589C846.321 174.216 845.949 173.875 845.556 173.533L846.683 173.005C847.262 172.736 847.407 171.907 847.107 171.39C846.766 170.799 846.073 170.696 845.494 170.965C844.78 171.296 844.067 171.638 843.363 171.969C842.991 171.731 842.619 171.504 842.236 171.276C842.557 171.12 842.877 170.965 843.187 170.81C843.756 170.53 843.911 169.712 843.612 169.195C843.27 168.615 842.577 168.491 841.998 168.77C841.357 169.081 840.705 169.402 840.064 169.712C840.002 169.743 839.971 169.795 839.919 169.837C839.547 169.588 839.185 169.329 838.864 169.07C838.72 168.956 838.585 168.822 838.451 168.708C838.895 168.459 839.34 168.232 839.806 168.014C840.385 167.745 840.53 166.917 840.23 166.399C839.888 165.809 839.195 165.705 838.616 165.975C837.923 166.296 837.251 166.668 836.599 167.072C836.144 166.658 835.7 166.233 835.255 165.809C835.514 165.654 835.782 165.498 836.051 165.395C836.641 165.146 837.055 164.618 836.868 163.945C836.713 163.386 836.01 162.879 835.421 163.127C834.717 163.417 834.107 163.779 833.507 164.204C833.176 163.945 832.773 163.635 832.38 163.303C832.67 163.044 832.98 162.827 833.321 162.641C834.655 161.926 833.466 159.897 832.132 160.611C831.718 160.829 831.335 161.108 830.973 161.419C829.929 157.194 833.807 157.805 835.845 158.571C840.054 160.166 844.129 163.614 847.666 166.306C851.751 169.412 860.014 175.138 853.695 180.677L853.737 180.656Z" fill="#2673E5"/>
<path d="M819.473 155.434C816.029 155.341 815.016 158.406 814.064 161.284C811.944 167.693 810.31 174.278 809.079 180.915C808.438 184.384 804.105 199.273 812.006 198.341C815.119 197.979 817.063 194.697 818.035 192.087C820.083 186.558 821.2 180.429 822.421 174.662C823.02 171.845 823.548 169.019 824.086 166.192C824.448 164.276 825.461 161.792 825.213 159.804C824.81 156.635 822.41 155.517 819.483 155.445L819.473 155.434ZM819.421 177.354C818.842 179.921 818.211 182.479 817.539 185.026C816.691 188.256 816.008 194.748 811.985 194.634C809.772 194.572 809.658 194.365 809.741 192.936C810.02 192.988 810.31 193.071 810.579 193.164C811.179 193.371 811.861 192.926 812.027 192.346C812.202 191.704 811.809 191.104 811.21 190.897C810.775 190.752 810.341 190.669 809.896 190.607C809.938 190.182 809.989 189.758 810.051 189.333C810.568 189.437 811.096 189.499 811.623 189.509C813.133 189.54 813.133 187.19 811.623 187.148C811.21 187.148 810.817 187.086 810.424 187.004C810.465 186.765 810.506 186.527 810.537 186.289C810.558 186.165 810.579 186.041 810.599 185.916C811.117 185.978 811.623 186.061 812.13 186.186C813.599 186.558 814.23 184.28 812.751 183.918C812.171 183.773 811.582 183.68 810.992 183.597C811.106 182.903 811.22 182.22 811.344 181.526C812.016 181.609 812.678 181.775 813.309 182.013C813.909 182.23 814.602 181.764 814.757 181.195C814.933 180.532 814.529 179.973 813.94 179.745C813.247 179.487 812.533 179.342 811.809 179.238C811.913 178.731 812.006 178.213 812.12 177.706C812.658 177.83 813.195 177.954 813.723 178.078C815.202 178.42 815.822 176.142 814.343 175.811C813.754 175.676 813.164 175.542 812.575 175.407C812.668 174.91 812.782 174.341 812.906 173.709C813.278 173.802 813.65 173.906 814.012 173.999C815.481 174.382 816.101 172.114 814.633 171.731C814.209 171.617 813.795 171.514 813.371 171.4C813.433 171.11 813.495 170.81 813.568 170.51C814.23 170.655 814.891 170.789 815.553 170.934C816.174 171.069 816.825 170.748 817.001 170.116C817.167 169.526 816.805 168.801 816.184 168.667C815.491 168.522 814.798 168.366 814.105 168.221C814.219 167.755 814.333 167.289 814.457 166.824C814.912 166.927 815.367 166.989 815.822 167.113C817.291 167.507 817.911 165.229 816.443 164.846C815.998 164.732 815.543 164.66 815.098 164.566C815.191 164.266 815.284 163.976 815.378 163.686C815.812 163.748 816.226 163.852 816.629 164.007C817.229 164.235 817.922 163.759 818.077 163.189C818.263 162.527 817.849 161.968 817.26 161.74C816.918 161.616 816.577 161.522 816.215 161.46C816.36 161.108 816.515 160.787 816.67 160.477C817.032 160.642 817.415 160.766 817.808 160.829C818.439 160.922 819.07 160.673 819.256 160.011C819.411 159.452 819.07 158.654 818.439 158.561C818.294 158.54 818.18 158.499 818.056 158.458C818.501 158.033 818.966 157.795 819.452 157.816C825.058 157.961 820.011 174.672 819.401 177.374L819.421 177.354Z" fill="#2673E5"/>
</g>
<g opacity="0.45">
<path d="M1162.47 20.4388C1145.57 26.7029 1129.71 35.3589 1113.37 42.8966C1095.92 50.9416 1078.88 59.784 1061.57 68.1293C1060.51 68.6366 1060.68 70.6246 1061.93 70.7902C1073.27 72.3951 1084.4 74.8387 1095.54 77.4375C1095.74 88.8269 1095.42 100.216 1095.61 111.606C1095.63 113.128 1097.52 113.5 1098.32 112.341C1104.22 103.861 1110.17 95.381 1116.51 87.222C1125.31 92.5336 1134.14 97.8349 1142.5 103.799C1143.24 104.316 1144.48 103.799 1144.64 102.929C1147.23 89.3032 1149.98 76.0294 1153.81 62.6934C1157.65 49.3057 1161.27 35.8559 1164.25 22.2404C1164.47 21.2464 1163.57 20.035 1162.46 20.4491L1162.47 20.4388ZM1105.48 77.9242C1105.09 78.183 1104.82 78.6179 1104.77 79.0838C1104.22 80.1295 1103.78 81.3617 1103.36 83.039C1101.64 89.9451 1100.4 97.0169 1098.46 103.871C1098.46 94.7287 1098.63 85.5861 1098.43 76.4435C1115.73 61.1817 1133.54 46.3548 1151.65 32.0145C1140.87 42.6688 1130.08 53.3231 1119.26 63.967C1115.93 67.2492 1112.59 70.521 1109.26 73.7929C1107.57 75.4599 1106.38 76.6092 1105.47 77.9242H1105.48ZM1155.24 26.4234C1135.42 41.9854 1115.9 58.1377 1097.02 74.7972C1087.1 72.4883 1077.19 70.2725 1067.14 68.6677C1082.53 61.161 1097.75 53.3231 1113.28 46.1374C1127.29 39.6661 1140.99 32.3769 1155.23 26.4337L1155.24 26.4234ZM1100.74 103.84C1102.4 97.7521 1103.57 91.5086 1105.04 85.379C1105.41 83.8259 1105.74 82.366 1106.3 80.9889C1108.87 82.5834 1111.45 84.1573 1114.04 85.7207C1109.46 91.6432 1105.06 97.7106 1100.74 103.84ZM1151.01 61.9169C1147.37 74.5695 1144.71 87.1806 1142.24 100.071C1131.11 92.3162 1119.25 85.6068 1107.74 78.4522C1107.82 78.3383 1107.91 78.2244 1108 78.1105C1109.34 76.516 1111.05 75.1182 1112.54 73.6583C1115.91 70.3554 1119.27 67.0421 1122.63 63.7288C1135.21 51.3558 1147.75 38.9621 1160.31 26.5683C1157.57 38.4444 1154.38 50.2065 1151.01 61.9169Z" fill="#2673E5"/>
<path d="M1087.01 67.8808C1090.51 65.9549 1094.01 64.0187 1097.5 62.0929C1098.73 61.4095 1097.64 59.5251 1096.39 60.2085C1092.9 62.1343 1089.4 64.0705 1085.91 65.9963C1084.68 66.6797 1085.77 68.5641 1087.01 67.8808Z" fill="#2673E5"/>
<path d="M1096.95 64.8885C1095.31 65.7479 1093.67 66.5969 1092.02 67.4563C1090.77 68.1086 1091.88 69.993 1093.13 69.3407C1094.77 68.4813 1096.42 67.6323 1098.06 66.7729C1099.31 66.1206 1098.21 64.2362 1096.95 64.8885Z" fill="#2673E5"/>
</g>
<path d="M0 103.54V77.0441H8.15999C10.9214 77.0441 13.207 78.0795 15.0169 80.1503C16.8267 82.2211 17.7265 84.8717 17.7265 88.1125V92.5026C17.7265 95.7538 16.8267 98.4044 15.0169 100.465C13.207 102.525 10.9214 103.55 8.15999 103.55H0V103.54ZM5.12973 81.0614V99.533H8.17033C9.49413 99.533 10.5594 98.8807 11.3661 97.5657C12.1728 96.2508 12.5864 94.5631 12.5864 92.4923V88.0711C12.5864 86.021 12.1831 84.3437 11.3661 83.0287C10.549 81.7137 9.48379 81.0614 8.17033 81.0614H5.12973Z" fill="#475F96"/>
<path d="M29.5172 103.54H24.4082V77.0441H29.5172V103.54Z" fill="#475F96"/>
<path d="M48.3602 96.6649C48.3602 95.6088 48.0913 94.7701 47.5535 94.1592C47.0157 93.5483 46.0435 92.9478 44.6577 92.368C41.948 91.4051 39.9003 90.3282 38.5351 89.1065C37.1699 87.8847 36.477 86.197 36.477 84.0123C36.477 81.8276 37.263 80.0674 38.8247 78.7111C40.3864 77.3547 42.3824 76.661 44.8025 76.661C47.3673 76.661 49.4358 77.3858 50.9975 78.8457C52.5591 80.3056 53.3141 82.2521 53.2727 84.706L53.2314 84.8199H48.2464C48.2464 83.4532 47.9362 82.4074 47.326 81.7034C46.7158 80.9993 45.8367 80.6369 44.6991 80.6369C43.7166 80.6369 42.9512 80.9579 42.4134 81.6102C41.8756 82.2625 41.5964 83.0701 41.5964 84.0434C41.5964 84.9442 41.9067 85.6793 42.5272 86.2591C43.1477 86.839 44.2026 87.4809 45.7126 88.1746C48.2671 89.0237 50.2011 90.1005 51.5249 91.3947C52.8487 92.689 53.5003 94.4388 53.5003 96.6338C53.5003 98.8289 52.7349 100.682 51.194 101.987C49.653 103.291 47.6156 103.933 45.0714 103.933C42.5272 103.933 40.4174 103.229 38.6385 101.832C36.8597 100.434 36.0013 98.3008 36.053 95.4328L36.0944 95.3189H41.0896C41.0896 96.9859 41.4309 98.1766 42.1032 98.9014C42.7754 99.6261 43.7683 99.9885 45.0714 99.9885C46.178 99.9885 47.0054 99.6883 47.5535 99.0774C48.1016 98.4665 48.3809 97.6589 48.3809 96.6545L48.3602 96.6649Z" fill="#475F96"/>
<path d="M76.9458 95.3085L76.9871 95.4224C77.0388 98.2594 76.3149 100.392 74.8153 101.8C73.3156 103.209 71.1851 103.923 68.4031 103.923C65.621 103.923 63.2941 103.084 61.6186 101.407C59.9432 99.7297 59.1055 97.3379 59.1055 94.2421V86.3834C59.1055 83.2979 59.9122 80.9061 61.5359 79.2081C63.1596 77.51 65.3418 76.661 68.0928 76.661C70.9886 76.661 73.2122 77.3651 74.7635 78.7732C76.3149 80.1813 77.0699 82.3143 77.0181 85.1616L76.9768 85.2755H71.9918C71.9918 83.5774 71.6919 82.3867 71.0921 81.7034C70.4922 81.02 69.489 80.6887 68.0825 80.6887C66.8001 80.6887 65.8382 81.1546 65.197 82.0761C64.5558 82.9976 64.2352 84.4265 64.2352 86.342V94.2421C64.2352 96.1679 64.5765 97.5968 65.2694 98.5286C65.9623 99.4605 67.0069 99.916 68.3928 99.916C69.6648 99.916 70.5853 99.5744 71.1334 98.9014C71.6816 98.2283 71.9712 97.0273 71.9712 95.3085H76.9354H76.9458Z" fill="#475F96"/>
<path d="M101.778 94.0039C101.778 97.1205 100.899 99.5537 99.1406 101.303C97.3824 103.053 95.0451 103.923 92.1182 103.923C89.1914 103.923 86.8644 103.053 85.1166 101.303C83.3688 99.5537 82.5 97.1205 82.5 94.0039V86.6112C82.5 83.505 83.3687 81.0718 85.1062 79.3013C86.8437 77.5307 89.1707 76.6506 92.0976 76.6506C95.0244 76.6506 97.3617 77.5307 99.1199 79.3013C100.878 81.0718 101.768 83.505 101.768 86.6112V94.0039H101.778ZM96.6688 86.5594C96.6688 84.6336 96.2758 83.1736 95.5001 82.19C94.7245 81.2064 93.5868 80.7198 92.1079 80.7198C90.629 80.7198 89.4913 81.2064 88.7467 82.19C88.002 83.1736 87.6194 84.6232 87.6194 86.5698V94.0143C87.6194 95.9815 88.0021 97.4518 88.757 98.4354C89.512 99.4191 90.6393 99.9057 92.1286 99.9057C93.6179 99.9057 94.7452 99.4191 95.5208 98.4354C96.2965 97.4518 96.6792 95.9815 96.6792 94.0143V86.5698L96.6688 86.5594Z" fill="#475F96"/>
<path d="M115.791 96.7684L116.008 97.8763H116.122L116.339 96.8202L120.921 77.0337H126.32L118.739 103.53H113.413L105.873 77.0337H111.272L115.802 96.7581L115.791 96.7684Z" fill="#475F96"/>
<path d="M144.501 91.8399H136.413V99.5433H146.104V103.55H131.283V77.0544H146.062V81.0718H136.413V87.8433H144.501V91.8503V91.8399Z" fill="#475F96"/>
<path d="M157.274 92.9064V103.54H152.145V77.0544H160.067C162.694 77.0544 164.762 77.7378 166.272 79.1149C167.782 80.492 168.537 82.3971 168.537 84.851C168.537 86.2177 168.216 87.4084 167.585 88.4231C166.955 89.4378 166.034 90.2351 164.834 90.8253C166.22 91.2912 167.213 92.047 167.813 93.1135C168.413 94.18 168.723 95.5156 168.723 97.1205V99.0463C168.723 99.7815 168.806 100.558 168.982 101.376C169.157 102.194 169.457 102.784 169.892 103.157V103.54H164.586C164.162 103.147 163.893 102.515 163.78 101.635C163.666 100.755 163.604 99.8747 163.604 99.0049V97.1516C163.604 95.8055 163.324 94.7598 162.766 94.0246C162.207 93.2895 161.411 92.9168 160.367 92.9168H157.274V92.9064ZM157.274 88.8994H160.036C161.142 88.8994 161.98 88.5681 162.549 87.9054C163.118 87.2428 163.407 86.3109 163.407 85.0891C163.407 83.8674 163.118 82.8734 162.549 82.1383C161.98 81.4031 161.153 81.0511 160.056 81.0511H157.254V88.8994H157.274Z" fill="#475F96"/>
<path d="M243.393 183.473V156.977H251.553C254.314 156.977 256.6 158.012 258.409 160.083C260.219 162.154 261.119 164.805 261.119 168.045V172.435C261.119 175.687 260.219 178.337 258.409 180.398C256.6 182.458 254.314 183.483 251.553 183.483H243.393V183.473ZM248.522 160.994V179.466H251.563C252.887 179.466 253.952 178.813 254.759 177.499C255.565 176.184 255.979 174.496 255.979 172.425V168.004C255.979 165.954 255.576 164.276 254.759 162.962C253.942 161.647 252.876 160.994 251.563 160.994H248.522Z" fill="#475F96"/>
<path d="M280.727 171.773H272.639V179.476H282.33V183.483H267.51V156.987H282.289V161.005H272.639V167.776H280.727V171.783V171.773Z" fill="#475F96"/>
<path d="M301.908 172.394H293.511V183.483H288.381V156.987H303.501V161.005H293.5V168.397H301.898V172.404L301.908 172.394Z" fill="#475F96"/>
<path d="M314.64 183.473H309.531V156.977H314.64V183.473Z" fill="#475F96"/>
<path d="M340.578 183.473H335.448L327.05 166.565L326.936 166.585V183.473H321.807V156.977H326.936L335.334 173.906L335.448 173.885V156.977H340.578V183.473Z" fill="#475F96"/>
<path d="M360.653 171.773H352.565V179.476H362.256V183.483H347.436V156.987H362.215V161.005H352.565V167.776H360.653V171.783V171.773Z" fill="#475F96"/>
<path d="M1060.87 118.077V91.5811H1069.03C1071.79 91.5811 1074.08 92.6165 1075.89 94.6873C1077.7 96.7581 1078.6 99.4087 1078.6 102.65V107.04C1078.6 110.291 1077.7 112.941 1075.89 115.002C1074.08 117.062 1071.79 118.087 1069.03 118.087H1060.87V118.077ZM1066 95.5984V114.07H1069.04C1070.37 114.07 1071.43 113.418 1072.24 112.103C1073.04 110.788 1073.46 109.1 1073.46 107.029V102.608C1073.46 100.558 1073.05 98.8807 1072.24 97.5657C1071.42 96.2507 1070.35 95.5984 1069.04 95.5984H1066Z" fill="#475F96"/>
<path d="M1098.21 106.367H1090.12V114.07H1099.81V118.077H1084.99V91.5811H1099.77V95.5984H1090.12V102.37H1098.21V106.377V106.367Z" fill="#475F96"/>
<path d="M1110.98 108.479V118.067H1105.85V91.5707H1114.7C1117.36 91.5707 1119.46 92.3473 1121.01 93.9107C1122.56 95.4742 1123.34 97.5139 1123.34 100.04C1123.34 102.567 1122.56 104.617 1121.01 106.17C1119.46 107.723 1117.36 108.489 1114.7 108.489H1110.98V108.479ZM1110.98 104.461H1114.7C1115.85 104.461 1116.73 104.047 1117.33 103.219C1117.93 102.391 1118.23 101.345 1118.23 100.071C1118.23 98.7978 1117.93 97.7003 1117.33 96.8616C1116.73 96.0229 1115.85 95.5984 1114.7 95.5984H1110.98V104.461Z" fill="#475F96"/>
<path d="M1134.53 114.07H1144.39V118.077H1129.4V91.5811H1134.53V114.08V114.07Z" fill="#475F96"/>
<path d="M1167.86 108.541C1167.86 111.657 1166.98 114.091 1165.22 115.84C1163.47 117.59 1161.13 118.46 1158.2 118.46C1155.28 118.46 1152.95 117.59 1151.2 115.84C1149.45 114.091 1148.58 111.657 1148.58 108.541V101.148C1148.58 98.042 1149.45 95.6088 1151.19 93.8382C1152.93 92.0677 1155.25 91.1876 1158.18 91.1876C1161.11 91.1876 1163.45 92.0677 1165.2 93.8382C1166.96 95.6088 1167.85 98.042 1167.85 101.148V108.541H1167.86ZM1162.75 101.096C1162.75 99.1706 1162.36 97.7106 1161.58 96.727C1160.81 95.7434 1159.67 95.2567 1158.19 95.2567C1156.71 95.2567 1155.58 95.7434 1154.83 96.727C1154.09 97.7106 1153.7 99.1602 1153.7 101.107V108.551C1153.7 110.519 1154.09 111.989 1154.84 112.972C1155.6 113.956 1156.72 114.443 1158.21 114.443C1159.7 114.443 1160.83 113.956 1161.6 112.972C1162.38 111.989 1162.76 110.519 1162.76 108.551V101.107L1162.75 101.096Z" fill="#475F96"/>
<path d="M1181.73 103.095H1181.84L1186.4 91.5707H1192L1184.27 108.624V118.067H1179.16V108.292L1171.58 91.5707H1177.18L1181.72 103.095H1181.73Z" fill="#475F96"/>
<path d="M517.545 41.7991V15.3032H525.705C528.466 15.3032 530.752 16.3386 532.562 18.4094C534.372 20.4802 535.271 23.1308 535.271 26.3716V30.7617C535.271 34.0129 534.372 36.6635 532.562 38.724C530.752 40.7844 528.466 41.8095 525.705 41.8095H517.545V41.7991ZM522.675 19.3206V37.7921H525.715C527.039 37.7921 528.104 37.1398 528.911 35.8248C529.718 34.5099 530.131 32.8222 530.131 30.7514V26.3302C530.131 24.2801 529.728 22.6028 528.911 21.2878C528.094 19.9729 527.029 19.3206 525.715 19.3206H522.675Z" fill="#475F96"/>
<path d="M554.87 30.0991H546.782V37.8025H556.473V41.8095H541.652V15.3032H556.431V19.3206H546.782V26.0921H554.87V30.0991Z" fill="#475F96"/>
<path d="M574.188 34.9137C574.188 33.8576 573.919 33.0189 573.382 32.408C572.844 31.7971 571.872 31.1966 570.486 30.6168C567.776 29.6538 565.728 28.577 564.363 27.3553C562.998 26.1335 562.305 24.4458 562.305 22.2611C562.305 20.0764 563.091 18.3162 564.653 16.9598C566.214 15.6035 568.211 14.9098 570.631 14.9098C573.195 14.9098 575.264 15.6345 576.826 17.0945C578.387 18.5544 579.142 20.5009 579.101 22.9548L579.06 23.0687H574.075C574.075 21.702 573.764 20.6562 573.154 19.9522C572.544 19.2481 571.665 18.8857 570.527 18.8857C569.545 18.8857 568.779 19.2067 568.242 19.859C567.704 20.5113 567.425 21.3189 567.425 22.2922C567.425 23.193 567.735 23.9281 568.355 24.5079C568.976 25.0877 570.031 25.7297 571.541 26.4234C574.095 27.2724 576.029 28.3492 577.353 29.6435C578.677 30.9377 579.328 32.6876 579.328 34.8826C579.328 37.0777 578.563 38.931 577.022 40.2356C575.481 41.5402 573.444 42.1822 570.9 42.1822C568.355 42.1822 566.246 41.4781 564.467 40.0803C562.688 38.6825 561.829 36.5496 561.881 33.6816L561.923 33.5677H566.918C566.918 35.2346 567.259 36.4254 567.931 37.1501C568.604 37.8749 569.596 38.2373 570.9 38.2373C572.006 38.2373 572.833 37.937 573.382 37.3262C573.93 36.7153 574.209 35.9077 574.209 34.9033L574.188 34.9137Z" fill="#475F96"/>
<path d="M590.84 41.7991H585.73V15.3032H590.84V41.7991Z" fill="#475F96"/>
<path d="M615.734 38.2994C614.979 39.3555 613.893 40.2667 612.466 41.0329C611.039 41.7991 609.198 42.1822 606.953 42.1822C604.089 42.1822 601.803 41.3435 600.076 39.6765C598.349 38.0095 597.49 35.6385 597.49 32.5737V24.5286C597.49 21.4742 598.328 19.1031 600.003 17.4258C601.679 15.7484 603.902 14.9098 606.664 14.9098C609.425 14.9098 611.721 15.5931 613.19 16.9598C614.658 18.3266 615.362 20.2731 615.32 22.7891L615.279 22.903H610.459C610.459 21.5156 610.159 20.5113 609.549 19.8797C608.939 19.2481 608.029 18.9375 606.809 18.9375C605.485 18.9375 604.461 19.4034 603.716 20.3249C602.972 21.2464 602.61 22.6338 602.61 24.4976V32.5737C602.61 34.4685 602.982 35.8766 603.737 36.7981C604.492 37.7196 605.557 38.1855 606.953 38.1855C607.946 38.1855 608.732 38.0716 609.301 37.8335C609.87 37.5954 610.304 37.2847 610.614 36.8913V31.5383H606.581V27.9869H615.744V38.3098L615.734 38.2994Z" fill="#475F96"/>
<path d="M640.978 41.7991H635.848L627.451 24.891L627.337 24.9117V41.7991H622.207V15.3032H627.337L635.735 32.232L635.848 32.2113V15.3032H640.978V41.7991Z" fill="#475F96"/>
<path d="M827.727 183.473V156.977H835.887C838.648 156.977 840.934 158.012 842.743 160.083C844.553 162.154 845.453 164.805 845.453 168.045V172.435C845.453 175.687 844.553 178.337 842.743 180.398C840.934 182.458 838.648 183.483 835.887 183.483H827.727V183.473ZM832.856 160.994V179.466H835.897C837.221 179.466 838.286 178.813 839.093 177.499C839.899 176.184 840.313 174.496 840.313 172.425V168.004C840.313 165.954 839.91 164.276 839.093 162.962C838.276 161.647 837.21 160.994 835.897 160.994H832.856Z" fill="#475F96"/>
<path d="M865.061 171.773H856.974V179.476H866.664V183.483H851.844V156.987H866.623V161.005H856.974V167.776H865.061V171.783V171.773Z" fill="#475F96"/>
<path d="M880.75 176.701L880.967 177.809H881.081L881.298 176.753L885.88 156.967H891.279L883.698 183.462H878.371L870.832 156.967H876.231L880.761 176.691L880.75 176.701Z" fill="#475F96"/>
<path d="M901.374 179.476H911.24V183.483H896.244V156.987H901.374V179.486V179.476Z" fill="#475F96"/>
<path d="M934.706 173.937C934.706 177.053 933.826 179.486 932.068 181.236C930.31 182.986 927.973 183.856 925.046 183.856C922.119 183.856 919.792 182.986 918.044 181.236C916.296 179.486 915.428 177.053 915.428 173.937V166.544C915.428 163.438 916.296 161.005 918.034 159.234C919.771 157.464 922.098 156.583 925.025 156.583C927.952 156.583 930.289 157.464 932.048 159.234C933.806 161.005 934.695 163.438 934.695 166.544V173.937H934.706ZM929.597 166.492C929.597 164.566 929.204 163.106 928.428 162.123C927.652 161.139 926.515 160.653 925.036 160.653C923.557 160.653 922.419 161.139 921.674 162.123C920.93 163.106 920.547 164.556 920.547 166.503V173.947C920.547 175.914 920.93 177.385 921.685 178.368C922.44 179.352 923.567 179.839 925.056 179.839C926.546 179.839 927.673 179.352 928.449 178.368C929.224 177.385 929.607 175.914 929.607 173.947V166.503L929.597 166.492Z" fill="#475F96"/>
<path d="M946.206 173.885V183.473H941.076V156.977H949.929C952.587 156.977 954.686 157.753 956.238 159.317C957.789 160.88 958.565 162.92 958.565 165.446C958.565 167.973 957.789 170.023 956.238 171.576C954.686 173.129 952.587 173.895 949.929 173.895H946.206V173.885ZM946.206 169.868H949.929C951.077 169.868 951.956 169.453 952.556 168.625C953.156 167.797 953.456 166.751 953.456 165.478C953.456 164.204 953.156 163.106 952.556 162.268C951.956 161.429 951.077 161.005 949.929 161.005H946.206V169.868Z" fill="#475F96"/>
<g opacity="0.45">
<path d="M108.065 4.40045C94.6819 0.22779 78.9411 4.74213 71.5671 17.2808C65.0412 27.1999 64.431 41.1985 71.805 50.8795C79.241 60.633 92.6238 65.1163 104.414 61.7202C108.044 60.6744 111.457 58.9557 114.518 56.7502C117.518 59.3905 120.517 62.0826 123.775 64.3811C123.371 68.7091 127.984 73.1303 130.497 76.1226C135.999 82.6973 142.628 88.216 148.792 94.1282C151.688 96.7684 155.784 101.293 160.189 100.589C163.602 100.04 168.908 95.0704 169.704 91.695C170.832 86.9114 166.457 82.0865 163.406 79.0838C157.211 72.9853 150.613 66.835 143.828 61.4095C140.374 58.645 136.444 54.5241 131.666 55.6838C128.697 53.2299 126.102 50.3618 123.185 47.8562C126.091 43.5903 128.067 38.7032 128.749 33.578C130.662 19.1963 121.334 8.54205 108.065 4.40045ZM143.073 65.1991C149.62 70.7903 156.766 76.6299 162.516 83.0494C164.73 85.524 166.488 87.512 165.671 90.8045C165.112 93.0721 163.54 94.8529 161.513 96.054C161.441 96.0954 161.368 96.1265 161.296 96.1679C161.43 95.8159 161.534 95.4535 161.689 95.1014C161.968 94.4698 161.854 93.714 161.213 93.3516C160.655 93.041 159.745 93.1963 159.465 93.8382C159.052 94.7908 158.69 95.7537 158.4 96.7374C157.852 96.6649 157.304 96.4889 156.787 96.2404C157.025 94.1696 157.366 92.1195 157.811 90.0798C158.162 88.4749 155.691 87.8122 155.339 89.4275C154.956 91.1669 154.677 92.9167 154.439 94.6666C153.974 94.2731 153.519 93.859 153.064 93.4448C153.446 91.3947 153.819 89.3343 154.201 87.2842C154.501 85.669 152.029 85.0063 151.729 86.6319C151.44 88.2057 151.15 89.7898 150.861 91.3636C150.426 90.9495 149.982 90.525 149.537 90.1108C149.599 87.9468 149.795 85.8036 150.209 83.6706C150.519 82.0658 148.048 81.3928 147.737 83.0183C147.437 84.6128 147.22 86.2177 147.096 87.8226C146.372 87.1496 145.648 86.4766 144.914 85.8139C145.173 83.7742 145.566 81.7551 146.083 79.7672C146.496 78.1727 144.025 77.5204 143.611 79.1149C143.218 80.6369 142.918 82.1797 142.67 83.7224C142.266 83.3497 141.863 82.9666 141.47 82.5938C141.832 80.6369 142.194 78.68 142.566 76.7127C142.866 75.0975 140.394 74.4349 140.095 76.0604C139.826 77.5307 139.546 79.001 139.277 80.4609C138.884 80.0778 138.502 79.6843 138.119 79.3012C138.15 79.177 138.181 79.0424 138.171 78.8871C138.088 76.4228 138.285 73.9896 138.802 71.5772C139.143 69.9723 136.671 69.3096 136.33 70.9249C135.927 72.83 135.689 74.7558 135.627 76.692C135.161 76.195 134.706 75.6877 134.262 75.17C134.499 72.7472 135.017 70.3968 135.813 68.0879C136.351 66.5348 133.879 65.8825 133.341 67.4356C132.752 69.1233 132.338 70.842 132.038 72.5919C131.624 72.1052 131.2 71.6082 130.776 71.0905C131.097 69.2579 131.573 67.4563 132.203 65.7065C132.762 64.1534 130.29 63.5114 129.732 65.0542C129.359 66.0792 129.049 67.1146 128.78 68.1707C127.643 66.0274 127.312 63.7288 129.132 61.3785C133.279 55.9944 139.629 62.1964 143.125 65.168L143.073 65.1991ZM128.366 57.3404C127.043 58.3344 125.833 59.639 124.985 61.0472C122.275 59.0799 119.751 56.8227 117.238 54.607C118.645 53.3748 119.938 52.0081 121.137 50.5689C123.619 52.7433 125.884 55.1661 128.366 57.3301V57.3404ZM118.262 48.7363C109.068 59.4941 93.4719 62.9109 81.2991 55.0315C68.9816 47.0589 66.6132 30.9895 74.525 18.9685C82.2713 5.79824 99.3359 3.3754 112.222 9.69134C128.046 17.4465 129.059 36.094 118.252 48.7363H118.262Z" fill="#2673E5"/>
<path d="M79.7275 16.7528C71.34 26.3716 70.3989 43.7663 81.4547 51.8632C92.0244 59.608 107.424 55.8805 116.018 46.914C125.564 36.9638 125.461 23.8453 114.157 15.2514C103.939 7.48595 88.7459 7.19604 79.7275 16.7528ZM109.792 15.4275C114.684 18.192 119.566 23.1205 120.579 28.8773C121.665 35.0379 118.325 40.8155 114.208 45.102C106.876 52.7536 93.9894 56.4603 84.4022 50.7553C73.3257 44.1598 73.7291 27.5106 81.5374 18.5544C88.8804 10.7578 100.67 10.2608 109.792 15.4275Z" fill="#2673E5"/>
<path d="M79.2611 29.3536C77.2237 35.5763 78.7854 42.2754 82.9119 47.2142C84.2461 48.5602 86.4903 50.3825 88.4657 49.1815C89.9963 48.26 90.017 46.2617 89.3137 44.8535C88.6415 43.5075 87.4004 42.5135 86.6765 41.1882C85.6526 39.3348 85.2182 37.1812 85.0941 35.0897C84.939 32.5633 86.2214 29.8713 85.9008 27.4692C85.7147 26.0921 84.4219 24.7357 82.9843 24.7668C80.8435 24.8082 79.8093 27.6866 79.2611 29.3536ZM82.6534 31.5279C82.3741 34.1061 82.4776 36.7981 83.1808 39.3038C83.5842 40.7223 84.184 42.1304 84.9804 43.3625C85.2286 43.7456 85.6112 44.0977 85.8077 44.5015C86.3869 45.6818 87.1626 47.8769 84.7115 45.4023C81.8363 41.9544 80.5229 37.6161 81.0503 33.1224C81.1331 32.3977 82.188 27.231 83.2015 28.3907C83.3773 28.5977 82.6947 31.062 82.643 31.5176L82.6534 31.5279Z" fill="#2673E5"/>
<path d="M84.1424 19.7761C84.1424 19.7761 84.132 19.8175 84.1217 19.8279C84.0803 19.9004 84.039 19.9832 84.0183 20.0764C83.3253 22.2921 84.9284 24.6632 87.2347 24.8289C89.6548 25.0049 91.4026 22.7891 90.9579 20.4595C90.689 19.0617 89.4376 18.0677 88.1034 17.7053C86.3866 17.2394 84.8353 18.1713 84.132 19.7554L84.1424 19.7761ZM88.4758 21.3189C88.4551 21.702 88.2689 22.0747 87.9069 22.2197C86.9658 22.6131 86.2832 21.6398 86.4797 20.8012C86.6969 20.3663 86.9141 20.1075 87.3381 20.1592C87.7208 20.2006 88.1758 20.4906 88.4034 20.7908C88.424 20.8219 88.4344 20.8426 88.4447 20.8633C88.4758 20.9875 88.4861 21.1946 88.4758 21.3189ZM88.3827 20.7598C88.331 20.6976 88.3516 20.708 88.3827 20.7598V20.7598Z" fill="#2673E5"/>
</g>
<g opacity="0.3">
<path d="M363.807 107.619C362.949 107.619 362.256 106.926 362.256 106.066C362.256 103.053 362.018 100.03 361.532 97.0894C361.398 96.2404 361.966 95.4431 362.814 95.3085C363.663 95.1636 364.459 95.7434 364.593 96.5924C365.1 99.6986 365.359 102.898 365.359 106.077C365.359 106.936 364.666 107.63 363.807 107.63V107.619ZM361.997 93.3309C361.304 93.3309 360.674 92.865 360.498 92.1713C359.66 88.9305 358.522 85.7414 357.106 82.7077C356.744 81.9312 357.085 81.0097 357.861 80.6473C358.636 80.2849 359.557 80.6266 359.919 81.4031C361.408 84.6129 362.618 87.9779 363.497 91.4051C363.714 92.2334 363.218 93.0824 362.38 93.2999C362.246 93.3309 362.122 93.3516 361.987 93.3516L361.997 93.3309ZM356.123 79.0113C355.585 79.0113 355.068 78.7318 354.779 78.2348C353.093 75.346 351.138 72.5815 348.966 70.0344C348.408 69.3821 348.48 68.3985 349.132 67.8394C349.783 67.2803 350.766 67.3527 351.324 68.005C353.62 70.6971 355.689 73.6066 357.468 76.661C357.902 77.4065 357.643 78.3487 356.909 78.7836C356.661 78.9285 356.392 78.9906 356.133 78.9906L356.123 79.0113ZM346.608 66.804C346.215 66.804 345.833 66.659 345.522 66.3588C343.123 64.0188 340.496 61.8858 337.724 60.0221C337.011 59.5458 336.825 58.5829 337.3 57.8685C337.776 57.1541 338.738 56.9677 339.451 57.444C342.378 59.4112 345.15 61.6684 347.684 64.143C348.294 64.7435 348.315 65.7272 347.715 66.3381C347.415 66.6487 347.012 66.804 346.608 66.804ZM334.177 57.5993C333.929 57.5993 333.67 57.5372 333.432 57.4129C330.495 55.7977 327.392 54.4517 324.217 53.4059C323.4 53.1367 322.966 52.2566 323.225 51.449C323.493 50.631 324.373 50.1962 325.179 50.455C328.53 51.5629 331.809 52.9814 334.911 54.6795C335.666 55.0936 335.935 56.0358 335.532 56.7917C335.253 57.3094 334.715 57.5993 334.167 57.5993H334.177ZM169.891 52.1841C169.043 52.1841 168.35 51.5008 168.34 50.6518C168.34 49.7924 169.012 49.0883 169.87 49.0779L180.213 48.9641H180.233C181.081 48.9641 181.774 49.6474 181.785 50.4964C181.785 51.3558 181.112 52.0599 180.254 52.0703L169.912 52.1841H169.891ZM319.729 52.091C319.615 52.091 319.491 52.0806 319.377 52.0495C316.13 51.3041 312.779 50.8381 309.428 50.6932C308.57 50.6518 307.908 49.927 307.949 49.0676C307.99 48.2082 308.704 47.5041 309.573 47.587C313.11 47.7423 316.647 48.2289 320.08 49.0262C320.918 49.2229 321.435 50.0512 321.239 50.8899C321.073 51.6043 320.432 52.091 319.729 52.091ZM185.404 52.0081C184.556 52.0081 183.863 51.3248 183.853 50.4757C183.853 49.6164 184.525 48.9123 185.384 48.9019L195.726 48.788H195.747C196.595 48.788 197.288 49.4714 197.298 50.3204C197.298 51.1798 196.626 51.8839 195.767 51.8942L185.425 52.0081H185.404ZM200.918 51.8321C200.07 51.8321 199.377 51.1487 199.366 50.2997C199.366 49.4403 200.039 48.7363 200.897 48.7259L211.239 48.612H211.26C212.108 48.612 212.801 49.2954 212.811 50.1444C212.811 51.0038 212.139 51.7079 211.281 51.7182L200.938 51.8321H200.918ZM216.431 51.6561C215.583 51.6561 214.89 50.9727 214.88 50.1237C214.88 49.2643 215.552 48.5602 216.41 48.5499L226.753 48.436H226.773C227.621 48.436 228.314 49.1194 228.325 49.9684C228.325 50.8278 227.652 51.5318 226.794 51.5422L216.452 51.6561H216.431ZM231.944 51.4801C231.096 51.4801 230.403 50.7967 230.393 49.9477C230.393 49.0883 231.065 48.3842 231.924 48.3739L242.266 48.26H242.287C243.135 48.26 243.828 48.9433 243.838 49.7924C243.838 50.6518 243.166 51.3558 242.307 51.3662L231.965 51.4801H231.944ZM247.458 51.3041C246.61 51.3041 245.917 50.6207 245.906 49.7717C245.906 48.9123 246.579 48.2082 247.437 48.1979L257.779 48.084H257.8C258.648 48.084 259.341 48.7673 259.351 49.6164C259.351 50.4757 258.679 51.1798 257.82 51.1902L247.478 51.3041H247.458ZM262.971 51.128C262.123 51.128 261.43 50.4447 261.42 49.5956C261.42 48.7363 262.092 48.0322 262.95 48.0218L273.292 47.9079H273.313C274.161 47.9079 274.854 48.5913 274.864 49.4403C274.864 50.2997 274.192 51.0038 273.334 51.0141L262.992 51.128H262.971ZM278.484 50.952C277.636 50.952 276.943 50.2687 276.933 49.4196C276.933 48.5602 277.605 47.8562 278.464 47.8458L288.806 47.7319H288.826C289.674 47.7319 290.367 48.4153 290.378 49.2643C290.378 50.1237 289.705 50.8278 288.847 50.8381L278.505 50.952H278.484ZM293.997 50.776C293.149 50.776 292.456 50.0926 292.446 49.2436C292.446 48.3842 293.118 47.6802 293.977 47.6698L304.319 47.5559H304.34C305.188 47.5559 305.881 48.2393 305.891 49.0883C305.891 49.9477 305.219 50.6518 304.36 50.6621L294.018 50.776H293.997Z" fill="#475F96"/>
</g>
<g opacity="0.3">
<path d="M815.76 107.619C814.902 107.619 814.209 106.926 814.209 106.066C814.209 103.664 814.064 101.241 813.795 98.8703C813.692 98.0213 814.302 97.2447 815.161 97.1515C815.998 97.0583 816.784 97.6589 816.877 98.5183C817.167 101.003 817.312 103.55 817.312 106.077C817.312 106.936 816.619 107.63 815.76 107.63V107.619ZM814.519 95.1325C813.795 95.1325 813.154 94.6252 812.999 93.89C812.327 90.5871 811.386 87.3256 810.176 84.2194C809.865 83.4221 810.258 82.5213 811.065 82.2107C811.861 81.9001 812.761 82.2936 813.071 83.1012C814.343 86.373 815.336 89.8002 816.04 93.2791C816.205 94.1178 815.667 94.9358 814.83 95.1118C814.726 95.1325 814.623 95.1429 814.519 95.1429V95.1325ZM809.555 80.4713C808.986 80.4713 808.428 80.1503 808.159 79.6015C806.67 76.5678 804.922 73.679 802.946 70.9973C802.44 70.3036 802.584 69.3304 803.277 68.823C803.97 68.3157 804.942 68.4606 805.449 69.1543C807.528 71.981 809.379 75.0354 810.951 78.2348C811.334 79.001 811.013 79.9328 810.238 80.3159C810.02 80.4195 809.783 80.4713 809.555 80.4713ZM800.94 67.6116C800.516 67.6116 800.092 67.4356 799.782 67.0939C797.537 64.5675 795.055 62.2793 792.428 60.281C791.746 59.7633 791.611 58.79 792.128 58.1066C792.646 57.4233 793.618 57.2887 794.3 57.8064C797.093 59.9289 799.72 62.3621 802.098 65.0334C802.667 65.6754 802.615 66.659 801.974 67.2285C801.674 67.4977 801.312 67.6219 800.94 67.6219V67.6116ZM789.088 57.6821C788.809 57.6821 788.529 57.6096 788.281 57.4543C785.406 55.7045 782.376 54.2653 779.252 53.1781C778.446 52.8986 778.011 52.0081 778.301 51.2005C778.591 50.3929 779.459 49.958 780.276 50.2479C783.607 51.4076 786.844 52.94 789.905 54.8037C790.639 55.2489 790.867 56.2015 790.422 56.9366C790.132 57.4129 789.615 57.6821 789.098 57.6821H789.088ZM640.45 52.1945C639.602 52.1945 638.909 51.5111 638.899 50.6621C638.888 49.8027 639.571 49.0986 640.429 49.0883L650.771 48.964H650.792C651.64 48.964 652.333 49.6474 652.343 50.4964C652.343 51.3558 651.671 52.0599 650.813 52.0702L640.471 52.1945H640.45ZM655.963 51.9978C655.115 51.9978 654.422 51.3144 654.412 50.4654C654.402 49.606 655.084 48.9019 655.942 48.8916L666.285 48.7673H666.305C667.153 48.7673 667.846 49.4507 667.857 50.2997C667.857 51.1591 667.184 51.8632 666.326 51.8735L655.984 51.9978H655.963ZM774.795 51.8217C774.681 51.8217 774.567 51.8114 774.443 51.7803C771.206 51.0348 767.876 50.6517 764.536 50.631C763.677 50.631 762.984 49.927 762.995 49.0676C762.995 48.2082 763.687 47.5248 764.546 47.5248C768.114 47.5455 771.672 47.9597 775.136 48.7466C775.974 48.9433 776.491 49.7717 776.305 50.6103C776.139 51.3351 775.498 51.8217 774.795 51.8217ZM671.476 51.801C670.628 51.801 669.935 51.1177 669.925 50.2686C669.915 49.4093 670.597 48.7052 671.456 48.6948L681.798 48.5706H681.819C682.667 48.5706 683.36 49.254 683.37 50.103C683.37 50.9624 682.698 51.6664 681.839 51.6768L671.497 51.801H671.476ZM686.99 51.6043C686.142 51.6043 685.449 50.921 685.438 50.0719C685.428 49.2125 686.111 48.5085 686.969 48.4981L697.311 48.3739H697.332C698.18 48.3739 698.873 49.0572 698.883 49.9063C698.883 50.7656 698.211 51.4697 697.353 51.4801L687.01 51.6043H686.99ZM702.503 51.4076C701.655 51.4076 700.962 50.7242 700.952 49.8752C700.941 49.0158 701.624 48.3117 702.482 48.3014L712.825 48.1771H712.845C713.693 48.1771 714.386 48.8605 714.397 49.7095C714.397 50.5689 713.724 51.273 712.866 51.2833L702.524 51.4076H702.503ZM718.016 51.2109C717.168 51.2109 716.475 50.5275 716.465 49.6785C716.455 48.8191 717.137 48.115 717.996 48.1047L728.338 47.9804H728.359C729.207 47.9804 729.9 48.6638 729.91 49.5128C729.91 50.3722 729.238 51.0763 728.379 51.0866L718.037 51.2109H718.016ZM733.53 51.0141C732.682 51.0141 731.989 50.3308 731.978 49.4817C731.968 48.6224 732.651 47.9183 733.509 47.9079L743.851 47.7837H743.872C744.72 47.7837 745.413 48.4671 745.423 49.3161C745.423 50.1755 744.751 50.8795 743.893 50.8899L733.55 51.0141H733.53ZM749.043 50.8174C748.195 50.8174 747.502 50.134 747.492 49.285C747.481 48.4256 748.164 47.7216 749.022 47.7112L759.364 47.587H759.385C760.233 47.587 760.926 48.2703 760.936 49.1194C760.936 49.9787 760.264 50.6828 759.406 50.6932L749.064 50.8174H749.043Z" fill="#475F96"/>
</g>
<g opacity="0.3">
<path d="M527.432 186.31L522.012 186.237C521.154 186.227 520.471 185.523 520.482 184.663C520.492 183.814 521.185 183.131 522.033 183.131H522.054L527.452 183.204C529.014 183.204 530.607 183.11 532.168 182.914C533.017 182.81 533.792 183.411 533.896 184.26C533.999 185.109 533.399 185.885 532.551 185.989C530.865 186.196 529.138 186.31 527.432 186.31ZM516.862 186.165H516.841L506.499 186.02C505.641 186.01 504.958 185.305 504.969 184.446C504.979 183.597 505.672 182.914 506.52 182.914H506.541L516.883 183.059C517.741 183.069 518.424 183.773 518.413 184.632C518.403 185.481 517.71 186.165 516.862 186.165ZM501.349 185.958H501.328L490.986 185.813C490.127 185.802 489.445 185.098 489.455 184.239C489.466 183.38 490.169 182.707 491.027 182.707L501.369 182.852C502.228 182.862 502.91 183.566 502.9 184.425C502.89 185.274 502.197 185.958 501.349 185.958ZM485.835 185.751H485.815L475.473 185.606C474.614 185.595 473.932 184.891 473.942 184.032C473.952 183.173 474.614 182.468 475.514 182.5L485.856 182.644C486.715 182.655 487.397 183.359 487.387 184.218C487.376 185.067 486.684 185.751 485.835 185.751ZM470.322 185.544H470.301L459.959 185.399C459.101 185.388 458.418 184.684 458.429 183.825C458.439 182.976 459.132 182.292 459.98 182.292H460.001L470.343 182.437C471.201 182.448 471.884 183.152 471.874 184.011C471.863 184.86 471.17 185.544 470.322 185.544ZM454.809 185.337H454.788L444.446 185.192C443.588 185.181 442.905 184.477 442.915 183.618C442.926 182.758 443.629 182.116 444.487 182.085L454.83 182.23C455.688 182.241 456.371 182.945 456.36 183.804C456.35 184.653 455.657 185.337 454.809 185.337ZM439.296 185.129H439.275L428.933 184.984C428.074 184.974 427.392 184.27 427.402 183.411C427.412 182.551 428.074 181.868 428.974 181.878L439.316 182.023C440.175 182.034 440.857 182.738 440.847 183.597C440.837 184.446 440.144 185.129 439.296 185.129ZM537.422 185.057C536.729 185.057 536.099 184.591 535.923 183.897C535.706 183.069 536.202 182.22 537.04 182.003C540.204 181.185 543.307 179.952 546.265 178.337C547.02 177.923 547.961 178.203 548.375 178.958C548.788 179.714 548.509 180.657 547.754 181.071C544.579 182.81 541.239 184.135 537.815 185.026C537.681 185.057 537.557 185.078 537.422 185.078V185.057ZM423.782 184.922H423.762L413.419 184.777C412.561 184.767 411.878 184.063 411.889 183.204C411.899 182.344 412.582 181.63 413.461 181.671L423.803 181.816C424.661 181.827 425.344 182.531 425.334 183.39C425.323 184.239 424.63 184.922 423.782 184.922ZM551.384 178.513C550.898 178.513 550.422 178.285 550.112 177.861C549.616 177.157 549.781 176.194 550.485 175.697C553.153 173.813 555.676 171.586 557.983 169.081C558.562 168.449 559.544 168.408 560.175 168.988C560.806 169.567 560.847 170.551 560.268 171.183C557.817 173.844 555.128 176.215 552.284 178.234C552.015 178.43 551.705 178.513 551.395 178.513H551.384ZM562.44 167.714C562.109 167.714 561.789 167.61 561.509 167.403C560.827 166.886 560.692 165.912 561.209 165.229C563.195 162.599 564.984 159.731 566.525 156.687C566.918 155.921 567.849 155.61 568.614 156.004C569.38 156.387 569.68 157.329 569.297 158.095C567.673 161.295 565.791 164.328 563.691 167.103C563.392 167.507 562.926 167.714 562.45 167.714H562.44ZM570.042 154.223C569.845 154.223 569.649 154.181 569.462 154.109C568.666 153.788 568.283 152.887 568.604 152.09C569.845 149.004 570.859 145.764 571.614 142.461C571.8 141.622 572.637 141.104 573.465 141.291C574.303 141.477 574.82 142.316 574.634 143.144C573.848 146.613 572.782 150.019 571.479 153.26C571.231 153.86 570.652 154.233 570.042 154.233V154.223ZM574.065 139.261C573.992 139.261 573.91 139.261 573.837 139.241C572.989 139.116 572.4 138.329 572.524 137.48C572.989 134.302 573.217 131.04 573.217 127.789C573.217 126.93 573.91 126.236 574.768 126.236C575.626 126.236 576.319 126.93 576.319 127.789C576.319 131.185 576.071 134.602 575.585 137.926C575.471 138.702 574.809 139.251 574.054 139.251L574.065 139.261Z" fill="#475F96"/>
</g>
<g opacity="0.3">
<path d="M1075.57 186.31L1070.15 186.237C1069.29 186.227 1068.61 185.523 1068.62 184.663C1068.63 183.804 1069.34 183.152 1070.19 183.131L1075.59 183.204C1077.15 183.204 1078.74 183.11 1080.3 182.914C1081.15 182.81 1081.93 183.411 1082.03 184.26C1082.13 185.109 1081.53 185.885 1080.69 185.989C1079 186.196 1077.27 186.31 1075.57 186.31ZM1065 186.165H1064.98L1054.63 186.02C1053.78 186.01 1053.09 185.305 1053.1 184.446C1053.11 183.587 1053.84 182.903 1054.68 182.914L1065.02 183.059C1065.88 183.069 1066.56 183.773 1066.55 184.632C1066.54 185.481 1065.84 186.165 1065 186.165ZM1049.48 185.958H1049.46L1039.12 185.813C1038.26 185.802 1037.58 185.098 1037.59 184.239C1037.6 183.38 1038.33 182.665 1039.16 182.707L1049.5 182.852C1050.36 182.862 1051.05 183.566 1051.03 184.425C1051.02 185.274 1050.33 185.958 1049.48 185.958ZM1033.97 185.751H1033.95L1023.61 185.606C1022.75 185.595 1022.07 184.891 1022.08 184.032C1022.09 183.183 1022.78 182.5 1023.63 182.5H1023.65L1033.99 182.644C1034.85 182.655 1035.53 183.359 1035.52 184.218C1035.51 185.067 1034.82 185.751 1033.97 185.751ZM1018.46 185.544H1018.44L1008.09 185.399C1007.24 185.388 1006.55 184.684 1006.56 183.825C1006.57 182.976 1007.27 182.292 1008.11 182.292H1008.14L1018.48 182.437C1019.34 182.448 1020.02 183.152 1020.01 184.011C1020 184.86 1019.31 185.544 1018.46 185.544ZM1002.94 185.337H1002.92L992.581 185.192C991.722 185.181 991.04 184.477 991.05 183.618C991.06 182.769 991.753 182.085 992.601 182.085H992.622L1002.96 182.23C1003.82 182.241 1004.51 182.945 1004.49 183.804C1004.48 184.653 1003.79 185.337 1002.94 185.337ZM987.43 185.129H987.41L977.067 184.984C976.209 184.974 975.527 184.27 975.537 183.411C975.547 182.562 976.24 181.878 977.088 181.878H977.109L987.451 182.023C988.309 182.034 988.992 182.738 988.982 183.597C988.971 184.446 988.278 185.129 987.43 185.129ZM1085.56 185.057C1084.86 185.057 1084.23 184.591 1084.06 183.897C1083.84 183.069 1084.34 182.22 1085.17 182.003C1088.34 181.185 1091.44 179.952 1094.4 178.337C1095.15 177.923 1096.1 178.203 1096.51 178.958C1096.92 179.714 1096.64 180.657 1095.89 181.071C1092.71 182.81 1089.37 184.135 1085.95 185.026C1085.82 185.057 1085.69 185.078 1085.56 185.078V185.057ZM971.917 184.922H971.896L961.554 184.777C960.696 184.767 960.013 184.063 960.024 183.204C960.034 182.355 960.727 181.671 961.575 181.671H961.596L971.938 181.816C972.796 181.827 973.479 182.531 973.468 183.39C973.458 184.239 972.765 184.922 971.917 184.922ZM1099.52 178.513C1099.03 178.513 1098.56 178.285 1098.25 177.861C1097.75 177.157 1097.92 176.194 1098.62 175.697C1101.29 173.813 1103.81 171.586 1106.12 169.081C1106.7 168.449 1107.68 168.408 1108.31 168.988C1108.94 169.567 1108.98 170.551 1108.4 171.183C1105.95 173.844 1103.26 176.215 1100.42 178.234C1100.15 178.43 1099.84 178.513 1099.53 178.513H1099.52ZM1110.57 167.714C1110.24 167.714 1109.92 167.61 1109.63 167.403C1108.95 166.886 1108.82 165.912 1109.33 165.229C1111.32 162.599 1113.11 159.731 1114.65 156.687C1115.03 155.921 1115.97 155.621 1116.74 156.004C1117.5 156.387 1117.81 157.329 1117.42 158.095C1115.8 161.295 1113.92 164.328 1111.82 167.103C1111.52 167.507 1111.05 167.714 1110.57 167.714ZM1118.18 154.223C1117.98 154.223 1117.78 154.181 1117.6 154.109C1116.8 153.788 1116.42 152.887 1116.74 152.09C1117.98 149.004 1118.99 145.764 1119.75 142.461C1119.93 141.622 1120.76 141.094 1121.6 141.291C1122.44 141.477 1122.95 142.316 1122.77 143.144C1121.98 146.613 1120.92 150.019 1119.61 153.26C1119.37 153.86 1118.79 154.233 1118.18 154.233V154.223ZM1122.2 139.261C1122.13 139.261 1122.04 139.261 1121.97 139.241C1121.12 139.116 1120.53 138.329 1120.66 137.48C1121.12 134.302 1121.35 131.051 1121.35 127.789C1121.35 126.93 1122.04 126.236 1122.9 126.236C1123.76 126.236 1124.45 126.93 1124.45 127.789C1124.45 131.195 1124.21 134.602 1123.72 137.926C1123.61 138.702 1122.94 139.251 1122.19 139.251L1122.2 139.261Z" fill="#475F96"/>
</g>
</g>
<defs>
<clipPath id="clip0_2175_31439">
<rect width="1192" height="222" fill="white"/>
</clipPath>
</defs>
</svg>
