<?xml version="1.0" encoding="utf-8"?>
<!-- Generator: Adobe Illustrator 26.5.0, SVG Export Plug-In . SVG Version: 6.00 Build 0)  -->
<svg version="1.1" id="Layer_2_00000044164383209584222370000013082548654263992504_"
	 xmlns="http://www.w3.org/2000/svg" xmlns:xlink="http://www.w3.org/1999/xlink" x="0px" y="0px" viewBox="0 0 29.2 24"
	 style="enable-background:new 0 0 29.2 24;" xml:space="preserve">
<style type="text/css">
	.st0{fill:#CA8C2A;}
	.st1{fill:#451512;}
	.st2{fill:#919637;}
	.st3{fill:#231F20;}
	.st4{fill:none;}
</style>
<g id="Layer_2-2">
	<g>
		<path class="st0" d="M0.2,9.2c0.6,1.2,1.7,3,3.6,4.6c1,0.8,2.7,2.3,5.4,2.9c1.4,0.3,2.6,0.3,3.1,0.3c0.8,0,2.2-0.1,3.6-0.9
			c2-1,3.8-3.1,3.3-4.2c-0.1-0.3-0.4-0.6-0.8-0.8c-0.4-0.3-0.9-0.3-1.3-0.3c-0.5,0-0.8,0.1-1.2,0.1c0,0-1.1,0.2-2,0.3
			c-1.7,0.1-3.8-0.7-4.1-1.9c0-0.2,0-0.6,0.2-1C10,8.1,10.2,8,10.3,7.8c0.5-0.4,0.9-0.5,1.1-0.5C12.1,7.2,13,7,13.6,6.8
			c1-0.3,1.7-0.9,2.7-1.7c0.2-0.2,0.5-0.4,0.9-0.8c1.2-1.1,1.4-1.6,2.3-2.4c0.6-0.5,1.1-1,1.8-1.3c0.3-0.2,2.5-1.2,4.7-0.1
			c1.6,0.8,2.2,2.2,2.4,2.6c0.2,0.5,0.5,1.7,0.6,2.7c0.3,2.5-0.3,4.5-0.8,5.7c-0.5,1.4-1.1,2.4-1.5,3.1c-1.9,3.3-4.8,5.5-4.8,5.5
			c-2.7,2.1-5,4-8,3.7c-1.2-0.1-2.2-0.5-3.4-1.3c-1.7-1.1-3.8-2.8-5.9-5.4c-1.5-1.9-2.6-3.7-3.3-5.2C1,11.2,0.6,10.2,0.2,9.2
			L0.2,9.2z"/>
		<g>
			<path class="st1" d="M13.2,6.3L13.2,6.3C13.2,6.3,13.2,6.3,13.2,6.3C13.2,6.3,13.2,6.3,13.2,6.3L13.2,6.3
				C13.2,6.3,13.2,6.3,13.2,6.3C13.1,6.4,13,6.6,13,6.7c0.1,0,0.1,0,0.2-0.1C13.2,6.5,13.2,6.5,13.2,6.3C13.2,6.4,13.2,6.4,13.2,6.3
				L13.2,6.3z"/>
			<path class="st1" d="M13.4,5.8c0,0.1-0.1,0.2-0.1,0.3c0,0,0.1-0.1,0.1-0.1C13.4,5.9,13.5,5.9,13.4,5.8
				C13.5,5.8,13.4,5.8,13.4,5.8L13.4,5.8z"/>
			<path class="st2" d="M11.9,6.5L11.9,6.5C11.9,6.5,11.9,6.5,11.9,6.5C11.9,6.5,11.9,6.5,11.9,6.5C11.8,6.5,11.8,6.5,11.9,6.5
				C11.8,6.5,11.8,6.5,11.9,6.5L11.9,6.5c-0.1,0,0,0.1,0.1,0.2c0,0.1,0,0.1,0,0.2c0,0,0,0,0,0c0.1,0,0.1,0,0.2,0
				C12.1,6.8,12,6.8,12,6.7C11.9,6.6,11.9,6.5,11.9,6.5L11.9,6.5z"/>
			<path class="st2" d="M12.4,6.1c0-0.1-0.1-0.2-0.1-0.2l0,0c0,0,0,0,0,0c0,0,0,0,0-0.1c0,0,0,0,0,0c0,0,0,0,0,0.1c0,0,0,0,0,0l0,0
				C12.2,5.9,12.3,6,12.4,6.1c0,0.2,0,0.4,0,0.6c0,0,0,0.1,0.1,0.2c0,0,0,0,0.1,0c0.2,0,0.3-0.1,0.5-0.1c0-0.1-0.1-0.2-0.2-0.3
				C12.7,6.3,12.5,6.2,12.4,6.1z"/>
			<path class="st2" d="M13.7,6.3C13.8,6.2,13.9,6,14,5.9c0,0,0.1-0.1,0.1-0.1l0,0c0,0,0,0,0,0c0,0,0,0,0,0s0,0-0.1,0c0,0,0,0,0,0
				l0,0c0,0-0.1,0-0.1,0.1c-0.1,0-0.3,0-0.4,0c0,0-0.1,0-0.1,0c0,0.1-0.1,0.3-0.1,0.4C13.4,6.5,13.6,6.4,13.7,6.3L13.7,6.3z"/>
			<path class="st2" d="M13.3,6.1C13.3,6.1,13.3,6.1,13.3,6.1C13.3,6.1,13.3,6.1,13.3,6.1C13.3,6.1,13.3,6.1,13.3,6.1z"/>
			<path class="st2" d="M13.3,6.1c0,0.1,0,0.2-0.1,0.2c0,0,0,0,0,0l0,0c0,0,0,0,0.1,0.1c0-0.1,0.1-0.3,0.1-0.4
				C13.4,6,13.3,6,13.3,6.1C13.3,6.1,13.3,6.1,13.3,6.1z"/>
			<path class="st2" d="M13.3,6.1c0-0.1-0.1-0.2-0.1-0.3c-0.1-0.1-0.2-0.2-0.3-0.3c0,0-0.1-0.1-0.1-0.1l0,0c0,0,0,0,0,0c0,0,0,0,0,0
				c0,0,0,0,0,0.1c0,0,0,0,0,0l0,0c0,0,0,0.1,0.1,0.1c0,0.1,0,0.3,0,0.4c0,0.1,0.2,0.4,0.4,0.4c0,0,0,0,0-0.1
				C13.2,6.2,13.2,6.1,13.3,6.1L13.3,6.1z"/>
			<path class="st2" d="M13.1,6.3C13.2,6.3,13.2,6.3,13.1,6.3L13.1,6.3C13.2,6.3,13.2,6.3,13.1,6.3C13.2,6.3,13.2,6.3,13.1,6.3
				C13.2,6.3,13.2,6.3,13.1,6.3L13.1,6.3z"/>
			<path class="st2" d="M13.2,6.3c0,0,0.1-0.1,0.1-0.1c0,0,0,0,0,0C13.2,6.1,13.2,6.2,13.2,6.3z"/>
			<path class="st2" d="M13.3,6.1c0,0-0.1,0.1-0.1,0.1c0,0,0,0,0,0C13.3,6.3,13.3,6.2,13.3,6.1L13.3,6.1z"/>
			<path class="st2" d="M13.7,4.8L13.7,4.8c0,0,0,0.1,0,0.1c-0.1,0.1-0.2,0.2-0.3,0.3c-0.1,0.1-0.2,0.5,0,0.5l0,0c0,0,0,0,0,0
				c0-0.1,0.1-0.1,0.1-0.2l0,0c0,0.1,0,0.1-0.1,0.2c0.1,0,0.2-0.3,0.3-0.4c0-0.2,0-0.3,0-0.4C13.7,4.9,13.7,4.9,13.7,4.8L13.7,4.8
				C13.7,4.9,13.7,4.8,13.7,4.8C13.7,4.8,13.7,4.8,13.7,4.8C13.7,4.8,13.7,4.8,13.7,4.8C13.7,4.8,13.7,4.8,13.7,4.8
				C13.7,4.8,13.7,4.8,13.7,4.8L13.7,4.8z"/>
			<path class="st2" d="M13.5,5.6c0,0.1-0.1,0.1-0.1,0.2c0,0,0,0,0.1,0C13.5,5.8,13.5,5.7,13.5,5.6L13.5,5.6L13.5,5.6z"/>
		</g>
		<path class="st3" d="M8.8,16.6C8.8,16.6,8.8,16.6,8.8,16.6L8.8,16.6C8.8,16.6,8.8,16.6,8.8,16.6L8.8,16.6L8.8,16.6L8.8,16.6
			L8.8,16.6z"/>
		<path class="st3" d="M16,10.9C16,10.9,16,10.9,16,10.9C16,10.9,16,10.9,16,10.9C16,10.9,16,10.9,16,10.9L16,10.9z"/>
		<path class="st3" d="M29.1,6.7L29.1,6.7L29.1,6.7L29.1,6.7z M16,10.9L16,10.9C16,10.9,16,10.9,16,10.9C16,10.9,16,10.9,16,10.9
			L16,10.9z M12.9,17.1L12.9,17.1L12.9,17.1L12.9,17.1z M12.6,11.1L12.6,11.1L12.6,11.1C12.6,11.2,12.6,11.1,12.6,11.1z M10.6,17
			L10.6,17L10.6,17L10.6,17L10.6,17L10.6,17z M9,16.8L9,16.8L9,16.8L9,16.8L9,16.8L9,16.8L9,16.8z"/>
		<path class="st3" d="M12.6,11.2L12.6,11.2L12.6,11.2C12.6,11.1,12.6,11.1,12.6,11.2z"/>
		<path class="st3" d="M3.8,8.7L3.8,8.7L3.8,8.7C3.8,8.7,3.8,8.7,3.8,8.7L3.8,8.7z"/>
		<path class="st3" d="M8.2,15C8.2,15,8.2,15,8.2,15C8.1,15,8.1,15,8.2,15C8.1,15,8.1,15,8.2,15L8.2,15z"/>
		<path class="st3" d="M8.8,16.6L8.8,16.6C8.8,16.6,8.8,16.6,8.8,16.6L8.8,16.6L8.8,16.6C8.8,16.6,8.8,16.6,8.8,16.6z"/>
		<path class="st3" d="M2.9,9.1L2.9,9.1L2.9,9.1C2.9,9.1,2.9,9.1,2.9,9.1z"/>
		<path class="st3" d="M8.2,15C8.2,15,8.2,15,8.2,15C8.1,15,8.1,15,8.2,15C8.1,15,8.1,15,8.2,15L8.2,15z"/>
		<path class="st3" d="M3.8,6.9L3.8,6.9L3.8,6.9C3.8,6.9,3.8,6.9,3.8,6.9z"/>
		<path class="st3" d="M3.8,6.9L3.8,6.9L3.8,6.9C3.8,6.9,3.8,6.9,3.8,6.9z"/>
		<path class="st3" d="M2.9,9.1L2.9,9.1L2.9,9.1C2.9,9.1,2.9,9.1,2.9,9.1z"/>
		<path class="st3" d="M16,10.9C16,10.9,16,10.9,16,10.9C16,10.9,16,10.9,16,10.9C16,10.9,16,10.9,16,10.9L16,10.9z"/>
		<polygon class="st3" points="18,10.9 18,10.9 18,10.9 		"/>
		<polygon class="st3" points="18,10.9 18,10.9 18,10.9 		"/>
		<path class="st3" d="M12.6,11.2L12.6,11.2L12.6,11.2C12.6,11.1,12.6,11.1,12.6,11.2z"/>
		<path class="st3" d="M8.8,16.6C8.8,16.6,8.8,16.6,8.8,16.6L8.8,16.6C8.8,16.6,8.8,16.6,8.8,16.6L8.8,16.6L8.8,16.6L8.8,16.6
			L8.8,16.6z"/>
		<path class="st3" d="M6.4,4.7C6.4,4.7,6.4,4.7,6.4,4.7L6.4,4.7L6.4,4.7z"/>
		<path class="st3" d="M6.4,4.7C6.4,4.7,6.4,4.7,6.4,4.7L6.4,4.7L6.4,4.7z"/>
		<path class="st3" d="M6.4,4.7C6.4,4.7,6.4,4.7,6.4,4.7L6.4,4.7L6.4,4.7z"/>
		<path class="st1" d="M5.2,14.2c-3.4-2.9-4.6-8-3-12.1l0,0C1.1,6.7,1.7,10.9,5.2,14.2L5.2,14.2z"/>
		<path class="st2" d="M2.7,4.6C2.9,4.4,3,4.1,3.1,3.9c0.1-0.1,0.2-0.1,0.2-0.1l0,0c0,0,0,0,0,0c0.1,0,0.1-0.1,0.1-0.1
			c0,0-0.1,0-0.1,0c0,0,0,0,0,0l0,0c0,0-0.1,0.1-0.2,0.1C2.9,3.9,2.6,3.9,2.3,4C2,4,1.5,4.4,1.7,4.7l0,0C1.9,5.1,2.5,4.8,2.7,4.6
			L2.7,4.6z"/>
		<path class="st2" d="M0.8,4.3C0.7,4,0.7,3.7,0.6,3.5C0.5,3.4,0.4,3.3,0.4,3.3l0,0c0,0,0,0,0,0c0,0-0.1-0.1,0-0.1
			c0,0,0.1,0,0.1,0.1c0,0,0,0,0,0l0,0c0,0,0.1,0.1,0.1,0.2c0.2,0.2,0.5,0.2,0.7,0.4C1.6,4,2,4.5,1.7,4.7l0,0C1.4,5,0.9,4.5,0.8,4.3
			L0.8,4.3z"/>
		<path class="st2" d="M2.6,8c0.1-0.2,0.1-0.5,0.3-0.7C2.9,7.3,3,7.2,3,7.2l0,0c0,0,0,0,0,0c0,0,0.1-0.1,0-0.1c0,0-0.1,0-0.1,0
			c0,0,0,0,0,0l0,0c0,0-0.1,0.1-0.2,0.2C2.6,7.4,2.4,7.4,2.1,7.6C1.9,7.7,1.5,8.1,1.8,8.4l0,0C2,8.6,2.4,8.3,2.6,8L2.6,8z"/>
		<path class="st2" d="M0.9,8.2C0.7,8,0.7,7.7,0.5,7.6C0.4,7.5,0.3,7.4,0.3,7.4l0,0c0,0,0,0,0,0c0,0-0.1-0.1-0.1-0.1
			c0,0,0.1,0,0.1,0c0,0,0,0,0,0l0,0c0,0,0.1,0.1,0.2,0.1C0.8,7.6,1,7.6,1.3,7.7C1.5,7.8,2,8.1,1.8,8.4l0,0C1.5,8.7,1,8.4,0.9,8.2z"
			/>
		<path class="st2" d="M2.5,5.7C2.7,5.5,2.8,5.2,3,5c0.1-0.1,0.2-0.1,0.2-0.1l0,0c0,0,0,0,0,0c0.1,0,0.1-0.1,0.1-0.1
			c0,0-0.1,0-0.1,0c0,0,0,0,0,0l0,0c0,0-0.1,0.1-0.2,0.1C2.7,5.1,2.4,5,2.1,5.1C1.8,5.2,1.3,5.6,1.5,5.9l0,0C1.8,6.3,2.3,6,2.5,5.7
			L2.5,5.7z"/>
		<path class="st2" d="M0.6,5.5C0.5,5.3,0.5,5,0.3,4.8C0.3,4.7,0.2,4.6,0.2,4.6l0,0c0,0,0,0,0,0c0,0-0.1-0.1,0-0.1
			c0,0,0.1,0,0.1,0.1c0,0,0,0,0,0l0,0c0,0,0.1,0.1,0.2,0.2C0.6,4.9,0.9,4.9,1.1,5C1.4,5.2,1.8,5.7,1.5,6l0,0
			C1.2,6.3,0.8,5.8,0.6,5.5L0.6,5.5z"/>
		<path class="st2" d="M2.6,6.9c0.2-0.2,0.2-0.5,0.3-0.7C3,6,3.1,6,3.1,6l0,0c0,0,0,0,0,0c0,0,0.1-0.1,0.1-0.1c0,0-0.1,0-0.1,0
			c0,0,0,0,0,0l0,0c0,0-0.1,0.1-0.2,0.2C2.7,6.2,2.4,6.2,2.1,6.3C1.8,6.5,1.4,6.9,1.6,7.2l0,0C1.9,7.5,2.4,7.1,2.6,6.9z"/>
		<path class="st2" d="M0.7,6.9C0.5,6.7,0.5,6.4,0.3,6.2C0.2,6.1,0.1,6.1,0.1,6.1l0,0c0,0,0,0,0,0C0,6,0,5.9,0,5.9c0,0,0.1,0,0.1,0
			c0,0,0,0,0,0l0,0c0,0,0.1,0.1,0.2,0.2c0.2,0.1,0.5,0.1,0.8,0.2C1.4,6.5,1.9,7,1.6,7.3l0,0C1.4,7.6,0.8,7.2,0.7,6.9z"/>
		<path class="st2" d="M2.7,3.5C2.8,3.3,2.9,3.1,3,2.9c0.1-0.1,0.2-0.1,0.2-0.1l0,0c0,0,0,0,0,0c0,0,0.1-0.1,0.1-0.1
			c0,0-0.1,0-0.1,0c0,0,0,0,0,0l0,0c0,0-0.1,0.1-0.2,0.1C2.8,2.9,2.5,2.9,2.3,3C2.1,3.1,1.7,3.5,1.9,3.7l0,0C2.1,4,2.5,3.7,2.7,3.5
			L2.7,3.5z"/>
		<path class="st2" d="M1.1,3.3C1,3.1,1,2.9,0.9,2.7c0-0.1-0.1-0.2-0.1-0.2l0,0c0,0,0,0,0,0c0,0,0-0.1,0-0.1c0,0,0.1,0,0.1,0.1
			c0,0,0,0,0,0l0,0c0,0,0.1,0.1,0.1,0.2c0.2,0.1,0.4,0.2,0.6,0.3c0.2,0.2,0.5,0.6,0.3,0.8l0,0C1.6,4,1.2,3.6,1.1,3.3L1.1,3.3z"/>
		<path class="st2" d="M2.7,9c0.1-0.2,0.1-0.4,0.1-0.6C2.9,8.2,3,8.2,3,8.2l0,0c0,0,0,0,0,0c0,0,0-0.1,0-0.1C3,8,3,8.1,3,8.1
			c0,0,0,0,0,0l0,0c0,0,0,0.1-0.1,0.2C2.7,8.4,2.4,8.5,2.3,8.6C2.1,8.8,1.8,9.2,2,9.4l0,0C2.3,9.6,2.6,9.2,2.7,9L2.7,9z"/>
		<path class="st2" d="M1.2,9.2C1.1,9,1,8.8,0.9,8.7C0.8,8.6,0.7,8.5,0.7,8.5l0,0c0,0,0,0,0,0c0,0-0.1-0.1-0.1-0.1c0,0,0.1,0,0.1,0
			c0,0,0,0,0,0l0,0c0,0,0.1,0.1,0.2,0.1c0.2,0.1,0.4,0.1,0.6,0.1C1.8,8.8,2.2,9.2,2,9.4l0,0C1.8,9.7,1.4,9.4,1.2,9.2L1.2,9.2z"/>
		<path class="st2" d="M2.9,9.9C3,9.8,3,9.6,3,9.4c0-0.1,0.1-0.1,0.1-0.1l0,0c0,0,0,0,0,0c0,0,0-0.1,0-0.1c0,0,0,0-0.1,0.1
			c0,0,0,0,0,0l0,0c0,0,0,0.1-0.1,0.2C2.8,9.5,2.7,9.6,2.5,9.7c-0.2,0.2-0.3,0.6-0.1,0.7l0,0C2.6,10.5,2.9,10.2,2.9,9.9L2.9,9.9z"/>
		<path class="st2" d="M1.7,10.3C1.5,10.2,1.5,10,1.3,9.8C1.3,9.8,1.2,9.8,1.2,9.8l0,0c0,0,0,0,0,0c0,0-0.1,0-0.1-0.1c0,0,0,0,0.1,0
			c0,0,0,0,0,0l0,0c0,0,0.1,0.1,0.1,0.1c0.2,0,0.4,0,0.6,0.1c0.2,0.1,0.6,0.3,0.5,0.5l0,0C2.2,10.6,1.8,10.4,1.7,10.3L1.7,10.3z"/>
		<path class="st2" d="M3.3,10.7c0-0.2,0-0.3,0-0.4c0-0.1,0.1-0.1,0.1-0.1l0,0c0,0,0,0,0,0c0,0,0-0.1,0-0.1c0,0,0,0,0,0c0,0,0,0,0,0
			l0,0c0,0,0,0.1,0,0.1c-0.1,0.1-0.2,0.2-0.3,0.3c-0.1,0.1-0.2,0.5,0,0.5l0,0C3.1,11.2,3.2,10.9,3.3,10.7L3.3,10.7z"/>
		<path class="st2" d="M2.3,11.1C2.2,11,2.1,10.9,2,10.8c-0.1,0-0.1,0-0.1,0l0,0c0,0,0,0,0,0c0,0-0.1,0,0,0c0,0,0,0,0.1,0
			c0,0,0,0,0,0l0,0c0,0,0.1,0,0.1,0.1c0.1,0,0.3,0,0.4,0c0.2,0,0.5,0.2,0.4,0.4l0,0C2.8,11.3,2.4,11.2,2.3,11.1L2.3,11.1z"/>
		<path class="st2" d="M3.5,11.4c0-0.1,0-0.2,0-0.3c0,0,0-0.1,0-0.1l0,0c0,0,0,0,0,0c0,0,0,0,0-0.1c0,0,0,0,0,0c0,0,0,0,0,0l0,0
			c0,0,0,0.1,0,0.1c-0.1,0.1-0.2,0.1-0.2,0.2c-0.1,0.1-0.2,0.4,0,0.4l0,0C3.3,11.8,3.5,11.5,3.5,11.4L3.5,11.4z"/>
		<path class="st2" d="M2.7,11.7c-0.1-0.1-0.2-0.2-0.2-0.2c0,0-0.1,0-0.1,0l0,0c0,0,0,0,0,0c0,0,0,0,0,0c0,0,0,0,0.1,0c0,0,0,0,0,0
			l0,0c0,0,0,0,0.1,0c0.1,0,0.2,0,0.3,0c0.1,0,0.4,0.1,0.3,0.3l0,0C3.1,11.9,2.8,11.8,2.7,11.7L2.7,11.7z"/>
		<path class="st2" d="M3.7,11.9c0-0.1,0-0.2,0-0.3c0,0,0-0.1,0-0.1l0,0c0,0,0,0,0,0c0,0,0,0,0,0c0,0,0,0,0,0c0,0,0,0,0,0l0,0
			c0,0,0,0.1,0,0.1c0,0.1-0.1,0.1-0.2,0.2c-0.1,0.1-0.1,0.3,0,0.4l0,0C3.7,12.2,3.7,12,3.7,11.9L3.7,11.9z"/>
		<path class="st2" d="M3.1,12.2C3.1,12.2,3,12.1,2.9,12c0,0-0.1,0-0.1,0l0,0c0,0,0,0,0,0c0,0,0,0,0,0c0,0,0,0,0,0c0,0,0,0,0,0l0,0
			c0,0,0,0,0.1,0c0.1,0,0.2,0,0.3,0c0.1,0,0.3,0.1,0.3,0.2l0,0C3.5,12.3,3.2,12.3,3.1,12.2L3.1,12.2z"/>
		<path class="st2" d="M3.9,12.4c0-0.1,0-0.1,0-0.2c0,0,0-0.1,0-0.1l0,0c0,0,0,0,0,0c0,0,0,0,0,0c0,0,0,0,0,0c0,0,0,0,0,0l0,0
			c0,0,0,0,0,0.1c0,0.1-0.1,0.1-0.1,0.2c0,0.1-0.1,0.2,0,0.3l0,0C3.9,12.6,3.9,12.5,3.9,12.4L3.9,12.4z"/>
		<path class="st2" d="M3.5,12.6c-0.1,0-0.1-0.1-0.2-0.1c0,0-0.1,0-0.1,0l0,0c0,0,0,0,0,0c0,0,0,0,0,0c0,0,0,0,0,0c0,0,0,0,0,0l0,0
			c0,0,0,0,0.1,0c0.1,0,0.1,0,0.2,0c0.1,0,0.2,0.1,0.2,0.2l0,0C3.7,12.7,3.6,12.7,3.5,12.6L3.5,12.6z"/>
		<path class="st2" d="M4.2,12.7c0-0.1,0-0.1,0-0.2c0,0,0-0.1,0-0.1l0,0c0,0,0,0,0,0c0,0,0,0,0,0c0,0,0,0,0,0c0,0,0,0,0,0l0,0
			c0,0,0,0,0,0.1c0,0.1-0.1,0.1-0.1,0.1c0,0.1,0,0.2,0,0.2h0C4.1,12.9,4.2,12.8,4.2,12.7L4.2,12.7z"/>
		<path class="st2" d="M3.8,13c-0.1,0-0.1-0.1-0.1-0.1c0,0-0.1,0-0.1,0l0,0c0,0,0,0,0,0c0,0,0,0,0,0c0,0,0,0,0,0c0,0,0,0,0,0l0,0
			c0,0,0,0,0.1,0c0.1,0,0.1,0,0.2,0c0.1,0,0.2,0,0.2,0.1v0C4,13,3.9,13,3.8,13L3.8,13z"/>
		<path class="st2" d="M4.4,13c0-0.1,0-0.1,0-0.1c0,0,0,0,0,0l0,0c0,0,0,0,0,0c0,0,0,0,0,0s0,0,0,0c0,0,0,0,0,0l0,0c0,0,0,0,0,0
			c0,0-0.1,0.1-0.1,0.1c0,0.1,0,0.2,0,0.2h0C4.3,13.2,4.4,13.1,4.4,13L4.4,13z"/>
		<path class="st2" d="M4.1,13.2c0,0-0.1-0.1-0.1-0.1c0,0,0,0,0,0l0,0c0,0,0,0,0,0c0,0,0,0,0,0c0,0,0,0,0,0c0,0,0,0,0,0l0,0
			c0,0,0,0,0,0c0,0,0.1,0,0.1,0c0.1,0,0.2,0,0.2,0.1v0C4.2,13.3,4.1,13.3,4.1,13.2L4.1,13.2z"/>
		<path class="st2" d="M4.5,13.3c0,0,0-0.1,0-0.1c0,0,0,0,0,0l0,0c0,0,0,0,0,0c0,0,0,0,0,0c0,0,0,0,0,0c0,0,0,0,0,0l0,0c0,0,0,0,0,0
			c0,0,0,0.1-0.1,0.1c0,0,0,0.1,0,0.1h0C4.5,13.5,4.5,13.4,4.5,13.3L4.5,13.3z"/>
		<path class="st2" d="M4.3,13.5C4.2,13.5,4.2,13.4,4.3,13.5c-0.1-0.1-0.1-0.1-0.1-0.1l0,0c0,0,0,0,0,0c0,0,0,0,0,0c0,0,0,0,0,0
			c0,0,0,0,0,0l0,0C4.1,13.4,4.2,13.4,4.3,13.5c-0.1-0.1,0-0.1,0-0.1c0,0,0.1,0,0.1,0.1v0C4.4,13.5,4.3,13.5,4.3,13.5L4.3,13.5z"/>
		<path class="st2" d="M4.7,13.5C4.7,13.5,4.6,13.4,4.7,13.5c0-0.1,0-0.1,0-0.1l0,0c0,0,0,0,0,0c0,0,0,0,0,0c0,0,0,0,0,0
			c0,0,0,0,0,0l0,0C4.6,13.4,4.6,13.4,4.7,13.5C4.6,13.4,4.6,13.5,4.7,13.5c-0.1,0-0.1,0.1-0.1,0.1h0C4.6,13.6,4.7,13.6,4.7,13.5
			L4.7,13.5z"/>
		<path class="st2" d="M4.5,13.7C4.4,13.6,4.4,13.6,4.5,13.7c-0.1-0.1-0.1-0.1-0.1-0.1l0,0c0,0,0,0,0,0c0,0,0,0,0,0c0,0,0,0,0,0
			c0,0,0,0,0,0l0,0C4.3,13.6,4.4,13.6,4.5,13.7C4.4,13.6,4.4,13.6,4.5,13.7c0.1-0.1,0.1-0.1,0.1,0v0C4.6,13.7,4.5,13.7,4.5,13.7
			L4.5,13.7z"/>
		<path class="st2" d="M4.8,13.7C4.8,13.7,4.8,13.6,4.8,13.7c0-0.1,0-0.1,0-0.1l0,0c0,0,0,0,0,0c0,0,0,0,0,0c0,0,0,0,0,0
			c0,0,0,0,0,0l0,0C4.8,13.6,4.8,13.6,4.8,13.7C4.7,13.6,4.7,13.7,4.8,13.7C4.7,13.7,4.7,13.8,4.8,13.7L4.8,13.7
			C4.8,13.8,4.8,13.7,4.8,13.7L4.8,13.7z"/>
		<path class="st2" d="M4.6,13.8C4.6,13.8,4.6,13.8,4.6,13.8C4.5,13.8,4.5,13.8,4.6,13.8L4.6,13.8c-0.1,0-0.1,0-0.1,0c0,0,0,0,0,0
			C4.5,13.8,4.5,13.8,4.6,13.8C4.5,13.8,4.5,13.8,4.6,13.8L4.6,13.8C4.5,13.8,4.5,13.8,4.6,13.8C4.6,13.8,4.6,13.7,4.6,13.8
			c0-0.1,0.1-0.1,0.1,0v0C4.7,13.8,4.7,13.8,4.6,13.8z"/>
		<path class="st2" d="M4.9,13.8C4.9,13.8,4.9,13.8,4.9,13.8C4.9,13.8,4.9,13.8,4.9,13.8L4.9,13.8C4.9,13.8,4.9,13.8,4.9,13.8
			C4.9,13.8,4.9,13.7,4.9,13.8C4.9,13.7,4.9,13.8,4.9,13.8C4.9,13.8,4.9,13.8,4.9,13.8L4.9,13.8C4.9,13.8,4.9,13.8,4.9,13.8
			C4.9,13.8,4.8,13.8,4.9,13.8C4.8,13.9,4.8,13.9,4.9,13.8L4.9,13.8C4.9,13.9,4.9,13.9,4.9,13.8L4.9,13.8z"/>
		<path class="st2" d="M4.8,13.9C4.7,13.9,4.7,13.9,4.8,13.9C4.7,13.9,4.7,13.9,4.8,13.9L4.8,13.9C4.7,13.9,4.7,13.9,4.8,13.9
			C4.7,13.9,4.7,13.9,4.8,13.9C4.7,13.9,4.7,13.9,4.8,13.9C4.7,13.9,4.7,13.9,4.8,13.9L4.8,13.9C4.7,13.9,4.7,13.9,4.8,13.9
			C4.7,13.9,4.8,13.9,4.8,13.9C4.8,13.9,4.9,13.9,4.8,13.9L4.8,13.9C4.8,13.9,4.8,13.9,4.8,13.9L4.8,13.9z"/>
		<path class="st2" d="M5,14C5,13.9,5,13.9,5,14C5,13.9,5,13.9,5,14L5,14C5,13.9,5,13.9,5,14C5,13.9,5,13.9,5,14C5,13.9,5,13.9,5,14
			L5,14L5,14C5,13.9,5,13.9,5,14C5,13.9,4.9,13.9,5,14C4.9,14,4.9,14,5,14L5,14C5,14,5,14,5,14L5,14z"/>
		<path class="st2" d="M4.9,14C4.9,14,4.9,14,4.9,14C4.8,14,4.8,14,4.9,14L4.9,14C4.8,14,4.8,14,4.9,14C4.8,14,4.8,14,4.9,14
			C4.8,14,4.8,14,4.9,14L4.9,14L4.9,14C4.8,14,4.8,14,4.9,14C4.9,14,4.9,14,4.9,14C4.9,14,5,14,4.9,14L4.9,14C4.9,14,4.9,14,4.9,14z
			"/>
		<path class="st2" d="M5,14.1C5,14,5,14,5,14.1C5,14,5,14,5,14.1L5,14.1C5,14,5,14,5,14.1C5,14,5,14,5,14.1C5,14,5,14,5,14.1
			C5,14,5,14,5,14.1L5,14.1C5,14,5,14,5,14.1C5,14,5,14,5,14.1C5,14.1,5,14.1,5,14.1L5,14.1C5,14.1,5,14.1,5,14.1L5,14.1z"/>
		<path class="st2" d="M5,14.1C5,14.1,5,14.1,5,14.1C4.9,14.1,4.9,14.1,5,14.1L5,14.1C4.9,14.1,4.9,14.1,5,14.1
			C4.9,14.1,4.9,14.1,5,14.1C4.9,14.1,4.9,14.1,5,14.1C4.9,14.1,4.9,14.1,5,14.1L5,14.1C4.9,14.1,4.9,14.1,5,14.1
			C5,14.1,5,14.1,5,14.1C5,14.1,5,14.1,5,14.1L5,14.1C5,14.1,5,14.1,5,14.1L5,14.1z"/>
		<path class="st2" d="M2.6,2.6c0.1-0.1,0.1-0.3,0.2-0.4C2.9,2.1,3,2,3,2l0,0c0,0,0,0,0,0C3,2,3,2,3,1.9s0,0-0.1,0c0,0,0,0,0,0l0,0
			c0,0-0.1,0.1-0.1,0.1C2.7,2.2,2.5,2.1,2.3,2.2C2.2,2.3,1.9,2.6,2,2.7l0,0C2.2,2.9,2.5,2.7,2.6,2.6z"/>
		<path class="st2" d="M1.5,2.4C1.4,2.3,1.4,2.1,1.3,2c0-0.1-0.1-0.1-0.1-0.1l0,0c0,0,0,0,0,0c0,0,0-0.1,0-0.1c0,0,0,0,0.1,0
			c0,0,0,0,0,0l0,0c0,0,0,0.1,0.1,0.1C1.5,2,1.7,2.1,1.8,2.2C2,2.3,2.2,2.6,2,2.7l0,0C1.8,2.9,1.5,2.6,1.5,2.4z"/>
		<path class="st2" d="M2.4,1.6c0-0.2-0.1-0.3-0.1-0.5c0-0.1,0-0.2,0-0.2l0,0c0,0,0,0,0,0c0,0,0-0.1,0-0.1c0,0,0,0,0,0.1
			c0,0,0,0,0,0l0,0c0,0,0,0.1,0,0.2C2.2,1.2,2.1,1.3,2,1.5C1.9,1.7,1.9,2.1,2.1,2.1l0,0C2.4,2.2,2.5,1.7,2.4,1.6L2.4,1.6z"/>
		<path class="st1" d="M11.8,16.1c-4-1.3-3.6-6-3-9.4c0.3-1.1,0.6-2.4,1.2-3.4C9.7,4.5,9.3,5.6,9.1,6.8C8.5,10.3,7.8,14.6,11.8,16.1
			L11.8,16.1L11.8,16.1z"/>
		<g>
			<path class="st1" d="M9.1,16.2c-1.8-1-3.2-2.7-3.8-4.7c-0.5-2-0.3-4.2,0-6.2C5.6,3.9,6,2.5,6.7,1.3C6.2,2.6,5.8,3.9,5.6,5.3
				C4.8,9.9,4.9,13.3,9.1,16.2C9.1,16.2,9.1,16.2,9.1,16.2z"/>
			<g>
				<path class="st2" d="M6.8,4c0.3-0.2,0.4-0.5,0.7-0.6c0.1-0.1,0.3-0.1,0.3-0.1l0,0c0,0,0,0,0.1,0c0.1,0,0.1-0.1,0.1-0.1
					s-0.1,0-0.1,0c0,0,0,0,0,0l0,0c0,0-0.1,0.1-0.3,0.1c-0.3,0-0.6-0.1-0.9-0.1c-0.4,0-1,0.3-0.9,0.7l0,0C5.8,4.5,6.6,4.3,6.8,4
					L6.8,4z"/>
				<path class="st2" d="M4.8,3.3C4.7,3,4.7,2.7,4.6,2.4c0-0.1-0.2-0.2-0.2-0.2l0,0c0,0,0,0,0,0c0-0.1,0-0.1,0-0.1
					c0,0,0.1,0,0.1,0.1c0,0,0,0,0,0l0,0c0,0,0.1,0.1,0.1,0.2c0.2,0.2,0.5,0.3,0.8,0.5C5.7,3.2,6.1,3.8,5.7,4l0,0
					C5.3,4.3,4.9,3.7,4.8,3.3L4.8,3.3z"/>
				<path class="st2" d="M6,7.8c0.2-0.2,0.3-0.5,0.5-0.7C6.6,7,6.7,7,6.7,7l0,0c0,0,0,0,0,0c0.1,0,0.1-0.1,0.1-0.1c0,0-0.1,0-0.1,0
					c0,0,0,0,0,0l0,0c0,0-0.1,0.1-0.2,0.1C6.2,7.1,5.9,7,5.6,7.1C5.3,7.2,4.8,7.6,5,7.9l0,0C5.2,8.3,5.8,8,6,7.8L6,7.8z"/>
				<path class="st2" d="M4,7.4C3.9,7.2,3.9,6.9,3.8,6.6C3.8,6.5,3.7,6.4,3.7,6.4l0,0c0,0,0,0,0,0c0,0-0.1-0.1,0-0.1
					c0,0,0.1,0,0.1,0.1c0,0,0,0,0,0l0,0c0,0,0.1,0.1,0.2,0.2C4.1,6.7,4.4,6.8,4.6,7c0.3,0.2,0.6,0.7,0.3,1l0,0
					C4.6,8.2,4.2,7.7,4,7.4L4,7.4z"/>
				<path class="st2" d="M6.5,5.2C6.8,5,6.9,4.7,7.1,4.5c0.1-0.1,0.3-0.1,0.3-0.1l0,0c0,0,0,0,0,0c0.1,0,0.1-0.1,0.1-0.1
					c0,0-0.1,0-0.1,0c0,0,0,0,0,0l0,0c0,0-0.1,0.1-0.2,0.1c-0.3,0.1-0.6,0-0.9,0c-0.3,0.1-1,0.4-0.8,0.8l0,0
					C5.6,5.7,6.3,5.4,6.5,5.2L6.5,5.2z"/>
				<path class="st2" d="M4.5,4.7C4.4,4.4,4.4,4.1,4.3,3.8C4.2,3.7,4.1,3.6,4.1,3.6l0,0c0,0,0,0,0,0C4,3.5,4,3.4,4,3.4
					c0,0,0.1,0,0.1,0.1c0,0,0,0,0,0l0,0c0,0,0.1,0.1,0.2,0.2C4.6,4,4.9,4,5.1,4.2c0.3,0.2,0.6,0.8,0.3,1.1l0,0C5,5.6,4.6,5,4.5,4.7
					L4.5,4.7z"/>
				<path class="st2" d="M6.2,6.5C6.4,6.2,6.6,6,6.8,5.8C6.9,5.7,7,5.7,7,5.7l0,0c0,0,0,0,0,0c0.1,0,0.1-0.1,0.1-0.1
					c0,0-0.1,0-0.1,0c0,0,0,0,0,0l0,0c0,0-0.1,0.1-0.2,0.1c-0.3,0.1-0.6,0-0.9,0.1C5.5,5.8,5,6.2,5.1,6.6l0,0C5.3,7,6,6.7,6.2,6.5
					L6.2,6.5z"/>
				<path class="st2" d="M4.2,6C4.1,5.8,4.1,5.5,4,5.2C4,5.1,3.8,5,3.8,5l0,0c0,0,0,0,0,0c0-0.1-0.1-0.1,0-0.1c0,0,0.1,0,0.1,0.1
					c0,0,0,0,0,0l0,0c0,0,0.1,0.1,0.2,0.2c0.2,0.2,0.5,0.2,0.8,0.4c0.3,0.2,0.6,0.8,0.3,1l0,0C4.8,6.9,4.3,6.4,4.2,6L4.2,6z"/>
				<path class="st2" d="M7,3c0.2-0.1,0.4-0.4,0.6-0.5c0.1-0.1,0.2-0.1,0.2-0.1l0,0c0,0,0,0,0,0c0.1,0,0.1,0,0.1-0.1
					c0,0-0.1,0-0.1,0c0,0,0,0,0,0l0,0c0,0-0.1,0.1-0.2,0.1c-0.3,0-0.5-0.1-0.8-0.1C6.5,2.3,5.9,2.5,6,2.9l0,0C6.1,3.2,6.8,3.1,7,3
					L7,3z"/>
				<path class="st2" d="M5.3,2.3C5.2,2,5.3,1.7,5.2,1.5c0-0.1-0.1-0.2-0.1-0.2l0,0c0,0,0,0,0,0c0-0.1,0-0.1,0-0.1
					c0,0,0.1,0,0.1,0.1c0,0,0,0,0,0l0,0c0,0,0,0.1,0.1,0.2c0.2,0.2,0.5,0.3,0.7,0.5c0.2,0.2,0.5,0.8,0.2,1l0,0
					C5.8,3.1,5.4,2.6,5.3,2.3L5.3,2.3z"/>
				<path class="st2" d="M6.1,8.9c0.2-0.3,0.2-0.6,0.3-0.8C6.5,8.1,6.6,8,6.6,8l0,0c0,0,0,0,0,0c0,0,0.1-0.1,0.1-0.1
					c0,0-0.1,0-0.1,0.1c0,0,0,0,0,0l0,0c0,0-0.1,0.1-0.2,0.2C6.1,8.2,5.8,8.3,5.6,8.4C5.3,8.6,4.8,9.1,5.1,9.3l0,0
					C5.4,9.7,5.9,9.2,6.1,8.9L6.1,8.9z"/>
				<path class="st2" d="M4.1,8.9C3.9,8.6,3.9,8.3,3.8,8.1C3.7,8,3.6,7.9,3.6,7.9l0,0c0,0,0,0,0,0c0,0-0.1-0.1-0.1-0.1
					c0,0,0.1,0,0.1,0.1c0,0,0,0,0,0l0,0c0,0,0.1,0.1,0.2,0.2c0.2,0.1,0.5,0.2,0.8,0.3c0.3,0.2,0.7,0.7,0.4,1l0,0
					C4.7,9.6,4.2,9.2,4.1,8.9L4.1,8.9z"/>
				<path class="st2" d="M6,10.3c0.1-0.2,0.2-0.5,0.3-0.8c0.1-0.1,0.2-0.2,0.2-0.2l0,0c0,0,0,0,0,0c0,0,0.1-0.1,0.1-0.1
					s-0.1,0-0.1,0c0,0,0,0,0,0l0,0c0,0-0.1,0.1-0.2,0.2C6.1,9.7,5.8,9.7,5.5,9.8c-0.3,0.2-0.7,0.6-0.4,0.9l0,0
					C5.4,11,5.9,10.6,6,10.3L6,10.3z"/>
				<path class="st2" d="M4.1,10.3C4,10.1,4,9.8,3.8,9.6C3.8,9.5,3.7,9.4,3.7,9.4l0,0c0,0,0,0,0,0c0,0-0.1-0.1,0-0.1
					c0,0,0.1,0,0.1,0.1c0,0,0,0,0,0l0,0c0,0,0.1,0.1,0.2,0.2c0.2,0.1,0.5,0.2,0.8,0.3c0.3,0.2,0.7,0.6,0.4,0.9l0,0
					C4.8,11,4.3,10.6,4.1,10.3L4.1,10.3z"/>
				<path class="st2" d="M6.2,11.4c0.1-0.2,0.1-0.5,0.2-0.7c0-0.1,0.1-0.2,0.1-0.2l0,0c0,0,0,0,0,0c0,0,0-0.1,0-0.1
					c0,0-0.1,0-0.1,0.1c0,0,0,0,0,0l0,0c0,0-0.1,0.1-0.1,0.2c-0.2,0.1-0.4,0.2-0.6,0.3c-0.2,0.2-0.5,0.6-0.3,0.8l0,0
					C5.7,12.1,6.1,11.7,6.2,11.4L6.2,11.4z"/>
				<path class="st2" d="M4.6,11.7c-0.2-0.2-0.2-0.4-0.4-0.6C4.2,11,4.1,11,4.1,11l0,0c0,0,0,0,0,0c0,0-0.1-0.1-0.1-0.1
					c0,0,0.1,0,0.1,0c0,0,0,0,0,0l0,0c0,0,0.1,0.1,0.2,0.1c0.2,0.1,0.5,0.1,0.7,0.1c0.3,0.1,0.7,0.4,0.5,0.7l0,0
					C5.3,12.1,4.8,11.9,4.6,11.7L4.6,11.7z"/>
				<path class="st2" d="M6.5,12.5c0.1-0.2,0-0.4,0.1-0.6c0-0.1,0.1-0.2,0.1-0.2l0,0c0,0,0,0,0,0c0,0,0-0.1,0-0.1c0,0,0,0-0.1,0.1
					c0,0,0,0,0,0l0,0c0,0,0,0.1-0.1,0.2C6.4,12,6.2,12.1,6,12.2c-0.2,0.2-0.4,0.6-0.1,0.8l0,0C6.1,13.1,6.4,12.7,6.5,12.5L6.5,12.5z
					"/>
				<path class="st2" d="M5.1,12.9c-0.2-0.2-0.2-0.4-0.4-0.5c-0.1-0.1-0.2-0.1-0.2-0.1l0,0c0,0,0,0,0,0c0,0-0.1-0.1-0.1-0.1
					c0,0,0,0,0.1,0c0,0,0,0,0,0l0,0c0,0,0.1,0.1,0.2,0.1c0.2,0,0.4,0,0.6,0C5.6,12.5,6,12.8,5.9,13l0,0C5.7,13.3,5.3,13.1,5.1,12.9
					L5.1,12.9z"/>
				<path class="st2" d="M6.9,13.4c0-0.2-0.1-0.4,0-0.5c0-0.1,0.1-0.2,0.1-0.2l0,0c0,0,0,0,0,0c0,0,0-0.1,0-0.1c0,0,0,0,0,0.1
					c0,0,0,0,0,0l0,0c0,0,0,0.1,0,0.2c-0.1,0.1-0.3,0.2-0.4,0.4c-0.1,0.2-0.2,0.6,0,0.7l0,0C6.8,14,6.9,13.6,6.9,13.4z"/>
				<path class="st2" d="M5.8,13.9c-0.2-0.1-0.3-0.3-0.4-0.4c-0.1,0-0.2,0-0.2,0l0,0c0,0,0,0,0,0c0,0-0.1,0-0.1,0c0,0,0,0,0.1,0
					c0,0,0,0,0,0l0,0c0,0,0.1,0,0.2,0.1c0.2,0,0.4-0.1,0.5,0c0.2,0,0.6,0.2,0.5,0.4l0,0C6.4,14.1,6,14,5.8,13.9z"/>
				<path class="st2" d="M7.8,14.7c0-0.1-0.1-0.2-0.1-0.4c0-0.1,0-0.1,0-0.1l0,0c0,0,0,0,0,0c0,0,0-0.1,0-0.1c0,0,0,0,0,0
					c0,0,0,0,0,0l0,0c0,0,0,0.1,0,0.1c0,0.1-0.2,0.2-0.2,0.3c-0.1,0.1-0.1,0.4,0.1,0.5l0,0C7.7,15.1,7.8,14.8,7.8,14.7L7.8,14.7z"/>
				<path class="st2" d="M7.1,15.2c-0.1-0.1-0.2-0.2-0.3-0.2c0,0-0.1,0-0.1,0l0,0c0,0,0,0,0,0c0,0,0,0,0,0c0,0,0,0,0.1,0
					c0,0,0,0,0,0l0,0c0,0,0.1,0,0.1,0c0.1,0,0.2-0.1,0.4-0.1c0.1,0,0.4,0.1,0.4,0.2l0,0C7.5,15.3,7.2,15.3,7.1,15.2L7.1,15.2z"/>
				<path class="st2" d="M7.4,14.1c0-0.2-0.1-0.3-0.1-0.4c0-0.1,0-0.1,0-0.1l0,0c0,0,0,0,0,0c0,0,0-0.1,0-0.1c0,0,0,0,0,0.1
					c0,0,0,0,0,0l0,0c0,0,0,0.1,0,0.1C7.2,13.7,7,13.8,7,14c-0.1,0.2-0.1,0.5,0.1,0.6l0,0C7.3,14.6,7.4,14.2,7.4,14.1z"/>
				<path class="st2" d="M6.5,14.6c-0.1-0.1-0.2-0.2-0.4-0.3c-0.1,0-0.1,0-0.1,0l0,0c0,0,0,0,0,0c0,0-0.1,0-0.1,0c0,0,0,0,0.1,0
					c0,0,0,0,0,0l0,0c0,0,0.1,0,0.1,0c0.1,0,0.3-0.1,0.4-0.1c0.2,0,0.5,0.1,0.5,0.3l0,0C7,14.8,6.6,14.7,6.5,14.6L6.5,14.6z"/>
				<path class="st2" d="M8.2,15c0-0.1-0.1-0.2-0.1-0.3c0,0,0-0.1,0-0.1l0,0c0,0,0,0,0,0c0,0,0,0,0,0c0,0,0,0,0,0c0,0,0,0,0,0l0,0
					c0,0,0,0,0,0.1c0,0.1-0.1,0.2-0.1,0.3c0,0.1,0,0.3,0.1,0.3h0C8.2,15.4,8.2,15.1,8.2,15L8.2,15z"/>
				<path class="st2" d="M7.7,15.6c-0.1,0-0.2-0.1-0.3-0.1c0,0-0.1,0-0.1,0l0,0c0,0,0,0,0,0c0,0,0,0,0,0s0,0,0,0c0,0,0,0,0,0l0,0
					c0,0,0,0,0.1,0c0.1,0,0.2-0.1,0.3-0.1c0.1,0,0.3,0,0.3,0.1v0C8.1,15.5,7.8,15.6,7.7,15.6L7.7,15.6z"/>
				<path class="st2" d="M8.5,15.4c0-0.1-0.1-0.1-0.1-0.2c0,0,0-0.1,0-0.1l0,0c0,0,0,0,0,0c0,0,0,0,0,0c0,0,0,0,0,0c0,0,0,0,0,0l0,0
					c0,0,0,0,0,0.1c0,0.1-0.1,0.1-0.1,0.2c0,0.1,0,0.3,0.1,0.2h0C8.5,15.7,8.5,15.5,8.5,15.4L8.5,15.4z"/>
				<path class="st2" d="M8.2,15.8c-0.1,0-0.1-0.1-0.2-0.1c0,0-0.1,0-0.1,0l0,0c0,0,0,0,0,0c0,0,0,0,0,0s0,0,0,0c0,0,0,0,0,0l0,0
					c0,0,0,0,0.1,0c0.1,0,0.1-0.1,0.2-0.1c0.1,0,0.3,0,0.3,0.1v0C8.4,15.8,8.3,15.8,8.2,15.8L8.2,15.8z"/>
				<path class="st2" d="M8.8,15.7c0-0.1-0.1-0.1-0.1-0.2c0,0,0-0.1,0-0.1l0,0c0,0,0,0,0,0c0,0,0,0,0,0c0,0,0,0,0,0c0,0,0,0,0,0l0,0
					c0,0,0,0,0,0.1c0,0.1,0,0.1,0,0.2c0,0.1,0,0.2,0.1,0.2h0C8.9,15.9,8.8,15.7,8.8,15.7L8.8,15.7z"/>
				<path class="st2" d="M8.6,16c-0.1,0-0.1,0-0.2,0c0,0-0.1,0-0.1,0l0,0c0,0,0,0,0,0c0,0,0,0,0,0c0,0,0,0,0,0c0,0,0,0,0,0l0,0
					c0,0,0,0,0.1,0c0.1,0,0.1-0.1,0.2-0.1c0.1,0,0.2,0,0.2,0v0C8.8,16,8.6,16,8.6,16z"/>
				<path class="st2" d="M9,15.9c0,0-0.1-0.1-0.1-0.1c0,0,0,0,0,0l0,0c0,0,0,0,0,0c0,0,0,0,0,0c0,0,0,0,0,0c0,0,0,0,0,0l0,0
					c0,0,0,0,0,0c0,0,0,0.1,0,0.1c0,0.1,0,0.2,0.1,0.1h0C9.1,16,9.1,15.9,9,15.9L9,15.9z"/>
				<path class="st2" d="M8.9,16.2c0,0-0.1,0-0.1,0c0,0,0,0,0,0l0,0c0,0,0,0,0,0c0,0,0,0,0,0c0,0,0,0,0,0c0,0,0,0,0,0l0,0
					c0,0,0,0,0,0c0,0,0.1-0.1,0.1-0.1c0,0,0.2,0,0.2,0v0C9,16.1,8.9,16.2,8.9,16.2z"/>
				<path class="st2" d="M9.2,16C9.2,16,9.2,16,9.2,16c-0.1-0.1-0.1-0.1-0.1-0.1l0,0c0,0,0,0,0,0c0,0,0,0,0,0s0,0,0,0c0,0,0,0,0,0
					l0,0C9.2,15.9,9.2,15.9,9.2,16C9.2,16,9.2,16,9.2,16c-0.1,0.1-0.1,0.1,0,0.1h0C9.3,16.1,9.3,16.1,9.2,16L9.2,16z"/>
				<path class="st2" d="M9.1,16.2C9.1,16.2,9.1,16.2,9.1,16.2c-0.1,0-0.1,0-0.1,0l0,0c0,0,0,0,0,0c0,0,0,0,0,0c0,0,0,0,0,0
					c0,0,0,0,0,0l0,0C9,16.2,9,16.2,9.1,16.2C9.1,16.2,9.1,16.2,9.1,16.2C9.1,16.1,9.2,16.1,9.1,16.2L9.1,16.2
					C9.2,16.2,9.2,16.2,9.1,16.2L9.1,16.2z"/>
				<path class="st2" d="M9.4,16.2C9.4,16.1,9.4,16.1,9.4,16.2C9.3,16.1,9.3,16.1,9.4,16.2L9.4,16.2L9.4,16.2
					C9.3,16.1,9.3,16.1,9.4,16.2C9.3,16.1,9.3,16.1,9.4,16.2L9.4,16.2L9.4,16.2C9.3,16.1,9.3,16.1,9.4,16.2
					C9.3,16.1,9.3,16.1,9.4,16.2C9.3,16.2,9.4,16.2,9.4,16.2L9.4,16.2C9.4,16.2,9.4,16.2,9.4,16.2z"/>
				<path class="st2" d="M9.3,16.3C9.3,16.3,9.3,16.3,9.3,16.3C9.3,16.3,9.2,16.3,9.3,16.3L9.3,16.3C9.2,16.3,9.2,16.3,9.3,16.3
					C9.2,16.3,9.2,16.3,9.3,16.3C9.2,16.3,9.2,16.3,9.3,16.3L9.3,16.3L9.3,16.3C9.2,16.3,9.3,16.3,9.3,16.3
					C9.3,16.2,9.3,16.2,9.3,16.3C9.3,16.2,9.4,16.2,9.3,16.3L9.3,16.3C9.4,16.3,9.3,16.3,9.3,16.3L9.3,16.3z"/>
				<path class="st2" d="M7,2c0.2-0.1,0.2-0.2,0.4-0.3c0.1,0,0.1,0,0.1,0l0,0c0,0,0,0,0,0c0,0,0.1,0,0.1,0c0,0,0,0-0.1,0
					c0,0,0,0,0,0l0,0c0,0-0.1,0-0.1,0c-0.2,0-0.3-0.1-0.5-0.1c-0.2,0-0.6,0.1-0.5,0.3l0,0C6.5,2.2,6.9,2.1,7,2L7,2z"/>
				<path class="st2" d="M6,1.6c0-0.2,0-0.3-0.1-0.5C5.9,1,5.8,1,5.8,1l0,0c0,0,0,0,0,0c0,0,0-0.1,0-0.1c0,0,0,0,0.1,0c0,0,0,0,0,0
					l0,0c0,0,0,0.1,0.1,0.1c0.1,0.1,0.3,0.2,0.4,0.3C6.5,1.5,6.7,1.9,6.5,2l0,0C6.3,2.1,6,1.8,6,1.6L6,1.6z"/>
				<path class="st2" d="M7.1,0.8C7.1,0.6,7,0.5,7,0.3c0-0.1,0-0.2,0-0.2l0,0c0,0,0,0,0,0C7,0,7,0,7,0s0,0,0,0.1c0,0,0,0,0,0l0,0
					c0,0,0,0.1,0,0.2C6.8,0.4,6.7,0.5,6.6,0.7C6.5,0.9,6.4,1.3,6.7,1.4l0,0C7,1.5,7.1,1,7.1,0.8L7.1,0.8z"/>
			</g>
		</g>
		<g>
			<path class="st2" d="M9.2,6.1L9.2,6.1c0.2,0.3,0.7,0.1,1-0.1c0.2-0.2,0.3-0.4,0.5-0.6c0.1-0.1,0.2-0.1,0.2-0.1c0,0,0-0.1,0-0.1
				c0,0,0,0,0,0l0,0c0,0-0.1,0.1-0.2,0.1c-0.3,0-0.5,0-0.8,0c-0.2,0-0.5,0.1-0.6,0.3C9.3,5.9,9.3,6,9.2,6.1L9.2,6.1z"/>
			<path class="st2" d="M8.2,4.8c0.1,0.2,0,0.5,0.1,0.8c0.1,0.3,0.5,0.8,0.8,0.6l0,0c0,0,0,0,0,0C9.3,6,9.3,5.9,9.3,5.7
				C9.2,5.5,9.1,5.3,8.9,5.2C8.7,5,8.5,4.9,8.2,4.8c0-0.1-0.1-0.2-0.1-0.2l0,0c0,0,0,0,0,0c0,0,0,0,0,0c0,0,0,0,0,0.1c0,0,0,0,0,0
				l0,0C8.1,4.6,8.2,4.7,8.2,4.8L8.2,4.8z"/>
			<path class="st2" d="M8.5,9.7L8.5,9.7c0.2,0.3,0.7,0,0.9-0.2c0,0,0.1-0.1,0.1-0.1c0-0.1,0-0.1,0-0.1c0,0,0,0,0-0.1
				c0,0,0-0.1,0-0.1c0,0,0-0.1,0-0.1C9.3,9,9.2,9,9,9c-0.2,0-0.4,0.2-0.5,0.3C8.6,9.5,8.6,9.6,8.5,9.7L8.5,9.7z"/>
			<path class="st2" d="M7.5,8.6c0.1,0.2,0.1,0.5,0.2,0.7C7.8,9.6,8.2,10,8.5,9.8l0,0c0,0,0,0,0,0c0.1-0.1,0.1-0.2,0-0.4
				C8.5,9.2,8.3,9,8.2,8.9C8,8.8,7.7,8.7,7.5,8.6c0-0.1,0-0.1,0-0.1C7.5,8.5,7.5,8.5,7.5,8.6C7.5,8.6,7.5,8.6,7.5,8.6z"/>
			<path class="st2" d="M8.9,7.3L8.9,7.3c0.2,0.3,0.8,0.1,1-0.1c0.2-0.2,0.3-0.5,0.5-0.6c0.1-0.1,0.2-0.1,0.2-0.1l0,0c0,0,0,0,0,0
				c0,0,0,0,0,0c0,0,0-0.1,0-0.1c0,0-0.1,0-0.1,0c0,0,0,0,0,0l0,0c0,0-0.1,0.1-0.2,0.1c-0.3,0.1-0.5,0-0.8,0.1
				C9.4,6.6,9.1,6.7,9,6.9C9,7.1,9,7.2,8.9,7.3L8.9,7.3z"/>
			<path class="st2" d="M7.9,6C8,6.2,7.9,6.5,8,6.8c0.1,0.3,0.5,0.8,0.8,0.6l0,0c0,0,0,0,0,0C9,7.2,9,7.1,9,6.9
				C8.9,6.7,8.8,6.5,8.6,6.4C8.4,6.2,8.1,6.1,7.9,6c0-0.1-0.1-0.2-0.1-0.2l0,0c0,0,0,0,0,0c0,0,0,0,0,0c0,0,0,0,0,0.1
				C7.7,5.8,7.8,5.9,7.9,6z"/>
			<path class="st2" d="M8.6,8.5L8.6,8.5c0.1,0.3,0.5,0.2,0.8,0c0,0,0-0.1,0-0.1c0.1-0.2,0-0.2,0.1-0.2c0-0.1,0.1-0.1,0.1-0.2
				c0.1-0.1,0.1-0.1,0.2-0.2c0,0,0,0,0.1-0.1c-0.2,0-0.4,0-0.6,0C9.1,7.8,8.8,8,8.7,8.1C8.7,8.3,8.7,8.4,8.6,8.5L8.6,8.5z"/>
			<path class="st2" d="M7.5,7.1c0,0,0.1,0.1,0.1,0.1C7.7,7.5,7.7,7.8,7.8,8c0.1,0.3,0.5,0.7,0.8,0.5l0,0c0,0,0,0,0,0
				c0.1-0.1,0.1-0.2,0.1-0.4C8.6,7.9,8.5,7.7,8.3,7.6C8.1,7.4,7.9,7.4,7.7,7.2C7.6,7.2,7.6,7.1,7.5,7.1C7.5,7.1,7.5,7.1,7.5,7.1
				L7.5,7.1z"/>
			<path class="st2" d="M9.5,5.1C9.5,5.1,9.5,5.1,9.5,5.1L9.5,5.1c0.2,0.3,0.7,0.1,0.8-0.1c0.2-0.2,0.2-0.4,0.4-0.6
				c0.1-0.1,0.2-0.1,0.2-0.1l0,0c0,0,0,0,0,0c0,0,0.1-0.1,0.1-0.1c0,0-0.1,0-0.1,0c0,0,0,0,0,0l0,0c0,0-0.1,0.1-0.2,0.1
				c-0.2,0.1-0.4,0-0.7,0.1c-0.1,0-0.3,0.2-0.5,0.3C9.6,4.9,9.6,5,9.5,5.1L9.5,5.1z"/>
			<path class="st2" d="M8.5,3.7C8.5,3.7,8.5,3.7,8.5,3.7C8.5,3.7,8.5,3.8,8.5,3.7L8.5,3.7c0,0.1,0.1,0.2,0.2,0.2
				c0.1,0.2,0,0.4,0.1,0.7c0.1,0.3,0.4,0.7,0.7,0.5l0,0c0,0,0,0,0,0C9.6,5,9.6,4.9,9.5,4.8c0-0.2-0.2-0.4-0.3-0.5
				C9.1,4.1,8.8,4.1,8.7,3.9C8.6,3.8,8.6,3.7,8.5,3.7L8.5,3.7C8.6,3.7,8.6,3.7,8.5,3.7C8.5,3.7,8.5,3.6,8.5,3.7
				C8.5,3.7,8.5,3.7,8.5,3.7z"/>
			<path class="st2" d="M8.5,10.9C8.5,10.9,8.5,10.9,8.5,10.9L8.5,10.9c0.3,0.3,0.7-0.1,0.8-0.3c0.1-0.2,0.1-0.4,0.2-0.6
				c0.1-0.1,0.1-0.1,0.1-0.1l0,0c0,0,0,0,0,0c0,0,0,0,0,0l0,0c0,0,0,0,0,0c0,0,0,0,0,0c0,0,0,0,0,0l0,0c0,0-0.1,0.1-0.1,0.2
				c-0.2,0.1-0.4,0.1-0.6,0.3c-0.1,0.1-0.3,0.2-0.4,0.4C8.6,10.7,8.6,10.8,8.5,10.9L8.5,10.9z"/>
			<path class="st2" d="M7.4,10c0.1,0.2,0.1,0.4,0.3,0.6c0.1,0.2,0.6,0.6,0.8,0.3l0,0c0,0,0,0,0,0c0.1-0.1,0.1-0.2,0-0.4
				c-0.1-0.2-0.3-0.3-0.4-0.4C7.9,10.1,7.7,10.1,7.4,10c0-0.1-0.1-0.1-0.1-0.2C7.4,9.9,7.4,9.9,7.4,10C7.4,9.9,7.4,10,7.4,10L7.4,10
				z"/>
			<path class="st2" d="M8.6,12.1C8.6,12.1,8.6,12.1,8.6,12.1L8.6,12.1c0.3,0.2,0.6-0.1,0.7-0.3c0.1-0.2,0.1-0.4,0.2-0.6
				C9.6,11,9.7,11,9.7,11l0,0c0,0,0,0,0,0c0,0,0-0.1,0-0.1c0,0-0.1,0-0.1,0c0,0,0,0,0,0l0,0c0,0-0.1,0.1-0.1,0.2
				c-0.2,0.1-0.4,0.1-0.6,0.3c-0.1,0.1-0.3,0.2-0.3,0.4C8.7,11.8,8.7,12,8.6,12.1L8.6,12.1z"/>
			<path class="st2" d="M7.5,11.3c0.1,0.2,0.2,0.4,0.4,0.5C8.1,12,8.5,12.3,8.7,12l0,0c0,0,0,0,0,0c0.1-0.1,0-0.2-0.1-0.3
				c-0.1-0.1-0.3-0.2-0.4-0.3C8,11.3,7.8,11.4,7.5,11.3c-0.1-0.1-0.1-0.1-0.1-0.1l0,0c0,0,0,0,0,0c0,0,0,0,0,0c0,0,0,0.1,0,0.1
				c0,0,0,0,0,0c0,0,0,0,0,0l0,0C7.4,11.2,7.5,11.3,7.5,11.3L7.5,11.3z"/>
			<path class="st2" d="M8.8,13.1C8.8,13.1,8.8,13.1,8.8,13.1L8.8,13.1c0.2,0.2,0.5-0.1,0.6-0.3c0.1-0.2,0.1-0.4,0.1-0.6
				c0-0.1,0.1-0.1,0.1-0.1l0,0c0,0,0,0,0,0c0,0,0-0.1,0-0.1c0,0,0,0-0.1,0c0,0,0,0,0,0l0,0c0,0,0,0.1-0.1,0.1
				c-0.1,0.1-0.3,0.1-0.5,0.3c-0.1,0.1-0.2,0.2-0.3,0.4C8.8,12.9,8.8,13,8.8,13.1L8.8,13.1z"/>
			<path class="st2" d="M7.8,12.4c0.1,0.1,0.2,0.3,0.3,0.5C8.3,13,8.7,13.3,8.8,13l0,0c0,0,0,0,0,0c0-0.1,0-0.2-0.1-0.3
				c-0.1-0.1-0.3-0.2-0.4-0.3C8.2,12.4,8,12.4,7.8,12.4c-0.1-0.1-0.1-0.1-0.1-0.1l0,0c0,0,0,0,0,0c0,0,0,0-0.1,0c0,0,0,0,0,0.1
				c0,0,0,0,0,0c0,0,0,0,0,0l0,0C7.7,12.3,7.8,12.3,7.8,12.4L7.8,12.4z"/>
			<path class="st2" d="M9.2,13.9C9.2,13.9,9.2,13.9,9.2,13.9L9.2,13.9c0.2,0.1,0.5-0.2,0.5-0.4c0-0.2,0-0.3,0-0.5
				c0-0.1,0.1-0.1,0.1-0.1l0,0c0,0,0,0,0,0c0,0,0-0.1,0-0.1c0,0,0,0-0.1,0.1c0,0,0,0,0,0l0,0c0,0,0,0.1-0.1,0.1
				c-0.1,0.1-0.3,0.2-0.4,0.3c-0.1,0.1-0.2,0.2-0.2,0.4C9.1,13.7,9.2,13.8,9.2,13.9L9.2,13.9z"/>
			<path class="st2" d="M9.1,13.9L9.1,13.9C9.1,13.9,9.2,13.9,9.1,13.9c0.1-0.1,0-0.2-0.1-0.3c-0.1-0.1-0.2-0.2-0.4-0.2
				c-0.2,0-0.3,0-0.5,0c-0.1,0-0.1-0.1-0.1-0.1l0,0c0,0,0,0,0,0c0,0,0,0-0.1,0c0,0,0,0,0,0.1c0,0,0,0,0,0c0,0,0,0,0,0l0,0
				c0,0,0.1,0,0.1,0.1c0.1,0.1,0.2,0.3,0.3,0.4C8.7,14,9,14.1,9.1,13.9L9.1,13.9z"/>
			<path class="st2" d="M9.6,14.7C9.6,14.7,9.6,14.7,9.6,14.7L9.6,14.7c0.2,0.1,0.4-0.2,0.4-0.4c0-0.2,0-0.3,0-0.4
				c0-0.1,0.1-0.1,0.1-0.1l0,0c0,0,0,0,0,0c0,0,0-0.1,0-0.1c0,0,0,0,0,0c0,0,0,0,0,0l0,0c0,0,0,0.1,0,0.1c-0.1,0.1-0.2,0.2-0.3,0.3
				c-0.1,0.1-0.1,0.2-0.1,0.3C9.6,14.5,9.6,14.6,9.6,14.7L9.6,14.7z"/>
			<path class="st2" d="M9,14.7c0.1,0.1,0.5,0.2,0.5,0l0,0c0,0,0,0,0,0c0-0.1,0-0.1-0.1-0.2c-0.1-0.1-0.2-0.1-0.3-0.1
				c-0.2,0-0.3,0-0.4,0c-0.1,0-0.1-0.1-0.1-0.1l0,0c0,0,0,0,0,0c0,0-0.1,0-0.1,0c0,0,0,0,0,0c0,0,0,0,0,0l0,0c0,0,0.1,0,0.1,0
				C8.8,14.5,8.9,14.6,9,14.7L9,14.7z"/>
			<path class="st2" d="M10.1,15.2C10.1,15.2,10.1,15.2,10.1,15.2L10.1,15.2c0.2,0,0.3-0.2,0.2-0.4c0-0.1-0.1-0.2-0.1-0.3
				c0,0,0-0.1,0-0.1l0,0c0,0,0,0,0,0c0,0,0,0,0-0.1c0,0,0,0,0,0c0,0,0,0,0,0l0,0c0,0,0,0.1,0,0.1c0,0.1-0.1,0.2-0.2,0.3
				c0,0.1-0.1,0.2,0,0.3C10,15,10.1,15.1,10.1,15.2L10.1,15.2z"/>
			<path class="st2" d="M10.1,15.2L10.1,15.2C10.1,15.2,10.1,15.2,10.1,15.2c0-0.1,0-0.1-0.1-0.2c-0.1,0-0.2-0.1-0.3-0.1
				C9.6,15,9.5,15,9.4,15c0,0-0.1,0-0.1,0l0,0c0,0,0,0,0,0c0,0,0,0-0.1,0c0,0,0,0,0,0c0,0,0,0,0,0l0,0c0,0,0.1,0,0.1,0
				c0.1,0,0.2,0.1,0.3,0.2C9.8,15.3,10,15.3,10.1,15.2L10.1,15.2z"/>
			<path class="st2" d="M10.5,15.5C10.5,15.5,10.5,15.5,10.5,15.5L10.5,15.5c0.1,0,0.2-0.2,0.1-0.3c0-0.1-0.1-0.2-0.1-0.2
				c0,0,0-0.1,0-0.1l0,0c0,0,0,0,0,0c0,0,0,0,0,0c0,0,0,0,0,0c0,0,0,0,0,0l0,0c0,0,0,0,0,0.1c0,0.1-0.1,0.2-0.1,0.2
				C10.4,15.2,10.4,15.3,10.5,15.5C10.5,15.4,10.5,15.4,10.5,15.5L10.5,15.5z"/>
			<path class="st2" d="M10.5,15.5L10.5,15.5C10.5,15.5,10.5,15.5,10.5,15.5c0-0.1,0-0.1-0.1-0.1c-0.1,0-0.2,0-0.2,0
				c-0.1,0-0.2,0.1-0.2,0.1c0,0-0.1,0-0.1,0l0,0c0,0,0,0,0,0c0,0,0,0,0,0c0,0,0,0,0,0c0,0,0,0,0,0l0,0c0,0,0,0,0.1,0
				c0.1,0,0.2,0.1,0.2,0.1C10.3,15.6,10.5,15.6,10.5,15.5L10.5,15.5z"/>
			<path class="st2" d="M10.8,15.7c0.1,0,0.1-0.2,0.1-0.3c0-0.1-0.1-0.1-0.1-0.2c0,0,0-0.1,0-0.1l0,0c0,0,0,0,0,0c0,0,0,0,0,0
				c0,0,0,0,0,0c0,0,0,0,0,0l0,0c0,0,0,0,0,0.1c0,0.1-0.1,0.1-0.1,0.2C10.7,15.5,10.7,15.6,10.8,15.7C10.8,15.7,10.8,15.7,10.8,15.7
				C10.8,15.7,10.8,15.7,10.8,15.7L10.8,15.7L10.8,15.7z"/>
			<path class="st2" d="M10.7,15.7c-0.1,0-0.1,0-0.2,0c-0.1,0-0.1,0.1-0.2,0.1c0,0-0.1,0-0.1,0l0,0c0,0,0,0,0,0c0,0,0,0,0,0s0,0,0,0
				c0,0,0,0,0,0l0,0c0,0,0,0,0.1,0c0.1,0,0.1,0.1,0.2,0.1C10.6,15.9,10.8,15.9,10.7,15.7L10.7,15.7C10.8,15.7,10.8,15.7,10.7,15.7
				C10.8,15.7,10.8,15.7,10.7,15.7L10.7,15.7z"/>
			<path class="st2" d="M11.2,15.9C11.2,15.9,11.2,15.9,11.2,15.9L11.2,15.9c0.1,0,0.1-0.2,0-0.2c0-0.1-0.1-0.1-0.1-0.1
				c0,0,0-0.1,0-0.1l0,0c0,0,0,0,0,0c0,0,0,0,0,0c0,0,0,0,0,0c0,0,0,0,0,0l0,0c0,0,0,0,0,0.1c0,0.1,0,0.1,0,0.2
				C11,15.7,11.1,15.8,11.2,15.9C11.1,15.8,11.1,15.8,11.2,15.9L11.2,15.9z"/>
			<path class="st2" d="M11.2,15.9L11.2,15.9C11.2,15.9,11.2,15.9,11.2,15.9C11.1,15.8,11.1,15.8,11.2,15.9c-0.1-0.1-0.2-0.1-0.2,0
				c-0.1,0-0.1,0.1-0.1,0.1c0,0-0.1,0-0.1,0l0,0c0,0,0,0,0,0c0,0,0,0,0,0c0,0,0,0,0,0c0,0,0,0,0,0l0,0c0,0,0,0,0.1,0
				c0.1,0,0.1,0,0.2,0C11,16,11.2,16,11.2,15.9L11.2,15.9z"/>
			<path class="st2" d="M11.5,16c0.1,0,0-0.1,0-0.2c0,0-0.1-0.1-0.1-0.1c0,0,0,0,0,0l0,0c0,0,0,0,0,0c0,0,0,0,0,0c0,0,0,0,0,0
				c0,0,0,0,0,0l0,0c0,0,0,0,0,0c0,0,0,0.1,0,0.1C11.4,15.9,11.4,15.9,11.5,16C11.4,15.9,11.4,15.9,11.5,16C11.5,16,11.5,16,11.5,16
				L11.5,16L11.5,16z"/>
			<path class="st2" d="M11.4,15.9c0,0-0.1,0-0.1,0c0,0-0.1,0.1-0.1,0.1c0,0,0,0,0,0l0,0c0,0,0,0,0,0c0,0,0,0,0,0c0,0,0,0,0,0
				c0,0,0,0,0,0l0,0c0,0,0,0,0,0c0,0,0.1,0,0.1,0C11.4,16.1,11.5,16,11.4,15.9L11.4,15.9C11.5,16,11.5,16,11.4,15.9
				C11.4,15.9,11.4,15.9,11.4,15.9L11.4,15.9z"/>
			<path class="st2" d="M11.6,15.9C11.6,15.9,11.6,15.9,11.6,15.9L11.6,15.9C11.6,15.9,11.6,15.9,11.6,15.9
				C11.6,15.8,11.6,15.8,11.6,15.9C11.6,15.8,11.6,15.9,11.6,15.9C11.6,15.9,11.6,15.9,11.6,15.9L11.6,15.9
				C11.6,15.9,11.6,15.9,11.6,15.9C11.6,15.9,11.6,16,11.6,15.9c0,0.1,0,0.2,0,0.2c0,0,0,0,0,0c0,0,0,0,0,0h0
				C11.7,16.1,11.7,16,11.6,15.9C11.7,15.9,11.6,15.9,11.6,15.9L11.6,15.9z"/>
			<path class="st2" d="M11.6,16.1C11.6,16.1,11.6,16.1,11.6,16.1c-0.1,0-0.1,0.1-0.1,0.1c0,0,0,0,0,0l0,0c0,0,0,0,0,0c0,0,0,0,0,0
				c0,0,0,0,0,0c0,0,0,0,0,0l0,0c0,0,0,0,0,0C11.5,16.1,11.5,16.2,11.6,16.1C11.6,16.2,11.7,16.1,11.6,16.1L11.6,16.1
				C11.7,16.1,11.7,16.1,11.6,16.1C11.7,16.1,11.6,16.1,11.6,16.1L11.6,16.1z"/>
			<path class="st2" d="M9.6,4.2C9.6,4.2,9.6,4.2,9.6,4.2L9.6,4.2c0.1,0.2,0.5,0.1,0.6,0c0.1-0.1,0.2-0.3,0.3-0.4
				c0.1,0,0.1-0.1,0.1-0.1l0,0c0,0,0,0,0,0c0,0,0.1,0,0.1-0.1c0,0,0,0-0.1,0c0,0,0,0,0,0l0,0c0,0-0.1,0.1-0.1,0.1
				c-0.2,0-0.3,0-0.5,0C10,3.8,9.8,3.9,9.7,4C9.7,4.1,9.7,4.2,9.6,4.2L9.6,4.2z"/>
			<path class="st2" d="M9.1,3.2L9.1,3.2c0,0,0.1,0.1,0.1,0.1c0.1,0.2,0,0.3,0.1,0.5C9.3,4,9.5,4.4,9.7,4.2l0,0c0,0,0,0,0,0
				C9.8,4.2,9.8,4.1,9.8,4c0-0.1-0.1-0.3-0.2-0.3C9.5,3.5,9.3,3.5,9.2,3.4C9.1,3.3,9.1,3.2,9.1,3.2L9.1,3.2C9.1,3.2,9.1,3.2,9.1,3.2
				C9.1,3.2,9,3.1,9.1,3.2C9,3.2,9,3.2,9.1,3.2C9,3.2,9.1,3.2,9.1,3.2L9.1,3.2z"/>
			<path class="st2" d="M9.9,3.6L9.9,3.6c0.2,0.1,0.4-0.3,0.4-0.5c0-0.2-0.1-0.4,0-0.5c0,0,0-0.1,0-0.1c0,0,0,0,0,0c0,0,0,0.1,0,0.1
				C10.2,2.7,10,2.8,9.9,3C9.8,3.1,9.7,3.5,9.9,3.6z"/>
		</g>
		<g>
			<path class="st4" d="M11.9,11.4C11.9,11.4,11.8,11.4,11.9,11.4C11.8,11.4,11.8,11.4,11.9,11.4C11.8,11.4,11.8,11.4,11.9,11.4z"/>
			<path class="st1" d="M12.2,14.9L12.2,14.9C12.2,14.9,12.2,14.9,12.2,14.9C12.2,14.9,12.2,14.9,12.2,14.9L12.2,14.9
				C12.1,14.9,12.1,14.9,12.2,14.9c0,0.1,0.1,0.2,0.1,0.3c0,0,0,0,0.1,0c0,0,0-0.1,0-0.1C12.3,15.1,12.3,15,12.2,14.9
				C12.2,14.9,12.2,14.9,12.2,14.9L12.2,14.9z"/>
			<path class="st1" d="M13.5,16.1C13.5,16.1,13.5,16.1,13.5,16.1C13.4,16.1,13.4,16.1,13.5,16.1C13.5,16.1,13.5,16.1,13.5,16.1z"/>
			<path class="st1" d="M11.7,13.5C11.7,13.5,11.7,13.4,11.7,13.5C11.7,13.4,11.7,13.4,11.7,13.5L11.7,13.5
				C11.7,13.5,11.7,13.5,11.7,13.5c0,0.2,0,0.3,0,0.4c0,0,0.1,0.1,0.1,0.1c0,0,0,0,0-0.1C11.9,13.8,11.8,13.6,11.7,13.5
				C11.8,13.5,11.8,13.5,11.7,13.5L11.7,13.5L11.7,13.5z"/>
			<path class="st1" d="M11.9,14.2C11.9,14.2,11.9,14.2,11.9,14.2C11.9,14.2,11.9,14.2,11.9,14.2L11.9,14.2
				C11.9,14.2,11.9,14.3,11.9,14.2c0,0.1,0,0.2,0,0.3c0.1,0,0.1,0.1,0.2,0.1c0,0,0,0,0,0C12.1,14.5,12,14.4,11.9,14.2
				C12,14.2,11.9,14.2,11.9,14.2L11.9,14.2L11.9,14.2z"/>
			<path class="st1" d="M12.8,15.7c0.1,0,0.1,0.1,0.2,0.1c0,0,0,0,0,0c0,0,0,0,0-0.1C12.9,15.7,12.9,15.7,12.8,15.7
				C12.9,15.7,12.8,15.7,12.8,15.7C12.8,15.7,12.8,15.7,12.8,15.7z"/>
			<path class="st1" d="M13.1,15.9C13.1,15.9,13.1,15.9,13.1,15.9c0,0,0.1,0.1,0.2,0.1c0,0,0,0,0,0c0,0,0,0,0,0
				C13.2,15.9,13.1,15.9,13.1,15.9C13.1,15.9,13.1,15.9,13.1,15.9L13.1,15.9L13.1,15.9z"/>
			<path class="st1" d="M13.3,16C13.3,16,13.3,16,13.3,16C13.3,16,13.3,16,13.3,16L13.3,16C13.3,16,13.3,16,13.3,16
				c0,0,0.1,0.1,0.1,0.1c0,0,0,0,0,0C13.4,16.1,13.3,16,13.3,16L13.3,16L13.3,16L13.3,16z"/>
			<path class="st1" d="M11.6,12.6L11.6,12.6C11.6,12.6,11.6,12.6,11.6,12.6C11.6,12.6,11.6,12.6,11.6,12.6c0,0.1,0,0.3,0,0.4
				c0,0,0.1,0.1,0.1,0.1c0,0,0-0.1,0.1-0.1c0,0,0,0,0,0c0-0.1,0-0.3,0-0.4C11.7,12.7,11.7,12.7,11.6,12.6L11.6,12.6z"/>
			<path class="st1" d="M12.5,15.4c0.1,0.1,0.1,0.1,0.2,0.2c0,0,0,0,0.1,0c0,0,0,0,0-0.1C12.7,15.5,12.6,15.4,12.5,15.4
				C12.5,15.4,12.5,15.4,12.5,15.4z"/>
			<path class="st1" d="M11.7,11.8L11.7,11.8C11.7,11.8,11.7,11.7,11.7,11.8C11.7,11.7,11.7,11.8,11.7,11.8L11.7,11.8
				c-0.1,0-0.1,0-0.1,0c0,0.1,0,0.3,0,0.4c0,0,0,0.1,0.1,0.1c0,0,0.1-0.1,0.1-0.1C11.8,12.1,11.8,12,11.7,11.8
				C11.8,11.8,11.8,11.8,11.7,11.8L11.7,11.8z"/>
			<path class="st1" d="M11.8,11.4C11.8,11.4,11.8,11.4,11.8,11.4c0,0-0.1,0-0.1-0.1C11.7,11.4,11.8,11.4,11.8,11.4
				C11.8,11.4,11.8,11.4,11.8,11.4L11.8,11.4z"/>
			<path class="st2" d="M11.8,11.4c0,0.1,0,0.3,0,0.4c0.2,0.1,0.5-0.1,0.6-0.2c0,0,0-0.1,0.1-0.1c-0.1,0-0.1,0-0.2,0
				C12.1,11.5,12,11.4,11.8,11.4C11.8,11.4,11.8,11.4,11.8,11.4L11.8,11.4z"/>
			<path class="st2" d="M11.8,11.5c0,0.1,0,0.2-0.1,0.3c0,0,0,0,0,0l0,0c0,0,0,0,0,0C11.8,11.7,11.8,11.5,11.8,11.5
				C11.8,11.4,11.8,11.4,11.8,11.5z"/>
			<path class="st2" d="M11.6,11.8c0-0.1,0-0.1,0-0.2c0-0.1,0-0.2,0-0.3c0,0-0.1,0-0.1,0c-0.1,0-0.3-0.1-0.4-0.2c0,0.1,0,0.2,0,0.3
				C11.2,11.6,11.4,11.8,11.6,11.8L11.6,11.8z"/>
			<path class="st2" d="M11.6,11.8C11.6,11.8,11.7,11.8,11.6,11.8L11.6,11.8c0.1,0,0.1-0.1,0.1-0.1c0-0.1,0-0.2,0.1-0.3
				c0,0,0-0.1-0.1-0.1c0,0,0,0-0.1,0c0,0.1,0,0.2,0,0.3C11.6,11.7,11.6,11.7,11.6,11.8L11.6,11.8z"/>
			<path class="st2" d="M11.8,11.5c-0.1,0.1-0.1,0.2-0.1,0.3C11.8,11.7,11.8,11.6,11.8,11.5z"/>
			<path class="st2" d="M11.8,12.7c0.2,0,0.4-0.1,0.5-0.3c0.1-0.1,0.1-0.3,0.2-0.4c0-0.1,0.1-0.1,0.1-0.1l0,0c0,0,0,0,0,0
				c0,0,0-0.1,0-0.1c0,0,0,0-0.1,0c0,0,0,0,0,0l0,0c0,0-0.1,0.1-0.1,0.1c-0.2,0.1-0.3,0-0.5,0.1c-0.1,0-0.1,0.1-0.2,0.1
				C11.8,12.4,11.8,12.5,11.8,12.7L11.8,12.7z"/>
			<path class="st2" d="M11.7,12.3c0,0.1,0,0.2,0,0.3c0,0,0,0,0,0l0,0c0,0,0.1,0.1,0.1,0.1c0-0.2,0-0.3,0-0.5
				C11.7,12.3,11.7,12.3,11.7,12.3L11.7,12.3z"/>
			<path class="st2" d="M11.6,12.5c0-0.1,0-0.1,0-0.2c-0.1-0.1-0.1-0.2-0.2-0.2c-0.1-0.1-0.3-0.1-0.4-0.2c-0.1,0-0.1-0.1-0.1-0.1
				l0,0c0,0,0,0,0,0c0,0-0.1,0-0.1,0c0,0,0,0,0,0.1c0,0,0,0,0,0l0,0c0,0,0.1,0.1,0.1,0.1c0.1,0.2,0,0.3,0.1,0.5
				c0.1,0.2,0.3,0.5,0.5,0.3l0,0l0,0c0,0,0,0,0,0C11.6,12.5,11.6,12.5,11.6,12.5L11.6,12.5z"/>
			<path class="st2" d="M11.6,12.5c0,0,0-0.1,0.1-0.1c0,0,0-0.1-0.1-0.1C11.6,12.3,11.6,12.4,11.6,12.5L11.6,12.5z"/>
			<path class="st2" d="M11.6,12.6C11.6,12.6,11.6,12.6,11.6,12.6C11.6,12.6,11.6,12.6,11.6,12.6C11.6,12.6,11.6,12.6,11.6,12.6
				L11.6,12.6z"/>
			<path class="st2" d="M11.6,12.6c0,0,0-0.1,0-0.1C11.6,12.5,11.6,12.5,11.6,12.6z"/>
			<path class="st2" d="M11.6,12.6C11.6,12.6,11.6,12.6,11.6,12.6c0.1,0,0.1-0.1,0-0.2c0,0,0,0.1-0.1,0.1
				C11.6,12.5,11.6,12.5,11.6,12.6z"/>
			<path class="st2" d="M12.3,13.2c0.1-0.1,0.1-0.3,0.2-0.4c0-0.1,0.1-0.1,0.1-0.1l0,0c0,0,0,0,0,0c0,0,0-0.1,0-0.1c0,0,0,0-0.1,0
				c0,0,0,0,0,0l0,0c0,0,0,0.1-0.1,0.1c-0.1,0.1-0.3,0.1-0.4,0.2c-0.1,0-0.1,0.1-0.2,0.2c0,0.1,0,0.3,0,0.4
				C12,13.5,12.2,13.4,12.3,13.2L12.3,13.2z"/>
			<path class="st2" d="M11.7,13.4C11.7,13.4,11.7,13.4,11.7,13.4L11.7,13.4C11.8,13.5,11.8,13.5,11.7,13.4c0.1-0.1,0.1-0.2,0.1-0.3
				c0,0,0,0.1-0.1,0.1C11.8,13.3,11.8,13.4,11.7,13.4L11.7,13.4z"/>
			<path class="st2" d="M11.6,13.1c-0.1-0.1-0.1-0.1-0.2-0.1c-0.1-0.1-0.3-0.1-0.4-0.2c-0.1,0-0.1-0.1-0.1-0.1l0,0c0,0,0,0,0,0
				c0,0-0.1,0-0.1,0c0,0,0,0,0,0.1c0,0,0,0,0,0l0,0c0,0,0.1,0,0.1,0.1c0.1,0.1,0.1,0.3,0.2,0.4c0.1,0.1,0.3,0.4,0.5,0.3
				C11.7,13.4,11.6,13.2,11.6,13.1C11.6,13.1,11.6,13.1,11.6,13.1L11.6,13.1z"/>
			<path class="st2" d="M11.7,13.5C11.7,13.5,11.7,13.4,11.7,13.5c0-0.1,0-0.2,0-0.2c0,0-0.1-0.1-0.1-0.1c0,0,0,0,0,0
				C11.6,13.2,11.7,13.4,11.7,13.5C11.7,13.5,11.7,13.5,11.7,13.5L11.7,13.5L11.7,13.5z"/>
			<path class="st2" d="M11.7,13.4c0.1-0.1,0-0.2,0-0.2C11.7,13.3,11.7,13.4,11.7,13.4z"/>
			<path class="st2" d="M12.4,13.9c0.1-0.1,0-0.3,0.1-0.4c0-0.1,0.1-0.1,0.1-0.1l0,0c0,0,0,0,0,0c0,0,0-0.1,0-0.1c0,0,0,0-0.1,0
				c0,0,0,0,0,0l0,0c0,0,0,0.1-0.1,0.1c-0.1,0.1-0.3,0.1-0.4,0.2c-0.1,0-0.1,0.1-0.2,0.2c0,0.1,0.1,0.2,0.1,0.3
				C12.1,14.3,12.3,14.1,12.4,13.9L12.4,13.9z"/>
			<path class="st2" d="M11.9,14.2C11.9,14.2,11.9,14.2,11.9,14.2L11.9,14.2C11.9,14.2,12,14.2,11.9,14.2c0-0.1,0-0.2,0-0.3
				c0,0,0,0,0,0.1C11.9,14.1,11.9,14.1,11.9,14.2z"/>
			<path class="st2" d="M11.6,13.8c-0.1-0.1-0.3,0-0.4-0.1c-0.1,0-0.1-0.1-0.1-0.1l0,0c0,0,0,0,0,0c0,0-0.1,0-0.1,0c0,0,0,0,0,0.1
				c0,0,0,0,0,0l0,0c0,0,0.1,0,0.1,0.1c0.1,0.1,0.1,0.3,0.2,0.4c0.1,0.1,0.3,0.3,0.5,0.2c0-0.1-0.1-0.3-0.1-0.4
				C11.7,13.8,11.6,13.8,11.6,13.8z"/>
			<path class="st2" d="M11.9,14.2L11.9,14.2C11.9,14.2,11.9,14.2,11.9,14.2c0-0.1,0-0.2,0-0.2c0,0-0.1-0.1-0.1-0.1
				C11.8,14,11.8,14.1,11.9,14.2C11.9,14.3,11.9,14.2,11.9,14.2L11.9,14.2z"/>
			<path class="st2" d="M11.9,14.2c0-0.1,0-0.1,0-0.2C11.8,14.1,11.8,14.2,11.9,14.2z"/>
			<path class="st2" d="M12.5,14.6c0-0.1,0-0.2,0.1-0.4c0,0,0.1-0.1,0.1-0.1l0,0c0,0,0,0,0,0c0,0,0,0,0-0.1c0,0,0,0,0,0c0,0,0,0,0,0
				l0,0c0,0,0,0.1-0.1,0.1c-0.1,0.1-0.2,0.1-0.3,0.2c-0.1,0-0.1,0.1-0.1,0.2c0,0.1,0.1,0.2,0.1,0.2C12.4,14.9,12.5,14.7,12.5,14.6
				L12.5,14.6z"/>
			<path class="st2" d="M12.2,14.8C12.2,14.8,12.2,14.9,12.2,14.8L12.2,14.8C12.2,14.9,12.2,14.9,12.2,14.8c0,0,0-0.1,0-0.2
				c0,0,0,0,0,0C12.2,14.7,12.2,14.8,12.2,14.8L12.2,14.8z"/>
			<path class="st2" d="M11.9,14.5c-0.1,0-0.2,0-0.4-0.1c0,0-0.1-0.1-0.1-0.1l0,0c0,0,0,0,0,0c0,0,0,0-0.1,0c0,0,0,0,0,0
				c0,0,0,0,0,0l0,0c0,0,0.1,0,0.1,0.1c0.1,0.1,0.1,0.2,0.2,0.3c0.1,0.1,0.3,0.2,0.4,0.1C12.1,14.8,12,14.7,11.9,14.5
				C11.9,14.5,11.9,14.5,11.9,14.5L11.9,14.5z"/>
			<path class="st2" d="M12.2,14.9C12.2,14.9,12.2,14.9,12.2,14.9c0-0.1-0.1-0.1,0-0.2c0,0-0.1-0.1-0.2-0.1
				C12,14.7,12.1,14.8,12.2,14.9C12.1,14.9,12.1,14.9,12.2,14.9L12.2,14.9L12.2,14.9z"/>
			<path class="st2" d="M12.2,14.8c0-0.1,0-0.1,0-0.2C12.1,14.7,12.1,14.8,12.2,14.8z"/>
			<path class="st2" d="M12.4,15.4C12.4,15.4,12.4,15.4,12.4,15.4L12.4,15.4C12.5,15.4,12.5,15.4,12.4,15.4
				C12.5,15.4,12.5,15.3,12.4,15.4C12.4,15.3,12.4,15.3,12.4,15.4L12.4,15.4z"/>
			<path class="st2" d="M12.6,15.3c0.1-0.1,0.1-0.2,0.1-0.2c0-0.1,0-0.2,0-0.3c0,0,0-0.1,0-0.1l0,0c0,0,0,0,0,0c0,0,0,0,0,0
				c0,0,0,0,0,0c0,0,0,0,0,0l0,0c0,0,0,0,0,0.1c-0.1,0.1-0.1,0.1-0.2,0.2c0,0,0,0.1-0.1,0.1c0,0,0,0,0,0
				C12.5,15.2,12.5,15.3,12.6,15.3L12.6,15.3z"/>
			<path class="st2" d="M12.4,15.3C12.5,15.3,12.5,15.4,12.4,15.3c0.1,0.1,0.1,0,0.1,0c-0.1-0.1-0.1-0.1-0.1-0.2c0,0,0,0,0,0
				C12.4,15.2,12.4,15.2,12.4,15.3C12.4,15.3,12.4,15.3,12.4,15.3z"/>
			<path class="st2" d="M12.4,15.2C12.4,15.2,12.4,15.2,12.4,15.2C12.3,15.2,12.3,15.2,12.4,15.2c-0.1-0.1-0.2-0.1-0.2-0.1
				c-0.1,0-0.2,0-0.3,0c0,0-0.1,0-0.1,0l0,0c0,0,0,0,0,0c0,0,0,0,0,0c0,0,0,0,0,0c0,0,0,0,0,0l0,0c0,0,0,0,0.1,0
				c0.1,0.1,0.1,0.1,0.2,0.2c0.1,0.1,0.3,0.1,0.3,0l0,0c0,0,0,0,0,0C12.4,15.3,12.4,15.3,12.4,15.2L12.4,15.2z"/>
			<path class="st2" d="M12.4,15.2C12.4,15.2,12.4,15.2,12.4,15.2C12.4,15.2,12.4,15.2,12.4,15.2C12.3,15.2,12.3,15.2,12.4,15.2
				C12.4,15.2,12.4,15.2,12.4,15.2z"/>
			<path class="st2" d="M12.4,15.3C12.4,15.3,12.4,15.3,12.4,15.3C12.4,15.3,12.4,15.3,12.4,15.3C12.4,15.3,12.4,15.3,12.4,15.3z"/>
			<path class="st2" d="M12.4,15.3C12.4,15.3,12.4,15.3,12.4,15.3C12.4,15.2,12.4,15.2,12.4,15.3C12.4,15.3,12.4,15.3,12.4,15.3z"/>
			<path class="st2" d="M12.9,15.7c0.1,0,0.1-0.2,0.1-0.2c0-0.1,0-0.1-0.1-0.2c0,0,0-0.1,0-0.1l0,0c0,0,0,0,0,0c0,0,0,0,0,0
				c0,0,0,0,0,0c0,0,0,0,0,0l0,0c0,0,0,0,0,0.1c0,0.1-0.1,0.1-0.1,0.2c0,0,0,0.1,0,0.1C12.8,15.6,12.8,15.6,12.9,15.7L12.9,15.7z"/>
			<path class="st2" d="M12.8,15.7C12.8,15.7,12.8,15.7,12.8,15.7L12.8,15.7C12.8,15.7,12.8,15.7,12.8,15.7
				C12.8,15.7,12.8,15.7,12.8,15.7L12.8,15.7z"/>
			<path class="st2" d="M12.8,15.7C12.8,15.7,12.8,15.7,12.8,15.7L12.8,15.7C12.8,15.7,12.9,15.7,12.8,15.7c0,0,0-0.1-0.1-0.1
				C12.7,15.5,12.7,15.6,12.8,15.7C12.8,15.6,12.8,15.6,12.8,15.7L12.8,15.7z"/>
			<path class="st2" d="M12.7,15.6C12.7,15.6,12.7,15.6,12.7,15.6c-0.1-0.1-0.2-0.1-0.2-0.1c-0.1,0-0.1,0-0.2,0.1c0,0-0.1,0-0.1,0
				l0,0c0,0,0,0,0,0c0,0,0,0,0,0s0,0,0,0c0,0,0,0,0,0l0,0c0,0,0,0,0.1,0c0.1,0,0.1,0.1,0.2,0.1C12.6,15.8,12.8,15.8,12.7,15.6
				L12.7,15.6C12.8,15.7,12.8,15.7,12.7,15.6C12.8,15.7,12.8,15.6,12.7,15.6L12.7,15.6z"/>
			<path class="st2" d="M12.7,15.6C12.7,15.6,12.7,15.6,12.7,15.6C12.7,15.6,12.7,15.6,12.7,15.6C12.7,15.6,12.7,15.6,12.7,15.6z"/>
			<path class="st2" d="M12.7,15.6C12.8,15.6,12.8,15.7,12.7,15.6C12.8,15.7,12.8,15.7,12.7,15.6C12.8,15.7,12.8,15.6,12.7,15.6z"/>
			<path class="st2" d="M12.8,15.7C12.8,15.6,12.8,15.6,12.8,15.7C12.7,15.6,12.7,15.6,12.8,15.7C12.8,15.6,12.8,15.7,12.8,15.7
				L12.8,15.7z"/>
			<path class="st2" d="M13.1,15.7c0,0-0.1-0.1-0.1-0.1c0,0,0,0,0,0l0,0c0,0,0,0,0,0c0,0,0,0,0,0c0,0,0,0,0,0c0,0,0,0,0,0l0,0
				c0,0,0,0,0,0c0,0,0,0.1,0,0.1c0,0,0,0,0,0.1c0,0,0.1,0.1,0.1,0.1C13.1,15.8,13.1,15.7,13.1,15.7L13.1,15.7z"/>
			<path class="st2" d="M13.1,15.9L13.1,15.9C13.1,15.9,13.1,15.9,13.1,15.9C13.1,15.9,13.1,15.9,13.1,15.9L13.1,15.9z"/>
			<path class="st2" d="M13.1,15.9C13.1,15.9,13.1,15.9,13.1,15.9C13.1,15.9,13.1,15.9,13.1,15.9L13.1,15.9
				C13.1,15.9,13.1,15.9,13.1,15.9c0,0,0-0.1-0.1-0.1C13,15.8,13,15.8,13.1,15.9C13,15.8,13,15.8,13.1,15.9L13.1,15.9z"/>
			<path class="st2" d="M13,15.8C13,15.8,13,15.8,13,15.8c0,0-0.1,0-0.1,0c0,0-0.1,0.1-0.1,0.1c0,0,0,0,0,0l0,0c0,0,0,0,0,0
				c0,0,0,0,0,0c0,0,0,0,0,0c0,0,0,0,0,0l0,0c0,0,0,0,0,0c0,0,0.1,0,0.1,0C13,16,13.1,15.9,13,15.8L13,15.8
				C13.1,15.9,13.1,15.9,13,15.8C13,15.9,13,15.9,13,15.8L13,15.8z"/>
			<path class="st2" d="M13,15.8C13,15.8,13,15.8,13,15.8C13,15.8,13,15.8,13,15.8C13,15.8,13,15.8,13,15.8z"/>
			<path class="st2" d="M13,15.8C13,15.9,13,15.9,13,15.8C13.1,15.9,13.1,15.9,13,15.8C13,15.9,13,15.8,13,15.8z"/>
			<path class="st2" d="M13.1,15.9C13,15.8,13,15.8,13.1,15.9C13,15.8,13,15.8,13.1,15.9C13,15.8,13,15.9,13.1,15.9L13.1,15.9z"/>
			<path class="st2" d="M13.3,16C13.3,16,13.3,16,13.3,16c0.1,0,0.1-0.1,0-0.1c0,0,0-0.1-0.1-0.1c0,0,0,0,0,0l0,0c0,0,0,0,0,0
				c0,0,0,0,0,0c0,0,0,0,0,0c0,0,0,0,0,0l0,0c0,0,0,0,0,0C13.2,15.8,13.2,15.9,13.3,16C13.2,15.9,13.2,15.9,13.3,16
				C13.2,16,13.3,16,13.3,16C13.3,16,13.3,16,13.3,16L13.3,16z"/>
			<path class="st2" d="M13.3,16C13.3,16,13.3,16,13.3,16L13.3,16L13.3,16C13.3,16,13.3,16,13.3,16C13.3,16,13.3,16,13.3,16z"/>
			<path class="st2" d="M13.3,16C13.3,16,13.2,16,13.3,16C13.2,16,13.2,16,13.3,16C13.2,16,13.3,16,13.3,16z"/>
			<path class="st2" d="M13.2,16C13.1,16,13.1,16,13.2,16c-0.1,0.1-0.1,0.1-0.1,0.1l0,0c0,0,0,0,0,0c0,0,0,0,0,0c0,0,0,0,0,0
				c0,0,0,0,0,0l0,0C13,16.1,13.1,16.1,13.2,16C13.1,16.1,13.1,16.1,13.2,16c0.1,0.1,0.1,0.1,0.1,0C13.3,16,13.2,16,13.2,16
				C13.2,16,13.2,16,13.2,16L13.2,16z"/>
			<path class="st2" d="M13.3,16C13.3,16,13.3,16,13.3,16C13.3,16,13.3,16,13.3,16C13.2,16,13.2,16,13.3,16C13.2,16,13.3,16,13.3,16
				C13.3,16,13.3,16,13.3,16L13.3,16L13.3,16z"/>
			<path class="st2" d="M13.3,16C13.3,16,13.3,16,13.3,16C13.3,16,13.3,16,13.3,16z"/>
			<path class="st2" d="M13.3,16C13.3,16,13.3,16,13.3,16C13.3,16,13.3,16,13.3,16C13.3,16,13.2,16,13.3,16C13.3,16,13.3,16,13.3,16
				L13.3,16z"/>
			<path class="st2" d="M13.5,16C13.4,16,13.4,16,13.5,16C13.4,16,13.4,15.9,13.5,16L13.5,16C13.4,15.9,13.4,15.9,13.5,16
				C13.4,15.9,13.4,15.9,13.5,16C13.4,15.9,13.4,15.9,13.5,16C13.4,15.9,13.4,15.9,13.5,16L13.5,16C13.4,15.9,13.4,16,13.5,16
				C13.4,16,13.4,16,13.5,16C13.4,16,13.4,16.1,13.5,16C13.4,16.1,13.4,16.1,13.5,16C13.5,16.1,13.5,16,13.5,16L13.5,16z"/>
			<path class="st2" d="M13.4,16.1C13.4,16.1,13.4,16.1,13.4,16.1L13.4,16.1C13.4,16.1,13.4,16.1,13.4,16.1
				C13.4,16.1,13.4,16.1,13.4,16.1C13.4,16.1,13.4,16.1,13.4,16.1z"/>
			<path class="st2" d="M13.4,16.1C13.4,16.1,13.4,16.1,13.4,16.1C13.4,16.1,13.4,16.1,13.4,16.1C13.4,16.1,13.4,16.1,13.4,16.1z"/>
			<path class="st2" d="M13.4,16.1C13.4,16.1,13.4,16.1,13.4,16.1C13.4,16.1,13.4,16.1,13.4,16.1C13.4,16.1,13.4,16.1,13.4,16.1
				C13.4,16.1,13.4,16.1,13.4,16.1C13.4,16.1,13.4,16.1,13.4,16.1C13.4,16.1,13.4,16.1,13.4,16.1L13.4,16.1z"/>
			<path class="st2" d="M13.4,16.1C13.4,16.1,13.4,16.1,13.4,16.1c-0.1,0-0.1,0-0.1,0c0,0,0,0,0,0l0,0c0,0,0,0,0,0c0,0,0,0,0,0
				c0,0,0,0,0,0c0,0,0,0,0,0l0,0c0,0,0,0,0,0C13.3,16.1,13.3,16.2,13.4,16.1C13.4,16.2,13.4,16.2,13.4,16.1L13.4,16.1
				C13.4,16.1,13.4,16.1,13.4,16.1C13.4,16.1,13.4,16.1,13.4,16.1L13.4,16.1z"/>
			<path class="st2" d="M13.4,16.1C13.4,16.1,13.4,16.1,13.4,16.1C13.4,16.1,13.4,16.1,13.4,16.1C13.4,16.1,13.4,16.1,13.4,16.1
				C13.4,16.1,13.4,16.1,13.4,16.1z"/>
			<path class="st2" d="M13.4,16.1C13.4,16.1,13.4,16.1,13.4,16.1C13.4,16.1,13.4,16.1,13.4,16.1z"/>
		</g>
	</g>
</g>
</svg>
