<?xml version="1.0" encoding="UTF-8"?>
<svg id="Layer_2" data-name="Layer 2" xmlns="http://www.w3.org/2000/svg" xmlns:xlink="http://www.w3.org/1999/xlink" viewBox="0 0 433.74 560.73">
  <defs>
    <style>
      .cls-1 {
        fill: none;
        stroke: url(#linear-gradient);
        stroke-width: 5px;
      }
    </style>
    <linearGradient id="linear-gradient" x1="382.62" y1="412.42" x2="240.31" y2="105.1" gradientTransform="translate(-90.5 446.62) scale(1 -1)" gradientUnits="userSpaceOnUse">
      <stop offset="0" stop-color="#497fdb"/>
      <stop offset="1" stop-color="#fff" stop-opacity="0"/>
    </linearGradient>
  </defs>
  <g id="Layer_1-2" data-name="Layer 1">
    <path class="cls-1" d="M2.75,358.46v24.36c0,14.56,9.23,26.36,20.62,26.36H57.52c16.04,0,29.04,16.62,29.04,37.12s-13.01,37.12-29.04,37.12H23.37c-11.39,0-20.62,11.8-20.62,26.35v22.1c0,14.55,9.23,26.35,20.62,26.35M2.75,358.46l2.5,.08s0-.03,0-.04m-2.5-.04c.48-14.12,9.57-25.24,20.62-25.23l-20.62,25.23Zm2.5,.04v24.32c0,13.79,8.65,23.86,18.12,23.86H57.52c17.96,0,31.54,18.35,31.54,39.62s-13.59,39.62-31.54,39.62H23.37c-9.48,0-18.12,10.08-18.12,23.85v22.1c0,13.78,8.65,23.85,18.12,23.85h.03c20.39,.21,52.28,.26,84.52,.32,11.91,.02,23.87,.04,35.31,.07,21.2,.05,40.64,.13,54.73,.29,7.04,.08,12.76,.17,16.69,.3,1.96,.06,3.51,.13,4.57,.21,.52,.04,.99,.08,1.35,.14,.09,.02,.25,.04,.44,.09,97.68-.4,183.58-84.84,208.58-206.82,1.39-7.32,.05-14.99-3.54-20.79-3.58-5.78-8.86-8.86-14.17-8.82h-33.95c-8.6,0-16.67-4.36-22.51-11.83-5.83-7.45-9.04-17.46-9.04-27.79v-.06c.5-20.84,13.97-38.44,31.55-38.43M5.25,358.51c.47-13.32,8.94-22.78,18.12-22.77H58.38m-53.13,22.77l53.13-22.77m319.57-93.12h35.05c5.31,.04,10.59-3.04,14.17-8.82m0,0c3.58-5.79,4.93-13.48,3.53-20.8M58.38,335.74c6.23,.14,11.4-4.55,13.49-10.95,2.1-6.41,.97-13.86-3.06-18.88,0,0-.01-.01-.02-.02L10.71,230.83c-3.47-4.5-5.47-10.66-5.46-17.18h0v-39.67c0-6.49,2.03-12.64,5.5-17.09,3.48-4.44,8.04-6.76,12.62-6.76H57.52c17.95,0,31.54-18.34,31.54-39.61s-13.59-39.62-31.54-39.62H23.39c-9.53-.14-18.14-10.32-18.14-24.14V26.88c-.11-6.59,1.86-12.87,5.37-17.44M23.37,2.5c-4.64,0-9.27,2.39-12.76,6.94L23.37,2.5Zm0,0H221.17c98.89,.17,185.63,86.57,209.54,210.49"/>
  </g>
</svg>