<svg width="204" height="123" viewBox="0 0 204 123" fill="none" xmlns="http://www.w3.org/2000/svg">
<path d="M81.8646 52.8886C81.8646 50.0952 83.6236 47.731 86.085 46.8171C87.0247 46.4675 87.6788 45.616 87.6788 44.6121V41.4829C87.6788 27.931 81.2071 15.9057 71.2104 8.33881C70.3911 7.7192 69.2276 7.82997 68.5013 8.56035L26.573 50.7217C24.1771 53.1309 20.2734 53.5913 17.6538 51.4348C14.6382 48.9563 14.473 44.4771 17.1581 41.7806L55.4271 3.28845C56.2119 2.49922 55.8402 1.11461 54.7558 0.88615C52.0673 0.31846 49.2859 0 46.4287 0H3.2887C1.9083 0 0.792969 1.125 0.792969 2.5096V95.7319C0.792969 97.1927 2.54859 97.923 3.57786 96.8915L53.7713 46.4156C56.1672 44.0064 60.0708 43.546 62.6905 45.7025C65.706 48.181 65.8713 52.6602 63.1862 55.3567L21.5402 97.2342C20.5936 98.1861 21.2648 99.813 22.6039 99.813H46.167C68.0641 99.813 85.9576 82.7547 87.5204 61.1374C87.5927 60.1578 86.9455 59.289 86.0333 58.9394C83.5961 58.0117 81.8611 55.6648 81.8611 52.8886H81.8646Z" fill="white"/>
<path d="M116.707 21.4616C116.707 24.3693 114.387 26.7023 111.495 26.7023H103.254V7.4978H110.865C113.646 7.4978 115.884 9.77549 115.884 12.5447C115.884 14.4105 114.903 15.9474 113.43 16.7435C115.34 17.4843 116.703 19.267 116.703 21.4616H116.707ZM104.703 8.86857V16.2208H110.868C112.834 16.2208 114.442 14.5732 114.442 12.5447C114.442 10.5163 112.831 8.86857 110.868 8.86857H104.703ZM115.261 21.4616C115.261 19.3224 113.571 17.5916 111.495 17.5916H104.703V25.3281H111.495C113.567 25.3281 115.261 23.6008 115.261 21.4581V21.4616Z" fill="white"/>
<path d="M131.524 25.3316V26.7023H120.529V7.4978H131.387V8.86857H121.975V16.3316H130.705V17.7024H121.975V25.3281H131.524V25.3316Z" fill="white"/>
<path d="M146.611 21.8181H137.034L135.179 26.7023H133.65L141.072 7.4978H142.601L149.995 26.7023H148.466L146.611 21.8181ZM146.095 20.4474L141.84 9.28049L137.585 20.4474H146.098H146.095Z" fill="white"/>
<path d="M152.236 20.2812V7.4978H153.682V20.2812C153.682 23.407 155.62 25.605 159.221 25.605C162.822 25.605 164.787 23.4104 164.787 20.2812V7.4978H166.233V20.2812C166.233 24.3416 163.424 27.0035 159.221 27.0035C155.018 27.0035 152.236 24.3416 152.236 20.2812Z" fill="white"/>
<path d="M182.711 8.86857H176.707V26.7023H175.234V8.86857H169.23V7.4978H182.707V8.86857H182.711Z" fill="white"/>
<path d="M183.803 17.1C183.803 11.6134 188.14 7.19653 193.651 7.19653C199.163 7.19653 203.5 11.6134 203.5 17.1C203.5 22.5865 199.163 27.0034 193.651 27.0034C188.14 27.0034 183.803 22.5865 183.803 17.1ZM202.054 17.1C202.054 12.3819 198.371 8.59499 193.651 8.59499C188.932 8.59499 185.249 12.3819 185.249 17.1C185.249 21.818 188.932 25.6049 193.651 25.6049C198.371 25.6049 202.054 21.818 202.054 17.1Z" fill="white"/>
<path d="M119.855 50.0259C119.855 55.322 116.117 59.6281 110.854 59.6281H103.68V40.4236H110.854C116.12 40.4236 119.855 44.7297 119.855 50.0259ZM118.437 50.0259C118.437 45.4705 115.353 41.7943 110.854 41.7943H105.125V58.2539H110.854C115.356 58.2539 118.437 54.5778 118.437 50.0224V50.0259Z" fill="white"/>
<path d="M135.79 58.2539V59.6247H124.795V40.4202H135.652V41.7909H126.241V49.254H134.971V50.6247H126.241V58.2505H135.79V58.2539Z" fill="white"/>
<path d="M139.48 55.4018L140.736 54.661C141.391 56.9664 143.329 58.531 146.465 58.531C149.601 58.531 151.267 56.8833 151.267 54.6887C151.267 52.3833 149.246 51.5076 146.327 50.5729C143.136 49.531 140.272 48.6241 140.272 45.2768C140.272 42.1234 142.809 40.1191 146.055 40.1191C149.301 40.1191 151.267 41.9295 152.193 44.1518L150.964 44.8372C150.255 43.1099 148.781 41.5176 146.052 41.5176C143.322 41.5176 141.742 43.0822 141.742 45.2214C141.742 47.5268 143.68 48.2399 146.406 49.1433C149.79 50.2683 152.737 51.3379 152.737 54.6575C152.737 57.9771 150.255 59.926 146.461 59.926C142.888 59.926 140.351 58.1156 139.477 55.3983L139.48 55.4018Z" fill="white"/>
<path d="M158.875 40.4236V59.6281H157.43V40.4236H158.875Z" fill="white"/>
<path d="M183.08 51.4244C183.08 56.0594 179.562 59.9294 173.858 59.9294C168.154 59.9294 163.816 55.5125 163.816 50.026C163.816 44.5395 167.937 40.1226 173.748 40.1226C177.293 40.1226 180.378 41.9883 181.961 44.7575L180.681 45.526C179.424 43.1099 176.753 41.521 173.751 41.521C168.732 41.521 165.266 45.3079 165.266 50.026C165.266 54.744 168.732 58.5309 173.861 58.5309C178.498 58.5309 181.311 55.651 181.61 52.0544H173.507V50.6837H183.083V51.4244H183.08Z" fill="white"/>
<path d="M201.987 40.4236V59.6281H200.703L189.436 43.1132V59.6281H187.99V40.4236H189.247L200.541 56.9385V40.4236H201.987Z" fill="white"/>
<path d="M102.207 88.3278L103.464 87.587C104.118 89.8924 106.056 91.457 109.192 91.457C112.328 91.457 113.994 89.8093 113.994 87.6147C113.994 85.3093 111.973 84.4336 109.057 83.499C105.866 82.457 103.002 81.5501 103.002 78.2028C103.002 75.0494 105.539 73.0452 108.785 73.0452C112.032 73.0452 113.997 74.8555 114.923 77.0778L113.694 77.7632C112.985 76.0359 111.512 74.4436 108.782 74.4436C106.052 74.4436 104.472 76.0082 104.472 78.1474C104.472 80.4528 106.41 81.1659 109.137 82.0694C112.52 83.1944 115.467 84.264 115.467 87.5836C115.467 90.9032 112.985 92.852 109.192 92.852C105.618 92.852 103.081 91.0416 102.207 88.3243V88.3278Z" fill="white"/>
<path d="M131.562 74.7206H125.559V92.5544H124.086V74.7206H118.082V73.3499H131.559V74.7206H131.562Z" fill="white"/>
<path d="M135.793 86.1333V73.3499H137.239V86.1333C137.239 89.259 139.177 91.4571 142.778 91.4571C146.378 91.4571 148.344 89.2625 148.344 86.1333V73.3499H149.79V86.1333C149.79 90.1936 146.981 92.8555 142.778 92.8555C138.574 92.8555 135.793 90.1936 135.793 86.1333Z" fill="white"/>
<path d="M171.947 82.9487C171.947 88.2448 168.209 92.551 162.945 92.551H155.771V73.3464H162.945C168.212 73.3464 171.947 77.6526 171.947 82.9487ZM170.529 82.9487C170.529 78.3933 167.445 74.7172 162.945 74.7172H157.217V91.1767H162.945C167.448 91.1767 170.529 87.5006 170.529 82.9452V82.9487Z" fill="white"/>
<path d="M178.553 73.3464V92.551H177.107V73.3464H178.553Z" fill="white"/>
<path d="M183.709 82.9486C183.709 77.4621 188.046 73.0452 193.558 73.0452C199.069 73.0452 203.406 77.4621 203.406 82.9486C203.406 88.4351 199.069 92.852 193.558 92.852C188.046 92.852 183.709 88.4351 183.709 82.9486ZM201.961 82.9486C201.961 78.2305 198.277 74.4436 193.558 74.4436C188.838 74.4436 185.155 78.2305 185.155 82.9486C185.155 87.6666 188.838 91.4536 193.558 91.4536C198.277 91.4536 201.961 87.6666 201.961 82.9486Z" fill="white"/>
<path d="M0.498047 121.091V112.15H3.13147C3.90257 112.15 4.59449 112.316 5.20723 112.652C5.81998 112.984 6.29847 113.465 6.63926 114.085C6.9835 114.708 7.15218 115.414 7.15218 116.21V117.034C7.15218 117.834 6.9835 118.54 6.64271 119.159C6.30191 119.779 5.82342 120.253 5.20379 120.589C4.58416 120.925 3.87503 121.094 3.07295 121.094H0.498047V121.091ZM1.29324 112.787V120.451H3.07984C4.07124 120.451 4.86988 120.139 5.46885 119.513C6.06783 118.889 6.36731 118.041 6.36731 116.979V116.193C6.36731 115.165 6.07127 114.341 5.47918 113.721C4.88709 113.102 4.10911 112.79 3.1418 112.787H1.29324Z" fill="white"/>
<path d="M10.0527 117.671C10.0527 117.03 10.1835 116.456 10.4452 115.943C10.7068 115.431 11.0751 115.033 11.5536 114.749C12.0287 114.465 12.5691 114.323 13.175 114.323C14.1079 114.323 14.8617 114.635 15.4401 115.255C16.0184 115.874 16.3075 116.698 16.3075 117.719V117.872C16.3075 118.515 16.1767 119.093 15.9151 119.606C15.6535 120.122 15.2852 120.516 14.8136 120.793C14.3385 121.07 13.798 121.212 13.1887 121.212C12.2627 121.212 11.5089 120.9 10.9271 120.281C10.3453 119.661 10.0562 118.837 10.0562 117.816V117.667L10.0527 117.671ZM10.8307 117.875C10.8307 118.671 11.0476 119.322 11.4813 119.831C11.9151 120.34 12.4831 120.596 13.1853 120.596C13.8876 120.596 14.4521 120.34 14.8824 119.831C15.3161 119.322 15.533 118.647 15.533 117.813V117.671C15.533 117.162 15.4332 116.698 15.237 116.276C15.0373 115.853 14.7585 115.528 14.4005 115.296C14.0425 115.064 13.6328 114.95 13.1715 114.95C12.4796 114.95 11.9185 115.206 11.4813 115.722C11.0441 116.234 10.8273 116.909 10.8273 117.74V117.875H10.8307Z" fill="white"/>
<path d="M22.1004 121.216C21.5049 121.216 20.9678 121.077 20.4859 120.797C20.004 120.52 19.6288 120.129 19.3637 119.634C19.0952 119.135 18.9609 118.578 18.9609 117.958V117.695C18.9609 117.055 19.0917 116.48 19.3534 115.968C19.615 115.456 19.9764 115.054 20.4446 114.76C20.9128 114.466 21.4154 114.32 21.9593 114.32C22.8095 114.32 23.4842 114.597 23.9799 115.148C24.4756 115.698 24.7269 116.449 24.7269 117.405V117.816H19.732V117.958C19.732 118.713 19.9592 119.34 20.4136 119.841C20.868 120.343 21.4429 120.593 22.1314 120.593C22.5445 120.593 22.9128 120.52 23.2295 120.378C23.5462 120.236 23.8354 120.004 24.0935 119.689L24.5789 120.039C24.0109 120.821 23.1847 121.212 22.1004 121.212V121.216ZM21.9593 114.95C21.3775 114.95 20.8852 115.155 20.4859 115.56C20.0866 115.965 19.8456 116.508 19.7561 117.193H23.9558V117.114C23.9352 116.477 23.7424 115.954 23.381 115.553C23.0195 115.151 22.5445 114.95 21.9558 114.95H21.9593Z" fill="white"/>
<path d="M30.9605 115.075C30.7952 115.047 30.6231 115.033 30.4372 115.033C29.9553 115.033 29.5456 115.161 29.2117 115.417C28.8778 115.673 28.6403 116.044 28.4957 116.532V121.094H27.7246V114.448H28.4819L28.4957 115.504C28.9053 114.718 29.5628 114.323 30.4682 114.323C30.6851 114.323 30.8537 114.351 30.9777 114.403L30.957 115.071L30.9605 115.075Z" fill="white"/>
<path d="M37.8662 119.402C37.8662 119.038 37.7113 118.744 37.4049 118.522C37.0951 118.301 36.6304 118.128 36.0108 118.003C35.3911 117.878 34.9092 117.737 34.565 117.574C34.2207 117.411 33.966 117.214 33.8008 116.982C33.6355 116.75 33.5529 116.466 33.5529 116.134C33.5529 115.611 33.7835 115.178 34.2448 114.836C34.7061 114.493 35.2982 114.323 36.0177 114.323C36.7991 114.323 37.4256 114.507 37.8972 114.874C38.3688 115.241 38.6063 115.718 38.6063 116.307H37.8284C37.8284 115.919 37.6562 115.594 37.3154 115.338C36.9712 115.082 36.5409 114.95 36.0177 114.95C35.4944 114.95 35.0985 115.057 34.7922 115.272C34.4824 115.487 34.3309 115.767 34.3309 116.11C34.3309 116.452 34.4583 116.698 34.7164 116.882C34.9712 117.065 35.4393 117.231 36.1209 117.383C36.7991 117.536 37.3085 117.695 37.6493 117.868C37.9867 118.041 38.238 118.245 38.4032 118.488C38.5685 118.73 38.6476 119.021 38.6476 119.367C38.6476 119.928 38.4101 120.378 37.9316 120.713C37.4531 121.049 36.8335 121.215 36.0658 121.215C35.25 121.215 34.5891 121.028 34.083 120.655C33.577 120.281 33.3223 119.807 33.3223 119.232H34.1002C34.1312 119.661 34.3206 119.997 34.6717 120.236C35.0228 120.475 35.4875 120.596 36.0658 120.596C36.6063 120.596 37.04 120.485 37.374 120.257C37.7079 120.032 37.8731 119.748 37.8731 119.402H37.8662Z" fill="white"/>
<path d="M46.906 122.749H46.252V112.15H46.906V122.749Z" fill="white"/>
<path d="M55.9202 121.091H55.125V112.15H55.9202V121.091Z" fill="white"/>
<path d="M60.5179 114.445L60.5455 115.58C60.8071 115.172 61.1376 114.857 61.53 114.642C61.9224 114.428 62.3562 114.32 62.8312 114.32C63.5816 114.32 64.1393 114.521 64.5076 114.923C64.876 115.324 65.0584 115.926 65.0653 116.73V121.091H64.2942V116.723C64.2908 116.131 64.1565 115.688 63.8949 115.397C63.6333 115.106 63.2167 114.961 62.6419 114.961C62.1634 114.961 61.74 115.103 61.3716 115.386C61.0033 115.67 60.7314 116.055 60.5523 116.539V121.091H59.7812V114.445H60.5179Z" fill="white"/>
<path d="M69.2855 114.445L69.313 115.58C69.5747 115.172 69.9051 114.857 70.2976 114.642C70.69 114.428 71.1237 114.32 71.5988 114.32C72.3492 114.32 72.9069 114.521 73.2752 114.923C73.6436 115.324 73.826 115.926 73.8329 116.73V121.091H73.0618V116.723C73.0584 116.131 72.9241 115.688 72.6625 115.397C72.4009 115.106 71.9843 114.961 71.4094 114.961C70.931 114.961 70.5075 115.103 70.1392 115.386C69.7709 115.67 69.4989 116.055 69.3199 116.539V121.091H68.5488V114.445H69.2855Z" fill="white"/>
<path d="M76.8926 117.671C76.8926 117.03 77.0234 116.456 77.285 115.943C77.5466 115.431 77.915 115.033 78.3935 114.749C78.8685 114.465 79.409 114.323 80.0148 114.323C80.9477 114.323 81.7016 114.635 82.2799 115.255C82.8582 115.874 83.1474 116.698 83.1474 117.719V117.872C83.1474 118.515 83.0166 119.093 82.755 119.606C82.4933 120.122 82.125 120.516 81.6534 120.793C81.1783 121.07 80.6379 121.212 80.0286 121.212C79.1026 121.212 78.3487 120.9 77.7669 120.281C77.1852 119.661 76.896 118.837 76.896 117.816V117.667L76.8926 117.671ZM77.6706 117.875C77.6706 118.671 77.8874 119.322 78.3212 119.831C78.7549 120.34 79.3229 120.596 80.0252 120.596C80.7274 120.596 81.2919 120.34 81.7222 119.831C82.156 119.322 82.3729 118.647 82.3729 117.813V117.671C82.3729 117.162 82.273 116.698 82.0768 116.276C81.8772 115.853 81.5983 115.528 81.2403 115.296C80.8823 115.064 80.4727 114.95 80.0114 114.95C79.3195 114.95 78.7584 115.206 78.3212 115.722C77.884 116.234 77.6671 116.909 77.6671 117.74V117.875H77.6706Z" fill="white"/>
<path d="M88.3148 120.08L90.4456 114.448H91.2408L88.6281 121.095H88.0015L85.375 114.448H86.1702L88.3182 120.08H88.3148Z" fill="white"/>
<path d="M98.3186 121.091C98.2394 120.883 98.1912 120.572 98.1706 120.163C97.8986 120.499 97.5509 120.759 97.131 120.939C96.711 121.119 96.2635 121.212 95.7953 121.212C95.124 121.212 94.5767 121.036 94.1602 120.679C93.7437 120.323 93.5371 119.873 93.5371 119.329C93.5371 118.682 93.8194 118.17 94.3874 117.792C94.9554 117.415 95.7437 117.228 96.7592 117.228H98.1637V116.473C98.1637 115.999 98.0088 115.625 97.7024 115.352C97.3926 115.078 96.9451 114.943 96.353 114.943C95.8125 114.943 95.3685 115.075 95.0139 115.335C94.6593 115.598 94.4838 115.913 94.4838 116.28L93.7058 116.273C93.7058 115.746 93.964 115.286 94.4838 114.902C95.0001 114.514 95.637 114.32 96.3943 114.32C97.1516 114.32 97.7919 114.507 98.2429 114.878C98.6938 115.248 98.9244 115.764 98.9382 116.428V119.571C98.9382 120.215 99.0105 120.696 99.1516 121.015V121.088H98.322L98.3186 121.091ZM95.8848 120.561C96.4012 120.561 96.8659 120.444 97.2721 120.205C97.6783 119.966 97.9778 119.651 98.1602 119.253V117.792H96.7764C96.0053 117.799 95.3994 117.934 94.9657 118.194C94.5285 118.453 94.3116 118.81 94.3116 119.267C94.3116 119.641 94.4562 119.949 94.7488 120.195C95.0414 120.44 95.4201 120.561 95.8848 120.561Z" fill="white"/>
<path d="M103.686 112.745V114.445H105.135V115.047H103.686V119.481C103.686 119.852 103.755 120.125 103.896 120.305C104.037 120.485 104.271 120.575 104.598 120.575C104.729 120.575 104.936 120.555 105.225 120.513L105.256 121.112C105.053 121.181 104.777 121.216 104.426 121.216C103.896 121.216 103.511 121.07 103.266 120.776C103.022 120.482 102.905 120.053 102.905 119.481V115.047H101.617V114.445H102.905V112.745H103.683H103.686Z" fill="white"/>
<path d="M107.668 117.671C107.668 117.03 107.799 116.456 108.06 115.943C108.322 115.431 108.69 115.033 109.169 114.749C109.644 114.465 110.184 114.323 110.79 114.323C111.723 114.323 112.477 114.635 113.055 115.255C113.634 115.874 113.923 116.698 113.923 117.719V117.872C113.923 118.515 113.792 119.093 113.53 119.606C113.269 120.122 112.9 120.516 112.429 120.793C111.954 121.07 111.413 121.212 110.804 121.212C109.878 121.212 109.124 120.9 108.542 120.281C107.961 119.661 107.671 118.837 107.671 117.816V117.667L107.668 117.671ZM108.446 117.875C108.446 118.671 108.663 119.322 109.097 119.831C109.53 120.34 110.098 120.596 110.801 120.596C111.503 120.596 112.064 120.34 112.498 119.831C112.931 119.322 113.148 118.647 113.148 117.813V117.671C113.148 117.162 113.048 116.698 112.849 116.276C112.653 115.853 112.374 115.528 112.016 115.296C111.658 115.064 111.248 114.95 110.787 114.95C110.095 114.95 109.534 115.206 109.097 115.722C108.659 116.234 108.443 116.909 108.443 117.74V117.875H108.446Z" fill="white"/>
<path d="M120.24 115.075C120.075 115.047 119.902 115.033 119.716 115.033C119.235 115.033 118.825 115.161 118.491 115.417C118.157 115.673 117.92 116.044 117.775 116.532V121.094H117.004V114.448H117.761L117.775 115.504C118.185 114.718 118.842 114.323 119.747 114.323C119.964 114.323 120.133 114.351 120.26 114.403L120.24 115.071V115.075Z" fill="white"/>
<path d="M127.147 119.402C127.147 119.038 126.992 118.744 126.682 118.522C126.372 118.301 125.908 118.128 125.288 118.003C124.665 117.878 124.183 117.737 123.842 117.574C123.502 117.411 123.243 117.214 123.078 116.982C122.913 116.75 122.83 116.466 122.83 116.134C122.83 115.611 123.061 115.178 123.522 114.836C123.983 114.493 124.576 114.323 125.295 114.323C126.076 114.323 126.703 114.507 127.175 114.874C127.646 115.241 127.884 115.718 127.884 116.307H127.106C127.106 115.919 126.934 115.594 126.589 115.338C126.245 115.082 125.815 114.95 125.292 114.95C124.768 114.95 124.372 115.057 124.066 115.272C123.756 115.487 123.605 115.767 123.605 116.11C123.605 116.452 123.732 116.698 123.99 116.882C124.249 117.065 124.717 117.231 125.395 117.383C126.073 117.536 126.582 117.695 126.923 117.868C127.261 118.041 127.515 118.245 127.677 118.488C127.842 118.73 127.925 119.021 127.925 119.367C127.925 119.928 127.687 120.378 127.209 120.713C126.734 121.049 126.111 121.215 125.343 121.215C124.527 121.215 123.866 121.028 123.36 120.655C122.854 120.281 122.6 119.807 122.6 119.232H123.378C123.409 119.661 123.598 119.997 123.949 120.236C124.3 120.475 124.765 120.596 125.343 120.596C125.884 120.596 126.317 120.485 126.651 120.257C126.985 120.032 127.15 119.748 127.15 119.402H127.147Z" fill="white"/>
<path d="M136.189 122.749H135.535V112.15H136.189V122.749Z" fill="white"/>
<path d="M145.034 120.454H149.689V121.094H144.232V112.153H145.034V120.458V120.454Z" fill="white"/>
<path d="M155.234 121.216C154.638 121.216 154.101 121.077 153.619 120.797C153.137 120.52 152.765 120.129 152.497 119.634C152.228 119.135 152.098 118.578 152.098 117.958V117.695C152.098 117.055 152.228 116.48 152.49 115.968C152.752 115.456 153.113 115.054 153.581 114.76C154.046 114.466 154.552 114.32 155.096 114.32C155.946 114.32 156.621 114.597 157.117 115.148C157.616 115.698 157.864 116.449 157.864 117.405V117.816H152.869V117.958C152.869 118.713 153.096 119.34 153.55 119.841C154.005 120.343 154.58 120.593 155.268 120.593C155.681 120.593 156.05 120.52 156.366 120.378C156.683 120.236 156.972 120.004 157.23 119.689L157.716 120.039C157.148 120.821 156.321 121.212 155.237 121.212L155.234 121.216ZM155.093 114.95C154.511 114.95 154.019 115.155 153.619 115.56C153.22 115.965 152.979 116.508 152.893 117.193H157.093V117.114C157.072 116.477 156.879 115.954 156.518 115.553C156.156 115.151 155.681 114.95 155.093 114.95Z" fill="white"/>
<path d="M165.274 121.091C165.194 120.883 165.146 120.572 165.126 120.163C164.854 120.499 164.506 120.759 164.086 120.939C163.666 121.122 163.219 121.212 162.75 121.212C162.076 121.212 161.532 121.036 161.115 120.679C160.699 120.323 160.492 119.873 160.492 119.329C160.492 118.682 160.774 118.17 161.342 117.792C161.91 117.415 162.699 117.228 163.714 117.228H165.119V116.473C165.119 115.999 164.964 115.625 164.654 115.352C164.344 115.078 163.897 114.943 163.305 114.943C162.764 114.943 162.32 115.075 161.966 115.335C161.611 115.594 161.435 115.913 161.435 116.28L160.657 116.273C160.657 115.746 160.916 115.286 161.435 114.902C161.952 114.514 162.589 114.32 163.346 114.32C164.103 114.32 164.744 114.507 165.194 114.878C165.645 115.248 165.876 115.764 165.89 116.428V119.571C165.89 120.215 165.962 120.696 166.103 121.015V121.088H165.274V121.091ZM162.84 120.561C163.356 120.561 163.821 120.444 164.227 120.205C164.633 119.966 164.933 119.651 165.115 119.253V117.792H163.731C162.96 117.799 162.355 117.934 161.921 118.194C161.484 118.453 161.267 118.81 161.267 119.267C161.267 119.641 161.411 119.949 161.704 120.195C161.997 120.44 162.375 120.561 162.84 120.561Z" fill="white"/>
<path d="M172.675 115.075C172.51 115.047 172.338 115.033 172.152 115.033C171.67 115.033 171.26 115.161 170.927 115.417C170.593 115.673 170.355 116.044 170.211 116.532V121.094H169.439V114.448H170.197L170.211 115.504C170.62 114.718 171.278 114.323 172.183 114.323C172.4 114.323 172.569 114.351 172.696 114.403L172.675 115.071V115.075Z" fill="white"/>
<path d="M176.125 114.445L176.153 115.58C176.415 115.172 176.745 114.857 177.137 114.642C177.53 114.428 177.964 114.32 178.439 114.32C179.189 114.32 179.747 114.521 180.115 114.923C180.483 115.324 180.666 115.926 180.673 116.73V121.091H179.902V116.723C179.898 116.131 179.764 115.688 179.502 115.397C179.241 115.106 178.824 114.961 178.249 114.961C177.771 114.961 177.347 115.103 176.979 115.386C176.611 115.67 176.335 116.055 176.16 116.539V121.091H175.389V114.445H176.125Z" fill="white"/>
<path d="M186.865 121.216C186.269 121.216 185.732 121.077 185.25 120.797C184.768 120.52 184.396 120.129 184.128 119.634C183.859 119.135 183.729 118.578 183.729 117.958V117.695C183.729 117.055 183.859 116.48 184.121 115.968C184.383 115.456 184.744 115.054 185.212 114.76C185.677 114.466 186.183 114.32 186.727 114.32C187.577 114.32 188.252 114.597 188.747 115.148C189.247 115.698 189.495 116.449 189.495 117.405V117.816H184.5V117.958C184.5 118.713 184.727 119.34 185.181 119.841C185.636 120.343 186.21 120.593 186.899 120.593C187.312 120.593 187.68 120.52 187.997 120.378C188.314 120.236 188.603 120.004 188.861 119.689L189.346 120.039C188.778 120.821 187.952 121.212 186.868 121.212L186.865 121.216ZM186.723 114.95C186.142 114.95 185.649 115.155 185.25 115.56C184.851 115.965 184.61 116.508 184.524 117.193H188.723V117.114C188.703 116.477 188.51 115.954 188.149 115.553C187.787 115.151 187.312 114.95 186.723 114.95Z" fill="white"/>
<path d="M195.726 115.075C195.561 115.047 195.389 115.033 195.203 115.033C194.721 115.033 194.311 115.161 193.977 115.417C193.643 115.673 193.406 116.044 193.261 116.532V121.094H192.49V114.448H193.248L193.261 115.504C193.671 114.718 194.328 114.323 195.234 114.323C195.451 114.323 195.619 114.351 195.747 114.403L195.726 115.071V115.075Z" fill="white"/>
<path d="M202.629 119.402C202.629 119.038 202.475 118.744 202.165 118.522C201.855 118.301 201.39 118.128 200.771 118.003C200.147 117.878 199.666 117.737 199.325 117.574C198.981 117.411 198.726 117.214 198.561 116.982C198.395 116.75 198.313 116.466 198.313 116.134C198.313 115.611 198.543 115.178 199.005 114.836C199.466 114.493 200.058 114.323 200.777 114.323C201.559 114.323 202.185 114.507 202.657 114.874C203.129 115.241 203.366 115.718 203.366 116.307H202.588C202.588 115.919 202.416 115.594 202.072 115.338C201.728 115.082 201.297 114.95 200.774 114.95C200.251 114.95 199.855 115.057 199.548 115.272C199.239 115.487 199.087 115.767 199.087 116.11C199.087 116.452 199.215 116.698 199.473 116.882C199.731 117.065 200.199 117.231 200.877 117.383C201.555 117.536 202.065 117.695 202.406 117.868C202.743 118.041 202.998 118.245 203.16 118.488C203.325 118.73 203.407 119.021 203.407 119.367C203.407 119.928 203.17 120.378 202.691 120.713C202.216 121.049 201.593 121.215 200.826 121.215C200.01 121.215 199.349 121.028 198.843 120.655C198.337 120.281 198.082 119.807 198.082 119.232H198.86C198.891 119.661 199.08 119.997 199.431 120.236C199.783 120.475 200.247 120.596 200.826 120.596C201.366 120.596 201.8 120.485 202.134 120.257C202.468 120.032 202.633 119.748 202.633 119.402H202.629Z" fill="white"/>
</svg>
