<svg width="118" height="84" viewBox="0 0 118 84" fill="none" xmlns="http://www.w3.org/2000/svg">
<rect x="42.3105" width="59.2131" height="59.2131" rx="5" transform="rotate(45 42.3105 0)" fill="#2673E5" fill-opacity="0.1"/>
<g clip-path="url(#clip0_1503_27123)">
<path d="M90.4942 82H60.103C59.5621 82 59.1293 81.5672 59.1293 81.0263V76.4714C59.1293 76.2117 59.2267 75.9629 59.4106 75.779C59.5945 75.595 59.8434 75.4977 60.103 75.4977H65.1123V69.4389H40.8773C39.698 69.4389 38.5728 68.9737 37.7397 68.1406C36.9066 67.3075 36.4414 66.1823 36.4414 65.003V23.1976C36.4414 22.0507 36.8958 20.958 37.7073 20.1465C38.5187 19.3351 39.6114 18.8807 40.7583 18.8807H65.7939V11.8157C65.7831 11.4803 65.9346 11.1666 66.1943 10.9718L80.097 2.15417C80.4215 1.94861 80.8327 1.94861 81.1464 2.15417L95.0167 10.9718C95.298 11.1449 95.4711 11.4587 95.4711 11.7941C95.4711 11.8266 95.4711 11.859 95.4711 11.8807V18.8482H109.785C110.932 18.8482 112.024 19.3026 112.836 20.1141C113.647 20.9255 114.102 22.0183 114.102 23.1651V64.9922C114.102 66.1715 113.637 67.2967 112.803 68.1298C111.97 68.9628 110.845 69.4281 109.666 69.4281H85.4849V75.4868H90.4942C90.7539 75.4868 91.0027 75.5842 91.1866 75.7681C91.3706 75.9521 91.4679 76.2009 91.4679 76.4606V81.0155C91.4679 81.5564 91.0352 81.9892 90.4942 81.9892V82ZM61.0768 80.0525H89.5097V77.4559H61.0768V80.0525ZM67.0598 75.4977H83.5266V69.4389H67.0598V75.4977ZM84.5112 67.4806H109.72C110.38 67.4806 111.007 67.2101 111.473 66.7449C111.938 66.2797 112.198 65.6522 112.208 64.9922V62.3956H38.3889V64.9922C38.3889 65.6522 38.6593 66.2797 39.1246 66.7449C39.5898 67.2101 40.2173 67.4698 40.8773 67.4806H84.5112ZM49.0458 60.4048H112.208V23.1976C112.208 22.57 111.96 21.975 111.516 21.5314C111.072 21.0878 110.477 20.839 109.85 20.839H95.536V27.9256C95.536 28.2609 95.3737 28.5747 95.0924 28.7586L81.1572 37.5763C81.0599 37.6304 80.9517 37.6737 80.8435 37.6953H80.6379C80.5622 37.6953 80.4864 37.6953 80.4215 37.6953C80.3242 37.6737 80.2376 37.6412 80.1511 37.5871L66.2051 28.7586C65.9238 28.5747 65.7507 28.2609 65.7507 27.9256V20.839H49.0458V60.4048ZM38.3889 60.4048H47.0983V20.8281H40.7583C40.1308 20.8281 39.5357 21.077 39.0921 21.5206C38.6485 21.9642 38.3997 22.5592 38.3997 23.1867V60.4048H38.3889ZM81.6116 21.1852V34.9797L93.5128 27.3954V13.6009L81.6116 21.1852ZM67.7414 27.3954L79.6534 34.9797V21.1852L67.7414 13.6117V27.3846V27.3954ZM77.4462 17.4742L80.6379 19.4866L92.7013 11.8157L80.6379 4.12327L68.5637 11.7941L77.4462 17.4525V17.4742ZM103.228 57.6243H58.0257C57.4848 57.6243 57.052 57.1915 57.052 56.6506V52.5609C57.052 52.0308 57.4956 51.5872 58.0257 51.5872H103.228C103.769 51.5872 104.202 52.0308 104.202 52.5609V56.6722C104.191 57.2024 103.759 57.6243 103.228 57.6243ZM58.9995 55.6768H102.255V53.5455H58.9995V55.6768ZM42.7815 56.8129C41.851 56.8129 40.9963 56.3152 40.5311 55.5146C40.0658 54.7139 40.0658 53.7186 40.5311 52.9179C40.9963 52.1173 41.851 51.6196 42.7815 51.6196C43.7119 51.6196 44.5666 52.1173 45.0319 52.9179C45.4971 53.7186 45.4971 54.7139 45.0319 55.5146C44.5666 56.3152 43.7119 56.8129 42.7815 56.8129ZM42.7815 53.5455C42.4677 53.6104 42.2513 53.8809 42.2513 54.1946C42.2513 54.5084 42.4785 54.7789 42.7815 54.8438C42.9546 54.8438 43.1169 54.7897 43.2359 54.6598C43.3549 54.53 43.409 54.3677 43.3873 54.1946C43.3982 54.0215 43.3441 53.8592 43.2251 53.7294C43.106 53.6104 42.9438 53.5346 42.7706 53.5455H42.7815ZM42.7815 50.0292C41.851 50.0292 40.9963 49.5315 40.5311 48.7309C40.0658 47.9303 40.0658 46.9349 40.5311 46.1343C40.9963 45.3337 41.851 44.836 42.7815 44.836C43.7119 44.836 44.5666 45.3337 45.0319 46.1343C45.4971 46.9349 45.4971 47.9303 45.0319 48.7309C44.5666 49.5315 43.7119 50.0292 42.7815 50.0292ZM42.7815 46.7618C42.6084 46.7618 42.4353 46.8159 42.3162 46.9457C42.1972 47.0756 42.1323 47.2487 42.1431 47.4218C42.1323 47.5949 42.1864 47.7788 42.3162 47.8978C42.4461 48.0168 42.6192 48.0818 42.7923 48.0709C42.9654 48.0709 43.1277 48.0168 43.2467 47.887C43.3657 47.7572 43.4198 47.5949 43.3982 47.4218C43.4198 47.2487 43.3549 47.0756 43.2359 46.9457C43.1169 46.8159 42.9438 46.751 42.7706 46.7618H42.7815ZM78.1387 46.8267C77.879 46.8267 77.6302 46.7185 77.4462 46.5346C77.0676 46.1559 77.0676 45.5392 77.4462 45.1606L78.3334 44.2734C69.3535 43.8406 59.5513 40.3677 57.8418 34.9039C57.1818 32.7834 57.474 29.5268 62.6456 26.0755C63.0891 25.8374 63.6517 25.9673 63.933 26.4C64.2143 26.8328 64.117 27.3954 63.7167 27.7092C61.4122 29.2563 58.848 31.6149 59.6811 34.3522C60.9794 38.4743 69.1804 41.9148 78.236 42.3368L77.4246 41.5253C77.0459 41.1466 77.0459 40.5299 77.4246 40.1513C77.6085 39.9673 77.8574 39.8591 78.117 39.8591C78.3767 39.8591 78.6255 39.9673 78.8095 40.1513L81.2546 42.5964C81.4818 42.7803 81.6116 43.0508 81.6225 43.3429C81.6225 43.6351 81.4818 43.9164 81.2546 44.1111L78.8095 46.5562C78.6255 46.7294 78.3767 46.8267 78.117 46.8267H78.1387ZM84.641 44.1436C84.1001 44.1436 83.6673 43.7108 83.6673 43.1698C83.6673 42.6289 84.1001 42.1961 84.641 42.1961C93.199 41.5578 100.697 38.0199 101.714 34.125C102.406 31.5284 99.8961 29.1698 97.6674 27.6226C97.4293 27.4928 97.2562 27.2656 97.1913 27.0059C97.1264 26.7463 97.1697 26.465 97.3211 26.2378C97.4726 26.0105 97.7106 25.8591 97.9811 25.805C98.2516 25.7617 98.5221 25.8266 98.7385 25.9997C103.748 29.3212 104.148 32.5021 103.607 34.5577C102.19 39.9998 93.0692 43.4511 84.7925 44.0786L84.6518 44.1436H84.641ZM42.7815 43.3105C41.851 43.3105 40.9963 42.8128 40.5311 42.0122C40.0658 41.2116 40.0658 40.2162 40.5311 39.4156C40.9963 38.6149 41.851 38.1173 42.7815 38.1173C43.7119 38.1173 44.5666 38.6149 45.0319 39.4156C45.4971 40.2162 45.4971 41.2116 45.0319 42.0122C44.5666 42.8128 43.7119 43.3105 42.7815 43.3105ZM42.7815 40.0431C42.6084 40.0431 42.4353 40.108 42.3162 40.227C42.1972 40.346 42.1323 40.5299 42.1431 40.703C42.1323 40.8762 42.1864 41.0601 42.3162 41.1791C42.4461 41.3089 42.6192 41.363 42.7923 41.3522C42.9654 41.3522 43.1277 41.2981 43.2467 41.1683C43.3657 41.0384 43.4198 40.8762 43.3982 40.703C43.4414 40.5191 43.3982 40.3244 43.2683 40.1837C43.1493 40.0431 42.9654 39.9673 42.7706 39.9782V40.0431H42.7815ZM42.7815 36.5485C42.089 36.5485 41.4291 36.278 40.9422 35.7911C40.4553 35.3043 40.1849 34.6443 40.1849 33.9519C40.1632 33.2594 40.4337 32.5778 40.9206 32.091C41.4182 31.5933 42.089 31.3336 42.7815 31.3552C43.7119 31.3552 44.5666 31.8529 45.0319 32.6536C45.4971 33.4542 45.4971 34.4495 45.0319 35.2502C44.5666 36.0508 43.7119 36.5485 42.7815 36.5485ZM42.7815 33.2811C42.6084 33.2702 42.4353 33.3352 42.3162 33.4542C42.1972 33.584 42.1323 33.7571 42.1431 33.9302C42.1323 34.1033 42.1864 34.2873 42.3162 34.4171C42.4461 34.5469 42.6192 34.6118 42.7923 34.601C43.106 34.5361 43.3224 34.2656 43.3224 33.9519C43.3224 33.6381 43.0952 33.3676 42.7923 33.3027H42.7815V33.2811ZM42.7815 29.754C41.851 29.754 40.9963 29.2563 40.5311 28.4557C40.0658 27.6551 40.0658 26.6597 40.5311 25.8591C40.9963 25.0585 41.851 24.5608 42.7815 24.5608C43.7119 24.5608 44.5666 25.0585 45.0319 25.8591C45.4971 26.6597 45.4971 27.6551 45.0319 28.4557C44.5666 29.2563 43.7119 29.754 42.7815 29.754ZM42.7815 26.3892C42.6084 26.3784 42.4353 26.4433 42.3162 26.5623C42.1972 26.6922 42.1323 26.8544 42.1431 27.0384C42.1323 27.2115 42.1972 27.3846 42.3162 27.5036C42.4353 27.6226 42.6084 27.6983 42.7815 27.6875C43.0952 27.6226 43.3116 27.3521 43.3116 27.0384C43.3116 26.7246 43.0844 26.4541 42.7815 26.3892Z" fill="#2673E5" stroke="#2673E5" stroke-width="0.7"/>
</g>
<defs>
<clipPath id="clip0_1503_27123">
<rect width="84" height="84" fill="white" transform="matrix(-1 0 0 1 117.557 0)"/>
</clipPath>
</defs>
</svg>
