<svg width="106" height="84" viewBox="0 0 106 84" fill="none" xmlns="http://www.w3.org/2000/svg">
<rect x="42.7539" y="0.000305176" width="59.2131" height="59.2131" rx="5" transform="rotate(45 42.7539 0.000305176)" fill="#2673E5" fill-opacity="0.1"/>
<g clip-path="url(#clip0_1503_27107)">
<g clip-path="url(#clip1_1503_27107)">
<path d="M81.84 64.79C84.25 64.78 86.21 62.8 86.2 60.38L86.14 47.15C86.14 45.19 84.54 43.61 82.57 43.62C79.26 43.64 79.88 47.18 75.58 47.2C72.66 47.21 70.29 44.86 70.28 41.95C70.27 39.04 72.62 36.66 75.53 36.65C79.8 36.63 79.26 40.18 82.55 40.17C84.51 40.17 86.09 38.57 86.08 36.6L86.02 23.37C86.01 20.96 84.03 19 81.62 19.01L68.39 19.07C66.43 19.07 64.83 17.5 64.82 15.54C64.8 12.23 68.36 12.81 68.34 8.52002C68.33 5.60002 65.95 3.25002 63.04 3.27002C60.12 3.28002 57.77 5.65002 57.79 8.57002C57.81 12.84 61.36 12.26 61.37 15.56C61.37 17.52 59.8 19.12 57.84 19.13L44.61 19.19C42.2 19.2 40.24 21.18 40.25 23.59" stroke="#2673E5"/>
<path d="M81.8491 66.04V63.54C82.6691 63.54 83.4491 63.21 84.0491 62.61C84.6491 62.01 84.9691 61.23 84.9591 60.39L84.8991 47.16C84.8991 45.9 83.8591 44.87 82.5991 44.87C81.6491 44.87 81.2891 45.24 80.5591 46.06C79.6691 47.06 78.4591 48.44 75.6091 48.45H75.5791C73.8491 48.45 72.2191 47.78 70.9891 46.56C69.7491 45.33 69.0691 43.7 69.0591 41.95C69.0391 38.35 71.9591 35.41 75.5591 35.39H75.5991C78.3991 35.39 79.6291 36.74 80.5191 37.73C81.2591 38.54 81.6291 38.91 82.5591 38.91H82.5791C83.1991 38.91 83.7691 38.67 84.1991 38.23C84.6291 37.79 84.8691 37.22 84.8691 36.6L84.8091 23.37C84.8091 22.54 84.4791 21.75 83.8791 21.16C83.2891 20.57 82.5091 20.25 81.6791 20.25H81.6591L68.4291 20.31C67.1891 20.29 65.9391 19.82 65.0291 18.92C64.1191 18.02 63.6091 16.81 63.6091 15.53C63.6091 13.42 64.7191 12.42 65.6091 11.61C66.4891 10.81 67.1291 10.24 67.1291 8.51C67.1291 7.43 66.6991 6.42 65.9391 5.67C65.1791 4.91 64.1491 4.48 63.0891 4.5C62.0091 4.5 60.9991 4.93 60.2491 5.69C59.4891 6.45 59.0791 7.47 59.0791 8.54C59.0791 10.26 59.7291 10.83 60.6291 11.63C61.5291 12.43 62.6591 13.43 62.6691 15.53C62.6791 18.18 60.5391 20.34 57.8891 20.35L44.6591 20.41C43.8291 20.41 43.0391 20.74 42.4491 21.34C41.8591 21.94 41.5291 22.72 41.5391 23.56H39.0391C39.0291 20.47 41.5391 17.93 44.6491 17.91L57.8791 17.85C59.1491 17.85 60.1691 16.81 60.1691 15.54C60.1691 14.6 59.7991 14.23 58.9691 13.5C57.9691 12.61 56.5991 11.39 56.5791 8.56C56.5591 4.96 59.4791 2.02 63.0791 2H63.1091C64.8391 2 66.4691 2.67 67.6991 3.89C68.9391 5.12 69.6191 6.75 69.6291 8.5C69.6391 11.35 68.2791 12.57 67.2891 13.47C66.4691 14.21 66.1091 14.57 66.1191 15.52C66.1191 16.13 66.3591 16.71 66.7991 17.14C67.2391 17.57 67.7691 17.8 68.4291 17.81L81.6591 17.75H81.6891C84.7791 17.75 87.3091 20.26 87.3191 23.36L87.3791 36.59C87.3791 37.87 86.8891 39.08 85.9891 39.99C85.0891 40.9 83.8791 41.41 82.5991 41.41H82.5691C80.4891 41.41 79.4891 40.3 78.6791 39.41C77.8791 38.52 77.2891 37.92 75.5791 37.89C73.3591 37.9 71.5591 39.72 71.5691 41.94C71.5691 43.02 71.9991 44.03 72.7591 44.78C73.5191 45.53 74.5191 45.95 75.5891 45.95H75.6091C77.3391 45.95 77.9091 45.3 78.6991 44.41C79.4991 43.51 80.4891 42.38 82.5991 42.37H82.6191C85.2591 42.37 87.4091 44.51 87.4191 47.15L87.4791 60.38C87.4791 61.88 86.9091 63.3 85.8491 64.37C84.7891 65.44 83.3791 66.04 81.8791 66.04H81.8491Z" fill="#2673E5" stroke="#2673E5"/>
<path d="M40.2402 23.58L40.3002 36.81C40.3002 38.77 41.9002 40.35 43.8702 40.34C47.1702 40.32 46.5702 36.78 50.8602 36.76C53.7802 36.75 56.1502 39.1 56.1602 42.01C56.1702 44.92 53.8302 47.3 50.9102 47.31C46.6402 47.33 47.1802 43.78 43.8902 43.79C41.9302 43.79 40.3502 45.39 40.3602 47.36L40.4202 60.59C40.4302 63 42.4102 64.96 44.8202 64.95L58.0502 64.89C60.0102 64.89 61.6102 66.46 61.6202 68.42C61.6402 71.73 58.0802 71.14 58.1002 75.44C58.1102 78.36 60.4802 80.71 63.4002 80.69C66.3202 80.68 68.6702 78.3 68.6502 75.39C68.6302 71.12 65.0802 71.7 65.0702 68.4C65.0702 66.44 66.6402 64.84 68.6002 64.83L81.8302 64.77" stroke="#2673E5"/>
<path d="M63.38 81.96C61.65 81.96 60.02 81.29 58.79 80.07C57.55 78.84 56.87 77.21 56.86 75.46C56.85 72.61 58.21 71.39 59.2 70.49C60.02 69.75 60.38 69.39 60.37 68.44C60.37 67.82 60.13 67.25 59.69 66.82C59.25 66.39 58.65 66.13 58.06 66.15L44.83 66.21H44.8C43.31 66.21 41.91 65.63 40.84 64.58C39.77 63.52 39.17 62.11 39.17 60.61L39.11 47.38C39.11 46.1 39.6 44.89 40.5 43.98C41.4 43.07 42.6 42.56 43.89 42.56H43.92C46 42.56 47 43.67 47.81 44.56C48.61 45.44 49.19 46.08 50.88 46.08H50.91C53.13 46.07 54.93 44.25 54.92 42.03C54.91 39.82 53.1 38.02 50.89 38.02H50.87C49.14 38.02 48.57 38.67 47.78 39.57C46.98 40.47 45.99 41.6 43.88 41.61H43.86C41.22 41.61 39.07 39.47 39.06 36.83L39 23.6H41.5L41.56 36.82C41.56 38.08 42.6 39.11 43.86 39.11C44.81 39.11 45.17 38.74 45.9 37.92C46.79 36.92 48 35.54 50.85 35.53H50.88C54.46 35.53 57.39 38.44 57.41 42.03C57.41 43.78 56.75 45.42 55.52 46.65C54.29 47.89 52.66 48.57 50.91 48.58H50.87C48.07 48.58 46.84 47.23 45.95 46.24C45.21 45.42 44.84 45.06 43.91 45.06H43.89C43.28 45.06 42.7 45.31 42.27 45.74C41.84 46.18 41.6 46.76 41.6 47.37L41.66 60.6C41.66 61.43 41.99 62.22 42.59 62.81C43.18 63.4 43.97 63.72 44.79 63.72H44.81L58.04 63.66H58.06C59.33 63.66 60.53 64.15 61.44 65.05C62.35 65.95 62.86 67.16 62.86 68.44C62.86 70.55 61.76 71.55 60.86 72.36C59.98 73.16 59.34 73.73 59.35 75.46C59.35 76.54 59.78 77.55 60.54 78.3C61.3 79.05 62.3 79.47 63.37 79.47H63.39C64.47 79.47 65.48 79.04 66.23 78.28C66.99 77.52 67.4 76.5 67.4 75.43C67.4 73.71 66.75 73.14 65.85 72.34C64.95 71.54 63.82 70.54 63.81 68.44C63.8 65.79 65.94 63.63 68.59 63.62L81.82 63.56V66.06L68.6 66.12C67.33 66.12 66.31 67.16 66.31 68.43C66.31 69.37 66.68 69.74 67.51 70.47C68.51 71.36 69.88 72.58 69.9 75.41C69.9 77.15 69.24 78.8 68.01 80.03C66.78 81.27 65.15 81.95 63.4 81.96H63.37H63.38Z" fill="#2673E5" stroke="#2673E5"/>
</g>
</g>
<defs>
<clipPath id="clip0_1503_27107">
<rect width="84" height="84" fill="white" transform="matrix(-4.37114e-08 1 1 4.37114e-08 21.1152 0)"/>
</clipPath>
<clipPath id="clip1_1503_27107">
<rect width="82.07" height="79.95" fill="white" transform="translate(23.0605 83.01) rotate(-90)"/>
</clipPath>
</defs>
</svg>
