<?xml version="1.0" encoding="utf-8"?>
<!-- Generator: Adobe Illustrator 26.5.0, SVG Export Plug-In . SVG Version: 6.00 Build 0)  -->
<svg version="1.1" id="Layer_2_00000021829319773060872640000001424220726426590881_"
	 xmlns="http://www.w3.org/2000/svg" xmlns:xlink="http://www.w3.org/1999/xlink" x="0px" y="0px" viewBox="0 0 23.9 24"
	 style="enable-background:new 0 0 23.9 24;" xml:space="preserve">
<style type="text/css">
	.st0{fill:url(#SVGID_1_);}
	.st1{fill:url(#SVGID_00000029011096911650692420000003195759481233278642_);}
	.st2{fill:url(#SVGID_00000078004541822601942080000009822986820957135517_);}
</style>
<g id="Layer_1-2">
	<g>
		
			<linearGradient id="SVGID_1_" gradientUnits="userSpaceOnUse" x1="23.1813" y1="4.6895" x2="20.9149" y2="2.4788" gradientTransform="matrix(1 0 0 -1 0 26)">
			<stop  offset="0" style="stop-color:#90298D"/>
			<stop  offset="8.000000e-02" style="stop-color:#872A8D"/>
			<stop  offset="1" style="stop-color:#2A3B8F"/>
		</linearGradient>
		<circle class="st0" cx="22" cy="22.4" r="1.6"/>
		
			<linearGradient id="SVGID_00000105392884287326053130000004983768474098098066_" gradientUnits="userSpaceOnUse" x1="18.5522" y1="20.532" x2="5.5221" y2="7.8267" gradientTransform="matrix(1 0 0 -1 0 26)">
			<stop  offset="0" style="stop-color:#90298D"/>
			<stop  offset="8.000000e-02" style="stop-color:#872A8D"/>
			<stop  offset="1" style="stop-color:#2A3B8F"/>
		</linearGradient>
		<path style="fill:url(#SVGID_00000105392884287326053130000004983768474098098066_);" d="M18.7,2.1c-2.5-1.7-5.4-2.3-8.2-2
			c-0.3,0-0.5,0.1-0.8,0.1C3.2,1.4-1,7.7,0.2,14.1c1.2,6.5,7.4,10.7,13.9,9.5c0.7-0.1,1.4-0.3,2-0.6c2.3-0.8,4.3-2.3,5.8-4.4
			C25.6,13.2,24.2,5.8,18.7,2.1L18.7,2.1z M12.7,19.4C12.7,19.4,12.7,19.4,12.7,19.4C12.7,19.4,12.7,19.4,12.7,19.4
			c-1.6,0.2-3.1-0.2-4.3-0.9c0,0,0,0,0,0c-0.2-0.1-0.4-0.2-0.5-0.3c0,0,0,0,0,0c0,0,0,0,0,0c-1.6-1.1-2.8-2.7-3.2-4.8
			c-0.8-4,1.9-7.9,5.9-8.6c0.2,0,0.4-0.1,0.7-0.1c0,0,0,0,0,0c0,0,0,0,0.1,0c0,0,0,0,0,0c0,0,0,0,0,0C13,4.6,14.7,5,16.1,6
			c2.6,1.8,3.7,4.8,3,7.7c-0.3,1.1-0.8,2.2-1.5,3.1l0,0C16.4,18.3,14.6,19.2,12.7,19.4L12.7,19.4z M18.6,20.6
			c-0.9,0-1.6-0.7-1.6-1.6s0.7-1.6,1.6-1.6s1.6,0.7,1.6,1.6S19.4,20.6,18.6,20.6z"/>
		
			<linearGradient id="SVGID_00000031166068294541945950000003682822563579389062_" gradientUnits="userSpaceOnUse" x1="16.0156" y1="14.9805" x2="13.0047" y2="21.9113" gradientTransform="matrix(1 0 0 -1 0 26)">
			<stop  offset="0" style="stop-color:#90298D"/>
			<stop  offset="0.1" style="stop-color:#852888"/>
			<stop  offset="1" style="stop-color:#282560"/>
		</linearGradient>
		<path style="fill:url(#SVGID_00000031166068294541945950000003682822563579389062_);" d="M23.7,10.2c-0.1-2.2-1.9-6.6-6.8-7.5
			C9.1,1.3,6.1,7.6,6.1,7.6l0,0c1.1-1.4,2.6-2.5,4.5-2.8c4.1-0.8,8,1.9,8.7,6"/>
	</g>
</g>
</svg>
