<svg width="42" height="33" viewBox="0 0 42 33" fill="none" xmlns="http://www.w3.org/2000/svg">
<path d="M20.25 0V9.5C20.25 12.2083 19.7292 15 18.6875 17.875C17.6875 20.75 16.3333 23.4792 14.625 26.0625C12.9167 28.6042 11.0417 30.7708 9 32.5625L0.5625 27.6875C2.10417 25.2292 3.41667 22.5625 4.5 19.6875C5.58333 16.7708 6.125 13.3958 6.125 9.5625V0H20.25ZM41.8125 0V9.5C41.8125 12.2083 41.2917 15 40.25 17.875C39.25 20.75 37.8958 23.4792 36.1875 26.0625C34.4792 28.6042 32.6042 30.7708 30.5625 32.5625L22.125 27.6875C23.6667 25.2292 24.9792 22.5625 26.0625 19.6875C27.1458 16.7708 27.6875 13.3958 27.6875 9.5625V0H41.8125Z" fill="#2673E5"/>
</svg>
