<svg width="447" height="443" viewBox="0 0 447 443" fill="none" xmlns="http://www.w3.org/2000/svg">
<g opacity="0.3">
<path d="M285.844 64.7844L202.609 330.268L263.523 342.167C268.3 343.105 272.98 340.749 275.02 336.446C286.732 311.902 303.437 290.075 324.053 272.455C344.406 255.027 358.902 230.531 363.559 201.685C372.967 143.463 339.246 86.7798 285.844 64.8084V64.7844Z" fill="#2673E5" fill-opacity="0.6"/>
<path d="M233.954 405.149C248.547 408.009 262.419 398.442 264.771 383.922C267.123 369.403 257.091 355.196 242.499 352.336L198.409 343.73L182.305 395.052L233.954 405.149Z" fill="#2673E5" fill-opacity="0.6"/>
<g opacity="0.2">
<path d="M229.277 32.0677C93.3605 67.669 91.2005 124.665 137.066 232.19C145.178 251.205 152.282 270.628 158.211 290.34C190.108 396.302 233.045 186.06 255.798 97.2847C256.398 94.9289 257.07 92.5731 257.958 90.3135C266.55 67.9094 284.839 44.7601 258.846 33.8946C249.414 29.9522 238.949 29.5436 229.277 32.0677Z" fill="#2673E5" fill-opacity="0.6"/>
<path d="M158.112 370.821C143.472 365.533 130.151 358.057 140.448 344.884C143.16 341.398 146.76 338.706 150.624 336.59C169.201 326.446 176.137 332.936 179.569 353.249C181.657 365.533 169.873 375.076 158.088 370.821H158.112Z" fill="#2673E5" fill-opacity="0.6"/>
<path d="M369.173 391.879C331.372 434.428 287.762 468.947 255.793 412.505C247.345 397.601 242.737 380.918 240.553 364.091C230.088 283.609 261.842 269.763 336.796 289.691C382.181 301.758 399.582 357.624 369.173 391.879Z" fill="#2673E5" fill-opacity="0.6"/>
<path d="M40.5569 41.1543C68.9018 50.3131 94.8706 63.7507 76.054 89.6885C71.0859 96.5395 64.4137 101.972 57.1174 106.299C22.2683 126.997 8.58785 114.977 0.667589 76.2989C-4.13257 52.8852 17.7561 33.7985 40.5569 41.1543Z" fill="#2673E5" fill-opacity="0.6"/>
<path d="M430.473 340.148C425.649 340.148 421.353 336.758 418.521 333.802C414.825 329.931 411.873 325.532 409.712 320.653C405.944 312.167 408.464 304.715 416.313 301.205C423.753 297.864 435.897 297.816 442.545 303.537C445.474 306.061 448.498 310.749 446.338 318.705L446.002 319.931C444.634 325.028 443.218 330.316 440.121 334.619C437.889 337.744 434.913 339.667 431.721 340.052C431.313 340.1 430.881 340.124 430.473 340.124V340.148ZM428.001 301.277C424.161 301.277 420.321 302.047 417.321 303.393C410.672 306.374 408.656 312.479 411.872 319.739C413.913 324.33 416.721 328.513 420.201 332.167C422.889 334.98 427.017 338.201 431.313 337.696C433.809 337.383 436.281 335.749 438.105 333.201C440.937 329.234 442.306 324.162 443.626 319.258L443.962 318.008C445.426 312.6 444.418 308.321 440.961 305.34C437.673 302.503 432.825 301.277 428.001 301.277Z" fill="#2673E5" fill-opacity="0.6"/>
</g>
<path d="M200.013 318.681L167.587 312.359C162.283 311.326 158.131 306.854 157.459 301.47C154.171 274.522 145.291 247.863 131.058 222.262C116.034 195.218 111.354 163.968 117.858 134.232C131.85 70.2892 191.66 31.01 256.942 42.837C265.727 44.4236 274.415 46.9957 282.791 50.4333L283.967 50.914L283.583 52.116L199.989 318.705L200.013 318.681ZM233.926 43.414C179.3 43.414 132.522 79.7845 120.474 134.881C114.114 163.968 118.698 194.545 133.386 220.988C147.787 246.902 156.787 273.897 160.123 301.205C160.627 305.412 163.867 308.898 167.995 309.691L198.116 315.58L280.655 52.4044C272.831 49.2794 264.719 46.9476 256.534 45.4572C248.902 44.063 241.342 43.3899 233.926 43.3899V43.414Z" fill="#2673E5" fill-opacity="0.6"/>
<path d="M287.396 40.0004L284.828 39.111L297.093 0L299.661 0.889433L287.396 40.0004Z" fill="#2673E5" fill-opacity="0.6"/>
<path d="M297.555 46.3707L296.211 44.0149L304.611 39.3754L305.979 41.7312L297.555 46.3707Z" fill="#2673E5" fill-opacity="0.6"/>
<path d="M168.623 418.803L166.055 417.913L174.455 391.134L177.023 392.024L168.623 418.803Z" fill="#2673E5" fill-opacity="0.6"/>
<path d="M179.681 383.49L175.625 382.696C168.209 381.254 161.681 376.999 157.264 370.701C152.824 364.427 151.048 356.903 152.248 349.523C154.72 334.234 169.241 324.234 184.601 327.239L196.602 329.595L179.705 383.49H179.681ZM154.888 350.052C153.808 356.711 155.416 363.538 159.425 369.211C163.433 374.884 169.337 378.754 176.033 380.052L177.785 380.389L193.074 331.614L184.145 329.859C170.249 327.143 157.12 336.182 154.864 350.028L154.888 350.052Z" fill="#2673E5" fill-opacity="0.6"/>
</g>
</svg>
