<svg width="431" height="561" viewBox="0 0 431 561" fill="none" xmlns="http://www.w3.org/2000/svg">
<path d="M0.00493704 359.302V383.66C0.00493704 398.221 9.23308 410.02 20.6277 410.02H54.7795C70.8177 410.02 83.8238 426.643 83.8238 447.136C83.8238 467.64 70.8177 484.26 54.7795 484.26H20.6277C9.23308 484.26 0.00493704 496.062 0.00493704 510.614V532.714C0.00493704 547.268 9.23308 559.067 20.6277 559.067L375.204 243.452M0.00493704 359.302L2.5035 359.387C2.50397 359.373 2.50445 359.359 2.50494 359.345M0.00493704 359.302C0.483208 345.186 9.57572 334.061 20.6277 334.077L0.00493704 359.302ZM2.50494 359.345V383.66C2.50494 397.447 11.1507 407.52 20.6277 407.52H54.7795C72.7346 407.52 86.3238 425.868 86.3238 447.136C86.3238 468.414 72.7349 486.76 54.7795 486.76H20.6277C11.1504 486.76 2.50494 496.836 2.50494 510.614V532.714C2.50494 546.493 11.1503 556.567 20.6277 556.567H20.6404L20.6531 556.568C41.0467 556.775 72.9369 556.831 105.178 556.887C117.086 556.908 129.043 556.929 140.485 556.958C161.689 557.011 181.129 557.091 195.214 557.246C202.254 557.323 207.972 557.42 211.909 557.542C213.871 557.603 215.423 557.671 216.484 557.749C217 557.787 217.472 557.832 217.834 557.892C217.928 557.908 218.087 557.935 218.27 557.985C315.947 557.582 401.85 473.14 426.853 351.162C428.242 343.839 426.899 336.167 423.318 330.375C419.735 324.592 414.459 321.513 409.148 321.553L409.138 321.553H409.129H375.202C366.601 321.553 358.533 317.196 352.689 309.726C346.855 302.273 343.65 292.269 343.65 281.938V281.908L343.651 281.879C344.148 261.042 357.619 243.434 375.204 243.452M2.50494 359.345C2.97326 346.021 11.4426 336.564 20.6241 336.577H20.6277H55.6333M2.50494 359.345L55.6333 336.577M375.204 243.452H410.237H410.247L410.257 243.452C415.563 243.494 420.845 240.415 424.426 234.633M375.204 243.452L424.426 234.633M424.426 234.633C428.01 228.846 429.352 221.153 427.96 213.834M424.426 234.633L427.96 213.834M55.6333 336.577C61.859 336.719 67.0293 332.027 69.1184 325.624C71.2144 319.215 70.0852 311.766 66.0546 306.744C66.0494 306.737 66.0442 306.731 66.039 306.724L7.96883 231.671C7.96787 231.67 7.96692 231.668 7.96596 231.667L55.6333 336.577ZM20.6277 3.33856C15.984 3.33856 11.361 5.72982 7.87064 10.2803L20.6277 3.33856ZM20.6277 3.33856H218.423C317.318 3.51043 404.057 89.9108 427.96 213.834M20.6277 3.33856L427.96 213.834" stroke="url(#paint0_linear_1025_26142)" stroke-width="5"/>
<defs>
<linearGradient id="paint0_linear_1025_26142" x1="215.5" y1="0.838569" x2="73.1918" y2="308.158" gradientUnits="userSpaceOnUse">
<stop stop-color="#497FDB"/>
<stop offset="1" stop-color="white" stop-opacity="0"/>
</linearGradient>
</defs>
</svg>
