<svg width="16" height="16" viewBox="0 0 16 16" fill="none" xmlns="http://www.w3.org/2000/svg">
<g clip-path="url(#clip0_5322_47475)">
<path fill-rule="evenodd" clip-rule="evenodd" d="M12 2.625C11.2406 2.625 10.625 3.24061 10.625 4C10.625 4.19198 10.6643 4.37477 10.7354 4.54075C10.7433 4.55361 10.7507 4.56685 10.7577 4.58044C10.7698 4.60397 10.7803 4.6279 10.7892 4.65212C11.0215 5.08254 11.4766 5.375 12 5.375C12.7594 5.375 13.375 4.75939 13.375 4C13.375 3.24061 12.7594 2.625 12 2.625ZM9.98446 5.68183C10.466 6.25828 11.1902 6.625 12 6.625C13.4497 6.625 14.625 5.44975 14.625 4C14.625 2.55025 13.4497 1.375 12 1.375C10.5503 1.375 9.375 2.55025 9.375 4C9.375 4.19182 9.39557 4.37884 9.43464 4.55896L6.01679 6.31967C5.53527 5.74236 4.81054 5.375 4 5.375C2.55025 5.375 1.375 6.55025 1.375 8C1.375 9.44975 2.55025 10.625 4 10.625C4.81054 10.625 5.53528 10.2576 6.01679 9.68033L9.43464 11.441C9.39557 11.6212 9.375 11.8082 9.375 12C9.375 13.4497 10.5503 14.625 12 14.625C13.4497 14.625 14.625 13.4497 14.625 12C14.625 10.5503 13.4497 9.375 12 9.375C11.1902 9.375 10.466 9.74172 9.98446 10.3182L6.56578 8.55703C6.60457 8.3775 6.625 8.19114 6.625 8C6.625 7.80886 6.60457 7.6225 6.56578 7.44297L9.98446 5.68183ZM10.7354 11.4592C10.7433 11.4464 10.7507 11.4332 10.7577 11.4196C10.7698 11.396 10.7803 11.3721 10.7892 11.3479C11.0215 10.9175 11.4766 10.625 12 10.625C12.7594 10.625 13.375 11.2406 13.375 12C13.375 12.7594 12.7594 13.375 12 13.375C11.2406 13.375 10.625 12.7594 10.625 12C10.625 11.808 10.6643 11.6252 10.7354 11.4592ZM5.24647 8.58044L5.24973 8.57421C5.33015 8.39947 5.375 8.20497 5.375 8C5.375 7.79503 5.33015 7.60053 5.24973 7.42579L5.24647 7.41956C5.24016 7.40729 5.23428 7.39491 5.22885 7.38244C5.00263 6.93319 4.53731 6.625 4 6.625C3.24061 6.625 2.625 7.24061 2.625 8C2.625 8.75939 3.24061 9.375 4 9.375C4.53731 9.375 5.00263 9.06681 5.22885 8.61756C5.23428 8.60509 5.24015 8.59271 5.24647 8.58044Z" fill="black" fill-opacity="0.75"/>
</g>
<defs>
<clipPath id="clip0_5322_47475">
<rect width="16" height="16" fill="white"/>
</clipPath>
</defs>
</svg>
